<?xml version="1.0" encoding="UTF-8"?>
<svg xmlns="http://www.w3.org/2000/svg" xmlns:xlink="http://www.w3.org/1999/xlink"
     width="2000" height="1000" viewBox="-100 -100 2000 1000">
<defs>
</defs>
<path d="M0.0,0.0 L0.0,56.699999999999996" stroke="black" stroke-width="5" fill="none" />
<path d="M0.0,56.699999999999996 L49.10364039457767,85.05" stroke="black" stroke-width="5" fill="none" />
<path d="M49.10364039457767,-28.349999999999998 L98.20728078915533,0.0" stroke="black" stroke-width="5" fill="none" />
<path d="M0.0,0.0 L49.10364039457767,-28.349999999999998" stroke="black" stroke-width="5" fill="none" />
<path d="M147.310921183733,-28.35 L196.41456157831067,0.0" stroke="black" stroke-width="5" fill="none" />
<path d="M98.20728078915533,0.0 L147.310921183733,-28.35" stroke="black" stroke-width="5" fill="none" />
<path d="M245.51820197288833,-28.35000000000001 L294.621842367466,0.0" stroke="black" stroke-width="5" fill="none" />
<path d="M196.41456157831067,0.0 L245.51820197288833,-28.35000000000001" stroke="black" stroke-width="5" fill="none" />
<path d="M343.72548276204367,-28.349999999999994 L392.82912315662134,0.0" stroke="black" stroke-width="5" fill="none" />
<path d="M294.621842367466,0.0 L343.72548276204367,-28.349999999999994" stroke="black" stroke-width="5" fill="none" />
<path d="M441.932763551199,-28.349999999999994 L491.03640394577667,0.0" stroke="black" stroke-width="5" fill="none" />
<path d="M392.82912315662134,0.0 L441.932763551199,-28.349999999999994" stroke="black" stroke-width="5" fill="none" />
<path d="M540.1400443403543,-28.349999999999966 L589.243684734932,0.0" stroke="black" stroke-width="5" fill="none" />
<path d="M491.03640394577667,0.0 L540.1400443403543,-28.349999999999966" stroke="black" stroke-width="5" fill="none" />
<path d="M638.3473251295096,-28.349999999999966 L687.4509655240873,0.0" stroke="black" stroke-width="5" fill="none" />
<path d="M589.243684734932,0.0 L638.3473251295096,-28.349999999999966" stroke="black" stroke-width="5" fill="none" />
<path d="M736.554605918665,-28.349999999999966 L785.6582463132427,0.0" stroke="black" stroke-width="5" fill="none" />
<path d="M687.4509655240873,0.0 L736.554605918665,-28.349999999999966" stroke="black" stroke-width="5" fill="none" />
<path d="M834.7618867078204,85.05000000000001 L883.865527102398,56.700000000000045" stroke="black" stroke-width="5" fill="none" />
<path d="M883.865527102398,0.0 L883.865527102398,56.700000000000045" stroke="black" stroke-width="5" fill="none" />
<path d="M834.7618867078204,-28.350000000000023 L883.865527102398,0.0" stroke="black" stroke-width="5" fill="none" />
<path d="M785.6582463132427,0.0 L834.7618867078204,-28.350000000000023" stroke="black" stroke-width="5" fill="none" />
<path d="M49.10364039457767,85.05 L49.10364039457767,141.75" stroke="black" stroke-width="5" fill="none" />
<path d="M49.10364039457767,141.75 L98.20728078915533,170.1" stroke="black" stroke-width="5" fill="none" />
<path d="M785.6582463132427,170.09999999999997 L834.7618867078204,141.74999999999994" stroke="black" stroke-width="5" fill="none" />
<path d="M834.7618867078204,85.05000000000001 L834.7618867078204,141.74999999999994" stroke="black" stroke-width="5" fill="none" />
<path d="M98.20728078915533,170.1 L98.20728078915533,226.8" stroke="black" stroke-width="5" fill="none" />
<path d="M98.20728078915533,226.8 L147.310921183733,255.14999999999998" stroke="black" stroke-width="5" fill="none" />
<path d="M736.554605918665,255.15000000000003 L785.6582463132427,226.8" stroke="black" stroke-width="5" fill="none" />
<path d="M785.6582463132427,170.09999999999997 L785.6582463132427,226.8" stroke="black" stroke-width="5" fill="none" />
<path d="M147.310921183733,255.14999999999998 L147.310921183733,311.84999999999997" stroke="black" stroke-width="5" fill="none" />
<path d="M147.310921183733,311.84999999999997 L196.41456157831067,340.2" stroke="black" stroke-width="5" fill="none" />
<path d="M687.4509655240873,340.19999999999993 L736.554605918665,311.84999999999997" stroke="black" stroke-width="5" fill="none" />
<path d="M736.554605918665,255.15000000000003 L736.554605918665,311.84999999999997" stroke="black" stroke-width="5" fill="none" />
<path d="M196.41456157831067,340.2 L196.41456157831067,396.9" stroke="black" stroke-width="5" fill="none" />
<path d="M196.41456157831067,396.9 L245.51820197288833,425.25" stroke="black" stroke-width="5" fill="none" />
<path d="M638.3473251295096,425.25 L687.4509655240873,396.9" stroke="black" stroke-width="5" fill="none" />
<path d="M687.4509655240873,340.19999999999993 L687.4509655240873,396.9" stroke="black" stroke-width="5" fill="none" />
<path d="M245.51820197288833,425.25 L245.51820197288833,481.94999999999993" stroke="black" stroke-width="5" fill="none" />
<path d="M245.51820197288833,481.94999999999993 L294.621842367466,510.29999999999995" stroke="black" stroke-width="5" fill="none" />
<path d="M589.243684734932,510.2999999999999 L638.3473251295096,481.94999999999993" stroke="black" stroke-width="5" fill="none" />
<path d="M638.3473251295096,425.25 L638.3473251295096,481.94999999999993" stroke="black" stroke-width="5" fill="none" />
<path d="M294.621842367466,510.29999999999995 L294.621842367466,566.9999999999999" stroke="black" stroke-width="5" fill="none" />
<path d="M294.621842367466,566.9999999999999 L343.72548276204367,595.3499999999999" stroke="black" stroke-width="5" fill="none" />
<path d="M540.1400443403543,595.3499999999999 L589.243684734932,567.0" stroke="black" stroke-width="5" fill="none" />
<path d="M589.243684734932,510.2999999999999 L589.243684734932,567.0" stroke="black" stroke-width="5" fill="none" />
<path d="M343.72548276204367,595.3499999999999 L343.72548276204367,652.05" stroke="black" stroke-width="5" fill="none" />
<path d="M343.72548276204367,652.05 L392.82912315662134,680.4" stroke="black" stroke-width="5" fill="none" />
<path d="M491.03640394577667,680.4 L540.1400443403543,652.05" stroke="black" stroke-width="5" fill="none" />
<path d="M540.1400443403543,595.3499999999999 L540.1400443403543,652.05" stroke="black" stroke-width="5" fill="none" />
<path d="M392.82912315662134,680.4 L392.82912315662134,737.1" stroke="black" stroke-width="5" fill="none" />
<path d="M392.82912315662134,737.1 L441.932763551199,765.4499999999999" stroke="black" stroke-width="5" fill="none" />
<path d="M441.932763551199,765.4499999999999 L491.03640394577667,737.0999999999999" stroke="black" stroke-width="5" fill="none" />
<path d="M491.03640394577667,680.4 L491.03640394577667,737.0999999999999" stroke="black" stroke-width="5" fill="none" />
<path d="M883.865527102398,0.0 L883.865527102398,56.700000000000045" stroke="black" stroke-width="5" fill="none" />
<path d="M883.865527102398,56.700000000000045 L932.9691674969756,85.04999999999995" stroke="black" stroke-width="5" fill="none" />
<path d="M932.9691674969756,-28.350000000000023 L982.0728078915533,0.0" stroke="black" stroke-width="5" fill="none" />
<path d="M883.865527102398,0.0 L932.9691674969756,-28.350000000000023" stroke="black" stroke-width="5" fill="none" />
<path d="M1031.1764482861308,-28.34999999999991 L1080.2800886807086,0.0" stroke="black" stroke-width="5" fill="none" />
<path d="M982.0728078915533,0.0 L1031.1764482861308,-28.34999999999991" stroke="black" stroke-width="5" fill="none" />
<path d="M1129.3837290752863,-28.350000000000023 L1178.487369469864,0.0" stroke="black" stroke-width="5" fill="none" />
<path d="M1080.2800886807086,0.0 L1129.3837290752863,-28.350000000000023" stroke="black" stroke-width="5" fill="none" />
<path d="M1227.5910098644417,-28.350000000000023 L1276.6946502590192,0.0" stroke="black" stroke-width="5" fill="none" />
<path d="M1178.487369469864,0.0 L1227.5910098644417,-28.350000000000023" stroke="black" stroke-width="5" fill="none" />
<path d="M1325.798290653597,-28.350000000000023 L1374.9019310481747,0.0" stroke="black" stroke-width="5" fill="none" />
<path d="M1276.6946502590192,0.0 L1325.798290653597,-28.350000000000023" stroke="black" stroke-width="5" fill="none" />
<path d="M1424.0055714427524,-28.350000000000023 L1473.10921183733,0.0" stroke="black" stroke-width="5" fill="none" />
<path d="M1374.9019310481747,0.0 L1424.0055714427524,-28.350000000000023" stroke="black" stroke-width="5" fill="none" />
<path d="M1522.2128522319076,-28.350000000000023 L1571.3164926264853,0.0" stroke="black" stroke-width="5" fill="none" />
<path d="M1473.10921183733,0.0 L1522.2128522319076,-28.350000000000023" stroke="black" stroke-width="5" fill="none" />
<path d="M1620.420133021063,-28.350000000000023 L1669.5237734156408,0.0" stroke="black" stroke-width="5" fill="none" />
<path d="M1571.3164926264853,0.0 L1620.420133021063,-28.350000000000023" stroke="black" stroke-width="5" fill="none" />
<path d="M1718.6274138102183,85.05000000000007 L1767.731054204796,56.700000000000045" stroke="black" stroke-width="5" fill="none" />
<path d="M1767.731054204796,0.0 L1767.731054204796,56.700000000000045" stroke="black" stroke-width="5" fill="none" />
<path d="M1718.6274138102183,-28.34999999999991 L1767.731054204796,0.0" stroke="black" stroke-width="5" fill="none" />
<path d="M1669.5237734156408,0.0 L1718.6274138102183,-28.34999999999991" stroke="black" stroke-width="5" fill="none" />
<path d="M932.9691674969756,85.04999999999995 L932.9691674969756,141.75" stroke="black" stroke-width="5" fill="none" />
<path d="M932.9691674969756,141.75 L982.0728078915533,170.0999999999999" stroke="black" stroke-width="5" fill="none" />
<path d="M1669.5237734156408,170.10000000000002 L1718.6274138102183,141.7500000000001" stroke="black" stroke-width="5" fill="none" />
<path d="M1718.6274138102183,85.05000000000007 L1718.6274138102183,141.7500000000001" stroke="black" stroke-width="5" fill="none" />
<path d="M982.0728078915533,170.0999999999999 L982.0728078915533,226.79999999999995" stroke="black" stroke-width="5" fill="none" />
<path d="M982.0728078915533,226.79999999999995 L1031.1764482861308,255.14999999999998" stroke="black" stroke-width="5" fill="none" />
<path d="M1620.420133021063,255.14999999999986 L1669.5237734156408,226.79999999999984" stroke="black" stroke-width="5" fill="none" />
<path d="M1669.5237734156408,170.10000000000002 L1669.5237734156408,226.79999999999984" stroke="black" stroke-width="5" fill="none" />
<path d="M1031.1764482861308,255.14999999999998 L1031.1764482861308,311.85" stroke="black" stroke-width="5" fill="none" />
<path d="M1031.1764482861308,311.85 L1080.2800886807086,340.20000000000005" stroke="black" stroke-width="5" fill="none" />
<path d="M1571.3164926264853,340.19999999999993 L1620.420133021063,311.8499999999999" stroke="black" stroke-width="5" fill="none" />
<path d="M1620.420133021063,255.14999999999986 L1620.420133021063,311.8499999999999" stroke="black" stroke-width="5" fill="none" />
<path d="M1080.2800886807086,340.20000000000005 L1080.2800886807086,396.9" stroke="black" stroke-width="5" fill="none" />
<path d="M1080.2800886807086,396.9 L1129.3837290752863,425.25" stroke="black" stroke-width="5" fill="none" />
<path d="M1522.2128522319076,425.25 L1571.3164926264853,396.9" stroke="black" stroke-width="5" fill="none" />
<path d="M1571.3164926264853,340.19999999999993 L1571.3164926264853,396.9" stroke="black" stroke-width="5" fill="none" />
<path d="M1129.3837290752863,425.25 L1129.3837290752863,481.95000000000005" stroke="black" stroke-width="5" fill="none" />
<path d="M1129.3837290752863,481.95000000000005 L1178.487369469864,510.29999999999984" stroke="black" stroke-width="5" fill="none" />
<path d="M1473.10921183733,510.30000000000007 L1522.2128522319076,481.95000000000005" stroke="black" stroke-width="5" fill="none" />
<path d="M1522.2128522319076,425.25 L1522.2128522319076,481.95000000000005" stroke="black" stroke-width="5" fill="none" />
<path d="M1178.487369469864,510.29999999999984 L1178.487369469864,566.9999999999999" stroke="black" stroke-width="5" fill="none" />
<path d="M1178.487369469864,566.9999999999999 L1227.5910098644417,595.3499999999999" stroke="black" stroke-width="5" fill="none" />
<path d="M1424.0055714427524,595.35 L1473.10921183733,567.0000000000001" stroke="black" stroke-width="5" fill="none" />
<path d="M1473.10921183733,510.30000000000007 L1473.10921183733,567.0000000000001" stroke="black" stroke-width="5" fill="none" />
<path d="M1227.5910098644417,595.3499999999999 L1227.5910098644417,652.05" stroke="black" stroke-width="5" fill="none" />
<path d="M1227.5910098644417,652.05 L1276.6946502590192,680.4000000000001" stroke="black" stroke-width="5" fill="none" />
<path d="M1374.9019310481747,680.3999999999999 L1424.0055714427524,652.0499999999998" stroke="black" stroke-width="5" fill="none" />
<path d="M1424.0055714427524,595.35 L1424.0055714427524,652.0499999999998" stroke="black" stroke-width="5" fill="none" />
<path d="M1276.6946502590192,680.4000000000001 L1276.6946502590192,737.0999999999999" stroke="black" stroke-width="5" fill="none" />
<path d="M1276.6946502590192,737.0999999999999 L1325.798290653597,765.4499999999999" stroke="black" stroke-width="5" fill="none" />
<path d="M1325.798290653597,765.4499999999999 L1374.9019310481747,737.0999999999999" stroke="black" stroke-width="5" fill="none" />
<path d="M1374.9019310481747,680.3999999999999 L1374.9019310481747,737.0999999999999" stroke="black" stroke-width="5" fill="none" />
<path d="M1325.798290653597,822.15 L1325.798290653597,765.4499999999999" stroke="black" stroke-width="5" fill="none" />
<path d="M1325.798290653597,765.4499999999999 L1276.6946502590192,737.0999999999999" stroke="black" stroke-width="5" fill="none" />
<path d="M1276.6946502590192,850.5 L1227.5910098644417,822.1499999999999" stroke="black" stroke-width="5" fill="none" />
<path d="M1325.798290653597,822.15 L1276.6946502590192,850.5" stroke="black" stroke-width="5" fill="none" />
<path d="M1178.487369469864,850.4999999999999 L1129.3837290752863,822.1499999999999" stroke="black" stroke-width="5" fill="none" />
<path d="M1227.5910098644417,822.1499999999999 L1178.487369469864,850.4999999999999" stroke="black" stroke-width="5" fill="none" />
<path d="M1080.2800886807086,850.4999999999999 L1031.1764482861308,822.1500000000001" stroke="black" stroke-width="5" fill="none" />
<path d="M1129.3837290752863,822.1499999999999 L1080.2800886807086,850.4999999999999" stroke="black" stroke-width="5" fill="none" />
<path d="M982.0728078915533,850.5 L932.9691674969756,822.15" stroke="black" stroke-width="5" fill="none" />
<path d="M1031.1764482861308,822.1500000000001 L982.0728078915533,850.5" stroke="black" stroke-width="5" fill="none" />
<path d="M883.865527102398,850.5 L834.7618867078204,822.1499999999999" stroke="black" stroke-width="5" fill="none" />
<path d="M932.9691674969756,822.15 L883.865527102398,850.5" stroke="black" stroke-width="5" fill="none" />
<path d="M785.6582463132427,850.5 L736.554605918665,822.1499999999999" stroke="black" stroke-width="5" fill="none" />
<path d="M834.7618867078204,822.1499999999999 L785.6582463132427,850.5" stroke="black" stroke-width="5" fill="none" />
<path d="M687.4509655240873,850.4999999999999 L638.3473251295096,822.1499999999999" stroke="black" stroke-width="5" fill="none" />
<path d="M736.554605918665,822.1499999999999 L687.4509655240873,850.4999999999999" stroke="black" stroke-width="5" fill="none" />
<path d="M589.243684734932,850.4999999999998 L540.1400443403543,822.1500000000001" stroke="black" stroke-width="5" fill="none" />
<path d="M638.3473251295096,822.1499999999999 L589.243684734932,850.4999999999998" stroke="black" stroke-width="5" fill="none" />
<path d="M491.03640394577667,737.0999999999999 L441.932763551199,765.4499999999999" stroke="black" stroke-width="5" fill="none" />
<path d="M441.932763551199,822.15 L441.932763551199,765.4499999999999" stroke="black" stroke-width="5" fill="none" />
<path d="M491.03640394577667,850.5 L441.932763551199,822.15" stroke="black" stroke-width="5" fill="none" />
<path d="M540.1400443403543,822.1500000000001 L491.03640394577667,850.5" stroke="black" stroke-width="5" fill="none" />
<path d="M1276.6946502590192,737.0999999999999 L1276.6946502590192,680.4000000000001" stroke="black" stroke-width="5" fill="none" />
<path d="M1276.6946502590192,680.4000000000001 L1227.5910098644417,652.05" stroke="black" stroke-width="5" fill="none" />
<path d="M540.1400443403543,652.05 L491.03640394577667,680.4" stroke="black" stroke-width="5" fill="none" />
<path d="M491.03640394577667,737.0999999999999 L491.03640394577667,680.4" stroke="black" stroke-width="5" fill="none" />
<path d="M1227.5910098644417,652.05 L1227.5910098644417,595.3499999999999" stroke="black" stroke-width="5" fill="none" />
<path d="M1227.5910098644417,595.3499999999999 L1178.487369469864,566.9999999999999" stroke="black" stroke-width="5" fill="none" />
<path d="M589.243684734932,567.0 L540.1400443403543,595.3499999999999" stroke="black" stroke-width="5" fill="none" />
<path d="M540.1400443403543,652.05 L540.1400443403543,595.3499999999999" stroke="black" stroke-width="5" fill="none" />
<path d="M1178.487369469864,566.9999999999999 L1178.487369469864,510.29999999999984" stroke="black" stroke-width="5" fill="none" />
<path d="M1178.487369469864,510.29999999999984 L1129.3837290752863,481.95000000000005" stroke="black" stroke-width="5" fill="none" />
<path d="M638.3473251295096,481.94999999999993 L589.243684734932,510.2999999999999" stroke="black" stroke-width="5" fill="none" />
<path d="M589.243684734932,567.0 L589.243684734932,510.2999999999999" stroke="black" stroke-width="5" fill="none" />
<path d="M1129.3837290752863,481.95000000000005 L1129.3837290752863,425.25" stroke="black" stroke-width="5" fill="none" />
<path d="M1129.3837290752863,425.25 L1080.2800886807086,396.9" stroke="black" stroke-width="5" fill="none" />
<path d="M687.4509655240873,396.9 L638.3473251295096,425.25" stroke="black" stroke-width="5" fill="none" />
<path d="M638.3473251295096,481.94999999999993 L638.3473251295096,425.25" stroke="black" stroke-width="5" fill="none" />
<path d="M1080.2800886807086,396.9 L1080.2800886807086,340.20000000000005" stroke="black" stroke-width="5" fill="none" />
<path d="M1080.2800886807086,340.20000000000005 L1031.1764482861308,311.85" stroke="black" stroke-width="5" fill="none" />
<path d="M736.554605918665,311.84999999999997 L687.4509655240873,340.19999999999993" stroke="black" stroke-width="5" fill="none" />
<path d="M687.4509655240873,396.9 L687.4509655240873,340.19999999999993" stroke="black" stroke-width="5" fill="none" />
<path d="M1031.1764482861308,311.85 L1031.1764482861308,255.14999999999998" stroke="black" stroke-width="5" fill="none" />
<path d="M1031.1764482861308,255.14999999999998 L982.0728078915533,226.79999999999995" stroke="black" stroke-width="5" fill="none" />
<path d="M785.6582463132427,226.8 L736.554605918665,255.15000000000003" stroke="black" stroke-width="5" fill="none" />
<path d="M736.554605918665,311.84999999999997 L736.554605918665,255.15000000000003" stroke="black" stroke-width="5" fill="none" />
<path d="M982.0728078915533,226.79999999999995 L982.0728078915533,170.0999999999999" stroke="black" stroke-width="5" fill="none" />
<path d="M982.0728078915533,170.0999999999999 L932.9691674969756,141.75" stroke="black" stroke-width="5" fill="none" />
<path d="M834.7618867078204,141.74999999999994 L785.6582463132427,170.09999999999997" stroke="black" stroke-width="5" fill="none" />
<path d="M785.6582463132427,226.8 L785.6582463132427,170.09999999999997" stroke="black" stroke-width="5" fill="none" />
<path d="M932.9691674969756,141.75 L932.9691674969756,85.04999999999995" stroke="black" stroke-width="5" fill="none" />
<path d="M932.9691674969756,85.04999999999995 L883.865527102398,56.700000000000045" stroke="black" stroke-width="5" fill="none" />
<path d="M883.865527102398,56.700000000000045 L834.7618867078204,85.05000000000001" stroke="black" stroke-width="5" fill="none" />
<path d="M834.7618867078204,141.74999999999994 L834.7618867078204,85.05000000000001" stroke="black" stroke-width="5" fill="none" />
<path d="M49.10364039457767,85.05 L98.20728078915533,56.699999999999996" stroke="green" stroke-width="3" fill="none" />
<path d="M98.20728078915533,0.0 L98.20728078915533,56.699999999999996" stroke="green" stroke-width="3" fill="none" />
<path d="M98.20728078915533,56.699999999999996 L147.310921183733,85.05" stroke="green" stroke-width="3" fill="none" />
<path d="M147.310921183733,85.05 L196.41456157831067,56.7" stroke="green" stroke-width="3" fill="none" />
<path d="M196.41456157831067,0.0 L196.41456157831067,56.7" stroke="green" stroke-width="3" fill="none" />
<path d="M196.41456157831067,56.7 L245.51820197288833,85.04999999999998" stroke="green" stroke-width="3" fill="none" />
<path d="M245.51820197288833,85.04999999999998 L294.621842367466,56.69999999999999" stroke="green" stroke-width="3" fill="none" />
<path d="M294.621842367466,0.0 L294.621842367466,56.69999999999999" stroke="green" stroke-width="3" fill="none" />
<path d="M294.621842367466,56.69999999999999 L343.72548276204367,85.05000000000001" stroke="green" stroke-width="3" fill="none" />
<path d="M343.72548276204367,85.05000000000001 L392.82912315662134,56.70000000000002" stroke="green" stroke-width="3" fill="none" />
<path d="M392.82912315662134,0.0 L392.82912315662134,56.70000000000002" stroke="green" stroke-width="3" fill="none" />
<path d="M392.82912315662134,56.70000000000002 L441.932763551199,85.05000000000001" stroke="green" stroke-width="3" fill="none" />
<path d="M441.932763551199,85.05000000000001 L491.03640394577667,56.69999999999999" stroke="green" stroke-width="3" fill="none" />
<path d="M491.03640394577667,0.0 L491.03640394577667,56.69999999999999" stroke="green" stroke-width="3" fill="none" />
<path d="M491.03640394577667,56.69999999999999 L540.1400443403543,85.05000000000001" stroke="green" stroke-width="3" fill="none" />
<path d="M540.1400443403543,85.05000000000001 L589.243684734932,56.69999999999999" stroke="green" stroke-width="3" fill="none" />
<path d="M589.243684734932,0.0 L589.243684734932,56.69999999999999" stroke="green" stroke-width="3" fill="none" />
<path d="M589.243684734932,56.69999999999999 L638.3473251295096,85.05000000000001" stroke="green" stroke-width="3" fill="none" />
<path d="M638.3473251295096,85.05000000000001 L687.4509655240873,56.69999999999999" stroke="green" stroke-width="3" fill="none" />
<path d="M687.4509655240873,0.0 L687.4509655240873,56.69999999999999" stroke="green" stroke-width="3" fill="none" />
<path d="M687.4509655240873,56.69999999999999 L736.554605918665,85.05000000000001" stroke="green" stroke-width="3" fill="none" />
<path d="M736.554605918665,85.05000000000001 L785.6582463132427,56.69999999999999" stroke="green" stroke-width="3" fill="none" />
<path d="M785.6582463132427,0.0 L785.6582463132427,56.69999999999999" stroke="green" stroke-width="3" fill="none" />
<path d="M785.6582463132427,56.69999999999999 L834.7618867078204,85.05000000000001" stroke="green" stroke-width="3" fill="none" />
<path d="M98.20728078915533,170.1 L147.310921183733,141.75" stroke="green" stroke-width="3" fill="none" />
<path d="M147.310921183733,85.05 L147.310921183733,141.75" stroke="green" stroke-width="3" fill="none" />
<path d="M147.310921183733,141.75 L196.41456157831067,170.10000000000002" stroke="green" stroke-width="3" fill="none" />
<path d="M196.41456157831067,170.10000000000002 L245.51820197288833,141.75" stroke="green" stroke-width="3" fill="none" />
<path d="M245.51820197288833,85.04999999999998 L245.51820197288833,141.75" stroke="green" stroke-width="3" fill="none" />
<path d="M245.51820197288833,141.75 L294.621842367466,170.1" stroke="green" stroke-width="3" fill="none" />
<path d="M294.621842367466,170.1 L343.72548276204367,141.75" stroke="green" stroke-width="3" fill="none" />
<path d="M343.72548276204367,85.05000000000001 L343.72548276204367,141.75" stroke="green" stroke-width="3" fill="none" />
<path d="M343.72548276204367,141.75 L392.82912315662134,170.1" stroke="green" stroke-width="3" fill="none" />
<path d="M392.82912315662134,170.1 L441.932763551199,141.75" stroke="green" stroke-width="3" fill="none" />
<path d="M441.932763551199,85.05000000000001 L441.932763551199,141.75" stroke="green" stroke-width="3" fill="none" />
<path d="M441.932763551199,141.75 L491.03640394577667,170.09999999999997" stroke="green" stroke-width="3" fill="none" />
<path d="M491.03640394577667,170.09999999999997 L540.1400443403543,141.75" stroke="green" stroke-width="3" fill="none" />
<path d="M540.1400443403543,85.05000000000001 L540.1400443403543,141.75" stroke="green" stroke-width="3" fill="none" />
<path d="M540.1400443403543,141.75 L589.243684734932,170.09999999999997" stroke="green" stroke-width="3" fill="none" />
<path d="M589.243684734932,170.09999999999997 L638.3473251295096,141.75" stroke="green" stroke-width="3" fill="none" />
<path d="M638.3473251295096,85.05000000000001 L638.3473251295096,141.75" stroke="green" stroke-width="3" fill="none" />
<path d="M638.3473251295096,141.75 L687.4509655240873,170.10000000000002" stroke="green" stroke-width="3" fill="none" />
<path d="M687.4509655240873,170.10000000000002 L736.554605918665,141.75000000000006" stroke="green" stroke-width="3" fill="none" />
<path d="M736.554605918665,85.05000000000001 L736.554605918665,141.75000000000006" stroke="green" stroke-width="3" fill="none" />
<path d="M736.554605918665,141.75000000000006 L785.6582463132427,170.09999999999997" stroke="green" stroke-width="3" fill="none" />
<path d="M147.310921183733,255.14999999999998 L196.41456157831067,226.8" stroke="green" stroke-width="3" fill="none" />
<path d="M196.41456157831067,170.10000000000002 L196.41456157831067,226.8" stroke="green" stroke-width="3" fill="none" />
<path d="M196.41456157831067,226.8 L245.51820197288833,255.14999999999998" stroke="green" stroke-width="3" fill="none" />
<path d="M245.51820197288833,255.14999999999998 L294.621842367466,226.79999999999998" stroke="green" stroke-width="3" fill="none" />
<path d="M294.621842367466,170.1 L294.621842367466,226.79999999999998" stroke="green" stroke-width="3" fill="none" />
<path d="M294.621842367466,226.79999999999998 L343.72548276204367,255.14999999999998" stroke="green" stroke-width="3" fill="none" />
<path d="M343.72548276204367,255.14999999999998 L392.82912315662134,226.79999999999998" stroke="green" stroke-width="3" fill="none" />
<path d="M392.82912315662134,170.1 L392.82912315662134,226.79999999999998" stroke="green" stroke-width="3" fill="none" />
<path d="M392.82912315662134,226.79999999999998 L441.932763551199,255.14999999999998" stroke="green" stroke-width="3" fill="none" />
<path d="M441.932763551199,255.14999999999998 L491.03640394577667,226.79999999999995" stroke="green" stroke-width="3" fill="none" />
<path d="M491.03640394577667,170.09999999999997 L491.03640394577667,226.79999999999995" stroke="green" stroke-width="3" fill="none" />
<path d="M491.03640394577667,226.79999999999995 L540.1400443403543,255.15000000000003" stroke="green" stroke-width="3" fill="none" />
<path d="M540.1400443403543,255.15000000000003 L589.243684734932,226.8" stroke="green" stroke-width="3" fill="none" />
<path d="M589.243684734932,170.09999999999997 L589.243684734932,226.8" stroke="green" stroke-width="3" fill="none" />
<path d="M589.243684734932,226.8 L638.3473251295096,255.14999999999998" stroke="green" stroke-width="3" fill="none" />
<path d="M638.3473251295096,255.14999999999998 L687.4509655240873,226.79999999999995" stroke="green" stroke-width="3" fill="none" />
<path d="M687.4509655240873,170.10000000000002 L687.4509655240873,226.79999999999995" stroke="green" stroke-width="3" fill="none" />
<path d="M687.4509655240873,226.79999999999995 L736.554605918665,255.15000000000003" stroke="green" stroke-width="3" fill="none" />
<path d="M196.41456157831067,340.2 L245.51820197288833,311.84999999999997" stroke="green" stroke-width="3" fill="none" />
<path d="M245.51820197288833,255.14999999999998 L245.51820197288833,311.84999999999997" stroke="green" stroke-width="3" fill="none" />
<path d="M245.51820197288833,311.84999999999997 L294.621842367466,340.19999999999993" stroke="green" stroke-width="3" fill="none" />
<path d="M294.621842367466,340.19999999999993 L343.72548276204367,311.84999999999997" stroke="green" stroke-width="3" fill="none" />
<path d="M343.72548276204367,255.14999999999998 L343.72548276204367,311.84999999999997" stroke="green" stroke-width="3" fill="none" />
<path d="M343.72548276204367,311.84999999999997 L392.82912315662134,340.20000000000005" stroke="green" stroke-width="3" fill="none" />
<path d="M392.82912315662134,340.20000000000005 L441.932763551199,311.85" stroke="green" stroke-width="3" fill="none" />
<path d="M441.932763551199,255.14999999999998 L441.932763551199,311.85" stroke="green" stroke-width="3" fill="none" />
<path d="M441.932763551199,311.85 L491.03640394577667,340.19999999999993" stroke="green" stroke-width="3" fill="none" />
<path d="M491.03640394577667,340.19999999999993 L540.1400443403543,311.84999999999997" stroke="green" stroke-width="3" fill="none" />
<path d="M540.1400443403543,255.15000000000003 L540.1400443403543,311.84999999999997" stroke="green" stroke-width="3" fill="none" />
<path d="M540.1400443403543,311.84999999999997 L589.243684734932,340.2" stroke="green" stroke-width="3" fill="none" />
<path d="M589.243684734932,340.2 L638.3473251295096,311.85" stroke="green" stroke-width="3" fill="none" />
<path d="M638.3473251295096,255.14999999999998 L638.3473251295096,311.85" stroke="green" stroke-width="3" fill="none" />
<path d="M638.3473251295096,311.85 L687.4509655240873,340.19999999999993" stroke="green" stroke-width="3" fill="none" />
<path d="M245.51820197288833,425.25 L294.621842367466,396.9" stroke="green" stroke-width="3" fill="none" />
<path d="M294.621842367466,340.19999999999993 L294.621842367466,396.9" stroke="green" stroke-width="3" fill="none" />
<path d="M294.621842367466,396.9 L343.72548276204367,425.24999999999994" stroke="green" stroke-width="3" fill="none" />
<path d="M343.72548276204367,425.24999999999994 L392.82912315662134,396.9" stroke="green" stroke-width="3" fill="none" />
<path d="M392.82912315662134,340.20000000000005 L392.82912315662134,396.9" stroke="green" stroke-width="3" fill="none" />
<path d="M392.82912315662134,396.9 L441.932763551199,425.25" stroke="green" stroke-width="3" fill="none" />
<path d="M441.932763551199,425.25 L491.03640394577667,396.9" stroke="green" stroke-width="3" fill="none" />
<path d="M491.03640394577667,340.19999999999993 L491.03640394577667,396.9" stroke="green" stroke-width="3" fill="none" />
<path d="M491.03640394577667,396.9 L540.1400443403543,425.24999999999994" stroke="green" stroke-width="3" fill="none" />
<path d="M540.1400443403543,425.24999999999994 L589.243684734932,396.8999999999999" stroke="green" stroke-width="3" fill="none" />
<path d="M589.243684734932,340.2 L589.243684734932,396.8999999999999" stroke="green" stroke-width="3" fill="none" />
<path d="M589.243684734932,396.8999999999999 L638.3473251295096,425.25" stroke="green" stroke-width="3" fill="none" />
<path d="M294.621842367466,510.29999999999995 L343.72548276204367,481.95" stroke="green" stroke-width="3" fill="none" />
<path d="M343.72548276204367,425.24999999999994 L343.72548276204367,481.95" stroke="green" stroke-width="3" fill="none" />
<path d="M343.72548276204367,481.95 L392.82912315662134,510.29999999999995" stroke="green" stroke-width="3" fill="none" />
<path d="M392.82912315662134,510.29999999999995 L441.932763551199,481.94999999999993" stroke="green" stroke-width="3" fill="none" />
<path d="M441.932763551199,425.25 L441.932763551199,481.94999999999993" stroke="green" stroke-width="3" fill="none" />
<path d="M441.932763551199,481.94999999999993 L491.03640394577667,510.29999999999995" stroke="green" stroke-width="3" fill="none" />
<path d="M491.03640394577667,510.29999999999995 L540.1400443403543,481.95" stroke="green" stroke-width="3" fill="none" />
<path d="M540.1400443403543,425.24999999999994 L540.1400443403543,481.95" stroke="green" stroke-width="3" fill="none" />
<path d="M540.1400443403543,481.95 L589.243684734932,510.2999999999999" stroke="green" stroke-width="3" fill="none" />
<path d="M343.72548276204367,595.3499999999999 L392.82912315662134,567.0" stroke="green" stroke-width="3" fill="none" />
<path d="M392.82912315662134,510.29999999999995 L392.82912315662134,567.0" stroke="green" stroke-width="3" fill="none" />
<path d="M392.82912315662134,567.0 L441.932763551199,595.3499999999999" stroke="green" stroke-width="3" fill="none" />
<path d="M441.932763551199,595.3499999999999 L491.03640394577667,566.9999999999999" stroke="green" stroke-width="3" fill="none" />
<path d="M491.03640394577667,510.29999999999995 L491.03640394577667,566.9999999999999" stroke="green" stroke-width="3" fill="none" />
<path d="M491.03640394577667,566.9999999999999 L540.1400443403543,595.3499999999999" stroke="green" stroke-width="3" fill="none" />
<path d="M392.82912315662134,680.4 L441.932763551199,652.05" stroke="green" stroke-width="3" fill="none" />
<path d="M441.932763551199,595.3499999999999 L441.932763551199,652.05" stroke="green" stroke-width="3" fill="none" />
<path d="M441.932763551199,652.05 L491.03640394577667,680.4" stroke="green" stroke-width="3" fill="none" />
<path d="M932.9691674969756,85.04999999999995 L982.0728078915533,56.69999999999993" stroke="green" stroke-width="3" fill="none" />
<path d="M982.0728078915533,0.0 L982.0728078915533,56.69999999999993" stroke="green" stroke-width="3" fill="none" />
<path d="M982.0728078915533,56.69999999999993 L1031.1764482861308,85.05000000000007" stroke="green" stroke-width="3" fill="none" />
<path d="M1031.1764482861308,85.05000000000007 L1080.2800886807086,56.700000000000045" stroke="green" stroke-width="3" fill="none" />
<path d="M1080.2800886807086,0.0 L1080.2800886807086,56.700000000000045" stroke="green" stroke-width="3" fill="none" />
<path d="M1080.2800886807086,56.700000000000045 L1129.3837290752863,85.04999999999995" stroke="green" stroke-width="3" fill="none" />
<path d="M1129.3837290752863,85.04999999999995 L1178.487369469864,56.69999999999993" stroke="green" stroke-width="3" fill="none" />
<path d="M1178.487369469864,0.0 L1178.487369469864,56.69999999999993" stroke="green" stroke-width="3" fill="none" />
<path d="M1178.487369469864,56.69999999999993 L1227.5910098644417,85.04999999999995" stroke="green" stroke-width="3" fill="none" />
<path d="M1227.5910098644417,85.04999999999995 L1276.6946502590192,56.700000000000045" stroke="green" stroke-width="3" fill="none" />
<path d="M1276.6946502590192,0.0 L1276.6946502590192,56.700000000000045" stroke="green" stroke-width="3" fill="none" />
<path d="M1276.6946502590192,56.700000000000045 L1325.798290653597,85.04999999999995" stroke="green" stroke-width="3" fill="none" />
<path d="M1325.798290653597,85.04999999999995 L1374.9019310481747,56.69999999999993" stroke="green" stroke-width="3" fill="none" />
<path d="M1374.9019310481747,0.0 L1374.9019310481747,56.69999999999993" stroke="green" stroke-width="3" fill="none" />
<path d="M1374.9019310481747,56.69999999999993 L1424.0055714427524,85.04999999999995" stroke="green" stroke-width="3" fill="none" />
<path d="M1424.0055714427524,85.04999999999995 L1473.10921183733,56.700000000000045" stroke="green" stroke-width="3" fill="none" />
<path d="M1473.10921183733,0.0 L1473.10921183733,56.700000000000045" stroke="green" stroke-width="3" fill="none" />
<path d="M1473.10921183733,56.700000000000045 L1522.2128522319076,85.05000000000007" stroke="green" stroke-width="3" fill="none" />
<path d="M1522.2128522319076,85.05000000000007 L1571.3164926264853,56.700000000000045" stroke="green" stroke-width="3" fill="none" />
<path d="M1571.3164926264853,0.0 L1571.3164926264853,56.700000000000045" stroke="green" stroke-width="3" fill="none" />
<path d="M1571.3164926264853,56.700000000000045 L1620.420133021063,85.04999999999995" stroke="green" stroke-width="3" fill="none" />
<path d="M1620.420133021063,85.04999999999995 L1669.5237734156408,56.69999999999993" stroke="green" stroke-width="3" fill="none" />
<path d="M1669.5237734156408,0.0 L1669.5237734156408,56.69999999999993" stroke="green" stroke-width="3" fill="none" />
<path d="M1669.5237734156408,56.69999999999993 L1718.6274138102183,85.05000000000007" stroke="green" stroke-width="3" fill="none" />
<path d="M982.0728078915533,170.0999999999999 L1031.1764482861308,141.75" stroke="green" stroke-width="3" fill="none" />
<path d="M1031.1764482861308,85.05000000000007 L1031.1764482861308,141.75" stroke="green" stroke-width="3" fill="none" />
<path d="M1031.1764482861308,141.75 L1080.2800886807086,170.10000000000002" stroke="green" stroke-width="3" fill="none" />
<path d="M1080.2800886807086,170.10000000000002 L1129.3837290752863,141.75" stroke="green" stroke-width="3" fill="none" />
<path d="M1129.3837290752863,85.04999999999995 L1129.3837290752863,141.75" stroke="green" stroke-width="3" fill="none" />
<path d="M1129.3837290752863,141.75 L1178.487369469864,170.0999999999999" stroke="green" stroke-width="3" fill="none" />
<path d="M1178.487369469864,170.0999999999999 L1227.5910098644417,141.7499999999999" stroke="green" stroke-width="3" fill="none" />
<path d="M1227.5910098644417,85.04999999999995 L1227.5910098644417,141.7499999999999" stroke="green" stroke-width="3" fill="none" />
<path d="M1227.5910098644417,141.7499999999999 L1276.6946502590192,170.10000000000002" stroke="green" stroke-width="3" fill="none" />
<path d="M1276.6946502590192,170.10000000000002 L1325.798290653597,141.75" stroke="green" stroke-width="3" fill="none" />
<path d="M1325.798290653597,85.04999999999995 L1325.798290653597,141.75" stroke="green" stroke-width="3" fill="none" />
<path d="M1325.798290653597,141.75 L1374.9019310481747,170.10000000000002" stroke="green" stroke-width="3" fill="none" />
<path d="M1374.9019310481747,170.10000000000002 L1424.0055714427524,141.75" stroke="green" stroke-width="3" fill="none" />
<path d="M1424.0055714427524,85.04999999999995 L1424.0055714427524,141.75" stroke="green" stroke-width="3" fill="none" />
<path d="M1424.0055714427524,141.75 L1473.10921183733,170.10000000000002" stroke="green" stroke-width="3" fill="none" />
<path d="M1473.10921183733,170.10000000000002 L1522.2128522319076,141.75" stroke="green" stroke-width="3" fill="none" />
<path d="M1522.2128522319076,85.05000000000007 L1522.2128522319076,141.75" stroke="green" stroke-width="3" fill="none" />
<path d="M1522.2128522319076,141.75 L1571.3164926264853,170.10000000000002" stroke="green" stroke-width="3" fill="none" />
<path d="M1571.3164926264853,170.10000000000002 L1620.420133021063,141.75" stroke="green" stroke-width="3" fill="none" />
<path d="M1620.420133021063,85.04999999999995 L1620.420133021063,141.75" stroke="green" stroke-width="3" fill="none" />
<path d="M1620.420133021063,141.75 L1669.5237734156408,170.10000000000002" stroke="green" stroke-width="3" fill="none" />
<path d="M1031.1764482861308,255.14999999999998 L1080.2800886807086,226.79999999999995" stroke="green" stroke-width="3" fill="none" />
<path d="M1080.2800886807086,170.10000000000002 L1080.2800886807086,226.79999999999995" stroke="green" stroke-width="3" fill="none" />
<path d="M1080.2800886807086,226.79999999999995 L1129.3837290752863,255.14999999999998" stroke="green" stroke-width="3" fill="none" />
<path d="M1129.3837290752863,255.14999999999998 L1178.487369469864,226.79999999999995" stroke="green" stroke-width="3" fill="none" />
<path d="M1178.487369469864,170.0999999999999 L1178.487369469864,226.79999999999995" stroke="green" stroke-width="3" fill="none" />
<path d="M1178.487369469864,226.79999999999995 L1227.5910098644417,255.14999999999998" stroke="green" stroke-width="3" fill="none" />
<path d="M1227.5910098644417,255.14999999999998 L1276.6946502590192,226.80000000000007" stroke="green" stroke-width="3" fill="none" />
<path d="M1276.6946502590192,170.10000000000002 L1276.6946502590192,226.80000000000007" stroke="green" stroke-width="3" fill="none" />
<path d="M1276.6946502590192,226.80000000000007 L1325.798290653597,255.14999999999998" stroke="green" stroke-width="3" fill="none" />
<path d="M1325.798290653597,255.14999999999998 L1374.9019310481747,226.79999999999995" stroke="green" stroke-width="3" fill="none" />
<path d="M1374.9019310481747,170.10000000000002 L1374.9019310481747,226.79999999999995" stroke="green" stroke-width="3" fill="none" />
<path d="M1374.9019310481747,226.79999999999995 L1424.0055714427524,255.14999999999998" stroke="green" stroke-width="3" fill="none" />
<path d="M1424.0055714427524,255.14999999999998 L1473.10921183733,226.80000000000007" stroke="green" stroke-width="3" fill="none" />
<path d="M1473.10921183733,170.10000000000002 L1473.10921183733,226.80000000000007" stroke="green" stroke-width="3" fill="none" />
<path d="M1473.10921183733,226.80000000000007 L1522.2128522319076,255.1500000000001" stroke="green" stroke-width="3" fill="none" />
<path d="M1522.2128522319076,255.1500000000001 L1571.3164926264853,226.80000000000007" stroke="green" stroke-width="3" fill="none" />
<path d="M1571.3164926264853,170.10000000000002 L1571.3164926264853,226.80000000000007" stroke="green" stroke-width="3" fill="none" />
<path d="M1571.3164926264853,226.80000000000007 L1620.420133021063,255.14999999999986" stroke="green" stroke-width="3" fill="none" />
<path d="M1080.2800886807086,340.20000000000005 L1129.3837290752863,311.85" stroke="green" stroke-width="3" fill="none" />
<path d="M1129.3837290752863,255.14999999999998 L1129.3837290752863,311.85" stroke="green" stroke-width="3" fill="none" />
<path d="M1129.3837290752863,311.85 L1178.487369469864,340.19999999999993" stroke="green" stroke-width="3" fill="none" />
<path d="M1178.487369469864,340.19999999999993 L1227.5910098644417,311.8499999999999" stroke="green" stroke-width="3" fill="none" />
<path d="M1227.5910098644417,255.14999999999998 L1227.5910098644417,311.8499999999999" stroke="green" stroke-width="3" fill="none" />
<path d="M1227.5910098644417,311.8499999999999 L1276.6946502590192,340.20000000000005" stroke="green" stroke-width="3" fill="none" />
<path d="M1276.6946502590192,340.20000000000005 L1325.798290653597,311.85" stroke="green" stroke-width="3" fill="none" />
<path d="M1325.798290653597,255.14999999999998 L1325.798290653597,311.85" stroke="green" stroke-width="3" fill="none" />
<path d="M1325.798290653597,311.85 L1374.9019310481747,340.20000000000005" stroke="green" stroke-width="3" fill="none" />
<path d="M1374.9019310481747,340.20000000000005 L1424.0055714427524,311.85" stroke="green" stroke-width="3" fill="none" />
<path d="M1424.0055714427524,255.14999999999998 L1424.0055714427524,311.85" stroke="green" stroke-width="3" fill="none" />
<path d="M1424.0055714427524,311.85 L1473.10921183733,340.19999999999993" stroke="green" stroke-width="3" fill="none" />
<path d="M1473.10921183733,340.19999999999993 L1522.2128522319076,311.8499999999999" stroke="green" stroke-width="3" fill="none" />
<path d="M1522.2128522319076,255.1500000000001 L1522.2128522319076,311.8499999999999" stroke="green" stroke-width="3" fill="none" />
<path d="M1522.2128522319076,311.8499999999999 L1571.3164926264853,340.19999999999993" stroke="green" stroke-width="3" fill="none" />
<path d="M1129.3837290752863,425.25 L1178.487369469864,396.9" stroke="green" stroke-width="3" fill="none" />
<path d="M1178.487369469864,340.19999999999993 L1178.487369469864,396.9" stroke="green" stroke-width="3" fill="none" />
<path d="M1178.487369469864,396.9 L1227.5910098644417,425.25" stroke="green" stroke-width="3" fill="none" />
<path d="M1227.5910098644417,425.25 L1276.6946502590192,396.9000000000001" stroke="green" stroke-width="3" fill="none" />
<path d="M1276.6946502590192,340.20000000000005 L1276.6946502590192,396.9000000000001" stroke="green" stroke-width="3" fill="none" />
<path d="M1276.6946502590192,396.9000000000001 L1325.798290653597,425.2499999999999" stroke="green" stroke-width="3" fill="none" />
<path d="M1325.798290653597,425.2499999999999 L1374.9019310481747,396.89999999999986" stroke="green" stroke-width="3" fill="none" />
<path d="M1374.9019310481747,340.20000000000005 L1374.9019310481747,396.89999999999986" stroke="green" stroke-width="3" fill="none" />
<path d="M1374.9019310481747,396.89999999999986 L1424.0055714427524,425.2499999999999" stroke="green" stroke-width="3" fill="none" />
<path d="M1424.0055714427524,425.2499999999999 L1473.10921183733,396.9" stroke="green" stroke-width="3" fill="none" />
<path d="M1473.10921183733,340.19999999999993 L1473.10921183733,396.9" stroke="green" stroke-width="3" fill="none" />
<path d="M1473.10921183733,396.9 L1522.2128522319076,425.25" stroke="green" stroke-width="3" fill="none" />
<path d="M1178.487369469864,510.29999999999984 L1227.5910098644417,481.9499999999998" stroke="green" stroke-width="3" fill="none" />
<path d="M1227.5910098644417,425.25 L1227.5910098644417,481.9499999999998" stroke="green" stroke-width="3" fill="none" />
<path d="M1227.5910098644417,481.9499999999998 L1276.6946502590192,510.29999999999995" stroke="green" stroke-width="3" fill="none" />
<path d="M1276.6946502590192,510.29999999999995 L1325.798290653597,481.94999999999993" stroke="green" stroke-width="3" fill="none" />
<path d="M1325.798290653597,425.2499999999999 L1325.798290653597,481.94999999999993" stroke="green" stroke-width="3" fill="none" />
<path d="M1325.798290653597,481.94999999999993 L1374.9019310481747,510.29999999999995" stroke="green" stroke-width="3" fill="none" />
<path d="M1374.9019310481747,510.29999999999995 L1424.0055714427524,481.94999999999993" stroke="green" stroke-width="3" fill="none" />
<path d="M1424.0055714427524,425.2499999999999 L1424.0055714427524,481.94999999999993" stroke="green" stroke-width="3" fill="none" />
<path d="M1424.0055714427524,481.94999999999993 L1473.10921183733,510.30000000000007" stroke="green" stroke-width="3" fill="none" />
<path d="M1227.5910098644417,595.3499999999999 L1276.6946502590192,567.0" stroke="green" stroke-width="3" fill="none" />
<path d="M1276.6946502590192,510.29999999999995 L1276.6946502590192,567.0" stroke="green" stroke-width="3" fill="none" />
<path d="M1276.6946502590192,567.0 L1325.798290653597,595.35" stroke="green" stroke-width="3" fill="none" />
<path d="M1325.798290653597,595.35 L1374.9019310481747,567.0" stroke="green" stroke-width="3" fill="none" />
<path d="M1374.9019310481747,510.29999999999995 L1374.9019310481747,567.0" stroke="green" stroke-width="3" fill="none" />
<path d="M1374.9019310481747,567.0 L1424.0055714427524,595.35" stroke="green" stroke-width="3" fill="none" />
<path d="M1276.6946502590192,680.4000000000001 L1325.798290653597,652.0500000000001" stroke="green" stroke-width="3" fill="none" />
<path d="M1325.798290653597,595.35 L1325.798290653597,652.0500000000001" stroke="green" stroke-width="3" fill="none" />
<path d="M1325.798290653597,652.0500000000001 L1374.9019310481747,680.3999999999999" stroke="green" stroke-width="3" fill="none" />
<path d="M1276.6946502590192,737.0999999999999 L1227.5910098644417,765.4499999999998" stroke="green" stroke-width="3" fill="none" />
<path d="M1227.5910098644417,822.1499999999999 L1227.5910098644417,765.4499999999998" stroke="green" stroke-width="3" fill="none" />
<path d="M1227.5910098644417,765.4499999999998 L1178.487369469864,737.1" stroke="green" stroke-width="3" fill="none" />
<path d="M1178.487369469864,737.1 L1129.3837290752863,765.45" stroke="green" stroke-width="3" fill="none" />
<path d="M1129.3837290752863,822.1499999999999 L1129.3837290752863,765.45" stroke="green" stroke-width="3" fill="none" />
<path d="M1129.3837290752863,765.45 L1080.2800886807086,737.1" stroke="green" stroke-width="3" fill="none" />
<path d="M1080.2800886807086,737.1 L1031.1764482861308,765.45" stroke="green" stroke-width="3" fill="none" />
<path d="M1031.1764482861308,822.1500000000001 L1031.1764482861308,765.45" stroke="green" stroke-width="3" fill="none" />
<path d="M1031.1764482861308,765.45 L982.0728078915533,737.0999999999999" stroke="green" stroke-width="3" fill="none" />
<path d="M982.0728078915533,737.0999999999999 L932.9691674969756,765.4499999999999" stroke="green" stroke-width="3" fill="none" />
<path d="M932.9691674969756,822.15 L932.9691674969756,765.4499999999999" stroke="green" stroke-width="3" fill="none" />
<path d="M932.9691674969756,765.4499999999999 L883.865527102398,737.0999999999999" stroke="green" stroke-width="3" fill="none" />
<path d="M883.865527102398,737.0999999999999 L834.7618867078204,765.4499999999998" stroke="green" stroke-width="3" fill="none" />
<path d="M834.7618867078204,822.1499999999999 L834.7618867078204,765.4499999999998" stroke="green" stroke-width="3" fill="none" />
<path d="M834.7618867078204,765.4499999999998 L785.6582463132427,737.0999999999999" stroke="green" stroke-width="3" fill="none" />
<path d="M785.6582463132427,737.0999999999999 L736.554605918665,765.4499999999998" stroke="green" stroke-width="3" fill="none" />
<path d="M736.554605918665,822.1499999999999 L736.554605918665,765.4499999999998" stroke="green" stroke-width="3" fill="none" />
<path d="M736.554605918665,765.4499999999998 L687.4509655240873,737.1" stroke="green" stroke-width="3" fill="none" />
<path d="M687.4509655240873,737.1 L638.3473251295096,765.45" stroke="green" stroke-width="3" fill="none" />
<path d="M638.3473251295096,822.1499999999999 L638.3473251295096,765.45" stroke="green" stroke-width="3" fill="none" />
<path d="M638.3473251295096,765.45 L589.243684734932,737.0999999999999" stroke="green" stroke-width="3" fill="none" />
<path d="M589.243684734932,737.0999999999999 L540.1400443403543,765.45" stroke="green" stroke-width="3" fill="none" />
<path d="M540.1400443403543,822.1500000000001 L540.1400443403543,765.45" stroke="green" stroke-width="3" fill="none" />
<path d="M540.1400443403543,765.45 L491.03640394577667,737.0999999999999" stroke="green" stroke-width="3" fill="none" />
<path d="M1227.5910098644417,652.05 L1178.487369469864,680.4" stroke="green" stroke-width="3" fill="none" />
<path d="M1178.487369469864,737.1 L1178.487369469864,680.4" stroke="green" stroke-width="3" fill="none" />
<path d="M1178.487369469864,680.4 L1129.3837290752863,652.05" stroke="green" stroke-width="3" fill="none" />
<path d="M1129.3837290752863,652.05 L1080.2800886807086,680.4" stroke="green" stroke-width="3" fill="none" />
<path d="M1080.2800886807086,737.1 L1080.2800886807086,680.4" stroke="green" stroke-width="3" fill="none" />
<path d="M1080.2800886807086,680.4 L1031.1764482861308,652.05" stroke="green" stroke-width="3" fill="none" />
<path d="M1031.1764482861308,652.05 L982.0728078915533,680.3999999999999" stroke="green" stroke-width="3" fill="none" />
<path d="M982.0728078915533,737.0999999999999 L982.0728078915533,680.3999999999999" stroke="green" stroke-width="3" fill="none" />
<path d="M982.0728078915533,680.3999999999999 L932.9691674969756,652.0499999999998" stroke="green" stroke-width="3" fill="none" />
<path d="M932.9691674969756,652.0499999999998 L883.865527102398,680.3999999999999" stroke="green" stroke-width="3" fill="none" />
<path d="M883.865527102398,737.0999999999999 L883.865527102398,680.3999999999999" stroke="green" stroke-width="3" fill="none" />
<path d="M883.865527102398,680.3999999999999 L834.7618867078204,652.05" stroke="green" stroke-width="3" fill="none" />
<path d="M834.7618867078204,652.05 L785.6582463132427,680.4000000000001" stroke="green" stroke-width="3" fill="none" />
<path d="M785.6582463132427,737.0999999999999 L785.6582463132427,680.4000000000001" stroke="green" stroke-width="3" fill="none" />
<path d="M785.6582463132427,680.4000000000001 L736.554605918665,652.05" stroke="green" stroke-width="3" fill="none" />
<path d="M736.554605918665,652.05 L687.4509655240873,680.4" stroke="green" stroke-width="3" fill="none" />
<path d="M687.4509655240873,737.1 L687.4509655240873,680.4" stroke="green" stroke-width="3" fill="none" />
<path d="M687.4509655240873,680.4 L638.3473251295096,652.05" stroke="green" stroke-width="3" fill="none" />
<path d="M638.3473251295096,652.05 L589.243684734932,680.3999999999999" stroke="green" stroke-width="3" fill="none" />
<path d="M589.243684734932,737.0999999999999 L589.243684734932,680.3999999999999" stroke="green" stroke-width="3" fill="none" />
<path d="M589.243684734932,680.3999999999999 L540.1400443403543,652.05" stroke="green" stroke-width="3" fill="none" />
<path d="M1178.487369469864,566.9999999999999 L1129.3837290752863,595.3499999999999" stroke="green" stroke-width="3" fill="none" />
<path d="M1129.3837290752863,652.05 L1129.3837290752863,595.3499999999999" stroke="green" stroke-width="3" fill="none" />
<path d="M1129.3837290752863,595.3499999999999 L1080.2800886807086,566.9999999999999" stroke="green" stroke-width="3" fill="none" />
<path d="M1080.2800886807086,566.9999999999999 L1031.1764482861308,595.3499999999999" stroke="green" stroke-width="3" fill="none" />
<path d="M1031.1764482861308,652.05 L1031.1764482861308,595.3499999999999" stroke="green" stroke-width="3" fill="none" />
<path d="M1031.1764482861308,595.3499999999999 L982.0728078915533,567.0" stroke="green" stroke-width="3" fill="none" />
<path d="M982.0728078915533,567.0 L932.9691674969756,595.35" stroke="green" stroke-width="3" fill="none" />
<path d="M932.9691674969756,652.0499999999998 L932.9691674969756,595.35" stroke="green" stroke-width="3" fill="none" />
<path d="M932.9691674969756,595.35 L883.865527102398,567.0" stroke="green" stroke-width="3" fill="none" />
<path d="M883.865527102398,567.0 L834.7618867078204,595.3499999999999" stroke="green" stroke-width="3" fill="none" />
<path d="M834.7618867078204,652.05 L834.7618867078204,595.3499999999999" stroke="green" stroke-width="3" fill="none" />
<path d="M834.7618867078204,595.3499999999999 L785.6582463132427,567.0" stroke="green" stroke-width="3" fill="none" />
<path d="M785.6582463132427,567.0 L736.554605918665,595.3499999999999" stroke="green" stroke-width="3" fill="none" />
<path d="M736.554605918665,652.05 L736.554605918665,595.3499999999999" stroke="green" stroke-width="3" fill="none" />
<path d="M736.554605918665,595.3499999999999 L687.4509655240873,567.0" stroke="green" stroke-width="3" fill="none" />
<path d="M687.4509655240873,567.0 L638.3473251295096,595.35" stroke="green" stroke-width="3" fill="none" />
<path d="M638.3473251295096,652.05 L638.3473251295096,595.35" stroke="green" stroke-width="3" fill="none" />
<path d="M638.3473251295096,595.35 L589.243684734932,567.0" stroke="green" stroke-width="3" fill="none" />
<path d="M1129.3837290752863,481.95000000000005 L1080.2800886807086,510.30000000000007" stroke="green" stroke-width="3" fill="none" />
<path d="M1080.2800886807086,566.9999999999999 L1080.2800886807086,510.30000000000007" stroke="green" stroke-width="3" fill="none" />
<path d="M1080.2800886807086,510.30000000000007 L1031.1764482861308,481.95000000000005" stroke="green" stroke-width="3" fill="none" />
<path d="M1031.1764482861308,481.95000000000005 L982.0728078915533,510.29999999999995" stroke="green" stroke-width="3" fill="none" />
<path d="M982.0728078915533,567.0 L982.0728078915533,510.29999999999995" stroke="green" stroke-width="3" fill="none" />
<path d="M982.0728078915533,510.29999999999995 L932.9691674969756,481.94999999999993" stroke="green" stroke-width="3" fill="none" />
<path d="M932.9691674969756,481.94999999999993 L883.865527102398,510.29999999999995" stroke="green" stroke-width="3" fill="none" />
<path d="M883.865527102398,567.0 L883.865527102398,510.29999999999995" stroke="green" stroke-width="3" fill="none" />
<path d="M883.865527102398,510.29999999999995 L834.7618867078204,481.95" stroke="green" stroke-width="3" fill="none" />
<path d="M834.7618867078204,481.95 L785.6582463132427,510.3" stroke="green" stroke-width="3" fill="none" />
<path d="M785.6582463132427,567.0 L785.6582463132427,510.3" stroke="green" stroke-width="3" fill="none" />
<path d="M785.6582463132427,510.3 L736.554605918665,481.95" stroke="green" stroke-width="3" fill="none" />
<path d="M736.554605918665,481.95 L687.4509655240873,510.29999999999995" stroke="green" stroke-width="3" fill="none" />
<path d="M687.4509655240873,567.0 L687.4509655240873,510.29999999999995" stroke="green" stroke-width="3" fill="none" />
<path d="M687.4509655240873,510.29999999999995 L638.3473251295096,481.94999999999993" stroke="green" stroke-width="3" fill="none" />
<path d="M1080.2800886807086,396.9 L1031.1764482861308,425.25" stroke="green" stroke-width="3" fill="none" />
<path d="M1031.1764482861308,481.95000000000005 L1031.1764482861308,425.25" stroke="green" stroke-width="3" fill="none" />
<path d="M1031.1764482861308,425.25 L982.0728078915533,396.9" stroke="green" stroke-width="3" fill="none" />
<path d="M982.0728078915533,396.9 L932.9691674969756,425.25" stroke="green" stroke-width="3" fill="none" />
<path d="M932.9691674969756,481.94999999999993 L932.9691674969756,425.25" stroke="green" stroke-width="3" fill="none" />
<path d="M932.9691674969756,425.25 L883.865527102398,396.9" stroke="green" stroke-width="3" fill="none" />
<path d="M883.865527102398,396.9 L834.7618867078204,425.24999999999994" stroke="green" stroke-width="3" fill="none" />
<path d="M834.7618867078204,481.95 L834.7618867078204,425.24999999999994" stroke="green" stroke-width="3" fill="none" />
<path d="M834.7618867078204,425.24999999999994 L785.6582463132427,396.8999999999999" stroke="green" stroke-width="3" fill="none" />
<path d="M785.6582463132427,396.8999999999999 L736.554605918665,425.24999999999994" stroke="green" stroke-width="3" fill="none" />
<path d="M736.554605918665,481.95 L736.554605918665,425.24999999999994" stroke="green" stroke-width="3" fill="none" />
<path d="M736.554605918665,425.24999999999994 L687.4509655240873,396.9" stroke="green" stroke-width="3" fill="none" />
<path d="M1031.1764482861308,311.85 L982.0728078915533,340.19999999999993" stroke="green" stroke-width="3" fill="none" />
<path d="M982.0728078915533,396.9 L982.0728078915533,340.19999999999993" stroke="green" stroke-width="3" fill="none" />
<path d="M982.0728078915533,340.19999999999993 L932.9691674969756,311.8499999999999" stroke="green" stroke-width="3" fill="none" />
<path d="M932.9691674969756,311.8499999999999 L883.865527102398,340.19999999999993" stroke="green" stroke-width="3" fill="none" />
<path d="M883.865527102398,396.9 L883.865527102398,340.19999999999993" stroke="green" stroke-width="3" fill="none" />
<path d="M883.865527102398,340.19999999999993 L834.7618867078204,311.84999999999997" stroke="green" stroke-width="3" fill="none" />
<path d="M834.7618867078204,311.84999999999997 L785.6582463132427,340.2" stroke="green" stroke-width="3" fill="none" />
<path d="M785.6582463132427,396.8999999999999 L785.6582463132427,340.2" stroke="green" stroke-width="3" fill="none" />
<path d="M785.6582463132427,340.2 L736.554605918665,311.84999999999997" stroke="green" stroke-width="3" fill="none" />
<path d="M982.0728078915533,226.79999999999995 L932.9691674969756,255.14999999999998" stroke="green" stroke-width="3" fill="none" />
<path d="M932.9691674969756,311.8499999999999 L932.9691674969756,255.14999999999998" stroke="green" stroke-width="3" fill="none" />
<path d="M932.9691674969756,255.14999999999998 L883.865527102398,226.79999999999995" stroke="green" stroke-width="3" fill="none" />
<path d="M883.865527102398,226.79999999999995 L834.7618867078204,255.14999999999992" stroke="green" stroke-width="3" fill="none" />
<path d="M834.7618867078204,311.84999999999997 L834.7618867078204,255.14999999999992" stroke="green" stroke-width="3" fill="none" />
<path d="M834.7618867078204,255.14999999999992 L785.6582463132427,226.8" stroke="green" stroke-width="3" fill="none" />
<path d="M932.9691674969756,141.75 L883.865527102398,170.10000000000002" stroke="green" stroke-width="3" fill="none" />
<path d="M883.865527102398,226.79999999999995 L883.865527102398,170.10000000000002" stroke="green" stroke-width="3" fill="none" />
<path d="M883.865527102398,170.10000000000002 L834.7618867078204,141.74999999999994" stroke="green" stroke-width="3" fill="none" />
<circle cx="49.10364039457767" cy="28.349999999999998" r="10" stroke="black" stroke-width="2" fill="red" />
<circle cx="147.310921183733" cy="28.349999999999994" r="10" stroke="black" stroke-width="2" fill="red" />
<circle cx="245.51820197288833" cy="28.349999999999994" r="10" stroke="black" stroke-width="2" fill="red" />
<circle cx="343.72548276204367" cy="28.349999999999994" r="10" stroke="black" stroke-width="2" fill="red" />
<circle cx="441.932763551199" cy="28.350000000000023" r="10" stroke="black" stroke-width="2" fill="red" />
<circle cx="540.1400443403543" cy="28.350000000000023" r="10" stroke="black" stroke-width="2" fill="red" />
<circle cx="638.3473251295096" cy="28.350000000000023" r="10" stroke="black" stroke-width="2" fill="red" />
<circle cx="736.554605918665" cy="28.350000000000023" r="10" stroke="black" stroke-width="2" fill="red" />
<circle cx="834.7618867078204" cy="28.349999999999966" r="10" stroke="black" stroke-width="2" fill="red" />
<circle cx="98.20728078915533" cy="113.4" r="10" stroke="black" stroke-width="2" fill="red" />
<circle cx="196.41456157831067" cy="113.39999999999999" r="10" stroke="black" stroke-width="2" fill="red" />
<circle cx="294.621842367466" cy="113.4" r="10" stroke="black" stroke-width="2" fill="red" />
<circle cx="392.82912315662134" cy="113.4" r="10" stroke="black" stroke-width="2" fill="red" />
<circle cx="491.03640394577667" cy="113.39999999999998" r="10" stroke="black" stroke-width="2" fill="red" />
<circle cx="589.243684734932" cy="113.39999999999998" r="10" stroke="black" stroke-width="2" fill="red" />
<circle cx="687.4509655240873" cy="113.39999999999998" r="10" stroke="black" stroke-width="2" fill="red" />
<circle cx="785.6582463132427" cy="113.40000000000003" r="10" stroke="black" stroke-width="2" fill="red" />
<circle cx="147.310921183733" cy="198.45" r="10" stroke="black" stroke-width="2" fill="red" />
<circle cx="245.51820197288833" cy="198.45" r="10" stroke="black" stroke-width="2" fill="red" />
<circle cx="343.72548276204367" cy="198.45" r="10" stroke="black" stroke-width="2" fill="red" />
<circle cx="441.932763551199" cy="198.45" r="10" stroke="black" stroke-width="2" fill="red" />
<circle cx="540.1400443403543" cy="198.45" r="10" stroke="black" stroke-width="2" fill="red" />
<circle cx="638.3473251295096" cy="198.45000000000005" r="10" stroke="black" stroke-width="2" fill="red" />
<circle cx="736.554605918665" cy="198.45" r="10" stroke="black" stroke-width="2" fill="red" />
<circle cx="196.41456157831067" cy="283.5" r="10" stroke="black" stroke-width="2" fill="red" />
<circle cx="294.621842367466" cy="283.5" r="10" stroke="black" stroke-width="2" fill="red" />
<circle cx="392.82912315662134" cy="283.5" r="10" stroke="black" stroke-width="2" fill="red" />
<circle cx="491.03640394577667" cy="283.5" r="10" stroke="black" stroke-width="2" fill="red" />
<circle cx="589.243684734932" cy="283.49999999999994" r="10" stroke="black" stroke-width="2" fill="red" />
<circle cx="687.4509655240873" cy="283.5" r="10" stroke="black" stroke-width="2" fill="red" />
<circle cx="245.51820197288833" cy="368.54999999999995" r="10" stroke="black" stroke-width="2" fill="red" />
<circle cx="343.72548276204367" cy="368.55" r="10" stroke="black" stroke-width="2" fill="red" />
<circle cx="441.932763551199" cy="368.54999999999995" r="10" stroke="black" stroke-width="2" fill="red" />
<circle cx="540.1400443403543" cy="368.55" r="10" stroke="black" stroke-width="2" fill="red" />
<circle cx="638.3473251295096" cy="368.54999999999995" r="10" stroke="black" stroke-width="2" fill="red" />
<circle cx="294.621842367466" cy="453.5999999999999" r="10" stroke="black" stroke-width="2" fill="red" />
<circle cx="392.82912315662134" cy="453.6" r="10" stroke="black" stroke-width="2" fill="red" />
<circle cx="491.03640394577667" cy="453.5999999999999" r="10" stroke="black" stroke-width="2" fill="red" />
<circle cx="589.243684734932" cy="453.59999999999997" r="10" stroke="black" stroke-width="2" fill="red" />
<circle cx="343.72548276204367" cy="538.6499999999999" r="10" stroke="black" stroke-width="2" fill="red" />
<circle cx="441.932763551199" cy="538.65" r="10" stroke="black" stroke-width="2" fill="red" />
<circle cx="540.1400443403543" cy="538.6499999999999" r="10" stroke="black" stroke-width="2" fill="red" />
<circle cx="392.82912315662134" cy="623.6999999999999" r="10" stroke="black" stroke-width="2" fill="red" />
<circle cx="491.03640394577667" cy="623.6999999999999" r="10" stroke="black" stroke-width="2" fill="red" />
<circle cx="441.932763551199" cy="708.75" r="10" stroke="black" stroke-width="2" fill="red" />
<circle cx="932.9691674969756" cy="28.350000000000023" r="10" stroke="black" stroke-width="2" fill="red" />
<circle cx="1031.1764482861308" cy="28.350000000000023" r="10" stroke="black" stroke-width="2" fill="red" />
<circle cx="1129.3837290752863" cy="28.350000000000023" r="10" stroke="black" stroke-width="2" fill="red" />
<circle cx="1227.5910098644417" cy="28.34999999999991" r="10" stroke="black" stroke-width="2" fill="red" />
<circle cx="1325.798290653597" cy="28.350000000000023" r="10" stroke="black" stroke-width="2" fill="red" />
<circle cx="1424.0055714427524" cy="28.34999999999991" r="10" stroke="black" stroke-width="2" fill="red" />
<circle cx="1522.2128522319076" cy="28.350000000000023" r="10" stroke="black" stroke-width="2" fill="red" />
<circle cx="1620.420133021063" cy="28.350000000000023" r="10" stroke="black" stroke-width="2" fill="red" />
<circle cx="1718.6274138102183" cy="28.350000000000023" r="10" stroke="black" stroke-width="2" fill="red" />
<circle cx="982.0728078915533" cy="113.39999999999998" r="10" stroke="black" stroke-width="2" fill="red" />
<circle cx="1080.2800886807086" cy="113.39999999999998" r="10" stroke="black" stroke-width="2" fill="red" />
<circle cx="1178.487369469864" cy="113.39999999999998" r="10" stroke="black" stroke-width="2" fill="red" />
<circle cx="1276.6946502590192" cy="113.39999999999998" r="10" stroke="black" stroke-width="2" fill="red" />
<circle cx="1374.9019310481747" cy="113.39999999999998" r="10" stroke="black" stroke-width="2" fill="red" />
<circle cx="1473.10921183733" cy="113.40000000000009" r="10" stroke="black" stroke-width="2" fill="red" />
<circle cx="1571.3164926264853" cy="113.39999999999998" r="10" stroke="black" stroke-width="2" fill="red" />
<circle cx="1669.5237734156408" cy="113.39999999999998" r="10" stroke="black" stroke-width="2" fill="red" />
<circle cx="1031.1764482861308" cy="198.45000000000005" r="10" stroke="black" stroke-width="2" fill="red" />
<circle cx="1129.3837290752863" cy="198.44999999999993" r="10" stroke="black" stroke-width="2" fill="red" />
<circle cx="1227.5910098644417" cy="198.44999999999993" r="10" stroke="black" stroke-width="2" fill="red" />
<circle cx="1325.798290653597" cy="198.45000000000005" r="10" stroke="black" stroke-width="2" fill="red" />
<circle cx="1424.0055714427524" cy="198.44999999999993" r="10" stroke="black" stroke-width="2" fill="red" />
<circle cx="1522.2128522319076" cy="198.45000000000005" r="10" stroke="black" stroke-width="2" fill="red" />
<circle cx="1620.420133021063" cy="198.45000000000005" r="10" stroke="black" stroke-width="2" fill="red" />
<circle cx="1080.2800886807086" cy="283.5" r="10" stroke="black" stroke-width="2" fill="red" />
<circle cx="1178.487369469864" cy="283.5" r="10" stroke="black" stroke-width="2" fill="red" />
<circle cx="1276.6946502590192" cy="283.5" r="10" stroke="black" stroke-width="2" fill="red" />
<circle cx="1374.9019310481747" cy="283.5" r="10" stroke="black" stroke-width="2" fill="red" />
<circle cx="1473.10921183733" cy="283.5000000000001" r="10" stroke="black" stroke-width="2" fill="red" />
<circle cx="1571.3164926264853" cy="283.4999999999999" r="10" stroke="black" stroke-width="2" fill="red" />
<circle cx="1129.3837290752863" cy="368.54999999999995" r="10" stroke="black" stroke-width="2" fill="red" />
<circle cx="1227.5910098644417" cy="368.54999999999995" r="10" stroke="black" stroke-width="2" fill="red" />
<circle cx="1325.798290653597" cy="368.55000000000007" r="10" stroke="black" stroke-width="2" fill="red" />
<circle cx="1424.0055714427524" cy="368.54999999999984" r="10" stroke="black" stroke-width="2" fill="red" />
<circle cx="1522.2128522319076" cy="368.54999999999995" r="10" stroke="black" stroke-width="2" fill="red" />
<circle cx="1178.487369469864" cy="453.6" r="10" stroke="black" stroke-width="2" fill="red" />
<circle cx="1276.6946502590192" cy="453.5999999999999" r="10" stroke="black" stroke-width="2" fill="red" />
<circle cx="1374.9019310481747" cy="453.5999999999999" r="10" stroke="black" stroke-width="2" fill="red" />
<circle cx="1473.10921183733" cy="453.6" r="10" stroke="black" stroke-width="2" fill="red" />
<circle cx="1227.5910098644417" cy="538.6499999999999" r="10" stroke="black" stroke-width="2" fill="red" />
<circle cx="1325.798290653597" cy="538.65" r="10" stroke="black" stroke-width="2" fill="red" />
<circle cx="1424.0055714427524" cy="538.65" r="10" stroke="black" stroke-width="2" fill="red" />
<circle cx="1276.6946502590192" cy="623.7" r="10" stroke="black" stroke-width="2" fill="red" />
<circle cx="1374.9019310481747" cy="623.7" r="10" stroke="black" stroke-width="2" fill="red" />
<circle cx="1325.798290653597" cy="708.7499999999999" r="10" stroke="black" stroke-width="2" fill="red" />
<circle cx="1276.6946502590192" cy="793.8" r="10" stroke="black" stroke-width="2" fill="red" />
<circle cx="1178.487369469864" cy="793.7999999999998" r="10" stroke="black" stroke-width="2" fill="red" />
<circle cx="1080.2800886807086" cy="793.8000000000001" r="10" stroke="black" stroke-width="2" fill="red" />
<circle cx="982.0728078915533" cy="793.8" r="10" stroke="black" stroke-width="2" fill="red" />
<circle cx="883.865527102398" cy="793.8" r="10" stroke="black" stroke-width="2" fill="red" />
<circle cx="785.6582463132427" cy="793.8" r="10" stroke="black" stroke-width="2" fill="red" />
<circle cx="687.4509655240873" cy="793.7999999999998" r="10" stroke="black" stroke-width="2" fill="red" />
<circle cx="589.243684734932" cy="793.8" r="10" stroke="black" stroke-width="2" fill="red" />
<circle cx="491.03640394577667" cy="793.8" r="10" stroke="black" stroke-width="2" fill="red" />
<circle cx="1227.5910098644417" cy="708.75" r="10" stroke="black" stroke-width="2" fill="red" />
<circle cx="1129.3837290752863" cy="708.75" r="10" stroke="black" stroke-width="2" fill="red" />
<circle cx="1031.1764482861308" cy="708.75" r="10" stroke="black" stroke-width="2" fill="red" />
<circle cx="932.9691674969756" cy="708.7499999999999" r="10" stroke="black" stroke-width="2" fill="red" />
<circle cx="834.7618867078204" cy="708.7499999999998" r="10" stroke="black" stroke-width="2" fill="red" />
<circle cx="736.554605918665" cy="708.75" r="10" stroke="black" stroke-width="2" fill="red" />
<circle cx="638.3473251295096" cy="708.75" r="10" stroke="black" stroke-width="2" fill="red" />
<circle cx="540.1400443403543" cy="708.75" r="10" stroke="black" stroke-width="2" fill="red" />
<circle cx="1178.487369469864" cy="623.6999999999999" r="10" stroke="black" stroke-width="2" fill="red" />
<circle cx="1080.2800886807086" cy="623.6999999999999" r="10" stroke="black" stroke-width="2" fill="red" />
<circle cx="982.0728078915533" cy="623.6999999999998" r="10" stroke="black" stroke-width="2" fill="red" />
<circle cx="883.865527102398" cy="623.7" r="10" stroke="black" stroke-width="2" fill="red" />
<circle cx="785.6582463132427" cy="623.7" r="10" stroke="black" stroke-width="2" fill="red" />
<circle cx="687.4509655240873" cy="623.6999999999999" r="10" stroke="black" stroke-width="2" fill="red" />
<circle cx="589.243684734932" cy="623.7" r="10" stroke="black" stroke-width="2" fill="red" />
<circle cx="1129.3837290752863" cy="538.6499999999999" r="10" stroke="black" stroke-width="2" fill="red" />
<circle cx="1031.1764482861308" cy="538.6500000000001" r="10" stroke="black" stroke-width="2" fill="red" />
<circle cx="932.9691674969756" cy="538.65" r="10" stroke="black" stroke-width="2" fill="red" />
<circle cx="834.7618867078204" cy="538.6499999999999" r="10" stroke="black" stroke-width="2" fill="red" />
<circle cx="736.554605918665" cy="538.6500000000001" r="10" stroke="black" stroke-width="2" fill="red" />
<circle cx="638.3473251295096" cy="538.65" r="10" stroke="black" stroke-width="2" fill="red" />
<circle cx="1080.2800886807086" cy="453.6" r="10" stroke="black" stroke-width="2" fill="red" />
<circle cx="982.0728078915533" cy="453.5999999999999" r="10" stroke="black" stroke-width="2" fill="red" />
<circle cx="883.865527102398" cy="453.6" r="10" stroke="black" stroke-width="2" fill="red" />
<circle cx="785.6582463132427" cy="453.59999999999997" r="10" stroke="black" stroke-width="2" fill="red" />
<circle cx="687.4509655240873" cy="453.5999999999999" r="10" stroke="black" stroke-width="2" fill="red" />
<circle cx="1031.1764482861308" cy="368.55000000000007" r="10" stroke="black" stroke-width="2" fill="red" />
<circle cx="932.9691674969756" cy="368.54999999999995" r="10" stroke="black" stroke-width="2" fill="red" />
<circle cx="834.7618867078204" cy="368.5499999999999" r="10" stroke="black" stroke-width="2" fill="red" />
<circle cx="736.554605918665" cy="368.55" r="10" stroke="black" stroke-width="2" fill="red" />
<circle cx="982.0728078915533" cy="283.4999999999999" r="10" stroke="black" stroke-width="2" fill="red" />
<circle cx="883.865527102398" cy="283.5" r="10" stroke="black" stroke-width="2" fill="red" />
<circle cx="785.6582463132427" cy="283.49999999999994" r="10" stroke="black" stroke-width="2" fill="red" />
<circle cx="932.9691674969756" cy="198.44999999999993" r="10" stroke="black" stroke-width="2" fill="red" />
<circle cx="834.7618867078204" cy="198.45" r="10" stroke="black" stroke-width="2" fill="red" />
<circle cx="883.865527102398" cy="113.39999999999998" r="10" stroke="black" stroke-width="2" fill="red" />
</svg>