  0
SECTION
  2
HEADER
  9
$INSUNITS
 70
4
  0
ENDSEC
  0
SECTION
  2
TABLES
  0
TABLE
  2
LAYER
  0
LAYER
  2
CUT
 70
0
 62
7
  0
LAYER
  2
ENGRAVE
 70
0
 62
1
  0
ENDTAB
  0
ENDSEC
  0
SECTION
  2
ENTITIES
  0
CIRCLE
  8
CUT
 10
8.500000
 20
8.500000
 30
0.0
 40
8.000000
  0
LWPOLYLINE
  8
ENGRAVE
 90
1153
 70
1
 10
9.432000
 20
6.586000
 10
9.419987
 20
6.584689
 10
9.407943
 20
6.583389
 10
9.395862
 20
6.582109
 10
9.383734
 20
6.580859
 10
9.371554
 20
6.579651
 10
9.359314
 20
6.578494
 10
9.347007
 20
6.577399
 10
9.334625
 20
6.576375
 10
9.322161
 20
6.575433
 10
9.309607
 20
6.574584
 10
9.296957
 20
6.573837
 10
9.284203
 20
6.573203
 10
9.271338
 20
6.572692
 10
9.258354
 20
6.572314
 10
9.245243
 20
6.572080
 10
9.232000
 20
6.572000
 10
9.218552
 20
6.572069
 10
9.204855
 20
6.572273
 10
9.190942
 20
6.572606
 10
9.176844
 20
6.573062
 10
9.162593
 20
6.573636
 10
9.148223
 20
6.574320
 10
9.133764
 20
6.575110
 10
9.119250
 20
6.576000
 10
9.104712
 20
6.576983
 10
9.090184
 20
6.578055
 10
9.075696
 20
6.579208
 10
9.061281
 20
6.580438
 10
9.046972
 20
6.581737
 10
9.032801
 20
6.583102
 10
9.018799
 20
6.584524
 10
9.005000
 20
6.586000
 10
8.991535
 20
6.587370
 10
8.978143
 20
6.588854
 10
8.964823
 20
6.590445
 10
8.951578
 20
6.592141
 10
8.938409
 20
6.593936
 10
8.925318
 20
6.595826
 10
8.912306
 20
6.597807
 10
8.899375
 20
6.599875
 10
8.886526
 20
6.602025
 10
8.873760
 20
6.604252
 10
8.861079
 20
6.606552
 10
8.848484
 20
6.608922
 10
8.835978
 20
6.611356
 10
8.823561
 20
6.613850
 10
8.811234
 20
6.616399
 10
8.799000
 20
6.619000
 10
8.786705
 20
6.621716
 10
8.774559
 20
6.624600
 10
8.762547
 20
6.627633
 10
8.750656
 20
6.630797
 10
8.738871
 20
6.634072
 10
8.727176
 20
6.637439
 10
8.715557
 20
6.640880
 10
8.704000
 20
6.644375
 10
8.692490
 20
6.647905
 10
8.681012
 20
6.651451
 10
8.669551
 20
6.654994
 10
8.658094
 20
6.658516
 10
8.646625
 20
6.661996
 10
8.635129
 20
6.665416
 10
8.623592
 20
6.668757
 10
8.612000
 20
6.672000
 10
8.600408
 20
6.675408
 10
8.588873
 20
6.678873
 10
8.577382
 20
6.682382
 10
8.565922
 20
6.685922
 10
8.554479
 20
6.689479
 10
8.543041
 20
6.693041
 10
8.531594
 20
6.696594
 10
8.520125
 20
6.700125
 10
8.508621
 20
6.703621
 10
8.497068
 20
6.707068
 10
8.485454
 20
6.710454
 10
8.473766
 20
6.713766
 10
8.461989
 20
6.716989
 10
8.450111
 20
6.720111
 10
8.438119
 20
6.723119
 10
8.426000
 20
6.726000
 10
8.413579
 20
6.728579
 10
8.401068
 20
6.731068
 10
8.388473
 20
6.733473
 10
8.375797
 20
6.735797
 10
8.363045
 20
6.738045
 10
8.350221
 20
6.740221
 10
8.337329
 20
6.742329
 10
8.324375
 20
6.744375
 10
8.311362
 20
6.746362
 10
8.298295
 20
6.748295
 10
8.285178
 20
6.750178
 10
8.272016
 20
6.752016
 10
8.258812
 20
6.753812
 10
8.245572
 20
6.755572
 10
8.232300
 20
6.757300
 10
8.219000
 20
6.759000
 10
8.205631
 20
6.760631
 10
8.192156
 20
6.762156
 10
8.178588
 20
6.763588
 10
8.164938
 20
6.764938
 10
8.151217
 20
6.766217
 10
8.137438
 20
6.767438
 10
8.123611
 20
6.768611
 10
8.109750
 20
6.769750
 10
8.095865
 20
6.770865
 10
8.081969
 20
6.771969
 10
8.068072
 20
6.773072
 10
8.054187
 20
6.774188
 10
8.040326
 20
6.775326
 10
8.026500
 20
6.776500
 10
8.012721
 20
6.777721
 10
7.999000
 20
6.779000
 10
7.985268
 20
6.780268
 10
7.971459
 20
6.781459
 10
7.957588
 20
6.782588
 10
7.943672
 20
6.783672
 10
7.929726
 20
6.784726
 10
7.915768
 20
6.785768
 10
7.901812
 20
6.786812
 10
7.887875
 20
6.787875
 10
7.873973
 20
6.788973
 10
7.860123
 20
6.790123
 10
7.846340
 20
6.791340
 10
7.832641
 20
6.792641
 10
7.819041
 20
6.794041
 10
7.805557
 20
6.795557
 10
7.792204
 20
6.797204
 10
7.779000
 20
6.799000
 10
7.765921
 20
6.800910
 10
7.752934
 20
6.802893
 10
7.740034
 20
6.804948
 10
7.727219
 20
6.807078
 10
7.714486
 20
6.809284
 10
7.701832
 20
6.811568
 10
7.689254
 20
6.813931
 10
7.676750
 20
6.816375
 10
7.664316
 20
6.818901
 10
7.651949
 20
6.821510
 10
7.639647
 20
6.824204
 10
7.627406
 20
6.826984
 10
7.615224
 20
6.829853
 10
7.603098
 20
6.832811
 10
7.591024
 20
6.835859
 10
7.579000
 20
6.839000
 10
7.567234
 20
6.842234
 10
7.555557
 20
6.845557
 10
7.543965
 20
6.848965
 10
7.532453
 20
6.852453
 10
7.521018
 20
6.856018
 10
7.509654
 20
6.859654
 10
7.498358
 20
6.863358
 10
7.487125
 20
6.867125
 10
7.475950
 20
6.870950
 10
7.464830
 20
6.874830
 10
7.453760
 20
6.878760
 10
7.442734
 20
6.882734
 10
7.431750
 20
6.886750
 10
7.420803
 20
6.890803
 10
7.409887
 20
6.894887
 10
7.399000
 20
6.899000
 10
7.388325
 20
6.903160
 10
7.377676
 20
6.907387
 10
7.367056
 20
6.911678
 10
7.356469
 20
6.916031
 10
7.345917
 20
6.920443
 10
7.335402
 20
6.924910
 10
7.324929
 20
6.929430
 10
7.314500
 20
6.934000
 10
7.304118
 20
6.938617
 10
7.293785
 20
6.943277
 10
7.283505
 20
6.947979
 10
7.273281
 20
6.952719
 10
7.263116
 20
6.957494
 10
7.253012
 20
6.962301
 10
7.242972
 20
6.967137
 10
7.233000
 20
6.972000
 10
7.223075
 20
6.977086
 10
7.213178
 20
6.982219
 10
7.203313
 20
6.987398
 10
7.193484
 20
6.992625
 10
7.183697
 20
6.997898
 10
7.173955
 20
7.003219
 10
7.164263
 20
7.008586
 10
7.154625
 20
7.014000
 10
7.145046
 20
7.019461
 10
7.135529
 20
7.024969
 10
7.126080
 20
7.030523
 10
7.116703
 20
7.036125
 10
7.107402
 20
7.041773
 10
7.098182
 20
7.047469
 10
7.089046
 20
7.053211
 10
7.080000
 20
7.059000
 10
7.070836
 20
7.064836
 10
7.061721
 20
7.070721
 10
7.052655
 20
7.076655
 10
7.043641
 20
7.082641
 10
7.034679
 20
7.088679
 10
7.025771
 20
7.094771
 10
7.016920
 20
7.100920
 10
7.008125
 20
7.107125
 10
6.999389
 20
7.113389
 10
6.990713
 20
7.119713
 10
6.982098
 20
7.126098
 10
6.973547
 20
7.132547
 10
6.965060
 20
7.139060
 10
6.956639
 20
7.145639
 10
6.948285
 20
7.152285
 10
6.940000
 20
7.159000
 10
6.931597
 20
7.165597
 10
6.923264
 20
7.172264
 10
6.914997
 20
7.178997
 10
6.906797
 20
7.185797
 10
6.898661
 20
7.192661
 10
6.890588
 20
7.199588
 10
6.882576
 20
7.206576
 10
6.874625
 20
7.213625
 10
6.866732
 20
7.220732
 10
6.858896
 20
7.227896
 10
6.851116
 20
7.235116
 10
6.843391
 20
7.242391
 10
6.835718
 20
7.249718
 10
6.828096
 20
7.257096
 10
6.820524
 20
7.264524
 10
6.813000
 20
7.272000
 10
6.805535
 20
7.279535
 10
6.798137
 20
7.287137
 10
6.790803
 20
7.294803
 10
6.783531
 20
7.302531
 10
6.776318
 20
7.310318
 10
6.769160
 20
7.318160
 10
6.762055
 20
7.326055
 10
6.755000
 20
7.334000
 10
6.747992
 20
7.341992
 10
6.741027
 20
7.350027
 10
6.734104
 20
7.358104
 10
6.727219
 20
7.366219
 10
6.720369
 20
7.374369
 10
6.713551
 20
7.382551
 10
6.706762
 20
7.390762
 10
6.700000
 20
7.399000
 10
6.693052
 20
7.407052
 10
6.686092
 20
7.415092
 10
6.679128
 20
7.423128
 10
6.672172
 20
7.431172
 10
6.665233
 20
7.439233
 10
6.658322
 20
7.447322
 10
6.651449
 20
7.455449
 10
6.644625
 20
7.463625
 10
6.637859
 20
7.471859
 10
6.631162
 20
7.480162
 10
6.624544
 20
7.488544
 10
6.618016
 20
7.497016
 10
6.611587
 20
7.505587
 10
6.605268
 20
7.514268
 10
6.599069
 20
7.523069
 10
6.593000
 20
7.532000
 10
6.587035
 20
7.541035
 10
6.581141
 20
7.550141
 10
6.575316
 20
7.559316
 10
6.569562
 20
7.568562
 10
6.563879
 20
7.577879
 10
6.558266
 20
7.587266
 10
6.552723
 20
7.596723
 10
6.547250
 20
7.606250
 10
6.541848
 20
7.615848
 10
6.536516
 20
7.625516
 10
6.531254
 20
7.635254
 10
6.526063
 20
7.645062
 10
6.520941
 20
7.654941
 10
6.515891
 20
7.664891
 10
6.510910
 20
7.674910
 10
6.506000
 20
7.685000
 10
6.501337
 20
7.695325
 10
6.496725
 20
7.705682
 10
6.492168
 20
7.716076
 10
6.487672
 20
7.726516
 10
6.483240
 20
7.737008
 10
6.478877
 20
7.747561
 10
6.474587
 20
7.758180
 10
6.470375
 20
7.768875
 10
6.466245
 20
7.779652
 10
6.462201
 20
7.790518
 10
6.458248
 20
7.801480
 10
6.454391
 20
7.812547
 10
6.450633
 20
7.823725
 10
6.446979
 20
7.835021
 10
6.443433
 20
7.846444
 10
6.440000
 20
7.858000
 10
6.436683
 20
7.869881
 10
6.433482
 20
7.881893
 10
6.430396
 20
7.894024
 10
6.427422
 20
7.906266
 10
6.424559
 20
7.918607
 10
6.421807
 20
7.931037
 10
6.419162
 20
7.943547
 10
6.416625
 20
7.956125
 10
6.414193
 20
7.968762
 10
6.411865
 20
7.981447
 10
6.409640
 20
7.994171
 10
6.407516
 20
8.006922
 10
6.405491
 20
8.019691
 10
6.403564
 20
8.032467
 10
6.401735
 20
8.045240
 10
6.400000
 20
8.058000
 10
6.398360
 20
8.070994
 10
6.396814
 20
8.084094
 10
6.395366
 20
8.097287
 10
6.394016
 20
8.110563
 10
6.392765
 20
8.123908
 10
6.391615
 20
8.137313
 10
6.390568
 20
8.150764
 10
6.389625
 20
8.164250
 10
6.388787
 20
8.177760
 10
6.388057
 20
8.191281
 10
6.387434
 20
8.204803
 10
6.386922
 20
8.218312
 10
6.386521
 20
8.231799
 10
6.386232
 20
8.245250
 10
6.386058
 20
8.258654
 10
6.386000
 20
8.272000
 10
6.386058
 20
8.285334
 10
6.386232
 20
8.298707
 10
6.386521
 20
8.312109
 10
6.386922
 20
8.325531
 10
6.387434
 20
8.338965
 10
6.388057
 20
8.352402
 10
6.388787
 20
8.365833
 10
6.389625
 20
8.379250
 10
6.390568
 20
8.392643
 10
6.391615
 20
8.406004
 10
6.392765
 20
8.419324
 10
6.394016
 20
8.432594
 10
6.395366
 20
8.445805
 10
6.396814
 20
8.458949
 10
6.398360
 20
8.472017
 10
6.400000
 20
8.485000
 10
6.401746
 20
8.497925
 10
6.403605
 20
8.510820
 10
6.405577
 20
8.523681
 10
6.407656
 20
8.536500
 10
6.409841
 20
8.549272
 10
6.412129
 20
8.561992
 10
6.414516
 20
8.574653
 10
6.417000
 20
8.587250
 10
6.419578
 20
8.599776
 10
6.422246
 20
8.612227
 10
6.425002
 20
8.624595
 10
6.427844
 20
8.636875
 10
6.430767
 20
8.649062
 10
6.433770
 20
8.661148
 10
6.436848
 20
8.673130
 10
6.440000
 20
8.685000
 10
6.443047
 20
8.696777
 10
6.446188
 20
8.708484
 10
6.449422
 20
8.720121
 10
6.452750
 20
8.731687
 10
6.456172
 20
8.743184
 10
6.459688
 20
8.754609
 10
6.463297
 20
8.765965
 10
6.467000
 20
8.777250
 10
6.470797
 20
8.788465
 10
6.474687
 20
8.799609
 10
6.478672
 20
8.810684
 10
6.482750
 20
8.821687
 10
6.486922
 20
8.832621
 10
6.491188
 20
8.843484
 10
6.495547
 20
8.854277
 10
6.500000
 20
8.865000
 10
6.504359
 20
8.875476
 10
6.508811
 20
8.885902
 10
6.513353
 20
8.896276
 10
6.517984
 20
8.906594
 10
6.522704
 20
8.916853
 10
6.527510
 20
8.927051
 10
6.532401
 20
8.937184
 10
6.537375
 20
8.947250
 10
6.542431
 20
8.957246
 10
6.547568
 20
8.967168
 10
6.552784
 20
8.977014
 10
6.558078
 20
8.986781
 10
6.563448
 20
8.996466
 10
6.568893
 20
9.006066
 10
6.574410
 20
9.015579
 10
6.580000
 20
9.025000
 10
6.585682
 20
9.034307
 10
6.591475
 20
9.043484
 10
6.597369
 20
9.052545
 10
6.603359
 20
9.061500
 10
6.609437
 20
9.070361
 10
6.615596
 20
9.079141
 10
6.621827
 20
9.087850
 10
6.628125
 20
9.096500
 10
6.634481
 20
9.105104
 10
6.640889
 20
9.113672
 10
6.647340
 20
9.122217
 10
6.653828
 20
9.130750
 10
6.660345
 20
9.139283
 10
6.666885
 20
9.147828
 10
6.673439
 20
9.156396
 10
6.680000
 20
9.165000
 10
6.686398
 20
9.173437
 10
6.692840
 20
9.181871
 10
6.699323
 20
9.190299
 10
6.705844
 20
9.198719
 10
6.712400
 20
9.207126
 10
6.718988
 20
9.215520
 10
6.725606
 20
9.223895
 10
6.732250
 20
9.232250
 10
6.738917
 20
9.240582
 10
6.745605
 20
9.248887
 10
6.752311
 20
9.257163
 10
6.759031
 20
9.265406
 10
6.765763
 20
9.273615
 10
6.772504
 20
9.281785
 10
6.779250
 20
9.289915
 10
6.786000
 20
9.298000
 10
6.792982
 20
9.306018
 10
6.800045
 20
9.313957
 10
6.807175
 20
9.321832
 10
6.814359
 20
9.329656
 10
6.821585
 20
9.337446
 10
6.828838
 20
9.345215
 10
6.836106
 20
9.352978
 10
6.843375
 20
9.360750
 10
6.850633
 20
9.368545
 10
6.857865
 20
9.376379
 10
6.865060
 20
9.384265
 10
6.872203
 20
9.392219
 10
6.879282
 20
9.400254
 10
6.886283
 20
9.408387
 10
6.893194
 20
9.416630
 10
6.900000
 20
9.425000
 10
6.906517
 20
9.433307
 10
6.912951
 20
9.441721
 10
6.919312
 20
9.450231
 10
6.925609
 20
9.458828
 10
6.931854
 20
9.467501
 10
6.938057
 20
9.476240
 10
6.944227
 20
9.485035
 10
6.950375
 20
9.493875
 10
6.956511
 20
9.502750
 10
6.962646
 20
9.511650
 10
6.968790
 20
9.520565
 10
6.974953
 20
9.529484
 10
6.981145
 20
9.538398
 10
6.987377
 20
9.547295
 10
6.993658
 20
9.556166
 10
7.000000
 20
9.565000
 10
7.006210
 20
9.573614
 10
7.012459
 20
9.582211
 10
7.018740
 20
9.590796
 10
7.025047
 20
9.599375
 10
7.031371
 20
9.607954
 10
7.037705
 20
9.616539
 10
7.044042
 20
9.625136
 10
7.050375
 20
9.633750
 10
7.056696
 20
9.642388
 10
7.062998
 20
9.651055
 10
7.069274
 20
9.659757
 10
7.075516
 20
9.668500
 10
7.081717
 20
9.677290
 10
7.087869
 20
9.686133
 10
7.093966
 20
9.695034
 10
7.100000
 20
9.704000
 10
7.105745
 20
9.713255
 10
7.111365
 20
9.722635
 10
7.116877
 20
9.732123
 10
7.122297
 20
9.741703
 10
7.127640
 20
9.751360
 10
7.132924
 20
9.761076
 10
7.138163
 20
9.770837
 10
7.143375
 20
9.780625
 10
7.148575
 20
9.790425
 10
7.153779
 20
9.800221
 10
7.159004
 20
9.809996
 10
7.164266
 20
9.819734
 10
7.169580
 20
9.829420
 10
7.174963
 20
9.839037
 10
7.180431
 20
9.848569
 10
7.186000
 20
9.858000
 10
7.191637
 20
9.867363
 10
7.197297
 20
9.876701
 10
7.202980
 20
9.886013
 10
7.208687
 20
9.895297
 10
7.214418
 20
9.904552
 10
7.220172
 20
9.913775
 10
7.225949
 20
9.922967
 10
7.231750
 20
9.932125
 10
7.237574
 20
9.941248
 10
7.243422
 20
9.950334
 10
7.249293
 20
9.959382
 10
7.255187
 20
9.968391
 10
7.261105
 20
9.977358
 10
7.267047
 20
9.986283
 10
7.273012
 20
9.995164
 10
7.279000
 20
10.004000
 10
7.285177
 20
10.012999
 10
7.291336
 20
10.021992
 10
7.297483
 20
10.030974
 10
7.303625
 20
10.039937
 10
7.309767
 20
10.048878
 10
7.315914
 20
10.057789
 10
7.322073
 20
10.066665
 10
7.328250
 20
10.075500
 10
7.334450
 20
10.084288
 10
7.340680
 20
10.093023
 10
7.346944
 20
10.101700
 10
7.353250
 20
10.110312
 10
7.359603
 20
10.118854
 10
7.366008
 20
10.127320
 10
7.372472
 20
10.135704
 10
7.379000
 20
10.144000
 10
7.385773
 20
10.152403
 10
7.392594
 20
10.160736
 10
7.399461
 20
10.169003
 10
7.406375
 20
10.177203
 10
7.413336
 20
10.185339
 10
7.420344
 20
10.193412
 10
7.427398
 20
10.201424
 10
7.434500
 20
10.209375
 10
7.441648
 20
10.217268
 10
7.448844
 20
10.225104
 10
7.456086
 20
10.232884
 10
7.463375
 20
10.240609
 10
7.470711
 20
10.248282
 10
7.478094
 20
10.255904
 10
7.485523
 20
10.263476
 10
7.493000
 20
10.271000
 10
7.500534
 20
10.278465
 10
7.508135
 20
10.285863
 10
7.515797
 20
10.293197
 10
7.523516
 20
10.300469
 10
7.531287
 20
10.307682
 10
7.539107
 20
10.314840
 10
7.546971
 20
10.321945
 10
7.554875
 20
10.329000
 10
7.562814
 20
10.336008
 10
7.570783
 20
10.342973
 10
7.578779
 20
10.349896
 10
7.586797
 20
10.356781
 10
7.594832
 20
10.363631
 10
7.602881
 20
10.370449
 10
7.610938
 20
10.377238
 10
7.619000
 20
10.384000
 10
7.627240
 20
10.390937
 10
7.635463
 20
10.397867
 10
7.643677
 20
10.404786
 10
7.651891
 20
10.411687
 10
7.660110
 20
10.418565
 10
7.668342
 20
10.425414
 10
7.676594
 20
10.432228
 10
7.684875
 20
10.439000
 10
7.693191
 20
10.445726
 10
7.701549
 20
10.452398
 10
7.709957
 20
10.459013
 10
7.718422
 20
10.465563
 10
7.726951
 20
10.472042
 10
7.735553
 20
10.478445
 10
7.744233
 20
10.484767
 10
7.753000
 20
10.491000
 10
7.761660
 20
10.497164
 10
7.770389
 20
10.503281
 10
7.779185
 20
10.509352
 10
7.788047
 20
10.515375
 10
7.796973
 20
10.521352
 10
7.805963
 20
10.527281
 10
7.815014
 20
10.533164
 10
7.824125
 20
10.539000
 10
7.833295
 20
10.544789
 10
7.842521
 20
10.550531
 10
7.851804
 20
10.556227
 10
7.861141
 20
10.561875
 10
7.870530
 20
10.567477
 10
7.879971
 20
10.573031
 10
7.889461
 20
10.578539
 10
7.899000
 20
10.584000
 10
7.908586
 20
10.589425
 10
7.918221
 20
10.594820
 10
7.927905
 20
10.600181
 10
7.937641
 20
10.605500
 10
7.947429
 20
10.610772
 10
7.957271
 20
10.615992
 10
7.967170
 20
10.621153
 10
7.977125
 20
10.626250
 10
7.987139
 20
10.631276
 10
7.997213
 20
10.636227
 10
8.007348
 20
10.641095
 10
8.017547
 20
10.645875
 10
8.027810
 20
10.650562
 10
8.038139
 20
10.655148
 10
8.048535
 20
10.659630
 10
8.059000
 20
10.664000
 10
8.069712
 20
10.668299
 10
8.080475
 20
10.672566
 10
8.091293
 20
10.676792
 10
8.102172
 20
10.680969
 10
8.113115
 20
10.685086
 10
8.124127
 20
10.689137
 10
8.135212
 20
10.693111
 10
8.146375
 20
10.697000
 10
8.157620
 20
10.700795
 10
8.168951
 20
10.704488
 10
8.180373
 20
10.708070
 10
8.191891
 20
10.711531
 10
8.203508
 20
10.714864
 10
8.215229
 20
10.718059
 10
8.227058
 20
10.721107
 10
8.239000
 20
10.724000
 10
8.251267
 20
10.726952
 10
8.263686
 20
10.729807
 10
8.276241
 20
10.732558
 10
8.288922
 20
10.735203
 10
8.301714
 20
10.737737
 10
8.314604
 20
10.740154
 10
8.327578
 20
10.742452
 10
8.340625
 20
10.744625
 10
8.353730
 20
10.746669
 10
8.366881
 20
10.748580
 10
8.380064
 20
10.750353
 10
8.393266
 20
10.751984
 10
8.406473
 20
10.753469
 10
8.419674
 20
10.754803
 10
8.432854
 20
10.755981
 10
8.446000
 20
10.757000
 10
8.459148
 20
10.758044
 10
8.472338
 20
10.758928
 10
8.485566
 20
10.759656
 10
8.498828
 20
10.760234
 10
8.512119
 20
10.760666
 10
8.525436
 20
10.760955
 10
8.538772
 20
10.761107
 10
8.552125
 20
10.761125
 10
8.565490
 20
10.761014
 10
8.578861
 20
10.760779
 10
8.592236
 20
10.760424
 10
8.605609
 20
10.759953
 10
8.618977
 20
10.759371
 10
8.632334
 20
10.758682
 10
8.645677
 20
10.757890
 10
8.659000
 20
10.757000
 10
8.672367
 20
10.756192
 10
8.685830
 20
10.755268
 10
8.699366
 20
10.754229
 10
8.712953
 20
10.753078
 10
8.726570
 20
10.751816
 10
8.740193
 20
10.750443
 10
8.753802
 20
10.748963
 10
8.767375
 20
10.747375
 10
8.780889
 20
10.745682
 10
8.794322
 20
10.743885
 10
8.807653
 20
10.741985
 10
8.820859
 20
10.739984
 10
8.833919
 20
10.737884
 10
8.846811
 20
10.735686
 10
8.859511
 20
10.733390
 10
8.872000
 20
10.731000
 10
8.884493
 20
10.728328
 10
8.896852
 20
10.725563
 10
8.909081
 20
10.722703
 10
8.921187
 20
10.719750
 10
8.933177
 20
10.716703
 10
8.945055
 20
10.713562
 10
8.956827
 20
10.710328
 10
8.968500
 20
10.707000
 10
8.980079
 20
10.703578
 10
8.991570
 20
10.700062
 10
9.002979
 20
10.696453
 10
9.014312
 20
10.692750
 10
9.025575
 20
10.688953
 10
9.036773
 20
10.685062
 10
9.047913
 20
10.681078
 10
9.059000
 20
10.677000
 10
9.070016
 20
10.673027
 10
9.080939
 20
10.668982
 10
9.091772
 20
10.664865
 10
9.102516
 20
10.660672
 10
9.113171
 20
10.656403
 10
9.123740
 20
10.652057
 10
9.134224
 20
10.647631
 10
9.144625
 20
10.643125
 10
9.154944
 20
10.638537
 10
9.165182
 20
10.633865
 10
9.175341
 20
10.629109
 10
9.185422
 20
10.624266
 10
9.195427
 20
10.619335
 10
9.205357
 20
10.614314
 10
9.215215
 20
10.609203
 10
9.225000
 20
10.604000
 10
9.234869
 20
10.598704
 10
9.244605
 20
10.593318
 10
9.254219
 20
10.587848
 10
9.263719
 20
10.582297
 10
9.273113
 20
10.576670
 10
9.282410
 20
10.570971
 10
9.291620
 20
10.565204
 10
9.300750
 20
10.559375
 10
9.309810
 20
10.553487
 10
9.318809
 20
10.547545
 10
9.327754
 20
10.541553
 10
9.336656
 20
10.535516
 10
9.345523
 20
10.529437
 10
9.354363
 20
10.523322
 10
9.363186
 20
10.517175
 10
9.372000
 20
10.511000
 10
9.380778
 20
10.504613
 10
9.389486
 20
10.498199
 10
9.398128
 20
10.491756
 10
9.406703
 20
10.485281
 10
9.415214
 20
10.478771
 10
9.423662
 20
10.472223
 10
9.432049
 20
10.465633
 10
9.440375
 20
10.459000
 10
9.448643
 20
10.452320
 10
9.456854
 20
10.445590
 10
9.465009
 20
10.438807
 10
9.473109
 20
10.431969
 10
9.481157
 20
10.425072
 10
9.489154
 20
10.418113
 10
9.497101
 20
10.411090
 10
9.505000
 20
10.404000
 10
9.512841
 20
10.396841
 10
9.520615
 20
10.389615
 10
9.528328
 20
10.382328
 10
9.535984
 20
10.374984
 10
9.543588
 20
10.367588
 10
9.551143
 20
10.360143
 10
9.558654
 20
10.352654
 10
9.566125
 20
10.345125
 10
9.573561
 20
10.337561
 10
9.580967
 20
10.329967
 10
9.588346
 20
10.322346
 10
9.595703
 20
10.314703
 10
9.603043
 20
10.307043
 10
9.610369
 20
10.299369
 10
9.617687
 20
10.291687
 10
9.625000
 20
10.284000
 10
9.632312
 20
10.276312
 10
9.639619
 20
10.268619
 10
9.646918
 20
10.260918
 10
9.654203
 20
10.253203
 10
9.661471
 20
10.245471
 10
9.668717
 20
10.237717
 10
9.675936
 20
10.229936
 10
9.683125
 20
10.222125
 10
9.690279
 20
10.214279
 10
9.697393
 20
10.206393
 10
9.704463
 20
10.198463
 10
9.711484
 20
10.190484
 10
9.718453
 20
10.182453
 10
9.725365
 20
10.174365
 10
9.732216
 20
10.166216
 10
9.739000
 20
10.158000
 10
9.745528
 20
10.149528
 10
9.751990
 20
10.140992
 10
9.758391
 20
10.132397
 10
9.764734
 20
10.123750
 10
9.771025
 20
10.115056
 10
9.777268
 20
10.106320
 10
9.783466
 20
10.097550
 10
9.789625
 20
10.088750
 10
9.795749
 20
10.079927
 10
9.801842
 20
10.071086
 10
9.807908
 20
10.062233
 10
9.813953
 20
10.053375
 10
9.819980
 20
10.044517
 10
9.825994
 20
10.035664
 10
9.831999
 20
10.026823
 10
9.838000
 20
10.018000
 10
9.844186
 20
10.009010
 10
9.850365
 20
10.000035
 10
9.856530
 20
9.991066
 10
9.862672
 20
9.982094
 10
9.868785
 20
9.973110
 10
9.874861
 20
9.964105
 10
9.880894
 20
9.955072
 10
9.886875
 20
9.946000
 10
9.892798
 20
9.936881
 10
9.898654
 20
9.927707
 10
9.904438
 20
9.918468
 10
9.910141
 20
9.909156
 10
9.915756
 20
9.899762
 10
9.921275
 20
9.890277
 10
9.926693
 20
9.880693
 10
9.932000
 20
9.871000
 10
9.937170
 20
9.861170
 10
9.942191
 20
9.851191
 10
9.947078
 20
9.841078
 10
9.951844
 20
9.830844
 10
9.956504
 20
9.820504
 10
9.961074
 20
9.810074
 10
9.965568
 20
9.799568
 10
9.970000
 20
9.789000
 10
9.974385
 20
9.778385
 10
9.978738
 20
9.767738
 10
9.983074
 20
9.757074
 10
9.987406
 20
9.746406
 10
9.991750
 20
9.735750
 10
9.996121
 20
9.725121
 10
10.000533
 20
9.714533
 10
10.005000
 20
9.704000
 10
10.009665
 20
9.693665
 10
10.014289
 20
9.683291
 10
10.018878
 20
9.672885
 10
10.023438
 20
9.662453
 10
10.027974
 20
9.652004
 10
10.032492
 20
9.641545
 10
10.036999
 20
9.631083
 10
10.041500
 20
9.620625
 10
10.046001
 20
9.610179
 10
10.050508
 20
9.599752
 10
10.055026
 20
9.589351
 10
10.059563
 20
9.578984
 10
10.064122
 20
9.568658
 10
10.068711
 20
9.558381
 10
10.073335
 20
9.548159
 10
10.078000
 20
9.538000
 10
10.082865
 20
9.527700
 10
10.087713
 20
9.517426
 10
10.092552
 20
9.507181
 10
10.097391
 20
9.496969
 10
10.102235
 20
9.486792
 10
10.107092
 20
9.476652
 10
10.111969
 20
9.466554
 10
10.116875
 20
9.456500
 10
10.121816
 20
9.446493
 10
10.126799
 20
9.436535
 10
10.131832
 20
9.426630
 10
10.136922
 20
9.416781
 10
10.142076
 20
9.406991
 10
10.147303
 20
9.397262
 10
10.152608
 20
9.387597
 10
10.158000
 20
9.378000
 10
10.163472
 20
9.368472
 10
10.169012
 20
9.359010
 10
10.174616
 20
9.349609
 10
10.180281
 20
9.340266
 10
10.186005
 20
9.330975
 10
10.191785
 20
9.321732
 10
10.197618
 20
9.312534
 10
10.203500
 20
9.303375
 10
10.209429
 20
9.294251
 10
10.215402
 20
9.285158
 10
10.221417
 20
9.276092
 10
10.227469
 20
9.267047
 10
10.233556
 20
9.258020
 10
10.239676
 20
9.249006
 10
10.245825
 20
9.240001
 10
10.252000
 20
9.231000
 10
10.258023
 20
9.222199
 10
10.264090
 20
9.213418
 10
10.270198
 20
9.204655
 10
10.276344
 20
9.195906
 10
10.282525
 20
9.187169
 10
10.288738
 20
9.178441
 10
10.294981
 20
9.169719
 10
10.301250
 20
9.161000
 10
10.307542
 20
9.152281
 10
10.313855
 20
9.143559
 10
10.320186
 20
9.134831
 10
10.326531
 20
9.126094
 10
10.332888
 20
9.117345
 10
10.339254
 20
9.108582
 10
10.345625
 20
9.099801
 10
10.352000
 20
9.091000
 10
10.358199
 20
9.082375
 10
10.364418
 20
9.073746
 10
10.370655
 20
9.065112
 10
10.376906
 20
9.056469
 10
10.383169
 20
9.047814
 10
10.389441
 20
9.039145
 10
10.395719
 20
9.030458
 10
10.402000
 20
9.021750
 10
10.408281
 20
9.013019
 10
10.414559
 20
9.004262
 10
10.420831
 20
8.995475
 10
10.427094
 20
8.986656
 10
10.433345
 20
8.977802
 10
10.439582
 20
8.968910
 10
10.445801
 20
8.959977
 10
10.452000
 20
8.951000
 10
10.457999
 20
8.942175
 10
10.463994
 20
8.933324
 10
10.469980
 20
8.924444
 10
10.475953
 20
8.915531
 10
10.481908
 20
8.906583
 10
10.487842
 20
8.897598
 10
10.493749
 20
8.888571
 10
10.499625
 20
8.879500
 10
10.505466
 20
8.870382
 10
10.511268
 20
8.861215
 10
10.517025
 20
8.851995
 10
10.522734
 20
8.842719
 10
10.528391
 20
8.833384
 10
10.533990
 20
8.823988
 10
10.539528
 20
8.814528
 10
10.545000
 20
8.805000
 10
10.550403
 20
8.795403
 10
10.555738
 20
8.785738
 10
10.561009
 20
8.776009
 10
10.566219
 20
8.766219
 10
10.571370
 20
8.756370
 10
10.576465
 20
8.746465
 10
10.581507
 20
8.736507
 10
10.586500
 20
8.726500
 10
10.591446
 20
8.716446
 10
10.596348
 20
8.706348
 10
10.601208
 20
8.696208
 10
10.606031
 20
8.686031
 10
10.610819
 20
8.675819
 10
10.615574
 20
8.665574
 10
10.620300
 20
8.655300
 10
10.625000
 20
8.645000
 10
10.629499
 20
8.634499
 10
10.633990
 20
8.623990
 10
10.638467
 20
8.613467
 10
10.642922
 20
8.602922
 10
10.647347
 20
8.592347
 10
10.651736
 20
8.581736
 10
10.656081
 20
8.571081
 10
10.660375
 20
8.560375
 10
10.664610
 20
8.549610
 10
10.668779
 20
8.538779
 10
10.672875
 20
8.527875
 10
10.676891
 20
8.516891
 10
10.680818
 20
8.505818
 10
10.684650
 20
8.494650
 10
10.688380
 20
8.483380
 10
10.692000
 20
8.472000
 10
10.695351
 20
8.460516
 10
10.698652
 20
8.448939
 10
10.701901
 20
8.437272
 10
10.705094
 20
8.425516
 10
10.708228
 20
8.413671
 10
10.711301
 20
8.401740
 10
10.714309
 20
8.389724
 10
10.717250
 20
8.377625
 10
10.720121
 20
8.365444
 10
10.722918
 20
8.353182
 10
10.725639
 20
8.340841
 10
10.728281
 20
8.328422
 10
10.730841
 20
8.315927
 10
10.733316
 20
8.303357
 10
10.735704
 20
8.290715
 10
10.738000
 20
8.278000
 10
10.740237
 20
8.265358
 10
10.742441
 20
8.252564
 10
10.744605
 20
8.239634
 10
10.746719
 20
8.226578
 10
10.748774
 20
8.213411
 10
10.750762
 20
8.200146
 10
10.752673
 20
8.186797
 10
10.754500
 20
8.173375
 10
10.756233
 20
8.159895
 10
10.757863
 20
8.146369
 10
10.759382
 20
8.132811
 10
10.760781
 20
8.119234
 10
10.762051
 20
8.105652
 10
10.763184
 20
8.092076
 10
10.764169
 20
8.078521
 10
10.765000
 20
8.065000
 10
10.765493
 20
8.051444
 10
10.765848
 20
8.037787
 10
10.766068
 20
8.024045
 10
10.766156
 20
8.010234
 10
10.766116
 20
7.996371
 10
10.765949
 20
7.982471
 10
10.765660
 20
7.968550
 10
10.765250
 20
7.954625
 10
10.764723
 20
7.940712
 10
10.764082
 20
7.926826
 10
10.763330
 20
7.912985
 10
10.762469
 20
7.899203
 10
10.761502
 20
7.885498
 10
10.760434
 20
7.871885
 10
10.759265
 20
7.858380
 10
10.758000
 20
7.845000
 10
10.756641
 20
7.831689
 10
10.755187
 20
7.818389
 10
10.753641
 20
7.805109
 10
10.752000
 20
7.791859
 10
10.750266
 20
7.778651
 10
10.748437
 20
7.765494
 10
10.746516
 20
7.752399
 10
10.744500
 20
7.739375
 10
10.742391
 20
7.726433
 10
10.740187
 20
7.713584
 10
10.737891
 20
7.700837
 10
10.735500
 20
7.688203
 10
10.733016
 20
7.675692
 10
10.730437
 20
7.663314
 10
10.727766
 20
7.651080
 10
10.725000
 20
7.639000
 10
10.721942
 20
7.626882
 10
10.718771
 20
7.614900
 10
10.715492
 20
7.603051
 10
10.712109
 20
7.591328
 10
10.708627
 20
7.579729
 10
10.705049
 20
7.568248
 10
10.701380
 20
7.556882
 10
10.697625
 20
7.545625
 10
10.693788
 20
7.534474
 10
10.689873
 20
7.523424
 10
10.685885
 20
7.512470
 10
10.681828
 20
7.501609
 10
10.677707
 20
7.490836
 10
10.673525
 20
7.480146
 10
10.669288
 20
7.469536
 10
10.665000
 20
7.459000
 10
10.660641
 20
7.448359
 10
10.656189
 20
7.437811
 10
10.651647
 20
7.427353
 10
10.647016
 20
7.416984
 10
10.642296
 20
7.406704
 10
10.637490
 20
7.396510
 10
10.632599
 20
7.386401
 10
10.627625
 20
7.376375
 10
10.622569
 20
7.366431
 10
10.617432
 20
7.356568
 10
10.612216
 20
7.346784
 10
10.606922
 20
7.337078
 10
10.601552
 20
7.327448
 10
10.596107
 20
7.317893
 10
10.590590
 20
7.308410
 10
10.585000
 20
7.299000
 10
10.579318
 20
7.289671
 10
10.573525
 20
7.280434
 10
10.567631
 20
7.271284
 10
10.561641
 20
7.262219
 10
10.555563
 20
7.253236
 10
10.549404
 20
7.244332
 10
10.543173
 20
7.235504
 10
10.536875
 20
7.226750
 10
10.530519
 20
7.218066
 10
10.524111
 20
7.209449
 10
10.517660
 20
7.200897
 10
10.511172
 20
7.192406
 10
10.504655
 20
7.183974
 10
10.498115
 20
7.175598
 10
10.491561
 20
7.167274
 10
10.485000
 20
7.159000
 10
10.478238
 20
7.150597
 10
10.471449
 20
7.142264
 10
10.464631
 20
7.133997
 10
10.457781
 20
7.125797
 10
10.450896
 20
7.117661
 10
10.443973
 20
7.109588
 10
10.437008
 20
7.101576
 10
10.430000
 20
7.093625
 10
10.422945
 20
7.085732
 10
10.415840
 20
7.077896
 10
10.408682
 20
7.070116
 10
10.401469
 20
7.062391
 10
10.394197
 20
7.054718
 10
10.386863
 20
7.047096
 10
10.379465
 20
7.039524
 10
10.372000
 20
7.032000
 10
10.364465
 20
7.024524
 10
10.356863
 20
7.017096
 10
10.349197
 20
7.009718
 10
10.341469
 20
7.002391
 10
10.333682
 20
6.995116
 10
10.325840
 20
6.987896
 10
10.317945
 20
6.980732
 10
10.310000
 20
6.973625
 10
10.302008
 20
6.966576
 10
10.293973
 20
6.959588
 10
10.285896
 20
6.952661
 10
10.277781
 20
6.945797
 10
10.269631
 20
6.938997
 10
10.261449
 20
6.932264
 10
10.253238
 20
6.925597
 10
10.245000
 20
6.919000
 10
10.236715
 20
6.912285
 10
10.228361
 20
6.905639
 10
10.219940
 20
6.899060
 10
10.211453
 20
6.892547
 10
10.202902
 20
6.886098
 10
10.194287
 20
6.879713
 10
10.185611
 20
6.873389
 10
10.176875
 20
6.867125
 10
10.168080
 20
6.860920
 10
10.159229
 20
6.854771
 10
10.150321
 20
6.848679
 10
10.141359
 20
6.842641
 10
10.132345
 20
6.836655
 10
10.123279
 20
6.830721
 10
10.114164
 20
6.824836
 10
10.105000
 20
6.819000
 10
10.095800
 20
6.813200
 10
10.086572
 20
6.807428
 10
10.077312
 20
6.801688
 10
10.068016
 20
6.795984
 10
10.058678
 20
6.790322
 10
10.049295
 20
6.784705
 10
10.039862
 20
6.779138
 10
10.030375
 20
6.773625
 10
10.020829
 20
6.768171
 10
10.011221
 20
6.762779
 10
10.001545
 20
6.757455
 10
9.991797
 20
6.752203
 10
9.981973
 20
6.747027
 10
9.972068
 20
6.741932
 10
9.962079
 20
6.736921
 10
9.952000
 20
6.732000
 10
9.941598
 20
6.727359
 10
9.931031
 20
6.722807
 10
9.920324
 20
6.718340
 10
9.909500
 20
6.713953
 10
9.898582
 20
6.709643
 10
9.887594
 20
6.705404
 10
9.876559
 20
6.701233
 10
9.865500
 20
6.697125
 10
9.854441
 20
6.693075
 10
9.843406
 20
6.689080
 10
9.832418
 20
6.685135
 10
9.821500
 20
6.681234
 10
9.810676
 20
6.677375
 10
9.799969
 20
6.673553
 10
9.789402
 20
6.669762
 10
9.779000
 20
6.666000
 10
9.768601
 20
6.662251
 10
9.758385
 20
6.658512
 10
9.748324
 20
6.654790
 10
9.738391
 20
6.651094
 10
9.728557
 20
6.647433
 10
9.718795
 20
6.643816
 10
9.709077
 20
6.640252
 10
9.699375
 20
6.636750
 10
9.689661
 20
6.633318
 10
9.679908
 20
6.629965
 10
9.670088
 20
6.626700
 10
9.660172
 20
6.623531
 10
9.650133
 20
6.620468
 10
9.639943
 20
6.617520
 10
9.629575
 20
6.614694
 10
9.619000
 20
6.612000
 10
9.608045
 20
6.609632
 10
9.596937
 20
6.607396
 10
9.585689
 20
6.605287
 10
9.574312
 20
6.603297
 10
9.562818
 20
6.601418
 10
9.551219
 20
6.599643
 10
9.539525
 20
6.597964
 10
9.527750
 20
6.596375
 10
9.515904
 20
6.594868
 10
9.504000
 20
6.593436
 10
9.492049
 20
6.592071
 10
9.480063
 20
6.590766
 10
9.468053
 20
6.589513
 10
9.456031
 20
6.588307
 10
9.444010
 20
6.587138
 10
9.432000
 20
6.586000
  0
LWPOLYLINE
  8
ENGRAVE
 90
1169
 70
1
 10
8.992000
 20
1.414000
 10
8.982535
 20
1.413670
 10
8.973230
 20
1.413426
 10
8.964038
 20
1.413257
 10
8.954906
 20
1.413156
 10
8.945787
 20
1.413114
 10
8.936629
 20
1.413121
 10
8.927383
 20
1.413169
 10
8.918000
 20
1.413250
 10
8.908429
 20
1.413354
 10
8.898621
 20
1.413473
 10
8.888526
 20
1.413597
 10
8.878094
 20
1.413719
 10
8.867275
 20
1.413829
 10
8.856020
 20
1.413918
 10
8.844278
 20
1.413978
 10
8.832000
 20
1.414000
 10
8.819285
 20
1.413978
 10
8.805937
 20
1.413918
 10
8.792027
 20
1.413829
 10
8.777625
 20
1.413719
 10
8.762801
 20
1.413597
 10
8.747625
 20
1.413473
 10
8.732168
 20
1.413354
 10
8.716500
 20
1.413250
 10
8.700691
 20
1.413169
 10
8.684812
 20
1.413121
 10
8.668934
 20
1.413114
 10
8.653125
 20
1.413156
 10
8.637457
 20
1.413257
 10
8.622000
 20
1.413426
 10
8.606824
 20
1.413670
 10
8.592000
 20
1.414000
 10
8.577597
 20
1.414597
 10
8.563258
 20
1.415258
 10
8.548978
 20
1.415978
 10
8.534750
 20
1.416750
 10
8.520569
 20
1.417569
 10
8.506430
 20
1.418430
 10
8.492325
 20
1.419325
 10
8.478250
 20
1.420250
 10
8.464198
 20
1.421198
 10
8.450164
 20
1.422164
 10
8.436142
 20
1.423142
 10
8.422125
 20
1.424125
 10
8.408108
 20
1.425108
 10
8.394086
 20
1.426086
 10
8.380052
 20
1.427052
 10
8.366000
 20
1.428000
 10
8.351728
 20
1.428728
 10
8.337420
 20
1.429420
 10
8.323085
 20
1.430085
 10
8.308734
 20
1.430734
 10
8.294378
 20
1.431378
 10
8.280025
 20
1.432025
 10
8.265688
 20
1.432688
 10
8.251375
 20
1.433375
 10
8.237097
 20
1.434097
 10
8.222865
 20
1.434865
 10
8.208689
 20
1.435689
 10
8.194578
 20
1.436578
 10
8.180544
 20
1.437544
 10
8.166596
 20
1.438596
 10
8.152744
 20
1.439744
 10
8.139000
 20
1.441000
 10
8.125358
 20
1.442358
 10
8.111801
 20
1.443801
 10
8.098320
 20
1.445320
 10
8.084906
 20
1.446906
 10
8.071551
 20
1.448551
 10
8.058246
 20
1.450246
 10
8.044982
 20
1.451982
 10
8.031750
 20
1.453750
 10
8.018542
 20
1.455542
 10
8.005348
 20
1.457348
 10
7.992160
 20
1.459160
 10
7.978969
 20
1.460969
 10
7.965766
 20
1.462766
 10
7.952543
 20
1.464543
 10
7.939291
 20
1.466291
 10
7.926000
 20
1.468000
 10
7.912644
 20
1.469479
 10
7.899211
 20
1.470922
 10
7.885720
 20
1.472342
 10
7.872187
 20
1.473750
 10
7.858632
 20
1.475158
 10
7.845070
 20
1.476578
 10
7.831521
 20
1.478021
 10
7.818000
 20
1.479500
 10
7.804526
 20
1.481025
 10
7.791117
 20
1.482609
 10
7.777790
 20
1.484264
 10
7.764563
 20
1.486000
 10
7.751452
 20
1.487830
 10
7.738477
 20
1.489766
 10
7.725653
 20
1.491818
 10
7.713000
 20
1.494000
 10
7.700318
 20
1.496319
 10
7.687766
 20
1.498768
 10
7.675330
 20
1.501337
 10
7.663000
 20
1.504016
 10
7.650764
 20
1.506794
 10
7.638609
 20
1.509662
 10
7.626525
 20
1.512609
 10
7.614500
 20
1.515625
 10
7.602521
 20
1.518699
 10
7.590578
 20
1.521822
 10
7.578658
 20
1.524983
 10
7.566750
 20
1.528172
 10
7.554842
 20
1.531378
 10
7.542922
 20
1.534592
 10
7.530979
 20
1.537802
 10
7.519000
 20
1.541000
 10
7.507188
 20
1.544177
 10
7.495381
 20
1.547338
 10
7.483582
 20
1.550490
 10
7.471797
 20
1.553641
 10
7.460029
 20
1.556797
 10
7.448283
 20
1.559967
 10
7.436564
 20
1.563157
 10
7.424875
 20
1.566375
 10
7.413221
 20
1.569628
 10
7.401607
 20
1.572924
 10
7.390037
 20
1.576269
 10
7.378516
 20
1.579672
 10
7.367047
 20
1.583139
 10
7.355635
 20
1.586678
 10
7.344284
 20
1.590296
 10
7.333000
 20
1.594000
 10
7.321785
 20
1.597796
 10
7.310637
 20
1.601678
 10
7.299553
 20
1.605639
 10
7.288531
 20
1.609672
 10
7.277568
 20
1.613769
 10
7.266660
 20
1.617924
 10
7.255805
 20
1.622128
 10
7.245000
 20
1.626375
 10
7.234242
 20
1.630657
 10
7.223527
 20
1.634967
 10
7.212854
 20
1.639297
 10
7.202219
 20
1.643641
 10
7.191619
 20
1.647990
 10
7.181051
 20
1.652338
 10
7.170512
 20
1.656677
 10
7.160000
 20
1.661000
 10
7.149313
 20
1.665324
 10
7.138633
 20
1.669674
 10
7.127964
 20
1.674050
 10
7.117312
 20
1.678453
 10
7.106685
 20
1.682886
 10
7.096086
 20
1.687350
 10
7.085522
 20
1.691845
 10
7.075000
 20
1.696375
 10
7.064524
 20
1.700940
 10
7.054102
 20
1.705541
 10
7.043737
 20
1.710180
 10
7.033437
 20
1.714859
 10
7.023208
 20
1.719579
 10
7.013055
 20
1.724342
 10
7.002983
 20
1.729148
 10
6.993000
 20
1.734000
 10
6.983086
 20
1.739086
 10
6.973219
 20
1.744219
 10
6.963398
 20
1.749398
 10
6.953625
 20
1.754625
 10
6.943898
 20
1.759898
 10
6.934219
 20
1.765219
 10
6.924586
 20
1.770586
 10
6.915000
 20
1.776000
 10
6.905461
 20
1.781461
 10
6.895969
 20
1.786969
 10
6.886523
 20
1.792523
 10
6.877125
 20
1.798125
 10
6.867773
 20
1.803773
 10
6.858469
 20
1.809469
 10
6.849211
 20
1.815211
 10
6.840000
 20
1.821000
 10
6.830825
 20
1.826825
 10
6.821680
 20
1.832680
 10
6.812569
 20
1.838569
 10
6.803500
 20
1.844500
 10
6.794478
 20
1.850478
 10
6.785508
 20
1.856508
 10
6.776597
 20
1.862597
 10
6.767750
 20
1.868750
 10
6.758974
 20
1.874974
 10
6.750273
 20
1.881273
 10
6.741655
 20
1.887655
 10
6.733125
 20
1.894125
 10
6.724688
 20
1.900688
 10
6.716352
 20
1.907352
 10
6.708120
 20
1.914120
 10
6.700000
 20
1.921000
 10
6.691786
 20
1.927786
 10
6.683646
 20
1.934646
 10
6.675586
 20
1.941586
 10
6.667609
 20
1.948609
 10
6.659720
 20
1.955720
 10
6.651924
 20
1.962924
 10
6.644224
 20
1.970224
 10
6.636625
 20
1.977625
 10
6.629132
 20
1.985132
 10
6.621748
 20
1.992748
 10
6.614479
 20
2.000479
 10
6.607328
 20
2.008328
 10
6.600301
 20
2.016301
 10
6.593400
 20
2.024400
 10
6.586632
 20
2.032632
 10
6.580000
 20
2.041000
 10
6.573330
 20
2.049330
 10
6.566814
 20
2.057814
 10
6.560442
 20
2.066442
 10
6.554203
 20
2.075203
 10
6.548087
 20
2.084087
 10
6.542084
 20
2.093084
 10
6.536183
 20
2.102183
 10
6.530375
 20
2.111375
 10
6.524649
 20
2.120649
 10
6.518994
 20
2.129994
 10
6.513401
 20
2.139401
 10
6.507859
 20
2.148859
 10
6.502359
 20
2.158359
 10
6.496889
 20
2.167889
 10
6.491439
 20
2.177439
 10
6.486000
 20
2.187000
 10
6.480729
 20
2.196553
 10
6.475426
 20
2.206098
 10
6.470105
 20
2.215648
 10
6.464781
 20
2.225219
 10
6.459469
 20
2.234825
 10
6.454184
 20
2.244480
 10
6.448939
 20
2.254201
 10
6.443750
 20
2.264000
 10
6.438631
 20
2.273893
 10
6.433598
 20
2.283895
 10
6.428664
 20
2.294019
 10
6.423844
 20
2.304281
 10
6.419153
 20
2.314696
 10
6.414605
 20
2.325277
 10
6.410216
 20
2.336041
 10
6.406000
 20
2.347000
 10
6.402133
 20
2.358177
 10
6.398404
 20
2.369568
 10
6.394814
 20
2.381156
 10
6.391359
 20
2.392922
 10
6.388040
 20
2.404845
 10
6.384854
 20
2.416908
 10
6.381799
 20
2.429091
 10
6.378875
 20
2.441375
 10
6.376080
 20
2.453741
 10
6.373412
 20
2.466170
 10
6.370870
 20
2.478643
 10
6.368453
 20
2.491141
 10
6.366159
 20
2.503644
 10
6.363986
 20
2.516135
 10
6.361934
 20
2.528593
 10
6.360000
 20
2.541000
 10
6.358173
 20
2.553199
 10
6.356445
 20
2.565424
 10
6.354823
 20
2.577675
 10
6.353312
 20
2.589953
 10
6.351919
 20
2.602261
 10
6.350648
 20
2.614600
 10
6.349507
 20
2.626970
 10
6.348500
 20
2.639375
 10
6.347634
 20
2.651815
 10
6.346914
 20
2.664291
 10
6.346347
 20
2.676805
 10
6.345937
 20
2.689359
 10
6.345692
 20
2.701954
 10
6.345617
 20
2.714592
 10
6.345718
 20
2.727273
 10
6.346000
 20
2.740000
 10
6.346644
 20
2.753049
 10
6.347447
 20
2.766299
 10
6.348406
 20
2.779716
 10
6.349516
 20
2.793266
 10
6.350772
 20
2.806915
 10
6.352170
 20
2.820631
 10
6.353706
 20
2.834379
 10
6.355375
 20
2.848125
 10
6.357173
 20
2.861836
 10
6.359096
 20
2.875479
 10
6.361138
 20
2.889018
 10
6.363297
 20
2.902422
 10
6.365567
 20
2.915656
 10
6.367943
 20
2.928686
 10
6.370423
 20
2.941478
 10
6.373000
 20
2.954000
 10
6.375893
 20
2.966107
 10
6.378941
 20
2.978059
 10
6.382136
 20
2.989864
 10
6.385469
 20
3.001531
 10
6.388930
 20
3.013070
 10
6.392512
 20
3.024488
 10
6.396205
 20
3.035795
 10
6.400000
 20
3.047000
 10
6.403889
 20
3.058111
 10
6.407863
 20
3.069137
 10
6.411914
 20
3.080086
 10
6.416031
 20
3.090969
 10
6.420208
 20
3.101792
 10
6.424434
 20
3.112566
 10
6.428701
 20
3.123299
 10
6.433000
 20
3.134000
 10
6.437359
 20
3.144476
 10
6.441811
 20
3.154902
 10
6.446353
 20
3.165276
 10
6.450984
 20
3.175594
 10
6.455704
 20
3.185853
 10
6.460510
 20
3.196051
 10
6.465401
 20
3.206184
 10
6.470375
 20
3.216250
 10
6.475431
 20
3.226246
 10
6.480568
 20
3.236168
 10
6.485784
 20
3.246014
 10
6.491078
 20
3.255781
 10
6.496448
 20
3.265466
 10
6.501893
 20
3.275066
 10
6.507410
 20
3.284579
 10
6.513000
 20
3.294000
 10
6.518682
 20
3.303318
 10
6.524475
 20
3.312525
 10
6.530369
 20
3.321631
 10
6.536359
 20
3.330641
 10
6.542437
 20
3.339563
 10
6.548596
 20
3.348404
 10
6.554827
 20
3.357173
 10
6.561125
 20
3.365875
 10
6.567481
 20
3.374519
 10
6.573889
 20
3.383111
 10
6.580340
 20
3.391660
 10
6.586828
 20
3.400172
 10
6.593345
 20
3.408655
 10
6.599885
 20
3.417115
 10
6.606439
 20
3.425561
 10
6.613000
 20
3.434000
 10
6.619773
 20
3.442216
 10
6.626592
 20
3.450365
 10
6.633454
 20
3.458453
 10
6.640359
 20
3.466484
 10
6.647305
 20
3.474463
 10
6.654291
 20
3.482393
 10
6.661315
 20
3.490279
 10
6.668375
 20
3.498125
 10
6.675470
 20
3.505936
 10
6.682600
 20
3.513717
 10
6.689761
 20
3.521471
 10
6.696953
 20
3.529203
 10
6.704175
 20
3.536918
 10
6.711424
 20
3.544619
 10
6.718699
 20
3.552312
 10
6.726000
 20
3.560000
 10
6.733324
 20
3.567676
 10
6.740672
 20
3.575328
 10
6.748043
 20
3.582957
 10
6.755438
 20
3.590562
 10
6.762855
 20
3.598145
 10
6.770297
 20
3.605703
 10
6.777762
 20
3.613238
 10
6.785250
 20
3.620750
 10
6.792762
 20
3.628238
 10
6.800297
 20
3.635703
 10
6.807855
 20
3.643145
 10
6.815437
 20
3.650562
 10
6.823043
 20
3.657957
 10
6.830672
 20
3.665328
 10
6.838324
 20
3.672676
 10
6.846000
 20
3.680000
 10
6.853732
 20
3.687268
 10
6.861547
 20
3.694453
 10
6.869432
 20
3.701568
 10
6.877375
 20
3.708625
 10
6.885365
 20
3.715635
 10
6.893391
 20
3.722609
 10
6.901439
 20
3.729561
 10
6.909500
 20
3.736500
 10
6.917561
 20
3.743439
 10
6.925609
 20
3.750391
 10
6.933635
 20
3.757365
 10
6.941625
 20
3.764375
 10
6.949568
 20
3.771432
 10
6.957453
 20
3.778547
 10
6.965268
 20
3.785732
 10
6.973000
 20
3.793000
 10
6.980687
 20
3.800313
 10
6.988369
 20
3.807631
 10
6.996043
 20
3.814957
 10
7.003703
 20
3.822297
 10
7.011346
 20
3.829654
 10
7.018967
 20
3.837033
 10
7.026561
 20
3.844439
 10
7.034125
 20
3.851875
 10
7.041654
 20
3.859346
 10
7.049143
 20
3.866857
 10
7.056588
 20
3.874412
 10
7.063984
 20
3.882016
 10
7.071328
 20
3.889672
 10
7.078615
 20
3.897385
 10
7.085841
 20
3.905159
 10
7.093000
 20
3.913000
 10
7.100079
 20
3.921086
 10
7.107070
 20
3.929217
 10
7.113979
 20
3.937392
 10
7.120813
 20
3.945609
 10
7.127575
 20
3.953868
 10
7.134273
 20
3.962166
 10
7.140913
 20
3.970502
 10
7.147500
 20
3.978875
 10
7.154040
 20
3.987283
 10
7.160539
 20
3.995725
 10
7.167003
 20
4.004198
 10
7.173438
 20
4.012703
 10
7.179849
 20
4.021237
 10
7.186242
 20
4.029799
 10
7.192624
 20
4.038387
 10
7.199000
 20
4.047000
 10
7.205539
 20
4.055461
 10
7.212033
 20
4.063967
 10
7.218483
 20
4.072517
 10
7.224891
 20
4.081109
 10
7.231257
 20
4.089743
 10
7.237584
 20
4.098416
 10
7.243873
 20
4.107127
 10
7.250125
 20
4.115875
 10
7.256342
 20
4.124658
 10
7.262525
 20
4.133475
 10
7.268677
 20
4.142323
 10
7.274797
 20
4.151203
 10
7.280888
 20
4.160112
 10
7.286951
 20
4.169049
 10
7.292988
 20
4.178012
 10
7.299000
 20
4.187000
 10
7.305142
 20
4.195858
 10
7.311201
 20
4.204799
 10
7.317187
 20
4.213813
 10
7.323109
 20
4.222891
 10
7.328979
 20
4.232021
 10
7.334807
 20
4.241193
 10
7.340602
 20
4.250398
 10
7.346375
 20
4.259625
 10
7.352136
 20
4.268864
 10
7.357896
 20
4.278104
 10
7.363665
 20
4.287335
 10
7.369453
 20
4.296547
 10
7.375270
 20
4.305730
 10
7.381127
 20
4.314873
 10
7.387033
 20
4.323967
 10
7.393000
 20
4.333000
 10
7.399001
 20
4.341999
 10
7.405008
 20
4.350992
 10
7.411026
 20
4.359974
 10
7.417063
 20
4.368937
 10
7.423122
 20
4.377878
 10
7.429211
 20
4.386789
 10
7.435335
 20
4.395665
 10
7.441500
 20
4.404500
 10
7.447712
 20
4.413288
 10
7.453977
 20
4.422023
 10
7.460300
 20
4.430700
 10
7.466688
 20
4.439312
 10
7.473146
 20
4.447854
 10
7.479680
 20
4.456320
 10
7.486296
 20
4.464704
 10
7.493000
 20
4.473000
 10
7.499597
 20
4.481403
 10
7.506264
 20
4.489736
 10
7.512997
 20
4.498003
 10
7.519797
 20
4.506203
 10
7.526661
 20
4.514339
 10
7.533588
 20
4.522412
 10
7.540576
 20
4.530424
 10
7.547625
 20
4.538375
 10
7.554732
 20
4.546268
 10
7.561896
 20
4.554104
 10
7.569116
 20
4.561884
 10
7.576391
 20
4.569609
 10
7.583718
 20
4.577282
 10
7.591096
 20
4.584904
 10
7.598524
 20
4.592476
 10
7.606000
 20
4.600000
 10
7.613524
 20
4.607465
 10
7.621096
 20
4.614863
 10
7.628718
 20
4.622197
 10
7.636391
 20
4.629469
 10
7.644116
 20
4.636682
 10
7.651896
 20
4.643840
 10
7.659732
 20
4.650945
 10
7.667625
 20
4.658000
 10
7.675576
 20
4.665008
 10
7.683588
 20
4.671973
 10
7.691661
 20
4.678896
 10
7.699797
 20
4.685781
 10
7.707997
 20
4.692631
 10
7.716264
 20
4.699449
 10
7.724597
 20
4.706238
 10
7.733000
 20
4.713000
 10
7.741285
 20
4.719715
 10
7.749639
 20
4.726361
 10
7.758060
 20
4.732940
 10
7.766547
 20
4.739453
 10
7.775098
 20
4.745902
 10
7.783713
 20
4.752287
 10
7.792389
 20
4.758611
 10
7.801125
 20
4.764875
 10
7.809920
 20
4.771080
 10
7.818771
 20
4.777229
 10
7.827679
 20
4.783321
 10
7.836641
 20
4.789359
 10
7.845655
 20
4.795345
 10
7.854721
 20
4.801279
 10
7.863836
 20
4.807164
 10
7.873000
 20
4.813000
 10
7.882057
 20
4.818778
 10
7.891223
 20
4.824490
 10
7.900488
 20
4.830141
 10
7.909844
 20
4.835734
 10
7.919282
 20
4.841275
 10
7.928793
 20
4.846768
 10
7.938369
 20
4.852216
 10
7.948000
 20
4.857625
 10
7.957678
 20
4.862999
 10
7.967395
 20
4.868342
 10
7.977140
 20
4.873658
 10
7.986906
 20
4.878953
 10
7.996684
 20
4.884230
 10
8.006465
 20
4.889494
 10
8.016240
 20
4.894749
 10
8.026000
 20
4.900000
 10
8.035740
 20
4.905084
 10
8.045467
 20
4.910205
 10
8.055191
 20
4.915352
 10
8.064922
 20
4.920516
 10
8.074671
 20
4.925685
 10
8.084447
 20
4.930850
 10
8.094262
 20
4.936000
 10
8.104125
 20
4.941125
 10
8.114047
 20
4.946215
 10
8.124037
 20
4.951260
 10
8.134107
 20
4.956249
 10
8.144266
 20
4.961172
 10
8.154524
 20
4.966019
 10
8.164893
 20
4.970779
 10
8.175381
 20
4.975443
 10
8.186000
 20
4.980000
 10
8.196547
 20
4.984277
 10
8.207187
 20
4.988484
 10
8.217922
 20
4.992621
 10
8.228750
 20
4.996688
 10
8.239672
 20
5.000684
 10
8.250687
 20
5.004609
 10
8.261797
 20
5.008465
 10
8.273000
 20
5.012250
 10
8.284297
 20
5.015965
 10
8.295687
 20
5.019609
 10
8.307172
 20
5.023184
 10
8.318750
 20
5.026687
 10
8.330422
 20
5.030121
 10
8.342187
 20
5.033484
 10
8.354047
 20
5.036777
 10
8.366000
 20
5.040000
 10
8.377859
 20
5.042998
 10
8.389811
 20
5.045984
 10
8.401853
 20
5.048947
 10
8.413984
 20
5.051875
 10
8.426204
 20
5.054756
 10
8.438510
 20
5.057578
 10
8.450901
 20
5.060330
 10
8.463375
 20
5.063000
 10
8.475931
 20
5.065576
 10
8.488568
 20
5.068047
 10
8.501284
 20
5.070400
 10
8.514078
 20
5.072625
 10
8.526948
 20
5.074709
 10
8.539893
 20
5.076641
 10
8.552910
 20
5.078408
 10
8.566000
 20
5.080000
 10
8.579204
 20
5.081265
 10
8.592557
 20
5.082432
 10
8.606041
 20
5.083496
 10
8.619641
 20
5.084453
 10
8.633340
 20
5.085299
 10
8.647123
 20
5.086029
 10
8.660973
 20
5.086639
 10
8.674875
 20
5.087125
 10
8.688812
 20
5.087482
 10
8.702768
 20
5.087705
 10
8.716726
 20
5.087791
 10
8.730672
 20
5.087734
 10
8.744588
 20
5.087531
 10
8.758459
 20
5.087178
 10
8.772268
 20
5.086669
 10
8.786000
 20
5.086000
 10
8.799499
 20
5.085334
 10
8.812994
 20
5.084473
 10
8.826480
 20
5.083429
 10
8.839953
 20
5.082219
 10
8.853408
 20
5.080856
 10
8.866842
 20
5.079355
 10
8.880249
 20
5.077732
 10
8.893625
 20
5.076000
 10
8.906966
 20
5.074174
 10
8.920268
 20
5.072270
 10
8.933525
 20
5.070300
 10
8.946734
 20
5.068281
 10
8.959891
 20
5.066227
 10
8.972990
 20
5.064152
 10
8.986028
 20
5.062072
 10
8.999000
 20
5.060000
 10
9.011914
 20
5.057749
 10
9.024779
 20
5.055492
 10
9.037595
 20
5.053224
 10
9.050359
 20
5.050937
 10
9.063071
 20
5.048628
 10
9.075729
 20
5.046289
 10
9.088330
 20
5.043915
 10
9.100875
 20
5.041500
 10
9.113361
 20
5.039038
 10
9.125787
 20
5.036523
 10
9.138152
 20
5.033950
 10
9.150453
 20
5.031312
 10
9.162690
 20
5.028604
 10
9.174861
 20
5.025820
 10
9.186965
 20
5.022954
 10
9.199000
 20
5.020000
 10
9.210766
 20
5.016766
 10
9.222443
 20
5.013443
 10
9.234035
 20
5.010035
 10
9.245547
 20
5.006547
 10
9.256982
 20
5.002982
 10
9.268346
 20
4.999346
 10
9.279642
 20
4.995642
 10
9.290875
 20
4.991875
 10
9.302050
 20
4.988050
 10
9.313170
 20
4.984170
 10
9.324240
 20
4.980240
 10
9.335266
 20
4.976266
 10
9.346250
 20
4.972250
 10
9.357197
 20
4.968197
 10
9.368113
 20
4.964113
 10
9.379000
 20
4.960000
 10
9.389686
 20
4.955686
 10
9.400365
 20
4.951365
 10
9.411030
 20
4.947030
 10
9.421672
 20
4.942672
 10
9.432285
 20
4.938285
 10
9.442861
 20
4.933861
 10
9.453394
 20
4.929394
 10
9.463875
 20
4.924875
 10
9.474298
 20
4.920298
 10
9.484654
 20
4.915654
 10
9.494938
 20
4.910938
 10
9.505141
 20
4.906141
 10
9.515256
 20
4.901256
 10
9.525275
 20
4.896275
 10
9.535193
 20
4.891193
 10
9.545000
 20
4.886000
 10
9.554704
 20
4.880869
 10
9.564318
 20
4.875605
 10
9.573848
 20
4.870219
 10
9.583297
 20
4.864719
 10
9.592670
 20
4.859113
 10
9.601971
 20
4.853410
 10
9.611204
 20
4.847620
 10
9.620375
 20
4.841750
 10
9.629487
 20
4.835810
 10
9.638545
 20
4.829809
 10
9.647553
 20
4.823754
 10
9.656516
 20
4.817656
 10
9.665437
 20
4.811523
 10
9.674322
 20
4.805363
 10
9.683175
 20
4.799186
 10
9.692000
 20
4.793000
 10
9.700778
 20
4.786778
 10
9.709486
 20
4.780486
 10
9.718128
 20
4.774128
 10
9.726703
 20
4.767703
 10
9.735214
 20
4.761214
 10
9.743662
 20
4.754662
 10
9.752049
 20
4.748049
 10
9.760375
 20
4.741375
 10
9.768643
 20
4.734643
 10
9.776854
 20
4.727854
 10
9.785009
 20
4.721009
 10
9.793109
 20
4.714109
 10
9.801157
 20
4.707157
 10
9.809154
 20
4.700154
 10
9.817101
 20
4.693101
 10
9.825000
 20
4.686000
 10
9.832841
 20
4.679016
 10
9.840615
 20
4.671943
 10
9.848328
 20
4.664785
 10
9.855984
 20
4.657547
 10
9.863588
 20
4.650232
 10
9.871143
 20
4.642846
 10
9.878654
 20
4.635392
 10
9.886125
 20
4.627875
 10
9.893561
 20
4.620300
 10
9.900967
 20
4.612670
 10
9.908346
 20
4.604990
 10
9.915703
 20
4.597266
 10
9.923043
 20
4.589500
 10
9.930369
 20
4.581697
 10
9.937687
 20
4.573863
 10
9.945000
 20
4.566000
 10
9.952290
 20
4.558290
 10
9.959535
 20
4.550537
 10
9.966740
 20
4.542746
 10
9.973906
 20
4.534922
 10
9.981038
 20
4.527068
 10
9.988137
 20
4.519189
 10
9.995207
 20
4.511290
 10
10.002250
 20
4.503375
 10
10.009270
 20
4.495448
 10
10.016270
 20
4.487514
 10
10.023251
 20
4.479576
 10
10.030219
 20
4.471641
 10
10.037174
 20
4.463711
 10
10.044121
 20
4.455791
 10
10.051062
 20
4.447886
 10
10.058000
 20
4.440000
 10
10.065103
 20
4.432092
 10
10.072168
 20
4.424125
 10
10.079204
 20
4.416111
 10
10.086219
 20
4.408062
 10
10.093222
 20
4.399990
 10
10.100223
 20
4.391906
 10
10.107229
 20
4.383822
 10
10.114250
 20
4.375750
 10
10.121294
 20
4.367701
 10
10.128371
 20
4.359687
 10
10.135489
 20
4.351721
 10
10.142656
 20
4.343813
 10
10.149882
 20
4.335975
 10
10.157176
 20
4.328219
 10
10.164545
 20
4.320557
 10
10.172000
 20
4.313000
 10
10.179523
 20
4.305524
 10
10.187094
 20
4.298096
 10
10.194711
 20
4.290718
 10
10.202375
 20
4.283391
 10
10.210086
 20
4.276116
 10
10.217844
 20
4.268896
 10
10.225648
 20
4.261732
 10
10.233500
 20
4.254625
 10
10.241398
 20
4.247576
 10
10.249344
 20
4.240588
 10
10.257336
 20
4.233661
 10
10.265375
 20
4.226797
 10
10.273461
 20
4.219997
 10
10.281594
 20
4.213264
 10
10.289773
 20
4.206597
 10
10.298000
 20
4.200000
 10
10.306472
 20
4.193296
 10
10.315008
 20
4.186680
 10
10.323603
 20
4.180146
 10
10.332250
 20
4.173687
 10
10.340944
 20
4.167300
 10
10.349680
 20
4.160977
 10
10.358450
 20
4.154712
 10
10.367250
 20
4.148500
 10
10.376073
 20
4.142335
 10
10.384914
 20
4.136211
 10
10.393767
 20
4.130122
 10
10.402625
 20
4.124062
 10
10.411483
 20
4.118026
 10
10.420336
 20
4.112008
 10
10.429177
 20
4.106001
 10
10.438000
 20
4.100000
 10
10.447023
 20
4.094023
 10
10.456088
 20
4.088088
 10
10.465191
 20
4.082191
 10
10.474328
 20
4.076328
 10
10.483494
 20
4.070494
 10
10.492686
 20
4.064686
 10
10.501897
 20
4.058897
 10
10.511125
 20
4.053125
 10
10.520365
 20
4.047365
 10
10.529611
 20
4.041611
 10
10.538861
 20
4.035861
 10
10.548109
 20
4.030109
 10
10.557352
 20
4.024352
 10
10.566584
 20
4.018584
 10
10.575802
 20
4.012802
 10
10.585000
 20
4.007000
 10
10.594198
 20
4.001198
 10
10.603414
 20
3.995414
 10
10.612642
 20
3.989642
 10
10.621875
 20
3.983875
 10
10.631108
 20
3.978108
 10
10.640336
 20
3.972336
 10
10.649552
 20
3.966552
 10
10.658750
 20
3.960750
 10
10.667925
 20
3.954925
 10
10.677070
 20
3.949070
 10
10.686181
 20
3.943181
 10
10.695250
 20
3.937250
 10
10.704272
 20
3.931272
 10
10.713242
 20
3.925242
 10
10.722153
 20
3.919153
 10
10.731000
 20
3.913000
 10
10.739999
 20
3.906999
 10
10.748992
 20
3.900992
 10
10.757974
 20
3.894974
 10
10.766937
 20
3.888938
 10
10.775878
 20
3.882878
 10
10.784789
 20
3.876789
 10
10.793665
 20
3.870665
 10
10.802500
 20
3.864500
 10
10.811288
 20
3.858288
 10
10.820023
 20
3.852023
 10
10.828700
 20
3.845700
 10
10.837312
 20
3.839313
 10
10.845854
 20
3.832854
 10
10.854320
 20
3.826320
 10
10.862704
 20
3.819704
 10
10.871000
 20
3.813000
 10
10.879403
 20
3.806403
 10
10.887736
 20
3.799736
 10
10.896003
 20
3.793003
 10
10.904203
 20
3.786203
 10
10.912339
 20
3.779339
 10
10.920412
 20
3.772412
 10
10.928424
 20
3.765424
 10
10.936375
 20
3.758375
 10
10.944268
 20
3.751268
 10
10.952104
 20
3.744104
 10
10.959884
 20
3.736884
 10
10.967609
 20
3.729609
 10
10.975282
 20
3.722282
 10
10.982904
 20
3.714904
 10
10.990476
 20
3.707476
 10
10.998000
 20
3.700000
 10
11.005509
 20
3.692509
 10
11.013027
 20
3.685027
 10
11.020540
 20
3.677540
 10
11.028031
 20
3.670031
 10
11.035488
 20
3.662488
 10
11.042895
 20
3.654895
 10
11.050237
 20
3.647237
 10
11.057500
 20
3.639500
 10
11.064669
 20
3.631669
 10
11.071730
 20
3.623730
 10
11.078668
 20
3.615668
 10
11.085469
 20
3.607469
 10
11.092117
 20
3.599117
 10
11.098598
 20
3.590598
 10
11.104897
 20
3.581897
 10
11.111000
 20
3.573000
 10
11.117084
 20
3.564084
 10
11.122969
 20
3.554971
 10
11.128666
 20
3.545673
 10
11.134187
 20
3.536203
 10
11.139545
 20
3.526575
 10
11.144750
 20
3.516803
 10
11.149814
 20
3.506898
 10
11.154750
 20
3.496875
 10
11.159568
 20
3.486746
 10
11.164281
 20
3.476525
 10
11.168900
 20
3.466225
 10
11.173438
 20
3.455859
 10
11.177904
 20
3.445441
 10
11.182313
 20
3.434982
 10
11.186674
 20
3.424498
 10
11.191000
 20
3.414000
 10
11.195475
 20
3.403299
 10
11.199895
 20
3.392566
 10
11.204250
 20
3.381792
 10
11.208531
 20
3.370969
 10
11.212731
 20
3.360086
 10
11.216840
 20
3.349137
 10
11.220849
 20
3.338111
 10
11.224750
 20
3.327000
 10
11.228534
 20
3.315795
 10
11.232191
 20
3.304488
 10
11.235714
 20
3.293070
 10
11.239094
 20
3.281531
 10
11.242321
 20
3.269864
 10
11.245387
 20
3.258059
 10
11.248283
 20
3.246107
 10
11.251000
 20
3.234000
 10
11.253742
 20
3.221489
 10
11.256344
 20
3.208727
 10
11.258805
 20
3.195741
 10
11.261125
 20
3.182562
 10
11.263305
 20
3.169220
 10
11.265344
 20
3.155742
 10
11.267242
 20
3.142159
 10
11.269000
 20
3.128500
 10
11.270617
 20
3.114794
 10
11.272094
 20
3.101070
 10
11.273430
 20
3.087358
 10
11.274625
 20
3.073688
 10
11.275680
 20
3.060087
 10
11.276594
 20
3.046586
 10
11.277367
 20
3.033214
 10
11.278000
 20
3.020000
 10
11.278515
 20
3.006876
 10
11.278930
 20
2.993758
 10
11.279239
 20
2.980651
 10
11.279438
 20
2.967562
 10
11.279519
 20
2.954497
 10
11.279477
 20
2.941461
 10
11.279306
 20
2.928460
 10
11.279000
 20
2.915500
 10
11.278554
 20
2.902587
 10
11.277961
 20
2.889727
 10
11.277216
 20
2.876925
 10
11.276312
 20
2.864187
 10
11.275245
 20
2.851521
 10
11.274008
 20
2.838930
 10
11.272595
 20
2.826421
 10
11.271000
 20
2.814000
 10
11.269231
 20
2.801428
 10
11.267301
 20
2.788848
 10
11.265212
 20
2.776273
 10
11.262969
 20
2.763719
 10
11.260573
 20
2.751200
 10
11.258027
 20
2.738730
 10
11.255335
 20
2.726326
 10
11.252500
 20
2.714000
 10
11.249524
 20
2.701768
 10
11.246410
 20
2.689645
 10
11.243162
 20
2.677644
 10
11.239781
 20
2.665781
 10
11.236272
 20
2.654071
 10
11.232637
 20
2.642527
 10
11.228878
 20
2.631166
 10
11.225000
 20
2.620000
 10
11.220970
 20
2.609206
 10
11.216764
 20
2.598566
 10
11.212390
 20
2.588074
 10
11.207859
 20
2.577719
 10
11.203182
 20
2.567493
 10
11.198369
 20
2.557387
 10
11.193430
 20
2.547392
 10
11.188375
 20
2.537500
 10
11.183215
 20
2.527702
 10
11.177959
 20
2.517988
 10
11.172618
 20
2.508351
 10
11.167203
 20
2.498781
 10
11.161723
 20
2.489270
 10
11.156189
 20
2.479809
 10
11.150612
 20
2.470388
 10
11.145000
 20
2.461000
 10
11.139318
 20
2.451671
 10
11.133525
 20
2.442434
 10
11.127631
 20
2.433284
 10
11.121641
 20
2.424219
 10
11.115563
 20
2.415236
 10
11.109404
 20
2.406332
 10
11.103173
 20
2.397504
 10
11.096875
 20
2.388750
 10
11.090519
 20
2.380066
 10
11.084111
 20
2.371449
 10
11.077660
 20
2.362897
 10
11.071172
 20
2.354406
 10
11.064655
 20
2.345974
 10
11.058115
 20
2.337598
 10
11.051561
 20
2.329274
 10
11.045000
 20
2.321000
 10
11.038227
 20
2.312597
 10
11.031406
 20
2.304264
 10
11.024539
 20
2.295997
 10
11.017625
 20
2.287797
 10
11.010664
 20
2.279661
 10
11.003656
 20
2.271588
 10
10.996602
 20
2.263576
 10
10.989500
 20
2.255625
 10
10.982352
 20
2.247732
 10
10.975156
 20
2.239896
 10
10.967914
 20
2.232116
 10
10.960625
 20
2.224391
 10
10.953289
 20
2.216718
 10
10.945906
 20
2.209096
 10
10.938477
 20
2.201524
 10
10.931000
 20
2.194000
 10
10.923466
 20
2.186535
 10
10.915865
 20
2.179137
 10
10.908203
 20
2.171803
 10
10.900484
 20
2.164531
 10
10.892713
 20
2.157318
 10
10.884893
 20
2.150160
 10
10.877029
 20
2.143055
 10
10.869125
 20
2.136000
 10
10.861186
 20
2.128992
 10
10.853217
 20
2.122027
 10
10.845221
 20
2.115104
 10
10.837203
 20
2.108219
 10
10.829168
 20
2.101369
 10
10.821119
 20
2.094551
 10
10.813062
 20
2.087762
 10
10.805000
 20
2.081000
 10
10.796761
 20
2.074063
 10
10.788539
 20
2.067133
 10
10.780329
 20
2.060214
 10
10.772125
 20
2.053313
 10
10.763921
 20
2.046435
 10
10.755711
 20
2.039586
 10
10.747489
 20
2.032772
 10
10.739250
 20
2.026000
 10
10.730987
 20
2.019274
 10
10.722695
 20
2.012602
 10
10.714368
 20
2.005987
 10
10.706000
 20
1.999437
 10
10.697585
 20
1.992958
 10
10.689117
 20
1.986555
 10
10.680591
 20
1.980233
 10
10.672000
 20
1.974000
 10
10.663153
 20
1.967847
 10
10.654240
 20
1.961760
 10
10.645266
 20
1.955734
 10
10.636234
 20
1.949766
 10
10.627150
 20
1.943850
 10
10.618018
 20
1.937982
 10
10.608841
 20
1.932159
 10
10.599625
 20
1.926375
 10
10.590374
 20
1.920626
 10
10.581092
 20
1.914908
 10
10.571783
 20
1.909217
 10
10.562453
 20
1.903547
 10
10.553105
 20
1.897895
 10
10.543744
 20
1.892256
 10
10.534374
 20
1.886626
 10
10.525000
 20
1.881000
 10
10.515624
 20
1.875376
 10
10.506244
 20
1.869756
 10
10.496855
 20
1.864145
 10
10.487453
 20
1.858547
 10
10.478033
 20
1.852967
 10
10.468592
 20
1.847408
 10
10.459124
 20
1.841876
 10
10.449625
 20
1.836375
 10
10.440091
 20
1.830909
 10
10.430518
 20
1.825482
 10
10.420900
 20
1.820100
 10
10.411234
 20
1.814766
 10
10.401516
 20
1.809484
 10
10.391740
 20
1.804260
 10
10.381903
 20
1.799097
 10
10.372000
 20
1.794000
 10
10.361841
 20
1.788994
 10
10.351617
 20
1.784096
 10
10.341335
 20
1.779294
 10
10.331000
 20
1.774578
 10
10.320618
 20
1.769939
 10
10.310195
 20
1.765365
 10
10.299737
 20
1.760847
 10
10.289250
 20
1.756375
 10
10.278739
 20
1.751938
 10
10.268211
 20
1.747525
 10
10.257671
 20
1.743128
 10
10.247125
 20
1.738734
 10
10.236579
 20
1.734335
 10
10.226039
 20
1.729920
 10
10.215511
 20
1.725478
 10
10.205000
 20
1.721000
 10
10.194533
 20
1.716302
 10
10.184125
 20
1.711588
 10
10.173764
 20
1.706865
 10
10.163438
 20
1.702141
 10
10.153135
 20
1.697422
 10
10.142844
 20
1.692717
 10
10.132553
 20
1.688032
 10
10.122250
 20
1.683375
 10
10.111924
 20
1.678753
 10
10.101562
 20
1.674174
 10
10.091154
 20
1.669644
 10
10.080687
 20
1.665172
 10
10.070150
 20
1.660764
 10
10.059531
 20
1.656428
 10
10.048818
 20
1.652171
 10
10.038000
 20
1.648000
 10
10.027266
 20
1.643734
 10
10.016443
 20
1.639557
 10
10.005535
 20
1.635465
 10
9.994547
 20
1.631453
 10
9.983482
 20
1.627518
 10
9.972346
 20
1.623654
 10
9.961142
 20
1.619858
 10
9.949875
 20
1.616125
 10
9.938550
 20
1.612450
 10
9.927170
 20
1.608830
 10
9.915740
 20
1.605260
 10
9.904266
 20
1.601734
 10
9.892750
 20
1.598250
 10
9.881197
 20
1.594803
 10
9.869613
 20
1.591387
 10
9.858000
 20
1.588000
 10
9.846562
 20
1.584438
 10
9.835119
 20
1.580881
 10
9.823668
 20
1.577332
 10
9.812203
 20
1.573797
 10
9.800721
 20
1.570279
 10
9.789217
 20
1.566783
 10
9.777686
 20
1.563314
 10
9.766125
 20
1.559875
 10
9.754529
 20
1.556471
 10
9.742893
 20
1.553107
 10
9.731213
 20
1.549787
 10
9.719484
 20
1.546516
 10
9.707703
 20
1.543297
 10
9.695865
 20
1.540135
 10
9.683966
 20
1.537034
 10
9.672000
 20
1.534000
 10
9.659778
 20
1.531233
 10
9.647492
 20
1.528549
 10
9.635147
 20
1.525938
 10
9.622750
 20
1.523391
 10
9.610306
 20
1.520896
 10
9.597820
 20
1.518443
 10
9.585300
 20
1.516023
 10
9.572750
 20
1.513625
 10
9.560177
 20
1.511239
 10
9.547586
 20
1.508854
 10
9.534983
 20
1.506460
 10
9.522375
 20
1.504047
 10
9.509767
 20
1.501605
 10
9.497164
 20
1.499123
 10
9.484573
 20
1.496592
 10
9.472000
 20
1.494000
 10
9.459328
 20
1.491529
 10
9.446467
 20
1.489000
 10
9.433462
 20
1.486424
 10
9.420359
 20
1.483812
 10
9.407204
 20
1.481178
 10
9.394041
 20
1.478531
 10
9.380916
 20
1.475885
 10
9.367875
 20
1.473250
 10
9.354963
 20
1.470639
 10
9.342225
 20
1.468063
 10
9.329706
 20
1.465533
 10
9.317453
 20
1.463063
 10
9.305510
 20
1.460662
 10
9.293924
 20
1.458344
 10
9.282739
 20
1.456119
 10
9.272000
 20
1.454000
 10
9.261948
 20
1.451961
 10
9.252381
 20
1.449971
 10
9.243244
 20
1.448030
 10
9.234484
 20
1.446141
 10
9.226047
 20
1.444304
 10
9.217877
 20
1.442521
 10
9.209921
 20
1.440795
 10
9.202125
 20
1.439125
 10
9.194434
 20
1.437514
 10
9.186795
 20
1.435963
 10
9.179153
 20
1.434473
 10
9.171453
 20
1.433047
 10
9.163642
 20
1.431685
 10
9.155666
 20
1.430389
 10
9.147470
 20
1.429160
 10
9.139000
 20
1.428000
 10
9.130164
 20
1.426722
 10
9.121281
 20
1.425512
 10
9.112352
 20
1.424366
 10
9.103375
 20
1.423281
 10
9.094352
 20
1.422255
 10
9.085281
 20
1.421285
 10
9.076164
 20
1.420368
 10
9.067000
 20
1.419500
 10
9.057789
 20
1.418679
 10
9.048531
 20
1.417902
 10
9.039227
 20
1.417167
 10
9.029875
 20
1.416469
 10
9.020477
 20
1.415806
 10
9.011031
 20
1.415176
 10
9.001539
 20
1.414575
 10
8.992000
 20
1.414000
  0
LWPOLYLINE
  8
ENGRAVE
 90
1169
 70
1
 10
4.394000
 20
9.704000
 10
4.382317
 20
9.702536
 10
4.370518
 20
9.701145
 10
4.358604
 20
9.699830
 10
4.346578
 20
9.698594
 10
4.334441
 20
9.697440
 10
4.322193
 20
9.696371
 10
4.309838
 20
9.695390
 10
4.297375
 20
9.694500
 10
4.284807
 20
9.693704
 10
4.272135
 20
9.693004
 10
4.259360
 20
9.692404
 10
4.246484
 20
9.691906
 10
4.233509
 20
9.691514
 10
4.220436
 20
9.691230
 10
4.207265
 20
9.691058
 10
4.194000
 20
9.691000
 10
4.180530
 20
9.691058
 10
4.166773
 20
9.691230
 10
4.152771
 20
9.691514
 10
4.138562
 20
9.691906
 10
4.124190
 20
9.692404
 10
4.109695
 20
9.693004
 10
4.095118
 20
9.693704
 10
4.080500
 20
9.694500
 10
4.065882
 20
9.695390
 10
4.051305
 20
9.696371
 10
4.036810
 20
9.697440
 10
4.022438
 20
9.698594
 10
4.008229
 20
9.699830
 10
3.994227
 20
9.701145
 10
3.980470
 20
9.702536
 10
3.967000
 20
9.704000
 10
3.953746
 20
9.705746
 10
3.940605
 20
9.707605
 10
3.927577
 20
9.709577
 10
3.914656
 20
9.711656
 10
3.901841
 20
9.713841
 10
3.889129
 20
9.716129
 10
3.876516
 20
9.718516
 10
3.864000
 20
9.721000
 10
3.851578
 20
9.723578
 10
3.839246
 20
9.726246
 10
3.827002
 20
9.729002
 10
3.814844
 20
9.731844
 10
3.802767
 20
9.734767
 10
3.790770
 20
9.737770
 10
3.778848
 20
9.740848
 10
3.767000
 20
9.744000
 10
3.755433
 20
9.747422
 10
3.743980
 20
9.750939
 10
3.732639
 20
9.754553
 10
3.721406
 20
9.758266
 10
3.710279
 20
9.762077
 10
3.699254
 20
9.765990
 10
3.688329
 20
9.770006
 10
3.677500
 20
9.774125
 10
3.666765
 20
9.778350
 10
3.656121
 20
9.782682
 10
3.645565
 20
9.787122
 10
3.635094
 20
9.791672
 10
3.624705
 20
9.796333
 10
3.614395
 20
9.801107
 10
3.604161
 20
9.805996
 10
3.594000
 20
9.811000
 10
3.584143
 20
9.816142
 10
3.574438
 20
9.821436
 10
3.564873
 20
9.826866
 10
3.555438
 20
9.832422
 10
3.546119
 20
9.838089
 10
3.536906
 20
9.843854
 10
3.527787
 20
9.849703
 10
3.518750
 20
9.855625
 10
3.509783
 20
9.861605
 10
3.500875
 20
9.867631
 10
3.492014
 20
9.873689
 10
3.483188
 20
9.879766
 10
3.474385
 20
9.885848
 10
3.465594
 20
9.891924
 10
3.456803
 20
9.897979
 10
3.448000
 20
9.904000
 10
3.438979
 20
9.910155
 10
3.429926
 20
9.916254
 10
3.420855
 20
9.922312
 10
3.411781
 20
9.928344
 10
3.402719
 20
9.934364
 10
3.393684
 20
9.940387
 10
3.384689
 20
9.946427
 10
3.375750
 20
9.952500
 10
3.366881
 20
9.958620
 10
3.358098
 20
9.964801
 10
3.349414
 20
9.971058
 10
3.340844
 20
9.977406
 10
3.332403
 20
9.983860
 10
3.324105
 20
9.990434
 10
3.315966
 20
9.997142
 10
3.308000
 20
10.004000
 10
3.300029
 20
10.011205
 10
3.292232
 20
10.018562
 10
3.284597
 20
10.026061
 10
3.277109
 20
10.033687
 10
3.269757
 20
10.041432
 10
3.262525
 20
10.049281
 10
3.255403
 20
10.057225
 10
3.248375
 20
10.065250
 10
3.241429
 20
10.073346
 10
3.234553
 20
10.081500
 10
3.227732
 20
10.089701
 10
3.220953
 20
10.097938
 10
3.214204
 20
10.106197
 10
3.207471
 20
10.114469
 10
3.200740
 20
10.122740
 10
3.194000
 20
10.131000
 10
3.187439
 20
10.139274
 10
3.180885
 20
10.147598
 10
3.174345
 20
10.155974
 10
3.167828
 20
10.164406
 10
3.161340
 20
10.172897
 10
3.154889
 20
10.181449
 10
3.148481
 20
10.190066
 10
3.142125
 20
10.198750
 10
3.135827
 20
10.207504
 10
3.129596
 20
10.216332
 10
3.123437
 20
10.225236
 10
3.117359
 20
10.234219
 10
3.111369
 20
10.243284
 10
3.105475
 20
10.252434
 10
3.099682
 20
10.261671
 10
3.094000
 20
10.271000
 10
3.088454
 20
10.280454
 10
3.083057
 20
10.290057
 10
3.077791
 20
10.299791
 10
3.072641
 20
10.309641
 10
3.067590
 20
10.319590
 10
3.062623
 20
10.329623
 10
3.057723
 20
10.339723
 10
3.052875
 20
10.349875
 10
3.048062
 20
10.360062
 10
3.043268
 20
10.370268
 10
3.038476
 20
10.380476
 10
3.033672
 20
10.390672
 10
3.028838
 20
10.400838
 10
3.023959
 20
10.410959
 10
3.019018
 20
10.421018
 10
3.014000
 20
10.431000
 10
3.009114
 20
10.440938
 10
3.004205
 20
10.450877
 10
2.999276
 20
10.460819
 10
2.994328
 20
10.470766
 10
2.989363
 20
10.480718
 10
2.984381
 20
10.490678
 10
2.979385
 20
10.500646
 10
2.974375
 20
10.510625
 10
2.969354
 20
10.520615
 10
2.964322
 20
10.530619
 10
2.959282
 20
10.540637
 10
2.954234
 20
10.550672
 10
2.949181
 20
10.560724
 10
2.944123
 20
10.570795
 10
2.939062
 20
10.580886
 10
2.934000
 20
10.591000
 10
2.929114
 20
10.600938
 10
2.924205
 20
10.610877
 10
2.919276
 20
10.620819
 10
2.914328
 20
10.630766
 10
2.909363
 20
10.640718
 10
2.904381
 20
10.650678
 10
2.899385
 20
10.660646
 10
2.894375
 20
10.670625
 10
2.889354
 20
10.680615
 10
2.884322
 20
10.690619
 10
2.879282
 20
10.700637
 10
2.874234
 20
10.710672
 10
2.869181
 20
10.720724
 10
2.864123
 20
10.730795
 10
2.859062
 20
10.740886
 10
2.854000
 20
10.751000
 10
2.849092
 20
10.760916
 10
2.844125
 20
10.770795
 10
2.839111
 20
10.780648
 10
2.834062
 20
10.790484
 10
2.828990
 20
10.800315
 10
2.823906
 20
10.810150
 10
2.818822
 20
10.820000
 10
2.813750
 20
10.829875
 10
2.808701
 20
10.839785
 10
2.803687
 20
10.849740
 10
2.798721
 20
10.859751
 10
2.793812
 20
10.869828
 10
2.788975
 20
10.879981
 10
2.784219
 20
10.890221
 10
2.779557
 20
10.900557
 10
2.775000
 20
10.911000
 10
2.770325
 20
10.921325
 10
2.765682
 20
10.931682
 10
2.761076
 20
10.942076
 10
2.756516
 20
10.952516
 10
2.752008
 20
10.963008
 10
2.747561
 20
10.973561
 10
2.743180
 20
10.984180
 10
2.738875
 20
10.994875
 10
2.734652
 20
11.005652
 10
2.730518
 20
11.016518
 10
2.726480
 20
11.027480
 10
2.722547
 20
11.038547
 10
2.718725
 20
11.049725
 10
2.715021
 20
11.061021
 10
2.711444
 20
11.072444
 10
2.708000
 20
11.084000
 10
2.704683
 20
11.095683
 10
2.701482
 20
11.107482
 10
2.698396
 20
11.119396
 10
2.695422
 20
11.131422
 10
2.692559
 20
11.143559
 10
2.689807
 20
11.155807
 10
2.687162
 20
11.168162
 10
2.684625
 20
11.180625
 10
2.682193
 20
11.193193
 10
2.679865
 20
11.205865
 10
2.677640
 20
11.218640
 10
2.675516
 20
11.231516
 10
2.673491
 20
11.244491
 10
2.671564
 20
11.257564
 10
2.669735
 20
11.270735
 10
2.668000
 20
11.284000
 10
2.666371
 20
11.297415
 10
2.664857
 20
11.311020
 10
2.663458
 20
11.324794
 10
2.662172
 20
11.338719
 10
2.660997
 20
11.352772
 10
2.659932
 20
11.366934
 10
2.658975
 20
11.381183
 10
2.658125
 20
11.395500
 10
2.657381
 20
11.409864
 10
2.656740
 20
11.424254
 10
2.656202
 20
11.438650
 10
2.655766
 20
11.453031
 10
2.655428
 20
11.467377
 10
2.655189
 20
11.481668
 10
2.655047
 20
11.495882
 10
2.655000
 20
11.510000
 10
2.655058
 20
11.524283
 10
2.655230
 20
11.538621
 10
2.655514
 20
11.553000
 10
2.655906
 20
11.567406
 10
2.656404
 20
11.581824
 10
2.657004
 20
11.596238
 10
2.657704
 20
11.610635
 10
2.658500
 20
11.625000
 10
2.659390
 20
11.639318
 10
2.660371
 20
11.653574
 10
2.661440
 20
11.667754
 10
2.662594
 20
11.681844
 10
2.663830
 20
11.695828
 10
2.665145
 20
11.709691
 10
2.666536
 20
11.723420
 10
2.668000
 20
11.737000
 10
2.669535
 20
11.750465
 10
2.671141
 20
11.763859
 10
2.672816
 20
11.777184
 10
2.674562
 20
11.790437
 10
2.676379
 20
11.803621
 10
2.678266
 20
11.816734
 10
2.680223
 20
11.829777
 10
2.682250
 20
11.842750
 10
2.684348
 20
11.855652
 10
2.686516
 20
11.868484
 10
2.688754
 20
11.881246
 10
2.691063
 20
11.893937
 10
2.693441
 20
11.906559
 10
2.695891
 20
11.919109
 10
2.698410
 20
11.931590
 10
2.701000
 20
11.944000
 10
2.703837
 20
11.956152
 10
2.706725
 20
11.968234
 10
2.709668
 20
11.980246
 10
2.712672
 20
11.992188
 10
2.715740
 20
12.004059
 10
2.718877
 20
12.015859
 10
2.722087
 20
12.027590
 10
2.725375
 20
12.039250
 10
2.728745
 20
12.050840
 10
2.732201
 20
12.062359
 10
2.735748
 20
12.073809
 10
2.739391
 20
12.085187
 10
2.743133
 20
12.096496
 10
2.746979
 20
12.107734
 10
2.750933
 20
12.118902
 10
2.755000
 20
12.130000
 10
2.758984
 20
12.141005
 10
2.763059
 20
12.151900
 10
2.767221
 20
12.162693
 10
2.771469
 20
12.173391
 10
2.775798
 20
12.184000
 10
2.780207
 20
12.194529
 10
2.784692
 20
12.204985
 10
2.789250
 20
12.215375
 10
2.793878
 20
12.225706
 10
2.798574
 20
12.235986
 10
2.803334
 20
12.246222
 10
2.808156
 20
12.256422
 10
2.813037
 20
12.266592
 10
2.817973
 20
12.276740
 10
2.822961
 20
12.286874
 10
2.828000
 20
12.297000
 10
2.832899
 20
12.306925
 10
2.837848
 20
12.316822
 10
2.842849
 20
12.326687
 10
2.847906
 20
12.336516
 10
2.853022
 20
12.346303
 10
2.858199
 20
12.356045
 10
2.863441
 20
12.365737
 10
2.868750
 20
12.375375
 10
2.874129
 20
12.384954
 10
2.879582
 20
12.394471
 10
2.885111
 20
12.403920
 10
2.890719
 20
12.413297
 10
2.896409
 20
12.422598
 10
2.902184
 20
12.431818
 10
2.908046
 20
12.440954
 10
2.914000
 20
12.450000
 10
2.920233
 20
12.458931
 10
2.926555
 20
12.467732
 10
2.932958
 20
12.476413
 10
2.939437
 20
12.484984
 10
2.945987
 20
12.493456
 10
2.952602
 20
12.501838
 10
2.959274
 20
12.510141
 10
2.966000
 20
12.518375
 10
2.972772
 20
12.526551
 10
2.979586
 20
12.534678
 10
2.986435
 20
12.542767
 10
2.993313
 20
12.550828
 10
3.000214
 20
12.558872
 10
3.007133
 20
12.566908
 10
3.014063
 20
12.574948
 10
3.021000
 20
12.583000
 10
3.027949
 20
12.591227
 10
3.034920
 20
12.599408
 10
3.041911
 20
12.607546
 10
3.048922
 20
12.615641
 10
3.055950
 20
12.623695
 10
3.062994
 20
12.631709
 10
3.070053
 20
12.639685
 10
3.077125
 20
12.647625
 10
3.084209
 20
12.655530
 10
3.091303
 20
12.663400
 10
3.098406
 20
12.671239
 10
3.105516
 20
12.679047
 10
3.112632
 20
12.686825
 10
3.119752
 20
12.694576
 10
3.126875
 20
12.702301
 10
3.134000
 20
12.710000
 10
3.141313
 20
12.717687
 10
3.148631
 20
12.725369
 10
3.155957
 20
12.733043
 10
3.163297
 20
12.740703
 10
3.170654
 20
12.748346
 10
3.178033
 20
12.755967
 10
3.185439
 20
12.763561
 10
3.192875
 20
12.771125
 10
3.200346
 20
12.778654
 10
3.207857
 20
12.786143
 10
3.215412
 20
12.793588
 10
3.223016
 20
12.800984
 10
3.230672
 20
12.808328
 10
3.238385
 20
12.815615
 10
3.246159
 20
12.822841
 10
3.254000
 20
12.830000
 10
3.262086
 20
12.837079
 10
3.270217
 20
12.844072
 10
3.278392
 20
12.850986
 10
3.286609
 20
12.857828
 10
3.294868
 20
12.864606
 10
3.303166
 20
12.871326
 10
3.311502
 20
12.877997
 10
3.319875
 20
12.884625
 10
3.328283
 20
12.891218
 10
3.336725
 20
12.897783
 10
3.345198
 20
12.904328
 10
3.353703
 20
12.910859
 10
3.362237
 20
12.917385
 10
3.370799
 20
12.923912
 10
3.379387
 20
12.930448
 10
3.388000
 20
12.937000
 10
3.396450
 20
12.943375
 10
3.404926
 20
12.949746
 10
3.413431
 20
12.956112
 10
3.421969
 20
12.962469
 10
3.430542
 20
12.968814
 10
3.439152
 20
12.975145
 10
3.447804
 20
12.981458
 10
3.456500
 20
12.987750
 10
3.465243
 20
12.994019
 10
3.474035
 20
13.000262
 10
3.482880
 20
13.006475
 10
3.491781
 20
13.012656
 10
3.500741
 20
13.018802
 10
3.509762
 20
13.024910
 10
3.518847
 20
13.030977
 10
3.528000
 20
13.037000
 10
3.537079
 20
13.042745
 10
3.546305
 20
13.048365
 10
3.555659
 20
13.053877
 10
3.565125
 20
13.059297
 10
3.574685
 20
13.064640
 10
3.584320
 20
13.069924
 10
3.594015
 20
13.075163
 10
3.603750
 20
13.080375
 10
3.613509
 20
13.085575
 10
3.623273
 20
13.090779
 10
3.633026
 20
13.096004
 10
3.642750
 20
13.101266
 10
3.652427
 20
13.106580
 10
3.662039
 20
13.111963
 10
3.671569
 20
13.117431
 10
3.681000
 20
13.123000
 10
3.690352
 20
13.128648
 10
3.699660
 20
13.134338
 10
3.708927
 20
13.140066
 10
3.718156
 20
13.145828
 10
3.727350
 20
13.151619
 10
3.736512
 20
13.157436
 10
3.745644
 20
13.163272
 10
3.754750
 20
13.169125
 10
3.763833
 20
13.174990
 10
3.772895
 20
13.180861
 10
3.781939
 20
13.186736
 10
3.790969
 20
13.192609
 10
3.799987
 20
13.198477
 10
3.808996
 20
13.204334
 10
3.818000
 20
13.210177
 10
3.827000
 20
13.216000
 10
3.836198
 20
13.221978
 10
3.845416
 20
13.227914
 10
3.854648
 20
13.233815
 10
3.863891
 20
13.239688
 10
3.873139
 20
13.245536
 10
3.882389
 20
13.251367
 10
3.891635
 20
13.257187
 10
3.900875
 20
13.263000
 10
3.910103
 20
13.268813
 10
3.919314
 20
13.274633
 10
3.928506
 20
13.280464
 10
3.937672
 20
13.286313
 10
3.946809
 20
13.292185
 10
3.955912
 20
13.298086
 10
3.964977
 20
13.304022
 10
3.974000
 20
13.310000
 10
3.982966
 20
13.316023
 10
3.991869
 20
13.322090
 10
4.000717
 20
13.328198
 10
4.009516
 20
13.334344
 10
4.018274
 20
13.340525
 10
4.026998
 20
13.346738
 10
4.035696
 20
13.352981
 10
4.044375
 20
13.359250
 10
4.053042
 20
13.365542
 10
4.061705
 20
13.371855
 10
4.070371
 20
13.378186
 10
4.079047
 20
13.384531
 10
4.087740
 20
13.390888
 10
4.096459
 20
13.397254
 10
4.105210
 20
13.403625
 10
4.114000
 20
13.410000
 10
4.122812
 20
13.416177
 10
4.131623
 20
13.422336
 10
4.140431
 20
13.428483
 10
4.149234
 20
13.434625
 10
4.158032
 20
13.440767
 10
4.166822
 20
13.446914
 10
4.175604
 20
13.453073
 10
4.184375
 20
13.459250
 10
4.193135
 20
13.465450
 10
4.201881
 20
13.471680
 10
4.210613
 20
13.477944
 10
4.219328
 20
13.484250
 10
4.228026
 20
13.490603
 10
4.236705
 20
13.497008
 10
4.245364
 20
13.503472
 10
4.254000
 20
13.510000
 10
4.262437
 20
13.516398
 10
4.270871
 20
13.522840
 10
4.279299
 20
13.529323
 10
4.287719
 20
13.535844
 10
4.296126
 20
13.542400
 10
4.304520
 20
13.548988
 10
4.312895
 20
13.555606
 10
4.321250
 20
13.562250
 10
4.329582
 20
13.568917
 10
4.337887
 20
13.575605
 10
4.346163
 20
13.582311
 10
4.354406
 20
13.589031
 10
4.362615
 20
13.595763
 10
4.370785
 20
13.602504
 10
4.378915
 20
13.609250
 10
4.387000
 20
13.616000
 10
4.395216
 20
13.622960
 10
4.403367
 20
13.629963
 10
4.411460
 20
13.637004
 10
4.419500
 20
13.644078
 10
4.427493
 20
13.651182
 10
4.435445
 20
13.658311
 10
4.443362
 20
13.665460
 10
4.451250
 20
13.672625
 10
4.459114
 20
13.679802
 10
4.466961
 20
13.686986
 10
4.474796
 20
13.694174
 10
4.482625
 20
13.701359
 10
4.490454
 20
13.708539
 10
4.498289
 20
13.715709
 10
4.506136
 20
13.722864
 10
4.514000
 20
13.730000
 10
4.521864
 20
13.736960
 10
4.529709
 20
13.743961
 10
4.537539
 20
13.750997
 10
4.545359
 20
13.758062
 10
4.553174
 20
13.765151
 10
4.560986
 20
13.772258
 10
4.568802
 20
13.779376
 10
4.576625
 20
13.786500
 10
4.584460
 20
13.793624
 10
4.592311
 20
13.800742
 10
4.600182
 20
13.807849
 10
4.608078
 20
13.814937
 10
4.616004
 20
13.822003
 10
4.623963
 20
13.829039
 10
4.631960
 20
13.836040
 10
4.640000
 20
13.843000
 10
4.648250
 20
13.849915
 10
4.656504
 20
13.856785
 10
4.664763
 20
13.863615
 10
4.673031
 20
13.870406
 10
4.681311
 20
13.877163
 10
4.689605
 20
13.883887
 10
4.697917
 20
13.890582
 10
4.706250
 20
13.897250
 10
4.714606
 20
13.903895
 10
4.722988
 20
13.910520
 10
4.731400
 20
13.917126
 10
4.739844
 20
13.923719
 10
4.748323
 20
13.930299
 10
4.756840
 20
13.936871
 10
4.765398
 20
13.943437
 10
4.774000
 20
13.950000
 10
4.782461
 20
13.956363
 10
4.790967
 20
13.962703
 10
4.799517
 20
13.969020
 10
4.808109
 20
13.975313
 10
4.816743
 20
13.981582
 10
4.825416
 20
13.987828
 10
4.834127
 20
13.994051
 10
4.842875
 20
14.000250
 10
4.851658
 20
14.006426
 10
4.860475
 20
14.012578
 10
4.869323
 20
14.018707
 10
4.878203
 20
14.024812
 10
4.887112
 20
14.030895
 10
4.896049
 20
14.036953
 10
4.905012
 20
14.042988
 10
4.914000
 20
14.049000
 10
4.922825
 20
14.055175
 10
4.931676
 20
14.061324
 10
4.940556
 20
14.067444
 10
4.949469
 20
14.073531
 10
4.958417
 20
14.079583
 10
4.967402
 20
14.085598
 10
4.976429
 20
14.091571
 10
4.985500
 20
14.097500
 10
4.994618
 20
14.103382
 10
5.003785
 20
14.109215
 10
5.013005
 20
14.114995
 10
5.022281
 20
14.120719
 10
5.031616
 20
14.126384
 10
5.041012
 20
14.131988
 10
5.050472
 20
14.137528
 10
5.060000
 20
14.143000
 10
5.069553
 20
14.148447
 10
5.079098
 20
14.153902
 10
5.088648
 20
14.159352
 10
5.098219
 20
14.164781
 10
5.107825
 20
14.170175
 10
5.117480
 20
14.175520
 10
5.127201
 20
14.180799
 10
5.137000
 20
14.186000
 10
5.146893
 20
14.191107
 10
5.156895
 20
14.196105
 10
5.167019
 20
14.200981
 10
5.177281
 20
14.205719
 10
5.187696
 20
14.210304
 10
5.198277
 20
14.214723
 10
5.209041
 20
14.218959
 10
5.220000
 20
14.223000
 10
5.231144
 20
14.226856
 10
5.242445
 20
14.230555
 10
5.253899
 20
14.234101
 10
5.265500
 20
14.237500
 10
5.277241
 20
14.240759
 10
5.289117
 20
14.243883
 10
5.301122
 20
14.246878
 10
5.313250
 20
14.249750
 10
5.325495
 20
14.252505
 10
5.337852
 20
14.255148
 10
5.350313
 20
14.257687
 10
5.362875
 20
14.260125
 10
5.375530
 20
14.262470
 10
5.388273
 20
14.264727
 10
5.401099
 20
14.266901
 10
5.414000
 20
14.269000
 10
5.426875
 20
14.271048
 10
5.439980
 20
14.273059
 10
5.453292
 20
14.275016
 10
5.466781
 20
14.276906
 10
5.480423
 20
14.278714
 10
5.494191
 20
14.280426
 10
5.508059
 20
14.282026
 10
5.522000
 20
14.283500
 10
5.535988
 20
14.284833
 10
5.549996
 20
14.286012
 10
5.563999
 20
14.287020
 10
5.577969
 20
14.287844
 10
5.591880
 20
14.288468
 10
5.605707
 20
14.288879
 10
5.619422
 20
14.289061
 10
5.633000
 20
14.289000
 10
5.646697
 20
14.288686
 10
5.660406
 20
14.288129
 10
5.674115
 20
14.287343
 10
5.687812
 20
14.286344
 10
5.701486
 20
14.285145
 10
5.715125
 20
14.283762
 10
5.728717
 20
14.282208
 10
5.742250
 20
14.280500
 10
5.755713
 20
14.278651
 10
5.769094
 20
14.276676
 10
5.782381
 20
14.274589
 10
5.795563
 20
14.272406
 10
5.808627
 20
14.270141
 10
5.821563
 20
14.267809
 10
5.834357
 20
14.265423
 10
5.847000
 20
14.263000
 10
5.859361
 20
14.260361
 10
5.871686
 20
14.257686
 10
5.883960
 20
14.254960
 10
5.896172
 20
14.252172
 10
5.908307
 20
14.249307
 10
5.920354
 20
14.246354
 10
5.932297
 20
14.243297
 10
5.944125
 20
14.240125
 10
5.955824
 20
14.236824
 10
5.967381
 20
14.233381
 10
5.978782
 20
14.229782
 10
5.990016
 20
14.226016
 10
6.001067
 20
14.222067
 10
6.011924
 20
14.217924
 10
6.022573
 20
14.213573
 10
6.033000
 20
14.209000
 10
6.043363
 20
14.204363
 10
6.053467
 20
14.199467
 10
6.063333
 20
14.194333
 10
6.072984
 20
14.188984
 10
6.082442
 20
14.183442
 10
6.091729
 20
14.177729
 10
6.100865
 20
14.171865
 10
6.109875
 20
14.165875
 10
6.118779
 20
14.159779
 10
6.127600
 20
14.153600
 10
6.136359
 20
14.147359
 10
6.145078
 20
14.141078
 10
6.153780
 20
14.134780
 10
6.162486
 20
14.128486
 10
6.171219
 20
14.122219
 10
6.180000
 20
14.116000
 10
6.188789
 20
14.109789
 10
6.197527
 20
14.103527
 10
6.206213
 20
14.097213
 10
6.214844
 20
14.090844
 10
6.223416
 20
14.084416
 10
6.231926
 20
14.077926
 10
6.240372
 20
14.071372
 10
6.248750
 20
14.064750
 10
6.257058
 20
14.058058
 10
6.265293
 20
14.051293
 10
6.273452
 20
14.044452
 10
6.281531
 20
14.037531
 10
6.289529
 20
14.030529
 10
6.297441
 20
14.023441
 10
6.305266
 20
14.016266
 10
6.313000
 20
14.009000
 10
6.320641
 20
14.001806
 10
6.328191
 20
13.994480
 10
6.335654
 20
13.987032
 10
6.343031
 20
13.979469
 10
6.350327
 20
13.971800
 10
6.357543
 20
13.964035
 10
6.364683
 20
13.956182
 10
6.371750
 20
13.948250
 10
6.378747
 20
13.940248
 10
6.385676
 20
13.932184
 10
6.392541
 20
13.924067
 10
6.399344
 20
13.915906
 10
6.406088
 20
13.907710
 10
6.412777
 20
13.899488
 10
6.419414
 20
13.891249
 10
6.426000
 20
13.883000
 10
6.432748
 20
13.874572
 10
6.439484
 20
13.866156
 10
6.446197
 20
13.857740
 10
6.452875
 20
13.849312
 10
6.459506
 20
13.840861
 10
6.466078
 20
13.832375
 10
6.472580
 20
13.823842
 10
6.479000
 20
13.815250
 10
6.485326
 20
13.806588
 10
6.491547
 20
13.797844
 10
6.497650
 20
13.789006
 10
6.503625
 20
13.780062
 10
6.509459
 20
13.771002
 10
6.515141
 20
13.761812
 10
6.520658
 20
13.752482
 10
6.526000
 20
13.743000
 10
6.531379
 20
13.733368
 10
6.536645
 20
13.723602
 10
6.541798
 20
13.713706
 10
6.546844
 20
13.703688
 10
6.551784
 20
13.693552
 10
6.556621
 20
13.683305
 10
6.561359
 20
13.672952
 10
6.566000
 20
13.662500
 10
6.570547
 20
13.651954
 10
6.575004
 20
13.641320
 10
6.579373
 20
13.630604
 10
6.583656
 20
13.619813
 10
6.587858
 20
13.608950
 10
6.591980
 20
13.598023
 10
6.596027
 20
13.587038
 10
6.600000
 20
13.576000
 10
6.603880
 20
13.564891
 10
6.607650
 20
13.553693
 10
6.611318
 20
13.542410
 10
6.614891
 20
13.531047
 10
6.618375
 20
13.519607
 10
6.621779
 20
13.508096
 10
6.625110
 20
13.496517
 10
6.628375
 20
13.484875
 10
6.631581
 20
13.473175
 10
6.634736
 20
13.461420
 10
6.637847
 20
13.449615
 10
6.640922
 20
13.437766
 10
6.643967
 20
13.425875
 10
6.646990
 20
13.413947
 10
6.649999
 20
13.401988
 10
6.653000
 20
13.390000
 10
6.655943
 20
13.377767
 10
6.658779
 20
13.365451
 10
6.661519
 20
13.353062
 10
6.664172
 20
13.340609
 10
6.666749
 20
13.328104
 10
6.669260
 20
13.315557
 10
6.671715
 20
13.302977
 10
6.674125
 20
13.290375
 10
6.676500
 20
13.277761
 10
6.678850
 20
13.265146
 10
6.681185
 20
13.252540
 10
6.683516
 20
13.239953
 10
6.685852
 20
13.227395
 10
6.688205
 20
13.214877
 10
6.690584
 20
13.202408
 10
6.693000
 20
13.190000
 10
6.695471
 20
13.177471
 10
6.698000
 20
13.165000
 10
6.700576
 20
13.152576
 10
6.703188
 20
13.140187
 10
6.705822
 20
13.127822
 10
6.708469
 20
13.115469
 10
6.711115
 20
13.103115
 10
6.713750
 20
13.090750
 10
6.716361
 20
13.078361
 10
6.718938
 20
13.065938
 10
6.721467
 20
13.053467
 10
6.723937
 20
13.040938
 10
6.726338
 20
13.028338
 10
6.728656
 20
13.015656
 10
6.730881
 20
13.002881
 10
6.733000
 20
12.990000
 10
6.735039
 20
12.977039
 10
6.737031
 20
12.964031
 10
6.738977
 20
12.950977
 10
6.740875
 20
12.937875
 10
6.742727
 20
12.924727
 10
6.744531
 20
12.911531
 10
6.746289
 20
12.898289
 10
6.748000
 20
12.885000
 10
6.749664
 20
12.871664
 10
6.751281
 20
12.858281
 10
6.752852
 20
12.844852
 10
6.754375
 20
12.831375
 10
6.755852
 20
12.817852
 10
6.757281
 20
12.804281
 10
6.758664
 20
12.790664
 10
6.760000
 20
12.777000
 10
6.761146
 20
12.763069
 10
6.762322
 20
12.749035
 10
6.763513
 20
12.734914
 10
6.764703
 20
12.720719
 10
6.765875
 20
12.706465
 10
6.767014
 20
12.692168
 10
6.768102
 20
12.677841
 10
6.769125
 20
12.663500
 10
6.770066
 20
12.649159
 10
6.770908
 20
12.634832
 10
6.771636
 20
12.620535
 10
6.772234
 20
12.606281
 10
6.772686
 20
12.592086
 10
6.772975
 20
12.577965
 10
6.773085
 20
12.563931
 10
6.773000
 20
12.550000
 10
6.772731
 20
12.536093
 10
6.772305
 20
12.522131
 10
6.771726
 20
12.508131
 10
6.771000
 20
12.494109
 10
6.770134
 20
12.480082
 10
6.769133
 20
12.466064
 10
6.768003
 20
12.452073
 10
6.766750
 20
12.438125
 10
6.765380
 20
12.424235
 10
6.763898
 20
12.410420
 10
6.762312
 20
12.396696
 10
6.760625
 20
12.383078
 10
6.758845
 20
12.369584
 10
6.756977
 20
12.356229
 10
6.755026
 20
12.343029
 10
6.753000
 20
12.330000
 10
6.750890
 20
12.317110
 10
6.748684
 20
12.304316
 10
6.746377
 20
12.291623
 10
6.743969
 20
12.279031
 10
6.741455
 20
12.266545
 10
6.738832
 20
12.254168
 10
6.736098
 20
12.241902
 10
6.733250
 20
12.229750
 10
6.730285
 20
12.217715
 10
6.727199
 20
12.205801
 10
6.723991
 20
12.194009
 10
6.720656
 20
12.182344
 10
6.717193
 20
12.170807
 10
6.713598
 20
12.159402
 10
6.709868
 20
12.148132
 10
6.706000
 20
12.137000
 10
6.701959
 20
12.126041
 10
6.697723
 20
12.115277
 10
6.693304
 20
12.104696
 10
6.688719
 20
12.094281
 10
6.683981
 20
12.084019
 10
6.679105
 20
12.073895
 10
6.674107
 20
12.063893
 10
6.669000
 20
12.054000
 10
6.663799
 20
12.044201
 10
6.658520
 20
12.034480
 10
6.653175
 20
12.024825
 10
6.647781
 20
12.015219
 10
6.642352
 20
12.005648
 10
6.636902
 20
11.996098
 10
6.631447
 20
11.986553
 10
6.626000
 20
11.977000
 10
6.620704
 20
11.967461
 10
6.615318
 20
11.957969
 10
6.609848
 20
11.948523
 10
6.604297
 20
11.939125
 10
6.598670
 20
11.929773
 10
6.592971
 20
11.920469
 10
6.587204
 20
11.911211
 10
6.581375
 20
11.902000
 10
6.575487
 20
11.892836
 10
6.569545
 20
11.883719
 10
6.563553
 20
11.874648
 10
6.557516
 20
11.865625
 10
6.551437
 20
11.856648
 10
6.545322
 20
11.847719
 10
6.539175
 20
11.838836
 10
6.533000
 20
11.830000
 10
6.526767
 20
11.821398
 10
6.520445
 20
11.812842
 10
6.514042
 20
11.804329
 10
6.507562
 20
11.795859
 10
6.501013
 20
11.787430
 10
6.494398
 20
11.779041
 10
6.487726
 20
11.770690
 10
6.481000
 20
11.762375
 10
6.474228
 20
11.754095
 10
6.467414
 20
11.745850
 10
6.460565
 20
11.737636
 10
6.453688
 20
11.729453
 10
6.446786
 20
11.721300
 10
6.439867
 20
11.713174
 10
6.432937
 20
11.705074
 10
6.426000
 20
11.697000
 10
6.419238
 20
11.688927
 10
6.412449
 20
11.680838
 10
6.405631
 20
11.672740
 10
6.398781
 20
11.664641
 10
6.391896
 20
11.656547
 10
6.384973
 20
11.648467
 10
6.378008
 20
11.640407
 10
6.371000
 20
11.632375
 10
6.363945
 20
11.624378
 10
6.356840
 20
11.616424
 10
6.349682
 20
11.608519
 10
6.342469
 20
11.600672
 10
6.335197
 20
11.592889
 10
6.327863
 20
11.585178
 10
6.320465
 20
11.577546
 10
6.313000
 20
11.570000
 10
6.305466
 20
11.562546
 10
6.297865
 20
11.555178
 10
6.290203
 20
11.547889
 10
6.282484
 20
11.540672
 10
6.274713
 20
11.533519
 10
6.266893
 20
11.526424
 10
6.259029
 20
11.519378
 10
6.251125
 20
11.512375
 10
6.243186
 20
11.505407
 10
6.235217
 20
11.498467
 10
6.227221
 20
11.491547
 10
6.219203
 20
11.484641
 10
6.211168
 20
11.477740
 10
6.203119
 20
11.470838
 10
6.195062
 20
11.463927
 10
6.187000
 20
11.457000
 10
6.178739
 20
11.450096
 10
6.170455
 20
11.443256
 10
6.162151
 20
11.436471
 10
6.153828
 20
11.429734
 10
6.145488
 20
11.423039
 10
6.137131
 20
11.416377
 10
6.128760
 20
11.409741
 10
6.120375
 20
11.403125
 10
6.111979
 20
11.396520
 10
6.103572
 20
11.389920
 10
6.095157
 20
11.383317
 10
6.086734
 20
11.376703
 10
6.078306
 20
11.370072
 10
6.069873
 20
11.363416
 10
6.061437
 20
11.356728
 10
6.053000
 20
11.350000
 10
6.044717
 20
11.343459
 10
6.036375
 20
11.336955
 10
6.027986
 20
11.330477
 10
6.019563
 20
11.324016
 10
6.011115
 20
11.317560
 10
6.002656
 20
11.311100
 10
5.994197
 20
11.304625
 10
5.985750
 20
11.298125
 10
5.977326
 20
11.291590
 10
5.968938
 20
11.285010
 10
5.960596
 20
11.278374
 10
5.952312
 20
11.271672
 10
5.944100
 20
11.264894
 10
5.935969
 20
11.258029
 10
5.927932
 20
11.251068
 10
5.920000
 20
11.244000
 10
5.912148
 20
11.236852
 10
5.904344
 20
11.229656
 10
5.896586
 20
11.222414
 10
5.888875
 20
11.215125
 10
5.881211
 20
11.207789
 10
5.873594
 20
11.200406
 10
5.866023
 20
11.192977
 10
5.858500
 20
11.185500
 10
5.851023
 20
11.177977
 10
5.843594
 20
11.170406
 10
5.836211
 20
11.162789
 10
5.828875
 20
11.155125
 10
5.821586
 20
11.147414
 10
5.814344
 20
11.139656
 10
5.807148
 20
11.131852
 10
5.800000
 20
11.124000
 10
5.792921
 20
11.116079
 10
5.785928
 20
11.108072
 10
5.779014
 20
11.099986
 10
5.772172
 20
11.091828
 10
5.765394
 20
11.083606
 10
5.758674
 20
11.075326
 10
5.752003
 20
11.066997
 10
5.745375
 20
11.058625
 10
5.738782
 20
11.050218
 10
5.732217
 20
11.041783
 10
5.725672
 20
11.033328
 10
5.719141
 20
11.024859
 10
5.712615
 20
11.016385
 10
5.706088
 20
11.007912
 10
5.699552
 20
10.999448
 10
5.693000
 20
10.991000
 10
5.686636
 20
10.982364
 10
5.680295
 20
10.973705
 10
5.673974
 20
10.965026
 10
5.667672
 20
10.956328
 10
5.661387
 20
10.947613
 10
5.655119
 20
10.938881
 10
5.648865
 20
10.930135
 10
5.642625
 20
10.921375
 10
5.636396
 20
10.912604
 10
5.630178
 20
10.903822
 10
5.623968
 20
10.895032
 10
5.617766
 20
10.886234
 10
5.611569
 20
10.877431
 10
5.605377
 20
10.868623
 10
5.599188
 20
10.859812
 10
5.593000
 20
10.851000
 10
5.587012
 20
10.841988
 10
5.581047
 20
10.832953
 10
5.575105
 20
10.823895
 10
5.569187
 20
10.814813
 10
5.563293
 20
10.805707
 10
5.557422
 20
10.796578
 10
5.551574
 20
10.787426
 10
5.545750
 20
10.778250
 10
5.539949
 20
10.769051
 10
5.534172
 20
10.759828
 10
5.528418
 20
10.750582
 10
5.522687
 20
10.741312
 10
5.516980
 20
10.732020
 10
5.511297
 20
10.722703
 10
5.505637
 20
10.713363
 10
5.500000
 20
10.704000
 10
5.494387
 20
10.694613
 10
5.488799
 20
10.685203
 10
5.483237
 20
10.675770
 10
5.477703
 20
10.666313
 10
5.472198
 20
10.656832
 10
5.466725
 20
10.647328
 10
5.461283
 20
10.637801
 10
5.455875
 20
10.628250
 10
5.450502
 20
10.618676
 10
5.445166
 20
10.609078
 10
5.439868
 20
10.599457
 10
5.434609
 20
10.589813
 10
5.429392
 20
10.580145
 10
5.424217
 20
10.570453
 10
5.419086
 20
10.560738
 10
5.414000
 20
10.551000
 10
5.408795
 20
10.541194
 10
5.403672
 20
10.531287
 10
5.398619
 20
10.521295
 10
5.393625
 20
10.511234
 10
5.388678
 20
10.501121
 10
5.383766
 20
10.490971
 10
5.378877
 20
10.480800
 10
5.374000
 20
10.470625
 10
5.369123
 20
10.460462
 10
5.364234
 20
10.450326
 10
5.359322
 20
10.440235
 10
5.354375
 20
10.430203
 10
5.349381
 20
10.420248
 10
5.344328
 20
10.410385
 10
5.339205
 20
10.400630
 10
5.334000
 20
10.391000
 10
5.328539
 20
10.381461
 10
5.323029
 20
10.371969
 10
5.317470
 20
10.362523
 10
5.311859
 20
10.353125
 10
5.306196
 20
10.343773
 10
5.300479
 20
10.334469
 10
5.294705
 20
10.325211
 10
5.288875
 20
10.316000
 10
5.282986
 20
10.306836
 10
5.277037
 20
10.297719
 10
5.271027
 20
10.288648
 10
5.264953
 20
10.279625
 10
5.258815
 20
10.270648
 10
5.252611
 20
10.261719
 10
5.246340
 20
10.252836
 10
5.240000
 20
10.244000
 10
5.233789
 20
10.235376
 10
5.227529
 20
10.226760
 10
5.221220
 20
10.218158
 10
5.214859
 20
10.209578
 10
5.208446
 20
10.201028
 10
5.201979
 20
10.192514
 10
5.195455
 20
10.184044
 10
5.188875
 20
10.175625
 10
5.182236
 20
10.167265
 10
5.175537
 20
10.158971
 10
5.168777
 20
10.150750
 10
5.161953
 20
10.142609
 10
5.155065
 20
10.134557
 10
5.148111
 20
10.126600
 10
5.141090
 20
10.118745
 10
5.134000
 20
10.111000
 10
5.126630
 20
10.103359
 10
5.119150
 20
10.095809
 10
5.111568
 20
10.088346
 10
5.103891
 20
10.080969
 10
5.096125
 20
10.073673
 10
5.088279
 20
10.066457
 10
5.080360
 20
10.059317
 10
5.072375
 20
10.052250
 10
5.064331
 20
10.045253
 10
5.056236
 20
10.038324
 10
5.048097
 20
10.031459
 10
5.039922
 20
10.024656
 10
5.031717
 20
10.017912
 10
5.023490
 20
10.011223
 10
5.015249
 20
10.004586
 10
5.007000
 20
9.998000
 10
4.998715
 20
9.991285
 10
4.990361
 20
9.984639
 10
4.981940
 20
9.978060
 10
4.973453
 20
9.971547
 10
4.964902
 20
9.965098
 10
4.956287
 20
9.958713
 10
4.947611
 20
9.952389
 10
4.938875
 20
9.946125
 10
4.930080
 20
9.939920
 10
4.921229
 20
9.933771
 10
4.912321
 20
9.927679
 10
4.903359
 20
9.921641
 10
4.894345
 20
9.915655
 10
4.885279
 20
9.909721
 10
4.876164
 20
9.903836
 10
4.867000
 20
9.898000
 10
4.857756
 20
9.892200
 10
4.848408
 20
9.886428
 10
4.838969
 20
9.880688
 10
4.829453
 20
9.874984
 10
4.819872
 20
9.869322
 10
4.810240
 20
9.863705
 10
4.800570
 20
9.858138
 10
4.790875
 20
9.852625
 10
4.781168
 20
9.847171
 10
4.771463
 20
9.841779
 10
4.761772
 20
9.836455
 10
4.752109
 20
9.831203
 10
4.742488
 20
9.826027
 10
4.732920
 20
9.820932
 10
4.723420
 20
9.815921
 10
4.714000
 20
9.811000
 10
4.704692
 20
9.806325
 10
4.695502
 20
9.801682
 10
4.686409
 20
9.797076
 10
4.677391
 20
9.792516
 10
4.668425
 20
9.788008
 10
4.659490
 20
9.783561
 10
4.650564
 20
9.779180
 10
4.641625
 20
9.774875
 10
4.632651
 20
9.770652
 10
4.623619
 20
9.766518
 10
4.614509
 20
9.762480
 10
4.605297
 20
9.758547
 10
4.595962
 20
9.754725
 10
4.586482
 20
9.751021
 10
4.576836
 20
9.747444
 10
4.567000
 20
9.744000
 10
4.557004
 20
9.740848
 10
4.546893
 20
9.737770
 10
4.536667
 20
9.734767
 10
4.526328
 20
9.731844
 10
4.515878
 20
9.729002
 10
4.505318
 20
9.726246
 10
4.494650
 20
9.723578
 10
4.483875
 20
9.721000
 10
4.472994
 20
9.718516
 10
4.462010
 20
9.716129
 10
4.450923
 20
9.713841
 10
4.439734
 20
9.711656
 10
4.428447
 20
9.709577
 10
4.417061
 20
9.707605
 10
4.405578
 20
9.705746
 10
4.394000
 20
9.704000
  0
LWPOLYLINE
  8
ENGRAVE
 90
1137
 70
1
 10
4.034000
 20
3.653000
 10
4.025042
 20
3.652529
 10
4.016146
 20
3.652234
 10
4.007283
 20
3.652104
 10
3.998422
 20
3.652125
 10
3.989531
 20
3.652287
 10
3.980580
 20
3.652578
 10
3.971538
 20
3.652986
 10
3.962375
 20
3.653500
 10
3.953059
 20
3.654107
 10
3.943561
 20
3.654797
 10
3.933848
 20
3.655557
 10
3.923891
 20
3.656375
 10
3.913658
 20
3.657240
 10
3.903119
 20
3.658141
 10
3.892243
 20
3.659064
 10
3.881000
 20
3.660000
 10
3.869281
 20
3.661138
 10
3.857041
 20
3.662309
 10
3.844347
 20
3.663520
 10
3.831266
 20
3.664781
 10
3.817862
 20
3.666101
 10
3.804201
 20
3.667488
 10
3.790350
 20
3.668952
 10
3.776375
 20
3.670500
 10
3.762341
 20
3.672142
 10
3.748314
 20
3.673887
 10
3.734361
 20
3.675743
 10
3.720547
 20
3.677719
 10
3.706938
 20
3.679824
 10
3.693600
 20
3.682066
 10
3.680598
 20
3.684456
 10
3.668000
 20
3.687000
 10
3.655507
 20
3.689507
 10
3.643148
 20
3.692148
 10
3.630919
 20
3.694919
 10
3.618812
 20
3.697812
 10
3.606823
 20
3.700823
 10
3.594945
 20
3.703945
 10
3.583173
 20
3.707173
 10
3.571500
 20
3.710500
 10
3.559921
 20
3.713921
 10
3.548430
 20
3.717430
 10
3.537021
 20
3.721021
 10
3.525687
 20
3.724687
 10
3.514425
 20
3.728425
 10
3.503227
 20
3.732227
 10
3.492087
 20
3.736087
 10
3.481000
 20
3.740000
 10
3.469995
 20
3.743995
 10
3.459100
 20
3.748100
 10
3.448307
 20
3.752307
 10
3.437609
 20
3.756609
 10
3.427000
 20
3.761000
 10
3.416471
 20
3.765471
 10
3.406015
 20
3.770015
 10
3.395625
 20
3.774625
 10
3.385294
 20
3.779294
 10
3.375014
 20
3.784014
 10
3.364778
 20
3.788778
 10
3.354578
 20
3.793578
 10
3.344408
 20
3.798408
 10
3.334260
 20
3.803260
 10
3.324126
 20
3.808126
 10
3.314000
 20
3.813000
 10
3.304086
 20
3.818086
 10
3.294219
 20
3.823219
 10
3.284398
 20
3.828398
 10
3.274625
 20
3.833625
 10
3.264898
 20
3.838898
 10
3.255219
 20
3.844219
 10
3.245586
 20
3.849586
 10
3.236000
 20
3.855000
 10
3.226461
 20
3.860461
 10
3.216969
 20
3.865969
 10
3.207523
 20
3.871523
 10
3.198125
 20
3.877125
 10
3.188773
 20
3.882773
 10
3.179469
 20
3.888469
 10
3.170211
 20
3.894211
 10
3.161000
 20
3.900000
 10
3.151847
 20
3.905836
 10
3.142762
 20
3.911721
 10
3.133741
 20
3.917655
 10
3.124781
 20
3.923641
 10
3.115880
 20
3.929679
 10
3.107035
 20
3.935771
 10
3.098243
 20
3.941920
 10
3.089500
 20
3.948125
 10
3.080804
 20
3.954389
 10
3.072152
 20
3.960713
 10
3.063542
 20
3.967098
 10
3.054969
 20
3.973547
 10
3.046431
 20
3.980060
 10
3.037926
 20
3.986639
 10
3.029450
 20
3.993285
 10
3.021000
 20
4.000000
 10
3.012784
 20
4.006773
 10
3.004633
 20
4.013592
 10
2.996540
 20
4.020454
 10
2.988500
 20
4.027359
 10
2.980507
 20
4.034305
 10
2.972555
 20
4.041291
 10
2.964638
 20
4.048315
 10
2.956750
 20
4.055375
 10
2.948886
 20
4.062470
 10
2.941039
 20
4.069600
 10
2.933204
 20
4.076761
 10
2.925375
 20
4.083953
 10
2.917546
 20
4.091175
 10
2.909711
 20
4.098424
 10
2.901864
 20
4.105699
 10
2.894000
 20
4.113000
 10
2.886324
 20
4.120324
 10
2.878674
 20
4.127672
 10
2.871050
 20
4.135043
 10
2.863453
 20
4.142437
 10
2.855886
 20
4.149855
 10
2.848350
 20
4.157297
 10
2.840845
 20
4.164762
 10
2.833375
 20
4.172250
 10
2.825940
 20
4.179762
 10
2.818541
 20
4.187297
 10
2.811180
 20
4.194855
 10
2.803859
 20
4.202438
 10
2.796579
 20
4.210043
 10
2.789342
 20
4.217672
 10
2.782148
 20
4.225324
 10
2.775000
 20
4.233000
 10
2.767710
 20
4.240721
 10
2.760463
 20
4.248506
 10
2.753254
 20
4.256346
 10
2.746078
 20
4.264234
 10
2.738932
 20
4.272164
 10
2.731811
 20
4.280127
 10
2.724710
 20
4.288116
 10
2.717625
 20
4.296125
 10
2.710552
 20
4.304145
 10
2.703486
 20
4.312170
 10
2.696424
 20
4.320192
 10
2.689359
 20
4.328203
 10
2.682289
 20
4.336197
 10
2.675209
 20
4.344166
 10
2.668114
 20
4.352103
 10
2.661000
 20
4.360000
 10
2.653875
 20
4.367864
 10
2.646752
 20
4.375709
 10
2.639632
 20
4.383539
 10
2.632516
 20
4.391359
 10
2.625406
 20
4.399174
 10
2.618303
 20
4.406986
 10
2.611209
 20
4.414802
 10
2.604125
 20
4.422625
 10
2.597053
 20
4.430460
 10
2.589994
 20
4.438311
 10
2.582950
 20
4.446182
 10
2.575922
 20
4.454078
 10
2.568911
 20
4.462004
 10
2.561920
 20
4.469963
 10
2.554949
 20
4.477960
 10
2.548000
 20
4.486000
 10
2.541085
 20
4.494250
 10
2.534215
 20
4.502504
 10
2.527385
 20
4.510763
 10
2.520594
 20
4.519031
 10
2.513837
 20
4.527311
 10
2.507113
 20
4.535605
 10
2.500418
 20
4.543917
 10
2.493750
 20
4.552250
 10
2.487105
 20
4.560606
 10
2.480480
 20
4.568988
 10
2.473874
 20
4.577400
 10
2.467281
 20
4.585844
 10
2.460701
 20
4.594323
 10
2.454129
 20
4.602840
 10
2.447563
 20
4.611398
 10
2.441000
 20
4.620000
 10
2.434615
 20
4.628450
 10
2.428213
 20
4.636926
 10
2.421802
 20
4.645431
 10
2.415391
 20
4.653969
 10
2.408985
 20
4.662542
 10
2.402592
 20
4.671152
 10
2.396219
 20
4.679804
 10
2.389875
 20
4.688500
 10
2.383566
 20
4.697243
 10
2.377299
 20
4.706035
 10
2.371082
 20
4.714880
 10
2.364922
 20
4.723781
 10
2.358826
 20
4.732741
 10
2.352803
 20
4.741762
 10
2.346858
 20
4.750847
 10
2.341000
 20
4.760000
 10
2.335222
 20
4.769222
 10
2.329512
 20
4.778510
 10
2.323866
 20
4.787859
 10
2.318281
 20
4.797266
 10
2.312755
 20
4.806725
 10
2.307285
 20
4.816232
 10
2.301868
 20
4.825784
 10
2.296500
 20
4.835375
 10
2.291179
 20
4.845001
 10
2.285902
 20
4.854658
 10
2.280667
 20
4.864342
 10
2.275469
 20
4.874047
 10
2.270306
 20
4.883770
 10
2.265176
 20
4.893506
 10
2.260075
 20
4.903251
 10
2.255000
 20
4.913000
 10
2.249773
 20
4.922784
 10
2.244590
 20
4.932631
 10
2.239448
 20
4.942533
 10
2.234344
 20
4.952484
 10
2.229275
 20
4.962476
 10
2.224238
 20
4.972502
 10
2.219231
 20
4.982554
 10
2.214250
 20
4.992625
 10
2.209292
 20
5.002708
 10
2.204355
 20
5.012795
 10
2.199436
 20
5.022879
 10
2.194531
 20
5.032953
 10
2.189638
 20
5.043010
 10
2.184754
 20
5.053041
 10
2.179875
 20
5.063040
 10
2.175000
 20
5.073000
 10
2.169938
 20
5.082949
 10
2.164877
 20
5.092918
 10
2.159819
 20
5.102905
 10
2.154766
 20
5.112906
 10
2.149718
 20
5.122919
 10
2.144678
 20
5.132941
 10
2.139646
 20
5.142969
 10
2.134625
 20
5.153000
 10
2.129615
 20
5.163031
 10
2.124619
 20
5.173059
 10
2.119637
 20
5.183081
 10
2.114672
 20
5.193094
 10
2.109724
 20
5.203095
 10
2.104795
 20
5.213082
 10
2.099886
 20
5.223051
 10
2.095000
 20
5.233000
 10
2.089938
 20
5.242938
 10
2.084877
 20
5.252877
 10
2.079819
 20
5.262819
 10
2.074766
 20
5.272766
 10
2.069718
 20
5.282718
 10
2.064678
 20
5.292678
 10
2.059646
 20
5.302646
 10
2.054625
 20
5.312625
 10
2.049615
 20
5.322615
 10
2.044619
 20
5.332619
 10
2.039637
 20
5.342637
 10
2.034672
 20
5.352672
 10
2.029724
 20
5.362724
 10
2.024795
 20
5.372795
 10
2.019886
 20
5.382886
 10
2.015000
 20
5.393000
 10
2.009927
 20
5.402927
 10
2.004836
 20
5.412836
 10
1.999733
 20
5.422733
 10
1.994625
 20
5.432625
 10
1.989517
 20
5.442517
 10
1.984414
 20
5.452414
 10
1.979323
 20
5.462323
 10
1.974250
 20
5.472250
 10
1.969200
 20
5.482200
 10
1.964180
 20
5.492180
 10
1.959194
 20
5.502194
 10
1.954250
 20
5.512250
 10
1.949353
 20
5.522353
 10
1.944508
 20
5.532508
 10
1.939722
 20
5.542722
 10
1.935000
 20
5.553000
 10
1.930148
 20
5.563148
 10
1.925342
 20
5.573340
 10
1.920579
 20
5.583573
 10
1.915859
 20
5.593844
 10
1.911180
 20
5.604150
 10
1.906541
 20
5.614488
 10
1.901940
 20
5.624856
 10
1.897375
 20
5.635250
 10
1.892845
 20
5.645667
 10
1.888350
 20
5.656105
 10
1.883886
 20
5.666561
 10
1.879453
 20
5.677031
 10
1.875050
 20
5.687513
 10
1.870674
 20
5.698004
 10
1.866324
 20
5.708500
 10
1.862000
 20
5.719000
 10
1.857512
 20
5.729688
 10
1.853051
 20
5.740381
 10
1.848619
 20
5.751082
 10
1.844219
 20
5.761797
 10
1.839854
 20
5.772529
 10
1.835527
 20
5.783283
 10
1.831242
 20
5.794064
 10
1.827000
 20
5.804875
 10
1.822805
 20
5.815721
 10
1.818660
 20
5.826607
 10
1.814568
 20
5.837537
 10
1.810531
 20
5.848516
 10
1.806553
 20
5.859547
 10
1.802637
 20
5.870635
 10
1.798785
 20
5.881784
 10
1.795000
 20
5.893000
 10
1.791285
 20
5.904284
 10
1.787637
 20
5.915635
 10
1.784053
 20
5.927047
 10
1.780531
 20
5.938516
 10
1.777068
 20
5.950037
 10
1.773660
 20
5.961607
 10
1.770305
 20
5.973221
 10
1.767000
 20
5.984875
 10
1.763742
 20
5.996564
 10
1.760527
 20
6.008283
 10
1.757354
 20
6.020029
 10
1.754219
 20
6.031797
 10
1.751119
 20
6.043582
 10
1.748051
 20
6.055381
 10
1.745012
 20
6.067188
 10
1.742000
 20
6.079000
 10
1.738781
 20
6.090835
 10
1.735510
 20
6.102715
 10
1.732207
 20
6.114635
 10
1.728891
 20
6.126594
 10
1.725580
 20
6.138587
 10
1.722295
 20
6.150613
 10
1.719053
 20
6.162668
 10
1.715875
 20
6.174750
 10
1.712779
 20
6.186855
 10
1.709783
 20
6.198980
 10
1.706908
 20
6.211124
 10
1.704172
 20
6.223281
 10
1.701594
 20
6.235451
 10
1.699193
 20
6.247629
 10
1.696989
 20
6.259813
 10
1.695000
 20
6.272000
 10
1.693228
 20
6.284365
 10
1.691652
 20
6.296713
 10
1.690258
 20
6.309052
 10
1.689031
 20
6.321391
 10
1.687957
 20
6.333735
 10
1.687020
 20
6.346092
 10
1.686206
 20
6.358469
 10
1.685500
 20
6.370875
 10
1.684888
 20
6.383316
 10
1.684355
 20
6.395799
 10
1.683887
 20
6.408332
 10
1.683469
 20
6.420922
 10
1.683085
 20
6.433576
 10
1.682723
 20
6.446303
 10
1.682366
 20
6.459108
 10
1.682000
 20
6.472000
 10
1.681440
 20
6.485005
 10
1.680893
 20
6.498135
 10
1.680372
 20
6.511373
 10
1.679891
 20
6.524703
 10
1.679462
 20
6.538110
 10
1.679100
 20
6.551576
 10
1.678816
 20
6.565087
 10
1.678625
 20
6.578625
 10
1.678539
 20
6.592175
 10
1.678572
 20
6.605721
 10
1.678737
 20
6.619246
 10
1.679047
 20
6.632734
 10
1.679515
 20
6.646170
 10
1.680154
 20
6.659537
 10
1.680978
 20
6.672819
 10
1.682000
 20
6.686000
 10
1.683063
 20
6.699102
 10
1.684361
 20
6.712160
 10
1.685874
 20
6.725177
 10
1.687578
 20
6.738156
 10
1.689452
 20
6.751100
 10
1.691475
 20
6.764012
 10
1.693623
 20
6.776894
 10
1.695875
 20
6.789750
 10
1.698209
 20
6.802583
 10
1.700604
 20
6.815395
 10
1.703036
 20
6.828189
 10
1.705484
 20
6.840969
 10
1.707927
 20
6.853737
 10
1.710342
 20
6.866496
 10
1.712707
 20
6.879250
 10
1.715000
 20
6.892000
 10
1.717229
 20
6.904771
 10
1.719426
 20
6.917574
 10
1.721605
 20
6.930395
 10
1.723781
 20
6.943219
 10
1.725969
 20
6.956031
 10
1.728184
 20
6.968816
 10
1.730439
 20
6.981561
 10
1.732750
 20
6.994250
 10
1.735131
 20
7.006869
 10
1.737598
 20
7.019402
 10
1.740164
 20
7.031836
 10
1.742844
 20
7.044156
 10
1.745653
 20
7.056347
 10
1.748605
 20
7.068395
 10
1.751716
 20
7.080284
 10
1.755000
 20
7.092000
 10
1.758455
 20
7.103545
 10
1.762062
 20
7.114937
 10
1.765811
 20
7.126189
 10
1.769688
 20
7.137313
 10
1.773682
 20
7.148318
 10
1.777781
 20
7.159219
 10
1.781975
 20
7.170025
 10
1.786250
 20
7.180750
 10
1.790596
 20
7.191404
 10
1.795000
 20
7.202000
 10
1.799451
 20
7.212549
 10
1.803937
 20
7.223063
 10
1.808447
 20
7.233553
 10
1.812969
 20
7.244031
 10
1.817490
 20
7.254510
 10
1.822000
 20
7.265000
 10
1.826302
 20
7.275698
 10
1.830592
 20
7.286408
 10
1.834878
 20
7.297122
 10
1.839172
 20
7.307828
 10
1.843483
 20
7.318517
 10
1.847822
 20
7.329178
 10
1.852199
 20
7.339801
 10
1.856625
 20
7.350375
 10
1.861109
 20
7.360891
 10
1.865662
 20
7.371338
 10
1.870294
 20
7.381706
 10
1.875016
 20
7.391984
 10
1.879837
 20
7.402163
 10
1.884768
 20
7.412232
 10
1.889819
 20
7.422181
 10
1.895000
 20
7.432000
 10
1.900296
 20
7.441704
 10
1.905682
 20
7.451318
 10
1.911152
 20
7.460848
 10
1.916703
 20
7.470297
 10
1.922330
 20
7.479670
 10
1.928029
 20
7.488971
 10
1.933796
 20
7.498204
 10
1.939625
 20
7.507375
 10
1.945513
 20
7.516487
 10
1.951455
 20
7.525545
 10
1.957447
 20
7.534553
 10
1.963484
 20
7.543516
 10
1.969563
 20
7.552437
 10
1.975678
 20
7.561322
 10
1.981825
 20
7.570175
 10
1.988000
 20
7.579000
 10
1.994211
 20
7.587624
 10
2.000473
 20
7.596240
 10
2.006787
 20
7.604842
 10
2.013156
 20
7.613422
 10
2.019584
 20
7.621972
 10
2.026074
 20
7.630486
 10
2.032628
 20
7.638956
 10
2.039250
 20
7.647375
 10
2.045942
 20
7.655735
 10
2.052707
 20
7.664029
 10
2.059548
 20
7.672250
 10
2.066469
 20
7.680391
 10
2.073471
 20
7.688443
 10
2.080559
 20
7.696400
 10
2.087734
 20
7.704255
 10
2.095000
 20
7.712000
 10
2.102359
 20
7.719641
 10
2.109807
 20
7.727191
 10
2.117340
 20
7.734654
 10
2.124953
 20
7.742031
 10
2.132643
 20
7.749327
 10
2.140404
 20
7.756543
 10
2.148233
 20
7.763683
 10
2.156125
 20
7.770750
 10
2.164075
 20
7.777747
 10
2.172080
 20
7.784676
 10
2.180135
 20
7.791541
 10
2.188234
 20
7.798344
 10
2.196375
 20
7.805088
 10
2.204553
 20
7.811777
 10
2.212762
 20
7.818414
 10
2.221000
 20
7.825000
 10
2.229450
 20
7.831715
 10
2.237926
 20
7.838361
 10
2.246431
 20
7.844940
 10
2.254969
 20
7.851453
 10
2.263542
 20
7.857902
 10
2.272152
 20
7.864287
 10
2.280804
 20
7.870611
 10
2.289500
 20
7.876875
 10
2.298243
 20
7.883080
 10
2.307035
 20
7.889229
 10
2.315880
 20
7.895321
 10
2.324781
 20
7.901359
 10
2.333741
 20
7.907345
 10
2.342762
 20
7.913279
 10
2.351847
 20
7.919164
 10
2.361000
 20
7.925000
 10
2.370200
 20
7.930800
 10
2.379430
 20
7.936572
 10
2.388694
 20
7.942312
 10
2.398000
 20
7.948016
 10
2.407353
 20
7.953678
 10
2.416758
 20
7.959295
 10
2.426222
 20
7.964862
 10
2.435750
 20
7.970375
 10
2.445349
 20
7.975829
 10
2.455023
 20
7.981221
 10
2.464780
 20
7.986545
 10
2.474625
 20
7.991797
 10
2.484563
 20
7.996973
 10
2.494602
 20
8.002068
 10
2.504745
 20
8.007079
 10
2.515000
 20
8.012000
 10
2.525183
 20
8.016641
 10
2.535477
 20
8.021193
 10
2.545876
 20
8.025660
 10
2.556375
 20
8.030047
 10
2.566968
 20
8.034357
 10
2.577648
 20
8.038596
 10
2.588411
 20
8.042767
 10
2.599250
 20
8.046875
 10
2.610159
 20
8.050925
 10
2.621133
 20
8.054920
 10
2.632165
 20
8.058865
 10
2.643250
 20
8.062766
 10
2.654382
 20
8.066625
 10
2.665555
 20
8.070447
 10
2.676763
 20
8.074238
 10
2.688000
 20
8.078000
 10
2.699251
 20
8.081749
 10
2.710512
 20
8.085488
 10
2.721790
 20
8.089210
 10
2.733094
 20
8.092906
 10
2.744433
 20
8.096567
 10
2.755816
 20
8.100184
 10
2.767252
 20
8.103748
 10
2.778750
 20
8.107250
 10
2.790318
 20
8.110682
 10
2.801965
 20
8.114035
 10
2.813700
 20
8.117300
 10
2.825531
 20
8.120469
 10
2.837468
 20
8.123532
 10
2.849520
 20
8.126480
 10
2.861694
 20
8.129306
 10
2.874000
 20
8.132000
 10
2.886665
 20
8.134390
 10
2.899520
 20
8.136686
 10
2.912544
 20
8.138884
 10
2.925719
 20
8.140984
 10
2.939022
 20
8.142985
 10
2.952434
 20
8.144885
 10
2.965933
 20
8.146682
 10
2.979500
 20
8.148375
 10
2.993114
 20
8.149963
 10
3.006754
 20
8.151443
 10
3.020400
 20
8.152816
 10
3.034031
 20
8.154078
 10
3.047627
 20
8.155229
 10
3.061168
 20
8.156268
 10
3.074632
 20
8.157192
 10
3.088000
 20
8.158000
 10
3.101334
 20
8.158901
 10
3.114707
 20
8.159723
 10
3.128109
 20
8.160457
 10
3.141531
 20
8.161094
 10
3.154965
 20
8.161625
 10
3.168402
 20
8.162043
 10
3.181833
 20
8.162337
 10
3.195250
 20
8.162500
 10
3.208643
 20
8.162522
 10
3.222004
 20
8.162395
 10
3.235324
 20
8.162109
 10
3.248594
 20
8.161656
 10
3.261805
 20
8.161028
 10
3.274949
 20
8.160215
 10
3.288017
 20
8.159208
 10
3.301000
 20
8.158000
 10
3.313925
 20
8.156749
 10
3.326820
 20
8.155256
 10
3.339681
 20
8.153537
 10
3.352500
 20
8.151609
 10
3.365272
 20
8.149488
 10
3.377992
 20
8.147189
 10
3.390653
 20
8.144730
 10
3.403250
 20
8.142125
 10
3.415776
 20
8.139391
 10
3.428227
 20
8.136545
 10
3.440595
 20
8.133602
 10
3.452875
 20
8.130578
 10
3.465062
 20
8.127490
 10
3.477148
 20
8.124354
 10
3.489130
 20
8.121185
 10
3.501000
 20
8.118000
 10
3.512777
 20
8.114953
 10
3.524484
 20
8.111813
 10
3.536121
 20
8.108578
 10
3.547687
 20
8.105250
 10
3.559184
 20
8.101828
 10
3.570609
 20
8.098313
 10
3.581965
 20
8.094703
 10
3.593250
 20
8.091000
 10
3.604465
 20
8.087203
 10
3.615609
 20
8.083312
 10
3.626684
 20
8.079328
 10
3.637688
 20
8.075250
 10
3.648621
 20
8.071078
 10
3.659484
 20
8.066812
 10
3.670277
 20
8.062453
 10
3.681000
 20
8.058000
 10
3.691454
 20
8.053619
 10
3.701820
 20
8.049107
 10
3.712104
 20
8.044476
 10
3.722313
 20
8.039734
 10
3.732450
 20
8.034893
 10
3.742523
 20
8.029963
 10
3.752538
 20
8.024953
 10
3.762500
 20
8.019875
 10
3.772415
 20
8.014738
 10
3.782289
 20
8.009553
 10
3.792128
 20
8.004329
 10
3.801938
 20
7.999078
 10
3.811724
 20
7.993809
 10
3.821492
 20
7.988533
 10
3.831249
 20
7.983260
 10
3.841000
 20
7.978000
 10
3.850760
 20
7.972936
 10
3.860535
 20
7.967865
 10
3.870316
 20
7.962780
 10
3.880094
 20
7.957672
 10
3.889860
 20
7.952535
 10
3.899605
 20
7.947361
 10
3.909322
 20
7.942144
 10
3.919000
 20
7.936875
 10
3.928631
 20
7.931548
 10
3.938207
 20
7.926154
 10
3.947718
 20
7.920688
 10
3.957156
 20
7.915141
 10
3.966512
 20
7.909506
 10
3.975777
 20
7.903775
 10
3.984943
 20
7.897943
 10
3.994000
 20
7.892000
 10
4.002942
 20
7.885942
 10
4.011773
 20
7.879773
 10
4.020499
 20
7.873499
 10
4.029125
 20
7.867125
 10
4.037657
 20
7.860657
 10
4.046102
 20
7.854102
 10
4.054464
 20
7.847464
 10
4.062750
 20
7.840750
 10
4.070966
 20
7.833966
 10
4.079117
 20
7.827117
 10
4.087210
 20
7.820210
 10
4.095250
 20
7.813250
 10
4.103243
 20
7.806243
 10
4.111195
 20
7.799195
 10
4.119112
 20
7.792112
 10
4.127000
 20
7.785000
 10
4.135027
 20
7.777852
 10
4.142984
 20
7.770656
 10
4.150871
 20
7.763414
 10
4.158688
 20
7.756125
 10
4.166434
 20
7.748789
 10
4.174109
 20
7.741406
 10
4.181715
 20
7.733977
 10
4.189250
 20
7.726500
 10
4.196715
 20
7.718977
 10
4.204109
 20
7.711406
 10
4.211434
 20
7.703789
 10
4.218687
 20
7.696125
 10
4.225871
 20
7.688414
 10
4.232984
 20
7.680656
 10
4.240027
 20
7.672852
 10
4.247000
 20
7.665000
 10
4.254068
 20
7.657068
 10
4.261031
 20
7.649031
 10
4.267900
 20
7.640900
 10
4.274687
 20
7.632687
 10
4.281404
 20
7.624404
 10
4.288062
 20
7.616062
 10
4.294674
 20
7.607674
 10
4.301250
 20
7.599250
 10
4.307803
 20
7.590803
 10
4.314344
 20
7.582344
 10
4.320885
 20
7.573885
 10
4.327437
 20
7.565437
 10
4.334014
 20
7.557014
 10
4.340625
 20
7.548625
 10
4.347283
 20
7.540283
 10
4.354000
 20
7.532000
 10
4.360552
 20
7.523717
 10
4.367088
 20
7.515375
 10
4.373615
 20
7.506986
 10
4.380141
 20
7.498563
 10
4.386672
 20
7.490115
 10
4.393217
 20
7.481656
 10
4.399782
 20
7.473197
 10
4.406375
 20
7.464750
 10
4.413003
 20
7.456326
 10
4.419674
 20
7.447938
 10
4.426394
 20
7.439596
 10
4.433172
 20
7.431313
 10
4.440014
 20
7.423100
 10
4.446928
 20
7.414969
 10
4.453921
 20
7.406932
 10
4.461000
 20
7.399000
 10
4.467972
 20
7.390973
 10
4.475014
 20
7.383016
 10
4.482122
 20
7.375129
 10
4.489297
 20
7.367313
 10
4.496536
 20
7.359566
 10
4.503838
 20
7.351891
 10
4.511201
 20
7.344285
 10
4.518625
 20
7.336750
 10
4.526107
 20
7.329285
 10
4.533646
 20
7.321891
 10
4.541241
 20
7.314566
 10
4.548891
 20
7.307313
 10
4.556593
 20
7.300129
 10
4.564346
 20
7.293016
 10
4.572149
 20
7.285973
 10
4.580000
 20
7.279000
 10
4.588086
 20
7.271921
 10
4.596217
 20
7.264928
 10
4.604392
 20
7.258014
 10
4.612609
 20
7.251172
 10
4.620868
 20
7.244394
 10
4.629166
 20
7.237674
 10
4.637502
 20
7.231003
 10
4.645875
 20
7.224375
 10
4.654283
 20
7.217782
 10
4.662725
 20
7.211217
 10
4.671198
 20
7.204672
 10
4.679703
 20
7.198141
 10
4.688237
 20
7.191615
 10
4.696799
 20
7.185088
 10
4.705387
 20
7.178552
 10
4.714000
 20
7.172000
 10
4.722472
 20
7.165636
 10
4.731008
 20
7.159295
 10
4.739603
 20
7.152974
 10
4.748250
 20
7.146672
 10
4.756944
 20
7.140387
 10
4.765680
 20
7.134119
 10
4.774450
 20
7.127865
 10
4.783250
 20
7.121625
 10
4.792073
 20
7.115396
 10
4.800914
 20
7.109178
 10
4.809767
 20
7.102968
 10
4.818625
 20
7.096766
 10
4.827483
 20
7.090569
 10
4.836336
 20
7.084377
 10
4.845177
 20
7.078188
 10
4.854000
 20
7.072000
 10
4.862647
 20
7.065823
 10
4.871336
 20
7.059664
 10
4.880060
 20
7.053517
 10
4.888813
 20
7.047375
 10
4.897589
 20
7.041233
 10
4.906383
 20
7.035086
 10
4.915188
 20
7.028927
 10
4.924000
 20
7.022750
 10
4.932812
 20
7.016550
 10
4.941617
 20
7.010320
 10
4.950411
 20
7.004056
 10
4.959188
 20
6.997750
 10
4.967940
 20
6.991397
 10
4.976664
 20
6.984992
 10
4.985353
 20
6.978528
 10
4.994000
 20
6.972000
 10
5.002459
 20
6.965624
 10
5.010953
 20
6.959242
 10
5.019471
 20
6.952849
 10
5.028000
 20
6.946437
 10
5.036529
 20
6.940003
 10
5.045047
 20
6.933539
 10
5.053541
 20
6.927040
 10
5.062000
 20
6.920500
 10
5.070412
 20
6.913913
 10
5.078766
 20
6.907273
 10
5.087049
 20
6.900575
 10
5.095250
 20
6.893812
 10
5.103357
 20
6.886979
 10
5.111359
 20
6.880070
 10
5.119244
 20
6.873079
 10
5.127000
 20
6.866000
 10
5.134641
 20
6.858630
 10
5.142191
 20
6.851150
 10
5.149654
 20
6.843568
 10
5.157031
 20
6.835891
 10
5.164327
 20
6.828125
 10
5.171543
 20
6.820279
 10
5.178683
 20
6.812360
 10
5.185750
 20
6.804375
 10
5.192747
 20
6.796331
 10
5.199676
 20
6.788236
 10
5.206541
 20
6.780097
 10
5.213344
 20
6.771922
 10
5.220088
 20
6.763717
 10
5.226777
 20
6.755490
 10
5.233414
 20
6.747249
 10
5.240000
 20
6.739000
 10
5.246726
 20
6.730561
 10
5.253402
 20
6.722115
 10
5.260026
 20
6.713655
 10
5.266594
 20
6.705172
 10
5.273103
 20
6.696660
 10
5.279551
 20
6.688111
 10
5.285934
 20
6.679519
 10
5.292250
 20
6.670875
 10
5.298496
 20
6.662173
 10
5.304668
 20
6.653404
 10
5.310764
 20
6.644563
 10
5.316781
 20
6.635641
 10
5.322716
 20
6.626631
 10
5.328566
 20
6.617525
 10
5.334329
 20
6.608318
 10
5.340000
 20
6.599000
 10
5.345579
 20
6.589579
 10
5.351066
 20
6.580066
 10
5.356466
 20
6.570466
 10
5.361781
 20
6.560781
 10
5.367014
 20
6.551014
 10
5.372168
 20
6.541168
 10
5.377246
 20
6.531246
 10
5.382250
 20
6.521250
 10
5.387184
 20
6.511184
 10
5.392051
 20
6.501051
 10
5.396853
 20
6.490853
 10
5.401594
 20
6.480594
 10
5.406276
 20
6.470276
 10
5.410902
 20
6.459902
 10
5.415476
 20
6.449476
 10
5.420000
 20
6.439000
 10
5.424686
 20
6.428521
 10
5.429359
 20
6.418072
 10
5.434010
 20
6.407638
 10
5.438625
 20
6.397203
 10
5.443193
 20
6.386750
 10
5.447703
 20
6.376264
 10
5.452143
 20
6.365727
 10
5.456500
 20
6.355125
 10
5.460764
 20
6.344441
 10
5.464922
 20
6.333658
 10
5.468963
 20
6.322761
 10
5.472875
 20
6.311734
 10
5.476646
 20
6.300561
 10
5.480266
 20
6.289225
 10
5.483721
 20
6.277710
 10
5.487000
 20
6.266000
 10
5.489919
 20
6.253919
 10
5.492684
 20
6.241684
 10
5.495301
 20
6.229301
 10
5.497781
 20
6.216781
 10
5.500132
 20
6.204132
 10
5.502363
 20
6.191363
 10
5.504483
 20
6.178483
 10
5.506500
 20
6.165500
 10
5.508423
 20
6.152423
 10
5.510262
 20
6.139262
 10
5.512024
 20
6.126024
 10
5.513719
 20
6.112719
 10
5.515355
 20
6.099355
 10
5.516941
 20
6.085941
 10
5.518487
 20
6.072487
 10
5.520000
 20
6.059000
 10
5.521486
 20
6.045410
 10
5.522937
 20
6.031652
 10
5.524342
 20
6.017749
 10
5.525688
 20
6.003719
 10
5.526963
 20
5.989583
 10
5.528156
 20
5.975363
 10
5.529256
 20
5.961079
 10
5.530250
 20
5.946750
 10
5.531127
 20
5.932398
 10
5.531875
 20
5.918043
 10
5.532482
 20
5.903706
 10
5.532938
 20
5.889406
 10
5.533229
 20
5.875166
 10
5.533344
 20
5.861004
 10
5.533271
 20
5.846942
 10
5.533000
 20
5.833000
 10
5.532742
 20
5.818928
 10
5.532346
 20
5.804844
 10
5.531811
 20
5.790760
 10
5.531141
 20
5.776687
 10
5.530335
 20
5.762639
 10
5.529396
 20
5.748625
 10
5.528326
 20
5.734658
 10
5.527125
 20
5.720750
 10
5.525795
 20
5.706912
 10
5.524338
 20
5.693156
 10
5.522755
 20
5.679494
 10
5.521047
 20
5.665937
 10
5.519216
 20
5.652498
 10
5.517264
 20
5.639188
 10
5.515191
 20
5.626018
 10
5.513000
 20
5.613000
 10
5.510901
 20
5.600099
 10
5.508727
 20
5.587273
 10
5.506470
 20
5.574530
 10
5.504125
 20
5.561875
 10
5.501687
 20
5.549313
 10
5.499148
 20
5.536852
 10
5.496505
 20
5.524495
 10
5.493750
 20
5.512250
 10
5.490878
 20
5.500122
 10
5.487883
 20
5.488117
 10
5.484759
 20
5.476241
 10
5.481500
 20
5.464500
 10
5.478101
 20
5.452899
 10
5.474555
 20
5.441445
 10
5.470856
 20
5.430144
 10
5.467000
 20
5.419000
 10
5.462959
 20
5.408216
 10
5.458723
 20
5.397605
 10
5.454304
 20
5.387153
 10
5.449719
 20
5.376844
 10
5.444981
 20
5.366664
 10
5.440105
 20
5.356598
 10
5.435107
 20
5.346631
 10
5.430000
 20
5.336750
 10
5.424799
 20
5.326939
 10
5.419520
 20
5.317184
 10
5.414175
 20
5.307469
 10
5.408781
 20
5.297781
 10
5.403352
 20
5.288105
 10
5.397902
 20
5.278426
 10
5.392447
 20
5.268729
 10
5.387000
 20
5.259000
 10
5.381528
 20
5.249483
 10
5.375990
 20
5.240053
 10
5.370391
 20
5.230701
 10
5.364734
 20
5.221422
 10
5.359025
 20
5.212207
 10
5.353268
 20
5.203049
 10
5.347466
 20
5.193941
 10
5.341625
 20
5.184875
 10
5.335749
 20
5.175844
 10
5.329842
 20
5.166842
 10
5.323908
 20
5.157860
 10
5.317953
 20
5.148891
 10
5.311980
 20
5.139927
 10
5.305994
 20
5.130963
 10
5.299999
 20
5.121990
 10
5.294000
 20
5.113000
 10
5.287790
 20
5.104045
 10
5.281541
 20
5.095172
 10
5.275260
 20
5.086369
 10
5.268953
 20
5.077625
 10
5.262629
 20
5.068928
 10
5.256295
 20
5.060266
 10
5.249958
 20
5.051627
 10
5.243625
 20
5.043000
 10
5.237304
 20
5.034373
 10
5.231002
 20
5.025734
 10
5.224726
 20
5.017072
 10
5.218484
 20
5.008375
 10
5.212283
 20
4.999631
 10
5.206131
 20
4.990828
 10
5.200034
 20
4.981955
 10
5.194000
 20
4.973000
 10
5.187836
 20
4.963988
 10
5.181717
 20
4.954953
 10
5.175642
 20
4.945895
 10
5.169609
 20
4.936813
 10
5.163618
 20
4.927707
 10
5.157666
 20
4.918578
 10
5.151752
 20
4.909426
 10
5.145875
 20
4.900250
 10
5.140033
 20
4.891051
 10
5.134225
 20
4.881828
 10
5.128448
 20
4.872582
 10
5.122703
 20
4.863312
 10
5.116987
 20
4.854020
 10
5.111299
 20
4.844703
 10
5.105637
 20
4.835363
 10
5.100000
 20
4.826000
 10
5.094376
 20
4.816624
 10
5.088758
 20
4.807244
 10
5.083151
 20
4.797855
 10
5.077563
 20
4.788453
 10
5.071997
 20
4.779033
 10
5.066461
 20
4.769592
 10
5.060960
 20
4.760124
 10
5.055500
 20
4.750625
 10
5.050087
 20
4.741091
 10
5.044727
 20
4.731518
 10
5.039425
 20
4.721900
 10
5.034187
 20
4.712234
 10
5.029021
 20
4.702516
 10
5.023930
 20
4.692740
 10
5.018921
 20
4.682903
 10
5.014000
 20
4.673000
 10
5.008994
 20
4.663006
 10
5.004094
 20
4.652904
 10
4.999287
 20
4.642706
 10
4.994563
 20
4.632422
 10
4.989908
 20
4.622061
 10
4.985313
 20
4.611635
 10
4.980764
 20
4.601153
 10
4.976250
 20
4.590625
 10
4.971760
 20
4.580062
 10
4.967281
 20
4.569475
 10
4.962803
 20
4.558872
 10
4.958312
 20
4.548266
 10
4.953799
 20
4.537665
 10
4.949250
 20
4.527080
 10
4.944654
 20
4.516522
 10
4.940000
 20
4.506000
 10
4.935511
 20
4.495665
 10
4.931039
 20
4.485291
 10
4.926579
 20
4.474885
 10
4.922125
 20
4.464453
 10
4.917671
 20
4.454004
 10
4.913211
 20
4.443545
 10
4.908739
 20
4.433083
 10
4.904250
 20
4.422625
 10
4.899737
 20
4.412179
 10
4.895195
 20
4.401752
 10
4.890618
 20
4.391351
 10
4.886000
 20
4.380984
 10
4.881335
 20
4.370658
 10
4.876617
 20
4.360381
 10
4.871841
 20
4.350159
 10
4.867000
 20
4.340000
 10
4.862311
 20
4.329689
 10
4.857615
 20
4.319385
 10
4.852905
 20
4.309095
 10
4.848172
 20
4.298828
 10
4.843410
 20
4.288590
 10
4.838611
 20
4.278389
 10
4.833769
 20
4.268231
 10
4.828875
 20
4.258125
 10
4.823923
 20
4.248077
 10
4.818904
 20
4.238096
 10
4.813813
 20
4.228187
 10
4.808641
 20
4.218359
 10
4.803381
 20
4.208619
 10
4.798025
 20
4.198975
 10
4.792568
 20
4.189432
 10
4.787000
 20
4.180000
 10
4.781340
 20
4.170660
 10
4.775607
 20
4.161393
 10
4.769802
 20
4.152198
 10
4.763922
 20
4.143078
 10
4.757966
 20
4.134034
 10
4.751932
 20
4.125068
 10
4.745819
 20
4.116181
 10
4.739625
 20
4.107375
 10
4.733349
 20
4.098651
 10
4.726990
 20
4.090010
 10
4.720546
 20
4.081454
 10
4.714016
 20
4.072984
 10
4.707397
 20
4.064603
 10
4.700689
 20
4.056311
 10
4.693891
 20
4.048109
 10
4.687000
 20
4.040000
 10
4.680027
 20
4.031973
 10
4.672984
 20
4.024016
 10
4.665871
 20
4.016129
 10
4.658688
 20
4.008313
 10
4.651434
 20
4.000566
 10
4.644109
 20
3.992891
 10
4.636715
 20
3.985285
 10
4.629250
 20
3.977750
 10
4.621715
 20
3.970285
 10
4.614109
 20
3.962891
 10
4.606434
 20
3.955566
 10
4.598688
 20
3.948313
 10
4.590871
 20
3.941129
 10
4.582984
 20
3.934016
 10
4.575027
 20
3.926973
 10
4.567000
 20
3.920000
 10
4.558880
 20
3.913120
 10
4.550648
 20
3.906352
 10
4.542312
 20
3.899688
 10
4.533875
 20
3.893125
 10
4.525345
 20
3.886655
 10
4.516727
 20
3.880273
 10
4.508026
 20
3.873974
 10
4.499250
 20
3.867750
 10
4.490403
 20
3.861597
 10
4.481492
 20
3.855508
 10
4.472522
 20
3.849478
 10
4.463500
 20
3.843500
 10
4.454431
 20
3.837569
 10
4.445320
 20
3.831680
 10
4.436175
 20
3.825825
 10
4.427000
 20
3.820000
 10
4.417679
 20
3.814178
 10
4.408121
 20
3.808346
 10
4.398370
 20
3.802516
 10
4.388469
 20
3.796703
 10
4.378462
 20
3.790919
 10
4.368395
 20
3.785178
 10
4.358309
 20
3.779492
 10
4.348250
 20
3.773875
 10
4.338261
 20
3.768340
 10
4.328387
 20
3.762900
 10
4.318670
 20
3.757569
 10
4.309156
 20
3.752359
 10
4.299888
 20
3.747284
 10
4.290910
 20
3.742357
 10
4.282266
 20
3.737592
 10
4.274000
 20
3.733000
 10
4.266152
 20
3.728757
 10
4.258697
 20
3.724652
 10
4.251586
 20
3.720682
 10
4.244766
 20
3.716844
 10
4.238186
 20
3.713134
 10
4.231795
 20
3.709551
 10
4.225542
 20
3.706090
 10
4.219375
 20
3.702750
 10
4.213243
 20
3.699527
 10
4.207096
 20
3.696418
 10
4.200881
 20
3.693420
 10
4.194547
 20
3.690531
 10
4.188043
 20
3.687748
 10
4.181318
 20
3.685066
 10
4.174321
 20
3.682485
 10
4.167000
 20
3.680000
 10
4.159442
 20
3.677598
 10
4.151770
 20
3.675271
 10
4.143986
 20
3.673024
 10
4.136094
 20
3.670859
 10
4.128096
 20
3.668783
 10
4.119996
 20
3.666799
 10
4.111796
 20
3.664911
 10
4.103500
 20
3.663125
 10
4.095110
 20
3.661444
 10
4.086629
 20
3.659873
 10
4.078060
 20
3.658416
 10
4.069406
 20
3.657078
 10
4.060670
 20
3.655863
 10
4.051855
 20
3.654775
 10
4.042964
 20
3.653820
 10
4.034000
 20
3.653000
  0
LWPOLYLINE
  8
ENGRAVE
 90
1121
 70
1
 10
13.590000
 20
4.413000
 10
13.580667
 20
4.412473
 10
13.571395
 20
4.412016
 10
13.562152
 20
4.411629
 10
13.552906
 20
4.411313
 10
13.543625
 20
4.411066
 10
13.534277
 20
4.410891
 10
13.524830
 20
4.410785
 10
13.515250
 20
4.410750
 10
13.505506
 20
4.410785
 10
13.495566
 20
4.410891
 10
13.485398
 20
4.411066
 10
13.474969
 20
4.411313
 10
13.464247
 20
4.411629
 10
13.453199
 20
4.412016
 10
13.441794
 20
4.412473
 10
13.430000
 20
4.413000
 10
13.417927
 20
4.413609
 10
13.405373
 20
4.414311
 10
13.392394
 20
4.415103
 10
13.379047
 20
4.415984
 10
13.365389
 20
4.416954
 10
13.351479
 20
4.418010
 10
13.337371
 20
4.419151
 10
13.323125
 20
4.420375
 10
13.308797
 20
4.421681
 10
13.294443
 20
4.423068
 10
13.280122
 20
4.424534
 10
13.265891
 20
4.426078
 10
13.251805
 20
4.427698
 10
13.237924
 20
4.429393
 10
13.224303
 20
4.431160
 10
13.211000
 20
4.433000
 10
13.197888
 20
4.434888
 10
13.184811
 20
4.436811
 10
13.171777
 20
4.438777
 10
13.158797
 20
4.440797
 10
13.145882
 20
4.442882
 10
13.133041
 20
4.445041
 10
13.120285
 20
4.447285
 10
13.107625
 20
4.449625
 10
13.095070
 20
4.452070
 10
13.082631
 20
4.454631
 10
13.070318
 20
4.457318
 10
13.058141
 20
4.460141
 10
13.046110
 20
4.463110
 10
13.034236
 20
4.466236
 10
13.022530
 20
4.469530
 10
13.011000
 20
4.473000
 10
12.999654
 20
4.476665
 10
12.988484
 20
4.480525
 10
12.977479
 20
4.484564
 10
12.966625
 20
4.488766
 10
12.955912
 20
4.493114
 10
12.945328
 20
4.497592
 10
12.934861
 20
4.502184
 10
12.924500
 20
4.506875
 10
12.914232
 20
4.511648
 10
12.904047
 20
4.516486
 10
12.893932
 20
4.521375
 10
12.883875
 20
4.526297
 10
12.873865
 20
4.531237
 10
12.863891
 20
4.536178
 10
12.853939
 20
4.541104
 10
12.844000
 20
4.546000
 10
12.834064
 20
4.551075
 10
12.824137
 20
4.556178
 10
12.814227
 20
4.561313
 10
12.804344
 20
4.566484
 10
12.794496
 20
4.571697
 10
12.784691
 20
4.576955
 10
12.774940
 20
4.582263
 10
12.765250
 20
4.587625
 10
12.755630
 20
4.593046
 10
12.746090
 20
4.598529
 10
12.736637
 20
4.604080
 10
12.727281
 20
4.609703
 10
12.718031
 20
4.615402
 10
12.708895
 20
4.621182
 10
12.699881
 20
4.627046
 10
12.691000
 20
4.633000
 10
12.682068
 20
4.639069
 10
12.673266
 20
4.645268
 10
12.664580
 20
4.651587
 10
12.656000
 20
4.658016
 10
12.647514
 20
4.664544
 10
12.639109
 20
4.671162
 10
12.630775
 20
4.677859
 10
12.622500
 20
4.684625
 10
12.614271
 20
4.691449
 10
12.606078
 20
4.698322
 10
12.597908
 20
4.705233
 10
12.589750
 20
4.712172
 10
12.581592
 20
4.719128
 10
12.573422
 20
4.726092
 10
12.565229
 20
4.733052
 10
12.557000
 20
4.740000
 10
12.548949
 20
4.746773
 10
12.540922
 20
4.753592
 10
12.532918
 20
4.760454
 10
12.524938
 20
4.767359
 10
12.516980
 20
4.774305
 10
12.509047
 20
4.781291
 10
12.501137
 20
4.788315
 10
12.493250
 20
4.795375
 10
12.485387
 20
4.802470
 10
12.477547
 20
4.809600
 10
12.469730
 20
4.816761
 10
12.461937
 20
4.823953
 10
12.454168
 20
4.831175
 10
12.446422
 20
4.838424
 10
12.438699
 20
4.845699
 10
12.431000
 20
4.853000
 10
12.423313
 20
4.860313
 10
12.415631
 20
4.867631
 10
12.407957
 20
4.874957
 10
12.400297
 20
4.882297
 10
12.392654
 20
4.889654
 10
12.385033
 20
4.897033
 10
12.377439
 20
4.904439
 10
12.369875
 20
4.911875
 10
12.362346
 20
4.919346
 10
12.354857
 20
4.926857
 10
12.347412
 20
4.934412
 10
12.340016
 20
4.942016
 10
12.332672
 20
4.949672
 10
12.325385
 20
4.957385
 10
12.318159
 20
4.965159
 10
12.311000
 20
4.973000
 10
12.303888
 20
4.980888
 10
12.296805
 20
4.988805
 10
12.289757
 20
4.996757
 10
12.282750
 20
5.004750
 10
12.275790
 20
5.012790
 10
12.268883
 20
5.020883
 10
12.262034
 20
5.029034
 10
12.255250
 20
5.037250
 10
12.248536
 20
5.045536
 10
12.241898
 20
5.053898
 10
12.235343
 20
5.062343
 10
12.228875
 20
5.070875
 10
12.222501
 20
5.079501
 10
12.216227
 20
5.088227
 10
12.210058
 20
5.097058
 10
12.204000
 20
5.106000
 10
12.198035
 20
5.115035
 10
12.192143
 20
5.124141
 10
12.186323
 20
5.133316
 10
12.180578
 20
5.142563
 10
12.174909
 20
5.151879
 10
12.169318
 20
5.161266
 10
12.163806
 20
5.170723
 10
12.158375
 20
5.180250
 10
12.153026
 20
5.189848
 10
12.147760
 20
5.199516
 10
12.142579
 20
5.209254
 10
12.137484
 20
5.219062
 10
12.132478
 20
5.228941
 10
12.127561
 20
5.238891
 10
12.122734
 20
5.248910
 10
12.118000
 20
5.259000
 10
12.113172
 20
5.269348
 10
12.108436
 20
5.279766
 10
12.103790
 20
5.290254
 10
12.099234
 20
5.300812
 10
12.094766
 20
5.311441
 10
12.090385
 20
5.322141
 10
12.086088
 20
5.332910
 10
12.081875
 20
5.343750
 10
12.077744
 20
5.354660
 10
12.073693
 20
5.365641
 10
12.069722
 20
5.376691
 10
12.065828
 20
5.387812
 10
12.062010
 20
5.399004
 10
12.058268
 20
5.410266
 10
12.054598
 20
5.421598
 10
12.051000
 20
5.433000
 10
12.047462
 20
5.444484
 10
12.043977
 20
5.456059
 10
12.040550
 20
5.467721
 10
12.037187
 20
5.479469
 10
12.033896
 20
5.491298
 10
12.030680
 20
5.503207
 10
12.027546
 20
5.515192
 10
12.024500
 20
5.527250
 10
12.021548
 20
5.539378
 10
12.018695
 20
5.551574
 10
12.015948
 20
5.563834
 10
12.013313
 20
5.576156
 10
12.010794
 20
5.588537
 10
12.008398
 20
5.600973
 10
12.006132
 20
5.613461
 10
12.004000
 20
5.626000
 10
12.001963
 20
5.638608
 10
11.999982
 20
5.651301
 10
11.998070
 20
5.664070
 10
11.996234
 20
5.676906
 10
11.994487
 20
5.689801
 10
11.992838
 20
5.702746
 10
11.991297
 20
5.715732
 10
11.989875
 20
5.728750
 10
11.988582
 20
5.741792
 10
11.987428
 20
5.754848
 10
11.986423
 20
5.767910
 10
11.985578
 20
5.780969
 10
11.984903
 20
5.794016
 10
11.984408
 20
5.807043
 10
11.984104
 20
5.820041
 10
11.984000
 20
5.833000
 10
11.984115
 20
5.845772
 10
11.984449
 20
5.858586
 10
11.984989
 20
5.871435
 10
11.985719
 20
5.884313
 10
11.986625
 20
5.897214
 10
11.987691
 20
5.910133
 10
11.988905
 20
5.923063
 10
11.990250
 20
5.936000
 10
11.991712
 20
5.948937
 10
11.993277
 20
5.961867
 10
11.994930
 20
5.974786
 10
11.996656
 20
5.987687
 10
11.998441
 20
6.000565
 10
12.000270
 20
6.013414
 10
12.002127
 20
6.026228
 10
12.004000
 20
6.039000
 10
12.005921
 20
6.051760
 10
12.007934
 20
6.064533
 10
12.010034
 20
6.077309
 10
12.012219
 20
6.090078
 10
12.014486
 20
6.102829
 10
12.016832
 20
6.115553
 10
12.019254
 20
6.128238
 10
12.021750
 20
6.140875
 10
12.024316
 20
6.153453
 10
12.026949
 20
6.165963
 10
12.029647
 20
6.178393
 10
12.032406
 20
6.190734
 10
12.035224
 20
6.202976
 10
12.038098
 20
6.215107
 10
12.041024
 20
6.227119
 10
12.044000
 20
6.239000
 10
12.047245
 20
6.250755
 10
12.050598
 20
6.262402
 10
12.054050
 20
6.273950
 10
12.057594
 20
6.285406
 10
12.061219
 20
6.296781
 10
12.064918
 20
6.308082
 10
12.068681
 20
6.319319
 10
12.072500
 20
6.330500
 10
12.076366
 20
6.341634
 10
12.080270
 20
6.352730
 10
12.084203
 20
6.363797
 10
12.088156
 20
6.374844
 10
12.092122
 20
6.385878
 10
12.096090
 20
6.396910
 10
12.100052
 20
6.407948
 10
12.104000
 20
6.419000
 10
12.107949
 20
6.430062
 10
12.111924
 20
6.441117
 10
12.115925
 20
6.452161
 10
12.119953
 20
6.463188
 10
12.124011
 20
6.474190
 10
12.128100
 20
6.485164
 10
12.132220
 20
6.496103
 10
12.136375
 20
6.507000
 10
12.140565
 20
6.517851
 10
12.144791
 20
6.528648
 10
12.149055
 20
6.539388
 10
12.153359
 20
6.550063
 10
12.157704
 20
6.560667
 10
12.162092
 20
6.571195
 10
12.166523
 20
6.581642
 10
12.171000
 20
6.592000
 10
12.175579
 20
6.602421
 10
12.180303
 20
6.612697
 10
12.185153
 20
6.622847
 10
12.190109
 20
6.632891
 10
12.195154
 20
6.642846
 10
12.200268
 20
6.652732
 10
12.205431
 20
6.662569
 10
12.210625
 20
6.672375
 10
12.215831
 20
6.682169
 10
12.221029
 20
6.691971
 10
12.226201
 20
6.701799
 10
12.231328
 20
6.711672
 10
12.236390
 20
6.721610
 10
12.241369
 20
6.731631
 10
12.246245
 20
6.741755
 10
12.251000
 20
6.752000
 10
12.255488
 20
6.762523
 10
12.259949
 20
6.773094
 10
12.264381
 20
6.783711
 10
12.268781
 20
6.794375
 10
12.273146
 20
6.805086
 10
12.277473
 20
6.815844
 10
12.281758
 20
6.826648
 10
12.286000
 20
6.837500
 10
12.290195
 20
6.848398
 10
12.294340
 20
6.859344
 10
12.298432
 20
6.870336
 10
12.302469
 20
6.881375
 10
12.306447
 20
6.892461
 10
12.310363
 20
6.903594
 10
12.314215
 20
6.914773
 10
12.318000
 20
6.926000
 10
12.321748
 20
6.937076
 10
12.325486
 20
6.948184
 10
12.329204
 20
6.959333
 10
12.332891
 20
6.970531
 10
12.336536
 20
6.981789
 10
12.340131
 20
6.993113
 10
12.343664
 20
7.004514
 10
12.347125
 20
7.016000
 10
12.350504
 20
7.027580
 10
12.353791
 20
7.039262
 10
12.356975
 20
7.051055
 10
12.360047
 20
7.062969
 10
12.362995
 20
7.075011
 10
12.365811
 20
7.087191
 10
12.368482
 20
7.099518
 10
12.371000
 20
7.112000
 10
12.373347
 20
7.124653
 10
12.375523
 20
7.137477
 10
12.377548
 20
7.150452
 10
12.379437
 20
7.163563
 10
12.381210
 20
7.176790
 10
12.382883
 20
7.190117
 10
12.384474
 20
7.203526
 10
12.386000
 20
7.217000
 10
12.387479
 20
7.230521
 10
12.388930
 20
7.244070
 10
12.390368
 20
7.257632
 10
12.391813
 20
7.271187
 10
12.393280
 20
7.284720
 10
12.394789
 20
7.298211
 10
12.396356
 20
7.311644
 10
12.398000
 20
7.325000
 10
12.399522
 20
7.338302
 10
12.401086
 20
7.351586
 10
12.402685
 20
7.364858
 10
12.404312
 20
7.378125
 10
12.405964
 20
7.391392
 10
12.407633
 20
7.404664
 10
12.409313
 20
7.417948
 10
12.411000
 20
7.431250
 10
12.412687
 20
7.444575
 10
12.414367
 20
7.457930
 10
12.416036
 20
7.471319
 10
12.417687
 20
7.484750
 10
12.419315
 20
7.498228
 10
12.420914
 20
7.511758
 10
12.422478
 20
7.525347
 10
12.424000
 20
7.539000
 10
12.425433
 20
7.552567
 10
12.426746
 20
7.566254
 10
12.427959
 20
7.580041
 10
12.429094
 20
7.593906
 10
12.430169
 20
7.607831
 10
12.431207
 20
7.621793
 10
12.432227
 20
7.635773
 10
12.433250
 20
7.649750
 10
12.434296
 20
7.663704
 10
12.435387
 20
7.677613
 10
12.436542
 20
7.691458
 10
12.437781
 20
7.705219
 10
12.439126
 20
7.718874
 10
12.440598
 20
7.732402
 10
12.442215
 20
7.745785
 10
12.444000
 20
7.759000
 10
12.445932
 20
7.772067
 10
12.447975
 20
7.785023
 10
12.450119
 20
7.797874
 10
12.452359
 20
7.810625
 10
12.454687
 20
7.823282
 10
12.457096
 20
7.835852
 10
12.459577
 20
7.848339
 10
12.462125
 20
7.860750
 10
12.464731
 20
7.873091
 10
12.467389
 20
7.885367
 10
12.470090
 20
7.897585
 10
12.472828
 20
7.909750
 10
12.475595
 20
7.921868
 10
12.478385
 20
7.933945
 10
12.481189
 20
7.945987
 10
12.484000
 20
7.958000
 10
12.486979
 20
7.970186
 10
12.489928
 20
7.982359
 10
12.492862
 20
7.994510
 10
12.495797
 20
8.006625
 10
12.498750
 20
8.018693
 10
12.501736
 20
8.030703
 10
12.504773
 20
8.042643
 10
12.507875
 20
8.054500
 10
12.511059
 20
8.066264
 10
12.514342
 20
8.077922
 10
12.517739
 20
8.089463
 10
12.521266
 20
8.100875
 10
12.524939
 20
8.112146
 10
12.528775
 20
8.123266
 10
12.532790
 20
8.134221
 10
12.537000
 20
8.145000
 10
12.541592
 20
8.155573
 10
12.546357
 20
8.165930
 10
12.551284
 20
8.176087
 10
12.556359
 20
8.186063
 10
12.561569
 20
8.195874
 10
12.566900
 20
8.205539
 10
12.572340
 20
8.215075
 10
12.577875
 20
8.224500
 10
12.583492
 20
8.233831
 10
12.589178
 20
8.243086
 10
12.594919
 20
8.252282
 10
12.600703
 20
8.261437
 10
12.606516
 20
8.270569
 10
12.612346
 20
8.279695
 10
12.618178
 20
8.288833
 10
12.624000
 20
8.298000
 10
12.629825
 20
8.307175
 10
12.635680
 20
8.316320
 10
12.641569
 20
8.325431
 10
12.647500
 20
8.334500
 10
12.653478
 20
8.343522
 10
12.659508
 20
8.352492
 10
12.665597
 20
8.361403
 10
12.671750
 20
8.370250
 10
12.677974
 20
8.379026
 10
12.684273
 20
8.387727
 10
12.690655
 20
8.396345
 10
12.697125
 20
8.404875
 10
12.703688
 20
8.413312
 10
12.710352
 20
8.421648
 10
12.717120
 20
8.429880
 10
12.724000
 20
8.438000
 10
12.730995
 20
8.446170
 10
12.738098
 20
8.454189
 10
12.745300
 20
8.462071
 10
12.752594
 20
8.469828
 10
12.759969
 20
8.477474
 10
12.767418
 20
8.485021
 10
12.774931
 20
8.492484
 10
12.782500
 20
8.499875
 10
12.790116
 20
8.507207
 10
12.797770
 20
8.514494
 10
12.805453
 20
8.521749
 10
12.813156
 20
8.528984
 10
12.820872
 20
8.536214
 10
12.828590
 20
8.543451
 10
12.836302
 20
8.550709
 10
12.844000
 20
8.558000
 10
12.851677
 20
8.565323
 10
12.859342
 20
8.572660
 10
12.867003
 20
8.580003
 10
12.874672
 20
8.587344
 10
12.882358
 20
8.594672
 10
12.890072
 20
8.601980
 10
12.897824
 20
8.609259
 10
12.905625
 20
8.616500
 10
12.913484
 20
8.623694
 10
12.921412
 20
8.630832
 10
12.929419
 20
8.637906
 10
12.937516
 20
8.644906
 10
12.945712
 20
8.651825
 10
12.954018
 20
8.658652
 10
12.962444
 20
8.665380
 10
12.971000
 20
8.672000
 10
12.979506
 20
8.678318
 10
12.988143
 20
8.684527
 10
12.996899
 20
8.690637
 10
13.005766
 20
8.696656
 10
13.014732
 20
8.702593
 10
13.023787
 20
8.708457
 10
13.032922
 20
8.714256
 10
13.042125
 20
8.720000
 10
13.051387
 20
8.725697
 10
13.060697
 20
8.731355
 10
13.070046
 20
8.736985
 10
13.079422
 20
8.742594
 10
13.088816
 20
8.748191
 10
13.098217
 20
8.753785
 10
13.107615
 20
8.759385
 10
13.117000
 20
8.765000
 10
13.126387
 20
8.770613
 10
13.135799
 20
8.776201
 10
13.145237
 20
8.781763
 10
13.154703
 20
8.787297
 10
13.164198
 20
8.792802
 10
13.173725
 20
8.798275
 10
13.183283
 20
8.803717
 10
13.192875
 20
8.809125
 10
13.202502
 20
8.814498
 10
13.212166
 20
8.819834
 10
13.221868
 20
8.825132
 10
13.231609
 20
8.830391
 10
13.241392
 20
8.835608
 10
13.251217
 20
8.840783
 10
13.261086
 20
8.845914
 10
13.271000
 20
8.851000
 10
13.280773
 20
8.856227
 10
13.290588
 20
8.861410
 10
13.300441
 20
8.866552
 10
13.310328
 20
8.871656
 10
13.320244
 20
8.876725
 10
13.330186
 20
8.881762
 10
13.340147
 20
8.886769
 10
13.350125
 20
8.891750
 10
13.360115
 20
8.896708
 10
13.370111
 20
8.901645
 10
13.380111
 20
8.906564
 10
13.390109
 20
8.911469
 10
13.400102
 20
8.916362
 10
13.410084
 20
8.921246
 10
13.420052
 20
8.926125
 10
13.430000
 20
8.931000
 10
13.440092
 20
8.936084
 10
13.450123
 20
8.941205
 10
13.460105
 20
8.946352
 10
13.470047
 20
8.951516
 10
13.479960
 20
8.956685
 10
13.489854
 20
8.961850
 10
13.499739
 20
8.967000
 10
13.509625
 20
8.972125
 10
13.519523
 20
8.977215
 10
13.529443
 20
8.982260
 10
13.539396
 20
8.987249
 10
13.549391
 20
8.992172
 10
13.559438
 20
8.997019
 10
13.569549
 20
9.001779
 10
13.579733
 20
9.006443
 10
13.590000
 20
9.011000
 10
13.600523
 20
9.015653
 10
13.611094
 20
9.020236
 10
13.621711
 20
9.024753
 10
13.632375
 20
9.029203
 10
13.643086
 20
9.033589
 10
13.653844
 20
9.037912
 10
13.664648
 20
9.042174
 10
13.675500
 20
9.046375
 10
13.686398
 20
9.050518
 10
13.697344
 20
9.054604
 10
13.708336
 20
9.058634
 10
13.719375
 20
9.062609
 10
13.730461
 20
9.066532
 10
13.741594
 20
9.070404
 10
13.752773
 20
9.074226
 10
13.764000
 20
9.078000
 10
13.775262
 20
9.081759
 10
13.786553
 20
9.085527
 10
13.797875
 20
9.089290
 10
13.809234
 20
9.093031
 10
13.820635
 20
9.096738
 10
13.832080
 20
9.100395
 10
13.843575
 20
9.103987
 10
13.855125
 20
9.107500
 10
13.866733
 20
9.110919
 10
13.878404
 20
9.114230
 10
13.890143
 20
9.117418
 10
13.901953
 20
9.120469
 10
13.913840
 20
9.123367
 10
13.925807
 20
9.126098
 10
13.937859
 20
9.128647
 10
13.950000
 20
9.131000
 10
13.962454
 20
9.133356
 10
13.975055
 20
9.135551
 10
13.987784
 20
9.137587
 10
14.000625
 20
9.139469
 10
14.013560
 20
9.141198
 10
14.026570
 20
9.142777
 10
14.039640
 20
9.144210
 10
14.052750
 20
9.145500
 10
14.065884
 20
9.146649
 10
14.079023
 20
9.147660
 10
14.092151
 20
9.148537
 10
14.105250
 20
9.149281
 10
14.118302
 20
9.149897
 10
14.131289
 20
9.150387
 10
14.144194
 20
9.150753
 10
14.157000
 20
9.151000
 10
14.169727
 20
9.151129
 10
14.182410
 20
9.151139
 10
14.195052
 20
9.151029
 10
14.207656
 20
9.150797
 10
14.220225
 20
9.150442
 10
14.232762
 20
9.149963
 10
14.245269
 20
9.149358
 10
14.257750
 20
9.148625
 10
14.270208
 20
9.147763
 10
14.282645
 20
9.146771
 10
14.295064
 20
9.145648
 10
14.307469
 20
9.144391
 10
14.319862
 20
9.142999
 10
14.332246
 20
9.141471
 10
14.344625
 20
9.139805
 10
14.357000
 20
9.138000
 10
14.369220
 20
9.136044
 10
14.381494
 20
9.133930
 10
14.393806
 20
9.131663
 10
14.406141
 20
9.129250
 10
14.418481
 20
9.126696
 10
14.430811
 20
9.124008
 10
14.443114
 20
9.121190
 10
14.455375
 20
9.118250
 10
14.467577
 20
9.115192
 10
14.479705
 20
9.112023
 10
14.491742
 20
9.108749
 10
14.503672
 20
9.105375
 10
14.515479
 20
9.101907
 10
14.527146
 20
9.098352
 10
14.538659
 20
9.094714
 10
14.550000
 20
9.091000
 10
14.561170
 20
9.087181
 10
14.572188
 20
9.083229
 10
14.583064
 20
9.079150
 10
14.593812
 20
9.074953
 10
14.604443
 20
9.070645
 10
14.614969
 20
9.066232
 10
14.625400
 20
9.061723
 10
14.635750
 20
9.057125
 10
14.646029
 20
9.052445
 10
14.656250
 20
9.047689
 10
14.666424
 20
9.042867
 10
14.676563
 20
9.037984
 10
14.686678
 20
9.033049
 10
14.696781
 20
9.028068
 10
14.706885
 20
9.023050
 10
14.717000
 20
9.018000
 10
14.726925
 20
9.012936
 10
14.736822
 20
9.007863
 10
14.746687
 20
9.002773
 10
14.756516
 20
8.997656
 10
14.766303
 20
8.992504
 10
14.776045
 20
8.987309
 10
14.785737
 20
8.982060
 10
14.795375
 20
8.976750
 10
14.804954
 20
8.971370
 10
14.814471
 20
8.965910
 10
14.823920
 20
8.960363
 10
14.833297
 20
8.954719
 10
14.842598
 20
8.948969
 10
14.851818
 20
8.943105
 10
14.860954
 20
8.937119
 10
14.870000
 20
8.931000
 10
14.878953
 20
8.924965
 10
14.887814
 20
8.918857
 10
14.896585
 20
8.912677
 10
14.905266
 20
8.906422
 10
14.913859
 20
8.900091
 10
14.922365
 20
8.893682
 10
14.930787
 20
8.887194
 10
14.939125
 20
8.880625
 10
14.947381
 20
8.873974
 10
14.955557
 20
8.867240
 10
14.963653
 20
8.860421
 10
14.971672
 20
8.853516
 10
14.979615
 20
8.846522
 10
14.987482
 20
8.839439
 10
14.995277
 20
8.832266
 10
15.003000
 20
8.825000
 10
15.010652
 20
8.817652
 10
15.018232
 20
8.810232
 10
15.025740
 20
8.802740
 10
15.033172
 20
8.795172
 10
15.040528
 20
8.787528
 10
15.047807
 20
8.779807
 10
15.055006
 20
8.772006
 10
15.062125
 20
8.764125
 10
15.069162
 20
8.756162
 10
15.076115
 20
8.748115
 10
15.082984
 20
8.739984
 10
15.089766
 20
8.731766
 10
15.096460
 20
8.723460
 10
15.103064
 20
8.715064
 10
15.109578
 20
8.706578
 10
15.116000
 20
8.698000
 10
15.122505
 20
8.689505
 10
15.128898
 20
8.680898
 10
15.135187
 20
8.672187
 10
15.141375
 20
8.663375
 10
15.147470
 20
8.654470
 10
15.153477
 20
8.645477
 10
15.159401
 20
8.636401
 10
15.165250
 20
8.627250
 10
15.171028
 20
8.618028
 10
15.176742
 20
8.608742
 10
15.182397
 20
8.599397
 10
15.188000
 20
8.590000
 10
15.193556
 20
8.580556
 10
15.199070
 20
8.571070
 10
15.204550
 20
8.561550
 10
15.210000
 20
8.552000
 10
15.215403
 20
8.542238
 10
15.220738
 20
8.532451
 10
15.226009
 20
8.522638
 10
15.231219
 20
8.512797
 10
15.236370
 20
8.502927
 10
15.241465
 20
8.493025
 10
15.246507
 20
8.483092
 10
15.251500
 20
8.473125
 10
15.256446
 20
8.463123
 10
15.261348
 20
8.453084
 10
15.266208
 20
8.443007
 10
15.271031
 20
8.432891
 10
15.275819
 20
8.422733
 10
15.280574
 20
8.412533
 10
15.285300
 20
8.402289
 10
15.290000
 20
8.392000
 10
15.294477
 20
8.381477
 10
15.298906
 20
8.370906
 10
15.303289
 20
8.360289
 10
15.307625
 20
8.349625
 10
15.311914
 20
8.338914
 10
15.316156
 20
8.328156
 10
15.320352
 20
8.317352
 10
15.324500
 20
8.306500
 10
15.328602
 20
8.295602
 10
15.332656
 20
8.284656
 10
15.336664
 20
8.273664
 10
15.340625
 20
8.262625
 10
15.344539
 20
8.251539
 10
15.348406
 20
8.240406
 10
15.352227
 20
8.229227
 10
15.356000
 20
8.218000
 10
15.359727
 20
8.206727
 10
15.363406
 20
8.195406
 10
15.367039
 20
8.184039
 10
15.370625
 20
8.172625
 10
15.374164
 20
8.161164
 10
15.377656
 20
8.149656
 10
15.381102
 20
8.138102
 10
15.384500
 20
8.126500
 10
15.387852
 20
8.114852
 10
15.391156
 20
8.103156
 10
15.394414
 20
8.091414
 10
15.397625
 20
8.079625
 10
15.400789
 20
8.067789
 10
15.403906
 20
8.055906
 10
15.406977
 20
8.043977
 10
15.410000
 20
8.032000
 10
15.412811
 20
8.019789
 10
15.415615
 20
8.007533
 10
15.418405
 20
7.995233
 10
15.421172
 20
7.982891
 10
15.423910
 20
7.970507
 10
15.426611
 20
7.958084
 10
15.429269
 20
7.945623
 10
15.431875
 20
7.933125
 10
15.434423
 20
7.920592
 10
15.436904
 20
7.908025
 10
15.439313
 20
7.895427
 10
15.441641
 20
7.882797
 10
15.443881
 20
7.870138
 10
15.446025
 20
7.857451
 10
15.448068
 20
7.844738
 10
15.450000
 20
7.832000
 10
15.451829
 20
7.819238
 10
15.453566
 20
7.806453
 10
15.455216
 20
7.793645
 10
15.456781
 20
7.780812
 10
15.458264
 20
7.767957
 10
15.459668
 20
7.755078
 10
15.460996
 20
7.742176
 10
15.462250
 20
7.729250
 10
15.463434
 20
7.716301
 10
15.464551
 20
7.703328
 10
15.465603
 20
7.690332
 10
15.466594
 20
7.677312
 10
15.467526
 20
7.664270
 10
15.468402
 20
7.651203
 10
15.469226
 20
7.638113
 10
15.470000
 20
7.625000
 10
15.470538
 20
7.611852
 10
15.471025
 20
7.598662
 10
15.471457
 20
7.585434
 10
15.471828
 20
7.572172
 10
15.472135
 20
7.558881
 10
15.472373
 20
7.545564
 10
15.472538
 20
7.532228
 10
15.472625
 20
7.518875
 10
15.472630
 20
7.505510
 10
15.472549
 20
7.492139
 10
15.472377
 20
7.478764
 10
15.472109
 20
7.465391
 10
15.471742
 20
7.452023
 10
15.471271
 20
7.438666
 10
15.470692
 20
7.425323
 10
15.470000
 20
7.412000
 10
15.468983
 20
7.398677
 10
15.467814
 20
7.385334
 10
15.466509
 20
7.371977
 10
15.465078
 20
7.358609
 10
15.463536
 20
7.345236
 10
15.461896
 20
7.331861
 10
15.460172
 20
7.318490
 10
15.458375
 20
7.305125
 10
15.456520
 20
7.291772
 10
15.454619
 20
7.278436
 10
15.452686
 20
7.265119
 10
15.450734
 20
7.251828
 10
15.448777
 20
7.238566
 10
15.446826
 20
7.225338
 10
15.444896
 20
7.212148
 10
15.443000
 20
7.199000
 10
15.441113
 20
7.185887
 10
15.439203
 20
7.172797
 10
15.437270
 20
7.159730
 10
15.435313
 20
7.146687
 10
15.433332
 20
7.133668
 10
15.431328
 20
7.120672
 10
15.429301
 20
7.107699
 10
15.427250
 20
7.094750
 10
15.425176
 20
7.081824
 10
15.423078
 20
7.068922
 10
15.420957
 20
7.056043
 10
15.418813
 20
7.043188
 10
15.416645
 20
7.030355
 10
15.414453
 20
7.017547
 10
15.412238
 20
7.004762
 10
15.410000
 20
6.992000
 10
15.407573
 20
6.979262
 10
15.405164
 20
6.966549
 10
15.402767
 20
6.953862
 10
15.400375
 20
6.941203
 10
15.397983
 20
6.928573
 10
15.395586
 20
6.915975
 10
15.393177
 20
6.903408
 10
15.390750
 20
6.890875
 10
15.388300
 20
6.878377
 10
15.385820
 20
6.865916
 10
15.383306
 20
6.853493
 10
15.380750
 20
6.841109
 10
15.378147
 20
6.828767
 10
15.375492
 20
6.816467
 10
15.372778
 20
6.804211
 10
15.370000
 20
6.792000
 10
15.366966
 20
6.780034
 10
15.363865
 20
6.768135
 10
15.360703
 20
6.756297
 10
15.357484
 20
6.744516
 10
15.354213
 20
6.732787
 10
15.350893
 20
6.721107
 10
15.347529
 20
6.709471
 10
15.344125
 20
6.697875
 10
15.340686
 20
6.686314
 10
15.337217
 20
6.674783
 10
15.333721
 20
6.663279
 10
15.330203
 20
6.651797
 10
15.326668
 20
6.640332
 10
15.323119
 20
6.628881
 10
15.319562
 20
6.617438
 10
15.316000
 20
6.606000
 10
15.312602
 20
6.594574
 10
15.309156
 20
6.583172
 10
15.305664
 20
6.571793
 10
15.302125
 20
6.560438
 10
15.298539
 20
6.549105
 10
15.294906
 20
6.537797
 10
15.291227
 20
6.526512
 10
15.287500
 20
6.515250
 10
15.283727
 20
6.504012
 10
15.279906
 20
6.492797
 10
15.276039
 20
6.481605
 10
15.272125
 20
6.470437
 10
15.268164
 20
6.459293
 10
15.264156
 20
6.448172
 10
15.260102
 20
6.437074
 10
15.256000
 20
6.426000
 10
15.252029
 20
6.414971
 10
15.247996
 20
6.404004
 10
15.243911
 20
6.393089
 10
15.239781
 20
6.382219
 10
15.235617
 20
6.371383
 10
15.231426
 20
6.360574
 10
15.227217
 20
6.349783
 10
15.223000
 20
6.339000
 10
15.218783
 20
6.328217
 10
15.214574
 20
6.317426
 10
15.210383
 20
6.306617
 10
15.206219
 20
6.295781
 10
15.202089
 20
6.284911
 10
15.198004
 20
6.273996
 10
15.193971
 20
6.263029
 10
15.190000
 20
6.252000
 10
15.186096
 20
6.241069
 10
15.182254
 20
6.230035
 10
15.178464
 20
6.218914
 10
15.174719
 20
6.207719
 10
15.171008
 20
6.196465
 10
15.167324
 20
6.185168
 10
15.163658
 20
6.173841
 10
15.160000
 20
6.162500
 10
15.156342
 20
6.151159
 10
15.152676
 20
6.139832
 10
15.148992
 20
6.128535
 10
15.145281
 20
6.117281
 10
15.141536
 20
6.106086
 10
15.137746
 20
6.094965
 10
15.133904
 20
6.083931
 10
15.130000
 20
6.073000
 10
15.126029
 20
6.061960
 10
15.121994
 20
6.050963
 10
15.117904
 20
6.040004
 10
15.113766
 20
6.029078
 10
15.109586
 20
6.018182
 10
15.105373
 20
6.007311
 10
15.101134
 20
5.996460
 10
15.096875
 20
5.985625
 10
15.092605
 20
5.974802
 10
15.088330
 20
5.963986
 10
15.084058
 20
5.953174
 10
15.079797
 20
5.942359
 10
15.075553
 20
5.931539
 10
15.071334
 20
5.920709
 10
15.067147
 20
5.909864
 10
15.063000
 20
5.899000
 10
15.058897
 20
5.888114
 10
15.054832
 20
5.877211
 10
15.050796
 20
5.866296
 10
15.046781
 20
5.855375
 10
15.042778
 20
5.844454
 10
15.038777
 20
5.833539
 10
15.034771
 20
5.822636
 10
15.030750
 20
5.811750
 10
15.026706
 20
5.800888
 10
15.022629
 20
5.790055
 10
15.018511
 20
5.779257
 10
15.014344
 20
5.768500
 10
15.010118
 20
5.757790
 10
15.005824
 20
5.747133
 10
15.001455
 20
5.736534
 10
14.997000
 20
5.726000
 10
14.992267
 20
5.715557
 10
14.987451
 20
5.705221
 10
14.982562
 20
5.694981
 10
14.977609
 20
5.684828
 10
14.972604
 20
5.674751
 10
14.967557
 20
5.664740
 10
14.962477
 20
5.654785
 10
14.957375
 20
5.644875
 10
14.952261
 20
5.635000
 10
14.947146
 20
5.625150
 10
14.942040
 20
5.615315
 10
14.936953
 20
5.605484
 10
14.931895
 20
5.595648
 10
14.926877
 20
5.585795
 10
14.921908
 20
5.575916
 10
14.917000
 20
5.566000
 10
14.911960
 20
5.556029
 10
14.906959
 20
5.546000
 10
14.901990
 20
5.535924
 10
14.897047
 20
5.525813
 10
14.892121
 20
5.515678
 10
14.887205
 20
5.505531
 10
14.882292
 20
5.495385
 10
14.877375
 20
5.485250
 10
14.872446
 20
5.475139
 10
14.867498
 20
5.465063
 10
14.862524
 20
5.455033
 10
14.857516
 20
5.445062
 10
14.852467
 20
5.435162
 10
14.847369
 20
5.425344
 10
14.842216
 20
5.415619
 10
14.837000
 20
5.406000
 10
14.831528
 20
5.396472
 10
14.825988
 20
5.387010
 10
14.820384
 20
5.377609
 10
14.814719
 20
5.368266
 10
14.808995
 20
5.358975
 10
14.803215
 20
5.349732
 10
14.797382
 20
5.340534
 10
14.791500
 20
5.331375
 10
14.785571
 20
5.322251
 10
14.779598
 20
5.313158
 10
14.773583
 20
5.304092
 10
14.767531
 20
5.295047
 10
14.761444
 20
5.286020
 10
14.755324
 20
5.277006
 10
14.749175
 20
5.268001
 10
14.743000
 20
5.259000
 10
14.736988
 20
5.250188
 10
14.730951
 20
5.241379
 10
14.724888
 20
5.232576
 10
14.718797
 20
5.223781
 10
14.712677
 20
5.214999
 10
14.706525
 20
5.206230
 10
14.700342
 20
5.197480
 10
14.694125
 20
5.188750
 10
14.687873
 20
5.180043
 10
14.681584
 20
5.171363
 10
14.675257
 20
5.162712
 10
14.668891
 20
5.154094
 10
14.662483
 20
5.145510
 10
14.656033
 20
5.136965
 10
14.649539
 20
5.128460
 10
14.643000
 20
5.120000
 10
14.636613
 20
5.111376
 10
14.630201
 20
5.102758
 10
14.623763
 20
5.094151
 10
14.617297
 20
5.085562
 10
14.610802
 20
5.076997
 10
14.604275
 20
5.068461
 10
14.597717
 20
5.059960
 10
14.591125
 20
5.051500
 10
14.584498
 20
5.043087
 10
14.577834
 20
5.034727
 10
14.571132
 20
5.026425
 10
14.564391
 20
5.018187
 10
14.557608
 20
5.010021
 10
14.550783
 20
5.001930
 10
14.543914
 20
4.993921
 10
14.537000
 20
4.986000
 10
14.529830
 20
4.978170
 10
14.522574
 20
4.970426
 10
14.515243
 20
4.962757
 10
14.507844
 20
4.955156
 10
14.500386
 20
4.947614
 10
14.492879
 20
4.940121
 10
14.485331
 20
4.932669
 10
14.477750
 20
4.925250
 10
14.470146
 20
4.917854
 10
14.462527
 20
4.910473
 10
14.454903
 20
4.903097
 10
14.447281
 20
4.895719
 10
14.439671
 20
4.888329
 10
14.432082
 20
4.880918
 10
14.424522
 20
4.873478
 10
14.417000
 20
4.866000
 10
14.409533
 20
4.858467
 10
14.402123
 20
4.850877
 10
14.394757
 20
4.843243
 10
14.387422
 20
4.835578
 10
14.380104
 20
4.827896
 10
14.372791
 20
4.820209
 10
14.365469
 20
4.812531
 10
14.358125
 20
4.804875
 10
14.350746
 20
4.797254
 10
14.343318
 20
4.789682
 10
14.335829
 20
4.782171
 10
14.328266
 20
4.774734
 10
14.320614
 20
4.767386
 10
14.312861
 20
4.760139
 10
14.304994
 20
4.753006
 10
14.297000
 20
4.746000
 10
14.288704
 20
4.739307
 10
14.280320
 20
4.732721
 10
14.271854
 20
4.726231
 10
14.263313
 20
4.719828
 10
14.254700
 20
4.713501
 10
14.246023
 20
4.707240
 10
14.237288
 20
4.701035
 10
14.228500
 20
4.694875
 10
14.219665
 20
4.688750
 10
14.210789
 20
4.682650
 10
14.201878
 20
4.676565
 10
14.192937
 20
4.670484
 10
14.183974
 20
4.664398
 10
14.174992
 20
4.658295
 10
14.165999
 20
4.652166
 10
14.157000
 20
4.646000
 10
14.148010
 20
4.639990
 10
14.139035
 20
4.633965
 10
14.130066
 20
4.627934
 10
14.121094
 20
4.621906
 10
14.112110
 20
4.615890
 10
14.103105
 20
4.609895
 10
14.094072
 20
4.603928
 10
14.085000
 20
4.598000
 10
14.075881
 20
4.592119
 10
14.066707
 20
4.586293
 10
14.057468
 20
4.580532
 10
14.048156
 20
4.574844
 10
14.038762
 20
4.569238
 10
14.029277
 20
4.563723
 10
14.019693
 20
4.558307
 10
14.010000
 20
4.553000
 10
14.000072
 20
4.547786
 10
13.989824
 20
4.542645
 10
13.979313
 20
4.537580
 10
13.968594
 20
4.532594
 10
13.957722
 20
4.527690
 10
13.946754
 20
4.522871
 10
13.935745
 20
4.518140
 10
13.924750
 20
4.513500
 10
13.913826
 20
4.508954
 10
13.903027
 20
4.504504
 10
13.892411
 20
4.500154
 10
13.882031
 20
4.495906
 10
13.871945
 20
4.491764
 10
13.862207
 20
4.487730
 10
13.852874
 20
4.483808
 10
13.844000
 20
4.480000
 10
13.835447
 20
4.476297
 10
13.827371
 20
4.472689
 10
13.819711
 20
4.469178
 10
13.812406
 20
4.465766
 10
13.805394
 20
4.462452
 10
13.798613
 20
4.459240
 10
13.792002
 20
4.456131
 10
13.785500
 20
4.453125
 10
13.779044
 20
4.450225
 10
13.772574
 20
4.447432
 10
13.766028
 20
4.444747
 10
13.759344
 20
4.442172
 10
13.752460
 20
4.439708
 10
13.745316
 20
4.437357
 10
13.737850
 20
4.435121
 10
13.730000
 20
4.433000
 10
13.722056
 20
4.430996
 10
13.713977
 20
4.429105
 10
13.705769
 20
4.427327
 10
13.697438
 20
4.425656
 10
13.688989
 20
4.424091
 10
13.680430
 20
4.422629
 10
13.671765
 20
4.421266
 10
13.663000
 20
4.420000
 10
13.654142
 20
4.418828
 10
13.645195
 20
4.417746
 10
13.636167
 20
4.416752
 10
13.627063
 20
4.415844
 10
13.617888
 20
4.415017
 10
13.608648
 20
4.414270
 10
13.599351
 20
4.413598
 10
13.590000
 20
4.413000
  0
LWPOLYLINE
  8
ENGRAVE
 90
1089
 70
1
 10
13.031000
 20
10.611000
 10
13.022098
 20
10.610904
 10
13.013363
 20
10.610984
 10
13.004751
 20
10.611229
 10
12.996219
 20
10.611625
 10
12.987721
 20
10.612162
 10
12.979215
 20
10.612828
 10
12.970656
 20
10.613611
 10
12.962000
 20
10.614500
 10
12.953204
 20
10.615482
 10
12.944223
 20
10.616547
 10
12.935013
 20
10.617682
 10
12.925531
 20
10.618875
 10
12.915733
 20
10.620115
 10
12.905574
 20
10.621391
 10
12.895011
 20
10.622689
 10
12.884000
 20
10.624000
 10
12.872456
 20
10.625325
 10
12.860369
 20
10.626678
 10
12.847804
 20
10.628063
 10
12.834828
 20
10.629484
 10
12.821506
 20
10.630947
 10
12.807904
 20
10.632455
 10
12.794089
 20
10.634013
 10
12.780125
 20
10.635625
 10
12.766079
 20
10.637296
 10
12.752018
 20
10.639029
 10
12.738006
 20
10.640830
 10
12.724109
 20
10.642703
 10
12.710395
 20
10.644652
 10
12.696928
 20
10.646682
 10
12.683774
 20
10.648796
 10
12.671000
 20
10.651000
 10
12.658296
 20
10.653296
 10
12.645684
 20
10.655684
 10
12.633159
 20
10.658159
 10
12.620719
 20
10.660719
 10
12.608361
 20
10.663361
 10
12.596082
 20
10.666082
 10
12.583879
 20
10.668879
 10
12.571750
 20
10.671750
 10
12.559691
 20
10.674691
 10
12.547699
 20
10.677699
 10
12.535772
 20
10.680772
 10
12.523906
 20
10.683906
 10
12.512099
 20
10.687099
 10
12.500348
 20
10.690348
 10
12.488649
 20
10.693649
 10
12.477000
 20
10.697000
 10
12.465620
 20
10.700620
 10
12.454350
 20
10.704350
 10
12.443182
 20
10.708182
 10
12.432109
 20
10.712109
 10
12.421125
 20
10.716125
 10
12.410221
 20
10.720221
 10
12.399390
 20
10.724390
 10
12.388625
 20
10.728625
 10
12.377919
 20
10.732919
 10
12.367264
 20
10.737264
 10
12.356653
 20
10.741653
 10
12.346078
 20
10.746078
 10
12.335533
 20
10.750533
 10
12.325010
 20
10.755010
 10
12.314501
 20
10.759501
 10
12.304000
 20
10.764000
 10
12.293700
 20
10.768535
 10
12.283426
 20
10.773139
 10
12.273181
 20
10.777810
 10
12.262969
 20
10.782547
 10
12.252792
 20
10.787348
 10
12.242652
 20
10.792213
 10
12.232554
 20
10.797139
 10
12.222500
 20
10.802125
 10
12.212493
 20
10.807170
 10
12.202535
 20
10.812271
 10
12.192630
 20
10.817429
 10
12.182781
 20
10.822641
 10
12.172991
 20
10.827905
 10
12.163262
 20
10.833221
 10
12.153597
 20
10.838586
 10
12.144000
 20
10.844000
 10
12.134494
 20
10.849483
 10
12.125094
 20
10.855051
 10
12.115787
 20
10.860695
 10
12.106563
 20
10.866406
 10
12.097408
 20
10.872176
 10
12.088313
 20
10.877996
 10
12.079264
 20
10.883857
 10
12.070250
 20
10.889750
 10
12.061260
 20
10.895667
 10
12.052281
 20
10.901598
 10
12.043303
 20
10.907535
 10
12.034312
 20
10.913469
 10
12.025299
 20
10.919391
 10
12.016250
 20
10.925293
 10
12.007154
 20
10.931166
 10
11.998000
 20
10.937000
 10
11.988812
 20
10.942824
 10
11.979625
 20
10.948668
 10
11.970438
 20
10.954530
 10
11.961250
 20
10.960406
 10
11.952063
 20
10.966294
 10
11.942875
 20
10.972191
 10
11.933687
 20
10.978094
 10
11.924500
 20
10.984000
 10
11.915313
 20
10.989906
 10
11.906125
 20
10.995809
 10
11.896937
 20
11.001706
 10
11.887750
 20
11.007594
 10
11.878563
 20
11.013470
 10
11.869375
 20
11.019332
 10
11.860188
 20
11.025176
 10
11.851000
 20
11.031000
 10
11.841845
 20
11.036834
 10
11.832748
 20
11.042707
 10
11.823695
 20
11.048609
 10
11.814672
 20
11.054531
 10
11.805667
 20
11.060465
 10
11.796666
 20
11.066402
 10
11.787656
 20
11.072333
 10
11.778625
 20
11.078250
 10
11.769558
 20
11.084143
 10
11.760443
 20
11.090004
 10
11.751267
 20
11.095824
 10
11.742016
 20
11.101594
 10
11.732677
 20
11.107305
 10
11.723236
 20
11.112949
 10
11.713682
 20
11.118517
 10
11.704000
 20
11.124000
 10
11.694414
 20
11.129403
 10
11.684781
 20
11.134738
 10
11.675102
 20
11.140009
 10
11.665375
 20
11.145219
 10
11.655602
 20
11.150370
 10
11.645781
 20
11.155465
 10
11.635914
 20
11.160507
 10
11.626000
 20
11.165500
 10
11.616039
 20
11.170446
 10
11.606031
 20
11.175348
 10
11.595977
 20
11.180208
 10
11.585875
 20
11.185031
 10
11.575727
 20
11.189819
 10
11.565531
 20
11.194574
 10
11.555289
 20
11.199300
 10
11.545000
 20
11.204000
 10
11.534477
 20
11.208488
 10
11.523906
 20
11.212949
 10
11.513289
 20
11.217381
 10
11.502625
 20
11.221781
 10
11.491914
 20
11.226146
 10
11.481156
 20
11.230473
 10
11.470352
 20
11.234758
 10
11.459500
 20
11.239000
 10
11.448602
 20
11.243195
 10
11.437656
 20
11.247340
 10
11.426664
 20
11.251432
 10
11.415625
 20
11.255469
 10
11.404539
 20
11.259447
 10
11.393406
 20
11.263363
 10
11.382227
 20
11.267215
 10
11.371000
 20
11.271000
 10
11.359705
 20
11.274693
 10
11.348324
 20
11.278281
 10
11.336868
 20
11.281775
 10
11.325344
 20
11.285187
 10
11.313761
 20
11.288529
 10
11.302129
 20
11.291813
 10
11.290456
 20
11.295049
 10
11.278750
 20
11.298250
 10
11.267021
 20
11.301428
 10
11.255277
 20
11.304594
 10
11.243528
 20
11.307760
 10
11.231781
 20
11.310937
 10
11.220046
 20
11.314139
 10
11.208332
 20
11.317375
 10
11.196647
 20
11.320658
 10
11.185000
 20
11.324000
 10
11.173188
 20
11.327353
 10
11.161379
 20
11.330666
 10
11.149576
 20
11.333947
 10
11.137781
 20
11.337203
 10
11.125999
 20
11.340442
 10
11.114230
 20
11.343670
 10
11.102480
 20
11.346895
 10
11.090750
 20
11.350125
 10
11.079043
 20
11.353366
 10
11.067363
 20
11.356627
 10
11.055712
 20
11.359914
 10
11.044094
 20
11.363234
 10
11.032510
 20
11.366596
 10
11.020965
 20
11.370006
 10
11.009460
 20
11.373471
 10
10.998000
 20
11.377000
 10
10.986552
 20
11.380552
 10
10.975090
 20
11.384090
 10
10.963622
 20
11.387622
 10
10.952156
 20
11.391156
 10
10.940703
 20
11.394703
 10
10.929270
 20
11.398270
 10
10.917866
 20
11.401866
 10
10.906500
 20
11.405500
 10
10.895181
 20
11.409181
 10
10.883918
 20
11.412918
 10
10.872719
 20
11.416719
 10
10.861594
 20
11.420594
 10
10.850550
 20
11.424550
 10
10.839598
 20
11.428598
 10
10.828745
 20
11.432745
 10
10.818000
 20
11.437000
 10
10.807370
 20
11.441370
 10
10.796852
 20
11.445852
 10
10.786438
 20
11.450438
 10
10.776125
 20
11.455125
 10
10.765905
 20
11.459905
 10
10.755773
 20
11.464773
 10
10.745724
 20
11.469724
 10
10.735750
 20
11.474750
 10
10.725847
 20
11.479847
 10
10.716008
 20
11.485008
 10
10.706228
 20
11.490228
 10
10.696500
 20
11.495500
 10
10.686819
 20
11.500819
 10
10.677180
 20
11.506180
 10
10.667575
 20
11.511575
 10
10.658000
 20
11.517000
 10
10.648461
 20
11.522461
 10
10.638971
 20
11.527969
 10
10.629530
 20
11.533523
 10
10.620141
 20
11.539125
 10
10.610804
 20
11.544773
 10
10.601521
 20
11.550469
 10
10.592295
 20
11.556211
 10
10.583125
 20
11.562000
 10
10.574014
 20
11.567836
 10
10.564963
 20
11.573719
 10
10.555973
 20
11.579648
 10
10.547047
 20
11.585625
 10
10.538185
 20
11.591648
 10
10.529389
 20
11.597719
 10
10.520660
 20
11.603836
 10
10.512000
 20
11.610000
 10
10.503211
 20
11.616387
 10
10.494471
 20
11.622801
 10
10.485780
 20
11.629244
 10
10.477141
 20
11.635719
 10
10.468554
 20
11.642229
 10
10.460021
 20
11.648777
 10
10.451545
 20
11.655367
 10
10.443125
 20
11.662000
 10
10.434764
 20
11.668680
 10
10.426463
 20
11.675410
 10
10.418223
 20
11.682193
 10
10.410047
 20
11.689031
 10
10.401935
 20
11.695928
 10
10.393889
 20
11.702887
 10
10.385910
 20
11.709910
 10
10.378000
 20
11.717000
 10
10.370148
 20
11.724148
 10
10.362344
 20
11.731344
 10
10.354586
 20
11.738586
 10
10.346875
 20
11.745875
 10
10.339211
 20
11.753211
 10
10.331594
 20
11.760594
 10
10.324023
 20
11.768023
 10
10.316500
 20
11.775500
 10
10.309023
 20
11.783023
 10
10.301594
 20
11.790594
 10
10.294211
 20
11.798211
 10
10.286875
 20
11.805875
 10
10.279586
 20
11.813586
 10
10.272344
 20
11.821344
 10
10.265148
 20
11.829148
 10
10.258000
 20
11.837000
 10
10.251064
 20
11.844888
 10
10.244135
 20
11.852805
 10
10.237220
 20
11.860757
 10
10.230328
 20
11.868750
 10
10.223465
 20
11.876790
 10
10.216639
 20
11.884883
 10
10.209856
 20
11.893034
 10
10.203125
 20
11.901250
 10
10.196452
 20
11.909536
 10
10.189846
 20
11.917898
 10
10.183312
 20
11.926343
 10
10.176859
 20
11.934875
 10
10.170494
 20
11.943501
 10
10.164225
 20
11.952227
 10
10.158057
 20
11.961058
 10
10.152000
 20
11.970000
 10
10.145881
 20
11.979046
 10
10.139895
 20
11.988184
 10
10.134031
 20
11.997409
 10
10.128281
 20
12.006719
 10
10.122637
 20
12.016111
 10
10.117090
 20
12.025582
 10
10.111630
 20
12.035129
 10
10.106250
 20
12.044750
 10
10.100940
 20
12.054441
 10
10.095691
 20
12.064199
 10
10.090496
 20
12.074022
 10
10.085344
 20
12.083906
 10
10.080227
 20
12.093849
 10
10.075137
 20
12.103848
 10
10.070064
 20
12.113899
 10
10.065000
 20
12.124000
 10
10.059939
 20
12.133928
 10
10.054891
 20
12.143848
 10
10.049865
 20
12.153773
 10
10.044875
 20
12.163719
 10
10.039932
 20
12.173700
 10
10.035047
 20
12.183730
 10
10.030232
 20
12.193826
 10
10.025500
 20
12.204000
 10
10.020861
 20
12.214268
 10
10.016328
 20
12.224645
 10
10.011912
 20
12.235144
 10
10.007625
 20
12.245781
 10
10.003479
 20
12.256571
 10
9.999484
 20
12.267527
 10
9.995654
 20
12.278666
 10
9.992000
 20
12.290000
 10
9.988530
 20
12.301530
 10
9.985236
 20
12.313236
 10
9.982110
 20
12.325110
 10
9.979141
 20
12.337141
 10
9.976318
 20
12.349318
 10
9.973631
 20
12.361631
 10
9.971070
 20
12.374070
 10
9.968625
 20
12.386625
 10
9.966285
 20
12.399285
 10
9.964041
 20
12.412041
 10
9.961882
 20
12.424882
 10
9.959797
 20
12.437797
 10
9.957777
 20
12.450777
 10
9.955811
 20
12.463811
 10
9.953888
 20
12.476888
 10
9.952000
 20
12.490000
 10
9.950127
 20
12.503204
 10
9.948270
 20
12.516557
 10
9.946441
 20
12.530041
 10
9.944656
 20
12.543641
 10
9.942930
 20
12.557340
 10
9.941277
 20
12.571123
 10
9.939712
 20
12.584973
 10
9.938250
 20
12.598875
 10
9.936905
 20
12.612812
 10
9.935691
 20
12.626768
 10
9.934625
 20
12.640726
 10
9.933719
 20
12.654672
 10
9.932989
 20
12.668588
 10
9.932449
 20
12.682459
 10
9.932115
 20
12.696268
 10
9.932000
 20
12.710000
 10
9.932104
 20
12.723743
 10
9.932408
 20
12.737582
 10
9.932903
 20
12.751498
 10
9.933578
 20
12.765469
 10
9.934423
 20
12.779475
 10
9.935428
 20
12.793496
 10
9.936582
 20
12.807511
 10
9.937875
 20
12.821500
 10
9.939297
 20
12.835442
 10
9.940838
 20
12.849316
 10
9.942487
 20
12.863103
 10
9.944234
 20
12.876781
 10
9.946070
 20
12.890331
 10
9.947982
 20
12.903730
 10
9.949963
 20
12.916960
 10
9.952000
 20
12.930000
 10
9.954099
 20
12.942890
 10
9.956273
 20
12.955684
 10
9.958530
 20
12.968377
 10
9.960875
 20
12.980969
 10
9.963313
 20
12.993455
 10
9.965852
 20
13.005832
 10
9.968495
 20
13.018098
 10
9.971250
 20
13.030250
 10
9.974122
 20
13.042285
 10
9.977117
 20
13.054199
 10
9.980241
 20
13.065991
 10
9.983500
 20
13.077656
 10
9.986899
 20
13.089193
 10
9.990445
 20
13.100598
 10
9.994144
 20
13.111868
 10
9.998000
 20
13.123000
 10
10.002216
 20
13.133959
 10
10.006605
 20
13.144723
 10
10.011153
 20
13.155304
 10
10.015844
 20
13.165719
 10
10.020664
 20
13.175981
 10
10.025598
 20
13.186105
 10
10.030631
 20
13.196107
 10
10.035750
 20
13.206000
 10
10.040939
 20
13.215799
 10
10.046184
 20
13.225520
 10
10.051469
 20
13.235175
 10
10.056781
 20
13.244781
 10
10.062105
 20
13.254352
 10
10.067426
 20
13.263902
 10
10.072729
 20
13.273447
 10
10.078000
 20
13.283000
 10
10.083472
 20
13.292528
 10
10.089012
 20
13.301990
 10
10.094616
 20
13.311391
 10
10.100281
 20
13.320734
 10
10.106005
 20
13.330025
 10
10.111785
 20
13.339268
 10
10.117618
 20
13.348466
 10
10.123500
 20
13.357625
 10
10.129429
 20
13.366749
 10
10.135402
 20
13.375842
 10
10.141417
 20
13.384908
 10
10.147469
 20
13.393953
 10
10.153556
 20
13.402980
 10
10.159676
 20
13.411994
 10
10.165825
 20
13.420999
 10
10.172000
 20
13.430000
 10
10.178034
 20
13.438790
 10
10.184131
 20
13.447541
 10
10.190283
 20
13.456260
 10
10.196484
 20
13.464953
 10
10.202726
 20
13.473629
 10
10.209002
 20
13.482295
 10
10.215304
 20
13.490958
 10
10.221625
 20
13.499625
 10
10.227958
 20
13.508304
 10
10.234295
 20
13.517002
 10
10.240629
 20
13.525726
 10
10.246953
 20
13.534484
 10
10.253260
 20
13.543283
 10
10.259541
 20
13.552131
 10
10.265790
 20
13.561034
 10
10.272000
 20
13.570000
 10
10.277977
 20
13.578847
 10
10.283912
 20
13.587758
 10
10.289809
 20
13.596728
 10
10.295672
 20
13.605750
 10
10.301506
 20
13.614819
 10
10.307314
 20
13.623930
 10
10.313103
 20
13.633075
 10
10.318875
 20
13.642250
 10
10.324635
 20
13.651448
 10
10.330389
 20
13.660664
 10
10.336139
 20
13.669892
 10
10.341891
 20
13.679125
 10
10.347648
 20
13.688358
 10
10.353416
 20
13.697586
 10
10.359198
 20
13.706802
 10
10.365000
 20
13.716000
 10
10.370802
 20
13.725198
 10
10.376584
 20
13.734416
 10
10.382352
 20
13.743648
 10
10.388109
 20
13.752891
 10
10.393861
 20
13.762139
 10
10.399611
 20
13.771389
 10
10.405365
 20
13.780635
 10
10.411125
 20
13.789875
 10
10.416897
 20
13.799103
 10
10.422686
 20
13.808314
 10
10.428494
 20
13.817506
 10
10.434328
 20
13.826672
 10
10.440191
 20
13.835809
 10
10.446088
 20
13.844912
 10
10.452023
 20
13.853977
 10
10.458000
 20
13.863000
 10
10.464012
 20
13.871988
 10
10.470049
 20
13.880951
 10
10.476112
 20
13.889888
 10
10.482203
 20
13.898797
 10
10.488323
 20
13.907677
 10
10.494475
 20
13.916525
 10
10.500658
 20
13.925342
 10
10.506875
 20
13.934125
 10
10.513127
 20
13.942873
 10
10.519416
 20
13.951584
 10
10.525743
 20
13.960257
 10
10.532109
 20
13.968891
 10
10.538517
 20
13.977483
 10
10.544967
 20
13.986033
 10
10.551461
 20
13.994539
 10
10.558000
 20
14.003000
 10
10.564751
 20
14.011249
 10
10.571512
 20
14.019488
 10
10.578290
 20
14.027710
 10
10.585094
 20
14.035906
 10
10.591933
 20
14.044067
 10
10.598816
 20
14.052184
 10
10.605752
 20
14.060248
 10
10.612750
 20
14.068250
 10
10.619818
 20
14.076182
 10
10.626965
 20
14.084035
 10
10.634200
 20
14.091800
 10
10.641531
 20
14.099469
 10
10.648968
 20
14.107032
 10
10.656520
 20
14.114480
 10
10.664194
 20
14.121806
 10
10.672000
 20
14.129000
 10
10.679734
 20
14.136266
 10
10.687559
 20
14.143441
 10
10.695471
 20
14.150529
 10
10.703469
 20
14.157531
 10
10.711548
 20
14.164452
 10
10.719707
 20
14.171293
 10
10.727942
 20
14.178058
 10
10.736250
 20
14.184750
 10
10.744628
 20
14.191372
 10
10.753074
 20
14.197926
 10
10.761584
 20
14.204416
 10
10.770156
 20
14.210844
 10
10.778787
 20
14.217213
 10
10.787473
 20
14.223527
 10
10.796211
 20
14.229789
 10
10.805000
 20
14.236000
 10
10.813638
 20
14.242197
 10
10.822307
 20
14.248404
 10
10.831013
 20
14.254609
 10
10.839766
 20
14.260797
 10
10.848571
 20
14.266956
 10
10.857436
 20
14.273072
 10
10.866368
 20
14.279133
 10
10.875375
 20
14.285125
 10
10.884464
 20
14.291035
 10
10.893643
 20
14.296850
 10
10.902918
 20
14.302556
 10
10.912297
 20
14.308141
 10
10.921787
 20
14.313591
 10
10.931396
 20
14.318893
 10
10.941132
 20
14.324033
 10
10.951000
 20
14.329000
 10
10.961194
 20
14.333982
 10
10.971520
 20
14.338811
 10
10.981968
 20
14.343495
 10
10.992531
 20
14.348047
 10
11.003200
 20
14.352475
 10
11.013965
 20
14.356791
 10
11.024818
 20
14.361004
 10
11.035750
 20
14.365125
 10
11.046752
 20
14.369164
 10
11.057816
 20
14.373131
 10
11.068933
 20
14.377036
 10
11.080094
 20
14.380891
 10
11.091290
 20
14.384704
 10
11.102512
 20
14.388486
 10
11.113751
 20
14.392248
 10
11.125000
 20
14.396000
 10
11.136251
 20
14.399748
 10
11.147512
 20
14.403486
 10
11.158790
 20
14.407204
 10
11.170094
 20
14.410891
 10
11.181433
 20
14.414536
 10
11.192816
 20
14.418131
 10
11.204252
 20
14.421664
 10
11.215750
 20
14.425125
 10
11.227318
 20
14.428504
 10
11.238965
 20
14.431791
 10
11.250700
 20
14.434975
 10
11.262531
 20
14.438047
 10
11.274468
 20
14.440995
 10
11.286520
 20
14.443811
 10
11.298694
 20
14.446482
 10
11.311000
 20
14.449000
 10
11.323654
 20
14.451566
 10
11.336479
 20
14.454016
 10
11.349459
 20
14.456348
 10
11.362578
 20
14.458562
 10
11.375821
 20
14.460660
 10
11.389170
 20
14.462641
 10
11.402610
 20
14.464504
 10
11.416125
 20
14.466250
 10
11.429698
 20
14.467879
 10
11.443314
 20
14.469391
 10
11.456957
 20
14.470785
 10
11.470609
 20
14.472062
 10
11.484256
 20
14.473223
 10
11.497881
 20
14.474266
 10
11.511468
 20
14.475191
 10
11.525000
 20
14.476000
 10
11.538323
 20
14.476725
 10
11.551666
 20
14.477395
 10
11.565023
 20
14.478000
 10
11.578391
 20
14.478531
 10
11.591764
 20
14.478981
 10
11.605139
 20
14.479340
 10
11.618510
 20
14.479599
 10
11.631875
 20
14.479750
 10
11.645228
 20
14.479784
 10
11.658564
 20
14.479691
 10
11.671881
 20
14.479464
 10
11.685172
 20
14.479094
 10
11.698434
 20
14.478571
 10
11.711662
 20
14.477887
 10
11.724852
 20
14.477033
 10
11.738000
 20
14.476000
 10
11.751146
 20
14.474805
 10
11.764324
 20
14.473475
 10
11.777520
 20
14.472012
 10
11.790719
 20
14.470422
 10
11.803906
 20
14.468709
 10
11.817066
 20
14.466877
 10
11.830186
 20
14.464931
 10
11.843250
 20
14.462875
 10
11.856244
 20
14.460714
 10
11.869152
 20
14.458451
 10
11.881961
 20
14.456092
 10
11.894656
 20
14.453641
 10
11.907222
 20
14.451101
 10
11.919645
 20
14.448479
 10
11.931909
 20
14.445777
 10
11.944000
 20
14.443000
 10
11.956107
 20
14.439931
 10
11.968059
 20
14.436730
 10
11.979864
 20
14.433407
 10
11.991531
 20
14.429969
 10
12.003070
 20
14.426425
 10
12.014488
 20
14.422785
 10
12.025795
 20
14.419057
 10
12.037000
 20
14.415250
 10
12.048111
 20
14.411373
 10
12.059137
 20
14.407434
 10
12.070086
 20
14.403442
 10
12.080969
 20
14.399406
 10
12.091792
 20
14.395335
 10
12.102566
 20
14.391238
 10
12.113299
 20
14.387124
 10
12.124000
 20
14.383000
 10
12.134851
 20
14.378675
 10
12.145654
 20
14.374324
 10
12.156407
 20
14.369944
 10
12.167109
 20
14.365531
 10
12.177759
 20
14.361083
 10
12.188354
 20
14.356598
 10
12.198893
 20
14.352071
 10
12.209375
 20
14.347500
 10
12.219799
 20
14.342882
 10
12.230162
 20
14.338215
 10
12.240464
 20
14.333495
 10
12.250703
 20
14.328719
 10
12.260878
 20
14.323884
 10
12.270986
 20
14.318988
 10
12.281028
 20
14.314028
 10
12.291000
 20
14.309000
 10
12.300903
 20
14.304079
 10
12.310740
 20
14.299070
 10
12.320516
 20
14.293979
 10
12.330234
 20
14.288812
 10
12.339900
 20
14.283575
 10
12.349518
 20
14.278273
 10
12.359091
 20
14.272913
 10
12.368625
 20
14.267500
 10
12.378124
 20
14.262040
 10
12.387592
 20
14.256539
 10
12.397033
 20
14.251003
 10
12.406453
 20
14.245438
 10
12.415855
 20
14.239849
 10
12.425244
 20
14.234242
 10
12.434624
 20
14.228624
 10
12.444000
 20
14.223000
 10
12.453363
 20
14.217363
 10
12.462703
 20
14.211701
 10
12.472020
 20
14.206013
 10
12.481312
 20
14.200297
 10
12.490582
 20
14.194552
 10
12.499828
 20
14.188775
 10
12.509051
 20
14.182967
 10
12.518250
 20
14.177125
 10
12.527426
 20
14.171248
 10
12.536578
 20
14.165334
 10
12.545707
 20
14.159382
 10
12.554813
 20
14.153391
 10
12.563895
 20
14.147358
 10
12.572953
 20
14.141283
 10
12.581988
 20
14.135164
 10
12.591000
 20
14.129000
 10
12.599977
 20
14.122988
 10
12.608910
 20
14.116951
 10
12.617802
 20
14.110888
 10
12.626656
 20
14.104797
 10
12.635475
 20
14.098677
 10
12.644262
 20
14.092525
 10
12.653019
 20
14.086342
 10
12.661750
 20
14.080125
 10
12.670458
 20
14.073873
 10
12.679145
 20
14.067584
 10
12.687814
 20
14.061257
 10
12.696469
 20
14.054891
 10
12.705112
 20
14.048483
 10
12.713746
 20
14.042033
 10
12.722375
 20
14.035539
 10
12.731000
 20
14.029000
 10
12.739437
 20
14.022613
 10
12.747871
 20
14.016201
 10
12.756299
 20
14.009763
 10
12.764719
 20
14.003297
 10
12.773126
 20
13.996802
 10
12.781520
 20
13.990275
 10
12.789895
 20
13.983717
 10
12.798250
 20
13.977125
 10
12.806582
 20
13.970498
 10
12.814887
 20
13.963834
 10
12.823163
 20
13.957132
 10
12.831406
 20
13.950391
 10
12.839615
 20
13.943608
 10
12.847785
 20
13.936783
 10
12.855915
 20
13.929914
 10
12.864000
 20
13.923000
 10
12.872073
 20
13.916073
 10
12.880162
 20
13.909162
 10
12.888260
 20
13.902260
 10
12.896359
 20
13.895359
 10
12.904453
 20
13.888453
 10
12.912533
 20
13.881533
 10
12.920593
 20
13.874593
 10
12.928625
 20
13.867625
 10
12.936622
 20
13.860622
 10
12.944576
 20
13.853576
 10
12.952481
 20
13.846481
 10
12.960328
 20
13.839328
 10
12.968111
 20
13.832111
 10
12.975822
 20
13.824822
 10
12.983454
 20
13.817454
 10
12.991000
 20
13.810000
 10
12.998465
 20
13.802465
 10
13.005863
 20
13.794863
 10
13.013197
 20
13.787197
 10
13.020469
 20
13.779469
 10
13.027682
 20
13.771682
 10
13.034840
 20
13.763840
 10
13.041945
 20
13.755945
 10
13.049000
 20
13.748000
 10
13.056008
 20
13.740008
 10
13.062973
 20
13.731973
 10
13.069896
 20
13.723896
 10
13.076781
 20
13.715781
 10
13.083631
 20
13.707631
 10
13.090449
 20
13.699449
 10
13.097238
 20
13.691238
 10
13.104000
 20
13.683000
 10
13.110539
 20
13.674704
 10
13.117033
 20
13.666320
 10
13.123483
 20
13.657854
 10
13.129891
 20
13.649313
 10
13.136257
 20
13.640700
 10
13.142584
 20
13.632023
 10
13.148873
 20
13.623288
 10
13.155125
 20
13.614500
 10
13.161342
 20
13.605665
 10
13.167525
 20
13.596789
 10
13.173677
 20
13.587878
 10
13.179797
 20
13.578938
 10
13.185888
 20
13.569974
 10
13.191951
 20
13.560992
 10
13.197988
 20
13.551999
 10
13.204000
 20
13.543000
 10
13.209988
 20
13.533988
 10
13.215953
 20
13.524953
 10
13.221895
 20
13.515895
 10
13.227813
 20
13.506813
 10
13.233707
 20
13.497707
 10
13.239578
 20
13.488578
 10
13.245426
 20
13.479426
 10
13.251250
 20
13.470250
 10
13.257051
 20
13.461051
 10
13.262828
 20
13.451828
 10
13.268582
 20
13.442582
 10
13.274313
 20
13.433312
 10
13.280020
 20
13.424020
 10
13.285703
 20
13.414703
 10
13.291363
 20
13.405363
 10
13.297000
 20
13.396000
 10
13.302591
 20
13.386591
 10
13.308121
 20
13.377121
 10
13.313598
 20
13.367598
 10
13.319031
 20
13.358031
 10
13.324429
 20
13.348429
 10
13.329801
 20
13.338801
 10
13.335155
 20
13.329155
 10
13.340500
 20
13.319500
 10
13.345845
 20
13.309845
 10
13.351199
 20
13.300199
 10
13.356571
 20
13.290571
 10
13.361969
 20
13.280969
 10
13.367402
 20
13.271402
 10
13.372879
 20
13.261879
 10
13.378409
 20
13.252409
 10
13.384000
 20
13.243000
 10
13.389659
 20
13.233659
 10
13.395379
 20
13.224379
 10
13.401152
 20
13.215152
 10
13.406969
 20
13.205969
 10
13.412821
 20
13.196821
 10
13.418699
 20
13.187699
 10
13.424595
 20
13.178595
 10
13.430500
 20
13.169500
 10
13.436405
 20
13.160405
 10
13.442301
 20
13.151301
 10
13.448179
 20
13.142179
 10
13.454031
 20
13.133031
 10
13.459848
 20
13.123848
 10
13.465621
 20
13.114621
 10
13.471341
 20
13.105341
 10
13.477000
 20
13.096000
 10
13.482580
 20
13.086745
 10
13.488080
 20
13.077367
 10
13.493512
 20
13.067884
 10
13.498891
 20
13.058312
 10
13.504228
 20
13.048671
 10
13.509537
 20
13.038977
 10
13.514832
 20
13.029247
 10
13.520125
 20
13.019500
 10
13.525430
 20
13.009753
 10
13.530760
 20
13.000023
 10
13.536128
 20
12.990329
 10
13.541547
 20
12.980688
 10
13.547031
 20
12.971116
 10
13.552592
 20
12.961633
 10
13.558244
 20
12.952255
 10
13.564000
 20
12.943000
 10
13.569869
 20
12.933880
 10
13.575844
 20
12.924885
 10
13.581912
 20
12.915998
 10
13.588062
 20
12.907203
 10
13.594283
 20
12.898485
 10
13.600562
 20
12.889826
 10
13.606889
 20
12.881212
 10
13.613250
 20
12.872625
 10
13.619635
 20
12.864050
 10
13.626031
 20
12.855471
 10
13.632428
 20
12.846871
 10
13.638813
 20
12.838234
 10
13.645174
 20
12.829545
 10
13.651500
 20
12.820787
 10
13.657779
 20
12.811944
 10
13.664000
 20
12.803000
 10
13.669966
 20
12.794131
 10
13.675871
 20
12.785160
 10
13.681723
 20
12.776101
 10
13.687531
 20
12.766969
 10
13.693304
 20
12.757778
 10
13.699051
 20
12.748543
 10
13.704780
 20
12.739279
 10
13.710500
 20
12.730000
 10
13.716220
 20
12.720721
 10
13.721949
 20
12.711457
 10
13.727696
 20
12.702222
 10
13.733469
 20
12.693031
 10
13.739277
 20
12.683899
 10
13.745129
 20
12.674840
 10
13.751034
 20
12.665869
 10
13.757000
 20
12.657000
 10
13.763067
 20
12.648067
 10
13.769254
 20
12.639254
 10
13.775541
 20
12.630541
 10
13.781906
 20
12.621906
 10
13.788331
 20
12.613331
 10
13.794793
 20
12.604793
 10
13.801273
 20
12.596273
 10
13.807750
 20
12.587750
 10
13.814204
 20
12.579204
 10
13.820613
 20
12.570613
 10
13.826958
 20
12.561958
 10
13.833219
 20
12.553219
 10
13.839374
 20
12.544374
 10
13.845402
 20
12.535402
 10
13.851285
 20
12.526285
 10
13.857000
 20
12.517000
 10
13.862568
 20
12.507568
 10
13.868025
 20
12.498025
 10
13.873381
 20
12.488381
 10
13.878641
 20
12.478641
 10
13.883813
 20
12.468813
 10
13.888904
 20
12.458904
 10
13.893923
 20
12.448923
 10
13.898875
 20
12.438875
 10
13.903769
 20
12.428769
 10
13.908611
 20
12.418611
 10
13.913410
 20
12.408410
 10
13.918172
 20
12.398172
 10
13.922905
 20
12.387905
 10
13.927615
 20
12.377615
 10
13.932311
 20
12.367311
 10
13.937000
 20
12.357000
 10
13.941499
 20
12.346499
 10
13.945990
 20
12.335990
 10
13.950467
 20
12.325467
 10
13.954922
 20
12.314922
 10
13.959347
 20
12.304347
 10
13.963736
 20
12.293736
 10
13.968081
 20
12.283081
 10
13.972375
 20
12.272375
 10
13.976610
 20
12.261610
 10
13.980779
 20
12.250779
 10
13.984875
 20
12.239875
 10
13.988891
 20
12.228891
 10
13.992818
 20
12.217818
 10
13.996650
 20
12.206650
 10
14.000380
 20
12.195380
 10
14.004000
 20
12.184000
 10
14.007362
 20
12.172340
 10
14.010693
 20
12.160611
 10
14.013987
 20
12.148815
 10
14.017234
 20
12.136953
 10
14.020429
 20
12.125027
 10
14.023564
 20
12.113037
 10
14.026632
 20
12.100986
 10
14.029625
 20
12.088875
 10
14.032536
 20
12.076705
 10
14.035357
 20
12.064479
 10
14.038082
 20
12.052196
 10
14.040703
 20
12.039859
 10
14.043213
 20
12.027470
 10
14.045604
 20
12.015029
 10
14.047868
 20
12.002539
 10
14.050000
 20
11.990000
 10
14.052026
 20
11.977546
 10
14.053977
 20
11.964947
 10
14.055845
 20
11.952222
 10
14.057625
 20
11.939391
 10
14.059312
 20
11.926471
 10
14.060898
 20
11.913482
 10
14.062380
 20
11.900444
 10
14.063750
 20
11.887375
 10
14.065003
 20
11.874294
 10
14.066133
 20
11.861221
 10
14.067134
 20
11.848174
 10
14.068000
 20
11.835172
 10
14.068726
 20
11.822235
 10
14.069305
 20
11.809381
 10
14.069731
 20
11.796630
 10
14.070000
 20
11.784000
 10
14.070129
 20
11.771262
 10
14.070139
 20
11.758549
 10
14.070029
 20
11.745862
 10
14.069797
 20
11.733203
 10
14.069442
 20
11.720573
 10
14.068963
 20
11.707975
 10
14.068358
 20
11.695408
 10
14.067625
 20
11.682875
 10
14.066763
 20
11.670377
 10
14.065771
 20
11.657916
 10
14.064648
 20
11.645493
 10
14.063391
 20
11.633109
 10
14.061999
 20
11.620767
 10
14.060471
 20
11.608467
 10
14.058805
 20
11.596211
 10
14.057000
 20
11.584000
 10
14.055044
 20
11.571604
 10
14.052930
 20
11.559176
 10
14.050663
 20
11.546730
 10
14.048250
 20
11.534281
 10
14.045696
 20
11.521844
 10
14.043008
 20
11.509434
 10
14.040190
 20
11.497064
 10
14.037250
 20
11.484750
 10
14.034192
 20
11.472506
 10
14.031023
 20
11.460348
 10
14.027749
 20
11.448289
 10
14.024375
 20
11.436344
 10
14.020907
 20
11.424528
 10
14.017352
 20
11.412855
 10
14.013714
 20
11.401341
 10
14.010000
 20
11.390000
 10
14.006181
 20
11.378995
 10
14.002229
 20
11.368102
 10
13.998150
 20
11.357313
 10
13.993953
 20
11.346625
 10
13.989645
 20
11.336030
 10
13.985232
 20
11.325523
 10
13.980723
 20
11.315099
 10
13.976125
 20
11.304750
 10
13.971445
 20
11.294472
 10
13.966689
 20
11.284258
 10
13.961867
 20
11.274103
 10
13.956984
 20
11.264000
 10
13.952049
 20
11.253944
 10
13.947068
 20
11.243930
 10
13.942050
 20
11.233950
 10
13.937000
 20
11.224000
 10
13.931947
 20
11.214053
 10
13.926904
 20
11.204096
 10
13.921859
 20
11.194141
 10
13.916797
 20
11.184203
 10
13.911706
 20
11.174294
 10
13.906572
 20
11.164428
 10
13.901383
 20
11.154617
 10
13.896125
 20
11.144875
 10
13.890785
 20
11.135215
 10
13.885350
 20
11.125650
 10
13.879806
 20
11.116194
 10
13.874141
 20
11.106859
 10
13.868341
 20
11.097659
 10
13.862393
 20
11.088607
 10
13.856283
 20
11.079717
 10
13.850000
 20
11.071000
 10
13.843732
 20
11.062268
 10
13.837311
 20
11.053689
 10
13.830745
 20
11.045255
 10
13.824047
 20
11.036953
 10
13.817225
 20
11.028775
 10
13.810291
 20
11.020709
 10
13.803254
 20
11.012746
 10
13.796125
 20
11.004875
 10
13.788914
 20
10.997086
 10
13.781631
 20
10.989369
 10
13.774286
 20
10.981714
 10
13.766891
 20
10.974109
 10
13.759454
 20
10.966546
 10
13.751986
 20
10.959014
 10
13.744498
 20
10.951502
 10
13.737000
 20
10.944000
 10
13.729498
 20
10.936502
 10
13.721986
 20
10.929014
 10
13.714454
 20
10.921546
 10
13.706891
 20
10.914109
 10
13.699286
 20
10.906714
 10
13.691631
 20
10.899369
 10
13.683914
 20
10.892086
 10
13.676125
 20
10.884875
 10
13.668254
 20
10.877746
 10
13.660291
 20
10.870709
 10
13.652225
 20
10.863775
 10
13.644047
 20
10.856953
 10
13.635745
 20
10.850255
 10
13.627311
 20
10.843689
 10
13.618732
 20
10.837268
 10
13.610000
 20
10.831000
 10
13.601283
 20
10.824717
 10
13.592393
 20
10.818607
 10
13.583341
 20
10.812659
 10
13.574141
 20
10.806859
 10
13.564806
 20
10.801194
 10
13.555350
 20
10.795650
 10
13.545785
 20
10.790215
 10
13.536125
 20
10.784875
 10
13.526383
 20
10.779617
 10
13.516572
 20
10.774428
 10
13.506706
 20
10.769294
 10
13.496797
 20
10.764203
 10
13.486859
 20
10.759141
 10
13.476904
 20
10.754096
 10
13.466947
 20
10.749053
 10
13.457000
 20
10.744000
 10
13.446918
 20
10.738939
 10
13.436578
 20
10.733891
 10
13.426027
 20
10.728865
 10
13.415313
 20
10.723875
 10
13.404480
 20
10.718932
 10
13.393578
 20
10.714047
 10
13.382652
 20
10.709232
 10
13.371750
 20
10.704500
 10
13.360918
 20
10.699861
 10
13.350203
 20
10.695328
 10
13.339652
 20
10.690912
 10
13.329313
 20
10.686625
 10
13.319230
 20
10.682479
 10
13.309453
 20
10.678484
 10
13.300027
 20
10.674654
 10
13.291000
 20
10.671000
 10
13.282215
 20
10.667530
 10
13.273826
 20
10.664236
 10
13.265786
 20
10.661110
 10
13.258047
 20
10.658141
 10
13.250559
 20
10.655318
 10
13.243275
 20
10.652631
 10
13.236147
 20
10.650070
 10
13.229125
 20
10.647625
 10
13.222162
 20
10.645285
 10
13.215209
 20
10.643041
 10
13.208218
 20
10.640882
 10
13.201141
 20
10.638797
 10
13.193928
 20
10.636777
 10
13.186533
 20
10.634811
 10
13.178906
 20
10.632888
 10
13.171000
 20
10.631000
 10
13.162693
 20
10.629138
 10
13.154279
 20
10.627311
 10
13.145769
 20
10.625527
 10
13.137172
 20
10.623797
 10
13.128499
 20
10.622132
 10
13.119760
 20
10.620541
 10
13.110965
 20
10.619035
 10
13.102125
 20
10.617625
 10
13.093250
 20
10.616320
 10
13.084350
 20
10.615131
 10
13.075435
 20
10.614068
 10
13.066516
 20
10.613141
 10
13.057602
 20
10.612360
 10
13.048705
 20
10.611736
 10
13.039834
 20
10.611280
 10
13.031000
 20
10.611000
  0
ENDSEC
  0
EOF
