  0
SECTION
  2
HEADER
  9
$INSUNITS
 70
4
  0
ENDSEC
  0
SECTION
  2
TABLES
  0
TABLE
  2
LAYER
  0
LAYER
  2
CUT
 70
0
 62
7
  0
LAYER
  2
ENGRAVE
 70
0
 62
1
  0
ENDTAB
  0
ENDSEC
  0
SECTION
  2
ENTITIES
  0
CIRCLE
  8
CUT
 10
8.500000
 20
8.500000
 30
0.0
 40
8.000000
  0
LWPOLYLINE
  8
ENGRAVE
 90
1057
 70
1
 10
8.920000
 20
1.875000
 10
8.887516
 20
1.873897
 10
8.855268
 20
1.873209
 10
8.823186
 20
1.872928
 10
8.791203
 20
1.873047
 10
8.759249
 20
1.873558
 10
8.727256
 20
1.874455
 10
8.695154
 20
1.875730
 10
8.662875
 20
1.877375
 10
8.630350
 20
1.879384
 10
8.597510
 20
1.881748
 10
8.564286
 20
1.884461
 10
8.530609
 20
1.887516
 10
8.496411
 20
1.890904
 10
8.461623
 20
1.894619
 10
8.426176
 20
1.898654
 10
8.390000
 20
1.903000
 10
8.352841
 20
1.907466
 10
8.314590
 20
1.912240
 10
8.275395
 20
1.917328
 10
8.235406
 20
1.922734
 10
8.194773
 20
1.928463
 10
8.153645
 20
1.934518
 10
8.112170
 20
1.940904
 10
8.070500
 20
1.947625
 10
8.028783
 20
1.954686
 10
7.987168
 20
1.962092
 10
7.945805
 20
1.969846
 10
7.904844
 20
1.977953
 10
7.864433
 20
1.986418
 10
7.824723
 20
1.995244
 10
7.785862
 20
2.004437
 10
7.748000
 20
2.014000
 10
7.710907
 20
2.024135
 10
7.674244
 20
2.034658
 10
7.637994
 20
2.045559
 10
7.602141
 20
2.056828
 10
7.566668
 20
2.068454
 10
7.531561
 20
2.080428
 10
7.496802
 20
2.092738
 10
7.462375
 20
2.105375
 10
7.428265
 20
2.118328
 10
7.394455
 20
2.131588
 10
7.360929
 20
2.145143
 10
7.327672
 20
2.158984
 10
7.294666
 20
2.173101
 10
7.261896
 20
2.187482
 10
7.229346
 20
2.202119
 10
7.197000
 20
2.217000
 10
7.164912
 20
2.231975
 10
7.133141
 20
2.247268
 10
7.101674
 20
2.262868
 10
7.070500
 20
2.278766
 10
7.039607
 20
2.294950
 10
7.008984
 20
2.311412
 10
6.978619
 20
2.328140
 10
6.948500
 20
2.345125
 10
6.918615
 20
2.362356
 10
6.888953
 20
2.379822
 10
6.859502
 20
2.397514
 10
6.830250
 20
2.415422
 10
6.801186
 20
2.433534
 10
6.772297
 20
2.451842
 10
6.743572
 20
2.470334
 10
6.715000
 20
2.489000
 10
6.686782
 20
2.507845
 10
6.658758
 20
2.526883
 10
6.630933
 20
2.546120
 10
6.603313
 20
2.565563
 10
6.575903
 20
2.585216
 10
6.548711
 20
2.605086
 10
6.521741
 20
2.625179
 10
6.495000
 20
2.645500
 10
6.468493
 20
2.666056
 10
6.442227
 20
2.686852
 10
6.416206
 20
2.707894
 10
6.390438
 20
2.729187
 10
6.364927
 20
2.750739
 10
6.339680
 20
2.772555
 10
6.314702
 20
2.794640
 10
6.290000
 20
2.817000
 10
6.265412
 20
2.839474
 10
6.241139
 20
2.862264
 10
6.217167
 20
2.885355
 10
6.193484
 20
2.908734
 10
6.170077
 20
2.932389
 10
6.146932
 20
2.956307
 10
6.124035
 20
2.980473
 10
6.101375
 20
3.004875
 10
6.078937
 20
3.029500
 10
6.056709
 20
3.054334
 10
6.034677
 20
3.079365
 10
6.012828
 20
3.104578
 10
5.991149
 20
3.129962
 10
5.969627
 20
3.155502
 10
5.948248
 20
3.181186
 10
5.927000
 20
3.207000
 10
5.905885
 20
3.233123
 10
5.884920
 20
3.259375
 10
5.864116
 20
3.285768
 10
5.843484
 20
3.312313
 10
5.823034
 20
3.339021
 10
5.802775
 20
3.365906
 10
5.782719
 20
3.392979
 10
5.762875
 20
3.420250
 10
5.743254
 20
3.447732
 10
5.723865
 20
3.475437
 10
5.704720
 20
3.503377
 10
5.685828
 20
3.531562
 10
5.667200
 20
3.560006
 10
5.648846
 20
3.588719
 10
5.630776
 20
3.617713
 10
5.613000
 20
3.647000
 10
5.595569
 20
3.676632
 10
5.578508
 20
3.706633
 10
5.561786
 20
3.736974
 10
5.545375
 20
3.767625
 10
5.529245
 20
3.798558
 10
5.513367
 20
3.829742
 10
5.497712
 20
3.861149
 10
5.482250
 20
3.892750
 10
5.466952
 20
3.924515
 10
5.451789
 20
3.956414
 10
5.436731
 20
3.988419
 10
5.421750
 20
4.020500
 10
5.406815
 20
4.052628
 10
5.391898
 20
4.084773
 10
5.376970
 20
4.116907
 10
5.362000
 20
4.149000
 10
5.347079
 20
4.181153
 10
5.332307
 20
4.213475
 10
5.317666
 20
4.245946
 10
5.303141
 20
4.278547
 10
5.288715
 20
4.311260
 10
5.274373
 20
4.344064
 10
5.260098
 20
4.376943
 10
5.245875
 20
4.409875
 10
5.231687
 20
4.442843
 10
5.217518
 20
4.475826
 10
5.203351
 20
4.508807
 10
5.189172
 20
4.541766
 10
5.174963
 20
4.574683
 10
5.160709
 20
4.607541
 10
5.146393
 20
4.640320
 10
5.132000
 20
4.673000
 10
5.117429
 20
4.705503
 10
5.102947
 20
4.738115
 10
5.088527
 20
4.770807
 10
5.074141
 20
4.803547
 10
5.059760
 20
4.836304
 10
5.045357
 20
4.869049
 10
5.030905
 20
4.901749
 10
5.016375
 20
4.934375
 10
5.001740
 20
4.966895
 10
4.986971
 20
4.999279
 10
4.972041
 20
5.031496
 10
4.956922
 20
5.063516
 10
4.941586
 20
5.095306
 10
4.926006
 20
5.126838
 10
4.910153
 20
5.158079
 10
4.894000
 20
5.189000
 10
4.877604
 20
5.219667
 10
4.861039
 20
5.250164
 10
4.844298
 20
5.280485
 10
4.827375
 20
5.310625
 10
4.810265
 20
5.340577
 10
4.792961
 20
5.370336
 10
4.775458
 20
5.399896
 10
4.757750
 20
5.429250
 10
4.739831
 20
5.458394
 10
4.721695
 20
5.487320
 10
4.703337
 20
5.516024
 10
4.684750
 20
5.544500
 10
4.665929
 20
5.572741
 10
4.646867
 20
5.600742
 10
4.627560
 20
5.628497
 10
4.608000
 20
5.656000
 10
4.588350
 20
5.683424
 10
4.568408
 20
5.710576
 10
4.548188
 20
5.737468
 10
4.527703
 20
5.764109
 10
4.506966
 20
5.790510
 10
4.485990
 20
5.816682
 10
4.464789
 20
5.842633
 10
4.443375
 20
5.868375
 10
4.421762
 20
5.893918
 10
4.399963
 20
5.919271
 10
4.377991
 20
5.944447
 10
4.355859
 20
5.969453
 10
4.333581
 20
5.994302
 10
4.311170
 20
6.019002
 10
4.288638
 20
6.043565
 10
4.266000
 20
6.068000
 10
4.243198
 20
6.092260
 10
4.220176
 20
6.116301
 10
4.196949
 20
6.140136
 10
4.173531
 20
6.163781
 10
4.149938
 20
6.187250
 10
4.126184
 20
6.210559
 10
4.102283
 20
6.233720
 10
4.078250
 20
6.256750
 10
4.054100
 20
6.279663
 10
4.029848
 20
6.302473
 10
4.005507
 20
6.325195
 10
3.981094
 20
6.347844
 10
3.956622
 20
6.370434
 10
3.932105
 20
6.392980
 10
3.907560
 20
6.415498
 10
3.883000
 20
6.438000
 10
3.858149
 20
6.460387
 10
3.833113
 20
6.482568
 10
3.807919
 20
6.504571
 10
3.782594
 20
6.526422
 10
3.757163
 20
6.548150
 10
3.731652
 20
6.569783
 10
3.706089
 20
6.591349
 10
3.680500
 20
6.612875
 10
3.654911
 20
6.634389
 10
3.629348
 20
6.655920
 10
3.603837
 20
6.677494
 10
3.578406
 20
6.699141
 10
3.553081
 20
6.720886
 10
3.527887
 20
6.742760
 10
3.502851
 20
6.764788
 10
3.478000
 20
6.787000
 10
3.453021
 20
6.809083
 10
3.427977
 20
6.831102
 10
3.402897
 20
6.853085
 10
3.377813
 20
6.875063
 10
3.352751
 20
6.897063
 10
3.327742
 20
6.919117
 10
3.302815
 20
6.941253
 10
3.278000
 20
6.963500
 10
3.253325
 20
6.985888
 10
3.228820
 20
7.008445
 10
3.204515
 20
7.031202
 10
3.180438
 20
7.054187
 10
3.156618
 20
7.077431
 10
3.133086
 20
7.100961
 10
3.109870
 20
7.124808
 10
3.087000
 20
7.149000
 10
3.064385
 20
7.173624
 10
3.041926
 20
7.198381
 10
3.019636
 20
7.223287
 10
2.997531
 20
7.248359
 10
2.975625
 20
7.273613
 10
2.953934
 20
7.299064
 10
2.932470
 20
7.324730
 10
2.911250
 20
7.350625
 10
2.890288
 20
7.376766
 10
2.869598
 20
7.403170
 10
2.849195
 20
7.429852
 10
2.829094
 20
7.456828
 10
2.809309
 20
7.484115
 10
2.789855
 20
7.511729
 10
2.770748
 20
7.539685
 10
2.752000
 20
7.568000
 10
2.733491
 20
7.596609
 10
2.715115
 20
7.625447
 10
2.696912
 20
7.654535
 10
2.678922
 20
7.683891
 10
2.661183
 20
7.713533
 10
2.643736
 20
7.743482
 10
2.626620
 20
7.773757
 10
2.609875
 20
7.804375
 10
2.593540
 20
7.835357
 10
2.577654
 20
7.866721
 10
2.562258
 20
7.898486
 10
2.547391
 20
7.930672
 10
2.533092
 20
7.963297
 10
2.519400
 20
7.996381
 10
2.506357
 20
8.029942
 10
2.494000
 20
8.064000
 10
2.482247
 20
8.098479
 10
2.470992
 20
8.133627
 10
2.460241
 20
8.169387
 10
2.450000
 20
8.205703
 10
2.440274
 20
8.242517
 10
2.431070
 20
8.279771
 10
2.422394
 20
8.317410
 10
2.414250
 20
8.355375
 10
2.406646
 20
8.393610
 10
2.399586
 20
8.432057
 10
2.393077
 20
8.470659
 10
2.387125
 20
8.509359
 10
2.381735
 20
8.548101
 10
2.376914
 20
8.586826
 10
2.372667
 20
8.625478
 10
2.369000
 20
8.664000
 10
2.365685
 20
8.702441
 10
2.362873
 20
8.741229
 10
2.360573
 20
8.780312
 10
2.358797
 20
8.819641
 10
2.357553
 20
8.859162
 10
2.356854
 20
8.898826
 10
2.356707
 20
8.938581
 10
2.357125
 20
8.978375
 10
2.358117
 20
9.018157
 10
2.359693
 20
9.057877
 10
2.361865
 20
9.097482
 10
2.364641
 20
9.136922
 10
2.368032
 20
9.176145
 10
2.372049
 20
9.215100
 10
2.376701
 20
9.253735
 10
2.382000
 20
9.292000
 10
2.388171
 20
9.329925
 10
2.395043
 20
9.367916
 10
2.402588
 20
9.405922
 10
2.410781
 20
9.443891
 10
2.419595
 20
9.481772
 10
2.429004
 20
9.519514
 10
2.438981
 20
9.557065
 10
2.449500
 20
9.594375
 10
2.460535
 20
9.631392
 10
2.472059
 20
9.668064
 10
2.484045
 20
9.704342
 10
2.496469
 20
9.740172
 10
2.509302
 20
9.775504
 10
2.522520
 20
9.810287
 10
2.536094
 20
9.844469
 10
2.550000
 20
9.878000
 10
2.564142
 20
9.910756
 10
2.578805
 20
9.943033
 10
2.593972
 20
9.974844
 10
2.609625
 20
10.006203
 10
2.625747
 20
10.037122
 10
2.642320
 20
10.067615
 10
2.659327
 20
10.097695
 10
2.676750
 20
10.127375
 10
2.694571
 20
10.156668
 10
2.712773
 20
10.185588
 10
2.731339
 20
10.214147
 10
2.750250
 20
10.242359
 10
2.769489
 20
10.270238
 10
2.789039
 20
10.297795
 10
2.808882
 20
10.325045
 10
2.829000
 20
10.352000
 10
2.849448
 20
10.378626
 10
2.870287
 20
10.404881
 10
2.891510
 20
10.430770
 10
2.913109
 20
10.456297
 10
2.935078
 20
10.481467
 10
2.957408
 20
10.506283
 10
2.980093
 20
10.530751
 10
3.003125
 20
10.554875
 10
3.026497
 20
10.578659
 10
3.050201
 20
10.602107
 10
3.074231
 20
10.625225
 10
3.098578
 20
10.648016
 10
3.123236
 20
10.670484
 10
3.148197
 20
10.692635
 10
3.173454
 20
10.714472
 10
3.199000
 20
10.736000
 10
3.224852
 20
10.757211
 10
3.251031
 20
10.778094
 10
3.277539
 20
10.798648
 10
3.304375
 20
10.818875
 10
3.331539
 20
10.838773
 10
3.359031
 20
10.858344
 10
3.386852
 20
10.877586
 10
3.415000
 20
10.896500
 10
3.443477
 20
10.915086
 10
3.472281
 20
10.933344
 10
3.501414
 20
10.951273
 10
3.530875
 20
10.968875
 10
3.560664
 20
10.986148
 10
3.590781
 20
11.003094
 10
3.621227
 20
11.019711
 10
3.652000
 20
11.036000
 10
3.683091
 20
11.051972
 10
3.714492
 20
11.067635
 10
3.746210
 20
11.082984
 10
3.778250
 20
11.098016
 10
3.810618
 20
11.112725
 10
3.843320
 20
11.127107
 10
3.876362
 20
11.141159
 10
3.909750
 20
11.154875
 10
3.943489
 20
11.168251
 10
3.977586
 20
11.181283
 10
4.012046
 20
11.193967
 10
4.046875
 20
11.206297
 10
4.082079
 20
11.218270
 10
4.117664
 20
11.229881
 10
4.153636
 20
11.241126
 10
4.190000
 20
11.252000
 10
4.226639
 20
11.262424
 10
4.263783
 20
11.272344
 10
4.301399
 20
11.281795
 10
4.339453
 20
11.290813
 10
4.377911
 20
11.299432
 10
4.416740
 20
11.307688
 10
4.455906
 20
11.315615
 10
4.495375
 20
11.323250
 10
4.535114
 20
11.330627
 10
4.575088
 20
11.337781
 10
4.615264
 20
11.344748
 10
4.655609
 20
11.351562
 10
4.696089
 20
11.358260
 10
4.736670
 20
11.364875
 10
4.777318
 20
11.371443
 10
4.818000
 20
11.378000
 10
4.858681
 20
11.384370
 10
4.899697
 20
11.390385
 10
4.941010
 20
11.396086
 10
4.982578
 20
11.401516
 10
5.024364
 20
11.406717
 10
5.066326
 20
11.411732
 10
5.108427
 20
11.416604
 10
5.150625
 20
11.421375
 10
5.192882
 20
11.426087
 10
5.235158
 20
11.430783
 10
5.277414
 20
11.435506
 10
5.319609
 20
11.440297
 10
5.361705
 20
11.445199
 10
5.403662
 20
11.450256
 10
5.445440
 20
11.455509
 10
5.487000
 20
11.461000
 10
5.528502
 20
11.466737
 10
5.570107
 20
11.472348
 10
5.611781
 20
11.477871
 10
5.653484
 20
11.483344
 10
5.695182
 20
11.488805
 10
5.736838
 20
11.494293
 10
5.778414
 20
11.499845
 10
5.819875
 20
11.505500
 10
5.861183
 20
11.511295
 10
5.902303
 20
11.517270
 10
5.943197
 20
11.523460
 10
5.983828
 20
11.529906
 10
6.024161
 20
11.536645
 10
6.064158
 20
11.543715
 10
6.103783
 20
11.551154
 10
6.143000
 20
11.559000
 10
6.181905
 20
11.567158
 10
6.220611
 20
11.575516
 10
6.259110
 20
11.584084
 10
6.297391
 20
11.592875
 10
6.335443
 20
11.601900
 10
6.373256
 20
11.611172
 10
6.410820
 20
11.620701
 10
6.448125
 20
11.630500
 10
6.485160
 20
11.640580
 10
6.521916
 20
11.650953
 10
6.558382
 20
11.661631
 10
6.594547
 20
11.672625
 10
6.630402
 20
11.683947
 10
6.665936
 20
11.695609
 10
6.701138
 20
11.707623
 10
6.736000
 20
11.720000
 10
6.770524
 20
11.732538
 10
6.804727
 20
11.745400
 10
6.838612
 20
11.758582
 10
6.872187
 20
11.772078
 10
6.905458
 20
11.785885
 10
6.938430
 20
11.799998
 10
6.971108
 20
11.814413
 10
7.003500
 20
11.829125
 10
7.035610
 20
11.844130
 10
7.067445
 20
11.859424
 10
7.099011
 20
11.875002
 10
7.130313
 20
11.890859
 10
7.161356
 20
11.906992
 10
7.192148
 20
11.923396
 10
7.222694
 20
11.940067
 10
7.253000
 20
11.957000
 10
7.282816
 20
11.974247
 10
7.312277
 20
11.991848
 10
7.341405
 20
12.009783
 10
7.370219
 20
12.028031
 10
7.398740
 20
12.046573
 10
7.426988
 20
12.065387
 10
7.454985
 20
12.084453
 10
7.482750
 20
12.103750
 10
7.510304
 20
12.123258
 10
7.537668
 20
12.142957
 10
7.564862
 20
12.162826
 10
7.591906
 20
12.182844
 10
7.618822
 20
12.202991
 10
7.645629
 20
12.223246
 10
7.672348
 20
12.243589
 10
7.699000
 20
12.264000
 10
7.725477
 20
12.284586
 10
7.751676
 20
12.305451
 10
7.777623
 20
12.326572
 10
7.803344
 20
12.347922
 10
7.828866
 20
12.369477
 10
7.854215
 20
12.391213
 10
7.879417
 20
12.413104
 10
7.904500
 20
12.435125
 10
7.929489
 20
12.457252
 10
7.954410
 20
12.479459
 10
7.979291
 20
12.501722
 10
8.004156
 20
12.524016
 10
8.029034
 20
12.546315
 10
8.053949
 20
12.568596
 10
8.078929
 20
12.590832
 10
8.104000
 20
12.613000
 10
8.129036
 20
12.635027
 10
8.153914
 20
12.657213
 10
8.178663
 20
12.679531
 10
8.203312
 20
12.701953
 10
8.227892
 20
12.724451
 10
8.252430
 20
12.746998
 10
8.276956
 20
12.769565
 10
8.301500
 20
12.792125
 10
8.326091
 20
12.814650
 10
8.350758
 20
12.837111
 10
8.375530
 20
12.859482
 10
8.400438
 20
12.881734
 10
8.425509
 20
12.903840
 10
8.450773
 20
12.925771
 10
8.476261
 20
12.947501
 10
8.502000
 20
12.969000
 10
8.527713
 20
12.990174
 10
8.553484
 20
13.011311
 10
8.579326
 20
13.032398
 10
8.605250
 20
13.053422
 10
8.631268
 20
13.074370
 10
8.657391
 20
13.095229
 10
8.683631
 20
13.115985
 10
8.710000
 20
13.136625
 10
8.736510
 20
13.157136
 10
8.763172
 20
13.177506
 10
8.789998
 20
13.197720
 10
8.817000
 20
13.217766
 10
8.844189
 20
13.237630
 10
8.871578
 20
13.257299
 10
8.899178
 20
13.276760
 10
8.927000
 20
13.296000
 10
8.954965
 20
13.315274
 10
8.982998
 20
13.334459
 10
9.011122
 20
13.353535
 10
9.039359
 20
13.372484
 10
9.067731
 20
13.391287
 10
9.096260
 20
13.409924
 10
9.124967
 20
13.428376
 10
9.153875
 20
13.446625
 10
9.183006
 20
13.464651
 10
9.212381
 20
13.482436
 10
9.242023
 20
13.499959
 10
9.271953
 20
13.517203
 10
9.302194
 20
13.534148
 10
9.332768
 20
13.550775
 10
9.363696
 20
13.567066
 10
9.395000
 20
13.583000
 10
9.426453
 20
13.598489
 10
9.458187
 20
13.613814
 10
9.490203
 20
13.628956
 10
9.522500
 20
13.643891
 10
9.555078
 20
13.658597
 10
9.587937
 20
13.673053
 10
9.621078
 20
13.687236
 10
9.654500
 20
13.701125
 10
9.688203
 20
13.714698
 10
9.722188
 20
13.727932
 10
9.756453
 20
13.740805
 10
9.791000
 20
13.753297
 10
9.825828
 20
13.765384
 10
9.860937
 20
13.777045
 10
9.896328
 20
13.788258
 10
9.932000
 20
13.799000
 10
9.968008
 20
13.809345
 10
10.004389
 20
13.819369
 10
10.041118
 20
13.829056
 10
10.078172
 20
13.838391
 10
10.115524
 20
13.847356
 10
10.153150
 20
13.855936
 10
10.191026
 20
13.864114
 10
10.229125
 20
13.871875
 10
10.267424
 20
13.879202
 10
10.305896
 20
13.886080
 10
10.344519
 20
13.892492
 10
10.383266
 20
13.898422
 10
10.422112
 20
13.903854
 10
10.461033
 20
13.908771
 10
10.500004
 20
13.913159
 10
10.539000
 20
13.917000
 10
10.578202
 20
13.920516
 10
10.617773
 20
13.923562
 10
10.657661
 20
13.926141
 10
10.697813
 20
13.928250
 10
10.738175
 20
13.929891
 10
10.778695
 20
13.931062
 10
10.819321
 20
13.931766
 10
10.860000
 20
13.932000
 10
10.900679
 20
13.931766
 10
10.941305
 20
13.931062
 10
10.981825
 20
13.929891
 10
11.022188
 20
13.928250
 10
11.062339
 20
13.926141
 10
11.102227
 20
13.923562
 10
11.141798
 20
13.920516
 10
11.181000
 20
13.917000
 10
11.219985
 20
13.913137
 10
11.258926
 20
13.908689
 10
11.297802
 20
13.903682
 10
11.336594
 20
13.898141
 10
11.375280
 20
13.892089
 10
11.413840
 20
13.885553
 10
11.452253
 20
13.878556
 10
11.490500
 20
13.871125
 10
11.528559
 20
13.863283
 10
11.566410
 20
13.855057
 10
11.604033
 20
13.846469
 10
11.641406
 20
13.837547
 10
11.678510
 20
13.828314
 10
11.715324
 20
13.818795
 10
11.751828
 20
13.809015
 10
11.788000
 20
13.799000
 10
11.823882
 20
13.788479
 10
11.859527
 20
13.777551
 10
11.894932
 20
13.766230
 10
11.930094
 20
13.754531
 10
11.965009
 20
13.742469
 10
11.999676
 20
13.730059
 10
12.034090
 20
13.717314
 10
12.068250
 20
13.704250
 10
12.102152
 20
13.690881
 10
12.135793
 20
13.677223
 10
12.169170
 20
13.663289
 10
12.202281
 20
13.649094
 10
12.235123
 20
13.634653
 10
12.267691
 20
13.619980
 10
12.299985
 20
13.605091
 10
12.332000
 20
13.590000
 10
12.363691
 20
13.574463
 10
12.395025
 20
13.558609
 10
12.426023
 20
13.542451
 10
12.456703
 20
13.526000
 10
12.487084
 20
13.509268
 10
12.517186
 20
13.492266
 10
12.547026
 20
13.475006
 10
12.576625
 20
13.457500
 10
12.606001
 20
13.439760
 10
12.635174
 20
13.421797
 10
12.664162
 20
13.403623
 10
12.692984
 20
13.385250
 10
12.721660
 20
13.366689
 10
12.750209
 20
13.347953
 10
12.778649
 20
13.329053
 10
12.807000
 20
13.310000
 10
12.835042
 20
13.290979
 10
12.862914
 20
13.271789
 10
12.890610
 20
13.252423
 10
12.918125
 20
13.232875
 10
12.945452
 20
13.213140
 10
12.972586
 20
13.193211
 10
12.999521
 20
13.173083
 10
13.026250
 20
13.152750
 10
13.052769
 20
13.132206
 10
13.079070
 20
13.111445
 10
13.105149
 20
13.090462
 10
13.131000
 20
13.069250
 10
13.156616
 20
13.047804
 10
13.181992
 20
13.026117
 10
13.207122
 20
13.004185
 10
13.232000
 20
12.982000
 10
13.256799
 20
12.959736
 10
13.281326
 20
12.937201
 10
13.305593
 20
12.914406
 10
13.329609
 20
12.891359
 10
13.353385
 20
12.868073
 10
13.376932
 20
12.844557
 10
13.400258
 20
12.820821
 10
13.423375
 20
12.796875
 10
13.446293
 20
12.772730
 10
13.469021
 20
12.748396
 10
13.491572
 20
12.723884
 10
13.513953
 20
12.699203
 10
13.536177
 20
12.674364
 10
13.558252
 20
12.649377
 10
13.580190
 20
12.624252
 10
13.602000
 20
12.599000
 10
13.623690
 20
12.573616
 10
13.645256
 20
12.548088
 10
13.666690
 20
12.522410
 10
13.687984
 20
12.496578
 10
13.709133
 20
12.470588
 10
13.730127
 20
12.444436
 10
13.750960
 20
12.418116
 10
13.771625
 20
12.391625
 10
13.792114
 20
12.364958
 10
13.812420
 20
12.338111
 10
13.832535
 20
12.311080
 10
13.852453
 20
12.283859
 10
13.872166
 20
12.256446
 10
13.891666
 20
12.228834
 10
13.910947
 20
12.201020
 10
13.930000
 20
12.173000
 10
13.948833
 20
12.144770
 10
13.967459
 20
12.116334
 10
13.985883
 20
12.087696
 10
14.004109
 20
12.058859
 10
14.022142
 20
12.029830
 10
14.039986
 20
12.000611
 10
14.057646
 20
11.971208
 10
14.075125
 20
11.941625
 10
14.092428
 20
11.911866
 10
14.109561
 20
11.881936
 10
14.126526
 20
11.851838
 10
14.143328
 20
11.821578
 10
14.159972
 20
11.791160
 10
14.176463
 20
11.760588
 10
14.192804
 20
11.729866
 10
14.209000
 20
11.699000
 10
14.225098
 20
11.668024
 10
14.241127
 20
11.636959
 10
14.257065
 20
11.605785
 10
14.272891
 20
11.574484
 10
14.288581
 20
11.543037
 10
14.304115
 20
11.511424
 10
14.319470
 20
11.479626
 10
14.334625
 20
11.447625
 10
14.349557
 20
11.415401
 10
14.364244
 20
11.382936
 10
14.378665
 20
11.350209
 10
14.392797
 20
11.317203
 10
14.406618
 20
11.283898
 10
14.420107
 20
11.250275
 10
14.433242
 20
11.216316
 10
14.446000
 20
11.182000
 10
14.458598
 20
11.147514
 10
14.470896
 20
11.112687
 10
14.482899
 20
11.077533
 10
14.494609
 20
11.042063
 10
14.506033
 20
11.006287
 10
14.517174
 20
10.970219
 10
14.528036
 20
10.933869
 10
14.538625
 20
10.897250
 10
14.548944
 20
10.860373
 10
14.558998
 20
10.823250
 10
14.568791
 20
10.785893
 10
14.578328
 20
10.748313
 10
14.587613
 20
10.710521
 10
14.596650
 20
10.672531
 10
14.605445
 20
10.634354
 10
14.614000
 20
10.596000
 10
14.622165
 20
10.557578
 10
14.630145
 20
10.518826
 10
14.637919
 20
10.479767
 10
14.645469
 20
10.440422
 10
14.652772
 20
10.400813
 10
14.659809
 20
10.360963
 10
14.666558
 20
10.320893
 10
14.673000
 20
10.280625
 10
14.679114
 20
10.240181
 10
14.684879
 20
10.199584
 10
14.690275
 20
10.158855
 10
14.695281
 20
10.118016
 10
14.699877
 20
10.077089
 10
14.704043
 20
10.036096
 10
14.707757
 20
9.995059
 10
14.711000
 20
9.954000
 10
14.713955
 20
9.912957
 10
14.716455
 20
9.871605
 10
14.718512
 20
9.829991
 10
14.720141
 20
9.788156
 10
14.721353
 20
9.746146
 10
14.722162
 20
9.704004
 10
14.722582
 20
9.661774
 10
14.722625
 20
9.619500
 10
14.722305
 20
9.577226
 10
14.721635
 20
9.534996
 10
14.720628
 20
9.492854
 10
14.719297
 20
9.450844
 10
14.717656
 20
9.409009
 10
14.715717
 20
9.367395
 10
14.713494
 20
9.326043
 10
14.711000
 20
9.285000
 10
14.708233
 20
9.243930
 10
14.705178
 20
9.202863
 10
14.701826
 20
9.161826
 10
14.698172
 20
9.120844
 10
14.694207
 20
9.079944
 10
14.689924
 20
9.039152
 10
14.685316
 20
8.998496
 10
14.680375
 20
8.958000
 10
14.675094
 20
8.917692
 10
14.669467
 20
8.877598
 10
14.663485
 20
8.837744
 10
14.657141
 20
8.798156
 10
14.650427
 20
8.758862
 10
14.643338
 20
8.719887
 10
14.635865
 20
8.681257
 10
14.628000
 20
8.643000
 10
14.619718
 20
8.604868
 10
14.611006
 20
8.566975
 10
14.601881
 20
8.529324
 10
14.592359
 20
8.491922
 10
14.582457
 20
8.454771
 10
14.572189
 20
8.417877
 10
14.561573
 20
8.381243
 10
14.550625
 20
8.344875
 10
14.539360
 20
8.308776
 10
14.527795
 20
8.272951
 10
14.515946
 20
8.237405
 10
14.503828
 20
8.202141
 10
14.491459
 20
8.167164
 10
14.478854
 20
8.132479
 10
14.466029
 20
8.098089
 10
14.453000
 20
8.064000
 10
14.439735
 20
8.030027
 10
14.426191
 20
7.996354
 10
14.412373
 20
7.962976
 10
14.398281
 20
7.929891
 10
14.383920
 20
7.897092
 10
14.369293
 20
7.864576
 10
14.354402
 20
7.832339
 10
14.339250
 20
7.800375
 10
14.323840
 20
7.768681
 10
14.308176
 20
7.737252
 10
14.292259
 20
7.706084
 10
14.276094
 20
7.675172
 10
14.259682
 20
7.644512
 10
14.243027
 20
7.614100
 10
14.226132
 20
7.583930
 10
14.209000
 20
7.554000
 10
14.191589
 20
7.524338
 10
14.173865
 20
7.494969
 10
14.155846
 20
7.465881
 10
14.137547
 20
7.437062
 10
14.118984
 20
7.408502
 10
14.100174
 20
7.380187
 10
14.081132
 20
7.352107
 10
14.061875
 20
7.324250
 10
14.042419
 20
7.296604
 10
14.022779
 20
7.269156
 10
14.002973
 20
7.241896
 10
13.983016
 20
7.214813
 10
13.962924
 20
7.187893
 10
13.942713
 20
7.161125
 10
13.922400
 20
7.134498
 10
13.902000
 20
7.108000
 10
13.881447
 20
7.081479
 10
13.860672
 20
7.055160
 10
13.839686
 20
7.029035
 10
13.818500
 20
7.003094
 10
13.797127
 20
6.977329
 10
13.775578
 20
6.951730
 10
13.753865
 20
6.926291
 10
13.732000
 20
6.901000
 10
13.709994
 20
6.875850
 10
13.687859
 20
6.850832
 10
13.665607
 20
6.825937
 10
13.643250
 20
6.801156
 10
13.620799
 20
6.776481
 10
13.598266
 20
6.751902
 10
13.575662
 20
6.727412
 10
13.553000
 20
6.703000
 10
13.530221
 20
6.678716
 10
13.507270
 20
6.654604
 10
13.484160
 20
6.630646
 10
13.460906
 20
6.606828
 10
13.437524
 20
6.583133
 10
13.414027
 20
6.559545
 10
13.390431
 20
6.536048
 10
13.366750
 20
6.512625
 10
13.342999
 20
6.489261
 10
13.319191
 20
6.465939
 10
13.295343
 20
6.442644
 10
13.271469
 20
6.419359
 10
13.247583
 20
6.396069
 10
13.223699
 20
6.372756
 10
13.199833
 20
6.349405
 10
13.176000
 20
6.326000
 10
13.152286
 20
6.302816
 10
13.128412
 20
6.279750
 10
13.104406
 20
6.256777
 10
13.080297
 20
6.233875
 10
13.056111
 20
6.211020
 10
13.031877
 20
6.188187
 10
13.007622
 20
6.165355
 10
12.983375
 20
6.142500
 10
12.959163
 20
6.119598
 10
12.935014
 20
6.096625
 10
12.910955
 20
6.073559
 10
12.887016
 20
6.050375
 10
12.863222
 20
6.027051
 10
12.839604
 20
6.003562
 10
12.816187
 20
5.979887
 10
12.793000
 20
5.956000
 10
12.769765
 20
5.932008
 10
12.746572
 20
5.908016
 10
12.723441
 20
5.884000
 10
12.700391
 20
5.859937
 10
12.677440
 20
5.835805
 10
12.654607
 20
5.811578
 10
12.631913
 20
5.787234
 10
12.609375
 20
5.762750
 10
12.587013
 20
5.738102
 10
12.564846
 20
5.713266
 10
12.542892
 20
5.688219
 10
12.521172
 20
5.662937
 10
12.499703
 20
5.637398
 10
12.478506
 20
5.611578
 10
12.457598
 20
5.585453
 10
12.437000
 20
5.559000
 10
12.416492
 20
5.532269
 10
12.396219
 20
5.505326
 10
12.376180
 20
5.478169
 10
12.356375
 20
5.450797
 10
12.336805
 20
5.423208
 10
12.317469
 20
5.395400
 10
12.298367
 20
5.367373
 10
12.279500
 20
5.339125
 10
12.260867
 20
5.310654
 10
12.242469
 20
5.281959
 10
12.224305
 20
5.253038
 10
12.206375
 20
5.223891
 10
12.188680
 20
5.194514
 10
12.171219
 20
5.164908
 10
12.153992
 20
5.135071
 10
12.137000
 20
5.105000
 10
12.120098
 20
5.074828
 10
12.103504
 20
5.044328
 10
12.087197
 20
5.013523
 10
12.071156
 20
4.982437
 10
12.055362
 20
4.951094
 10
12.039793
 20
4.919516
 10
12.024429
 20
4.887727
 10
12.009250
 20
4.855750
 10
11.994235
 20
4.823609
 10
11.979363
 20
4.791328
 10
11.964615
 20
4.758930
 10
11.949969
 20
4.726437
 10
11.935405
 20
4.693875
 10
11.920902
 20
4.661266
 10
11.906441
 20
4.628633
 10
11.892000
 20
4.596000
 10
11.877874
 20
4.563064
 10
11.863975
 20
4.529900
 10
11.850272
 20
4.496541
 10
11.836734
 20
4.463016
 10
11.823332
 20
4.429356
 10
11.810033
 20
4.395592
 10
11.796808
 20
4.361755
 10
11.783625
 20
4.327875
 10
11.770454
 20
4.293984
 10
11.757264
 20
4.260111
 10
11.744024
 20
4.226289
 10
11.730703
 20
4.192547
 10
11.717271
 20
4.158916
 10
11.703697
 20
4.125428
 10
11.689950
 20
4.092112
 10
11.676000
 20
4.059000
 10
11.662156
 20
4.025781
 10
11.648357
 20
3.992516
 10
11.634579
 20
3.959227
 10
11.620797
 20
3.925937
 10
11.606985
 20
3.892672
 10
11.593119
 20
3.859453
 10
11.579174
 20
3.826305
 10
11.565125
 20
3.793250
 10
11.550947
 20
3.760312
 10
11.536615
 20
3.727516
 10
11.522105
 20
3.694883
 10
11.507391
 20
3.662437
 10
11.492448
 20
3.630203
 10
11.477252
 20
3.598203
 10
11.461778
 20
3.566461
 10
11.446000
 20
3.535000
 10
11.430024
 20
3.503914
 10
11.413955
 20
3.472920
 10
11.397772
 20
3.442040
 10
11.381453
 20
3.411297
 10
11.364976
 20
3.380712
 10
11.348318
 20
3.350307
 10
11.331459
 20
3.320104
 10
11.314375
 20
3.290125
 10
11.297045
 20
3.260392
 10
11.279447
 20
3.230928
 10
11.261559
 20
3.201753
 10
11.243359
 20
3.172891
 10
11.224825
 20
3.144362
 10
11.205936
 20
3.116189
 10
11.186668
 20
3.088395
 10
11.167000
 20
3.061000
 10
11.146973
 20
3.033789
 10
11.126643
 20
3.006902
 10
11.106010
 20
2.980338
 10
11.085078
 20
2.954094
 10
11.063847
 20
2.928166
 10
11.042318
 20
2.902551
 10
11.020494
 20
2.877247
 10
10.998375
 20
2.852250
 10
10.975963
 20
2.827558
 10
10.953260
 20
2.803168
 10
10.930266
 20
2.779077
 10
10.906984
 20
2.755281
 10
10.883415
 20
2.731779
 10
10.859561
 20
2.708566
 10
10.835422
 20
2.685641
 10
10.811000
 20
2.663000
 10
10.786274
 20
2.640652
 10
10.761223
 20
2.618609
 10
10.735849
 20
2.596871
 10
10.710156
 20
2.575437
 10
10.684147
 20
2.554309
 10
10.657824
 20
2.533484
 10
10.631191
 20
2.512965
 10
10.604250
 20
2.492750
 10
10.577004
 20
2.472840
 10
10.549457
 20
2.453234
 10
10.521611
 20
2.433934
 10
10.493469
 20
2.414938
 10
10.465034
 20
2.396246
 10
10.436309
 20
2.377859
 10
10.407296
 20
2.359777
 10
10.378000
 20
2.342000
 10
10.348136
 20
2.324494
 10
10.317492
 20
2.307234
 10
10.286181
 20
2.290232
 10
10.254313
 20
2.273500
 10
10.221999
 20
2.257049
 10
10.189352
 20
2.240891
 10
10.156481
 20
2.225037
 10
10.123500
 20
2.209500
 10
10.090519
 20
2.194291
 10
10.057648
 20
2.179422
 10
10.025001
 20
2.164904
 10
9.992687
 20
2.150750
 10
9.960819
 20
2.136971
 10
9.929508
 20
2.123578
 10
9.898864
 20
2.110584
 10
9.869000
 20
2.098000
 10
9.840011
 20
2.085812
 10
9.811840
 20
2.073992
 10
9.784366
 20
2.062536
 10
9.757469
 20
2.051437
 10
9.731029
 20
2.040690
 10
9.704926
 20
2.030289
 10
9.679040
 20
2.020228
 10
9.653250
 20
2.010500
 10
9.627437
 20
2.001101
 10
9.601480
 20
1.992023
 10
9.575260
 20
1.983263
 10
9.548656
 20
1.974813
 10
9.521548
 20
1.966667
 10
9.493816
 20
1.958820
 10
9.465340
 20
1.951267
 10
9.436000
 20
1.944000
 10
9.406090
 20
1.937205
 10
9.375643
 20
1.930699
 10
9.344706
 20
1.924493
 10
9.313328
 20
1.918594
 10
9.281558
 20
1.913011
 10
9.249443
 20
1.907754
 10
9.217033
 20
1.902831
 10
9.184375
 20
1.898250
 10
9.151518
 20
1.894021
 10
9.118510
 20
1.890152
 10
9.085399
 20
1.886653
 10
9.052234
 20
1.883531
 10
9.019064
 20
1.880796
 10
8.985936
 20
1.878457
 10
8.952898
 20
1.876522
 10
8.920000
 20
1.875000
  0
ENDSEC
  0
EOF
