  0
SECTION
  2
HEADER
  9
$INSUNITS
 70
4
  0
ENDSEC
  0
SECTION
  2
TABLES
  0
TABLE
  2
LAYER
  0
LAYER
  2
CUT
 70
0
 62
7
  0
LAYER
  2
ENGRAVE
 70
0
 62
1
  0
ENDTAB
  0
ENDSEC
  0
SECTION
  2
ENTITIES
  0
CIRCLE
  8
CUT
 10
8.500000
 20
8.500000
 30
0.0
 40
8.000000
  0
LWPOLYLINE
  8
ENGRAVE
 90
1057
 70
1
 10
7.071000
 20
1.758000
 10
7.058323
 20
1.757143
 10
7.045760
 20
1.756441
 10
7.033258
 20
1.755886
 10
7.020766
 20
1.755469
 10
7.008233
 20
1.755180
 10
6.995607
 20
1.755012
 10
6.982839
 20
1.754955
 10
6.969875
 20
1.755000
 10
6.956665
 20
1.755139
 10
6.943158
 20
1.755363
 10
6.929302
 20
1.755664
 10
6.915047
 20
1.756031
 10
6.900340
 20
1.756458
 10
6.885131
 20
1.756934
 10
6.869368
 20
1.757451
 10
6.853000
 20
1.758000
 10
6.836082
 20
1.758377
 10
6.818387
 20
1.758764
 10
6.800006
 20
1.759171
 10
6.781031
 20
1.759609
 10
6.761552
 20
1.760089
 10
6.741660
 20
1.760619
 10
6.721446
 20
1.761211
 10
6.701000
 20
1.761875
 10
6.680414
 20
1.762621
 10
6.659777
 20
1.763459
 10
6.639182
 20
1.764400
 10
6.618719
 20
1.765453
 10
6.598478
 20
1.766630
 10
6.578551
 20
1.767939
 10
6.559028
 20
1.769393
 10
6.540000
 20
1.771000
 10
6.521308
 20
1.772746
 10
6.502732
 20
1.774607
 10
6.484271
 20
1.776583
 10
6.465922
 20
1.778672
 10
6.447684
 20
1.780872
 10
6.429557
 20
1.783182
 10
6.411537
 20
1.785600
 10
6.393625
 20
1.788125
 10
6.375818
 20
1.790756
 10
6.358115
 20
1.793490
 10
6.340515
 20
1.796327
 10
6.323016
 20
1.799266
 10
6.305616
 20
1.802303
 10
6.288314
 20
1.805439
 10
6.271110
 20
1.808672
 10
6.254000
 20
1.812000
 10
6.237194
 20
1.815455
 10
6.220520
 20
1.819064
 10
6.203968
 20
1.822817
 10
6.187531
 20
1.826703
 10
6.171200
 20
1.830712
 10
6.154965
 20
1.834834
 10
6.138818
 20
1.839058
 10
6.122750
 20
1.843375
 10
6.106752
 20
1.847774
 10
6.090816
 20
1.852244
 10
6.074933
 20
1.856776
 10
6.059094
 20
1.861359
 10
6.043290
 20
1.865984
 10
6.027512
 20
1.870639
 10
6.011751
 20
1.875314
 10
5.996000
 20
1.880000
 10
5.980285
 20
1.884722
 10
5.964637
 20
1.889512
 10
5.949053
 20
1.894366
 10
5.933531
 20
1.899281
 10
5.918068
 20
1.904255
 10
5.902660
 20
1.909285
 10
5.887305
 20
1.914368
 10
5.872000
 20
1.919500
 10
5.856742
 20
1.924679
 10
5.841527
 20
1.929902
 10
5.826354
 20
1.935167
 10
5.811219
 20
1.940469
 10
5.796119
 20
1.945806
 10
5.781051
 20
1.951176
 10
5.766012
 20
1.956575
 10
5.751000
 20
1.962000
 10
5.735836
 20
1.967273
 10
5.720717
 20
1.972590
 10
5.705642
 20
1.977948
 10
5.690609
 20
1.983344
 10
5.675618
 20
1.988775
 10
5.660666
 20
1.994238
 10
5.645752
 20
1.999731
 10
5.630875
 20
2.005250
 10
5.616033
 20
2.010792
 10
5.601225
 20
2.016355
 10
5.586448
 20
2.021936
 10
5.571703
 20
2.027531
 10
5.556987
 20
2.033138
 10
5.542299
 20
2.038754
 10
5.527637
 20
2.044375
 10
5.513000
 20
2.050000
 10
5.498211
 20
2.055824
 10
5.483467
 20
2.061670
 10
5.468767
 20
2.067536
 10
5.454109
 20
2.073422
 10
5.439493
 20
2.079325
 10
5.424916
 20
2.085244
 10
5.410377
 20
2.091178
 10
5.395875
 20
2.097125
 10
5.381408
 20
2.103084
 10
5.366975
 20
2.109053
 10
5.352573
 20
2.115031
 10
5.338203
 20
2.121016
 10
5.323862
 20
2.127007
 10
5.309549
 20
2.133002
 10
5.295262
 20
2.139000
 10
5.281000
 20
2.145000
 10
5.266773
 20
2.151199
 10
5.252590
 20
2.157424
 10
5.238448
 20
2.163675
 10
5.224344
 20
2.169953
 10
5.210275
 20
2.176261
 10
5.196238
 20
2.182600
 10
5.182231
 20
2.188970
 10
5.168250
 20
2.195375
 10
5.154292
 20
2.201815
 10
5.140355
 20
2.208291
 10
5.126436
 20
2.214805
 10
5.112531
 20
2.221359
 10
5.098638
 20
2.227954
 10
5.084754
 20
2.234592
 10
5.070875
 20
2.241273
 10
5.057000
 20
2.248000
 10
5.043137
 20
2.254574
 10
5.029299
 20
2.261172
 10
5.015487
 20
2.267793
 10
5.001703
 20
2.274437
 10
4.987948
 20
2.281105
 10
4.974225
 20
2.287797
 10
4.960533
 20
2.294512
 10
4.946875
 20
2.301250
 10
4.933252
 20
2.308012
 10
4.919666
 20
2.314797
 10
4.906118
 20
2.321605
 10
4.892609
 20
2.328437
 10
4.879142
 20
2.335293
 10
4.865717
 20
2.342172
 10
4.852336
 20
2.349074
 10
4.839000
 20
2.356000
 10
4.825677
 20
2.363115
 10
4.812338
 20
2.370213
 10
4.798990
 20
2.377302
 10
4.785641
 20
2.384391
 10
4.772297
 20
2.391485
 10
4.758967
 20
2.398592
 10
4.745657
 20
2.405719
 10
4.732375
 20
2.412875
 10
4.719128
 20
2.420066
 10
4.705924
 20
2.427299
 10
4.692769
 20
2.434582
 10
4.679672
 20
2.441922
 10
4.666639
 20
2.449326
 10
4.653678
 20
2.456803
 10
4.640796
 20
2.464358
 10
4.628000
 20
2.472000
 10
4.615285
 20
2.479722
 10
4.602637
 20
2.487510
 10
4.590053
 20
2.495359
 10
4.577531
 20
2.503266
 10
4.565068
 20
2.511225
 10
4.552660
 20
2.519232
 10
4.540305
 20
2.527284
 10
4.528000
 20
2.535375
 10
4.515742
 20
2.543501
 10
4.503527
 20
2.551658
 10
4.491354
 20
2.559842
 10
4.479219
 20
2.568047
 10
4.467119
 20
2.576270
 10
4.455051
 20
2.584506
 10
4.443012
 20
2.592751
 10
4.431000
 20
2.601000
 10
4.418835
 20
2.609438
 10
4.406715
 20
2.617877
 10
4.394635
 20
2.626319
 10
4.382594
 20
2.634766
 10
4.370587
 20
2.643218
 10
4.358613
 20
2.651678
 10
4.346668
 20
2.660146
 10
4.334750
 20
2.668625
 10
4.322855
 20
2.677115
 10
4.310980
 20
2.685619
 10
4.299124
 20
2.694137
 10
4.287281
 20
2.702672
 10
4.275451
 20
2.711224
 10
4.263629
 20
2.719795
 10
4.251813
 20
2.728386
 10
4.240000
 20
2.737000
 10
4.228386
 20
2.745824
 10
4.216795
 20
2.754670
 10
4.205224
 20
2.763536
 10
4.193672
 20
2.772422
 10
4.182137
 20
2.781325
 10
4.170619
 20
2.790244
 10
4.159115
 20
2.799178
 10
4.147625
 20
2.808125
 10
4.136146
 20
2.817084
 10
4.124678
 20
2.826053
 10
4.113218
 20
2.835031
 10
4.101766
 20
2.844016
 10
4.090319
 20
2.853007
 10
4.078877
 20
2.862002
 10
4.067438
 20
2.871000
 10
4.056000
 20
2.880000
 10
4.044751
 20
2.889188
 10
4.033508
 20
2.898381
 10
4.022276
 20
2.907582
 10
4.011063
 20
2.916797
 10
3.999872
 20
2.926029
 10
3.988711
 20
2.935283
 10
3.977585
 20
2.944564
 10
3.966500
 20
2.953875
 10
3.955462
 20
2.963221
 10
3.944477
 20
2.972607
 10
3.933550
 20
2.982037
 10
3.922687
 20
2.991516
 10
3.911896
 20
3.001047
 10
3.901180
 20
3.010635
 10
3.890546
 20
3.020284
 10
3.880000
 20
3.030000
 10
3.869358
 20
3.039796
 10
3.858803
 20
3.049678
 10
3.848326
 20
3.059639
 10
3.837922
 20
3.069672
 10
3.827582
 20
3.079769
 10
3.817299
 20
3.089924
 10
3.807066
 20
3.100128
 10
3.796875
 20
3.110375
 10
3.786719
 20
3.120657
 10
3.776592
 20
3.130967
 10
3.766485
 20
3.141297
 10
3.756391
 20
3.151641
 10
3.746302
 20
3.161990
 10
3.736213
 20
3.172338
 10
3.726115
 20
3.182677
 10
3.716000
 20
3.193000
 10
3.706063
 20
3.203501
 10
3.696131
 20
3.214006
 10
3.686207
 20
3.224520
 10
3.676297
 20
3.235047
 10
3.666404
 20
3.245592
 10
3.656533
 20
3.256158
 10
3.646689
 20
3.266751
 10
3.636875
 20
3.277375
 10
3.627096
 20
3.288034
 10
3.617357
 20
3.298732
 10
3.607662
 20
3.309475
 10
3.598016
 20
3.320266
 10
3.588422
 20
3.331109
 10
3.578885
 20
3.342010
 10
3.569409
 20
3.352972
 10
3.560000
 20
3.364000
 10
3.550660
 20
3.374932
 10
3.541387
 20
3.385973
 10
3.532178
 20
3.397113
 10
3.523031
 20
3.408344
 10
3.513943
 20
3.419657
 10
3.504910
 20
3.431043
 10
3.495930
 20
3.442494
 10
3.487000
 20
3.454000
 10
3.478117
 20
3.465553
 10
3.469277
 20
3.477145
 10
3.460479
 20
3.488765
 10
3.451719
 20
3.500406
 10
3.442994
 20
3.512059
 10
3.434301
 20
3.523715
 10
3.425637
 20
3.535365
 10
3.417000
 20
3.547000
 10
3.408178
 20
3.558780
 10
3.399344
 20
3.570506
 10
3.390510
 20
3.582194
 10
3.381688
 20
3.593859
 10
3.372889
 20
3.605519
 10
3.364125
 20
3.617189
 10
3.355408
 20
3.628886
 10
3.346750
 20
3.640625
 10
3.338162
 20
3.652423
 10
3.329656
 20
3.664295
 10
3.321244
 20
3.676258
 10
3.312938
 20
3.688328
 10
3.304748
 20
3.700521
 10
3.296687
 20
3.712854
 10
3.288768
 20
3.725341
 10
3.281000
 20
3.738000
 10
3.273393
 20
3.750830
 10
3.265939
 20
3.763814
 10
3.258630
 20
3.776942
 10
3.251453
 20
3.790203
 10
3.244400
 20
3.803587
 10
3.237459
 20
3.817084
 10
3.230621
 20
3.830683
 10
3.223875
 20
3.844375
 10
3.217211
 20
3.858149
 10
3.210619
 20
3.871994
 10
3.204089
 20
3.885901
 10
3.197609
 20
3.899859
 10
3.191171
 20
3.913859
 10
3.184764
 20
3.927889
 10
3.178377
 20
3.941939
 10
3.172000
 20
3.956000
 10
3.165649
 20
3.969921
 10
3.159346
 20
3.983932
 10
3.153093
 20
3.998027
 10
3.146891
 20
4.012203
 10
3.140741
 20
4.026455
 10
3.134646
 20
4.040779
 10
3.128607
 20
4.055171
 10
3.122625
 20
4.069625
 10
3.116701
 20
4.084138
 10
3.110838
 20
4.098705
 10
3.105036
 20
4.113322
 10
3.099297
 20
4.127984
 10
3.093622
 20
4.142688
 10
3.088014
 20
4.157428
 10
3.082472
 20
4.172200
 10
3.077000
 20
4.187000
 10
3.071388
 20
4.201825
 10
3.065807
 20
4.216682
 10
3.060263
 20
4.231576
 10
3.054766
 20
4.246516
 10
3.049321
 20
4.261508
 10
3.043936
 20
4.276561
 10
3.038618
 20
4.291680
 10
3.033375
 20
4.306875
 10
3.028214
 20
4.322152
 10
3.023143
 20
4.337518
 10
3.018168
 20
4.352980
 10
3.013297
 20
4.368547
 10
3.008537
 20
4.384225
 10
3.003896
 20
4.400021
 10
2.999382
 20
4.415944
 10
2.995000
 20
4.432000
 10
2.990746
 20
4.448227
 10
2.986609
 20
4.464646
 10
2.982590
 20
4.481239
 10
2.978688
 20
4.497984
 10
2.974902
 20
4.514865
 10
2.971234
 20
4.531861
 10
2.967684
 20
4.548954
 10
2.964250
 20
4.566125
 10
2.960934
 20
4.583354
 10
2.957734
 20
4.600623
 10
2.954652
 20
4.617912
 10
2.951688
 20
4.635203
 10
2.948840
 20
4.652476
 10
2.946109
 20
4.669713
 10
2.943496
 20
4.686894
 10
2.941000
 20
4.704000
 10
2.938411
 20
4.721029
 10
2.935900
 20
4.738000
 10
2.933474
 20
4.754924
 10
2.931141
 20
4.771812
 10
2.928906
 20
4.788678
 10
2.926779
 20
4.805531
 10
2.924766
 20
4.822385
 10
2.922875
 20
4.839250
 10
2.921113
 20
4.856139
 10
2.919486
 20
4.873062
 10
2.918004
 20
4.890033
 10
2.916672
 20
4.907062
 10
2.915498
 20
4.924162
 10
2.914490
 20
4.941344
 10
2.913655
 20
4.958619
 10
2.913000
 20
4.976000
 10
2.912718
 20
4.993549
 10
2.912617
 20
5.011299
 10
2.912692
 20
5.029216
 10
2.912937
 20
5.047266
 10
2.913347
 20
5.065415
 10
2.913914
 20
5.083631
 10
2.914634
 20
5.101879
 10
2.915500
 20
5.120125
 10
2.916507
 20
5.138336
 10
2.917648
 20
5.156479
 10
2.918919
 20
5.174518
 10
2.920313
 20
5.192422
 10
2.921823
 20
5.210156
 10
2.923445
 20
5.227686
 10
2.925173
 20
5.244978
 10
2.927000
 20
5.262000
 10
2.928945
 20
5.278750
 10
2.931031
 20
5.295264
 10
2.933258
 20
5.311564
 10
2.935625
 20
5.327672
 10
2.938133
 20
5.343610
 10
2.940781
 20
5.359400
 10
2.943570
 20
5.375065
 10
2.946500
 20
5.390625
 10
2.949570
 20
5.406103
 10
2.952781
 20
5.421521
 10
2.956133
 20
5.436902
 10
2.959625
 20
5.452266
 10
2.963258
 20
5.467635
 10
2.967031
 20
5.483033
 10
2.970945
 20
5.498481
 10
2.975000
 20
5.514000
 10
2.979008
 20
5.529594
 10
2.983156
 20
5.545240
 10
2.987445
 20
5.560918
 10
2.991875
 20
5.576609
 10
2.996445
 20
5.592295
 10
3.001156
 20
5.607955
 10
3.006008
 20
5.623572
 10
3.011000
 20
5.639125
 10
3.016133
 20
5.654596
 10
3.021406
 20
5.669967
 10
3.026820
 20
5.685217
 10
3.032375
 20
5.700328
 10
3.038070
 20
5.715281
 10
3.043906
 20
5.730057
 10
3.049883
 20
5.744636
 10
3.056000
 20
5.759000
 10
3.062280
 20
5.773158
 10
3.068736
 20
5.787139
 10
3.075360
 20
5.800952
 10
3.082141
 20
5.814609
 10
3.089068
 20
5.828120
 10
3.096131
 20
5.841494
 10
3.103320
 20
5.854742
 10
3.110625
 20
5.867875
 10
3.118035
 20
5.880902
 10
3.125541
 20
5.893834
 10
3.133132
 20
5.906681
 10
3.140797
 20
5.919453
 10
3.148527
 20
5.932161
 10
3.156311
 20
5.944814
 10
3.164138
 20
5.957424
 10
3.172000
 20
5.970000
 10
3.179899
 20
5.982527
 10
3.187852
 20
5.994980
 10
3.195862
 20
6.007358
 10
3.203938
 20
6.019656
 10
3.212083
 20
6.031873
 10
3.220305
 20
6.044004
 10
3.228608
 20
6.056047
 10
3.237000
 20
6.068000
 10
3.245485
 20
6.079859
 10
3.254070
 20
6.091621
 10
3.262761
 20
6.103284
 10
3.271562
 20
6.114844
 10
3.280481
 20
6.126298
 10
3.289523
 20
6.137645
 10
3.298694
 20
6.148879
 10
3.308000
 20
6.160000
 10
3.317433
 20
6.171004
 10
3.326980
 20
6.181895
 10
3.336639
 20
6.192673
 10
3.346406
 20
6.203344
 10
3.356279
 20
6.213909
 10
3.366254
 20
6.224371
 10
3.376329
 20
6.234734
 10
3.386500
 20
6.245000
 10
3.396765
 20
6.255172
 10
3.407121
 20
6.265254
 10
3.417565
 20
6.275248
 10
3.428094
 20
6.285156
 10
3.438705
 20
6.294983
 10
3.449395
 20
6.304730
 10
3.460161
 20
6.314402
 10
3.471000
 20
6.324000
 10
3.481910
 20
6.333516
 10
3.492893
 20
6.342939
 10
3.503948
 20
6.352272
 10
3.515078
 20
6.361516
 10
3.526284
 20
6.370671
 10
3.537568
 20
6.379740
 10
3.548931
 20
6.388724
 10
3.560375
 20
6.397625
 10
3.571901
 20
6.406444
 10
3.583510
 20
6.415182
 10
3.595204
 20
6.423841
 10
3.606984
 20
6.432422
 10
3.618853
 20
6.440927
 10
3.630811
 20
6.449357
 10
3.642859
 20
6.457715
 10
3.655000
 20
6.466000
 10
3.667190
 20
6.474413
 10
3.679393
 20
6.482770
 10
3.691622
 20
6.491062
 10
3.703891
 20
6.499281
 10
3.716212
 20
6.507418
 10
3.728600
 20
6.515465
 10
3.741066
 20
6.523412
 10
3.753625
 20
6.531250
 10
3.766289
 20
6.538971
 10
3.779072
 20
6.546566
 10
3.791987
 20
6.554027
 10
3.805047
 20
6.561344
 10
3.818265
 20
6.568508
 10
3.831654
 20
6.575512
 10
3.845228
 20
6.582345
 10
3.859000
 20
6.589000
 10
3.872923
 20
6.595514
 10
3.886945
 20
6.601928
 10
3.901073
 20
6.608233
 10
3.915313
 20
6.614422
 10
3.929669
 20
6.620488
 10
3.944148
 20
6.626424
 10
3.958757
 20
6.632222
 10
3.973500
 20
6.637875
 10
3.988384
 20
6.643376
 10
4.003414
 20
6.648717
 10
4.018597
 20
6.653891
 10
4.033938
 20
6.658891
 10
4.049442
 20
6.663709
 10
4.065117
 20
6.668338
 10
4.080968
 20
6.672771
 10
4.097000
 20
6.677000
 10
4.113416
 20
6.681241
 10
4.130029
 20
6.685338
 10
4.146827
 20
6.689285
 10
4.163797
 20
6.693078
 10
4.180925
 20
6.696713
 10
4.198197
 20
6.700186
 10
4.215602
 20
6.703491
 10
4.233125
 20
6.706625
 10
4.250754
 20
6.709583
 10
4.268475
 20
6.712361
 10
4.286275
 20
6.714955
 10
4.304141
 20
6.717359
 10
4.322059
 20
6.719571
 10
4.340018
 20
6.721584
 10
4.358002
 20
6.723395
 10
4.376000
 20
6.725000
 10
4.394300
 20
6.726417
 10
4.412803
 20
6.727666
 10
4.431479
 20
6.728742
 10
4.450297
 20
6.729641
 10
4.469226
 20
6.730358
 10
4.488236
 20
6.730889
 10
4.507296
 20
6.731229
 10
4.526375
 20
6.731375
 10
4.545442
 20
6.731322
 10
4.564467
 20
6.731064
 10
4.583418
 20
6.730599
 10
4.602266
 20
6.729922
 10
4.620978
 20
6.729028
 10
4.639525
 20
6.727912
 10
4.657876
 20
6.726571
 10
4.676000
 20
6.725000
 10
4.693776
 20
6.723163
 10
4.711477
 20
6.721039
 10
4.729095
 20
6.718646
 10
4.746625
 20
6.716000
 10
4.764062
 20
6.713120
 10
4.781398
 20
6.710023
 10
4.798630
 20
6.706728
 10
4.815750
 20
6.703250
 10
4.832753
 20
6.699608
 10
4.849633
 20
6.695820
 10
4.866384
 20
6.691903
 10
4.883000
 20
6.687875
 10
4.899476
 20
6.683753
 10
4.915805
 20
6.679555
 10
4.931981
 20
6.675298
 10
4.948000
 20
6.671000
 10
4.963867
 20
6.666430
 10
4.979596
 20
6.661721
 10
4.995186
 20
6.656874
 10
5.010641
 20
6.651891
 10
5.025960
 20
6.646773
 10
5.041146
 20
6.641521
 10
5.056201
 20
6.636138
 10
5.071125
 20
6.630625
 10
5.085920
 20
6.624983
 10
5.100588
 20
6.619213
 10
5.115130
 20
6.613317
 10
5.129547
 20
6.607297
 10
5.143841
 20
6.601154
 10
5.158014
 20
6.594889
 10
5.172066
 20
6.588504
 10
5.186000
 20
6.582000
 10
5.199750
 20
6.575323
 10
5.213264
 20
6.568432
 10
5.226564
 20
6.561344
 10
5.239672
 20
6.554078
 10
5.252610
 20
6.546655
 10
5.265400
 20
6.539092
 10
5.278065
 20
6.531409
 10
5.290625
 20
6.523625
 10
5.303103
 20
6.515759
 10
5.315521
 20
6.507830
 10
5.327902
 20
6.499857
 10
5.340266
 20
6.491859
 10
5.352635
 20
6.483856
 10
5.365033
 20
6.475865
 10
5.377481
 20
6.467907
 10
5.390000
 20
6.460000
 10
5.402573
 20
6.452135
 10
5.415160
 20
6.444283
 10
5.427753
 20
6.436434
 10
5.440344
 20
6.428578
 10
5.452922
 20
6.420704
 10
5.465480
 20
6.412803
 10
5.478009
 20
6.404863
 10
5.490500
 20
6.396875
 10
5.502944
 20
6.388828
 10
5.515332
 20
6.380713
 10
5.527656
 20
6.372518
 10
5.539906
 20
6.364234
 10
5.552075
 20
6.355851
 10
5.564152
 20
6.347357
 10
5.576130
 20
6.338744
 10
5.588000
 20
6.330000
 10
5.599579
 20
6.321317
 10
5.611066
 20
6.312523
 10
5.622466
 20
6.303624
 10
5.633781
 20
6.294625
 10
5.645014
 20
6.285532
 10
5.656168
 20
6.276352
 10
5.667246
 20
6.267089
 10
5.678250
 20
6.257750
 10
5.689184
 20
6.248341
 10
5.700051
 20
6.238867
 10
5.710853
 20
6.229335
 10
5.721594
 20
6.219750
 10
5.732276
 20
6.210118
 10
5.742902
 20
6.200445
 10
5.753476
 20
6.190737
 10
5.764000
 20
6.181000
 10
5.774664
 20
6.171215
 10
5.785279
 20
6.161361
 10
5.795845
 20
6.151440
 10
5.806359
 20
6.141453
 10
5.816821
 20
6.131402
 10
5.827229
 20
6.121287
 10
5.837580
 20
6.111111
 10
5.847875
 20
6.100875
 10
5.858111
 20
6.090580
 10
5.868287
 20
6.080229
 10
5.878402
 20
6.069821
 10
5.888453
 20
6.059359
 10
5.898440
 20
6.048845
 10
5.908361
 20
6.038279
 10
5.918215
 20
6.027664
 10
5.928000
 20
6.017000
 10
5.937704
 20
6.006432
 10
5.947322
 20
5.995736
 10
5.956861
 20
5.984927
 10
5.966328
 20
5.974016
 10
5.975731
 20
5.963017
 10
5.985076
 20
5.951943
 10
5.994372
 20
5.940808
 10
6.003625
 20
5.929625
 10
6.012843
 20
5.918406
 10
6.022033
 20
5.907166
 10
6.031203
 20
5.895917
 10
6.040359
 20
5.884672
 10
6.049510
 20
5.873445
 10
6.058662
 20
5.862248
 10
6.067823
 20
5.851095
 10
6.077000
 20
5.840000
 10
6.086353
 20
5.828916
 10
6.095668
 20
5.817795
 10
6.104954
 20
5.806648
 10
6.114219
 20
5.795484
 10
6.123472
 20
5.784315
 10
6.132723
 20
5.773150
 10
6.141979
 20
5.762000
 10
6.151250
 20
5.750875
 10
6.160544
 20
5.739785
 10
6.169871
 20
5.728740
 10
6.179239
 20
5.717751
 10
6.188656
 20
5.706828
 10
6.198132
 20
5.695981
 10
6.207676
 20
5.685221
 10
6.217295
 20
5.674557
 10
6.227000
 20
5.664000
 10
6.236785
 20
5.653336
 10
6.246639
 20
5.642721
 10
6.256560
 20
5.632155
 10
6.266547
 20
5.621641
 10
6.276598
 20
5.611179
 10
6.286713
 20
5.600771
 10
6.296889
 20
5.590420
 10
6.307125
 20
5.580125
 10
6.317420
 20
5.569889
 10
6.327771
 20
5.559713
 10
6.338179
 20
5.549598
 10
6.348641
 20
5.539547
 10
6.359155
 20
5.529560
 10
6.369721
 20
5.519639
 10
6.380336
 20
5.509785
 10
6.391000
 20
5.500000
 10
6.401535
 20
5.490274
 10
6.412139
 20
5.480596
 10
6.422810
 20
5.470968
 10
6.433547
 20
5.461391
 10
6.444348
 20
5.451866
 10
6.455213
 20
5.442396
 10
6.466139
 20
5.432982
 10
6.477125
 20
5.423625
 10
6.488170
 20
5.414326
 10
6.499271
 20
5.405088
 10
6.510429
 20
5.395911
 10
6.521641
 20
5.386797
 10
6.532905
 20
5.377747
 10
6.544221
 20
5.368764
 10
6.555586
 20
5.359847
 10
6.567000
 20
5.351000
 10
6.578637
 20
5.342035
 10
6.590301
 20
5.333137
 10
6.601994
 20
5.324303
 10
6.613719
 20
5.315531
 10
6.625479
 20
5.306818
 10
6.637277
 20
5.298160
 10
6.649117
 20
5.289555
 10
6.661000
 20
5.281000
 10
6.672930
 20
5.272492
 10
6.684910
 20
5.264027
 10
6.696943
 20
5.255604
 10
6.709031
 20
5.247219
 10
6.721178
 20
5.238869
 10
6.733387
 20
5.230551
 10
6.745660
 20
5.222262
 10
6.758000
 20
5.214000
 10
6.770409
 20
5.205983
 10
6.782885
 20
5.198053
 10
6.795422
 20
5.190201
 10
6.808016
 20
5.182422
 10
6.820662
 20
5.174707
 10
6.833357
 20
5.167049
 10
6.846096
 20
5.159441
 10
6.858875
 20
5.151875
 10
6.871689
 20
5.144344
 10
6.884533
 20
5.136842
 10
6.897404
 20
5.129360
 10
6.910297
 20
5.121891
 10
6.923207
 20
5.114427
 10
6.936131
 20
5.106963
 10
6.949063
 20
5.099490
 10
6.962000
 20
5.092000
 10
6.974960
 20
5.084523
 10
6.987965
 20
5.077090
 10
7.001010
 20
5.069698
 10
7.014094
 20
5.062344
 10
7.027212
 20
5.055025
 10
7.040363
 20
5.047738
 10
7.053543
 20
5.040481
 10
7.066750
 20
5.033250
 10
7.079980
 20
5.026042
 10
7.093230
 20
5.018855
 10
7.106499
 20
5.011686
 10
7.119781
 20
5.004531
 10
7.133076
 20
4.997388
 10
7.146379
 20
4.990254
 10
7.159688
 20
4.983125
 10
7.173000
 20
4.976000
 10
7.186533
 20
4.969107
 10
7.200127
 20
4.962293
 10
7.213770
 20
4.955543
 10
7.227453
 20
4.948844
 10
7.241165
 20
4.942179
 10
7.254896
 20
4.935535
 10
7.268636
 20
4.928897
 10
7.282375
 20
4.922250
 10
7.296102
 20
4.915580
 10
7.309807
 20
4.908871
 10
7.323479
 20
4.902110
 10
7.337109
 20
4.895281
 10
7.350687
 20
4.888371
 10
7.364201
 20
4.881363
 10
7.377642
 20
4.874245
 10
7.391000
 20
4.867000
 10
7.404091
 20
4.859829
 10
7.417115
 20
4.852570
 10
7.430078
 20
4.845229
 10
7.442984
 20
4.837813
 10
7.455838
 20
4.830325
 10
7.468643
 20
4.822773
 10
7.481404
 20
4.815163
 10
7.494125
 20
4.807500
 10
7.506811
 20
4.799790
 10
7.519467
 20
4.792039
 10
7.532096
 20
4.784253
 10
7.544703
 20
4.776438
 10
7.557293
 20
4.768599
 10
7.569869
 20
4.760742
 10
7.582437
 20
4.752874
 10
7.595000
 20
4.745000
 10
7.607583
 20
4.737146
 10
7.620199
 20
4.729326
 10
7.632833
 20
4.721527
 10
7.645469
 20
4.713734
 10
7.658093
 20
4.705936
 10
7.670691
 20
4.698119
 10
7.683249
 20
4.690270
 10
7.695750
 20
4.682375
 10
7.708181
 20
4.674422
 10
7.720527
 20
4.666396
 10
7.732774
 20
4.658286
 10
7.744906
 20
4.650078
 10
7.756910
 20
4.641759
 10
7.768770
 20
4.633314
 10
7.780471
 20
4.624733
 10
7.792000
 20
4.616000
 10
7.803533
 20
4.606931
 10
7.814891
 20
4.597729
 10
7.826084
 20
4.588400
 10
7.837125
 20
4.578953
 10
7.848025
 20
4.569395
 10
7.858797
 20
4.559732
 10
7.869451
 20
4.549973
 10
7.880000
 20
4.540125
 10
7.890455
 20
4.530195
 10
7.900828
 20
4.520189
 10
7.911131
 20
4.510117
 10
7.921375
 20
4.499984
 10
7.931572
 20
4.489799
 10
7.941734
 20
4.479568
 10
7.951873
 20
4.469300
 10
7.962000
 20
4.459000
 10
7.972289
 20
4.448851
 10
7.982527
 20
4.438652
 10
7.992713
 20
4.428401
 10
8.002844
 20
4.418094
 10
8.012916
 20
4.407728
 10
8.022926
 20
4.397301
 10
8.032872
 20
4.386809
 10
8.042750
 20
4.376250
 10
8.052558
 20
4.365621
 10
8.062293
 20
4.354918
 10
8.071952
 20
4.344139
 10
8.081531
 20
4.333281
 10
8.091029
 20
4.322341
 10
8.100441
 20
4.311316
 10
8.109766
 20
4.300204
 10
8.119000
 20
4.289000
 10
8.128141
 20
4.277703
 10
8.137189
 20
4.266314
 10
8.146147
 20
4.254835
 10
8.155016
 20
4.243266
 10
8.163796
 20
4.231609
 10
8.172490
 20
4.219865
 10
8.181099
 20
4.208037
 10
8.189625
 20
4.196125
 10
8.198069
 20
4.184131
 10
8.206432
 20
4.172057
 10
8.214716
 20
4.159903
 10
8.222922
 20
4.147672
 10
8.231052
 20
4.135365
 10
8.239107
 20
4.122982
 10
8.247090
 20
4.110527
 10
8.255000
 20
4.098000
 10
8.262862
 20
4.085589
 10
8.270689
 20
4.073102
 10
8.278473
 20
4.060532
 10
8.286203
 20
4.047875
 10
8.293868
 20
4.035124
 10
8.301459
 20
4.022273
 10
8.308965
 20
4.009317
 10
8.316375
 20
3.996250
 10
8.323680
 20
3.983065
 10
8.330869
 20
3.969758
 10
8.337932
 20
3.956321
 10
8.344859
 20
3.942750
 10
8.351640
 20
3.929038
 10
8.358264
 20
3.915180
 10
8.364720
 20
3.901169
 10
8.371000
 20
3.887000
 10
8.377150
 20
3.872845
 10
8.383217
 20
3.858510
 10
8.389187
 20
3.844002
 10
8.395047
 20
3.829328
 10
8.400784
 20
3.814496
 10
8.406385
 20
3.799514
 10
8.411836
 20
3.784387
 10
8.417125
 20
3.769125
 10
8.422238
 20
3.753734
 10
8.427162
 20
3.738221
 10
8.431884
 20
3.722594
 10
8.436391
 20
3.706859
 10
8.440669
 20
3.691026
 10
8.444705
 20
3.675100
 10
8.448487
 20
3.659089
 10
8.452000
 20
3.643000
 10
8.455259
 20
3.626608
 10
8.458289
 20
3.610064
 10
8.461097
 20
3.593384
 10
8.463688
 20
3.576578
 10
8.466067
 20
3.559661
 10
8.468242
 20
3.542646
 10
8.470218
 20
3.525547
 10
8.472000
 20
3.508375
 10
8.473595
 20
3.491145
 10
8.475008
 20
3.473869
 10
8.476245
 20
3.456561
 10
8.477313
 20
3.439234
 10
8.478216
 20
3.421902
 10
8.478961
 20
3.404576
 10
8.479554
 20
3.387271
 10
8.480000
 20
3.370000
 10
8.480094
 20
3.352694
 10
8.480000
 20
3.335289
 10
8.479719
 20
3.317802
 10
8.479250
 20
3.300250
 10
8.478594
 20
3.282651
 10
8.477750
 20
3.265023
 10
8.476719
 20
3.247384
 10
8.475500
 20
3.229750
 10
8.474094
 20
3.212140
 10
8.472500
 20
3.194570
 10
8.470719
 20
3.177060
 10
8.468750
 20
3.159625
 10
8.466594
 20
3.142284
 10
8.464250
 20
3.125055
 10
8.461719
 20
3.107954
 10
8.459000
 20
3.091000
 10
8.456061
 20
3.074326
 10
8.452879
 20
3.057684
 10
8.449468
 20
3.041083
 10
8.445844
 20
3.024531
 10
8.442020
 20
3.008039
 10
8.438012
 20
2.991613
 10
8.433833
 20
2.975264
 10
8.429500
 20
2.959000
 10
8.425026
 20
2.942830
 10
8.420426
 20
2.926762
 10
8.415714
 20
2.910805
 10
8.410906
 20
2.894969
 10
8.406016
 20
2.879261
 10
8.401059
 20
2.863691
 10
8.396048
 20
2.848268
 10
8.391000
 20
2.833000
 10
8.385890
 20
2.817672
 10
8.380684
 20
2.802441
 10
8.375377
 20
2.787310
 10
8.369969
 20
2.772281
 10
8.364455
 20
2.757358
 10
8.358832
 20
2.742543
 10
8.353098
 20
2.727839
 10
8.347250
 20
2.713250
 10
8.341285
 20
2.698778
 10
8.335199
 20
2.684426
 10
8.328991
 20
2.670197
 10
8.322656
 20
2.656094
 10
8.316193
 20
2.642120
 10
8.309598
 20
2.628277
 10
8.302868
 20
2.614570
 10
8.296000
 20
2.601000
 10
8.288794
 20
2.587768
 10
8.281434
 20
2.574693
 10
8.273926
 20
2.561768
 10
8.266281
 20
2.548984
 10
8.258507
 20
2.536336
 10
8.250613
 20
2.523814
 10
8.242608
 20
2.511413
 10
8.234500
 20
2.499125
 10
8.226298
 20
2.486942
 10
8.218012
 20
2.474857
 10
8.209649
 20
2.462864
 10
8.201219
 20
2.450953
 10
8.192730
 20
2.439119
 10
8.184191
 20
2.427354
 10
8.175612
 20
2.415650
 10
8.167000
 20
2.404000
 10
8.158163
 20
2.392399
 10
8.149275
 20
2.380850
 10
8.140332
 20
2.369356
 10
8.131328
 20
2.357922
 10
8.122260
 20
2.346552
 10
8.113123
 20
2.335252
 10
8.103913
 20
2.324025
 10
8.094625
 20
2.312875
 10
8.085255
 20
2.301807
 10
8.075799
 20
2.290826
 10
8.066252
 20
2.279936
 10
8.056609
 20
2.269141
 10
8.046867
 20
2.258445
 10
8.037021
 20
2.247854
 10
8.027067
 20
2.237370
 10
8.017000
 20
2.227000
 10
8.006630
 20
2.216933
 10
7.996146
 20
2.206979
 10
7.985555
 20
2.197133
 10
7.974859
 20
2.187391
 10
7.964064
 20
2.177748
 10
7.953174
 20
2.168201
 10
7.942193
 20
2.158745
 10
7.931125
 20
2.149375
 10
7.919975
 20
2.140087
 10
7.908748
 20
2.130877
 10
7.897448
 20
2.121740
 10
7.886078
 20
2.112672
 10
7.874644
 20
2.103668
 10
7.863150
 20
2.094725
 10
7.851601
 20
2.085837
 10
7.840000
 20
2.077000
 10
7.828339
 20
2.068399
 10
7.816605
 20
2.059850
 10
7.804795
 20
2.051356
 10
7.792906
 20
2.042922
 10
7.780935
 20
2.034552
 10
7.768879
 20
2.026252
 10
7.756735
 20
2.018025
 10
7.744500
 20
2.009875
 10
7.732171
 20
2.001807
 10
7.719746
 20
1.993826
 10
7.707221
 20
1.985936
 10
7.694594
 20
1.978141
 10
7.681861
 20
1.970445
 10
7.669020
 20
1.962854
 10
7.656067
 20
1.955370
 10
7.643000
 20
1.948000
 10
7.629476
 20
1.940889
 10
7.615572
 20
1.933814
 10
7.601355
 20
1.926790
 10
7.586891
 20
1.919828
 10
7.572244
 20
1.912943
 10
7.557482
 20
1.906146
 10
7.542671
 20
1.899453
 10
7.527875
 20
1.892875
 10
7.513161
 20
1.886426
 10
7.498596
 20
1.880119
 10
7.484244
 20
1.873968
 10
7.470172
 20
1.867984
 10
7.456446
 20
1.862183
 10
7.443131
 20
1.856576
 10
7.430294
 20
1.851177
 10
7.418000
 20
1.846000
 10
7.406492
 20
1.841030
 10
7.395547
 20
1.836242
 10
7.385094
 20
1.831630
 10
7.375062
 20
1.827187
 10
7.365383
 20
1.822909
 10
7.355984
 20
1.818789
 10
7.346797
 20
1.814821
 10
7.337750
 20
1.811000
 10
7.328773
 20
1.807319
 10
7.319797
 20
1.803773
 10
7.310750
 20
1.800356
 10
7.301562
 20
1.797062
 10
7.292164
 20
1.793886
 10
7.282484
 20
1.790820
 10
7.272453
 20
1.787860
 10
7.262000
 20
1.785000
 10
7.251044
 20
1.782269
 10
7.239930
 20
1.779697
 10
7.228663
 20
1.777281
 10
7.217250
 20
1.775016
 10
7.205696
 20
1.772897
 10
7.194008
 20
1.770920
 10
7.182190
 20
1.769081
 10
7.170250
 20
1.767375
 10
7.158192
 20
1.765798
 10
7.146023
 20
1.764346
 10
7.133749
 20
1.763013
 10
7.121375
 20
1.761797
 10
7.108907
 20
1.760692
 10
7.096352
 20
1.759693
 10
7.083714
 20
1.758798
 10
7.071000
 20
1.758000
  0
LWPOLYLINE
  8
ENGRAVE
 90
1137
 70
1
 10
3.655000
 20
8.780000
 10
3.643967
 20
8.779308
 10
3.632971
 20
8.778729
 10
3.621977
 20
8.778258
 10
3.610953
 20
8.777891
 10
3.599865
 20
8.777623
 10
3.588678
 20
8.777451
 10
3.577359
 20
8.777370
 10
3.565875
 20
8.777375
 10
3.554192
 20
8.777462
 10
3.542275
 20
8.777627
 10
3.530093
 20
8.777865
 10
3.517609
 20
8.778172
 10
3.504792
 20
8.778543
 10
3.491607
 20
8.778975
 10
3.478021
 20
8.779462
 10
3.464000
 20
8.780000
 10
3.449576
 20
8.780587
 10
3.434484
 20
8.781229
 10
3.418807
 20
8.781931
 10
3.402625
 20
8.782703
 10
3.386021
 20
8.783551
 10
3.369078
 20
8.784482
 10
3.351877
 20
8.785505
 10
3.334500
 20
8.786625
 10
3.317029
 20
8.787851
 10
3.299547
 20
8.789189
 10
3.282135
 20
8.790648
 10
3.264875
 20
8.792234
 10
3.247850
 20
8.793955
 10
3.231141
 20
8.795818
 10
3.214830
 20
8.797831
 10
3.199000
 20
8.800000
 10
3.183508
 20
8.802496
 10
3.168156
 20
8.805111
 10
3.152945
 20
8.807846
 10
3.137875
 20
8.810703
 10
3.122945
 20
8.813683
 10
3.108156
 20
8.816787
 10
3.093508
 20
8.820017
 10
3.079000
 20
8.823375
 10
3.064633
 20
8.826862
 10
3.050406
 20
8.830479
 10
3.036320
 20
8.834227
 10
3.022375
 20
8.838109
 10
3.008570
 20
8.842126
 10
2.994906
 20
8.846279
 10
2.981383
 20
8.850570
 10
2.968000
 20
8.855000
 10
2.954592
 20
8.859570
 10
2.941363
 20
8.864277
 10
2.928304
 20
8.869120
 10
2.915406
 20
8.874094
 10
2.902661
 20
8.879197
 10
2.890059
 20
8.884426
 10
2.877591
 20
8.889778
 10
2.865250
 20
8.895250
 10
2.853026
 20
8.900839
 10
2.840910
 20
8.906543
 10
2.828894
 20
8.912358
 10
2.816969
 20
8.918281
 10
2.805125
 20
8.924310
 10
2.793355
 20
8.930441
 10
2.781650
 20
8.936672
 10
2.770000
 20
8.943000
 10
2.758643
 20
8.949455
 10
2.747438
 20
8.956064
 10
2.736373
 20
8.962817
 10
2.725437
 20
8.969703
 10
2.714619
 20
8.976712
 10
2.703906
 20
8.983834
 10
2.693287
 20
8.991058
 10
2.682750
 20
8.998375
 10
2.672283
 20
9.005774
 10
2.661875
 20
9.013244
 10
2.651514
 20
9.020776
 10
2.641188
 20
9.028359
 10
2.630885
 20
9.035984
 10
2.620594
 20
9.043639
 10
2.610303
 20
9.051314
 10
2.600000
 20
9.059000
 10
2.589887
 20
9.066700
 10
2.579803
 20
9.074428
 10
2.569750
 20
9.082188
 10
2.559734
 20
9.089984
 10
2.549760
 20
9.097822
 10
2.539830
 20
9.105705
 10
2.529950
 20
9.113638
 10
2.520125
 20
9.121625
 10
2.510358
 20
9.129671
 10
2.500654
 20
9.137779
 10
2.491018
 20
9.145955
 10
2.481453
 20
9.154203
 10
2.471965
 20
9.162527
 10
2.462557
 20
9.170932
 10
2.453234
 20
9.179421
 10
2.444000
 20
9.188000
 10
2.434859
 20
9.196848
 10
2.425811
 20
9.205766
 10
2.416853
 20
9.214754
 10
2.407984
 20
9.223813
 10
2.399204
 20
9.232941
 10
2.390510
 20
9.242141
 10
2.381901
 20
9.251410
 10
2.373375
 20
9.260750
 10
2.364931
 20
9.270160
 10
2.356568
 20
9.279641
 10
2.348284
 20
9.289191
 10
2.340078
 20
9.298813
 10
2.331948
 20
9.308504
 10
2.323893
 20
9.318266
 10
2.315910
 20
9.328098
 10
2.308000
 20
9.338000
 10
2.300160
 20
9.347984
 10
2.292393
 20
9.358061
 10
2.284698
 20
9.368228
 10
2.277078
 20
9.378484
 10
2.269534
 20
9.388829
 10
2.262068
 20
9.399260
 10
2.254681
 20
9.409776
 10
2.247375
 20
9.420375
 10
2.240151
 20
9.431056
 10
2.233010
 20
9.441818
 10
2.225954
 20
9.452659
 10
2.218984
 20
9.463578
 10
2.212103
 20
9.474573
 10
2.205311
 20
9.485643
 10
2.198609
 20
9.496785
 10
2.192000
 20
9.508000
 10
2.185462
 20
9.519286
 10
2.178977
 20
9.530645
 10
2.172550
 20
9.542080
 10
2.166187
 20
9.553594
 10
2.159896
 20
9.565190
 10
2.153680
 20
9.576871
 10
2.147546
 20
9.588640
 10
2.141500
 20
9.600500
 10
2.135548
 20
9.612454
 10
2.129695
 20
9.624504
 10
2.123948
 20
9.636654
 10
2.118313
 20
9.648906
 10
2.112794
 20
9.661264
 10
2.107398
 20
9.673730
 10
2.102132
 20
9.686308
 10
2.097000
 20
9.699000
 10
2.091985
 20
9.711797
 10
2.087064
 20
9.724689
 10
2.082241
 20
9.737678
 10
2.077516
 20
9.750766
 10
2.072890
 20
9.763952
 10
2.068365
 20
9.777240
 10
2.063943
 20
9.790631
 10
2.059625
 20
9.804125
 10
2.055412
 20
9.817725
 10
2.051307
 20
9.831432
 10
2.047309
 20
9.845247
 10
2.043422
 20
9.859172
 10
2.039646
 20
9.873208
 10
2.035982
 20
9.887357
 10
2.032433
 20
9.901621
 10
2.029000
 20
9.916000
 10
2.025650
 20
9.930694
 10
2.022357
 20
9.945518
 10
2.019132
 20
9.960462
 10
2.015984
 20
9.975516
 10
2.012925
 20
9.990669
 10
2.009963
 20
10.005912
 10
2.007110
 20
10.021234
 10
2.004375
 20
10.036625
 10
2.001769
 20
10.052074
 10
1.999303
 20
10.067572
 10
1.996986
 20
10.083108
 10
1.994828
 20
10.098672
 10
1.992841
 20
10.114253
 10
1.991033
 20
10.129842
 10
1.989416
 20
10.145427
 10
1.988000
 20
10.161000
 10
1.986792
 20
10.176807
 10
1.985785
 20
10.192719
 10
1.984972
 20
10.208725
 10
1.984344
 20
10.224812
 10
1.983891
 20
10.240971
 10
1.983605
 20
10.257188
 10
1.983478
 20
10.273451
 10
1.983500
 20
10.289750
 10
1.983663
 20
10.306072
 10
1.983957
 20
10.322406
 10
1.984375
 20
10.338740
 10
1.984906
 20
10.355063
 10
1.985543
 20
10.371361
 10
1.986277
 20
10.387625
 10
1.987099
 20
10.403842
 10
1.988000
 20
10.420000
 10
1.988842
 20
10.436158
 10
1.989857
 20
10.452375
 10
1.991034
 20
10.468639
 10
1.992359
 20
10.484938
 10
1.993819
 20
10.501260
 10
1.995400
 20
10.517594
 10
1.997090
 20
10.533928
 10
1.998875
 20
10.550250
 10
2.000742
 20
10.566549
 10
2.002678
 20
10.582812
 10
2.004669
 20
10.599029
 10
2.006703
 20
10.615187
 10
2.008766
 20
10.631275
 10
2.010846
 20
10.647281
 10
2.012928
 20
10.663193
 10
2.015000
 20
10.679000
 10
2.017097
 20
10.694715
 10
2.019264
 20
10.710363
 10
2.021497
 20
10.725947
 10
2.023797
 20
10.741469
 10
2.026161
 20
10.756932
 10
2.028588
 20
10.772340
 10
2.031076
 20
10.787695
 10
2.033625
 20
10.803000
 10
2.036232
 20
10.818258
 10
2.038896
 20
10.833473
 10
2.041616
 20
10.848646
 10
2.044391
 20
10.863781
 10
2.047218
 20
10.878881
 10
2.050096
 20
10.893949
 10
2.053024
 20
10.908988
 10
2.056000
 20
10.924000
 10
2.059023
 20
10.938789
 10
2.062094
 20
10.953531
 10
2.065211
 20
10.968227
 10
2.068375
 20
10.982875
 10
2.071586
 20
10.997477
 10
2.074844
 20
11.012031
 10
2.078148
 20
11.026539
 10
2.081500
 20
11.041000
 10
2.084898
 20
11.055414
 10
2.088344
 20
11.069781
 10
2.091836
 20
11.084102
 10
2.095375
 20
11.098375
 10
2.098961
 20
11.112602
 10
2.102594
 20
11.126781
 10
2.106273
 20
11.140914
 10
2.110000
 20
11.155000
 10
2.113950
 20
11.169028
 10
2.117926
 20
11.182988
 10
2.121931
 20
11.196884
 10
2.125969
 20
11.210719
 10
2.130042
 20
11.224495
 10
2.134152
 20
11.238215
 10
2.138304
 20
11.251882
 10
2.142500
 20
11.265500
 10
2.146743
 20
11.279071
 10
2.151035
 20
11.292598
 10
2.155380
 20
11.306083
 10
2.159781
 20
11.319531
 10
2.164241
 20
11.332944
 10
2.168762
 20
11.346324
 10
2.173347
 20
11.359675
 10
2.178000
 20
11.373000
 10
2.182733
 20
11.386091
 10
2.187553
 20
11.399115
 10
2.192451
 20
11.412078
 10
2.197422
 20
11.424984
 10
2.202457
 20
11.437838
 10
2.207549
 20
11.450643
 10
2.212691
 20
11.463404
 10
2.217875
 20
11.476125
 10
2.223094
 20
11.488811
 10
2.228342
 20
11.501467
 10
2.233610
 20
11.514096
 10
2.238891
 20
11.526703
 10
2.244177
 20
11.539293
 10
2.249463
 20
11.551869
 10
2.254740
 20
11.564437
 10
2.260000
 20
11.577000
 10
2.265284
 20
11.589529
 10
2.270633
 20
11.601994
 10
2.276040
 20
11.614404
 10
2.281500
 20
11.626766
 10
2.287007
 20
11.639086
 10
2.292555
 20
11.651373
 10
2.298138
 20
11.663634
 10
2.303750
 20
11.675875
 10
2.309386
 20
11.688105
 10
2.315039
 20
11.700330
 10
2.320704
 20
11.712558
 10
2.326375
 20
11.724797
 10
2.332046
 20
11.737053
 10
2.337711
 20
11.749334
 10
2.343364
 20
11.761647
 10
2.349000
 20
11.774000
 10
2.354427
 20
11.786386
 10
2.359836
 20
11.798789
 10
2.365233
 20
11.811204
 10
2.370625
 20
11.823625
 10
2.376017
 20
11.836046
 10
2.381414
 20
11.848461
 10
2.386823
 20
11.860864
 10
2.392250
 20
11.873250
 10
2.397700
 20
11.885612
 10
2.403180
 20
11.897945
 10
2.408694
 20
11.910243
 10
2.414250
 20
11.922500
 10
2.419853
 20
11.934710
 10
2.425508
 20
11.946867
 10
2.431222
 20
11.958966
 10
2.437000
 20
11.971000
 10
2.442846
 20
11.983143
 10
2.448752
 20
11.995203
 10
2.454708
 20
12.007193
 10
2.460703
 20
12.019125
 10
2.466728
 20
12.031010
 10
2.472771
 20
12.042859
 10
2.478824
 20
12.054686
 10
2.484875
 20
12.066500
 10
2.490914
 20
12.078314
 10
2.496932
 20
12.090141
 10
2.502917
 20
12.101990
 10
2.508859
 20
12.113875
 10
2.514749
 20
12.125807
 10
2.520576
 20
12.137797
 10
2.526330
 20
12.149857
 10
2.532000
 20
12.162000
 10
2.537757
 20
12.174232
 10
2.543412
 20
12.186543
 10
2.548983
 20
12.198918
 10
2.554484
 20
12.211344
 10
2.559933
 20
12.223804
 10
2.565346
 20
12.236285
 10
2.570738
 20
12.248772
 10
2.576125
 20
12.261250
 10
2.581524
 20
12.273705
 10
2.586951
 20
12.286121
 10
2.592422
 20
12.298485
 10
2.597953
 20
12.310781
 10
2.603560
 20
12.322996
 10
2.609260
 20
12.335113
 10
2.615068
 20
12.347120
 10
2.621000
 20
12.359000
 10
2.626881
 20
12.370943
 10
2.632889
 20
12.382779
 10
2.639011
 20
12.394519
 10
2.645234
 20
12.406172
 10
2.651546
 20
12.417749
 10
2.657932
 20
12.429260
 10
2.664379
 20
12.440715
 10
2.670875
 20
12.452125
 10
2.677406
 20
12.463500
 10
2.683959
 20
12.474850
 10
2.690521
 20
12.486185
 10
2.697078
 20
12.497516
 10
2.703618
 20
12.508852
 10
2.710127
 20
12.520205
 10
2.716592
 20
12.531584
 10
2.723000
 20
12.543000
 10
2.729353
 20
12.554471
 10
2.735668
 20
12.566000
 10
2.741954
 20
12.577576
 10
2.748219
 20
12.589187
 10
2.754472
 20
12.600822
 10
2.760723
 20
12.612469
 10
2.766979
 20
12.624115
 10
2.773250
 20
12.635750
 10
2.779544
 20
12.647361
 10
2.785871
 20
12.658938
 10
2.792239
 20
12.670467
 10
2.798656
 20
12.681938
 10
2.805132
 20
12.693338
 10
2.811676
 20
12.704656
 10
2.818295
 20
12.715881
 10
2.825000
 20
12.727000
 10
2.831796
 20
12.738017
 10
2.838680
 20
12.748947
 10
2.845646
 20
12.759799
 10
2.852688
 20
12.770578
 10
2.859800
 20
12.781293
 10
2.866977
 20
12.791951
 10
2.874212
 20
12.802559
 10
2.881500
 20
12.813125
 10
2.888835
 20
12.823656
 10
2.896211
 20
12.834158
 10
2.903622
 20
12.844640
 10
2.911062
 20
12.855109
 10
2.918526
 20
12.865573
 10
2.926008
 20
12.876037
 10
2.933501
 20
12.886510
 10
2.941000
 20
12.897000
 10
2.948325
 20
12.907323
 10
2.955676
 20
12.917662
 10
2.963056
 20
12.928010
 10
2.970469
 20
12.938359
 10
2.977917
 20
12.948703
 10
2.985402
 20
12.959033
 10
2.992929
 20
12.969343
 10
3.000500
 20
12.979625
 10
3.008118
 20
12.989872
 10
3.015785
 20
13.000076
 10
3.023505
 20
13.010231
 10
3.031281
 20
13.020328
 10
3.039116
 20
13.030361
 10
3.047012
 20
13.040322
 10
3.054972
 20
13.050204
 10
3.063000
 20
13.060000
 10
3.071108
 20
13.069716
 10
3.079303
 20
13.079365
 10
3.087576
 20
13.088953
 10
3.095922
 20
13.098484
 10
3.104332
 20
13.107963
 10
3.112799
 20
13.117393
 10
3.121316
 20
13.126779
 10
3.129875
 20
13.136125
 10
3.138469
 20
13.145436
 10
3.147092
 20
13.154717
 10
3.155735
 20
13.163971
 10
3.164391
 20
13.173203
 10
3.173052
 20
13.182418
 10
3.181713
 20
13.191619
 10
3.190365
 20
13.200812
 10
3.199000
 20
13.210000
 10
3.207813
 20
13.219165
 10
3.216629
 20
13.228285
 10
3.225451
 20
13.237365
 10
3.234281
 20
13.246406
 10
3.243124
 20
13.255413
 10
3.251980
 20
13.264387
 10
3.260855
 20
13.273332
 10
3.269750
 20
13.282250
 10
3.278668
 20
13.291145
 10
3.287613
 20
13.300020
 10
3.296587
 20
13.308876
 10
3.305594
 20
13.317719
 10
3.314635
 20
13.326549
 10
3.323715
 20
13.335371
 10
3.332835
 20
13.344187
 10
3.342000
 20
13.353000
 10
3.351199
 20
13.361625
 10
3.360422
 20
13.370246
 10
3.369668
 20
13.378862
 10
3.378937
 20
13.387469
 10
3.388230
 20
13.396064
 10
3.397547
 20
13.404645
 10
3.406887
 20
13.413208
 10
3.416250
 20
13.421750
 10
3.425637
 20
13.430269
 10
3.435047
 20
13.438762
 10
3.444480
 20
13.447225
 10
3.453938
 20
13.455656
 10
3.463418
 20
13.464052
 10
3.472922
 20
13.472410
 10
3.482449
 20
13.480727
 10
3.492000
 20
13.489000
 10
3.501563
 20
13.497249
 10
3.511131
 20
13.505494
 10
3.520707
 20
13.513730
 10
3.530297
 20
13.521953
 10
3.539904
 20
13.530158
 10
3.549533
 20
13.538342
 10
3.559189
 20
13.546499
 10
3.568875
 20
13.554625
 10
3.578596
 20
13.562716
 10
3.588357
 20
13.570768
 10
3.598162
 20
13.578775
 10
3.608016
 20
13.586734
 10
3.617922
 20
13.594641
 10
3.627885
 20
13.602490
 10
3.637909
 20
13.610278
 10
3.648000
 20
13.618000
 10
3.658325
 20
13.625664
 10
3.668676
 20
13.633279
 10
3.679056
 20
13.640845
 10
3.689469
 20
13.648359
 10
3.699917
 20
13.655821
 10
3.710402
 20
13.663229
 10
3.720929
 20
13.670580
 10
3.731500
 20
13.677875
 10
3.742118
 20
13.685111
 10
3.752785
 20
13.692287
 10
3.763505
 20
13.699402
 10
3.774281
 20
13.706453
 10
3.785116
 20
13.713440
 10
3.796012
 20
13.720361
 10
3.806972
 20
13.727215
 10
3.818000
 20
13.734000
 10
3.829097
 20
13.740727
 10
3.840262
 20
13.747406
 10
3.851491
 20
13.754039
 10
3.862781
 20
13.760625
 10
3.874130
 20
13.767164
 10
3.885535
 20
13.773656
 10
3.896993
 20
13.780102
 10
3.908500
 20
13.786500
 10
3.920054
 20
13.792852
 10
3.931652
 20
13.799156
 10
3.943292
 20
13.805414
 10
3.954969
 20
13.811625
 10
3.966681
 20
13.817789
 10
3.978426
 20
13.823906
 10
3.990200
 20
13.829977
 10
4.002000
 20
13.836000
 10
4.014023
 20
13.841954
 10
4.026092
 20
13.847820
 10
4.038204
 20
13.853604
 10
4.050359
 20
13.859312
 10
4.062555
 20
13.864950
 10
4.074791
 20
13.870523
 10
4.087065
 20
13.876038
 10
4.099375
 20
13.881500
 10
4.111720
 20
13.886915
 10
4.124100
 20
13.892289
 10
4.136511
 20
13.897628
 10
4.148953
 20
13.902938
 10
4.161425
 20
13.908224
 10
4.173924
 20
13.913492
 10
4.186449
 20
13.918749
 10
4.199000
 20
13.924000
 10
4.211563
 20
13.929425
 10
4.224133
 20
13.934824
 10
4.236714
 20
13.940194
 10
4.249313
 20
13.945531
 10
4.261935
 20
13.950833
 10
4.274586
 20
13.956098
 10
4.287272
 20
13.961321
 10
4.300000
 20
13.966500
 10
4.312774
 20
13.971632
 10
4.325602
 20
13.976715
 10
4.338487
 20
13.981745
 10
4.351438
 20
13.986719
 10
4.364458
 20
13.991634
 10
4.377555
 20
13.996488
 10
4.390733
 20
14.001278
 10
4.404000
 20
14.006000
 10
4.417127
 20
14.010686
 10
4.430264
 20
14.015361
 10
4.443421
 20
14.020016
 10
4.456609
 20
14.024641
 10
4.469839
 20
14.029224
 10
4.483119
 20
14.033756
 10
4.496461
 20
14.038226
 10
4.509875
 20
14.042625
 10
4.523371
 20
14.046942
 10
4.536959
 20
14.051166
 10
4.550650
 20
14.055288
 10
4.564453
 20
14.059297
 10
4.578380
 20
14.063183
 10
4.592439
 20
14.066936
 10
4.606643
 20
14.070545
 10
4.621000
 20
14.074000
 10
4.635518
 20
14.077350
 10
4.650189
 20
14.080643
 10
4.665005
 20
14.083868
 10
4.679953
 20
14.087016
 10
4.695025
 20
14.090075
 10
4.710209
 20
14.093037
 10
4.725496
 20
14.095890
 10
4.740875
 20
14.098625
 10
4.756336
 20
14.101231
 10
4.771869
 20
14.103697
 10
4.787464
 20
14.106014
 10
4.803109
 20
14.108172
 10
4.818796
 20
14.110159
 10
4.834514
 20
14.111967
 10
4.850252
 20
14.113584
 10
4.866000
 20
14.115000
 10
4.881818
 20
14.116219
 10
4.897760
 20
14.117256
 10
4.913810
 20
14.118114
 10
4.929953
 20
14.118797
 10
4.946172
 20
14.119310
 10
4.962451
 20
14.119658
 10
4.978774
 20
14.119845
 10
4.995125
 20
14.119875
 10
5.011488
 20
14.119753
 10
5.027846
 20
14.119482
 10
5.044183
 20
14.119069
 10
5.060484
 20
14.118516
 10
5.076733
 20
14.117828
 10
5.092912
 20
14.117010
 10
5.109007
 20
14.116066
 10
5.125000
 20
14.115000
 10
5.140970
 20
14.113816
 10
5.156992
 20
14.112514
 10
5.173050
 20
14.111091
 10
5.189125
 20
14.109547
 10
5.205200
 20
14.107880
 10
5.221258
 20
14.106088
 10
5.237280
 20
14.104170
 10
5.253250
 20
14.102125
 10
5.269149
 20
14.099951
 10
5.284961
 20
14.097646
 10
5.300667
 20
14.095210
 10
5.316250
 20
14.092641
 10
5.331692
 20
14.089936
 10
5.346977
 20
14.087096
 10
5.362085
 20
14.084117
 10
5.377000
 20
14.081000
 10
5.391533
 20
14.077720
 10
5.405889
 20
14.074264
 10
5.420077
 20
14.070640
 10
5.434109
 20
14.066859
 10
5.447995
 20
14.062932
 10
5.461744
 20
14.058869
 10
5.475367
 20
14.054680
 10
5.488875
 20
14.050375
 10
5.502277
 20
14.045965
 10
5.515584
 20
14.041459
 10
5.528806
 20
14.036868
 10
5.541953
 20
14.032203
 10
5.555036
 20
14.027473
 10
5.568064
 20
14.022689
 10
5.581049
 20
14.017862
 10
5.594000
 20
14.013000
 10
5.607078
 20
14.008089
 10
5.620063
 20
14.003105
 10
5.632953
 20
13.998045
 10
5.645750
 20
13.992906
 10
5.658453
 20
13.987685
 10
5.671062
 20
13.982379
 10
5.683578
 20
13.976985
 10
5.696000
 20
13.971500
 10
5.708328
 20
13.965921
 10
5.720562
 20
13.960246
 10
5.732703
 20
13.954471
 10
5.744750
 20
13.948594
 10
5.756703
 20
13.942611
 10
5.768562
 20
13.936520
 10
5.780328
 20
13.930317
 10
5.792000
 20
13.924000
 10
5.803357
 20
13.917556
 10
5.814563
 20
13.910979
 10
5.825627
 20
13.904275
 10
5.836562
 20
13.897453
 10
5.847381
 20
13.890520
 10
5.858094
 20
13.883482
 10
5.868713
 20
13.876348
 10
5.879250
 20
13.869125
 10
5.889717
 20
13.861820
 10
5.900125
 20
13.854439
 10
5.910486
 20
13.846992
 10
5.920813
 20
13.839484
 10
5.931115
 20
13.831924
 10
5.941406
 20
13.824318
 10
5.951697
 20
13.816675
 10
5.962000
 20
13.809000
 10
5.972135
 20
13.801311
 10
5.982279
 20
13.793611
 10
5.992421
 20
13.785891
 10
6.002547
 20
13.778141
 10
6.012643
 20
13.770349
 10
6.022697
 20
13.762506
 10
6.032696
 20
13.754601
 10
6.042625
 20
13.746625
 10
6.052472
 20
13.738567
 10
6.062225
 20
13.730416
 10
6.071868
 20
13.722163
 10
6.081391
 20
13.713797
 10
6.090778
 20
13.705308
 10
6.100018
 20
13.696686
 10
6.109096
 20
13.687920
 10
6.118000
 20
13.679000
 10
6.126920
 20
13.670096
 10
6.135686
 20
13.661018
 10
6.144308
 20
13.651778
 10
6.152797
 20
13.642391
 10
6.161163
 20
13.632868
 10
6.169416
 20
13.623225
 10
6.177567
 20
13.613472
 10
6.185625
 20
13.603625
 10
6.193601
 20
13.593696
 10
6.201506
 20
13.583697
 10
6.209349
 20
13.573643
 10
6.217141
 20
13.563547
 10
6.224891
 20
13.553421
 10
6.232611
 20
13.543279
 10
6.240311
 20
13.533135
 10
6.248000
 20
13.523000
 10
6.255499
 20
13.512851
 10
6.262990
 20
13.502652
 10
6.270467
 20
13.492401
 10
6.277922
 20
13.482094
 10
6.285347
 20
13.471728
 10
6.292736
 20
13.461301
 10
6.300081
 20
13.450809
 10
6.307375
 20
13.440250
 10
6.314610
 20
13.429621
 10
6.321779
 20
13.418918
 10
6.328875
 20
13.408139
 10
6.335891
 20
13.397281
 10
6.342818
 20
13.386341
 10
6.349650
 20
13.375316
 10
6.356380
 20
13.364204
 10
6.363000
 20
13.353000
 10
6.369527
 20
13.341703
 10
6.375984
 20
13.330314
 10
6.382371
 20
13.318835
 10
6.388688
 20
13.307266
 10
6.394934
 20
13.295609
 10
6.401109
 20
13.283865
 10
6.407215
 20
13.272037
 10
6.413250
 20
13.260125
 10
6.419215
 20
13.248131
 10
6.425109
 20
13.236057
 10
6.430934
 20
13.223903
 10
6.436687
 20
13.211672
 10
6.442371
 20
13.199365
 10
6.447984
 20
13.186982
 10
6.453527
 20
13.174527
 10
6.459000
 20
13.162000
 10
6.464215
 20
13.149402
 10
6.469357
 20
13.136732
 10
6.474427
 20
13.123990
 10
6.479422
 20
13.111172
 10
6.484341
 20
13.098278
 10
6.489182
 20
13.085307
 10
6.493944
 20
13.072256
 10
6.498625
 20
13.059125
 10
6.503224
 20
13.045912
 10
6.507740
 20
13.032615
 10
6.512171
 20
13.019234
 10
6.516516
 20
13.005766
 10
6.520772
 20
12.992210
 10
6.524939
 20
12.978564
 10
6.529016
 20
12.964828
 10
6.533000
 20
12.951000
 10
6.537089
 20
12.937277
 10
6.541105
 20
12.923479
 10
6.545045
 20
12.909601
 10
6.548906
 20
12.895641
 10
6.552685
 20
12.881592
 10
6.556379
 20
12.867451
 10
6.559985
 20
12.853214
 10
6.563500
 20
12.838875
 10
6.566921
 20
12.824431
 10
6.570246
 20
12.809877
 10
6.573471
 20
12.795209
 10
6.576594
 20
12.780422
 10
6.579611
 20
12.765512
 10
6.582520
 20
12.750475
 10
6.585317
 20
12.735305
 10
6.588000
 20
12.720000
 10
6.590380
 20
12.704545
 10
6.592646
 20
12.688937
 10
6.594805
 20
12.673189
 10
6.596859
 20
12.657312
 10
6.598814
 20
12.641318
 10
6.600674
 20
12.625219
 10
6.602443
 20
12.609025
 10
6.604125
 20
12.592750
 10
6.605725
 20
12.576404
 10
6.607248
 20
12.560000
 10
6.608698
 20
12.543549
 10
6.610078
 20
12.527062
 10
6.611394
 20
12.510553
 10
6.612650
 20
12.494031
 10
6.613851
 20
12.477510
 10
6.615000
 20
12.461000
 10
6.616100
 20
12.444643
 10
6.617146
 20
12.428203
 10
6.618131
 20
12.411693
 10
6.619047
 20
12.395125
 10
6.619886
 20
12.378510
 10
6.620643
 20
12.361859
 10
6.621308
 20
12.345186
 10
6.621875
 20
12.328500
 10
6.622337
 20
12.311814
 10
6.622686
 20
12.295141
 10
6.622914
 20
12.278490
 10
6.623016
 20
12.261875
 10
6.622982
 20
12.245307
 10
6.622807
 20
12.228797
 10
6.622482
 20
12.212357
 10
6.622000
 20
12.196000
 10
6.621180
 20
12.179655
 10
6.620225
 20
12.163256
 10
6.619137
 20
12.146819
 10
6.617922
 20
12.130359
 10
6.616584
 20
12.113894
 10
6.615127
 20
12.097439
 10
6.613556
 20
12.081011
 10
6.611875
 20
12.064625
 10
6.610089
 20
12.048298
 10
6.608201
 20
12.032045
 10
6.606217
 20
12.015883
 10
6.604141
 20
11.999828
 10
6.601976
 20
11.983896
 10
6.599729
 20
11.968104
 10
6.597402
 20
11.952466
 10
6.595000
 20
11.937000
 10
6.592317
 20
11.921870
 10
6.589520
 20
11.906854
 10
6.586611
 20
11.891945
 10
6.583594
 20
11.877141
 10
6.580471
 20
11.862436
 10
6.577246
 20
11.847826
 10
6.573921
 20
11.833307
 10
6.570500
 20
11.818875
 10
6.566985
 20
11.804525
 10
6.563379
 20
11.790252
 10
6.559685
 20
11.776052
 10
6.555906
 20
11.761922
 10
6.552045
 20
11.747856
 10
6.548105
 20
11.733850
 10
6.544089
 20
11.719899
 10
6.540000
 20
11.706000
 10
6.536005
 20
11.692183
 10
6.531896
 20
11.678477
 10
6.527680
 20
11.664876
 10
6.523359
 20
11.651375
 10
6.518939
 20
11.637968
 10
6.514424
 20
11.624648
 10
6.509818
 20
11.611411
 10
6.505125
 20
11.598250
 10
6.500350
 20
11.585159
 10
6.495498
 20
11.572133
 10
6.490573
 20
11.559165
 10
6.485578
 20
11.546250
 10
6.480519
 20
11.533382
 10
6.475400
 20
11.520555
 10
6.470226
 20
11.507763
 10
6.465000
 20
11.495000
 10
6.459914
 20
11.482274
 10
6.454779
 20
11.469596
 10
6.449595
 20
11.456968
 10
6.444359
 20
11.444391
 10
6.439071
 20
11.431866
 10
6.433729
 20
11.419396
 10
6.428330
 20
11.406982
 10
6.422875
 20
11.394625
 10
6.417361
 20
11.382326
 10
6.411787
 20
11.370088
 10
6.406152
 20
11.357911
 10
6.400453
 20
11.345797
 10
6.394690
 20
11.333747
 10
6.388861
 20
11.321764
 10
6.382965
 20
11.309847
 10
6.377000
 20
11.298000
 10
6.370988
 20
11.286024
 10
6.364947
 20
11.274098
 10
6.358875
 20
11.262224
 10
6.352766
 20
11.250406
 10
6.346615
 20
11.238647
 10
6.340420
 20
11.226949
 10
6.334175
 20
11.215316
 10
6.327875
 20
11.203750
 10
6.321517
 20
11.192254
 10
6.315096
 20
11.180832
 10
6.308607
 20
11.169486
 10
6.302047
 20
11.158219
 10
6.295410
 20
11.147034
 10
6.288693
 20
11.135934
 10
6.281891
 20
11.124921
 10
6.275000
 20
11.114000
 10
6.267829
 20
11.103183
 10
6.260568
 20
11.092477
 10
6.253223
 20
11.081876
 10
6.245797
 20
11.071375
 10
6.238295
 20
11.060968
 10
6.230721
 20
11.050648
 10
6.223079
 20
11.040411
 10
6.215375
 20
11.030250
 10
6.207612
 20
11.020159
 10
6.199795
 20
11.010133
 10
6.191928
 20
11.000165
 10
6.184016
 20
10.990250
 10
6.176062
 20
10.980382
 10
6.168072
 20
10.970555
 10
6.160050
 20
10.960763
 10
6.152000
 20
10.951000
 10
6.143914
 20
10.941273
 10
6.135779
 20
10.931594
 10
6.127595
 20
10.921961
 10
6.119359
 20
10.912375
 10
6.111071
 20
10.902836
 10
6.102729
 20
10.893344
 10
6.094330
 20
10.883898
 10
6.085875
 20
10.874500
 10
6.077361
 20
10.865148
 10
6.068787
 20
10.855844
 10
6.060152
 20
10.846586
 10
6.051453
 20
10.837375
 10
6.042690
 20
10.828211
 10
6.033861
 20
10.819094
 10
6.024965
 20
10.810023
 10
6.016000
 20
10.801000
 10
6.007142
 20
10.792046
 10
5.998195
 20
10.783180
 10
5.989167
 20
10.774396
 10
5.980063
 20
10.765688
 10
5.970888
 20
10.757050
 10
5.961648
 20
10.748477
 10
5.952351
 20
10.739962
 10
5.943000
 20
10.731500
 10
5.933603
 20
10.723085
 10
5.924164
 20
10.714711
 10
5.914690
 20
10.706372
 10
5.905188
 20
10.698063
 10
5.895661
 20
10.689776
 10
5.886117
 20
10.681508
 10
5.876562
 20
10.673251
 10
5.867000
 20
10.665000
 10
5.857404
 20
10.656773
 10
5.847744
 20
10.648588
 10
5.838029
 20
10.640441
 10
5.828266
 20
10.632328
 10
5.818461
 20
10.624244
 10
5.808623
 20
10.616186
 10
5.798759
 20
10.608147
 10
5.788875
 20
10.600125
 10
5.778980
 20
10.592115
 10
5.769080
 20
10.584111
 10
5.759183
 20
10.576111
 10
5.749297
 20
10.568109
 10
5.739428
 20
10.560102
 10
5.729584
 20
10.552084
 10
5.719772
 20
10.544052
 10
5.710000
 20
10.536000
 10
5.700250
 20
10.527926
 10
5.690500
 20
10.519832
 10
5.680750
 20
10.511720
 10
5.671000
 20
10.503594
 10
5.661250
 20
10.495456
 10
5.651500
 20
10.487309
 10
5.641750
 20
10.479156
 10
5.632000
 20
10.471000
 10
5.622250
 20
10.462844
 10
5.612500
 20
10.454691
 10
5.602750
 20
10.446544
 10
5.593000
 20
10.438406
 10
5.583250
 20
10.430280
 10
5.573500
 20
10.422168
 10
5.563750
 20
10.414074
 10
5.554000
 20
10.406000
 10
5.544052
 20
10.397959
 10
5.534088
 20
10.389957
 10
5.524115
 20
10.381984
 10
5.514141
 20
10.374031
 10
5.504172
 20
10.366090
 10
5.494217
 20
10.358152
 10
5.484282
 20
10.350208
 10
5.474375
 20
10.342250
 10
5.464503
 20
10.334268
 10
5.454674
 20
10.326254
 10
5.444894
 20
10.318199
 10
5.435172
 20
10.310094
 10
5.425514
 20
10.301930
 10
5.415928
 20
10.293699
 10
5.406421
 20
10.285392
 10
5.397000
 20
10.277000
 10
5.387671
 20
10.268517
 10
5.378428
 20
10.259945
 10
5.369264
 20
10.251292
 10
5.360172
 20
10.242563
 10
5.351144
 20
10.233763
 10
5.342174
 20
10.224898
 10
5.333253
 20
10.215976
 10
5.324375
 20
10.207000
 10
5.315532
 20
10.197978
 10
5.306717
 20
10.188914
 10
5.297922
 20
10.179815
 10
5.289141
 20
10.170687
 10
5.280365
 20
10.161536
 10
5.271588
 20
10.152367
 10
5.262802
 20
10.143187
 10
5.254000
 20
10.134000
 10
5.245354
 20
10.124834
 10
5.236672
 20
10.115703
 10
5.227967
 20
10.106596
 10
5.219250
 20
10.097500
 10
5.210533
 20
10.088404
 10
5.201828
 20
10.079297
 10
5.193146
 20
10.070166
 10
5.184500
 20
10.061000
 10
5.175900
 20
10.051787
 10
5.167359
 20
10.042516
 10
5.158889
 20
10.033174
 10
5.150500
 20
10.023750
 10
5.142205
 20
10.014232
 10
5.134016
 20
10.004609
 10
5.125943
 20
9.994869
 10
5.118000
 20
9.985000
 10
5.110204
 20
9.974807
 10
5.102557
 20
9.964486
 10
5.095041
 20
9.954052
 10
5.087641
 20
9.943516
 10
5.080340
 20
9.932892
 10
5.073123
 20
9.922193
 10
5.065973
 20
9.911433
 10
5.058875
 20
9.900625
 10
5.051812
 20
9.889781
 10
5.044768
 20
9.878916
 10
5.037726
 20
9.868042
 10
5.030672
 20
9.857172
 10
5.023588
 20
9.846320
 10
5.016459
 20
9.835498
 10
5.009268
 20
9.824720
 10
5.002000
 20
9.814000
 10
4.994875
 20
9.803478
 10
4.987748
 20
9.792914
 10
4.980618
 20
9.782315
 10
4.973484
 20
9.771688
 10
4.966344
 20
9.761036
 10
4.959197
 20
9.750367
 10
4.952041
 20
9.739687
 10
4.944875
 20
9.729000
 10
4.937697
 20
9.718313
 10
4.930506
 20
9.707633
 10
4.923300
 20
9.696964
 10
4.916078
 20
9.686312
 10
4.908839
 20
9.675685
 10
4.901580
 20
9.665086
 10
4.894301
 20
9.654522
 10
4.887000
 20
9.644000
 10
4.879499
 20
9.633677
 10
4.871994
 20
9.623338
 10
4.864480
 20
9.612990
 10
4.856953
 20
9.602641
 10
4.849408
 20
9.592297
 10
4.841842
 20
9.581967
 10
4.834249
 20
9.571657
 10
4.826625
 20
9.561375
 10
4.818966
 20
9.551128
 10
4.811268
 20
9.540924
 10
4.803525
 20
9.530769
 10
4.795734
 20
9.520672
 10
4.787891
 20
9.510639
 10
4.779990
 20
9.500678
 10
4.772028
 20
9.490796
 10
4.764000
 20
9.481000
 10
4.755903
 20
9.471284
 10
4.747738
 20
9.461635
 10
4.739509
 20
9.452047
 10
4.731219
 20
9.442516
 10
4.722870
 20
9.433037
 10
4.714465
 20
9.423607
 10
4.706007
 20
9.414221
 10
4.697500
 20
9.404875
 10
4.688946
 20
9.395564
 10
4.680348
 20
9.386283
 10
4.671708
 20
9.377029
 10
4.663031
 20
9.367797
 10
4.654319
 20
9.358582
 10
4.645574
 20
9.349381
 10
4.636800
 20
9.340188
 10
4.628000
 20
9.331000
 10
4.619363
 20
9.321824
 10
4.610699
 20
9.312674
 10
4.602006
 20
9.303550
 10
4.593281
 20
9.294453
 10
4.584521
 20
9.285386
 10
4.575723
 20
9.276350
 10
4.566883
 20
9.267345
 10
4.558000
 20
9.258375
 10
4.549070
 20
9.249440
 10
4.540090
 20
9.240541
 10
4.531057
 20
9.231680
 10
4.521969
 20
9.222859
 10
4.512822
 20
9.214079
 10
4.503613
 20
9.205342
 10
4.494340
 20
9.196648
 10
4.485000
 20
9.188000
 10
4.475613
 20
9.179575
 10
4.466197
 20
9.171178
 10
4.456750
 20
9.162813
 10
4.447266
 20
9.154484
 10
4.437740
 20
9.146197
 10
4.428170
 20
9.137955
 10
4.418550
 20
9.129763
 10
4.408875
 20
9.121625
 10
4.399142
 20
9.113546
 10
4.389346
 20
9.105529
 10
4.379482
 20
9.097580
 10
4.369547
 20
9.089703
 10
4.359535
 20
9.081902
 10
4.349443
 20
9.074182
 10
4.339266
 20
9.066546
 10
4.329000
 20
9.059000
 10
4.318465
 20
9.051547
 10
4.307859
 20
9.044186
 10
4.297184
 20
9.036915
 10
4.286437
 20
9.029734
 10
4.275621
 20
9.022641
 10
4.264734
 20
9.015635
 10
4.253777
 20
9.008713
 10
4.242750
 20
9.001875
 10
4.231652
 20
8.995119
 10
4.220484
 20
8.988443
 10
4.209246
 20
8.981847
 10
4.197938
 20
8.975328
 10
4.186559
 20
8.968885
 10
4.175109
 20
8.962518
 10
4.163590
 20
8.956223
 10
4.152000
 20
8.950000
 10
4.140010
 20
8.943837
 10
4.127701
 20
8.937729
 10
4.115132
 20
8.931681
 10
4.102359
 20
8.925703
 10
4.089440
 20
8.919801
 10
4.076432
 20
8.913982
 10
4.063391
 20
8.908255
 10
4.050375
 20
8.902625
 10
4.037441
 20
8.897101
 10
4.024646
 20
8.891689
 10
4.012048
 20
8.886398
 10
3.999703
 20
8.881234
 10
3.987669
 20
8.876205
 10
3.976002
 20
8.871318
 10
3.964760
 20
8.866581
 10
3.954000
 20
8.862000
 10
3.943958
 20
8.857581
 10
3.934416
 20
8.853320
 10
3.925310
 20
8.849212
 10
3.916578
 20
8.845250
 10
3.908156
 20
8.841429
 10
3.899982
 20
8.837742
 10
3.891993
 20
8.834185
 10
3.884125
 20
8.830750
 10
3.876316
 20
8.827433
 10
3.868502
 20
8.824227
 10
3.860621
 20
8.821126
 10
3.852609
 20
8.818125
 10
3.844405
 20
8.815218
 10
3.835943
 20
8.812398
 10
3.827163
 20
8.809661
 10
3.818000
 20
8.807000
 10
3.808578
 20
8.804609
 10
3.799061
 20
8.802312
 10
3.789447
 20
8.800109
 10
3.779734
 20
8.798000
 10
3.769923
 20
8.795984
 10
3.760010
 20
8.794063
 10
3.749994
 20
8.792234
 10
3.739875
 20
8.790500
 10
3.729650
 20
8.788859
 10
3.719318
 20
8.787313
 10
3.708878
 20
8.785859
 10
3.698328
 20
8.784500
 10
3.687667
 20
8.783234
 10
3.676893
 20
8.782063
 10
3.666004
 20
8.780984
 10
3.655000
 20
8.780000
  0
LWPOLYLINE
  8
ENGRAVE
 90
1153
 70
1
 10
12.025000
 20
2.846000
 10
12.013088
 20
2.846036
 10
12.001330
 20
2.846150
 10
11.989692
 20
2.846349
 10
11.978141
 20
2.846641
 10
11.966642
 20
2.847031
 10
11.955162
 20
2.847529
 10
11.943668
 20
2.848141
 10
11.932125
 20
2.848875
 10
11.920500
 20
2.849738
 10
11.908760
 20
2.850736
 10
11.896870
 20
2.851879
 10
11.884797
 20
2.853172
 10
11.872507
 20
2.854623
 10
11.859967
 20
2.856240
 10
11.847142
 20
2.858030
 10
11.834000
 20
2.860000
 10
11.820672
 20
2.862177
 10
11.806971
 20
2.864576
 10
11.792944
 20
2.867183
 10
11.778641
 20
2.869984
 10
11.764109
 20
2.872968
 10
11.749396
 20
2.876119
 10
11.734552
 20
2.879426
 10
11.719625
 20
2.882875
 10
11.704662
 20
2.886453
 10
11.689713
 20
2.890146
 10
11.674825
 20
2.893943
 10
11.660047
 20
2.897828
 10
11.645427
 20
2.901790
 10
11.631014
 20
2.905814
 10
11.616855
 20
2.909889
 10
11.603000
 20
2.914000
 10
11.589371
 20
2.918360
 10
11.575859
 20
2.922814
 10
11.562465
 20
2.927366
 10
11.549188
 20
2.932016
 10
11.536027
 20
2.936765
 10
11.522984
 20
2.941615
 10
11.510059
 20
2.946568
 10
11.497250
 20
2.951625
 10
11.484559
 20
2.956787
 10
11.471984
 20
2.962057
 10
11.459527
 20
2.967434
 10
11.447187
 20
2.972922
 10
11.434965
 20
2.978521
 10
11.422859
 20
2.984232
 10
11.410871
 20
2.990058
 10
11.399000
 20
2.996000
 10
11.387059
 20
3.002047
 10
11.375234
 20
3.008189
 10
11.363527
 20
3.014428
 10
11.351938
 20
3.020766
 10
11.340465
 20
3.027202
 10
11.329109
 20
3.033740
 10
11.317871
 20
3.040381
 10
11.306750
 20
3.047125
 10
11.295746
 20
3.053975
 10
11.284859
 20
3.060932
 10
11.274090
 20
3.067997
 10
11.263437
 20
3.075172
 10
11.252902
 20
3.082458
 10
11.242484
 20
3.089857
 10
11.232184
 20
3.097371
 10
11.222000
 20
3.105000
 10
11.211779
 20
3.112757
 10
11.201732
 20
3.120646
 10
11.191847
 20
3.128662
 10
11.182109
 20
3.136797
 10
11.172507
 20
3.145043
 10
11.163025
 20
3.153393
 10
11.153653
 20
3.161839
 10
11.144375
 20
3.170375
 10
11.135179
 20
3.178993
 10
11.126053
 20
3.187686
 10
11.116982
 20
3.196446
 10
11.107953
 20
3.205266
 10
11.098954
 20
3.214138
 10
11.089971
 20
3.223057
 10
11.080990
 20
3.232013
 10
11.072000
 20
3.241000
 10
11.063189
 20
3.250001
 10
11.054385
 20
3.259012
 10
11.045595
 20
3.268040
 10
11.036828
 20
3.277094
 10
11.028090
 20
3.286183
 10
11.019389
 20
3.295316
 10
11.010731
 20
3.304502
 10
11.002125
 20
3.313750
 10
10.993577
 20
3.323068
 10
10.985096
 20
3.332465
 10
10.976687
 20
3.341950
 10
10.968359
 20
3.351531
 10
10.960119
 20
3.361218
 10
10.951975
 20
3.371020
 10
10.943932
 20
3.380944
 10
10.936000
 20
3.391000
 10
10.928149
 20
3.400973
 10
10.920352
 20
3.411020
 10
10.912612
 20
3.421142
 10
10.904938
 20
3.431344
 10
10.897333
 20
3.441627
 10
10.889805
 20
3.451996
 10
10.882358
 20
3.462453
 10
10.875000
 20
3.473000
 10
10.867735
 20
3.483641
 10
10.860570
 20
3.494379
 10
10.853511
 20
3.505216
 10
10.846562
 20
3.516156
 10
10.839731
 20
3.527202
 10
10.833023
 20
3.538355
 10
10.826444
 20
3.549621
 10
10.820000
 20
3.561000
 10
10.813683
 20
3.572496
 10
10.807482
 20
3.584107
 10
10.801396
 20
3.595833
 10
10.795422
 20
3.607672
 10
10.789559
 20
3.619622
 10
10.783807
 20
3.631682
 10
10.778162
 20
3.643850
 10
10.772625
 20
3.656125
 10
10.767193
 20
3.668506
 10
10.761865
 20
3.680990
 10
10.756640
 20
3.693577
 10
10.751516
 20
3.706266
 10
10.746491
 20
3.719053
 10
10.741564
 20
3.731939
 10
10.736735
 20
3.744922
 10
10.732000
 20
3.758000
 10
10.727349
 20
3.771337
 10
10.722775
 20
3.784730
 10
10.718287
 20
3.798188
 10
10.713891
 20
3.811719
 10
10.709594
 20
3.825332
 10
10.705404
 20
3.839035
 10
10.701329
 20
3.852838
 10
10.697375
 20
3.866750
 10
10.693550
 20
3.880779
 10
10.689861
 20
3.894934
 10
10.686316
 20
3.909223
 10
10.682922
 20
3.923656
 10
10.679686
 20
3.938242
 10
10.676615
 20
3.952988
 10
10.673718
 20
3.967905
 10
10.671000
 20
3.983000
 10
10.668258
 20
3.998147
 10
10.665654
 20
4.013568
 10
10.663189
 20
4.029233
 10
10.660859
 20
4.045109
 10
10.658665
 20
4.061168
 10
10.656604
 20
4.077377
 10
10.654674
 20
4.093706
 10
10.652875
 20
4.110125
 10
10.651205
 20
4.126602
 10
10.649662
 20
4.143107
 10
10.648245
 20
4.159610
 10
10.646953
 20
4.176078
 10
10.645784
 20
4.192482
 10
10.644736
 20
4.208791
 10
10.643809
 20
4.224974
 10
10.643000
 20
4.241000
 10
10.642485
 20
4.256937
 10
10.642070
 20
4.272869
 10
10.641761
 20
4.288793
 10
10.641563
 20
4.304703
 10
10.641481
 20
4.320596
 10
10.641523
 20
4.336467
 10
10.641694
 20
4.352311
 10
10.642000
 20
4.368125
 10
10.642446
 20
4.383904
 10
10.643039
 20
4.399643
 10
10.643784
 20
4.415338
 10
10.644687
 20
4.430984
 10
10.645755
 20
4.446578
 10
10.646992
 20
4.462115
 10
10.648405
 20
4.477591
 10
10.650000
 20
4.493000
 10
10.651781
 20
4.508384
 10
10.653744
 20
4.523775
 10
10.655886
 20
4.539158
 10
10.658203
 20
4.554516
 10
10.660690
 20
4.569832
 10
10.663342
 20
4.585092
 10
10.666155
 20
4.600278
 10
10.669125
 20
4.615375
 10
10.672247
 20
4.630366
 10
10.675518
 20
4.645236
 10
10.678931
 20
4.659969
 10
10.682484
 20
4.674547
 10
10.686172
 20
4.688955
 10
10.689990
 20
4.703178
 10
10.693934
 20
4.717198
 10
10.698000
 20
4.731000
 10
10.702052
 20
4.744772
 10
10.706322
 20
4.758346
 10
10.710795
 20
4.771735
 10
10.715453
 20
4.784953
 10
10.720281
 20
4.798013
 10
10.725264
 20
4.810928
 10
10.730384
 20
4.823711
 10
10.735625
 20
4.836375
 10
10.740972
 20
4.848934
 10
10.746408
 20
4.861400
 10
10.751918
 20
4.873788
 10
10.757484
 20
4.886109
 10
10.763092
 20
4.898378
 10
10.768725
 20
4.910607
 10
10.774366
 20
4.922810
 10
10.780000
 20
4.935000
 10
10.785472
 20
4.947351
 10
10.791014
 20
4.959654
 10
10.796622
 20
4.971907
 10
10.802297
 20
4.984109
 10
10.808036
 20
4.996259
 10
10.813838
 20
5.008354
 10
10.819701
 20
5.020393
 10
10.825625
 20
5.032375
 10
10.831607
 20
5.044299
 10
10.837646
 20
5.056162
 10
10.843741
 20
5.067964
 10
10.849891
 20
5.079703
 10
10.856093
 20
5.091378
 10
10.862346
 20
5.102986
 10
10.868649
 20
5.114528
 10
10.875000
 20
5.126000
 10
10.881399
 20
5.137414
 10
10.887846
 20
5.148781
 10
10.894343
 20
5.160102
 10
10.900891
 20
5.171375
 10
10.907491
 20
5.182602
 10
10.914146
 20
5.193781
 10
10.920857
 20
5.204914
 10
10.927625
 20
5.216000
 10
10.934451
 20
5.227039
 10
10.941338
 20
5.238031
 10
10.948286
 20
5.248977
 10
10.955297
 20
5.259875
 10
10.962372
 20
5.270727
 10
10.969514
 20
5.281531
 10
10.976722
 20
5.292289
 10
10.984000
 20
5.303000
 10
10.991171
 20
5.313642
 10
10.998430
 20
5.324195
 10
11.005771
 20
5.334667
 10
11.013188
 20
5.345063
 10
11.020675
 20
5.355388
 10
11.028227
 20
5.365648
 10
11.035837
 20
5.375851
 10
11.043500
 20
5.386000
 10
11.051210
 20
5.396103
 10
11.058961
 20
5.406164
 10
11.066747
 20
5.416190
 10
11.074563
 20
5.426188
 10
11.082401
 20
5.436161
 10
11.090258
 20
5.446117
 10
11.098126
 20
5.456062
 10
11.106000
 20
5.466000
 10
11.113898
 20
5.475926
 10
11.121838
 20
5.485830
 10
11.129816
 20
5.495714
 10
11.137828
 20
5.505578
 10
11.145869
 20
5.515425
 10
11.153936
 20
5.525256
 10
11.162022
 20
5.535072
 10
11.170125
 20
5.544875
 10
11.178240
 20
5.554666
 10
11.186361
 20
5.564447
 10
11.194486
 20
5.574219
 10
11.202609
 20
5.583984
 10
11.210727
 20
5.593743
 10
11.218834
 20
5.603498
 10
11.226927
 20
5.613250
 10
11.235000
 20
5.623000
 10
11.243260
 20
5.632728
 10
11.251537
 20
5.642418
 10
11.259823
 20
5.652079
 10
11.268109
 20
5.661719
 10
11.276390
 20
5.671347
 10
11.284658
 20
5.680973
 10
11.292906
 20
5.690604
 10
11.301125
 20
5.700250
 10
11.309309
 20
5.709919
 10
11.317451
 20
5.719621
 10
11.325543
 20
5.729364
 10
11.333578
 20
5.739156
 10
11.341549
 20
5.749007
 10
11.349447
 20
5.758926
 10
11.357267
 20
5.768920
 10
11.365000
 20
5.779000
 10
11.372642
 20
5.789336
 10
11.380195
 20
5.799717
 10
11.387667
 20
5.810142
 10
11.395062
 20
5.820609
 10
11.402388
 20
5.831118
 10
11.409648
 20
5.841666
 10
11.416851
 20
5.852252
 10
11.424000
 20
5.862875
 10
11.431103
 20
5.873533
 10
11.438164
 20
5.884225
 10
11.445190
 20
5.894948
 10
11.452188
 20
5.905703
 10
11.459161
 20
5.916487
 10
11.466117
 20
5.927299
 10
11.473062
 20
5.938137
 10
11.480000
 20
5.949000
 10
11.487124
 20
5.959865
 10
11.494240
 20
5.970715
 10
11.501342
 20
5.981559
 10
11.508422
 20
5.992406
 10
11.515472
 20
6.003265
 10
11.522486
 20
6.014145
 10
11.529456
 20
6.025053
 10
11.536375
 20
6.036000
 10
11.543235
 20
6.046994
 10
11.550029
 20
6.058043
 10
11.556750
 20
6.069157
 10
11.563391
 20
6.080344
 10
11.569943
 20
6.091613
 10
11.576400
 20
6.102973
 10
11.582755
 20
6.114432
 10
11.589000
 20
6.126000
 10
11.595141
 20
6.137859
 10
11.601191
 20
6.149807
 10
11.607154
 20
6.161840
 10
11.613031
 20
6.173953
 10
11.618827
 20
6.186143
 10
11.624543
 20
6.198404
 10
11.630183
 20
6.210733
 10
11.635750
 20
6.223125
 10
11.641247
 20
6.235575
 10
11.646676
 20
6.248080
 10
11.652041
 20
6.260635
 10
11.657344
 20
6.273234
 10
11.662588
 20
6.285875
 10
11.667777
 20
6.298553
 10
11.672914
 20
6.311262
 10
11.678000
 20
6.324000
 10
11.683039
 20
6.336774
 10
11.688031
 20
6.349596
 10
11.692977
 20
6.362468
 10
11.697875
 20
6.375391
 10
11.702727
 20
6.388366
 10
11.707531
 20
6.401396
 10
11.712289
 20
6.414482
 10
11.717000
 20
6.427625
 10
11.721664
 20
6.440826
 10
11.726281
 20
6.454088
 10
11.730852
 20
6.467411
 10
11.735375
 20
6.480797
 10
11.739852
 20
6.494247
 10
11.744281
 20
6.507764
 10
11.748664
 20
6.521347
 10
11.753000
 20
6.535000
 10
11.757069
 20
6.548568
 10
11.761035
 20
6.562262
 10
11.764914
 20
6.576067
 10
11.768719
 20
6.589969
 10
11.772465
 20
6.603953
 10
11.776168
 20
6.618004
 10
11.779841
 20
6.632108
 10
11.783500
 20
6.646250
 10
11.787159
 20
6.660416
 10
11.790832
 20
6.674590
 10
11.794535
 20
6.688758
 10
11.798281
 20
6.702906
 10
11.802086
 20
6.717019
 10
11.805965
 20
6.731082
 10
11.809931
 20
6.745081
 10
11.814000
 20
6.759000
 10
11.817950
 20
6.772874
 10
11.821926
 20
6.786742
 10
11.825931
 20
6.800599
 10
11.829969
 20
6.814437
 10
11.834042
 20
6.828253
 10
11.838152
 20
6.842039
 10
11.842304
 20
6.855790
 10
11.846500
 20
6.869500
 10
11.850743
 20
6.883163
 10
11.855035
 20
6.896773
 10
11.859380
 20
6.910325
 10
11.863781
 20
6.923813
 10
11.868241
 20
6.937229
 10
11.872762
 20
6.950570
 10
11.877347
 20
6.963829
 10
11.882000
 20
6.977000
 10
11.886722
 20
6.990091
 10
11.891512
 20
7.003115
 10
11.896366
 20
7.016078
 10
11.901281
 20
7.028984
 10
11.906255
 20
7.041838
 10
11.911285
 20
7.054643
 10
11.916368
 20
7.067404
 10
11.921500
 20
7.080125
 10
11.926679
 20
7.092811
 10
11.931902
 20
7.105467
 10
11.937167
 20
7.118096
 10
11.942469
 20
7.130703
 10
11.947806
 20
7.143293
 10
11.953176
 20
7.155869
 10
11.958575
 20
7.168437
 10
11.964000
 20
7.181000
 10
11.969251
 20
7.193562
 10
11.974508
 20
7.206117
 10
11.979776
 20
7.218661
 10
11.985063
 20
7.231188
 10
11.990372
 20
7.243690
 10
11.995711
 20
7.256164
 10
12.001085
 20
7.268603
 10
12.006500
 20
7.281000
 10
12.011962
 20
7.293351
 10
12.017477
 20
7.305648
 10
12.023050
 20
7.317888
 10
12.028688
 20
7.330063
 10
12.034396
 20
7.342167
 10
12.040180
 20
7.354195
 10
12.046046
 20
7.366142
 10
12.052000
 20
7.378000
 10
12.058023
 20
7.389965
 10
12.064094
 20
7.401861
 10
12.070211
 20
7.413690
 10
12.076375
 20
7.425453
 10
12.082586
 20
7.437152
 10
12.088844
 20
7.448787
 10
12.095148
 20
7.460361
 10
12.101500
 20
7.471875
 10
12.107898
 20
7.483330
 10
12.114344
 20
7.494729
 10
12.120836
 20
7.506071
 10
12.127375
 20
7.517359
 10
12.133961
 20
7.528595
 10
12.140594
 20
7.539779
 10
12.147273
 20
7.550914
 10
12.154000
 20
7.562000
 10
12.160763
 20
7.573061
 10
12.167557
 20
7.584111
 10
12.174388
 20
7.595141
 10
12.181266
 20
7.606141
 10
12.188196
 20
7.617099
 10
12.195186
 20
7.628006
 10
12.202243
 20
7.638851
 10
12.209375
 20
7.649625
 10
12.216589
 20
7.660317
 10
12.223893
 20
7.670916
 10
12.231293
 20
7.681413
 10
12.238797
 20
7.691797
 10
12.246412
 20
7.702058
 10
12.254146
 20
7.712186
 10
12.262007
 20
7.722170
 10
12.270000
 20
7.732000
 10
12.278143
 20
7.741681
 10
12.286439
 20
7.751229
 10
12.294880
 20
7.760650
 10
12.303453
 20
7.769953
 10
12.312150
 20
7.779145
 10
12.320959
 20
7.788232
 10
12.329871
 20
7.797223
 10
12.338875
 20
7.806125
 10
12.347961
 20
7.814945
 10
12.357119
 20
7.823689
 10
12.366339
 20
7.832367
 10
12.375609
 20
7.840984
 10
12.384921
 20
7.849549
 10
12.394264
 20
7.858068
 10
12.403627
 20
7.866550
 10
12.413000
 20
7.875000
 10
12.422409
 20
7.883403
 10
12.431885
 20
7.891740
 10
12.441422
 20
7.900016
 10
12.451016
 20
7.908234
 10
12.460662
 20
7.916400
 10
12.470357
 20
7.924518
 10
12.480096
 20
7.932591
 10
12.489875
 20
7.940625
 10
12.499689
 20
7.948624
 10
12.509533
 20
7.956592
 10
12.519404
 20
7.964533
 10
12.529297
 20
7.972453
 10
12.539207
 20
7.980355
 10
12.549131
 20
7.988244
 10
12.559063
 20
7.996124
 10
12.569000
 20
8.004000
 10
12.578950
 20
8.011874
 10
12.588926
 20
8.019744
 10
12.598931
 20
8.027605
 10
12.608969
 20
8.035453
 10
12.619042
 20
8.043283
 10
12.629152
 20
8.051092
 10
12.639304
 20
8.058874
 10
12.649500
 20
8.066625
 10
12.659743
 20
8.074341
 10
12.670035
 20
8.082018
 10
12.680380
 20
8.089650
 10
12.690781
 20
8.097234
 10
12.701241
 20
8.104766
 10
12.711762
 20
8.112240
 10
12.722347
 20
8.119653
 10
12.733000
 20
8.127000
 10
12.743535
 20
8.134113
 10
12.754139
 20
8.141199
 10
12.764810
 20
8.148256
 10
12.775547
 20
8.155281
 10
12.786348
 20
8.162271
 10
12.797213
 20
8.169223
 10
12.808139
 20
8.176133
 10
12.819125
 20
8.183000
 10
12.830170
 20
8.189820
 10
12.841271
 20
8.196590
 10
12.852429
 20
8.203307
 10
12.863641
 20
8.209969
 10
12.874905
 20
8.216572
 10
12.886221
 20
8.223113
 10
12.897586
 20
8.229590
 10
12.909000
 20
8.236000
 10
12.920615
 20
8.242373
 10
12.932219
 20
8.248736
 10
12.943822
 20
8.255079
 10
12.955438
 20
8.261391
 10
12.967076
 20
8.267661
 10
12.978750
 20
8.273881
 10
12.990471
 20
8.280039
 10
13.002250
 20
8.286125
 10
13.014100
 20
8.292129
 10
13.026031
 20
8.298041
 10
13.038057
 20
8.303850
 10
13.050187
 20
8.309547
 10
13.062436
 20
8.315120
 10
13.074813
 20
8.320561
 10
13.087330
 20
8.325857
 10
13.100000
 20
8.331000
 10
13.112808
 20
8.336015
 10
13.125732
 20
8.340936
 10
13.138771
 20
8.345759
 10
13.151922
 20
8.350484
 10
13.165184
 20
8.355110
 10
13.178557
 20
8.359635
 10
13.192037
 20
8.364057
 10
13.205625
 20
8.368375
 10
13.219318
 20
8.372588
 10
13.233115
 20
8.376693
 10
13.247015
 20
8.380691
 10
13.261016
 20
8.384578
 10
13.275116
 20
8.388354
 10
13.289314
 20
8.392018
 10
13.303610
 20
8.395567
 10
13.318000
 20
8.399000
 10
13.332518
 20
8.402350
 10
13.347189
 20
8.405643
 10
13.362005
 20
8.408868
 10
13.376953
 20
8.412016
 10
13.392025
 20
8.415075
 10
13.407209
 20
8.418037
 10
13.422496
 20
8.420890
 10
13.437875
 20
8.423625
 10
13.453336
 20
8.426231
 10
13.468869
 20
8.428697
 10
13.484464
 20
8.431014
 10
13.500109
 20
8.433172
 10
13.515796
 20
8.435159
 10
13.531514
 20
8.436967
 10
13.547252
 20
8.438584
 10
13.563000
 20
8.440000
 10
13.578817
 20
8.441230
 10
13.594758
 20
8.442297
 10
13.610804
 20
8.443199
 10
13.626938
 20
8.443938
 10
13.643142
 20
8.444512
 10
13.659398
 20
8.444922
 10
13.675690
 20
8.445168
 10
13.692000
 20
8.445250
 10
13.708310
 20
8.445168
 10
13.724602
 20
8.444922
 10
13.740858
 20
8.444512
 10
13.757062
 20
8.443938
 10
13.773196
 20
8.443199
 10
13.789242
 20
8.442297
 10
13.805183
 20
8.441230
 10
13.821000
 20
8.440000
 10
13.836759
 20
8.438595
 10
13.852527
 20
8.437008
 10
13.868290
 20
8.435245
 10
13.884031
 20
8.433313
 10
13.899738
 20
8.431216
 10
13.915395
 20
8.428961
 10
13.930987
 20
8.426554
 10
13.946500
 20
8.424000
 10
13.961919
 20
8.421306
 10
13.977230
 20
8.418477
 10
13.992418
 20
8.415519
 10
14.007469
 20
8.412437
 10
14.022367
 20
8.409239
 10
14.037098
 20
8.405930
 10
14.051647
 20
8.402515
 10
14.066000
 20
8.399000
 10
14.080169
 20
8.395356
 10
14.094180
 20
8.391553
 10
14.108038
 20
8.387594
 10
14.121750
 20
8.383484
 10
14.135321
 20
8.379228
 10
14.148758
 20
8.374830
 10
14.162065
 20
8.370294
 10
14.175250
 20
8.365625
 10
14.188317
 20
8.360827
 10
14.201273
 20
8.355904
 10
14.214124
 20
8.350862
 10
14.226875
 20
8.345703
 10
14.239532
 20
8.340433
 10
14.252102
 20
8.335057
 10
14.264589
 20
8.329577
 10
14.277000
 20
8.324000
 10
14.289306
 20
8.318493
 10
14.301477
 20
8.312850
 10
14.313519
 20
8.307074
 10
14.325437
 20
8.301172
 10
14.337239
 20
8.295146
 10
14.348930
 20
8.289002
 10
14.360515
 20
8.282743
 10
14.372000
 20
8.276375
 10
14.383392
 20
8.269901
 10
14.394695
 20
8.263326
 10
14.405917
 20
8.256655
 10
14.417063
 20
8.249891
 10
14.428138
 20
8.243039
 10
14.439148
 20
8.236104
 10
14.450101
 20
8.229089
 10
14.461000
 20
8.222000
 10
14.471817
 20
8.215005
 10
14.482523
 20
8.207898
 10
14.493124
 20
8.200687
 10
14.503625
 20
8.193375
 10
14.514032
 20
8.185970
 10
14.524352
 20
8.178477
 10
14.534589
 20
8.170901
 10
14.544750
 20
8.163250
 10
14.554841
 20
8.155528
 10
14.564867
 20
8.147742
 10
14.574835
 20
8.139897
 10
14.584750
 20
8.132000
 10
14.594618
 20
8.124056
 10
14.604445
 20
8.116070
 10
14.614237
 20
8.108050
 10
14.624000
 20
8.100000
 10
14.633738
 20
8.091914
 10
14.643447
 20
8.083779
 10
14.653125
 20
8.075595
 10
14.662766
 20
8.067359
 10
14.672365
 20
8.059071
 10
14.681920
 20
8.050729
 10
14.691425
 20
8.042330
 10
14.700875
 20
8.033875
 10
14.710267
 20
8.025361
 10
14.719596
 20
8.016787
 10
14.728857
 20
8.008152
 10
14.738047
 20
7.999453
 10
14.747160
 20
7.990690
 10
14.756193
 20
7.981861
 10
14.765141
 20
7.972965
 10
14.774000
 20
7.964000
 10
14.782601
 20
7.954777
 10
14.791150
 20
7.945482
 10
14.799644
 20
7.936115
 10
14.808078
 20
7.926672
 10
14.816448
 20
7.917153
 10
14.824748
 20
7.907557
 10
14.832975
 20
7.897881
 10
14.841125
 20
7.888125
 10
14.849193
 20
7.878287
 10
14.857174
 20
7.868365
 10
14.865064
 20
7.858359
 10
14.872859
 20
7.848266
 10
14.880555
 20
7.838085
 10
14.888146
 20
7.827814
 10
14.895630
 20
7.817453
 10
14.903000
 20
7.807000
 10
14.910464
 20
7.796487
 10
14.917855
 20
7.785941
 10
14.925170
 20
7.775355
 10
14.932406
 20
7.764719
 10
14.939560
 20
7.754024
 10
14.946629
 20
7.743262
 10
14.953610
 20
7.732423
 10
14.960500
 20
7.721500
 10
14.967296
 20
7.710483
 10
14.973996
 20
7.699363
 10
14.980596
 20
7.688132
 10
14.987094
 20
7.676781
 10
14.993486
 20
7.665301
 10
14.999770
 20
7.653684
 10
15.005942
 20
7.641919
 10
15.012000
 20
7.630000
 10
15.017931
 20
7.618107
 10
15.023727
 20
7.606059
 10
15.029394
 20
7.593864
 10
15.034937
 20
7.581531
 10
15.040364
 20
7.569070
 10
15.045680
 20
7.556488
 10
15.050890
 20
7.543795
 10
15.056000
 20
7.531000
 10
15.061017
 20
7.518111
 10
15.065945
 20
7.505137
 10
15.070792
 20
7.492086
 10
15.075563
 20
7.478969
 10
15.080263
 20
7.465792
 10
15.084898
 20
7.452566
 10
15.089476
 20
7.439299
 10
15.094000
 20
7.426000
 10
15.098475
 20
7.412476
 10
15.102896
 20
7.398900
 10
15.107256
 20
7.385269
 10
15.111547
 20
7.371578
 10
15.115761
 20
7.357823
 10
15.119893
 20
7.343998
 10
15.123933
 20
7.330100
 10
15.127875
 20
7.316125
 10
15.131712
 20
7.302068
 10
15.135436
 20
7.287924
 10
15.139039
 20
7.273689
 10
15.142516
 20
7.259359
 10
15.145857
 20
7.244930
 10
15.149057
 20
7.230396
 10
15.152107
 20
7.215755
 10
15.155000
 20
7.201000
 10
15.157731
 20
7.186317
 10
15.160303
 20
7.171523
 10
15.162719
 20
7.156624
 10
15.164984
 20
7.141625
 10
15.167103
 20
7.126532
 10
15.169080
 20
7.111352
 10
15.170919
 20
7.096089
 10
15.172625
 20
7.080750
 10
15.174202
 20
7.065341
 10
15.175654
 20
7.049867
 10
15.176987
 20
7.034335
 10
15.178203
 20
7.018750
 10
15.179308
 20
7.003118
 10
15.180307
 20
6.987445
 10
15.181202
 20
6.971737
 10
15.182000
 20
6.956000
 10
15.182879
 20
6.940205
 10
15.183641
 20
6.924324
 10
15.184285
 20
6.908368
 10
15.184812
 20
6.892344
 10
15.185223
 20
6.876261
 10
15.185516
 20
6.860129
 10
15.185691
 20
6.843956
 10
15.185750
 20
6.827750
 10
15.185691
 20
6.811521
 10
15.185516
 20
6.795277
 10
15.185223
 20
6.779028
 10
15.184812
 20
6.762781
 10
15.184285
 20
6.746546
 10
15.183641
 20
6.730332
 10
15.182879
 20
6.714147
 10
15.182000
 20
6.698000
 10
15.181169
 20
6.681831
 10
15.180184
 20
6.665584
 10
15.179051
 20
6.649276
 10
15.177781
 20
6.632922
 10
15.176382
 20
6.616539
 10
15.174863
 20
6.600143
 10
15.173233
 20
6.583749
 10
15.171500
 20
6.567375
 10
15.169673
 20
6.551036
 10
15.167762
 20
6.534748
 10
15.165774
 20
6.518528
 10
15.163719
 20
6.502391
 10
15.161605
 20
6.486353
 10
15.159441
 20
6.470432
 10
15.157237
 20
6.454642
 10
15.155000
 20
6.439000
 10
15.152703
 20
6.423484
 10
15.150313
 20
6.408061
 10
15.147828
 20
6.392728
 10
15.145250
 20
6.377484
 10
15.142578
 20
6.362329
 10
15.139812
 20
6.347260
 10
15.136953
 20
6.332276
 10
15.134000
 20
6.317375
 10
15.130953
 20
6.302556
 10
15.127813
 20
6.287818
 10
15.124578
 20
6.273159
 10
15.121250
 20
6.258578
 10
15.117828
 20
6.244073
 10
15.114313
 20
6.229643
 10
15.110703
 20
6.215285
 10
15.107000
 20
6.201000
 10
15.103380
 20
6.186807
 10
15.099648
 20
6.172725
 10
15.095812
 20
6.158744
 10
15.091875
 20
6.144859
 10
15.087845
 20
6.131062
 10
15.083727
 20
6.117346
 10
15.079526
 20
6.103702
 10
15.075250
 20
6.090125
 10
15.070903
 20
6.076606
 10
15.066492
 20
6.063139
 10
15.062022
 20
6.049715
 10
15.057500
 20
6.036328
 10
15.052931
 20
6.022970
 10
15.048320
 20
6.009635
 10
15.043675
 20
5.996314
 10
15.039000
 20
5.983000
 10
15.034267
 20
5.969920
 10
15.029449
 20
5.956926
 10
15.024555
 20
5.944007
 10
15.019594
 20
5.931156
 10
15.014574
 20
5.918364
 10
15.009504
 20
5.905621
 10
15.004393
 20
5.892919
 10
14.999250
 20
5.880250
 10
14.994083
 20
5.867604
 10
14.988902
 20
5.854973
 10
14.983715
 20
5.842347
 10
14.978531
 20
5.829719
 10
14.973359
 20
5.817079
 10
14.968207
 20
5.804418
 10
14.963084
 20
5.791728
 10
14.958000
 20
5.779000
 10
14.952761
 20
5.766250
 10
14.947545
 20
5.753500
 10
14.942349
 20
5.740750
 10
14.937172
 20
5.728000
 10
14.932012
 20
5.715250
 10
14.926869
 20
5.702500
 10
14.921740
 20
5.689750
 10
14.916625
 20
5.677000
 10
14.911521
 20
5.664250
 10
14.906428
 20
5.651500
 10
14.901343
 20
5.638750
 10
14.896266
 20
5.626000
 10
14.891194
 20
5.613250
 10
14.886127
 20
5.600500
 10
14.881063
 20
5.587750
 10
14.876000
 20
5.575000
 10
14.870948
 20
5.562239
 10
14.865914
 20
5.549459
 10
14.860892
 20
5.536664
 10
14.855875
 20
5.523859
 10
14.850858
 20
5.511049
 10
14.845836
 20
5.498236
 10
14.840802
 20
5.485427
 10
14.835750
 20
5.472625
 10
14.830675
 20
5.459835
 10
14.825570
 20
5.447061
 10
14.820431
 20
5.434307
 10
14.815250
 20
5.421578
 10
14.810022
 20
5.408879
 10
14.804742
 20
5.396213
 10
14.799403
 20
5.383585
 10
14.794000
 20
5.371000
 10
14.788727
 20
5.358449
 10
14.783410
 20
5.345924
 10
14.778052
 20
5.333425
 10
14.772656
 20
5.320953
 10
14.767225
 20
5.308511
 10
14.761762
 20
5.296100
 10
14.756269
 20
5.283720
 10
14.750750
 20
5.271375
 10
14.745208
 20
5.259065
 10
14.739645
 20
5.246791
 10
14.734064
 20
5.234555
 10
14.728469
 20
5.222359
 10
14.722862
 20
5.210204
 10
14.717246
 20
5.198092
 10
14.711625
 20
5.186023
 10
14.706000
 20
5.174000
 10
14.700176
 20
5.161824
 10
14.694330
 20
5.149674
 10
14.688464
 20
5.137550
 10
14.682578
 20
5.125453
 10
14.676675
 20
5.113386
 10
14.670756
 20
5.101350
 10
14.664822
 20
5.089345
 10
14.658875
 20
5.077375
 10
14.652916
 20
5.065440
 10
14.646947
 20
5.053541
 10
14.640969
 20
5.041680
 10
14.634984
 20
5.029859
 10
14.628993
 20
5.018079
 10
14.622998
 20
5.006342
 10
14.617000
 20
4.994648
 10
14.611000
 20
4.983000
 10
14.604790
 20
4.971397
 10
14.598537
 20
4.959836
 10
14.592246
 20
4.948310
 10
14.585922
 20
4.936812
 10
14.579568
 20
4.925339
 10
14.573189
 20
4.913883
 10
14.566790
 20
4.902438
 10
14.560375
 20
4.891000
 10
14.553948
 20
4.879562
 10
14.547514
 20
4.868117
 10
14.541076
 20
4.856661
 10
14.534641
 20
4.845187
 10
14.528211
 20
4.833690
 10
14.521791
 20
4.822164
 10
14.515386
 20
4.810603
 10
14.509000
 20
4.799000
 10
14.502614
 20
4.787562
 10
14.496207
 20
4.776125
 10
14.489783
 20
4.764687
 10
14.483344
 20
4.753250
 10
14.476893
 20
4.741812
 10
14.470434
 20
4.730375
 10
14.463968
 20
4.718938
 10
14.457500
 20
4.707500
 10
14.451032
 20
4.696063
 10
14.444566
 20
4.684625
 10
14.438107
 20
4.673188
 10
14.431656
 20
4.661750
 10
14.425217
 20
4.650313
 10
14.418793
 20
4.638875
 10
14.412386
 20
4.627437
 10
14.406000
 20
4.616000
 10
14.399647
 20
4.604375
 10
14.393332
 20
4.592754
 10
14.387046
 20
4.581138
 10
14.380781
 20
4.569531
 10
14.374528
 20
4.557936
 10
14.368277
 20
4.546355
 10
14.362021
 20
4.534792
 10
14.355750
 20
4.523250
 10
14.349456
 20
4.511731
 10
14.343129
 20
4.500238
 10
14.336761
 20
4.488775
 10
14.330344
 20
4.477344
 10
14.323868
 20
4.465948
 10
14.317324
 20
4.454590
 10
14.310705
 20
4.443273
 10
14.304000
 20
4.432000
 10
14.297426
 20
4.420762
 10
14.290828
 20
4.409547
 10
14.284207
 20
4.398355
 10
14.277563
 20
4.387187
 10
14.270895
 20
4.376043
 10
14.264203
 20
4.364922
 10
14.257488
 20
4.353824
 10
14.250750
 20
4.342750
 10
14.243988
 20
4.331699
 10
14.237203
 20
4.320672
 10
14.230395
 20
4.309668
 10
14.223562
 20
4.298687
 10
14.216707
 20
4.287730
 10
14.209828
 20
4.276797
 10
14.202926
 20
4.265887
 10
14.196000
 20
4.255000
 10
14.188885
 20
4.244126
 10
14.181787
 20
4.233258
 10
14.174698
 20
4.222401
 10
14.167609
 20
4.211562
 10
14.160515
 20
4.200747
 10
14.153408
 20
4.189961
 10
14.146281
 20
4.179210
 10
14.139125
 20
4.168500
 10
14.131934
 20
4.157837
 10
14.124701
 20
4.147227
 10
14.117418
 20
4.136675
 10
14.110078
 20
4.126188
 10
14.102674
 20
4.115771
 10
14.095197
 20
4.105430
 10
14.087642
 20
4.095171
 10
14.080000
 20
4.085000
 10
14.072278
 20
4.074733
 10
14.064490
 20
4.064555
 10
14.056641
 20
4.054458
 10
14.048734
 20
4.044438
 10
14.040775
 20
4.034487
 10
14.032768
 20
4.024602
 10
14.024716
 20
4.014774
 10
14.016625
 20
4.005000
 10
14.008499
 20
3.995272
 10
14.000342
 20
3.985586
 10
13.992158
 20
3.975935
 10
13.983953
 20
3.966313
 10
13.975730
 20
3.956714
 10
13.967494
 20
3.947133
 10
13.959249
 20
3.937563
 10
13.951000
 20
3.928000
 10
13.942562
 20
3.918449
 10
13.934121
 20
3.908924
 10
13.925674
 20
3.899425
 10
13.917219
 20
3.889953
 10
13.908751
 20
3.880511
 10
13.900270
 20
3.871100
 10
13.891770
 20
3.861720
 10
13.883250
 20
3.852375
 10
13.874707
 20
3.843065
 10
13.866137
 20
3.833791
 10
13.857538
 20
3.824555
 10
13.848906
 20
3.815359
 10
13.840240
 20
3.806204
 10
13.831535
 20
3.797092
 10
13.822790
 20
3.788023
 10
13.814000
 20
3.779000
 10
13.805352
 20
3.769824
 10
13.796660
 20
3.760674
 10
13.787927
 20
3.751550
 10
13.779156
 20
3.742453
 10
13.770350
 20
3.733386
 10
13.761512
 20
3.724350
 10
13.752644
 20
3.715345
 10
13.743750
 20
3.706375
 10
13.734833
 20
3.697440
 10
13.725895
 20
3.688541
 10
13.716939
 20
3.679680
 10
13.707969
 20
3.670859
 10
13.698987
 20
3.662079
 10
13.689996
 20
3.653342
 10
13.681000
 20
3.644648
 10
13.672000
 20
3.636000
 10
13.662801
 20
3.627211
 10
13.653578
 20
3.618467
 10
13.644332
 20
3.609767
 10
13.635063
 20
3.601109
 10
13.625770
 20
3.592493
 10
13.616453
 20
3.583916
 10
13.607113
 20
3.575377
 10
13.597750
 20
3.566875
 10
13.588363
 20
3.558408
 10
13.578953
 20
3.549975
 10
13.569520
 20
3.541573
 10
13.560063
 20
3.533203
 10
13.550582
 20
3.524862
 10
13.541078
 20
3.516549
 10
13.531551
 20
3.508262
 10
13.522000
 20
3.500000
 10
13.512437
 20
3.491575
 10
13.502867
 20
3.483176
 10
13.493286
 20
3.474806
 10
13.483687
 20
3.466469
 10
13.474065
 20
3.458167
 10
13.464414
 20
3.449902
 10
13.454728
 20
3.441679
 10
13.445000
 20
3.433500
 10
13.435226
 20
3.425368
 10
13.425398
 20
3.417285
 10
13.415513
 20
3.409255
 10
13.405563
 20
3.401281
 10
13.395542
 20
3.393366
 10
13.385445
 20
3.385512
 10
13.375267
 20
3.377722
 10
13.365000
 20
3.370000
 10
13.354829
 20
3.362523
 10
13.344570
 20
3.355092
 10
13.334229
 20
3.347704
 10
13.323813
 20
3.340359
 10
13.313325
 20
3.333055
 10
13.302773
 20
3.325791
 10
13.292163
 20
3.318565
 10
13.281500
 20
3.311375
 10
13.270790
 20
3.304220
 10
13.260039
 20
3.297100
 10
13.249253
 20
3.290011
 10
13.238437
 20
3.282953
 10
13.227599
 20
3.275925
 10
13.216742
 20
3.268924
 10
13.205874
 20
3.261949
 10
13.195000
 20
3.255000
 10
13.184113
 20
3.247898
 10
13.173203
 20
3.240842
 10
13.162270
 20
3.233829
 10
13.151312
 20
3.226859
 10
13.140332
 20
3.219930
 10
13.129328
 20
3.213041
 10
13.118301
 20
3.206190
 10
13.107250
 20
3.199375
 10
13.096176
 20
3.192595
 10
13.085078
 20
3.185850
 10
13.073957
 20
3.179136
 10
13.062812
 20
3.172453
 10
13.051645
 20
3.165800
 10
13.040453
 20
3.159174
 10
13.029238
 20
3.152574
 10
13.018000
 20
3.146000
 10
13.006760
 20
3.139416
 10
12.995535
 20
3.132799
 10
12.984316
 20
3.126161
 10
12.973094
 20
3.119516
 10
12.961860
 20
3.112876
 10
12.950605
 20
3.106256
 10
12.939322
 20
3.099668
 10
12.928000
 20
3.093125
 10
12.916631
 20
3.086641
 10
12.905207
 20
3.080229
 10
12.893718
 20
3.073901
 10
12.882156
 20
3.067672
 10
12.870512
 20
3.061554
 10
12.858777
 20
3.055561
 10
12.846943
 20
3.049705
 10
12.835000
 20
3.044000
 10
12.822777
 20
3.038234
 10
12.810482
 20
3.032561
 10
12.798115
 20
3.026978
 10
12.785672
 20
3.021484
 10
12.773153
 20
3.016079
 10
12.760557
 20
3.010760
 10
12.747881
 20
3.005526
 10
12.735125
 20
3.000375
 10
12.722287
 20
2.995306
 10
12.709365
 20
2.990318
 10
12.696359
 20
2.985409
 10
12.683266
 20
2.980578
 10
12.670085
 20
2.975823
 10
12.656814
 20
2.971143
 10
12.643453
 20
2.966535
 10
12.630000
 20
2.962000
 10
12.616542
 20
2.957547
 10
12.602820
 20
2.953186
 10
12.588876
 20
2.948915
 10
12.574750
 20
2.944734
 10
12.560483
 20
2.940641
 10
12.546117
 20
2.936635
 10
12.531692
 20
2.932713
 10
12.517250
 20
2.928875
 10
12.502831
 20
2.925119
 10
12.488477
 20
2.921443
 10
12.474228
 20
2.917847
 10
12.460125
 20
2.914328
 10
12.446210
 20
2.910885
 10
12.432523
 20
2.907518
 10
12.419106
 20
2.904223
 10
12.406000
 20
2.901000
 10
12.393187
 20
2.897837
 10
12.380607
 20
2.894727
 10
12.368236
 20
2.891675
 10
12.356047
 20
2.888687
 10
12.344016
 20
2.885771
 10
12.332119
 20
2.882930
 10
12.320330
 20
2.880171
 10
12.308625
 20
2.877500
 10
12.296978
 20
2.874923
 10
12.285365
 20
2.872445
 10
12.273761
 20
2.870073
 10
12.262141
 20
2.867812
 10
12.250479
 20
2.865669
 10
12.238752
 20
2.863648
 10
12.226934
 20
2.861757
 10
12.215000
 20
2.860000
 10
12.203176
 20
2.858360
 10
12.191332
 20
2.856814
 10
12.179470
 20
2.855366
 10
12.167594
 20
2.854016
 10
12.155706
 20
2.852765
 10
12.143809
 20
2.851615
 10
12.131906
 20
2.850568
 10
12.120000
 20
2.849625
 10
12.108094
 20
2.848787
 10
12.096191
 20
2.848057
 10
12.084294
 20
2.847434
 10
12.072406
 20
2.846922
 10
12.060530
 20
2.846521
 10
12.048668
 20
2.846232
 10
12.036824
 20
2.846058
 10
12.025000
 20
2.846000
  0
LWPOLYLINE
  8
ENGRAVE
 90
1073
 70
1
 10
12.637000
 20
10.495000
 10
12.625989
 20
10.494154
 10
12.615055
 20
10.493482
 10
12.604155
 20
10.492972
 10
12.593250
 20
10.492609
 10
12.582298
 20
10.492382
 10
12.571258
 20
10.492275
 10
12.560089
 20
10.492278
 10
12.548750
 20
10.492375
 10
12.537200
 20
10.492554
 10
12.525398
 20
10.492803
 10
12.513304
 20
10.493107
 10
12.500875
 20
10.493453
 10
12.488071
 20
10.493829
 10
12.474852
 20
10.494221
 10
12.461175
 20
10.494615
 10
12.447000
 20
10.495000
 10
12.432201
 20
10.495377
 10
12.416732
 20
10.495764
 10
12.400675
 20
10.496171
 10
12.384109
 20
10.496609
 10
12.367116
 20
10.497089
 10
12.349775
 20
10.497619
 10
12.332168
 20
10.498211
 10
12.314375
 20
10.498875
 10
12.296476
 20
10.499621
 10
12.278553
 20
10.500459
 10
12.260685
 20
10.501400
 10
12.242953
 20
10.502453
 10
12.225438
 20
10.503630
 10
12.208221
 20
10.504939
 10
12.191381
 20
10.506393
 10
12.175000
 20
10.508000
 10
12.158757
 20
10.509911
 10
12.142652
 20
10.511895
 10
12.126682
 20
10.513955
 10
12.110844
 20
10.516094
 10
12.095134
 20
10.518315
 10
12.079551
 20
10.520621
 10
12.064090
 20
10.523015
 10
12.048750
 20
10.525500
 10
12.033527
 20
10.528079
 10
12.018418
 20
10.530754
 10
12.003420
 20
10.533529
 10
11.988531
 20
10.536406
 10
11.973748
 20
10.539389
 10
11.959066
 20
10.542480
 10
11.944485
 20
10.545683
 10
11.930000
 20
10.549000
 10
11.915456
 20
10.552444
 10
11.901068
 20
10.556023
 10
11.886830
 20
10.559731
 10
11.872734
 20
10.563562
 10
11.858773
 20
10.567511
 10
11.844939
 20
10.571570
 10
11.831226
 20
10.575735
 10
11.817625
 20
10.580000
 10
11.804130
 20
10.584358
 10
11.790732
 20
10.588805
 10
11.777426
 20
10.593333
 10
11.764203
 20
10.597938
 10
11.751056
 20
10.602612
 10
11.737979
 20
10.607352
 10
11.724962
 20
10.612149
 10
11.712000
 20
10.617000
 10
11.699109
 20
10.621933
 10
11.686307
 20
10.626977
 10
11.673590
 20
10.632126
 10
11.660953
 20
10.637375
 10
11.648393
 20
10.642718
 10
11.635904
 20
10.648148
 10
11.623483
 20
10.653661
 10
11.611125
 20
10.659250
 10
11.598825
 20
10.664909
 10
11.586580
 20
10.670633
 10
11.574385
 20
10.676415
 10
11.562234
 20
10.682250
 10
11.550125
 20
10.688132
 10
11.538053
 20
10.694055
 10
11.526012
 20
10.700013
 10
11.514000
 20
10.706000
 10
11.502211
 20
10.712023
 10
11.490469
 20
10.718094
 10
11.478773
 20
10.724211
 10
11.467125
 20
10.730375
 10
11.455523
 20
10.736586
 10
11.443969
 20
10.742844
 10
11.432461
 20
10.749148
 10
11.421000
 20
10.755500
 10
11.409586
 20
10.761898
 10
11.398219
 20
10.768344
 10
11.386898
 20
10.774836
 10
11.375625
 20
10.781375
 10
11.364398
 20
10.787961
 10
11.353219
 20
10.794594
 10
11.342086
 20
10.801273
 10
11.331000
 20
10.808000
 10
11.319961
 20
10.814785
 10
11.308971
 20
10.821639
 10
11.298030
 20
10.828560
 10
11.287141
 20
10.835547
 10
11.276304
 20
10.842598
 10
11.265521
 20
10.849713
 10
11.254795
 20
10.856889
 10
11.244125
 20
10.864125
 10
11.233514
 20
10.871420
 10
11.222963
 20
10.878771
 10
11.212473
 20
10.886179
 10
11.202047
 20
10.893641
 10
11.191685
 20
10.901155
 10
11.181389
 20
10.908721
 10
11.171160
 20
10.916336
 10
11.161000
 20
10.924000
 10
11.150722
 20
10.931535
 10
11.140514
 20
10.939141
 10
11.130372
 20
10.946816
 10
11.120297
 20
10.954562
 10
11.110286
 20
10.962379
 10
11.100338
 20
10.970266
 10
11.090451
 20
10.978223
 10
11.080625
 20
10.986250
 10
11.070857
 20
10.994348
 10
11.061146
 20
11.002516
 10
11.051491
 20
11.010754
 10
11.041891
 20
11.019063
 10
11.032343
 20
11.027441
 10
11.022846
 20
11.035891
 10
11.013399
 20
11.044410
 10
11.004000
 20
11.053000
 10
10.994660
 20
11.061472
 10
10.985387
 20
11.070014
 10
10.976178
 20
11.078622
 10
10.967031
 20
11.087297
 10
10.957943
 20
11.096036
 10
10.948910
 20
11.104838
 10
10.939930
 20
11.113701
 10
10.931000
 20
11.122625
 10
10.922117
 20
11.131607
 10
10.913277
 20
11.140646
 10
10.904479
 20
11.149741
 10
10.895719
 20
11.158891
 10
10.886994
 20
11.168093
 10
10.878301
 20
11.177346
 10
10.869637
 20
11.186649
 10
10.861000
 20
11.196000
 10
10.852608
 20
11.205420
 10
10.844301
 20
11.214926
 10
10.836070
 20
11.224507
 10
10.827906
 20
11.234156
 10
10.819801
 20
11.243864
 10
10.811746
 20
11.253621
 10
10.803732
 20
11.263419
 10
10.795750
 20
11.273250
 10
10.787792
 20
11.283104
 10
10.779848
 20
11.292973
 10
10.771910
 20
11.302847
 10
10.763969
 20
11.312719
 10
10.756016
 20
11.322579
 10
10.748043
 20
11.332418
 10
10.740041
 20
11.342228
 10
10.732000
 20
11.352000
 10
10.723948
 20
11.361772
 10
10.715916
 20
11.371584
 10
10.707898
 20
11.381428
 10
10.699891
 20
11.391297
 10
10.691889
 20
11.401183
 10
10.683889
 20
11.411080
 10
10.675885
 20
11.420980
 10
10.667875
 20
11.430875
 10
10.659853
 20
11.440759
 10
10.651814
 20
11.450623
 10
10.643756
 20
11.460461
 10
10.635672
 20
11.470266
 10
10.627559
 20
11.480029
 10
10.619412
 20
11.489744
 10
10.611227
 20
11.499404
 10
10.603000
 20
11.509000
 10
10.594584
 20
11.518573
 10
10.586205
 20
11.528158
 10
10.577852
 20
11.537747
 10
10.569516
 20
11.547328
 10
10.561185
 20
11.556892
 10
10.552850
 20
11.566428
 10
10.544500
 20
11.575926
 10
10.536125
 20
11.585375
 10
10.527715
 20
11.594766
 10
10.519260
 20
11.604088
 10
10.510749
 20
11.613331
 10
10.502172
 20
11.622484
 10
10.493519
 20
11.631538
 10
10.484779
 20
11.640482
 10
10.475943
 20
11.649306
 10
10.467000
 20
11.658000
 10
10.457755
 20
11.666755
 10
10.448400
 20
11.675398
 10
10.438943
 20
11.683937
 10
10.429391
 20
11.692375
 10
10.419750
 20
11.700720
 10
10.410029
 20
11.708977
 10
10.400235
 20
11.717151
 10
10.390375
 20
11.725250
 10
10.380456
 20
11.733278
 10
10.370486
 20
11.741242
 10
10.360472
 20
11.749147
 10
10.350422
 20
11.757000
 10
10.340342
 20
11.764806
 10
10.330240
 20
11.772570
 10
10.320124
 20
11.780300
 10
10.310000
 20
11.788000
 10
10.299829
 20
11.795642
 10
10.289570
 20
11.803195
 10
10.279229
 20
11.810667
 10
10.268813
 20
11.818062
 10
10.258325
 20
11.825388
 10
10.247773
 20
11.832648
 10
10.237163
 20
11.839851
 10
10.226500
 20
11.847000
 10
10.215790
 20
11.854103
 10
10.205039
 20
11.861164
 10
10.194253
 20
11.868190
 10
10.183438
 20
11.875187
 10
10.172599
 20
11.882161
 10
10.161742
 20
11.889117
 10
10.150874
 20
11.896062
 10
10.140000
 20
11.903000
 10
10.129102
 20
11.910091
 10
10.118162
 20
11.917117
 10
10.107184
 20
11.924085
 10
10.096172
 20
11.931000
 10
10.085131
 20
11.937868
 10
10.074064
 20
11.944695
 10
10.062978
 20
11.951487
 10
10.051875
 20
11.958250
 10
10.040760
 20
11.964989
 10
10.029639
 20
11.971711
 10
10.018514
 20
11.978421
 10
10.007391
 20
11.985125
 10
9.996273
 20
11.991829
 10
9.985166
 20
11.998539
 10
9.974073
 20
12.005261
 10
9.963000
 20
12.012000
 10
9.951916
 20
12.018904
 10
9.940793
 20
12.025748
 10
9.929641
 20
12.032542
 10
9.918469
 20
12.039297
 10
9.907285
 20
12.046022
 10
9.896098
 20
12.052729
 10
9.884917
 20
12.059426
 10
9.873750
 20
12.066125
 10
9.862607
 20
12.072836
 10
9.851496
 20
12.079568
 10
9.840426
 20
12.086333
 10
9.829406
 20
12.093141
 10
9.818445
 20
12.100001
 10
9.807551
 20
12.106924
 10
9.796733
 20
12.113920
 10
9.786000
 20
12.121000
 10
9.775358
 20
12.128347
 10
9.764805
 20
12.135760
 10
9.754333
 20
12.143234
 10
9.743938
 20
12.150766
 10
9.733612
 20
12.158350
 10
9.723352
 20
12.165982
 10
9.713149
 20
12.173659
 10
9.703000
 20
12.181375
 10
9.692897
 20
12.189126
 10
9.682836
 20
12.196908
 10
9.672810
 20
12.204717
 10
9.662812
 20
12.212547
 10
9.652839
 20
12.220395
 10
9.642883
 20
12.228256
 10
9.632938
 20
12.236126
 10
9.623000
 20
12.244000
 10
9.612876
 20
12.251854
 10
9.602760
 20
12.259674
 10
9.592658
 20
12.267473
 10
9.582578
 20
12.275266
 10
9.572528
 20
12.283064
 10
9.562514
 20
12.290881
 10
9.552544
 20
12.298730
 10
9.542625
 20
12.306625
 10
9.532765
 20
12.314578
 10
9.522971
 20
12.322604
 10
9.513250
 20
12.330714
 10
9.503609
 20
12.338922
 10
9.494057
 20
12.347241
 10
9.484600
 20
12.355686
 10
9.475245
 20
12.364267
 10
9.466000
 20
12.373000
 10
9.456870
 20
12.381683
 10
9.447852
 20
12.390479
 10
9.438938
 20
12.399383
 10
9.430125
 20
12.408391
 10
9.421405
 20
12.417498
 10
9.412773
 20
12.426701
 10
9.404224
 20
12.435995
 10
9.395750
 20
12.445375
 10
9.387347
 20
12.454837
 10
9.379008
 20
12.464377
 10
9.370728
 20
12.473990
 10
9.362500
 20
12.483672
 10
9.354319
 20
12.493418
 10
9.346180
 20
12.503225
 10
9.338075
 20
12.513087
 10
9.330000
 20
12.523000
 10
9.321950
 20
12.532763
 10
9.313930
 20
12.542555
 10
9.305944
 20
12.552382
 10
9.298000
 20
12.562250
 10
9.290103
 20
12.572165
 10
9.282258
 20
12.582133
 10
9.274472
 20
12.592159
 10
9.266750
 20
12.602250
 10
9.259099
 20
12.612411
 10
9.251523
 20
12.622648
 10
9.244030
 20
12.632968
 10
9.236625
 20
12.643375
 10
9.229313
 20
12.653876
 10
9.222102
 20
12.664477
 10
9.214995
 20
12.675183
 10
9.208000
 20
12.686000
 10
9.200922
 20
12.696910
 10
9.193937
 20
12.707893
 10
9.187047
 20
12.718948
 10
9.180250
 20
12.730078
 10
9.173547
 20
12.741284
 10
9.166937
 20
12.752568
 10
9.160422
 20
12.763931
 10
9.154000
 20
12.775375
 10
9.147672
 20
12.786901
 10
9.141438
 20
12.798510
 10
9.135297
 20
12.810204
 10
9.129250
 20
12.821984
 10
9.123297
 20
12.833853
 10
9.117438
 20
12.845811
 10
9.111672
 20
12.857859
 10
9.106000
 20
12.870000
 10
9.100201
 20
12.882025
 10
9.094437
 20
12.894105
 10
9.088721
 20
12.906250
 10
9.083062
 20
12.918469
 10
9.077475
 20
12.930769
 10
9.071969
 20
12.943160
 10
9.066557
 20
12.955651
 10
9.061250
 20
12.968250
 10
9.056061
 20
12.980966
 10
9.051000
 20
12.993809
 10
9.046080
 20
13.006786
 10
9.041313
 20
13.019906
 10
9.036709
 20
13.033179
 10
9.032281
 20
13.046613
 10
9.028041
 20
13.060217
 10
9.024000
 20
13.074000
 10
9.019934
 20
13.087967
 10
9.015990
 20
13.102109
 10
9.012172
 20
13.116416
 10
9.008484
 20
13.130875
 10
9.004931
 20
13.145475
 10
9.001518
 20
13.160203
 10
8.998247
 20
13.175049
 10
8.995125
 20
13.190000
 10
8.992155
 20
13.205045
 10
8.989342
 20
13.220172
 10
8.986690
 20
13.235369
 10
8.984203
 20
13.250625
 10
8.981886
 20
13.265928
 10
8.979744
 20
13.281266
 10
8.977781
 20
13.296627
 10
8.976000
 20
13.312000
 10
8.974384
 20
13.327431
 10
8.972912
 20
13.342967
 10
8.971590
 20
13.358593
 10
8.970422
 20
13.374297
 10
8.969412
 20
13.390065
 10
8.968564
 20
13.405885
 10
8.967884
 20
13.421742
 10
8.967375
 20
13.437625
 10
8.967042
 20
13.453519
 10
8.966889
 20
13.469412
 10
8.966920
 20
13.485290
 10
8.967141
 20
13.501141
 10
8.967554
 20
13.516950
 10
8.968166
 20
13.532705
 10
8.968980
 20
13.548393
 10
8.970000
 20
13.564000
 10
8.971064
 20
13.579594
 10
8.972375
 20
13.595240
 10
8.973920
 20
13.610918
 10
8.975687
 20
13.626609
 10
8.977666
 20
13.642295
 10
8.979844
 20
13.657955
 10
8.982209
 20
13.673572
 10
8.984750
 20
13.689125
 10
8.987455
 20
13.704596
 10
8.990312
 20
13.719967
 10
8.993311
 20
13.735217
 10
8.996437
 20
13.750328
 10
8.999682
 20
13.765281
 10
9.003031
 20
13.780057
 10
9.006475
 20
13.794636
 10
9.010000
 20
13.809000
 10
9.013820
 20
13.823169
 10
9.017775
 20
13.837180
 10
9.021863
 20
13.851038
 10
9.026078
 20
13.864750
 10
9.030416
 20
13.878321
 10
9.034873
 20
13.891758
 10
9.039444
 20
13.905065
 10
9.044125
 20
13.918250
 10
9.048911
 20
13.931317
 10
9.053799
 20
13.944273
 10
9.058783
 20
13.957124
 10
9.063859
 20
13.969875
 10
9.069024
 20
13.982532
 10
9.074271
 20
13.995102
 10
9.079598
 20
14.007589
 10
9.085000
 20
14.020000
 10
9.090683
 20
14.032141
 10
9.096479
 20
14.044187
 10
9.102383
 20
14.056141
 10
9.108391
 20
14.068000
 10
9.114498
 20
14.079766
 10
9.120701
 20
14.091437
 10
9.126995
 20
14.103016
 10
9.133375
 20
14.114500
 10
9.139837
 20
14.125891
 10
9.146377
 20
14.137187
 10
9.152990
 20
14.148391
 10
9.159672
 20
14.159500
 10
9.166418
 20
14.170516
 10
9.173225
 20
14.181437
 10
9.180087
 20
14.192266
 10
9.187000
 20
14.203000
 10
9.194138
 20
14.213851
 10
9.201309
 20
14.224648
 10
9.208520
 20
14.235388
 10
9.215781
 20
14.246063
 10
9.223101
 20
14.256667
 10
9.230488
 20
14.267195
 10
9.237952
 20
14.277642
 10
9.245500
 20
14.288000
 10
9.253142
 20
14.298265
 10
9.260887
 20
14.308430
 10
9.268743
 20
14.318489
 10
9.276719
 20
14.328437
 10
9.284824
 20
14.338269
 10
9.293066
 20
14.347977
 10
9.301456
 20
14.357556
 10
9.310000
 20
14.367000
 10
9.318507
 20
14.376306
 10
9.327148
 20
14.385477
 10
9.335919
 20
14.394519
 10
9.344812
 20
14.403437
 10
9.353823
 20
14.412239
 10
9.362945
 20
14.420930
 10
9.372173
 20
14.429515
 10
9.381500
 20
14.438000
 10
9.390921
 20
14.446392
 10
9.400430
 20
14.454695
 10
9.410021
 20
14.462917
 10
9.419688
 20
14.471063
 10
9.429425
 20
14.479138
 10
9.439227
 20
14.487148
 10
9.449087
 20
14.495101
 10
9.459000
 20
14.503000
 10
9.469138
 20
14.510840
 10
9.479309
 20
14.518607
 10
9.489520
 20
14.526302
 10
9.499781
 20
14.533922
 10
9.510101
 20
14.541466
 10
9.520488
 20
14.548932
 10
9.530952
 20
14.556319
 10
9.541500
 20
14.563625
 10
9.552142
 20
14.570849
 10
9.562887
 20
14.577990
 10
9.573743
 20
14.585046
 10
9.584719
 20
14.592016
 10
9.595824
 20
14.598897
 10
9.607066
 20
14.605689
 10
9.618456
 20
14.612391
 10
9.630000
 20
14.619000
 10
9.641507
 20
14.625306
 10
9.653148
 20
14.631477
 10
9.664919
 20
14.637519
 10
9.676813
 20
14.643438
 10
9.688823
 20
14.649239
 10
9.700945
 20
14.654930
 10
9.713173
 20
14.660515
 10
9.725500
 20
14.666000
 10
9.737921
 20
14.671392
 10
9.750430
 20
14.676695
 10
9.763021
 20
14.681917
 10
9.775688
 20
14.687062
 10
9.788425
 20
14.692138
 10
9.801227
 20
14.697148
 10
9.814087
 20
14.702101
 10
9.827000
 20
14.707000
 10
9.839951
 20
14.711862
 10
9.852938
 20
14.716689
 10
9.865971
 20
14.721473
 10
9.879062
 20
14.726203
 10
9.892225
 20
14.730868
 10
9.905469
 20
14.735459
 10
9.918807
 20
14.739965
 10
9.932250
 20
14.744375
 10
9.945811
 20
14.748680
 10
9.959500
 20
14.752869
 10
9.973330
 20
14.756932
 10
9.987312
 20
14.760859
 10
10.001459
 20
14.764640
 10
10.015781
 20
14.768264
 10
10.030291
 20
14.771720
 10
10.045000
 20
14.775000
 10
10.059728
 20
14.778106
 10
10.074652
 20
14.781055
 10
10.089758
 20
14.783851
 10
10.105031
 20
14.786500
 10
10.120457
 20
14.789009
 10
10.136020
 20
14.791383
 10
10.151706
 20
14.793628
 10
10.167500
 20
14.795750
 10
10.183388
 20
14.797755
 10
10.199355
 20
14.799648
 10
10.215387
 20
14.801437
 10
10.231469
 20
14.803125
 10
10.247585
 20
14.804720
 10
10.263723
 20
14.806227
 10
10.279866
 20
14.807651
 10
10.296000
 20
14.809000
 10
10.312358
 20
14.810265
 10
10.328799
 20
14.811434
 10
10.345313
 20
14.812502
 10
10.361891
 20
14.813469
 10
10.378521
 20
14.814330
 10
10.395193
 20
14.815082
 10
10.411898
 20
14.815723
 10
10.428625
 20
14.816250
 10
10.445364
 20
14.816660
 10
10.462104
 20
14.816949
 10
10.478835
 20
14.817116
 10
10.495547
 20
14.817156
 10
10.512230
 20
14.817068
 10
10.528873
 20
14.816848
 10
10.545467
 20
14.816493
 10
10.562000
 20
14.816000
 10
10.578312
 20
14.815158
 10
10.594619
 20
14.814143
 10
10.610918
 20
14.812966
 10
10.627203
 20
14.811641
 10
10.643471
 20
14.810181
 10
10.659717
 20
14.808600
 10
10.675936
 20
14.806910
 10
10.692125
 20
14.805125
 10
10.708279
 20
14.803258
 10
10.724393
 20
14.801322
 10
10.740463
 20
14.799331
 10
10.756484
 20
14.797297
 10
10.772453
 20
14.795234
 10
10.788365
 20
14.793154
 10
10.804216
 20
14.791072
 10
10.820000
 20
14.789000
 10
10.835737
 20
14.786749
 10
10.851445
 20
14.784490
 10
10.867118
 20
14.782217
 10
10.882750
 20
14.779922
 10
10.898335
 20
14.777597
 10
10.913867
 20
14.775236
 10
10.929341
 20
14.772831
 10
10.944750
 20
14.770375
 10
10.960089
 20
14.767860
 10
10.975352
 20
14.765279
 10
10.990532
 20
14.762625
 10
11.005625
 20
14.759891
 10
11.020624
 20
14.757068
 10
11.035523
 20
14.754150
 10
11.050317
 20
14.751130
 10
11.065000
 20
14.748000
 10
11.079733
 20
14.744744
 10
11.094314
 20
14.741359
 10
11.108759
 20
14.737857
 10
11.123078
 20
14.734250
 10
11.137286
 20
14.730549
 10
11.151396
 20
14.726766
 10
11.165422
 20
14.722912
 10
11.179375
 20
14.719000
 10
11.193270
 20
14.715041
 10
11.207119
 20
14.711047
 10
11.220936
 20
14.707029
 10
11.234734
 20
14.703000
 10
11.248527
 20
14.698971
 10
11.262326
 20
14.694953
 10
11.276146
 20
14.690959
 10
11.290000
 20
14.687000
 10
11.303863
 20
14.682875
 10
11.317701
 20
14.678746
 10
11.331513
 20
14.674612
 10
11.345297
 20
14.670469
 10
11.359052
 20
14.666314
 10
11.372775
 20
14.662145
 10
11.386467
 20
14.657958
 10
11.400125
 20
14.653750
 10
11.413748
 20
14.649519
 10
11.427334
 20
14.645262
 10
11.440882
 20
14.640975
 10
11.454391
 20
14.636656
 10
11.467858
 20
14.632302
 10
11.481283
 20
14.627910
 10
11.494664
 20
14.623477
 10
11.508000
 20
14.619000
 10
11.521080
 20
14.614256
 10
11.534074
 20
14.609406
 10
11.546993
 20
14.604463
 10
11.559844
 20
14.599438
 10
11.572636
 20
14.594342
 10
11.585379
 20
14.589187
 10
11.598081
 20
14.583986
 10
11.610750
 20
14.578750
 10
11.623396
 20
14.573490
 10
11.636027
 20
14.568219
 10
11.648653
 20
14.562947
 10
11.661281
 20
14.557688
 10
11.673921
 20
14.552451
 10
11.686582
 20
14.547250
 10
11.699272
 20
14.542096
 10
11.712000
 20
14.537000
 10
11.724750
 20
14.531926
 10
11.737500
 20
14.526832
 10
11.750250
 20
14.521720
 10
11.763000
 20
14.516594
 10
11.775750
 20
14.511456
 10
11.788500
 20
14.506309
 10
11.801250
 20
14.501156
 10
11.814000
 20
14.496000
 10
11.826750
 20
14.490844
 10
11.839500
 20
14.485691
 10
11.852250
 20
14.480544
 10
11.865000
 20
14.475406
 10
11.877750
 20
14.470280
 10
11.890500
 20
14.465168
 10
11.903250
 20
14.460074
 10
11.916000
 20
14.455000
 10
11.928750
 20
14.449938
 10
11.941500
 20
14.444875
 10
11.954250
 20
14.439813
 10
11.967000
 20
14.434750
 10
11.979750
 20
14.429688
 10
11.992500
 20
14.424625
 10
12.005250
 20
14.419562
 10
12.018000
 20
14.414500
 10
12.030750
 20
14.409437
 10
12.043500
 20
14.404375
 10
12.056250
 20
14.399313
 10
12.069000
 20
14.394250
 10
12.081750
 20
14.389188
 10
12.094500
 20
14.384125
 10
12.107250
 20
14.379062
 10
12.120000
 20
14.374000
 10
12.132761
 20
14.368772
 10
12.145541
 20
14.363586
 10
12.158336
 20
14.358435
 10
12.171141
 20
14.353312
 10
12.183951
 20
14.348214
 10
12.196764
 20
14.343133
 10
12.209573
 20
14.338063
 10
12.222375
 20
14.333000
 10
12.235165
 20
14.327937
 10
12.247939
 20
14.322867
 10
12.260693
 20
14.317786
 10
12.273422
 20
14.312687
 10
12.286121
 20
14.307565
 10
12.298787
 20
14.302414
 10
12.311415
 20
14.297228
 10
12.324000
 20
14.292000
 10
12.336562
 20
14.286738
 10
12.349119
 20
14.281449
 10
12.361668
 20
14.276131
 10
12.374203
 20
14.270781
 10
12.386721
 20
14.265396
 10
12.399217
 20
14.259973
 10
12.411686
 20
14.254508
 10
12.424125
 20
14.249000
 10
12.436529
 20
14.243445
 10
12.448893
 20
14.237840
 10
12.461213
 20
14.232182
 10
12.473484
 20
14.226469
 10
12.485703
 20
14.220697
 10
12.497865
 20
14.214863
 10
12.509966
 20
14.208965
 10
12.522000
 20
14.203000
 10
12.533789
 20
14.197152
 10
12.545531
 20
14.191234
 10
12.557227
 20
14.185246
 10
12.568875
 20
14.179187
 10
12.580477
 20
14.173059
 10
12.592031
 20
14.166859
 10
12.603539
 20
14.160590
 10
12.615000
 20
14.154250
 10
12.626414
 20
14.147840
 10
12.637781
 20
14.141359
 10
12.649102
 20
14.134809
 10
12.660375
 20
14.128187
 10
12.671602
 20
14.121496
 10
12.682781
 20
14.114734
 10
12.693914
 20
14.107902
 10
12.705000
 20
14.101000
 10
12.716028
 20
14.094204
 10
12.726988
 20
14.087322
 10
12.737884
 20
14.080361
 10
12.748719
 20
14.073328
 10
12.759495
 20
14.066231
 10
12.770215
 20
14.059076
 10
12.780882
 20
14.051872
 10
12.791500
 20
14.044625
 10
12.802071
 20
14.037343
 10
12.812598
 20
14.030033
 10
12.823083
 20
14.022703
 10
12.833531
 20
14.015359
 10
12.843944
 20
14.008010
 10
12.854324
 20
14.000662
 10
12.864675
 20
13.993323
 10
12.875000
 20
13.986000
 10
12.885477
 20
13.978488
 10
12.895910
 20
13.970953
 10
12.906302
 20
13.963395
 10
12.916656
 20
13.955813
 10
12.926975
 20
13.948207
 10
12.937262
 20
13.940578
 10
12.947519
 20
13.932926
 10
12.957750
 20
13.925250
 10
12.967958
 20
13.917551
 10
12.978145
 20
13.909828
 10
12.988314
 20
13.902082
 10
12.998469
 20
13.894312
 10
13.008612
 20
13.886520
 10
13.018746
 20
13.878703
 10
13.028875
 20
13.870863
 10
13.039000
 20
13.863000
 10
13.048926
 20
13.855113
 10
13.058828
 20
13.847203
 10
13.068707
 20
13.839270
 10
13.078563
 20
13.831313
 10
13.088395
 20
13.823332
 10
13.098203
 20
13.815328
 10
13.107988
 20
13.807301
 10
13.117750
 20
13.799250
 10
13.127488
 20
13.791176
 10
13.137203
 20
13.783078
 10
13.146895
 20
13.774957
 10
13.156562
 20
13.766813
 10
13.166207
 20
13.758645
 10
13.175828
 20
13.750453
 10
13.185426
 20
13.742238
 10
13.195000
 20
13.734000
 10
13.204562
 20
13.725738
 10
13.214119
 20
13.717451
 10
13.223668
 20
13.709138
 10
13.233203
 20
13.700797
 10
13.242721
 20
13.692427
 10
13.252217
 20
13.684025
 10
13.261686
 20
13.675592
 10
13.271125
 20
13.667125
 10
13.280529
 20
13.658623
 10
13.289893
 20
13.650084
 10
13.299213
 20
13.641507
 10
13.308484
 20
13.632891
 10
13.317703
 20
13.624233
 10
13.326865
 20
13.615533
 10
13.335966
 20
13.606789
 10
13.345000
 20
13.598000
 10
13.353954
 20
13.588966
 10
13.362820
 20
13.579865
 10
13.371604
 20
13.570703
 10
13.380312
 20
13.561484
 10
13.388950
 20
13.552213
 10
13.397523
 20
13.542893
 10
13.406038
 20
13.533529
 10
13.414500
 20
13.524125
 10
13.422915
 20
13.514686
 10
13.431289
 20
13.505217
 10
13.439628
 20
13.495721
 10
13.447938
 20
13.486203
 10
13.456224
 20
13.476668
 10
13.464492
 20
13.467119
 10
13.472749
 20
13.457562
 10
13.481000
 20
13.448000
 10
13.489249
 20
13.438437
 10
13.497494
 20
13.428869
 10
13.505730
 20
13.419293
 10
13.513953
 20
13.409703
 10
13.522158
 20
13.400096
 10
13.530342
 20
13.390467
 10
13.538499
 20
13.380811
 10
13.546625
 20
13.371125
 10
13.554716
 20
13.361404
 10
13.562768
 20
13.351643
 10
13.570775
 20
13.341838
 10
13.578734
 20
13.331984
 10
13.586641
 20
13.322078
 10
13.594490
 20
13.312115
 10
13.602278
 20
13.302091
 10
13.610000
 20
13.292000
 10
13.617653
 20
13.281653
 10
13.625238
 20
13.271240
 10
13.632759
 20
13.260766
 10
13.640219
 20
13.250234
 10
13.647620
 20
13.239650
 10
13.654965
 20
13.229018
 10
13.662257
 20
13.218341
 10
13.669500
 20
13.207625
 10
13.676696
 20
13.196874
 10
13.683848
 20
13.186092
 10
13.690958
 20
13.175283
 10
13.698031
 20
13.164453
 10
13.705069
 20
13.153605
 10
13.712074
 20
13.142744
 10
13.719050
 20
13.131874
 10
13.726000
 20
13.121000
 10
13.732959
 20
13.110311
 10
13.739953
 20
13.099615
 10
13.746971
 20
13.088905
 10
13.754000
 20
13.078172
 10
13.761029
 20
13.067410
 10
13.768047
 20
13.056611
 10
13.775041
 20
13.045769
 10
13.782000
 20
13.034875
 10
13.788912
 20
13.023923
 10
13.795766
 20
13.012904
 10
13.802549
 20
13.001813
 10
13.809250
 20
12.990641
 10
13.815857
 20
12.979381
 10
13.822359
 20
12.968025
 10
13.828744
 20
12.956568
 10
13.835000
 20
12.945000
 10
13.841130
 20
12.933141
 10
13.847148
 20
12.921193
 10
13.853062
 20
12.909160
 10
13.858875
 20
12.897047
 10
13.864595
 20
12.884857
 10
13.870227
 20
12.872596
 10
13.875776
 20
12.860267
 10
13.881250
 20
12.847875
 10
13.886653
 20
12.835425
 10
13.891992
 20
12.822920
 10
13.897272
 20
12.810365
 10
13.902500
 20
12.797766
 10
13.907681
 20
12.785125
 10
13.912820
 20
12.772447
 10
13.917925
 20
12.759738
 10
13.923000
 20
12.747000
 10
13.928248
 20
12.734259
 10
13.933482
 20
12.721527
 10
13.938691
 20
12.708790
 10
13.943859
 20
12.696031
 10
13.948975
 20
12.683238
 10
13.954025
 20
12.670395
 10
13.958996
 20
12.657487
 10
13.963875
 20
12.644500
 10
13.968648
 20
12.631419
 10
13.973303
 20
12.618230
 10
13.977825
 20
12.604918
 10
13.982203
 20
12.591469
 10
13.986423
 20
12.577867
 10
13.990471
 20
12.564098
 10
13.994334
 20
12.550147
 10
13.998000
 20
12.536000
 10
14.001504
 20
12.521636
 10
14.004889
 20
12.507057
 10
14.008154
 20
12.492281
 10
14.011297
 20
12.477328
 10
14.014317
 20
12.462217
 10
14.017213
 20
12.446967
 10
14.019983
 20
12.431596
 10
14.022625
 20
12.416125
 10
14.025138
 20
12.400572
 10
14.027521
 20
12.384955
 10
14.029773
 20
12.369295
 10
14.031891
 20
12.353609
 10
14.033874
 20
12.337918
 10
14.035721
 20
12.322240
 10
14.037430
 20
12.306594
 10
14.039000
 20
12.291000
 10
14.040430
 20
12.275602
 10
14.041721
 20
12.260158
 10
14.042874
 20
12.244671
 10
14.043891
 20
12.229141
 10
14.044773
 20
12.213570
 10
14.045521
 20
12.197959
 10
14.046138
 20
12.182310
 10
14.046625
 20
12.166625
 10
14.046983
 20
12.150905
 10
14.047213
 20
12.135150
 10
14.047317
 20
12.119364
 10
14.047297
 20
12.103547
 10
14.047154
 20
12.087700
 10
14.046889
 20
12.071826
 10
14.046504
 20
12.055926
 10
14.046000
 20
12.040000
 10
14.045191
 20
12.023798
 10
14.044266
 20
12.007461
 10
14.043223
 20
11.991019
 10
14.042063
 20
11.974500
 10
14.040785
 20
11.957935
 10
14.039391
 20
11.941352
 10
14.037879
 20
11.924780
 10
14.036250
 20
11.908250
 10
14.034504
 20
11.891790
 10
14.032641
 20
11.875430
 10
14.030660
 20
11.859198
 10
14.028562
 20
11.843125
 10
14.026348
 20
11.827239
 10
14.024016
 20
11.811570
 10
14.021566
 20
11.796147
 10
14.019000
 20
11.781000
 10
14.016095
 20
11.765916
 10
14.013014
 20
11.751029
 10
14.009765
 20
11.736327
 10
14.006359
 20
11.721797
 10
14.002807
 20
11.707425
 10
13.999119
 20
11.693197
 10
13.995305
 20
11.679102
 10
13.991375
 20
11.665125
 10
13.987340
 20
11.651254
 10
13.983209
 20
11.637475
 10
13.978993
 20
11.623775
 10
13.974703
 20
11.610141
 10
13.970348
 20
11.596559
 10
13.965939
 20
11.583018
 10
13.961487
 20
11.569502
 10
13.957000
 20
11.556000
 10
13.952641
 20
11.542712
 10
13.948187
 20
11.529475
 10
13.943641
 20
11.516293
 10
13.939000
 20
11.503172
 10
13.934266
 20
11.490115
 10
13.929437
 20
11.477127
 10
13.924516
 20
11.464212
 10
13.919500
 20
11.451375
 10
13.914391
 20
11.438620
 10
13.909187
 20
11.425951
 10
13.903891
 20
11.413373
 10
13.898500
 20
11.400891
 10
13.893016
 20
11.388508
 10
13.887438
 20
11.376229
 10
13.881766
 20
11.364058
 10
13.876000
 20
11.352000
 10
13.869920
 20
11.340256
 10
13.863687
 20
11.328645
 10
13.857314
 20
11.317156
 10
13.850813
 20
11.305781
 10
13.844193
 20
11.294512
 10
13.837469
 20
11.283340
 10
13.830650
 20
11.272255
 10
13.823750
 20
11.261250
 10
13.816779
 20
11.250315
 10
13.809750
 20
11.239441
 10
13.802674
 20
11.228621
 10
13.795562
 20
11.217844
 10
13.788428
 20
11.207102
 10
13.781281
 20
11.196387
 10
13.774135
 20
11.185689
 10
13.767000
 20
11.175000
 10
13.759686
 20
11.164501
 10
13.752363
 20
11.154010
 10
13.745023
 20
11.143533
 10
13.737656
 20
11.133078
 10
13.730254
 20
11.122653
 10
13.722809
 20
11.112264
 10
13.715310
 20
11.101919
 10
13.707750
 20
11.091625
 10
13.700120
 20
11.081390
 10
13.692410
 20
11.071221
 10
13.684613
 20
11.061125
 10
13.676719
 20
11.051109
 10
13.668719
 20
11.041182
 10
13.660605
 20
11.031350
 10
13.652369
 20
11.021620
 10
13.644000
 20
11.012000
 10
13.635725
 20
11.002462
 10
13.627396
 20
10.992977
 10
13.619006
 20
10.983550
 10
13.610547
 20
10.974187
 10
13.602011
 20
10.964896
 10
13.593393
 20
10.955680
 10
13.584683
 20
10.946546
 10
13.575875
 20
10.937500
 10
13.566962
 20
10.928548
 10
13.557936
 20
10.919695
 10
13.548789
 20
10.910948
 10
13.539516
 20
10.902313
 10
13.530107
 20
10.893794
 10
13.520557
 20
10.885398
 10
13.510857
 20
10.877132
 10
13.501000
 20
10.869000
 10
13.491181
 20
10.861007
 10
13.481227
 20
10.853146
 10
13.471144
 20
10.845412
 10
13.460938
 20
10.837797
 10
13.450614
 20
10.830293
 10
13.440180
 20
10.822893
 10
13.429640
 20
10.815589
 10
13.419000
 20
10.808375
 10
13.408267
 20
10.801243
 10
13.397445
 20
10.794186
 10
13.386542
 20
10.787196
 10
13.375563
 20
10.780266
 10
13.364513
 20
10.773388
 10
13.353398
 20
10.766557
 10
13.342226
 20
10.759763
 10
13.331000
 20
10.753000
 10
13.319704
 20
10.746495
 10
13.308316
 20
10.740100
 10
13.296841
 20
10.733807
 10
13.285281
 20
10.727609
 10
13.273639
 20
10.721500
 10
13.261918
 20
10.715471
 10
13.250121
 20
10.709515
 10
13.238250
 20
10.703625
 10
13.226309
 20
10.697794
 10
13.214301
 20
10.692014
 10
13.202228
 20
10.686278
 10
13.190094
 20
10.680578
 10
13.177901
 20
10.674908
 10
13.165652
 20
10.669260
 10
13.153351
 20
10.663626
 10
13.141000
 20
10.658000
 10
13.128448
 20
10.652553
 10
13.115582
 20
10.647096
 10
13.102464
 20
10.641641
 10
13.089156
 20
10.636203
 10
13.075719
 20
10.630794
 10
13.062215
 20
10.625428
 10
13.048705
 20
10.620117
 10
13.035250
 20
10.614875
 10
13.021913
 20
10.609715
 10
13.008754
 20
10.604650
 10
12.995835
 20
10.599694
 10
12.983219
 20
10.594859
 10
12.970965
 20
10.590159
 10
12.959137
 20
10.585607
 10
12.947794
 20
10.581217
 10
12.937000
 20
10.577000
 10
12.926618
 20
10.572746
 10
12.916801
 20
10.568607
 10
12.907482
 20
10.564583
 10
12.898594
 20
10.560672
 10
12.890069
 20
10.556872
 10
12.881840
 20
10.553182
 10
12.873839
 20
10.549600
 10
12.866000
 20
10.546125
 10
12.858254
 20
10.542756
 10
12.850535
 20
10.539490
 10
12.842775
 20
10.536327
 10
12.834906
 20
10.533266
 10
12.826862
 20
10.530303
 10
12.818574
 20
10.527439
 10
12.809976
 20
10.524672
 10
12.801000
 20
10.522000
 10
12.791567
 20
10.519434
 10
12.782018
 20
10.516984
 10
12.772354
 20
10.514652
 10
12.762578
 20
10.512438
 10
12.752691
 20
10.510340
 10
12.742693
 20
10.508359
 10
12.732588
 20
10.506496
 10
12.722375
 20
10.504750
 10
12.712057
 20
10.503121
 10
12.701635
 20
10.501609
 10
12.691110
 20
10.500215
 10
12.680484
 20
10.498938
 10
12.669759
 20
10.497777
 10
12.658936
 20
10.496734
 10
12.648015
 20
10.495809
 10
12.637000
 20
10.495000
  0
LWPOLYLINE
  8
ENGRAVE
 90
1217
 70
1
 10
8.731000
 20
6.262000
 10
8.721248
 20
6.260865
 10
8.711486
 20
6.259719
 10
8.701704
 20
6.258572
 10
8.691891
 20
6.257438
 10
8.682036
 20
6.256326
 10
8.672131
 20
6.255250
 10
8.662164
 20
6.254221
 10
8.652125
 20
6.253250
 10
8.642004
 20
6.252350
 10
8.631791
 20
6.251531
 10
8.621475
 20
6.250807
 10
8.611047
 20
6.250187
 10
8.600495
 20
6.249686
 10
8.589811
 20
6.249313
 10
8.578982
 20
6.249080
 10
8.568000
 20
6.249000
 10
8.556813
 20
6.249080
 10
8.545396
 20
6.249313
 10
8.533778
 20
6.249686
 10
8.521984
 20
6.250187
 10
8.510045
 20
6.250807
 10
8.497986
 20
6.251531
 10
8.485837
 20
6.252350
 10
8.473625
 20
6.253250
 10
8.461378
 20
6.254221
 10
8.449123
 20
6.255250
 10
8.436889
 20
6.256326
 10
8.424703
 20
6.257438
 10
8.412594
 20
6.258572
 10
8.400588
 20
6.259719
 10
8.388714
 20
6.260865
 10
8.377000
 20
6.262000
 10
8.365586
 20
6.263336
 10
8.354221
 20
6.264721
 10
8.342905
 20
6.266155
 10
8.331641
 20
6.267641
 10
8.320429
 20
6.269179
 10
8.309271
 20
6.270771
 10
8.298170
 20
6.272420
 10
8.287125
 20
6.274125
 10
8.276139
 20
6.275889
 10
8.265213
 20
6.277713
 10
8.254348
 20
6.279598
 10
8.243547
 20
6.281547
 10
8.232810
 20
6.283560
 10
8.222139
 20
6.285639
 10
8.211535
 20
6.287785
 10
8.201000
 20
6.290000
 10
8.190369
 20
6.292119
 10
8.179844
 20
6.294344
 10
8.169412
 20
6.296662
 10
8.159063
 20
6.299062
 10
8.148783
 20
6.301533
 10
8.138563
 20
6.304063
 10
8.128389
 20
6.306639
 10
8.118250
 20
6.309250
 10
8.108135
 20
6.311885
 10
8.098031
 20
6.314531
 10
8.087928
 20
6.317178
 10
8.077813
 20
6.319813
 10
8.067674
 20
6.322424
 10
8.057500
 20
6.325000
 10
8.047279
 20
6.327529
 10
8.037000
 20
6.330000
 10
8.026842
 20
6.332592
 10
8.016625
 20
6.335125
 10
8.006361
 20
6.337611
 10
7.996063
 20
6.340063
 10
7.985740
 20
6.342490
 10
7.975406
 20
6.344906
 10
7.965072
 20
6.347322
 10
7.954750
 20
6.349750
 10
7.944451
 20
6.352201
 10
7.934188
 20
6.354688
 10
7.923971
 20
6.357221
 10
7.913813
 20
6.359813
 10
7.903725
 20
6.362475
 10
7.893719
 20
6.365219
 10
7.883807
 20
6.368057
 10
7.874000
 20
6.371000
 10
7.864273
 20
6.374024
 10
7.854594
 20
6.377096
 10
7.844961
 20
6.380218
 10
7.835375
 20
6.383391
 10
7.825836
 20
6.386616
 10
7.816344
 20
6.389896
 10
7.806898
 20
6.393232
 10
7.797500
 20
6.396625
 10
7.788148
 20
6.400076
 10
7.778844
 20
6.403588
 10
7.769586
 20
6.407161
 10
7.760375
 20
6.410797
 10
7.751211
 20
6.414497
 10
7.742094
 20
6.418264
 10
7.733023
 20
6.422097
 10
7.724000
 20
6.426000
 10
7.715200
 20
6.429785
 10
7.706426
 20
6.433639
 10
7.697681
 20
6.437560
 10
7.688969
 20
6.441547
 10
7.680292
 20
6.445598
 10
7.671652
 20
6.449713
 10
7.663054
 20
6.453889
 10
7.654500
 20
6.458125
 10
7.645993
 20
6.462420
 10
7.637535
 20
6.466771
 10
7.629130
 20
6.471179
 10
7.620781
 20
6.475641
 10
7.612491
 20
6.480155
 10
7.604262
 20
6.484721
 10
7.596097
 20
6.489336
 10
7.588000
 20
6.494000
 10
7.579972
 20
6.498722
 10
7.572012
 20
6.503510
 10
7.564116
 20
6.508359
 10
7.556281
 20
6.513266
 10
7.548505
 20
6.518225
 10
7.540785
 20
6.523232
 10
7.533118
 20
6.528284
 10
7.525500
 20
6.533375
 10
7.517929
 20
6.538501
 10
7.510402
 20
6.543658
 10
7.502917
 20
6.548842
 10
7.495469
 20
6.554047
 10
7.488056
 20
6.559270
 10
7.480676
 20
6.564506
 10
7.473325
 20
6.569751
 10
7.466000
 20
6.575000
 10
7.458512
 20
6.580438
 10
7.451049
 20
6.585879
 10
7.443612
 20
6.591326
 10
7.436203
 20
6.596781
 10
7.428823
 20
6.602249
 10
7.421475
 20
6.607730
 10
7.414158
 20
6.613230
 10
7.406875
 20
6.618750
 10
7.399627
 20
6.624293
 10
7.392416
 20
6.629863
 10
7.385243
 20
6.635462
 10
7.378109
 20
6.641094
 10
7.371017
 20
6.646760
 10
7.363967
 20
6.652465
 10
7.356961
 20
6.658210
 10
7.350000
 20
6.664000
 10
7.343063
 20
6.669648
 10
7.336129
 20
6.675342
 10
7.329201
 20
6.681079
 10
7.322281
 20
6.686859
 10
7.315374
 20
6.692680
 10
7.308480
 20
6.698541
 10
7.301605
 20
6.704440
 10
7.294750
 20
6.710375
 10
7.287918
 20
6.716345
 10
7.281113
 20
6.722350
 10
7.274337
 20
6.728386
 10
7.267594
 20
6.734453
 10
7.260885
 20
6.740550
 10
7.254215
 20
6.746674
 10
7.247585
 20
6.752824
 10
7.241000
 20
6.759000
 10
7.234449
 20
6.765199
 10
7.227922
 20
6.771422
 10
7.221418
 20
6.777668
 10
7.214938
 20
6.783937
 10
7.208480
 20
6.790230
 10
7.202047
 20
6.796547
 10
7.195637
 20
6.802887
 10
7.189250
 20
6.809250
 10
7.182887
 20
6.815637
 10
7.176547
 20
6.822047
 10
7.170230
 20
6.828480
 10
7.163938
 20
6.834938
 10
7.157668
 20
6.841418
 10
7.151422
 20
6.847922
 10
7.145199
 20
6.854449
 10
7.139000
 20
6.861000
 10
7.132824
 20
6.867585
 10
7.126674
 20
6.874215
 10
7.120550
 20
6.880885
 10
7.114453
 20
6.887594
 10
7.108386
 20
6.894337
 10
7.102350
 20
6.901113
 10
7.096345
 20
6.907918
 10
7.090375
 20
6.914750
 10
7.084440
 20
6.921605
 10
7.078541
 20
6.928480
 10
7.072680
 20
6.935374
 10
7.066859
 20
6.942281
 10
7.061079
 20
6.949201
 10
7.055342
 20
6.956129
 10
7.049648
 20
6.963063
 10
7.044000
 20
6.970000
 10
7.038199
 20
6.976950
 10
7.032424
 20
6.983926
 10
7.026675
 20
6.990931
 10
7.020953
 20
6.997969
 10
7.015261
 20
7.005042
 10
7.009600
 20
7.012152
 10
7.003970
 20
7.019304
 10
6.998375
 20
7.026500
 10
6.992815
 20
7.033743
 10
6.987291
 20
7.041035
 10
6.981805
 20
7.048380
 10
6.976359
 20
7.055781
 10
6.970954
 20
7.063241
 10
6.965592
 20
7.070762
 10
6.960273
 20
7.078347
 10
6.955000
 20
7.086000
 10
6.949972
 20
7.093722
 10
6.945010
 20
7.101510
 10
6.940109
 20
7.109359
 10
6.935266
 20
7.117266
 10
6.930475
 20
7.125225
 10
6.925732
 20
7.133232
 10
6.921034
 20
7.141284
 10
6.916375
 20
7.149375
 10
6.911751
 20
7.157501
 10
6.907158
 20
7.165658
 10
6.902592
 20
7.173842
 10
6.898047
 20
7.182047
 10
6.893520
 20
7.190270
 10
6.889006
 20
7.198506
 10
6.884501
 20
7.206751
 10
6.880000
 20
7.215000
 10
6.875677
 20
7.223251
 10
6.871336
 20
7.231508
 10
6.866983
 20
7.239776
 10
6.862625
 20
7.248062
 10
6.858267
 20
7.256372
 10
6.853914
 20
7.264711
 10
6.849573
 20
7.273085
 10
6.845250
 20
7.281500
 10
6.840950
 20
7.289962
 10
6.836680
 20
7.298477
 10
6.832444
 20
7.307050
 10
6.828250
 20
7.315688
 10
6.824103
 20
7.324396
 10
6.820008
 20
7.333180
 10
6.815972
 20
7.342046
 10
6.812000
 20
7.351000
 10
6.808284
 20
7.360034
 10
6.804635
 20
7.369135
 10
6.801047
 20
7.378297
 10
6.797516
 20
7.387516
 10
6.794037
 20
7.396787
 10
6.790607
 20
7.406107
 10
6.787221
 20
7.415471
 10
6.783875
 20
7.424875
 10
6.780564
 20
7.434314
 10
6.777283
 20
7.443783
 10
6.774029
 20
7.453279
 10
6.770797
 20
7.462797
 10
6.767582
 20
7.472332
 10
6.764381
 20
7.481881
 10
6.761188
 20
7.491438
 10
6.758000
 20
7.501000
 10
6.754824
 20
7.510574
 10
6.751672
 20
7.520172
 10
6.748543
 20
7.529793
 10
6.745437
 20
7.539438
 10
6.742355
 20
7.549105
 10
6.739297
 20
7.558797
 10
6.736262
 20
7.568512
 10
6.733250
 20
7.578250
 10
6.730262
 20
7.588012
 10
6.727297
 20
7.597797
 10
6.724355
 20
7.607605
 10
6.721437
 20
7.617437
 10
6.718543
 20
7.627293
 10
6.715672
 20
7.637172
 10
6.712824
 20
7.647074
 10
6.710000
 20
7.657000
 10
6.707343
 20
7.667136
 10
6.704631
 20
7.677295
 10
6.701881
 20
7.687474
 10
6.699109
 20
7.697672
 10
6.696332
 20
7.707887
 10
6.693564
 20
7.718119
 10
6.690823
 20
7.728365
 10
6.688125
 20
7.738625
 10
6.685485
 20
7.748896
 10
6.682920
 20
7.759178
 10
6.680446
 20
7.769468
 10
6.678078
 20
7.779766
 10
6.675834
 20
7.790069
 10
6.673729
 20
7.800377
 10
6.671779
 20
7.810688
 10
6.670000
 20
7.821000
 10
6.668217
 20
7.831103
 10
6.666609
 20
7.841170
 10
6.665166
 20
7.851210
 10
6.663875
 20
7.861234
 10
6.662725
 20
7.871253
 10
6.661703
 20
7.881275
 10
6.660799
 20
7.891313
 10
6.660000
 20
7.901375
 10
6.659295
 20
7.911472
 10
6.658672
 20
7.921615
 10
6.658119
 20
7.931814
 10
6.657625
 20
7.942078
 10
6.657178
 20
7.952419
 10
6.656766
 20
7.962846
 10
6.656377
 20
7.973369
 10
6.656000
 20
7.984000
 10
6.655615
 20
7.994733
 10
6.655221
 20
8.005551
 10
6.654829
 20
8.016445
 10
6.654453
 20
8.027406
 10
6.654107
 20
8.038426
 10
6.653803
 20
8.049496
 10
6.653554
 20
8.060607
 10
6.653375
 20
8.071750
 10
6.653278
 20
8.082917
 10
6.653275
 20
8.094098
 10
6.653382
 20
8.105285
 10
6.653609
 20
8.116469
 10
6.653972
 20
8.127641
 10
6.654482
 20
8.138793
 10
6.655154
 20
8.149916
 10
6.656000
 20
8.161000
 10
6.656864
 20
8.172063
 10
6.657939
 20
8.183125
 10
6.659206
 20
8.194187
 10
6.660641
 20
8.205250
 10
6.662222
 20
8.216313
 10
6.663928
 20
8.227375
 10
6.665736
 20
8.238437
 10
6.667625
 20
8.249500
 10
6.669573
 20
8.260563
 10
6.671557
 20
8.271625
 10
6.673555
 20
8.282687
 10
6.675547
 20
8.293750
 10
6.677509
 20
8.304813
 10
6.679420
 20
8.315875
 10
6.681258
 20
8.326937
 10
6.683000
 20
8.338000
 10
6.684666
 20
8.349084
 10
6.686293
 20
8.360207
 10
6.687891
 20
8.371359
 10
6.689469
 20
8.382531
 10
6.691035
 20
8.393715
 10
6.692598
 20
8.404902
 10
6.694167
 20
8.416083
 10
6.695750
 20
8.427250
 10
6.697357
 20
8.438393
 10
6.698996
 20
8.449504
 10
6.700676
 20
8.460574
 10
6.702406
 20
8.471594
 10
6.704195
 20
8.482555
 10
6.706051
 20
8.493449
 10
6.707983
 20
8.504267
 10
6.710000
 20
8.515000
 10
6.712295
 20
8.525466
 10
6.714674
 20
8.535867
 10
6.717126
 20
8.546210
 10
6.719641
 20
8.556500
 10
6.722208
 20
8.566743
 10
6.724818
 20
8.576945
 10
6.727461
 20
8.587112
 10
6.730125
 20
8.597250
 10
6.732801
 20
8.607364
 10
6.735479
 20
8.617461
 10
6.738147
 20
8.627546
 10
6.740797
 20
8.637625
 10
6.743417
 20
8.647704
 10
6.745998
 20
8.657789
 10
6.748529
 20
8.667886
 10
6.751000
 20
8.678000
 10
6.753614
 20
8.688136
 10
6.756207
 20
8.698293
 10
6.758783
 20
8.708467
 10
6.761344
 20
8.718656
 10
6.763893
 20
8.728857
 10
6.766434
 20
8.739066
 10
6.768968
 20
8.749282
 10
6.771500
 20
8.759500
 10
6.774032
 20
8.769718
 10
6.776566
 20
8.779934
 10
6.779107
 20
8.790143
 10
6.781656
 20
8.800344
 10
6.784217
 20
8.810533
 10
6.786793
 20
8.820707
 10
6.789386
 20
8.830864
 10
6.792000
 20
8.841000
 10
6.794614
 20
8.851301
 10
6.797207
 20
8.861582
 10
6.799783
 20
8.871845
 10
6.802344
 20
8.882094
 10
6.804893
 20
8.892331
 10
6.807434
 20
8.902559
 10
6.809968
 20
8.912781
 10
6.812500
 20
8.923000
 10
6.815032
 20
8.933219
 10
6.817566
 20
8.943441
 10
6.820107
 20
8.953669
 10
6.822656
 20
8.963906
 10
6.825217
 20
8.974155
 10
6.827793
 20
8.984418
 10
6.830386
 20
8.994699
 10
6.833000
 20
9.005000
 10
6.835427
 20
9.015158
 10
6.837838
 20
9.025375
 10
6.840240
 20
9.035639
 10
6.842641
 20
9.045938
 10
6.845047
 20
9.056260
 10
6.847467
 20
9.066594
 10
6.849907
 20
9.076928
 10
6.852375
 20
9.087250
 10
6.854878
 20
9.097549
 10
6.857424
 20
9.107812
 10
6.860019
 20
9.118029
 10
6.862672
 20
9.128187
 10
6.865389
 20
9.138275
 10
6.868178
 20
9.148281
 10
6.871046
 20
9.158193
 10
6.874000
 20
9.168000
 10
6.877023
 20
9.177727
 10
6.880094
 20
9.187406
 10
6.883211
 20
9.197039
 10
6.886375
 20
9.206625
 10
6.889586
 20
9.216164
 10
6.892844
 20
9.225656
 10
6.896148
 20
9.235102
 10
6.899500
 20
9.244500
 10
6.902898
 20
9.253852
 10
6.906344
 20
9.263156
 10
6.909836
 20
9.272414
 10
6.913375
 20
9.281625
 10
6.916961
 20
9.290789
 10
6.920594
 20
9.299906
 10
6.924273
 20
9.308977
 10
6.928000
 20
9.318000
 10
6.931950
 20
9.326800
 10
6.935926
 20
9.335574
 10
6.939931
 20
9.344319
 10
6.943969
 20
9.353031
 10
6.948042
 20
9.361708
 10
6.952152
 20
9.370348
 10
6.956304
 20
9.378946
 10
6.960500
 20
9.387500
 10
6.964743
 20
9.396007
 10
6.969035
 20
9.404465
 10
6.973380
 20
9.412870
 10
6.977781
 20
9.421219
 10
6.982241
 20
9.429509
 10
6.986762
 20
9.437738
 10
6.991347
 20
9.445903
 10
6.996000
 20
9.454000
 10
7.000722
 20
9.462028
 10
7.005512
 20
9.469988
 10
7.010366
 20
9.477884
 10
7.015281
 20
9.485719
 10
7.020255
 20
9.493495
 10
7.025285
 20
9.501215
 10
7.030368
 20
9.508882
 10
7.035500
 20
9.516500
 10
7.040679
 20
9.524071
 10
7.045902
 20
9.531598
 10
7.051167
 20
9.539083
 10
7.056469
 20
9.546531
 10
7.061806
 20
9.553944
 10
7.067176
 20
9.561324
 10
7.072575
 20
9.568675
 10
7.078000
 20
9.576000
 10
7.083251
 20
9.583499
 10
7.088508
 20
9.590992
 10
7.093776
 20
9.598474
 10
7.099062
 20
9.605937
 10
7.104372
 20
9.613378
 10
7.109711
 20
9.620789
 10
7.115085
 20
9.628165
 10
7.120500
 20
9.635500
 10
7.125962
 20
9.642788
 10
7.131477
 20
9.650023
 10
7.137050
 20
9.657200
 10
7.142687
 20
9.664312
 10
7.148396
 20
9.671354
 10
7.154180
 20
9.678320
 10
7.160046
 20
9.685204
 10
7.166000
 20
9.692000
 10
7.172034
 20
9.698716
 10
7.178135
 20
9.705365
 10
7.184297
 20
9.711953
 10
7.190516
 20
9.718484
 10
7.196787
 20
9.724963
 10
7.203107
 20
9.731393
 10
7.209471
 20
9.737779
 10
7.215875
 20
9.744125
 10
7.222314
 20
9.750436
 10
7.228783
 20
9.756717
 10
7.235279
 20
9.762971
 10
7.241797
 20
9.769203
 10
7.248332
 20
9.775418
 10
7.254881
 20
9.781619
 10
7.261438
 20
9.787812
 10
7.268000
 20
9.794000
 10
7.274585
 20
9.800176
 10
7.281215
 20
9.806326
 10
7.287885
 20
9.812450
 10
7.294594
 20
9.818547
 10
7.301337
 20
9.824614
 10
7.308113
 20
9.830650
 10
7.314918
 20
9.836655
 10
7.321750
 20
9.842625
 10
7.328605
 20
9.848560
 10
7.335480
 20
9.854459
 10
7.342374
 20
9.860320
 10
7.349281
 20
9.866141
 10
7.356201
 20
9.871921
 10
7.363129
 20
9.877658
 10
7.370063
 20
9.883352
 10
7.377000
 20
9.889000
 10
7.384125
 20
9.894790
 10
7.391254
 20
9.900535
 10
7.398388
 20
9.906240
 10
7.405531
 20
9.911906
 10
7.412686
 20
9.917538
 10
7.419855
 20
9.923137
 10
7.427042
 20
9.928707
 10
7.434250
 20
9.934250
 10
7.441481
 20
9.939770
 10
7.448738
 20
9.945270
 10
7.456025
 20
9.950751
 10
7.463344
 20
9.956219
 10
7.470698
 20
9.961674
 10
7.478090
 20
9.967121
 10
7.485523
 20
9.972562
 10
7.493000
 20
9.978000
 10
7.500500
 20
9.983238
 10
7.508004
 20
9.988453
 10
7.515513
 20
9.993645
 10
7.523031
 20
9.998812
 10
7.530561
 20
10.003957
 10
7.538105
 20
10.009078
 10
7.545667
 20
10.014176
 10
7.553250
 20
10.019250
 10
7.560856
 20
10.024301
 10
7.568488
 20
10.029328
 10
7.576150
 20
10.034332
 10
7.583844
 20
10.039313
 10
7.591573
 20
10.044270
 10
7.599340
 20
10.049203
 10
7.607148
 20
10.054113
 10
7.615000
 20
10.059000
 10
7.622876
 20
10.063885
 10
7.630758
 20
10.068785
 10
7.638651
 20
10.073691
 10
7.646563
 20
10.078594
 10
7.654497
 20
10.083485
 10
7.662461
 20
10.088355
 10
7.670460
 20
10.093197
 10
7.678500
 20
10.098000
 10
7.686587
 20
10.102756
 10
7.694727
 20
10.107457
 10
7.702925
 20
10.112093
 10
7.711187
 20
10.116656
 10
7.719521
 20
10.121137
 10
7.727930
 20
10.125527
 10
7.736421
 20
10.129818
 10
7.745000
 20
10.134000
 10
7.753483
 20
10.138267
 10
7.762055
 20
10.142445
 10
7.770708
 20
10.146542
 10
7.779438
 20
10.150562
 10
7.788237
 20
10.154513
 10
7.797102
 20
10.158398
 10
7.806024
 20
10.162226
 10
7.815000
 20
10.166000
 10
7.824022
 20
10.169728
 10
7.833086
 20
10.173414
 10
7.842185
 20
10.177065
 10
7.851313
 20
10.180688
 10
7.860464
 20
10.184286
 10
7.869633
 20
10.187867
 10
7.878813
 20
10.191437
 10
7.888000
 20
10.195000
 10
7.896990
 20
10.198760
 10
7.905969
 20
10.202531
 10
7.914947
 20
10.206303
 10
7.923937
 20
10.210063
 10
7.932951
 20
10.213799
 10
7.942000
 20
10.217500
 10
7.951096
 20
10.221154
 10
7.960250
 20
10.224750
 10
7.969475
 20
10.228275
 10
7.978781
 20
10.231719
 10
7.988182
 20
10.235068
 10
7.997688
 20
10.238312
 10
8.007311
 20
10.241439
 10
8.017063
 20
10.244438
 10
8.026955
 20
10.247295
 10
8.037000
 20
10.250000
 10
8.047381
 20
10.252533
 10
8.057895
 20
10.254893
 10
8.068531
 20
10.257091
 10
8.079281
 20
10.259141
 10
8.090137
 20
10.261056
 10
8.101090
 20
10.262850
 10
8.112130
 20
10.264535
 10
8.123250
 20
10.266125
 10
8.134440
 20
10.267633
 10
8.145691
 20
10.269072
 10
8.156996
 20
10.270456
 10
8.168344
 20
10.271797
 10
8.179727
 20
10.273109
 10
8.191137
 20
10.274404
 10
8.202564
 20
10.275697
 10
8.214000
 20
10.277000
 10
8.225494
 20
10.278311
 10
8.237096
 20
10.279611
 10
8.248794
 20
10.280891
 10
8.260578
 20
10.282141
 10
8.272439
 20
10.283349
 10
8.284365
 20
10.284506
 10
8.296347
 20
10.285601
 10
8.308375
 20
10.286625
 10
8.320438
 20
10.287567
 10
8.332525
 20
10.288416
 10
8.344628
 20
10.289163
 10
8.356734
 20
10.289797
 10
8.368835
 20
10.290308
 10
8.380920
 20
10.290686
 10
8.392978
 20
10.290920
 10
8.405000
 20
10.291000
 10
8.416846
 20
10.290920
 10
8.428750
 20
10.290686
 10
8.440701
 20
10.290308
 10
8.452687
 20
10.289797
 10
8.464697
 20
10.289163
 10
8.476719
 20
10.288416
 10
8.488740
 20
10.287567
 10
8.500750
 20
10.286625
 10
8.512736
 20
10.285601
 10
8.524688
 20
10.284506
 10
8.536592
 20
10.283349
 10
8.548438
 20
10.282141
 10
8.560213
 20
10.280891
 10
8.571906
 20
10.279611
 10
8.583506
 20
10.278311
 10
8.595000
 20
10.277000
 10
8.606436
 20
10.275675
 10
8.617863
 20
10.274322
 10
8.629273
 20
10.272937
 10
8.640656
 20
10.271516
 10
8.652004
 20
10.270053
 10
8.663309
 20
10.268545
 10
8.674560
 20
10.266987
 10
8.685750
 20
10.265375
 10
8.696870
 20
10.263704
 10
8.707910
 20
10.261971
 10
8.718863
 20
10.260170
 10
8.729719
 20
10.258297
 10
8.740469
 20
10.256348
 10
8.751105
 20
10.254318
 10
8.761619
 20
10.252204
 10
8.772000
 20
10.250000
 10
8.782431
 20
10.247505
 10
8.792732
 20
10.244902
 10
8.802913
 20
10.242200
 10
8.812984
 20
10.239406
 10
8.822956
 20
10.236531
 10
8.832838
 20
10.233582
 10
8.842641
 20
10.230569
 10
8.852375
 20
10.227500
 10
8.862051
 20
10.224384
 10
8.871678
 20
10.221230
 10
8.881267
 20
10.218047
 10
8.890828
 20
10.214844
 10
8.900372
 20
10.211628
 10
8.909908
 20
10.208410
 10
8.919448
 20
10.205198
 10
8.929000
 20
10.202000
 10
8.938562
 20
10.198812
 10
8.948117
 20
10.195619
 10
8.957661
 20
10.192418
 10
8.967187
 20
10.189203
 10
8.976690
 20
10.185971
 10
8.986164
 20
10.182717
 10
8.995603
 20
10.179436
 10
9.005000
 20
10.176125
 10
9.014351
 20
10.172779
 10
9.023648
 20
10.169393
 10
9.032888
 20
10.165963
 10
9.042063
 20
10.162484
 10
9.051167
 20
10.158953
 10
9.060195
 20
10.155365
 10
9.069142
 20
10.151716
 10
9.078000
 20
10.148000
 10
9.086965
 20
10.144050
 10
9.095861
 20
10.140074
 10
9.104690
 20
10.136069
 10
9.113453
 20
10.132031
 10
9.122152
 20
10.127958
 10
9.130787
 20
10.123848
 10
9.139361
 20
10.119696
 10
9.147875
 20
10.115500
 10
9.156330
 20
10.111257
 10
9.164729
 20
10.106965
 10
9.173071
 20
10.102620
 10
9.181359
 20
10.098219
 10
9.189595
 20
10.093759
 10
9.197779
 20
10.089238
 10
9.205914
 20
10.084653
 10
9.214000
 20
10.080000
 10
9.222204
 20
10.075289
 10
9.230318
 20
10.070529
 10
9.238348
 20
10.065720
 10
9.246297
 20
10.060859
 10
9.254170
 20
10.055946
 10
9.261971
 20
10.050979
 10
9.269704
 20
10.045955
 10
9.277375
 20
10.040875
 10
9.284987
 20
10.035736
 10
9.292545
 20
10.030537
 10
9.300053
 20
10.025277
 10
9.307516
 20
10.019953
 10
9.314937
 20
10.014565
 10
9.322322
 20
10.009111
 10
9.329675
 20
10.003590
 10
9.337000
 20
9.998000
 10
9.344267
 20
9.992517
 10
9.351445
 20
9.986945
 10
9.358542
 20
9.981292
 10
9.365562
 20
9.975563
 10
9.372513
 20
9.969763
 10
9.379398
 20
9.963898
 10
9.386226
 20
9.957976
 10
9.393000
 20
9.952000
 10
9.399728
 20
9.945978
 10
9.406414
 20
9.939914
 10
9.413065
 20
9.933815
 10
9.419688
 20
9.927687
 10
9.426286
 20
9.921536
 10
9.432867
 20
9.915367
 10
9.439437
 20
9.909187
 10
9.446000
 20
9.903000
 10
9.452551
 20
9.896801
 10
9.459078
 20
9.890578
 10
9.465582
 20
9.884332
 10
9.472062
 20
9.878062
 10
9.478520
 20
9.871770
 10
9.484953
 20
9.865453
 10
9.491363
 20
9.859113
 10
9.497750
 20
9.852750
 10
9.504113
 20
9.846363
 10
9.510453
 20
9.839953
 10
9.516770
 20
9.833520
 10
9.523062
 20
9.827063
 10
9.529332
 20
9.820582
 10
9.535578
 20
9.814078
 10
9.541801
 20
9.807551
 10
9.548000
 20
9.801000
 10
9.554176
 20
9.794415
 10
9.560326
 20
9.787785
 10
9.566450
 20
9.781115
 10
9.572547
 20
9.774406
 10
9.578614
 20
9.767663
 10
9.584650
 20
9.760887
 10
9.590655
 20
9.754082
 10
9.596625
 20
9.747250
 10
9.602560
 20
9.740395
 10
9.608459
 20
9.733520
 10
9.614320
 20
9.726626
 10
9.620141
 20
9.719719
 10
9.625921
 20
9.712799
 10
9.631658
 20
9.705871
 10
9.637352
 20
9.698937
 10
9.643000
 20
9.692000
 10
9.648823
 20
9.684896
 10
9.654658
 20
9.677828
 10
9.660497
 20
9.670783
 10
9.666328
 20
9.663750
 10
9.672142
 20
9.656717
 10
9.677928
 20
9.649672
 10
9.683676
 20
9.642604
 10
9.689375
 20
9.635500
 10
9.695016
 20
9.628350
 10
9.700588
 20
9.621141
 10
9.706081
 20
9.613861
 10
9.711484
 20
9.606500
 10
9.716788
 20
9.599045
 10
9.721982
 20
9.591484
 10
9.727056
 20
9.583807
 10
9.732000
 20
9.576000
 10
9.736796
 20
9.568046
 10
9.741443
 20
9.559943
 10
9.745959
 20
9.551709
 10
9.750359
 20
9.543359
 10
9.754660
 20
9.534910
 10
9.758877
 20
9.526377
 10
9.763027
 20
9.517777
 10
9.767125
 20
9.509125
 10
9.771188
 20
9.500438
 10
9.775232
 20
9.491732
 10
9.779274
 20
9.483024
 10
9.783328
 20
9.474328
 10
9.787412
 20
9.465662
 10
9.791541
 20
9.457041
 10
9.795732
 20
9.448482
 10
9.800000
 20
9.440000
 10
9.804147
 20
9.431573
 10
9.808336
 20
9.423164
 10
9.812560
 20
9.414767
 10
9.816813
 20
9.406375
 10
9.821089
 20
9.397983
 10
9.825383
 20
9.389586
 10
9.829688
 20
9.381177
 10
9.834000
 20
9.372750
 10
9.838312
 20
9.364300
 10
9.842617
 20
9.355820
 10
9.846911
 20
9.347306
 10
9.851187
 20
9.338750
 10
9.855440
 20
9.330147
 10
9.859664
 20
9.321492
 10
9.863853
 20
9.312778
 10
9.868000
 20
9.304000
 10
9.871904
 20
9.295330
 10
9.875748
 20
9.286576
 10
9.879542
 20
9.277749
 10
9.883297
 20
9.268859
 10
9.887022
 20
9.259917
 10
9.890729
 20
9.250932
 10
9.894426
 20
9.241914
 10
9.898125
 20
9.232875
 10
9.901836
 20
9.223824
 10
9.905568
 20
9.214771
 10
9.909333
 20
9.205728
 10
9.913141
 20
9.196703
 10
9.917001
 20
9.187708
 10
9.920924
 20
9.178752
 10
9.924920
 20
9.169846
 10
9.929000
 20
9.161000
 10
9.933136
 20
9.152386
 10
9.937295
 20
9.143795
 10
9.941474
 20
9.135224
 10
9.945672
 20
9.126672
 10
9.949887
 20
9.118137
 10
9.954119
 20
9.109619
 10
9.958365
 20
9.101115
 10
9.962625
 20
9.092625
 10
9.966896
 20
9.084146
 10
9.971178
 20
9.075678
 10
9.975468
 20
9.067218
 10
9.979766
 20
9.058766
 10
9.984069
 20
9.050319
 10
9.988377
 20
9.041877
 10
9.992688
 20
9.033438
 10
9.997000
 20
9.025000
 10
10.001290
 20
9.016540
 10
10.005541
 20
9.008041
 10
10.009760
 20
8.999510
 10
10.013953
 20
8.990953
 10
10.018129
 20
8.982379
 10
10.022295
 20
8.973795
 10
10.026458
 20
8.965208
 10
10.030625
 20
8.956625
 10
10.034804
 20
8.948054
 10
10.039002
 20
8.939502
 10
10.043226
 20
8.930976
 10
10.047484
 20
8.922484
 10
10.051783
 20
8.914033
 10
10.056131
 20
8.905631
 10
10.060534
 20
8.897284
 10
10.065000
 20
8.889000
 10
10.069534
 20
8.880784
 10
10.074129
 20
8.872629
 10
10.078777
 20
8.864527
 10
10.083469
 20
8.856469
 10
10.088196
 20
8.848446
 10
10.092949
 20
8.840449
 10
10.097720
 20
8.832470
 10
10.102500
 20
8.824500
 10
10.107280
 20
8.816530
 10
10.112051
 20
8.808551
 10
10.116804
 20
8.800554
 10
10.121531
 20
8.792531
 10
10.126223
 20
8.784473
 10
10.130871
 20
8.776371
 10
10.135466
 20
8.768216
 10
10.140000
 20
8.760000
 10
10.144510
 20
8.751584
 10
10.149033
 20
8.743205
 10
10.153559
 20
8.734852
 10
10.158078
 20
8.726516
 10
10.162579
 20
8.718185
 10
10.167053
 20
8.709850
 10
10.171488
 20
8.701500
 10
10.175875
 20
8.693125
 10
10.180203
 20
8.684715
 10
10.184463
 20
8.676260
 10
10.188643
 20
8.667749
 10
10.192734
 20
8.659172
 10
10.196726
 20
8.650519
 10
10.200607
 20
8.641779
 10
10.204369
 20
8.632943
 10
10.208000
 20
8.624000
 10
10.211527
 20
8.614777
 10
10.214984
 20
8.605482
 10
10.218371
 20
8.596115
 10
10.221687
 20
8.586672
 10
10.224934
 20
8.577153
 10
10.228109
 20
8.567557
 10
10.231215
 20
8.557881
 10
10.234250
 20
8.548125
 10
10.237215
 20
8.538287
 10
10.240109
 20
8.528365
 10
10.242934
 20
8.518359
 10
10.245688
 20
8.508266
 10
10.248371
 20
8.498085
 10
10.250984
 20
8.487814
 10
10.253527
 20
8.477453
 10
10.256000
 20
8.467000
 10
10.258204
 20
8.456454
 10
10.260318
 20
8.445818
 10
10.262348
 20
8.435098
 10
10.264297
 20
8.424297
 10
10.266170
 20
8.413420
 10
10.267971
 20
8.402471
 10
10.269704
 20
8.391454
 10
10.271375
 20
8.380375
 10
10.272987
 20
8.369237
 10
10.274545
 20
8.358045
 10
10.276053
 20
8.346803
 10
10.277516
 20
8.335516
 10
10.278937
 20
8.324187
 10
10.280322
 20
8.312822
 10
10.281675
 20
8.301425
 10
10.283000
 20
8.290000
 10
10.284289
 20
8.278495
 10
10.285527
 20
8.266865
 10
10.286713
 20
8.255127
 10
10.287844
 20
8.243297
 10
10.288916
 20
8.231390
 10
10.289926
 20
8.219424
 10
10.290872
 20
8.207413
 10
10.291750
 20
8.195375
 10
10.292558
 20
8.183325
 10
10.293293
 20
8.171279
 10
10.293952
 20
8.159254
 10
10.294531
 20
8.147266
 10
10.295029
 20
8.135330
 10
10.295441
 20
8.123463
 10
10.295766
 20
8.111681
 10
10.296000
 20
8.100000
 10
10.296295
 20
8.088233
 10
10.296439
 20
8.076549
 10
10.296446
 20
8.064938
 10
10.296328
 20
8.053391
 10
10.296099
 20
8.041896
 10
10.295771
 20
8.030443
 10
10.295359
 20
8.019023
 10
10.294875
 20
8.007625
 10
10.294332
 20
7.996239
 10
10.293744
 20
7.984854
 10
10.293124
 20
7.973460
 10
10.292484
 20
7.962047
 10
10.291839
 20
7.950605
 10
10.291201
 20
7.939123
 10
10.290584
 20
7.927592
 10
10.290000
 20
7.916000
 10
10.289271
 20
7.904297
 10
10.288578
 20
7.892453
 10
10.287908
 20
7.880492
 10
10.287250
 20
7.868438
 10
10.286592
 20
7.856312
 10
10.285922
 20
7.844141
 10
10.285229
 20
7.831945
 10
10.284500
 20
7.819750
 10
10.283725
 20
7.807578
 10
10.282891
 20
7.795453
 10
10.281986
 20
7.783398
 10
10.281000
 20
7.771437
 10
10.279920
 20
7.759594
 10
10.278734
 20
7.747891
 10
10.277432
 20
7.736352
 10
10.276000
 20
7.725000
 10
10.274432
 20
7.713818
 10
10.272734
 20
7.702766
 10
10.270920
 20
7.691830
 10
10.269000
 20
7.681000
 10
10.266986
 20
7.670264
 10
10.264891
 20
7.659609
 10
10.262725
 20
7.649025
 10
10.260500
 20
7.638500
 10
10.258229
 20
7.628021
 10
10.255922
 20
7.617578
 10
10.253592
 20
7.607158
 10
10.251250
 20
7.596750
 10
10.248908
 20
7.586342
 10
10.246578
 20
7.575922
 10
10.244271
 20
7.565479
 10
10.242000
 20
7.555000
 10
10.239760
 20
7.544655
 10
10.237531
 20
7.534256
 10
10.235303
 20
7.523819
 10
10.233063
 20
7.513359
 10
10.230799
 20
7.502894
 10
10.228500
 20
7.492439
 10
10.226154
 20
7.482011
 10
10.223750
 20
7.471625
 10
10.221275
 20
7.461298
 10
10.218719
 20
7.451045
 10
10.216068
 20
7.440883
 10
10.213313
 20
7.430828
 10
10.210439
 20
7.420896
 10
10.207438
 20
7.411104
 10
10.204295
 20
7.401466
 10
10.201000
 20
7.392000
 10
10.197534
 20
7.382716
 10
10.193895
 20
7.373605
 10
10.190097
 20
7.364653
 10
10.186156
 20
7.355844
 10
10.182086
 20
7.347164
 10
10.177902
 20
7.338598
 10
10.173619
 20
7.330131
 10
10.169250
 20
7.321750
 10
10.164811
 20
7.313439
 10
10.160316
 20
7.305184
 10
10.155781
 20
7.296969
 10
10.151219
 20
7.288781
 10
10.146645
 20
7.280605
 10
10.142074
 20
7.272426
 10
10.137521
 20
7.264229
 10
10.133000
 20
7.256000
 10
10.128488
 20
7.247751
 10
10.123953
 20
7.239506
 10
10.119395
 20
7.231270
 10
10.114812
 20
7.223047
 10
10.110207
 20
7.214842
 10
10.105578
 20
7.206658
 10
10.100926
 20
7.198501
 10
10.096250
 20
7.190375
 10
10.091551
 20
7.182284
 10
10.086828
 20
7.174232
 10
10.082082
 20
7.166225
 10
10.077312
 20
7.158266
 10
10.072520
 20
7.150359
 10
10.067703
 20
7.142510
 10
10.062863
 20
7.134722
 10
10.058000
 20
7.127000
 10
10.053113
 20
7.119137
 10
10.048203
 20
7.111297
 10
10.043270
 20
7.103480
 10
10.038312
 20
7.095688
 10
10.033332
 20
7.087918
 10
10.028328
 20
7.080172
 10
10.023301
 20
7.072449
 10
10.018250
 20
7.064750
 10
10.013176
 20
7.057074
 10
10.008078
 20
7.049422
 10
10.002957
 20
7.041793
 10
9.997813
 20
7.034187
 10
9.992645
 20
7.026605
 10
9.987453
 20
7.019047
 10
9.982238
 20
7.011512
 10
9.977000
 20
7.004000
 10
9.971562
 20
6.996523
 10
9.966121
 20
6.989090
 10
9.960674
 20
6.981698
 10
9.955219
 20
6.974344
 10
9.949751
 20
6.967025
 10
9.944270
 20
6.959738
 10
9.938770
 20
6.952481
 10
9.933250
 20
6.945250
 10
9.927707
 20
6.938042
 10
9.922137
 20
6.930855
 10
9.916538
 20
6.923686
 10
9.910906
 20
6.916531
 10
9.905240
 20
6.909388
 10
9.899535
 20
6.902254
 10
9.893790
 20
6.895125
 10
9.888000
 20
6.888000
 10
9.882363
 20
6.881063
 10
9.876699
 20
6.874129
 10
9.871006
 20
6.867201
 10
9.865281
 20
6.860281
 10
9.859521
 20
6.853374
 10
9.853723
 20
6.846480
 10
9.847883
 20
6.839605
 10
9.842000
 20
6.832750
 10
9.836070
 20
6.825918
 10
9.830090
 20
6.819113
 10
9.824057
 20
6.812337
 10
9.817969
 20
6.805594
 10
9.811822
 20
6.798885
 10
9.805613
 20
6.792215
 10
9.799340
 20
6.785585
 10
9.793000
 20
6.779000
 10
9.786579
 20
6.772671
 10
9.780072
 20
6.766428
 10
9.773486
 20
6.760264
 10
9.766828
 20
6.754172
 10
9.760106
 20
6.748144
 10
9.753326
 20
6.742174
 10
9.746497
 20
6.736253
 10
9.739625
 20
6.730375
 10
9.732718
 20
6.724532
 10
9.725783
 20
6.718717
 10
9.718828
 20
6.712922
 10
9.711859
 20
6.707141
 10
9.704885
 20
6.701365
 10
9.697912
 20
6.695588
 10
9.690948
 20
6.689802
 10
9.684000
 20
6.684000
 10
9.677039
 20
6.678375
 10
9.670033
 20
6.672754
 10
9.662983
 20
6.667138
 10
9.655891
 20
6.661531
 10
9.648757
 20
6.655936
 10
9.641584
 20
6.650355
 10
9.634373
 20
6.644792
 10
9.627125
 20
6.639250
 10
9.619842
 20
6.633731
 10
9.612525
 20
6.628238
 10
9.605177
 20
6.622775
 10
9.597797
 20
6.617344
 10
9.590388
 20
6.611948
 10
9.582951
 20
6.606590
 10
9.575488
 20
6.601273
 10
9.568000
 20
6.596000
 10
9.560664
 20
6.590586
 10
9.553283
 20
6.585217
 10
9.545858
 20
6.579892
 10
9.538391
 20
6.574609
 10
9.530882
 20
6.569368
 10
9.523334
 20
6.564166
 10
9.515748
 20
6.559002
 10
9.508125
 20
6.553875
 10
9.500467
 20
6.548783
 10
9.492775
 20
6.543725
 10
9.485052
 20
6.538698
 10
9.477297
 20
6.533703
 10
9.469513
 20
6.528737
 10
9.461701
 20
6.523799
 10
9.453863
 20
6.518887
 10
9.446000
 20
6.514000
 10
9.438124
 20
6.509126
 10
9.430244
 20
6.504256
 10
9.422355
 20
6.499395
 10
9.414453
 20
6.494547
 10
9.406533
 20
6.489717
 10
9.398592
 20
6.484908
 10
9.390624
 20
6.480126
 10
9.382625
 20
6.475375
 10
9.374591
 20
6.470659
 10
9.366518
 20
6.465982
 10
9.358400
 20
6.461350
 10
9.350234
 20
6.456766
 10
9.342016
 20
6.452234
 10
9.333740
 20
6.447760
 10
9.325403
 20
6.443347
 10
9.317000
 20
6.439000
 10
9.308363
 20
6.434887
 10
9.299699
 20
6.430801
 10
9.291006
 20
6.426744
 10
9.282281
 20
6.422719
 10
9.273521
 20
6.418729
 10
9.264723
 20
6.414777
 10
9.255883
 20
6.410867
 10
9.247000
 20
6.407000
 10
9.238070
 20
6.403180
 10
9.229090
 20
6.399410
 10
9.220057
 20
6.395693
 10
9.210969
 20
6.392031
 10
9.201822
 20
6.388428
 10
9.192613
 20
6.384887
 10
9.183340
 20
6.381410
 10
9.174000
 20
6.378000
 10
9.164535
 20
6.374659
 10
9.154908
 20
6.371385
 10
9.145143
 20
6.368172
 10
9.135266
 20
6.365016
 10
9.125300
 20
6.361912
 10
9.115271
 20
6.358857
 10
9.105205
 20
6.355846
 10
9.095125
 20
6.352875
 10
9.085057
 20
6.349939
 10
9.075025
 20
6.347033
 10
9.065055
 20
6.344154
 10
9.055172
 20
6.341297
 10
9.045400
 20
6.338457
 10
9.035764
 20
6.335631
 10
9.026289
 20
6.332813
 10
9.017000
 20
6.330000
 10
9.007925
 20
6.327365
 10
8.999057
 20
6.324713
 10
8.990367
 20
6.322052
 10
8.981828
 20
6.319391
 10
8.973412
 20
6.316735
 10
8.965092
 20
6.314092
 10
8.956839
 20
6.311469
 10
8.948625
 20
6.308875
 10
8.940423
 20
6.306316
 10
8.932205
 20
6.303799
 10
8.923943
 20
6.301332
 10
8.915609
 20
6.298922
 10
8.907176
 20
6.296576
 10
8.898615
 20
6.294303
 10
8.889899
 20
6.292108
 10
8.881000
 20
6.290000
 10
8.871988
 20
6.287785
 10
8.862947
 20
6.285639
 10
8.853875
 20
6.283560
 10
8.844766
 20
6.281547
 10
8.835615
 20
6.279598
 10
8.826420
 20
6.277713
 10
8.817175
 20
6.275889
 10
8.807875
 20
6.274125
 10
8.798517
 20
6.272420
 10
8.789096
 20
6.270771
 10
8.779607
 20
6.269179
 10
8.770047
 20
6.267641
 10
8.760410
 20
6.266155
 10
8.750693
 20
6.264721
 10
8.740891
 20
6.263336
 10
8.731000
 20
6.262000
  0
ENDSEC
  0
EOF
