  0
SECTION
  2
HEADER
  9
$INSUNITS
 70
4
  0
ENDSEC
  0
SECTION
  2
TABLES
  0
TABLE
  2
LAYER
  0
LAYER
  2
CUT
 70
0
 62
7
  0
LAYER
  2
ENGRAVE
 70
0
 62
1
  0
ENDTAB
  0
ENDSEC
  0
SECTION
  2
ENTITIES
  0
CIRCLE
  8
CUT
 10
8.500000
 20
8.500000
 30
0.0
 40
8.000000
  0
LWPOLYLINE
  8
ENGRAVE
 90
1073
 70
1
 10
3.758000
 20
7.019000
 10
3.743285
 20
7.017770
 10
3.728732
 20
7.016703
 10
3.714294
 20
7.015801
 10
3.699922
 20
7.015062
 10
3.685567
 20
7.014488
 10
3.671182
 20
7.014078
 10
3.656717
 20
7.013832
 10
3.642125
 20
7.013750
 10
3.627357
 20
7.013832
 10
3.612365
 20
7.014078
 10
3.597101
 20
7.014488
 10
3.581516
 20
7.015062
 10
3.565561
 20
7.015801
 10
3.549189
 20
7.016703
 10
3.532352
 20
7.017770
 10
3.515000
 20
7.019000
 10
3.496815
 20
7.020383
 10
3.477943
 20
7.021908
 10
3.458471
 20
7.023577
 10
3.438484
 20
7.025391
 10
3.418070
 20
7.027351
 10
3.397314
 20
7.029459
 10
3.376304
 20
7.031717
 10
3.355125
 20
7.034125
 10
3.333864
 20
7.036686
 10
3.312607
 20
7.039400
 10
3.291442
 20
7.042270
 10
3.270453
 20
7.045297
 10
3.249728
 20
7.048482
 10
3.229354
 20
7.051826
 10
3.209415
 20
7.055332
 10
3.190000
 20
7.059000
 10
3.171133
 20
7.063008
 10
3.152410
 20
7.067156
 10
3.133833
 20
7.071445
 10
3.115406
 20
7.075875
 10
3.097131
 20
7.080445
 10
3.079012
 20
7.085156
 10
3.061050
 20
7.090008
 10
3.043250
 20
7.095000
 10
3.025614
 20
7.100133
 10
3.008145
 20
7.105406
 10
2.990845
 20
7.110820
 10
2.973719
 20
7.116375
 10
2.956768
 20
7.122070
 10
2.939996
 20
7.127906
 10
2.923406
 20
7.133883
 10
2.907000
 20
7.140000
 10
2.890593
 20
7.146468
 10
2.874367
 20
7.153117
 10
2.858317
 20
7.159942
 10
2.842438
 20
7.166937
 10
2.826722
 20
7.174097
 10
2.811164
 20
7.181414
 10
2.795759
 20
7.188884
 10
2.780500
 20
7.196500
 10
2.765382
 20
7.204257
 10
2.750398
 20
7.212148
 10
2.735544
 20
7.220169
 10
2.720813
 20
7.228313
 10
2.706198
 20
7.236573
 10
2.691695
 20
7.244945
 10
2.677298
 20
7.253423
 10
2.663000
 20
7.262000
 10
2.648996
 20
7.270695
 10
2.635111
 20
7.279529
 10
2.621346
 20
7.288501
 10
2.607703
 20
7.297609
 10
2.594183
 20
7.306852
 10
2.580787
 20
7.316229
 10
2.567517
 20
7.325737
 10
2.554375
 20
7.335375
 10
2.541362
 20
7.345142
 10
2.528479
 20
7.355037
 10
2.515727
 20
7.365058
 10
2.503109
 20
7.375203
 10
2.490626
 20
7.385471
 10
2.478279
 20
7.395861
 10
2.466070
 20
7.406371
 10
2.454000
 20
7.417000
 10
2.442070
 20
7.427945
 10
2.430277
 20
7.439025
 10
2.418620
 20
7.450238
 10
2.407094
 20
7.461578
 10
2.395697
 20
7.473041
 10
2.384426
 20
7.484623
 10
2.373278
 20
7.496319
 10
2.362250
 20
7.508125
 10
2.351339
 20
7.520036
 10
2.340543
 20
7.532049
 10
2.329858
 20
7.544158
 10
2.319281
 20
7.556359
 10
2.308810
 20
7.568649
 10
2.298441
 20
7.581021
 10
2.288172
 20
7.593473
 10
2.278000
 20
7.606000
 10
2.267933
 20
7.618797
 10
2.257982
 20
7.631689
 10
2.248146
 20
7.644678
 10
2.238422
 20
7.657766
 10
2.228809
 20
7.670952
 10
2.219307
 20
7.684240
 10
2.209912
 20
7.697631
 10
2.200625
 20
7.711125
 10
2.191443
 20
7.724725
 10
2.182365
 20
7.738432
 10
2.173390
 20
7.752247
 10
2.164516
 20
7.766172
 10
2.155741
 20
7.780208
 10
2.147064
 20
7.794357
 10
2.138485
 20
7.808621
 10
2.130000
 20
7.823000
 10
2.121599
 20
7.837298
 10
2.113273
 20
7.851693
 10
2.105030
 20
7.866192
 10
2.096875
 20
7.880797
 10
2.088813
 20
7.895513
 10
2.080852
 20
7.910346
 10
2.072995
 20
7.925298
 10
2.065250
 20
7.940375
 10
2.057622
 20
7.955581
 10
2.050117
 20
7.970920
 10
2.042741
 20
7.986397
 10
2.035500
 20
8.002016
 10
2.028399
 20
8.017781
 10
2.021445
 20
8.033697
 10
2.014644
 20
8.049769
 10
2.008000
 20
8.066000
 10
2.001497
 20
8.082196
 10
1.995113
 20
8.098533
 10
1.988853
 20
8.115014
 10
1.982719
 20
8.131641
 10
1.976713
 20
8.148413
 10
1.970840
 20
8.165334
 10
1.965101
 20
8.182404
 10
1.959500
 20
8.199625
 10
1.954040
 20
8.216998
 10
1.948723
 20
8.234525
 10
1.943552
 20
8.252208
 10
1.938531
 20
8.270047
 10
1.933663
 20
8.288044
 10
1.928949
 20
8.306201
 10
1.924394
 20
8.324519
 10
1.920000
 20
8.343000
 10
1.915935
 20
8.361677
 10
1.911992
 20
8.380574
 10
1.908179
 20
8.399676
 10
1.904500
 20
8.418969
 10
1.900962
 20
8.438437
 10
1.897570
 20
8.458066
 10
1.894331
 20
8.477842
 10
1.891250
 20
8.497750
 10
1.888333
 20
8.517775
 10
1.885586
 20
8.537902
 10
1.883015
 20
8.558118
 10
1.880625
 20
8.578406
 10
1.878423
 20
8.598753
 10
1.876414
 20
8.619145
 10
1.874604
 20
8.639565
 10
1.873000
 20
8.660000
 10
1.871638
 20
8.680517
 10
1.870539
 20
8.701184
 10
1.869687
 20
8.721985
 10
1.869062
 20
8.742906
 10
1.868649
 20
8.763933
 10
1.868430
 20
8.785051
 10
1.868386
 20
8.806245
 10
1.868500
 20
8.827500
 10
1.868755
 20
8.848802
 10
1.869133
 20
8.870137
 10
1.869616
 20
8.891489
 10
1.870188
 20
8.912844
 10
1.870829
 20
8.934187
 10
1.871523
 20
8.955504
 10
1.872253
 20
8.976780
 10
1.873000
 20
8.998000
 10
1.873984
 20
9.019231
 10
1.875062
 20
9.040537
 10
1.876234
 20
9.061899
 10
1.877500
 20
9.083297
 10
1.878859
 20
9.104713
 10
1.880312
 20
9.126127
 10
1.881859
 20
9.147521
 10
1.883500
 20
9.168875
 10
1.885234
 20
9.190171
 10
1.887062
 20
9.211389
 10
1.888984
 20
9.232510
 10
1.891000
 20
9.253516
 10
1.893109
 20
9.274386
 10
1.895312
 20
9.295104
 10
1.897609
 20
9.315648
 10
1.900000
 20
9.336000
 10
1.902683
 20
9.356181
 10
1.905479
 20
9.376227
 10
1.908383
 20
9.396144
 10
1.911391
 20
9.415938
 10
1.914498
 20
9.435614
 10
1.917701
 20
9.455180
 10
1.920995
 20
9.474640
 10
1.924375
 20
9.494000
 10
1.927837
 20
9.513267
 10
1.931377
 20
9.532445
 10
1.934990
 20
9.551542
 10
1.938672
 20
9.570563
 10
1.942418
 20
9.589513
 10
1.946225
 20
9.608398
 10
1.950087
 20
9.627226
 10
1.954000
 20
9.646000
 10
1.958149
 20
9.664880
 10
1.962348
 20
9.683646
 10
1.966599
 20
9.702305
 10
1.970906
 20
9.720859
 10
1.975272
 20
9.739314
 10
1.979699
 20
9.757674
 10
1.984191
 20
9.775943
 10
1.988750
 20
9.794125
 10
1.993379
 20
9.812225
 10
1.998082
 20
9.830248
 10
2.002861
 20
9.848198
 10
2.007719
 20
9.866078
 10
2.012659
 20
9.883894
 10
2.017684
 20
9.901650
 10
2.022796
 20
9.919351
 10
2.028000
 20
9.937000
 10
2.033505
 20
9.954369
 10
2.039137
 20
9.971611
 10
2.044879
 20
9.988739
 10
2.050719
 20
10.005766
 10
2.056640
 20
10.022704
 10
2.062629
 20
10.039568
 10
2.068670
 20
10.056371
 10
2.074750
 20
10.073125
 10
2.080853
 20
10.089844
 10
2.086965
 20
10.106541
 10
2.093071
 20
10.123229
 10
2.099156
 20
10.139922
 10
2.105207
 20
10.156632
 10
2.111207
 20
10.173373
 10
2.117143
 20
10.190158
 10
2.123000
 20
10.207000
 10
2.128978
 20
10.223886
 10
2.134916
 20
10.240791
 10
2.140822
 20
10.257711
 10
2.146703
 20
10.274641
 10
2.152567
 20
10.291576
 10
2.158420
 20
10.308514
 10
2.164270
 20
10.325448
 10
2.170125
 20
10.342375
 10
2.175991
 20
10.359290
 10
2.181877
 20
10.376189
 10
2.187789
 20
10.393068
 10
2.193734
 20
10.409922
 10
2.199721
 20
10.426746
 10
2.205756
 20
10.443537
 10
2.211846
 20
10.460290
 10
2.218000
 20
10.477000
 10
2.224034
 20
10.493665
 10
2.230133
 20
10.510287
 10
2.236290
 20
10.526871
 10
2.242500
 20
10.543422
 10
2.248757
 20
10.559943
 10
2.255055
 20
10.576439
 10
2.261388
 20
10.592915
 10
2.267750
 20
10.609375
 10
2.274136
 20
10.625823
 10
2.280539
 20
10.642264
 10
2.286954
 20
10.658701
 10
2.293375
 20
10.675141
 10
2.299796
 20
10.691586
 10
2.306211
 20
10.708041
 10
2.312614
 20
10.724511
 10
2.319000
 20
10.741000
 10
2.325342
 20
10.757357
 10
2.331625
 20
10.773793
 10
2.337861
 20
10.790293
 10
2.344062
 20
10.806844
 10
2.350240
 20
10.823429
 10
2.356406
 20
10.840035
 10
2.362572
 20
10.856647
 10
2.368750
 20
10.873250
 10
2.374951
 20
10.889830
 10
2.381188
 20
10.906371
 10
2.387471
 20
10.922860
 10
2.393813
 20
10.939281
 10
2.400225
 20
10.955621
 10
2.406719
 20
10.971863
 10
2.413307
 20
10.987995
 10
2.420000
 20
11.004000
 10
2.426807
 20
11.020068
 10
2.433719
 20
11.036029
 10
2.440725
 20
11.051894
 10
2.447812
 20
11.067672
 10
2.454971
 20
11.083374
 10
2.462187
 20
11.099010
 10
2.469451
 20
11.114590
 10
2.476750
 20
11.130125
 10
2.484072
 20
11.145625
 10
2.491406
 20
11.161100
 10
2.498740
 20
11.176560
 10
2.506063
 20
11.192016
 10
2.513361
 20
11.207477
 10
2.520625
 20
11.222955
 10
2.527842
 20
11.238459
 10
2.535000
 20
11.254000
 10
2.542103
 20
11.269596
 10
2.549170
 20
11.285250
 10
2.556210
 20
11.300951
 10
2.563234
 20
11.316688
 10
2.570253
 20
11.332447
 10
2.577275
 20
11.348219
 10
2.584313
 20
11.363990
 10
2.591375
 20
11.379750
 10
2.598472
 20
11.395486
 10
2.605615
 20
11.411188
 10
2.612814
 20
11.426842
 10
2.620078
 20
11.442438
 10
2.627419
 20
11.457963
 10
2.634846
 20
11.473406
 10
2.642369
 20
11.488756
 10
2.650000
 20
11.504000
 10
2.657546
 20
11.519153
 10
2.665180
 20
11.534238
 10
2.672896
 20
11.549259
 10
2.680687
 20
11.564219
 10
2.688550
 20
11.579120
 10
2.696477
 20
11.593965
 10
2.704462
 20
11.608757
 10
2.712500
 20
11.623500
 10
2.720585
 20
11.638196
 10
2.728711
 20
11.652848
 10
2.736872
 20
11.667458
 10
2.745062
 20
11.682031
 10
2.753276
 20
11.696569
 10
2.761508
 20
11.711074
 10
2.769751
 20
11.725550
 10
2.778000
 20
11.740000
 10
2.786240
 20
11.754635
 10
2.794465
 20
11.769283
 10
2.802684
 20
11.783934
 10
2.810906
 20
11.798578
 10
2.819140
 20
11.813204
 10
2.827395
 20
11.827803
 10
2.835678
 20
11.842363
 10
2.844000
 20
11.856875
 10
2.852369
 20
11.871328
 10
2.860793
 20
11.885713
 10
2.869282
 20
11.900018
 10
2.877844
 20
11.914234
 10
2.886488
 20
11.928351
 10
2.895223
 20
11.942357
 10
2.904057
 20
11.956244
 10
2.913000
 20
11.970000
 10
2.922234
 20
11.983641
 10
2.931557
 20
11.997191
 10
2.940965
 20
12.010654
 10
2.950453
 20
12.024031
 10
2.960018
 20
12.037327
 10
2.969654
 20
12.050543
 10
2.979358
 20
12.063683
 10
2.989125
 20
12.076750
 10
2.998950
 20
12.089747
 10
3.008830
 20
12.102676
 10
3.018760
 20
12.115541
 10
3.028734
 20
12.128344
 10
3.038750
 20
12.141088
 10
3.048803
 20
12.153777
 10
3.058887
 20
12.166414
 10
3.069000
 20
12.179000
 10
3.079149
 20
12.191715
 10
3.089346
 20
12.204361
 10
3.099593
 20
12.216940
 10
3.109891
 20
12.229453
 10
3.120241
 20
12.241902
 10
3.130646
 20
12.254287
 10
3.141107
 20
12.266611
 10
3.151625
 20
12.278875
 10
3.162201
 20
12.291080
 10
3.172838
 20
12.303229
 10
3.183536
 20
12.315321
 10
3.194297
 20
12.327359
 10
3.205122
 20
12.339345
 10
3.216014
 20
12.351279
 10
3.226972
 20
12.363164
 10
3.238000
 20
12.375000
 10
3.248910
 20
12.386789
 10
3.259889
 20
12.398531
 10
3.270935
 20
12.410227
 10
3.282047
 20
12.421875
 10
3.293223
 20
12.433477
 10
3.304463
 20
12.445031
 10
3.315764
 20
12.456539
 10
3.327125
 20
12.468000
 10
3.338545
 20
12.479414
 10
3.350021
 20
12.490781
 10
3.361554
 20
12.502102
 10
3.373141
 20
12.513375
 10
3.384780
 20
12.524602
 10
3.396471
 20
12.535781
 10
3.408211
 20
12.546914
 10
3.420000
 20
12.558000
 10
3.431825
 20
12.568874
 10
3.443680
 20
12.579740
 10
3.455569
 20
12.590592
 10
3.467500
 20
12.601422
 10
3.479478
 20
12.612222
 10
3.491508
 20
12.622986
 10
3.503597
 20
12.633706
 10
3.515750
 20
12.644375
 10
3.527974
 20
12.654985
 10
3.540273
 20
12.665529
 10
3.552655
 20
12.676000
 10
3.565125
 20
12.686391
 10
3.577688
 20
12.696693
 10
3.590352
 20
12.706900
 10
3.603120
 20
12.717005
 10
3.616000
 20
12.727000
 10
3.628951
 20
12.736737
 10
3.641934
 20
12.746443
 10
3.654958
 20
12.756112
 10
3.668031
 20
12.765734
 10
3.681164
 20
12.775304
 10
3.694363
 20
12.784814
 10
3.707639
 20
12.794257
 10
3.721000
 20
12.803625
 10
3.734455
 20
12.812911
 10
3.748012
 20
12.822107
 10
3.761680
 20
12.831207
 10
3.775469
 20
12.840203
 10
3.789386
 20
12.849088
 10
3.803441
 20
12.857854
 10
3.817643
 20
12.866493
 10
3.832000
 20
12.875000
 10
3.846484
 20
12.883390
 10
3.861062
 20
12.891686
 10
3.875734
 20
12.899884
 10
3.890500
 20
12.907984
 10
3.905359
 20
12.915985
 10
3.920313
 20
12.923885
 10
3.935359
 20
12.931682
 10
3.950500
 20
12.939375
 10
3.965734
 20
12.946963
 10
3.981062
 20
12.954443
 10
3.996484
 20
12.961816
 10
4.012000
 20
12.969078
 10
4.027609
 20
12.976229
 10
4.043313
 20
12.983268
 10
4.059109
 20
12.990192
 10
4.075000
 20
12.997000
 10
4.091172
 20
13.003747
 10
4.107437
 20
13.010473
 10
4.123797
 20
13.017158
 10
4.140250
 20
13.023781
 10
4.156797
 20
13.030323
 10
4.173437
 20
13.036762
 10
4.190172
 20
13.043078
 10
4.207000
 20
13.049250
 10
4.223922
 20
13.055258
 10
4.240937
 20
13.061082
 10
4.258047
 20
13.066701
 10
4.275250
 20
13.072094
 10
4.292547
 20
13.077241
 10
4.309938
 20
13.082121
 10
4.327422
 20
13.086714
 10
4.345000
 20
13.091000
 10
4.362893
 20
13.095207
 10
4.380937
 20
13.099201
 10
4.399123
 20
13.102982
 10
4.417437
 20
13.106547
 10
4.435869
 20
13.109895
 10
4.454406
 20
13.113025
 10
4.473037
 20
13.115936
 10
4.491750
 20
13.118625
 10
4.510533
 20
13.121092
 10
4.529375
 20
13.123334
 10
4.548264
 20
13.125351
 10
4.567187
 20
13.127141
 10
4.586135
 20
13.128702
 10
4.605094
 20
13.130033
 10
4.624053
 20
13.131133
 10
4.643000
 20
13.132000
 10
4.661817
 20
13.132446
 10
4.680754
 20
13.132658
 10
4.699791
 20
13.132639
 10
4.718906
 20
13.132391
 10
4.738081
 20
13.131913
 10
4.757293
 20
13.131209
 10
4.776523
 20
13.130279
 10
4.795750
 20
13.129125
 10
4.814954
 20
13.127748
 10
4.834113
 20
13.126150
 10
4.853208
 20
13.124333
 10
4.872219
 20
13.122297
 10
4.891124
 20
13.120044
 10
4.909902
 20
13.117576
 10
4.928535
 20
13.114894
 10
4.947000
 20
13.112000
 10
4.965197
 20
13.108651
 10
4.983400
 20
13.104992
 10
5.001595
 20
13.101040
 10
5.019766
 20
13.096813
 10
5.037895
 20
13.092327
 10
5.055967
 20
13.087602
 10
5.073966
 20
13.082653
 10
5.091875
 20
13.077500
 10
5.109679
 20
13.072159
 10
5.127361
 20
13.066648
 10
5.144906
 20
13.060985
 10
5.162297
 20
13.055188
 10
5.179518
 20
13.049272
 10
5.196553
 20
13.043258
 10
5.213385
 20
13.037161
 10
5.230000
 20
13.031000
 10
5.246418
 20
13.024543
 10
5.262672
 20
13.017924
 10
5.278762
 20
13.011143
 10
5.294688
 20
13.004203
 10
5.310449
 20
12.997105
 10
5.326047
 20
12.989850
 10
5.341480
 20
12.982439
 10
5.356750
 20
12.974875
 10
5.371855
 20
12.967158
 10
5.386797
 20
12.959291
 10
5.401574
 20
12.951274
 10
5.416187
 20
12.943109
 10
5.430637
 20
12.934798
 10
5.444922
 20
12.926342
 10
5.459043
 20
12.917742
 10
5.473000
 20
12.909000
 10
5.486947
 20
12.900073
 10
5.500672
 20
12.890924
 10
5.514186
 20
12.881567
 10
5.527500
 20
12.872016
 10
5.540627
 20
12.862282
 10
5.553578
 20
12.852381
 10
5.566365
 20
12.842324
 10
5.579000
 20
12.832125
 10
5.591494
 20
12.821797
 10
5.603859
 20
12.811354
 10
5.616107
 20
12.800807
 10
5.628250
 20
12.790172
 10
5.640299
 20
12.779460
 10
5.652266
 20
12.768686
 10
5.664162
 20
12.757861
 10
5.676000
 20
12.747000
 10
5.687732
 20
12.735869
 10
5.699313
 20
12.724605
 10
5.710752
 20
12.713219
 10
5.722062
 20
12.701719
 10
5.733256
 20
12.690113
 10
5.744344
 20
12.678410
 10
5.755338
 20
12.666620
 10
5.766250
 20
12.654750
 10
5.777092
 20
12.642810
 10
5.787875
 20
12.630809
 10
5.798611
 20
12.618754
 10
5.809313
 20
12.606656
 10
5.819990
 20
12.594523
 10
5.830656
 20
12.582363
 10
5.841322
 20
12.570186
 10
5.852000
 20
12.558000
 10
5.862444
 20
12.545569
 10
5.872783
 20
12.533035
 10
5.883032
 20
12.520414
 10
5.893203
 20
12.507719
 10
5.903310
 20
12.494965
 10
5.913365
 20
12.482168
 10
5.923383
 20
12.469341
 10
5.933375
 20
12.456500
 10
5.943356
 20
12.443659
 10
5.953338
 20
12.430832
 10
5.963335
 20
12.418035
 10
5.973359
 20
12.405281
 10
5.983425
 20
12.392586
 10
5.993545
 20
12.379965
 10
6.003732
 20
12.367431
 10
6.014000
 20
12.355000
 10
6.024324
 20
12.342625
 10
6.034674
 20
12.330254
 10
6.045050
 20
12.317888
 10
6.055453
 20
12.305531
 10
6.065886
 20
12.293186
 10
6.076350
 20
12.280855
 10
6.086845
 20
12.268542
 10
6.097375
 20
12.256250
 10
6.107940
 20
12.243981
 10
6.118541
 20
12.231738
 10
6.129180
 20
12.219525
 10
6.139859
 20
12.207344
 10
6.150579
 20
12.195198
 10
6.161342
 20
12.183090
 10
6.172148
 20
12.171023
 10
6.183000
 20
12.159000
 10
6.193677
 20
12.146990
 10
6.204342
 20
12.134965
 10
6.215003
 20
12.122934
 10
6.225672
 20
12.110906
 10
6.236358
 20
12.098890
 10
6.247072
 20
12.086895
 10
6.257824
 20
12.074928
 10
6.268625
 20
12.063000
 10
6.279484
 20
12.051119
 10
6.290412
 20
12.039293
 10
6.301419
 20
12.027532
 10
6.312516
 20
12.015844
 10
6.323712
 20
12.004238
 10
6.335018
 20
11.992723
 10
6.346444
 20
11.981307
 10
6.358000
 20
11.970000
 10
6.369693
 20
11.958819
 10
6.381516
 20
11.947768
 10
6.393455
 20
11.936837
 10
6.405500
 20
11.926016
 10
6.417639
 20
11.915294
 10
6.429859
 20
11.904662
 10
6.442150
 20
11.894109
 10
6.454500
 20
11.883625
 10
6.466896
 20
11.873199
 10
6.479328
 20
11.862822
 10
6.491783
 20
11.852483
 10
6.504250
 20
11.842172
 10
6.516717
 20
11.831878
 10
6.529172
 20
11.821592
 10
6.541604
 20
11.811302
 10
6.554000
 20
11.801000
 10
6.566552
 20
11.790688
 10
6.579088
 20
11.780381
 10
6.591615
 20
11.770082
 10
6.604141
 20
11.759797
 10
6.616672
 20
11.749529
 10
6.629217
 20
11.739283
 10
6.641782
 20
11.729064
 10
6.654375
 20
11.718875
 10
6.667003
 20
11.708721
 10
6.679674
 20
11.698607
 10
6.692394
 20
11.688537
 10
6.705172
 20
11.678516
 10
6.718014
 20
11.668547
 10
6.730928
 20
11.658635
 10
6.743921
 20
11.648784
 10
6.757000
 20
11.639000
 10
6.770192
 20
11.629329
 10
6.783508
 20
11.619801
 10
6.796929
 20
11.610396
 10
6.810438
 20
11.601094
 10
6.824017
 20
11.591874
 10
6.837648
 20
11.582715
 10
6.851315
 20
11.573597
 10
6.865000
 20
11.564500
 10
6.878685
 20
11.555403
 10
6.892352
 20
11.546285
 10
6.905983
 20
11.537126
 10
6.919562
 20
11.527906
 10
6.933071
 20
11.518604
 10
6.946492
 20
11.509199
 10
6.959808
 20
11.499671
 10
6.973000
 20
11.490000
 10
6.986090
 20
11.480402
 10
6.999113
 20
11.470734
 10
7.012072
 20
11.460996
 10
7.024969
 20
11.451187
 10
7.037807
 20
11.441309
 10
7.050590
 20
11.431359
 10
7.063320
 20
11.421340
 10
7.076000
 20
11.411250
 10
7.088633
 20
11.401090
 10
7.101223
 20
11.390859
 10
7.113771
 20
11.380559
 10
7.126281
 20
11.370188
 10
7.138756
 20
11.359746
 10
7.151199
 20
11.349234
 10
7.163613
 20
11.338652
 10
7.176000
 20
11.328000
 10
7.188197
 20
11.317509
 10
7.200404
 20
11.307027
 10
7.212609
 20
11.296540
 10
7.224797
 20
11.286031
 10
7.236956
 20
11.275488
 10
7.249072
 20
11.264895
 10
7.261133
 20
11.254237
 10
7.273125
 20
11.243500
 10
7.285035
 20
11.232669
 10
7.296850
 20
11.221730
 10
7.308556
 20
11.210668
 10
7.320141
 20
11.199469
 10
7.331591
 20
11.188117
 10
7.342893
 20
11.176598
 10
7.354033
 20
11.164897
 10
7.365000
 20
11.153000
 10
7.375618
 20
11.140919
 10
7.386098
 20
11.128678
 10
7.396443
 20
11.116281
 10
7.406656
 20
11.103734
 10
7.416741
 20
11.091041
 10
7.426699
 20
11.078205
 10
7.436535
 20
11.065232
 10
7.446250
 20
11.052125
 10
7.455848
 20
11.038889
 10
7.465332
 20
11.025529
 10
7.474705
 20
11.012049
 10
7.483969
 20
10.998453
 10
7.493127
 20
10.984746
 10
7.502184
 20
10.970932
 10
7.511140
 20
10.957015
 10
7.520000
 20
10.943000
 10
7.528809
 20
10.929111
 10
7.537600
 20
10.915182
 10
7.546352
 20
10.901197
 10
7.555047
 20
10.887141
 10
7.563666
 20
10.872996
 10
7.572189
 20
10.858748
 10
7.580599
 20
10.844380
 10
7.588875
 20
10.829875
 10
7.596999
 20
10.815218
 10
7.604951
 20
10.800393
 10
7.612713
 20
10.785383
 10
7.620266
 20
10.770172
 10
7.627590
 20
10.754744
 10
7.634666
 20
10.739084
 10
7.641476
 20
10.723175
 10
7.648000
 20
10.707000
 10
7.654480
 20
10.690561
 10
7.660791
 20
10.673879
 10
7.666929
 20
10.656968
 10
7.672891
 20
10.639844
 10
7.678670
 20
10.622520
 10
7.684264
 20
10.605012
 10
7.689667
 20
10.587333
 10
7.694875
 20
10.569500
 10
7.699884
 20
10.551526
 10
7.704689
 20
10.533426
 10
7.709287
 20
10.515214
 10
7.713672
 20
10.496906
 10
7.717840
 20
10.478516
 10
7.721787
 20
10.460059
 10
7.725509
 20
10.441548
 10
7.729000
 20
10.423000
 10
7.732292
 20
10.404346
 10
7.735410
 20
10.385520
 10
7.738347
 20
10.366535
 10
7.741094
 20
10.347406
 10
7.743641
 20
10.328149
 10
7.745980
 20
10.308777
 10
7.748103
 20
10.289306
 10
7.750000
 20
10.269750
 10
7.751663
 20
10.250124
 10
7.753082
 20
10.230441
 10
7.754250
 20
10.210718
 10
7.755156
 20
10.190969
 10
7.755793
 20
10.171208
 10
7.756152
 20
10.151449
 10
7.756224
 20
10.131708
 10
7.756000
 20
10.112000
 10
7.755684
 20
10.092389
 10
7.755115
 20
10.072580
 10
7.754297
 20
10.052610
 10
7.753234
 20
10.032516
 10
7.751931
 20
10.012333
 10
7.750393
 20
9.992100
 10
7.748622
 20
9.971851
 10
7.746625
 20
9.951625
 10
7.744405
 20
9.931457
 10
7.741967
 20
9.911385
 10
7.739315
 20
9.891444
 10
7.736453
 20
9.871672
 10
7.733386
 20
9.852105
 10
7.730119
 20
9.832779
 10
7.726656
 20
9.813732
 10
7.723000
 20
9.795000
 10
7.718947
 20
9.776519
 10
7.714666
 20
9.758201
 10
7.710166
 20
9.740044
 10
7.705453
 20
9.722047
 10
7.700535
 20
9.704208
 10
7.695420
 20
9.686525
 10
7.690114
 20
9.668998
 10
7.684625
 20
9.651625
 10
7.678960
 20
9.634404
 10
7.673127
 20
9.617334
 10
7.667133
 20
9.600413
 10
7.660984
 20
9.583641
 10
7.654690
 20
9.567014
 10
7.648256
 20
9.550533
 10
7.641690
 20
9.534196
 10
7.635000
 20
9.518000
 10
7.628157
 20
9.501979
 10
7.621133
 20
9.486162
 10
7.613933
 20
9.470541
 10
7.606562
 20
9.455109
 10
7.599028
 20
9.439859
 10
7.591336
 20
9.424783
 10
7.583491
 20
9.409874
 10
7.575500
 20
9.395125
 10
7.567368
 20
9.380528
 10
7.559102
 20
9.366076
 10
7.550706
 20
9.351762
 10
7.542187
 20
9.337578
 10
7.533552
 20
9.323517
 10
7.524805
 20
9.309572
 10
7.515952
 20
9.295736
 10
7.507000
 20
9.282000
 10
7.497743
 20
9.268218
 10
7.488348
 20
9.254615
 10
7.478818
 20
9.241186
 10
7.469156
 20
9.227922
 10
7.459366
 20
9.214816
 10
7.449449
 20
9.201861
 10
7.439410
 20
9.189050
 10
7.429250
 20
9.176375
 10
7.418973
 20
9.163829
 10
7.408582
 20
9.151404
 10
7.398080
 20
9.139094
 10
7.387469
 20
9.126891
 10
7.376752
 20
9.114787
 10
7.365934
 20
9.102775
 10
7.355015
 20
9.090849
 10
7.344000
 20
9.079000
 10
7.333066
 20
9.067235
 10
7.322016
 20
9.055564
 10
7.310848
 20
9.043991
 10
7.299562
 20
9.032516
 10
7.288160
 20
9.021140
 10
7.276641
 20
9.009865
 10
7.265004
 20
8.998693
 10
7.253250
 20
8.987625
 10
7.241379
 20
8.976662
 10
7.229391
 20
8.965807
 10
7.217285
 20
8.955059
 10
7.205062
 20
8.944422
 10
7.192723
 20
8.933896
 10
7.180266
 20
8.923482
 10
7.167691
 20
8.913183
 10
7.155000
 20
8.903000
 10
7.142379
 20
8.892933
 10
7.129641
 20
8.882982
 10
7.116785
 20
8.873146
 10
7.103813
 20
8.863422
 10
7.090723
 20
8.853809
 10
7.077516
 20
8.844307
 10
7.064191
 20
8.834912
 10
7.050750
 20
8.825625
 10
7.037191
 20
8.816443
 10
7.023516
 20
8.807365
 10
7.009723
 20
8.798390
 10
6.995813
 20
8.789516
 10
6.981785
 20
8.780741
 10
6.967641
 20
8.772064
 10
6.953379
 20
8.763485
 10
6.939000
 20
8.755000
 10
6.924669
 20
8.746621
 10
6.910184
 20
8.738355
 10
6.895551
 20
8.730202
 10
6.880781
 20
8.722156
 10
6.865882
 20
8.714216
 10
6.850863
 20
8.706379
 10
6.835733
 20
8.698641
 10
6.820500
 20
8.691000
 10
6.805173
 20
8.683453
 10
6.789762
 20
8.675996
 10
6.774274
 20
8.668627
 10
6.758719
 20
8.661344
 10
6.743105
 20
8.654142
 10
6.727441
 20
8.647020
 10
6.711737
 20
8.639973
 10
6.696000
 20
8.633000
 10
6.680170
 20
8.626131
 10
6.664191
 20
8.619391
 10
6.648078
 20
8.612768
 10
6.631844
 20
8.606250
 10
6.615504
 20
8.599826
 10
6.599074
 20
8.593484
 10
6.582568
 20
8.587213
 10
6.566000
 20
8.581000
 10
6.549385
 20
8.574834
 10
6.532738
 20
8.568703
 10
6.516074
 20
8.562596
 10
6.499406
 20
8.556500
 10
6.482750
 20
8.550404
 10
6.466121
 20
8.544297
 10
6.449533
 20
8.538166
 10
6.433000
 20
8.532000
 10
6.416268
 20
8.525857
 10
6.399453
 20
8.519797
 10
6.382568
 20
8.513807
 10
6.365625
 20
8.507875
 10
6.348635
 20
8.501990
 10
6.331609
 20
8.496141
 10
6.314561
 20
8.490314
 10
6.297500
 20
8.484500
 10
6.280439
 20
8.478686
 10
6.263391
 20
8.472859
 10
6.246365
 20
8.467010
 10
6.229375
 20
8.461125
 10
6.212432
 20
8.455193
 10
6.195547
 20
8.449203
 10
6.178732
 20
8.443143
 10
6.162000
 20
8.437000
 10
6.145302
 20
8.430999
 10
6.128592
 20
8.424990
 10
6.111878
 20
8.418967
 10
6.095172
 20
8.412922
 10
6.078483
 20
8.406847
 10
6.061822
 20
8.400736
 10
6.045199
 20
8.394581
 10
6.028625
 20
8.388375
 10
6.012109
 20
8.382110
 10
5.995662
 20
8.375779
 10
5.979294
 20
8.369375
 10
5.963016
 20
8.362891
 10
5.946837
 20
8.356318
 10
5.930768
 20
8.349650
 10
5.914819
 20
8.342880
 10
5.899000
 20
8.336000
 10
5.883109
 20
8.329016
 10
5.867312
 20
8.321939
 10
5.851609
 20
8.314772
 10
5.836000
 20
8.307516
 10
5.820484
 20
8.300171
 10
5.805063
 20
8.292740
 10
5.789734
 20
8.285224
 10
5.774500
 20
8.277625
 10
5.759359
 20
8.269944
 10
5.744312
 20
8.262182
 10
5.729359
 20
8.254341
 10
5.714500
 20
8.246422
 10
5.699734
 20
8.238427
 10
5.685062
 20
8.230357
 10
5.670484
 20
8.222215
 10
5.656000
 20
8.214000
 10
5.641422
 20
8.205715
 10
5.626936
 20
8.197359
 10
5.612540
 20
8.188934
 10
5.598234
 20
8.180438
 10
5.584016
 20
8.171871
 10
5.569885
 20
8.163234
 10
5.555838
 20
8.154527
 10
5.541875
 20
8.145750
 10
5.527994
 20
8.136902
 10
5.514193
 20
8.127984
 10
5.500472
 20
8.118996
 10
5.486828
 20
8.109937
 10
5.473260
 20
8.100809
 10
5.459768
 20
8.091609
 10
5.446348
 20
8.082340
 10
5.433000
 20
8.073000
 10
5.419745
 20
8.063391
 10
5.406600
 20
8.053691
 10
5.393557
 20
8.043904
 10
5.380609
 20
8.034031
 10
5.367750
 20
8.024077
 10
5.354971
 20
8.014043
 10
5.342265
 20
8.003933
 10
5.329625
 20
7.993750
 10
5.317044
 20
7.983497
 10
5.304514
 20
7.973176
 10
5.292028
 20
7.962791
 10
5.279578
 20
7.952344
 10
5.267158
 20
7.941838
 10
5.254760
 20
7.931277
 10
5.242376
 20
7.920664
 10
5.230000
 20
7.910000
 10
5.217858
 20
7.899443
 10
5.205801
 20
7.888781
 10
5.193820
 20
7.878025
 10
5.181906
 20
7.867188
 10
5.170051
 20
7.856279
 10
5.158246
 20
7.845313
 10
5.146482
 20
7.834299
 10
5.134750
 20
7.823250
 10
5.123042
 20
7.812178
 10
5.111348
 20
7.801094
 10
5.099660
 20
7.790010
 10
5.087969
 20
7.778937
 10
5.076266
 20
7.767889
 10
5.064543
 20
7.756875
 10
5.052791
 20
7.745908
 10
5.041000
 20
7.735000
 10
5.029209
 20
7.723916
 10
5.017457
 20
7.712795
 10
5.005734
 20
7.701648
 10
4.994031
 20
7.690484
 10
4.982340
 20
7.679315
 10
4.970652
 20
7.668150
 10
4.958958
 20
7.657000
 10
4.947250
 20
7.645875
 10
4.935518
 20
7.634785
 10
4.923754
 20
7.623740
 10
4.911949
 20
7.612751
 10
4.900094
 20
7.601828
 10
4.888180
 20
7.590981
 10
4.876199
 20
7.580221
 10
4.864142
 20
7.569557
 10
4.852000
 20
7.559000
 10
4.839789
 20
7.548512
 10
4.827527
 20
7.538053
 10
4.815213
 20
7.527625
 10
4.802844
 20
7.517234
 10
4.790416
 20
7.506885
 10
4.777926
 20
7.496580
 10
4.765372
 20
7.486325
 10
4.752750
 20
7.476125
 10
4.740058
 20
7.465983
 10
4.727293
 20
7.455904
 10
4.714452
 20
7.445893
 10
4.701531
 20
7.435953
 10
4.688529
 20
7.426090
 10
4.675441
 20
7.416307
 10
4.662266
 20
7.406609
 10
4.649000
 20
7.397000
 10
4.635663
 20
7.387473
 10
4.622273
 20
7.378020
 10
4.608825
 20
7.368642
 10
4.595313
 20
7.359344
 10
4.581729
 20
7.350127
 10
4.568070
 20
7.340996
 10
4.554329
 20
7.331953
 10
4.540500
 20
7.323000
 10
4.526577
 20
7.314141
 10
4.512555
 20
7.305379
 10
4.498427
 20
7.296716
 10
4.484187
 20
7.288156
 10
4.469831
 20
7.279702
 10
4.455352
 20
7.271355
 10
4.440743
 20
7.263121
 10
4.426000
 20
7.255000
 10
4.411151
 20
7.246985
 10
4.395898
 20
7.239066
 10
4.380306
 20
7.231248
 10
4.364438
 20
7.223531
 10
4.348358
 20
7.215920
 10
4.332133
 20
7.208418
 10
4.315825
 20
7.201027
 10
4.299500
 20
7.193750
 10
4.283222
 20
7.186590
 10
4.267055
 20
7.179551
 10
4.251063
 20
7.172634
 10
4.235313
 20
7.165844
 10
4.219866
 20
7.159182
 10
4.204789
 20
7.152652
 10
4.190146
 20
7.146257
 10
4.176000
 20
7.140000
 10
4.162616
 20
7.134048
 10
4.149791
 20
7.128193
 10
4.137449
 20
7.122442
 10
4.125516
 20
7.116797
 10
4.113916
 20
7.111263
 10
4.102576
 20
7.105846
 10
4.091421
 20
7.100548
 10
4.080375
 20
7.095375
 10
4.069365
 20
7.090331
 10
4.058314
 20
7.085420
 10
4.047150
 20
7.080647
 10
4.035797
 20
7.076016
 10
4.024180
 20
7.071531
 10
4.012225
 20
7.067197
 10
3.999856
 20
7.063019
 10
3.987000
 20
7.059000
 10
3.973914
 20
7.055332
 10
3.960549
 20
7.051826
 10
3.946928
 20
7.048482
 10
3.933078
 20
7.045297
 10
3.919023
 20
7.042270
 10
3.904787
 20
7.039400
 10
3.890396
 20
7.036686
 10
3.875875
 20
7.034125
 10
3.861248
 20
7.031717
 10
3.846541
 20
7.029459
 10
3.831778
 20
7.027351
 10
3.816984
 20
7.025391
 10
3.802185
 20
7.023577
 10
3.787404
 20
7.021908
 10
3.772668
 20
7.020383
 10
3.758000
 20
7.019000
  0
LWPOLYLINE
  8
ENGRAVE
 90
1073
 70
1
 10
8.770000
 20
1.291000
 10
8.755340
 20
1.290648
 10
8.740937
 20
1.290344
 10
8.726723
 20
1.290086
 10
8.712625
 20
1.289875
 10
8.698574
 20
1.289711
 10
8.684500
 20
1.289594
 10
8.670332
 20
1.289523
 10
8.656000
 20
1.289500
 10
8.641434
 20
1.289523
 10
8.626563
 20
1.289594
 10
8.611316
 20
1.289711
 10
8.595625
 20
1.289875
 10
8.579418
 20
1.290086
 10
8.562625
 20
1.290344
 10
8.545176
 20
1.290648
 10
8.527000
 20
1.291000
 10
8.507831
 20
1.291410
 10
8.487881
 20
1.291887
 10
8.467237
 20
1.292428
 10
8.445984
 20
1.293031
 10
8.424211
 20
1.293693
 10
8.402002
 20
1.294410
 10
8.379445
 20
1.295180
 10
8.356625
 20
1.296000
 10
8.333630
 20
1.296867
 10
8.310545
 20
1.297777
 10
8.287457
 20
1.298729
 10
8.264453
 20
1.299719
 10
8.241619
 20
1.300744
 10
8.219041
 20
1.301801
 10
8.196806
 20
1.302887
 10
8.175000
 20
1.304000
 10
8.153472
 20
1.305336
 10
8.132014
 20
1.306719
 10
8.110622
 20
1.308148
 10
8.089297
 20
1.309625
 10
8.068036
 20
1.311148
 10
8.046838
 20
1.312719
 10
8.025701
 20
1.314336
 10
8.004625
 20
1.316000
 10
7.983607
 20
1.317711
 10
7.962646
 20
1.319469
 10
7.941741
 20
1.321273
 10
7.920891
 20
1.323125
 10
7.900093
 20
1.325023
 10
7.879346
 20
1.326969
 10
7.858649
 20
1.328961
 10
7.838000
 20
1.331000
 10
7.817222
 20
1.333262
 10
7.796514
 20
1.335551
 10
7.775872
 20
1.337869
 10
7.755297
 20
1.340219
 10
7.734786
 20
1.342604
 10
7.714338
 20
1.345027
 10
7.693951
 20
1.347492
 10
7.673625
 20
1.350000
 10
7.653357
 20
1.352555
 10
7.633146
 20
1.355160
 10
7.612991
 20
1.357818
 10
7.592891
 20
1.360531
 10
7.572843
 20
1.363303
 10
7.552846
 20
1.366137
 10
7.532899
 20
1.369035
 10
7.513000
 20
1.372000
 10
7.493171
 20
1.375034
 10
7.473430
 20
1.378135
 10
7.453771
 20
1.381297
 10
7.434188
 20
1.384516
 10
7.414675
 20
1.387787
 10
7.395227
 20
1.391107
 10
7.375837
 20
1.394471
 10
7.356500
 20
1.397875
 10
7.337210
 20
1.401314
 10
7.317961
 20
1.404783
 10
7.298747
 20
1.408279
 10
7.279562
 20
1.411797
 10
7.260401
 20
1.415332
 10
7.241258
 20
1.418881
 10
7.222126
 20
1.422438
 10
7.203000
 20
1.426000
 10
7.183700
 20
1.429563
 10
7.164426
 20
1.433133
 10
7.145181
 20
1.436714
 10
7.125969
 20
1.440313
 10
7.106792
 20
1.443935
 10
7.087652
 20
1.447586
 10
7.068554
 20
1.451272
 10
7.049500
 20
1.455000
 10
7.030493
 20
1.458774
 10
7.011535
 20
1.462602
 10
6.992630
 20
1.466487
 10
6.973781
 20
1.470438
 10
6.954991
 20
1.474458
 10
6.936262
 20
1.478555
 10
6.917597
 20
1.482733
 10
6.899000
 20
1.487000
 10
6.880472
 20
1.491171
 10
6.862010
 20
1.495430
 10
6.843609
 20
1.499771
 10
6.825266
 20
1.504188
 10
6.806975
 20
1.508675
 10
6.788732
 20
1.513227
 10
6.770534
 20
1.517837
 10
6.752375
 20
1.522500
 10
6.734251
 20
1.527210
 10
6.716158
 20
1.531961
 10
6.698092
 20
1.536747
 10
6.680047
 20
1.541563
 10
6.662020
 20
1.546401
 10
6.644006
 20
1.551258
 10
6.626001
 20
1.556126
 10
6.608000
 20
1.561000
 10
6.590023
 20
1.565887
 10
6.572090
 20
1.570797
 10
6.554198
 20
1.575730
 10
6.536344
 20
1.580687
 10
6.518525
 20
1.585668
 10
6.500738
 20
1.590672
 10
6.482981
 20
1.595699
 10
6.465250
 20
1.600750
 10
6.447542
 20
1.605824
 10
6.429855
 20
1.610922
 10
6.412186
 20
1.616043
 10
6.394531
 20
1.621188
 10
6.376888
 20
1.626355
 10
6.359254
 20
1.631547
 10
6.341625
 20
1.636762
 10
6.324000
 20
1.642000
 10
6.306563
 20
1.647251
 10
6.289131
 20
1.652508
 10
6.271707
 20
1.657776
 10
6.254297
 20
1.663063
 10
6.236904
 20
1.668372
 10
6.219533
 20
1.673711
 10
6.202189
 20
1.679085
 10
6.184875
 20
1.684500
 10
6.167596
 20
1.689962
 10
6.150357
 20
1.695477
 10
6.133162
 20
1.701050
 10
6.116016
 20
1.706688
 10
6.098922
 20
1.712396
 10
6.081885
 20
1.718180
 10
6.064909
 20
1.724046
 10
6.048000
 20
1.730000
 10
6.030995
 20
1.735858
 10
6.014098
 20
1.741805
 10
5.997300
 20
1.747833
 10
5.980594
 20
1.753938
 10
5.963969
 20
1.760112
 10
5.947418
 20
1.766352
 10
5.930931
 20
1.772649
 10
5.914500
 20
1.779000
 10
5.898116
 20
1.785397
 10
5.881770
 20
1.791836
 10
5.865453
 20
1.798310
 10
5.849156
 20
1.804812
 10
5.832872
 20
1.811339
 10
5.816590
 20
1.817883
 10
5.800302
 20
1.824438
 10
5.784000
 20
1.831000
 10
5.767699
 20
1.837563
 10
5.751424
 20
1.844131
 10
5.735175
 20
1.850707
 10
5.718953
 20
1.857297
 10
5.702761
 20
1.863904
 10
5.686600
 20
1.870533
 10
5.670470
 20
1.877189
 10
5.654375
 20
1.883875
 10
5.638315
 20
1.890596
 10
5.622291
 20
1.897357
 10
5.606305
 20
1.904162
 10
5.590359
 20
1.911016
 10
5.574454
 20
1.917922
 10
5.558592
 20
1.924885
 10
5.542773
 20
1.931909
 10
5.527000
 20
1.939000
 10
5.511450
 20
1.946149
 10
5.495928
 20
1.953348
 10
5.480438
 20
1.960599
 10
5.464984
 20
1.967906
 10
5.449572
 20
1.975272
 10
5.434205
 20
1.982699
 10
5.418888
 20
1.990191
 10
5.403625
 20
1.997750
 10
5.388421
 20
2.005379
 10
5.373279
 20
2.013082
 10
5.358205
 20
2.020861
 10
5.343203
 20
2.028719
 10
5.328277
 20
2.036659
 10
5.313432
 20
2.044684
 10
5.298671
 20
2.052796
 10
5.284000
 20
2.061000
 10
5.269553
 20
2.069252
 10
5.255100
 20
2.077520
 10
5.240655
 20
2.085816
 10
5.226234
 20
2.094156
 10
5.211855
 20
2.102555
 10
5.197533
 20
2.111027
 10
5.183284
 20
2.119587
 10
5.169125
 20
2.128250
 10
5.155071
 20
2.137030
 10
5.141139
 20
2.145941
 10
5.127344
 20
2.155000
 10
5.113703
 20
2.164219
 10
5.100232
 20
2.173614
 10
5.086947
 20
2.183199
 10
5.073865
 20
2.192990
 10
5.061000
 20
2.203000
 10
5.048464
 20
2.213152
 10
5.035994
 20
2.223371
 10
5.023609
 20
2.233678
 10
5.011328
 20
2.244094
 10
4.999170
 20
2.254638
 10
4.987154
 20
2.265332
 10
4.975300
 20
2.276196
 10
4.963625
 20
2.287250
 10
4.952150
 20
2.298515
 10
4.940893
 20
2.310012
 10
4.929873
 20
2.321760
 10
4.919109
 20
2.333781
 10
4.908621
 20
2.346095
 10
4.898428
 20
2.358723
 10
4.888548
 20
2.371684
 10
4.879000
 20
2.385000
 10
4.869754
 20
2.398673
 10
4.860770
 20
2.412682
 10
4.852048
 20
2.427010
 10
4.843594
 20
2.441641
 10
4.835409
 20
2.456559
 10
4.827496
 20
2.471748
 10
4.819859
 20
2.487192
 10
4.812500
 20
2.502875
 10
4.805422
 20
2.518781
 10
4.798629
 20
2.534893
 10
4.792123
 20
2.551195
 10
4.785906
 20
2.567672
 10
4.779983
 20
2.584307
 10
4.774355
 20
2.601084
 10
4.769027
 20
2.617987
 10
4.764000
 20
2.635000
 10
4.759277
 20
2.652233
 10
4.754857
 20
2.669787
 10
4.750740
 20
2.687631
 10
4.746922
 20
2.705734
 10
4.743403
 20
2.724066
 10
4.740182
 20
2.742596
 10
4.737256
 20
2.761292
 10
4.734625
 20
2.780125
 10
4.732287
 20
2.799063
 10
4.730240
 20
2.818076
 10
4.728484
 20
2.837133
 10
4.727016
 20
2.856203
 10
4.725835
 20
2.875256
 10
4.724939
 20
2.894260
 10
4.724328
 20
2.913185
 10
4.724000
 20
2.932000
 10
4.723810
 20
2.950839
 10
4.723982
 20
2.969836
 10
4.724503
 20
2.988962
 10
4.725359
 20
3.008188
 10
4.726538
 20
3.027483
 10
4.728025
 20
3.046820
 10
4.729809
 20
3.066169
 10
4.731875
 20
3.085500
 10
4.734211
 20
3.104784
 10
4.736803
 20
3.123992
 10
4.739638
 20
3.143095
 10
4.742703
 20
3.162063
 10
4.745985
 20
3.180866
 10
4.749471
 20
3.199477
 10
4.753147
 20
3.217864
 10
4.757000
 20
3.236000
 10
4.761275
 20
3.253941
 10
4.765840
 20
3.271760
 10
4.770680
 20
3.289453
 10
4.775781
 20
3.307016
 10
4.781128
 20
3.324444
 10
4.786707
 20
3.341732
 10
4.792502
 20
3.358878
 10
4.798500
 20
3.375875
 10
4.804685
 20
3.392720
 10
4.811043
 20
3.409408
 10
4.817559
 20
3.425935
 10
4.824219
 20
3.442297
 10
4.831007
 20
3.458489
 10
4.837910
 20
3.474506
 10
4.844913
 20
3.490344
 10
4.852000
 20
3.506000
 10
4.859218
 20
3.521646
 10
4.866619
 20
3.537088
 10
4.874199
 20
3.552334
 10
4.881953
 20
3.567391
 10
4.889877
 20
3.582266
 10
4.897967
 20
3.596967
 10
4.906218
 20
3.611501
 10
4.914625
 20
3.625875
 10
4.923185
 20
3.640097
 10
4.931893
 20
3.654174
 10
4.940744
 20
3.668113
 10
4.949734
 20
3.681922
 10
4.958860
 20
3.695608
 10
4.968115
 20
3.709178
 10
4.977497
 20
3.722639
 10
4.987000
 20
3.736000
 10
4.996643
 20
3.749220
 10
5.006443
 20
3.762264
 10
5.016393
 20
3.775140
 10
5.026484
 20
3.787859
 10
5.036711
 20
3.800432
 10
5.047064
 20
3.812869
 10
5.057538
 20
3.825180
 10
5.068125
 20
3.837375
 10
5.078817
 20
3.849465
 10
5.089607
 20
3.861459
 10
5.100489
 20
3.873368
 10
5.111453
 20
3.885203
 10
5.122494
 20
3.896973
 10
5.133604
 20
3.908689
 10
5.144775
 20
3.920362
 10
5.156000
 20
3.932000
 10
5.167296
 20
3.943567
 10
5.178682
 20
3.955023
 10
5.190152
 20
3.966374
 10
5.201703
 20
3.977625
 10
5.213330
 20
3.988782
 10
5.225029
 20
3.999852
 10
5.236796
 20
4.010839
 10
5.248625
 20
4.021750
 10
5.260513
 20
4.032591
 10
5.272455
 20
4.043367
 10
5.284447
 20
4.054085
 10
5.296484
 20
4.064750
 10
5.308563
 20
4.075368
 10
5.320678
 20
4.085945
 10
5.332825
 20
4.096487
 10
5.345000
 20
4.107000
 10
5.357244
 20
4.117631
 10
5.369596
 20
4.128154
 10
5.382044
 20
4.138581
 10
5.394578
 20
4.148922
 10
5.407189
 20
4.159186
 10
5.419865
 20
4.169385
 10
5.432597
 20
4.179528
 10
5.445375
 20
4.189625
 10
5.458188
 20
4.199687
 10
5.471025
 20
4.209725
 10
5.483878
 20
4.219747
 10
5.496734
 20
4.229766
 10
5.509585
 20
4.239790
 10
5.522420
 20
4.249830
 10
5.535228
 20
4.259897
 10
5.548000
 20
4.270000
 10
5.560596
 20
4.280092
 10
5.573250
 20
4.290127
 10
5.585951
 20
4.300118
 10
5.598688
 20
4.310078
 10
5.611447
 20
4.320021
 10
5.624219
 20
4.329959
 10
5.636990
 20
4.339906
 10
5.649750
 20
4.349875
 10
5.662486
 20
4.359879
 10
5.675187
 20
4.369932
 10
5.687842
 20
4.380046
 10
5.700437
 20
4.390234
 10
5.712963
 20
4.400511
 10
5.725406
 20
4.410889
 10
5.737756
 20
4.421381
 10
5.750000
 20
4.432000
 10
5.762351
 20
4.442513
 10
5.774650
 20
4.453055
 10
5.786894
 20
4.463632
 10
5.799078
 20
4.474250
 10
5.811198
 20
4.484915
 10
5.823248
 20
4.495633
 10
5.835225
 20
4.506409
 10
5.847125
 20
4.517250
 10
5.858943
 20
4.528161
 10
5.870674
 20
4.539148
 10
5.882314
 20
4.550218
 10
5.893859
 20
4.561375
 10
5.905305
 20
4.572626
 10
5.916646
 20
4.583977
 10
5.927880
 20
4.595433
 10
5.939000
 20
4.607000
 10
5.950192
 20
4.618682
 10
5.961273
 20
4.630475
 10
5.972249
 20
4.642369
 10
5.983125
 20
4.654359
 10
5.993907
 20
4.666437
 10
6.004602
 20
4.678596
 10
6.015214
 20
4.690827
 10
6.025750
 20
4.703125
 10
6.036216
 20
4.715481
 10
6.046617
 20
4.727889
 10
6.056960
 20
4.740340
 10
6.067250
 20
4.752828
 10
6.077493
 20
4.765345
 10
6.087695
 20
4.777885
 10
6.097862
 20
4.790439
 10
6.108000
 20
4.803000
 10
6.118080
 20
4.815795
 10
6.128074
 20
4.828676
 10
6.137993
 20
4.841632
 10
6.147844
 20
4.854656
 10
6.157636
 20
4.867739
 10
6.167379
 20
4.880871
 10
6.177081
 20
4.894044
 10
6.186750
 20
4.907250
 10
6.196396
 20
4.920479
 10
6.206027
 20
4.933723
 10
6.215653
 20
4.946972
 10
6.225281
 20
4.960219
 10
6.234921
 20
4.973454
 10
6.244582
 20
4.986668
 10
6.254272
 20
4.999853
 10
6.264000
 20
5.013000
 10
6.273552
 20
5.025971
 10
6.283088
 20
5.039002
 10
6.292615
 20
5.052083
 10
6.302141
 20
5.065203
 10
6.311672
 20
5.078353
 10
6.321217
 20
5.091521
 10
6.330782
 20
5.104699
 10
6.340375
 20
5.117875
 10
6.350003
 20
5.131039
 10
6.359674
 20
5.144182
 10
6.369394
 20
5.157292
 10
6.379172
 20
5.170359
 10
6.389014
 20
5.183374
 10
6.398928
 20
5.196326
 10
6.408921
 20
5.209205
 10
6.419000
 20
5.222000
 10
6.429138
 20
5.234726
 10
6.439305
 20
5.247402
 10
6.449507
 20
5.260026
 10
6.459750
 20
5.272594
 10
6.470040
 20
5.285103
 10
6.480383
 20
5.297551
 10
6.490784
 20
5.309934
 10
6.501250
 20
5.322250
 10
6.511786
 20
5.334496
 10
6.522398
 20
5.346668
 10
6.533093
 20
5.358764
 10
6.543875
 20
5.370781
 10
6.554751
 20
5.382716
 10
6.565727
 20
5.394566
 10
6.576808
 20
5.406329
 10
6.588000
 20
5.418000
 10
6.599285
 20
5.429579
 10
6.610641
 20
5.441066
 10
6.622066
 20
5.452466
 10
6.633562
 20
5.463781
 10
6.645129
 20
5.475014
 10
6.656766
 20
5.486168
 10
6.668473
 20
5.497246
 10
6.680250
 20
5.508250
 10
6.692098
 20
5.519184
 10
6.704016
 20
5.530051
 10
6.716004
 20
5.540853
 10
6.728063
 20
5.551594
 10
6.740191
 20
5.562276
 10
6.752391
 20
5.572902
 10
6.764660
 20
5.583476
 10
6.777000
 20
5.594000
 10
6.789422
 20
5.604266
 10
6.801936
 20
5.614441
 10
6.814540
 20
5.624529
 10
6.827234
 20
5.634531
 10
6.840016
 20
5.644452
 10
6.852885
 20
5.654293
 10
6.865838
 20
5.664058
 10
6.878875
 20
5.673750
 10
6.891994
 20
5.683372
 10
6.905193
 20
5.692926
 10
6.918472
 20
5.702416
 10
6.931828
 20
5.711844
 10
6.945260
 20
5.721213
 10
6.958768
 20
5.730527
 10
6.972348
 20
5.739789
 10
6.986000
 20
5.749000
 10
6.999910
 20
5.757954
 10
7.013889
 20
5.766818
 10
7.027935
 20
5.775598
 10
7.042047
 20
5.784297
 10
7.056223
 20
5.792920
 10
7.070463
 20
5.801471
 10
7.084764
 20
5.809954
 10
7.099125
 20
5.818375
 10
7.113545
 20
5.826737
 10
7.128021
 20
5.835045
 10
7.142554
 20
5.843303
 10
7.157141
 20
5.851516
 10
7.171780
 20
5.859687
 10
7.186471
 20
5.867822
 10
7.201211
 20
5.875925
 10
7.216000
 20
5.884000
 10
7.230803
 20
5.892072
 10
7.245596
 20
5.900152
 10
7.260391
 20
5.908227
 10
7.275203
 20
5.916281
 10
7.290044
 20
5.924300
 10
7.304928
 20
5.932270
 10
7.319867
 20
5.940174
 10
7.334875
 20
5.948000
 10
7.349965
 20
5.955732
 10
7.365150
 20
5.963355
 10
7.380444
 20
5.970856
 10
7.395859
 20
5.978219
 10
7.411409
 20
5.985429
 10
7.427107
 20
5.992473
 10
7.442967
 20
5.999334
 10
7.459000
 20
6.006000
 10
7.475382
 20
6.012316
 10
7.491902
 20
6.018516
 10
7.508557
 20
6.024598
 10
7.525344
 20
6.030562
 10
7.542259
 20
6.036410
 10
7.559301
 20
6.042141
 10
7.576465
 20
6.047754
 10
7.593750
 20
6.053250
 10
7.611152
 20
6.058629
 10
7.628668
 20
6.063891
 10
7.646295
 20
6.069035
 10
7.664031
 20
6.074063
 10
7.681873
 20
6.078973
 10
7.699816
 20
6.083766
 10
7.717860
 20
6.088441
 10
7.736000
 20
6.093000
 10
7.754268
 20
6.097684
 10
7.772687
 20
6.102348
 10
7.791248
 20
6.106970
 10
7.809938
 20
6.111531
 10
7.828744
 20
6.116010
 10
7.847656
 20
6.120387
 10
7.866662
 20
6.124640
 10
7.885750
 20
6.128750
 10
7.904908
 20
6.132696
 10
7.924125
 20
6.136457
 10
7.943389
 20
6.140013
 10
7.962688
 20
6.143344
 10
7.982010
 20
6.146428
 10
8.001344
 20
6.149246
 10
8.020678
 20
6.151777
 10
8.040000
 20
6.154000
 10
8.059567
 20
6.155935
 10
8.079258
 20
6.157623
 10
8.099054
 20
6.159073
 10
8.118937
 20
6.160297
 10
8.138892
 20
6.161303
 10
8.158898
 20
6.162104
 10
8.178940
 20
6.162707
 10
8.199000
 20
6.163125
 10
8.219060
 20
6.163367
 10
8.239102
 20
6.163443
 10
8.259108
 20
6.163365
 10
8.279063
 20
6.163141
 10
8.298946
 20
6.162782
 10
8.318742
 20
6.162299
 10
8.338433
 20
6.161701
 10
8.358000
 20
6.161000
 10
8.377322
 20
6.160014
 10
8.396656
 20
6.158924
 10
8.415990
 20
6.157719
 10
8.435313
 20
6.156391
 10
8.454611
 20
6.154927
 10
8.473875
 20
6.153318
 10
8.493092
 20
6.151554
 10
8.512250
 20
6.149625
 10
8.531338
 20
6.147520
 10
8.550344
 20
6.145229
 10
8.569256
 20
6.142741
 10
8.588062
 20
6.140047
 10
8.606752
 20
6.137136
 10
8.625312
 20
6.133998
 10
8.643732
 20
6.130623
 10
8.662000
 20
6.127000
 10
8.679964
 20
6.123089
 10
8.697855
 20
6.118871
 10
8.715670
 20
6.114366
 10
8.733406
 20
6.109594
 10
8.751060
 20
6.104576
 10
8.768629
 20
6.099332
 10
8.786110
 20
6.093883
 10
8.803500
 20
6.088250
 10
8.820796
 20
6.082453
 10
8.837996
 20
6.076512
 10
8.855096
 20
6.070448
 10
8.872094
 20
6.064281
 10
8.888986
 20
6.058033
 10
8.905770
 20
6.051723
 10
8.922442
 20
6.045372
 10
8.939000
 20
6.039000
 10
8.955277
 20
6.032743
 10
8.971479
 20
6.026350
 10
8.987601
 20
6.019824
 10
9.003641
 20
6.013172
 10
9.019592
 20
6.006396
 10
9.035451
 20
5.999502
 10
9.051214
 20
5.992493
 10
9.066875
 20
5.985375
 10
9.082431
 20
5.978151
 10
9.097877
 20
5.970826
 10
9.113209
 20
5.963405
 10
9.128422
 20
5.955891
 10
9.143512
 20
5.948289
 10
9.158475
 20
5.940604
 10
9.173305
 20
5.932839
 10
9.188000
 20
5.925000
 10
9.202765
 20
5.916879
 10
9.217434
 20
5.908645
 10
9.232002
 20
5.900298
 10
9.246469
 20
5.891844
 10
9.260830
 20
5.883284
 10
9.275082
 20
5.874621
 10
9.289223
 20
5.865859
 10
9.303250
 20
5.857000
 10
9.317160
 20
5.848047
 10
9.330949
 20
5.839004
 10
9.344616
 20
5.829873
 10
9.358156
 20
5.820656
 10
9.371568
 20
5.811358
 10
9.384848
 20
5.801980
 10
9.397993
 20
5.792527
 10
9.411000
 20
5.783000
 10
9.424056
 20
5.773181
 10
9.436977
 20
5.763229
 10
9.449769
 20
5.753150
 10
9.462437
 20
5.742953
 10
9.474989
 20
5.732645
 10
9.487430
 20
5.722232
 10
9.499765
 20
5.711723
 10
9.512000
 20
5.701125
 10
9.524142
 20
5.690445
 10
9.536195
 20
5.679689
 10
9.548167
 20
5.668867
 10
9.560063
 20
5.657984
 10
9.571888
 20
5.647049
 10
9.583648
 20
5.636068
 10
9.595351
 20
5.625050
 10
9.607000
 20
5.614000
 10
9.618590
 20
5.602715
 10
9.630107
 20
5.591359
 10
9.641552
 20
5.579934
 10
9.652922
 20
5.568437
 10
9.664216
 20
5.556871
 10
9.675432
 20
5.545234
 10
9.686569
 20
5.533527
 10
9.697625
 20
5.521750
 10
9.708599
 20
5.509902
 10
9.719490
 20
5.497984
 10
9.730296
 20
5.485996
 10
9.741016
 20
5.473938
 10
9.751647
 20
5.461809
 10
9.762189
 20
5.449609
 10
9.772641
 20
5.437340
 10
9.783000
 20
5.425000
 10
9.793255
 20
5.412380
 10
9.803400
 20
5.399652
 10
9.813443
 20
5.386825
 10
9.823391
 20
5.373906
 10
9.833250
 20
5.360906
 10
9.843029
 20
5.347832
 10
9.852735
 20
5.334694
 10
9.862375
 20
5.321500
 10
9.871956
 20
5.308259
 10
9.881486
 20
5.294980
 10
9.890972
 20
5.281672
 10
9.900422
 20
5.268344
 10
9.909842
 20
5.255003
 10
9.919240
 20
5.241660
 10
9.928624
 20
5.228323
 10
9.938000
 20
5.215000
 10
9.947540
 20
5.201676
 10
9.957035
 20
5.188328
 10
9.966490
 20
5.174957
 10
9.975906
 20
5.161563
 10
9.985288
 20
5.148145
 10
9.994637
 20
5.134703
 10
10.003957
 20
5.121238
 10
10.013250
 20
5.107750
 10
10.022520
 20
5.094238
 10
10.031770
 20
5.080703
 10
10.041001
 20
5.067145
 10
10.050219
 20
5.053562
 10
10.059424
 20
5.039957
 10
10.068621
 20
5.026328
 10
10.077812
 20
5.012676
 10
10.087000
 20
4.999000
 10
10.095956
 20
4.985257
 10
10.104832
 20
4.971412
 10
10.113644
 20
4.957483
 10
10.122406
 20
4.943484
 10
10.131133
 20
4.929433
 10
10.139840
 20
4.915346
 10
10.148541
 20
4.901238
 10
10.157250
 20
4.887125
 10
10.165983
 20
4.873024
 10
10.174754
 20
4.858951
 10
10.183578
 20
4.844922
 10
10.192469
 20
4.830953
 10
10.201442
 20
4.817060
 10
10.210512
 20
4.803260
 10
10.219693
 20
4.789568
 10
10.229000
 20
4.776000
 10
10.238211
 20
4.762513
 10
10.247473
 20
4.749055
 10
10.256787
 20
4.735632
 10
10.266156
 20
4.722250
 10
10.275584
 20
4.708915
 10
10.285074
 20
4.695633
 10
10.294628
 20
4.682409
 10
10.304250
 20
4.669250
 10
10.313942
 20
4.656161
 10
10.323707
 20
4.643148
 10
10.333548
 20
4.630218
 10
10.343469
 20
4.617375
 10
10.353471
 20
4.604626
 10
10.363559
 20
4.591977
 10
10.373734
 20
4.579433
 10
10.384000
 20
4.567000
 10
10.394359
 20
4.554484
 10
10.404811
 20
4.542062
 10
10.415353
 20
4.529734
 10
10.425984
 20
4.517500
 10
10.436704
 20
4.505359
 10
10.447510
 20
4.493313
 10
10.458401
 20
4.481359
 10
10.469375
 20
4.469500
 10
10.480431
 20
4.457734
 10
10.491568
 20
4.446063
 10
10.502784
 20
4.434484
 10
10.514078
 20
4.423000
 10
10.525448
 20
4.411609
 10
10.536893
 20
4.400313
 10
10.548410
 20
4.389109
 10
10.560000
 20
4.378000
 10
10.571671
 20
4.366808
 10
10.583434
 20
4.355727
 10
10.595284
 20
4.344751
 10
10.607219
 20
4.333875
 10
10.619236
 20
4.323093
 10
10.631332
 20
4.312398
 10
10.643504
 20
4.301786
 10
10.655750
 20
4.291250
 10
10.668066
 20
4.280784
 10
10.680449
 20
4.270383
 10
10.692897
 20
4.260040
 10
10.705406
 20
4.249750
 10
10.717974
 20
4.239507
 10
10.730598
 20
4.229305
 10
10.743274
 20
4.219138
 10
10.756000
 20
4.209000
 10
10.768619
 20
4.198920
 10
10.781346
 20
4.188926
 10
10.794169
 20
4.179007
 10
10.807078
 20
4.169156
 10
10.820064
 20
4.159364
 10
10.833115
 20
4.149621
 10
10.846222
 20
4.139919
 10
10.859375
 20
4.130250
 10
10.872563
 20
4.120604
 10
10.885775
 20
4.110973
 10
10.899003
 20
4.101347
 10
10.912234
 20
4.091719
 10
10.925460
 20
4.082079
 10
10.938670
 20
4.072418
 10
10.951853
 20
4.062728
 10
10.965000
 20
4.053000
 10
10.978136
 20
4.043437
 10
10.991289
 20
4.033871
 10
11.004454
 20
4.024299
 10
11.017625
 20
4.014719
 10
11.030796
 20
4.005126
 10
11.043961
 20
3.995520
 10
11.057114
 20
3.985895
 10
11.070250
 20
3.976250
 10
11.083362
 20
3.966582
 10
11.096445
 20
3.956887
 10
11.109493
 20
3.947163
 10
11.122500
 20
3.937406
 10
11.135460
 20
3.927615
 10
11.148367
 20
3.917785
 10
11.161216
 20
3.907915
 10
11.174000
 20
3.898000
 10
11.186958
 20
3.888095
 10
11.199949
 20
3.878242
 10
11.212958
 20
3.868425
 10
11.225969
 20
3.858625
 10
11.238968
 20
3.848825
 10
11.251941
 20
3.839008
 10
11.264874
 20
3.829155
 10
11.277750
 20
3.819250
 10
11.290556
 20
3.809274
 10
11.303277
 20
3.799211
 10
11.315899
 20
3.789042
 10
11.328406
 20
3.778750
 10
11.340785
 20
3.768317
 10
11.353020
 20
3.757727
 10
11.365096
 20
3.746960
 10
11.377000
 20
3.736000
 10
11.388765
 20
3.724891
 10
11.400436
 20
3.713688
 10
11.412009
 20
3.702391
 10
11.423484
 20
3.691000
 10
11.434860
 20
3.679516
 10
11.446135
 20
3.667938
 10
11.457307
 20
3.656266
 10
11.468375
 20
3.644500
 10
11.479338
 20
3.632641
 10
11.490193
 20
3.620687
 10
11.500941
 20
3.608641
 10
11.511578
 20
3.596500
 10
11.522104
 20
3.584266
 10
11.532518
 20
3.571938
 10
11.542817
 20
3.559516
 10
11.553000
 20
3.547000
 10
11.563133
 20
3.534269
 10
11.573264
 20
3.521559
 10
11.583368
 20
3.508842
 10
11.593422
 20
3.496094
 10
11.603399
 20
3.483287
 10
11.613275
 20
3.470395
 10
11.623026
 20
3.457391
 10
11.632625
 20
3.444250
 10
11.642049
 20
3.430945
 10
11.651271
 20
3.417449
 10
11.660269
 20
3.403737
 10
11.669016
 20
3.389781
 10
11.677487
 20
3.375556
 10
11.685658
 20
3.361035
 10
11.693504
 20
3.346192
 10
11.701000
 20
3.331000
 10
11.708393
 20
3.315420
 10
11.715568
 20
3.299451
 10
11.722518
 20
3.283128
 10
11.729234
 20
3.266484
 10
11.735711
 20
3.249553
 10
11.741939
 20
3.232369
 10
11.747913
 20
3.214965
 10
11.753625
 20
3.197375
 10
11.759067
 20
3.179633
 10
11.764232
 20
3.161771
 10
11.769114
 20
3.143825
 10
11.773703
 20
3.125828
 10
11.777994
 20
3.107813
 10
11.781979
 20
3.089814
 10
11.785650
 20
3.071865
 10
11.789000
 20
3.054000
 10
11.792058
 20
3.035932
 10
11.794852
 20
3.017736
 10
11.797376
 20
2.999427
 10
11.799625
 20
2.981016
 10
11.801593
 20
2.962517
 10
11.803273
 20
2.943943
 10
11.804661
 20
2.925308
 10
11.805750
 20
2.906625
 10
11.806534
 20
2.887906
 10
11.807008
 20
2.869166
 10
11.807165
 20
2.850417
 10
11.807000
 20
2.831672
 10
11.806507
 20
2.812945
 10
11.805680
 20
2.794248
 10
11.804513
 20
2.775595
 10
11.803000
 20
2.757000
 10
11.801116
 20
2.738152
 10
11.798848
 20
2.719135
 10
11.796210
 20
2.699992
 10
11.793219
 20
2.680766
 10
11.789887
 20
2.661498
 10
11.786230
 20
2.642232
 10
11.782263
 20
2.623010
 10
11.778000
 20
2.603875
 10
11.773456
 20
2.584868
 10
11.768645
 20
2.566033
 10
11.763582
 20
2.547412
 10
11.758281
 20
2.529047
 10
11.752758
 20
2.510981
 10
11.747027
 20
2.493256
 10
11.741103
 20
2.475915
 10
11.735000
 20
2.459000
 10
11.728663
 20
2.442474
 10
11.722035
 20
2.426260
 10
11.715132
 20
2.410342
 10
11.707969
 20
2.394703
 10
11.700559
 20
2.379328
 10
11.692918
 20
2.364201
 10
11.685060
 20
2.349305
 10
11.677000
 20
2.334625
 10
11.668752
 20
2.320144
 10
11.660332
 20
2.305846
 10
11.651753
 20
2.291715
 10
11.643031
 20
2.277734
 10
11.634180
 20
2.263889
 10
11.625215
 20
2.250162
 10
11.616150
 20
2.236538
 10
11.607000
 20
2.223000
 10
11.597554
 20
2.209582
 10
11.587967
 20
2.196326
 10
11.578236
 20
2.183232
 10
11.568359
 20
2.170297
 10
11.558337
 20
2.157520
 10
11.548166
 20
2.144900
 10
11.537846
 20
2.132436
 10
11.527375
 20
2.120125
 10
11.516752
 20
2.107967
 10
11.505975
 20
2.095959
 10
11.495042
 20
2.084101
 10
11.483953
 20
2.072391
 10
11.472706
 20
2.060827
 10
11.461299
 20
2.049408
 10
11.449731
 20
2.038133
 10
11.438000
 20
2.027000
 10
11.426094
 20
2.016042
 10
11.414006
 20
2.005287
 10
11.401739
 20
1.994729
 10
11.389297
 20
1.984359
 10
11.376685
 20
1.974172
 10
11.363908
 20
1.964158
 10
11.350970
 20
1.954312
 10
11.337875
 20
1.944625
 10
11.324628
 20
1.935091
 10
11.311232
 20
1.925701
 10
11.297694
 20
1.916449
 10
11.284016
 20
1.907328
 10
11.270203
 20
1.898330
 10
11.256260
 20
1.889447
 10
11.242191
 20
1.880673
 10
11.228000
 20
1.872000
 10
11.213856
 20
1.863445
 10
11.199553
 20
1.855027
 10
11.185094
 20
1.846745
 10
11.170484
 20
1.838594
 10
11.155728
 20
1.830572
 10
11.140830
 20
1.822676
 10
11.125794
 20
1.814903
 10
11.110625
 20
1.807250
 10
11.095327
 20
1.799714
 10
11.079904
 20
1.792293
 10
11.064362
 20
1.784983
 10
11.048703
 20
1.777781
 10
11.032933
 20
1.770685
 10
11.017057
 20
1.763691
 10
11.001077
 20
1.756797
 10
10.985000
 20
1.750000
 10
10.968971
 20
1.743330
 10
10.952768
 20
1.736814
 10
10.936403
 20
1.730442
 10
10.919891
 20
1.724203
 10
10.903243
 20
1.718087
 10
10.886475
 20
1.712084
 10
10.869597
 20
1.706183
 10
10.852625
 20
1.700375
 10
10.835571
 20
1.694649
 10
10.818447
 20
1.688994
 10
10.801268
 20
1.683401
 10
10.784047
 20
1.677859
 10
10.766796
 20
1.672359
 10
10.749529
 20
1.666889
 10
10.732260
 20
1.661439
 10
10.715000
 20
1.656000
 10
10.697693
 20
1.650432
 10
10.680279
 20
1.644971
 10
10.662769
 20
1.639606
 10
10.645172
 20
1.634328
 10
10.627499
 20
1.629126
 10
10.609760
 20
1.623990
 10
10.591965
 20
1.618910
 10
10.574125
 20
1.613875
 10
10.556250
 20
1.608875
 10
10.538350
 20
1.603900
 10
10.520435
 20
1.598940
 10
10.502516
 20
1.593984
 10
10.484602
 20
1.589023
 10
10.466705
 20
1.584045
 10
10.448834
 20
1.579041
 10
10.431000
 20
1.574000
 10
10.413386
 20
1.568916
 10
10.395789
 20
1.563793
 10
10.378204
 20
1.558641
 10
10.360625
 20
1.553469
 10
10.343046
 20
1.548285
 10
10.325461
 20
1.543098
 10
10.307864
 20
1.537917
 10
10.290250
 20
1.532750
 10
10.272612
 20
1.527607
 10
10.254945
 20
1.522496
 10
10.237243
 20
1.517426
 10
10.219500
 20
1.512406
 10
10.201710
 20
1.507445
 10
10.183867
 20
1.502551
 10
10.165966
 20
1.497733
 10
10.148000
 20
1.493000
 10
10.129789
 20
1.488512
 10
10.111529
 20
1.484051
 10
10.093220
 20
1.479619
 10
10.074859
 20
1.475219
 10
10.056446
 20
1.470854
 10
10.037979
 20
1.466527
 10
10.019455
 20
1.462242
 10
10.000875
 20
1.458000
 10
9.982236
 20
1.453805
 10
9.963537
 20
1.449660
 10
9.944777
 20
1.445568
 10
9.925953
 20
1.441531
 10
9.907065
 20
1.437553
 10
9.888111
 20
1.433637
 10
9.869090
 20
1.429785
 10
9.850000
 20
1.426000
 10
9.831039
 20
1.422273
 10
9.812029
 20
1.418594
 10
9.792970
 20
1.414961
 10
9.773859
 20
1.411375
 10
9.754696
 20
1.407836
 10
9.735479
 20
1.404344
 10
9.716205
 20
1.400898
 10
9.696875
 20
1.397500
 10
9.677486
 20
1.394148
 10
9.658037
 20
1.390844
 10
9.638527
 20
1.387586
 10
9.618953
 20
1.384375
 10
9.599315
 20
1.381211
 10
9.579611
 20
1.378094
 10
9.559840
 20
1.375023
 10
9.540000
 20
1.372000
 10
9.519882
 20
1.369035
 10
9.499336
 20
1.366137
 10
9.478450
 20
1.363303
 10
9.457313
 20
1.360531
 10
9.436011
 20
1.357818
 10
9.414633
 20
1.355160
 10
9.393267
 20
1.352555
 10
9.372000
 20
1.350000
 10
9.350921
 20
1.347492
 10
9.330117
 20
1.345027
 10
9.309677
 20
1.342604
 10
9.289687
 20
1.340219
 10
9.270237
 20
1.337869
 10
9.251414
 20
1.335551
 10
9.233306
 20
1.333262
 10
9.216000
 20
1.331000
 10
9.199391
 20
1.328961
 10
9.183625
 20
1.326969
 10
9.168609
 20
1.325023
 10
9.154250
 20
1.323125
 10
9.140453
 20
1.321273
 10
9.127125
 20
1.319469
 10
9.114172
 20
1.317711
 10
9.101500
 20
1.316000
 10
9.089016
 20
1.314336
 10
9.076625
 20
1.312719
 10
9.064234
 20
1.311148
 10
9.051750
 20
1.309625
 10
9.039078
 20
1.308148
 10
9.026125
 20
1.306719
 10
9.012797
 20
1.305336
 10
8.999000
 20
1.304000
 10
8.985101
 20
1.302887
 10
8.971154
 20
1.301801
 10
8.957157
 20
1.300744
 10
8.943109
 20
1.299719
 10
8.929009
 20
1.298729
 10
8.914854
 20
1.297777
 10
8.900643
 20
1.296867
 10
8.886375
 20
1.296000
 10
8.872049
 20
1.295180
 10
8.857662
 20
1.294410
 10
8.843214
 20
1.293693
 10
8.828703
 20
1.293031
 10
8.814128
 20
1.292428
 10
8.799486
 20
1.291887
 10
8.784778
 20
1.291410
 10
8.770000
 20
1.291000
  0
LWPOLYLINE
  8
ENGRAVE
 90
1057
 70
1
 10
13.322000
 20
6.573000
 10
13.307384
 20
6.571770
 10
13.292773
 20
6.570703
 10
13.278151
 20
6.569801
 10
13.263500
 20
6.569063
 10
13.248802
 20
6.568488
 10
13.234039
 20
6.568078
 10
13.219194
 20
6.567832
 10
13.204250
 20
6.567750
 10
13.189188
 20
6.567832
 10
13.173992
 20
6.568078
 10
13.158644
 20
6.568488
 10
13.143125
 20
6.569063
 10
13.127419
 20
6.569801
 10
13.111508
 20
6.570703
 10
13.095374
 20
6.571770
 10
13.079000
 20
6.573000
 10
13.062276
 20
6.574383
 10
13.045143
 20
6.575910
 10
13.027661
 20
6.577583
 10
13.009891
 20
6.579406
 10
12.991892
 20
6.581381
 10
12.973725
 20
6.583512
 10
12.955449
 20
6.585800
 10
12.937125
 20
6.588250
 10
12.918813
 20
6.590864
 10
12.900572
 20
6.593645
 10
12.882464
 20
6.596595
 10
12.864547
 20
6.599719
 10
12.846882
 20
6.603018
 10
12.829529
 20
6.606496
 10
12.812549
 20
6.610156
 10
12.796000
 20
6.614000
 10
12.779582
 20
6.617832
 10
12.763326
 20
6.621828
 10
12.747232
 20
6.625988
 10
12.731297
 20
6.630313
 10
12.715520
 20
6.634801
 10
12.699900
 20
6.639453
 10
12.684436
 20
6.644270
 10
12.669125
 20
6.649250
 10
12.653967
 20
6.654395
 10
12.638959
 20
6.659703
 10
12.624101
 20
6.665176
 10
12.609391
 20
6.670813
 10
12.594827
 20
6.676613
 10
12.580408
 20
6.682578
 10
12.566133
 20
6.688707
 10
12.552000
 20
6.695000
 10
12.538229
 20
6.701303
 10
12.524658
 20
6.707828
 10
12.511278
 20
6.714564
 10
12.498078
 20
6.721500
 10
12.485048
 20
6.728623
 10
12.472178
 20
6.735922
 10
12.459457
 20
6.743385
 10
12.446875
 20
6.751000
 10
12.434422
 20
6.758756
 10
12.422088
 20
6.766641
 10
12.409862
 20
6.774643
 10
12.397734
 20
6.782750
 10
12.385695
 20
6.790951
 10
12.373732
 20
6.799234
 10
12.361838
 20
6.807588
 10
12.350000
 20
6.816000
 10
12.338235
 20
6.824496
 10
12.326564
 20
6.833107
 10
12.314991
 20
6.841833
 10
12.303516
 20
6.850672
 10
12.292140
 20
6.859622
 10
12.280865
 20
6.868682
 10
12.269693
 20
6.877850
 10
12.258625
 20
6.887125
 10
12.247662
 20
6.896506
 10
12.236807
 20
6.905990
 10
12.226059
 20
6.915577
 10
12.215422
 20
6.925266
 10
12.204896
 20
6.935053
 10
12.194482
 20
6.944939
 10
12.184183
 20
6.954922
 10
12.174000
 20
6.965000
 10
12.163944
 20
6.975183
 10
12.154021
 20
6.985480
 10
12.144225
 20
6.995889
 10
12.134547
 20
7.006406
 10
12.124980
 20
7.017029
 10
12.115518
 20
7.027754
 10
12.106152
 20
7.038579
 10
12.096875
 20
7.049500
 10
12.087680
 20
7.060515
 10
12.078561
 20
7.071621
 10
12.069508
 20
7.082815
 10
12.060516
 20
7.094094
 10
12.051576
 20
7.105455
 10
12.042682
 20
7.116895
 10
12.033825
 20
7.128411
 10
12.025000
 20
7.140000
 10
12.016421
 20
7.151671
 10
12.007934
 20
7.163434
 10
11.999534
 20
7.175284
 10
11.991219
 20
7.187219
 10
11.982986
 20
7.199236
 10
11.974832
 20
7.211332
 10
11.966754
 20
7.223504
 10
11.958750
 20
7.235750
 10
11.950816
 20
7.248066
 10
11.942949
 20
7.260449
 10
11.935147
 20
7.272897
 10
11.927406
 20
7.285406
 10
11.919724
 20
7.297974
 10
11.912098
 20
7.310598
 10
11.904524
 20
7.323274
 10
11.897000
 20
7.336000
 10
11.889745
 20
7.348995
 10
11.882598
 20
7.362098
 10
11.875550
 20
7.375300
 10
11.868594
 20
7.388594
 10
11.861719
 20
7.401969
 10
11.854918
 20
7.415418
 10
11.848181
 20
7.428931
 10
11.841500
 20
7.442500
 10
11.834866
 20
7.456116
 10
11.828270
 20
7.469770
 10
11.821703
 20
7.483453
 10
11.815156
 20
7.497156
 10
11.808622
 20
7.510872
 10
11.802090
 20
7.524590
 10
11.795552
 20
7.538302
 10
11.789000
 20
7.552000
 10
11.782493
 20
7.565908
 10
11.776088
 20
7.579875
 10
11.769767
 20
7.593889
 10
11.763516
 20
7.607938
 10
11.757317
 20
7.622010
 10
11.751154
 20
7.636094
 10
11.745012
 20
7.650178
 10
11.738875
 20
7.664250
 10
11.732726
 20
7.678299
 10
11.726549
 20
7.692312
 10
11.720328
 20
7.706279
 10
11.714047
 20
7.720188
 10
11.707690
 20
7.734025
 10
11.701240
 20
7.747781
 10
11.694682
 20
7.761443
 10
11.688000
 20
7.775000
 10
11.681215
 20
7.788477
 10
11.674363
 20
7.801906
 10
11.667447
 20
7.815289
 10
11.660469
 20
7.828625
 10
11.653432
 20
7.841914
 10
11.646340
 20
7.855156
 10
11.639195
 20
7.868352
 10
11.632000
 20
7.881500
 10
11.624758
 20
7.894602
 10
11.617473
 20
7.907656
 10
11.610146
 20
7.920664
 10
11.602781
 20
7.933625
 10
11.595381
 20
7.946539
 10
11.587949
 20
7.959406
 10
11.580488
 20
7.972227
 10
11.573000
 20
7.985000
 10
11.565311
 20
7.997561
 10
11.557615
 20
8.010115
 10
11.549905
 20
8.022655
 10
11.542172
 20
8.035172
 10
11.534410
 20
8.047660
 10
11.526611
 20
8.060111
 10
11.518769
 20
8.072519
 10
11.510875
 20
8.084875
 10
11.502923
 20
8.097173
 10
11.494904
 20
8.109404
 10
11.486813
 20
8.121563
 10
11.478641
 20
8.133641
 10
11.470381
 20
8.145631
 10
11.462025
 20
8.157525
 10
11.453568
 20
8.169318
 10
11.445000
 20
8.181000
 10
11.436153
 20
8.192567
 10
11.427236
 20
8.204023
 10
11.418253
 20
8.215374
 10
11.409203
 20
8.226625
 10
11.400089
 20
8.237782
 10
11.390912
 20
8.248852
 10
11.381674
 20
8.259839
 10
11.372375
 20
8.270750
 10
11.363018
 20
8.281591
 10
11.353604
 20
8.292367
 10
11.344134
 20
8.303085
 10
11.334609
 20
8.313750
 10
11.325032
 20
8.324368
 10
11.315404
 20
8.334945
 10
11.305726
 20
8.345487
 10
11.296000
 20
8.356000
 10
11.286216
 20
8.366630
 10
11.276365
 20
8.377152
 10
11.266453
 20
8.387575
 10
11.256484
 20
8.397906
 10
11.246463
 20
8.408156
 10
11.236393
 20
8.418332
 10
11.226279
 20
8.428444
 10
11.216125
 20
8.438500
 10
11.205936
 20
8.448509
 10
11.195717
 20
8.458480
 10
11.185471
 20
8.468422
 10
11.175203
 20
8.478344
 10
11.164918
 20
8.488253
 10
11.154619
 20
8.498160
 10
11.144312
 20
8.508073
 10
11.134000
 20
8.518000
 10
11.123665
 20
8.527926
 10
11.113285
 20
8.537828
 10
11.102865
 20
8.547707
 10
11.092406
 20
8.557562
 10
11.081913
 20
8.567395
 10
11.071387
 20
8.577203
 10
11.060832
 20
8.586988
 10
11.050250
 20
8.596750
 10
11.039645
 20
8.606488
 10
11.029020
 20
8.616203
 10
11.018376
 20
8.625895
 10
11.007719
 20
8.635562
 10
10.997049
 20
8.645207
 10
10.986371
 20
8.654828
 10
10.975687
 20
8.664426
 10
10.965000
 20
8.674000
 10
10.954267
 20
8.683353
 10
10.943451
 20
8.692664
 10
10.932562
 20
8.701940
 10
10.921609
 20
8.711187
 10
10.910604
 20
8.720411
 10
10.899557
 20
8.729617
 10
10.888477
 20
8.738812
 10
10.877375
 20
8.748000
 10
10.866261
 20
8.757188
 10
10.855146
 20
8.766383
 10
10.844040
 20
8.775589
 10
10.832953
 20
8.784812
 10
10.821895
 20
8.794060
 10
10.810877
 20
8.803336
 10
10.799908
 20
8.812647
 10
10.789000
 20
8.822000
 10
10.778324
 20
8.831574
 10
10.767672
 20
8.841172
 10
10.757043
 20
8.850793
 10
10.746438
 20
8.860437
 10
10.735855
 20
8.870105
 10
10.725297
 20
8.879797
 10
10.714762
 20
8.889512
 10
10.704250
 20
8.899250
 10
10.693762
 20
8.909012
 10
10.683297
 20
8.918797
 10
10.672855
 20
8.928605
 10
10.662437
 20
8.938437
 10
10.652043
 20
8.948293
 10
10.641672
 20
8.958172
 10
10.631324
 20
8.968074
 10
10.621000
 20
8.978000
 10
10.610501
 20
8.987916
 10
10.600010
 20
8.997799
 10
10.589533
 20
9.007661
 10
10.579078
 20
9.017516
 10
10.568653
 20
9.027376
 10
10.558264
 20
9.037256
 10
10.547919
 20
9.047168
 10
10.537625
 20
9.057125
 10
10.527390
 20
9.067141
 10
10.517221
 20
9.077229
 10
10.507125
 20
9.087401
 10
10.497109
 20
9.097672
 10
10.487182
 20
9.108054
 10
10.477350
 20
9.118561
 10
10.467620
 20
9.129205
 10
10.458000
 20
9.140000
 10
10.448649
 20
9.150734
 10
10.439350
 20
9.161561
 10
10.430106
 20
9.172478
 10
10.420922
 20
9.183484
 10
10.411802
 20
9.194579
 10
10.402752
 20
9.205760
 10
10.393775
 20
9.217026
 10
10.384875
 20
9.228375
 10
10.376057
 20
9.239806
 10
10.367326
 20
9.251318
 10
10.358686
 20
9.262909
 10
10.350141
 20
9.274578
 10
10.341695
 20
9.286323
 10
10.333354
 20
9.298143
 10
10.325120
 20
9.310035
 10
10.317000
 20
9.322000
 10
10.308763
 20
9.334025
 10
10.300561
 20
9.346104
 10
10.292402
 20
9.358244
 10
10.284297
 20
9.370453
 10
10.276257
 20
9.382739
 10
10.268291
 20
9.395107
 10
10.260410
 20
9.407567
 10
10.252625
 20
9.420125
 10
10.244945
 20
9.432788
 10
10.237381
 20
9.445564
 10
10.229943
 20
9.458461
 10
10.222641
 20
9.471484
 10
10.215485
 20
9.484643
 10
10.208486
 20
9.497943
 10
10.201655
 20
9.511393
 10
10.195000
 20
9.525000
 10
10.188519
 20
9.538769
 10
10.182195
 20
9.552695
 10
10.176024
 20
9.566774
 10
10.170000
 20
9.581000
 10
10.164116
 20
9.595366
 10
10.158367
 20
9.609867
 10
10.152747
 20
9.624497
 10
10.147250
 20
9.639250
 10
10.141870
 20
9.654120
 10
10.136602
 20
9.669102
 10
10.131438
 20
9.684188
 10
10.126375
 20
9.699375
 10
10.121405
 20
9.714655
 10
10.116523
 20
9.730023
 10
10.111724
 20
9.745474
 10
10.107000
 20
9.761000
 10
10.102338
 20
9.776797
 10
10.097734
 20
9.792687
 10
10.093201
 20
9.808672
 10
10.088750
 20
9.824750
 10
10.084393
 20
9.840922
 10
10.080141
 20
9.857188
 10
10.076006
 20
9.873547
 10
10.072000
 20
9.890000
 10
10.068135
 20
9.906547
 10
10.064422
 20
9.923187
 10
10.060873
 20
9.939922
 10
10.057500
 20
9.956750
 10
10.054314
 20
9.973672
 10
10.051328
 20
9.990687
 10
10.048553
 20
10.007797
 10
10.046000
 20
10.025000
 10
10.043854
 20
10.042164
 10
10.041914
 20
10.059514
 10
10.040173
 20
10.077025
 10
10.038625
 20
10.094672
 10
10.037265
 20
10.112430
 10
10.036086
 20
10.130275
 10
10.035083
 20
10.148182
 10
10.034250
 20
10.166125
 10
10.033581
 20
10.184080
 10
10.033070
 20
10.202021
 10
10.032712
 20
10.219925
 10
10.032500
 20
10.237766
 10
10.032429
 20
10.255518
 10
10.032492
 20
10.273158
 10
10.032685
 20
10.290660
 10
10.033000
 20
10.308000
 10
10.033457
 20
10.325403
 10
10.034078
 20
10.342736
 10
10.034863
 20
10.360003
 10
10.035812
 20
10.377203
 10
10.036926
 20
10.394339
 10
10.038203
 20
10.411412
 10
10.039645
 20
10.428424
 10
10.041250
 20
10.445375
 10
10.043020
 20
10.462268
 10
10.044953
 20
10.479104
 10
10.047051
 20
10.495884
 10
10.049312
 20
10.512609
 10
10.051738
 20
10.529282
 10
10.054328
 20
10.545904
 10
10.057082
 20
10.562476
 10
10.060000
 20
10.579000
 10
10.063093
 20
10.595322
 10
10.066365
 20
10.611656
 10
10.069811
 20
10.627990
 10
10.073422
 20
10.644312
 10
10.077191
 20
10.660611
 10
10.081111
 20
10.676875
 10
10.085175
 20
10.693092
 10
10.089375
 20
10.709250
 10
10.093704
 20
10.725338
 10
10.098154
 20
10.741344
 10
10.102719
 20
10.757256
 10
10.107391
 20
10.773062
 10
10.112162
 20
10.788752
 10
10.117025
 20
10.804312
 10
10.121974
 20
10.819732
 10
10.127000
 20
10.835000
 10
10.132132
 20
10.850129
 10
10.137398
 20
10.865145
 10
10.142794
 20
10.880048
 10
10.148312
 20
10.894844
 10
10.153948
 20
10.909534
 10
10.159695
 20
10.924121
 10
10.165548
 20
10.938609
 10
10.171500
 20
10.953000
 10
10.177546
 20
10.967297
 10
10.183680
 20
10.981504
 10
10.189896
 20
10.995623
 10
10.196187
 20
11.009656
 10
10.202550
 20
11.023608
 10
10.208977
 20
11.037480
 10
10.215462
 20
11.051277
 10
10.222000
 20
11.065000
 10
10.228587
 20
11.078663
 10
10.235227
 20
11.092273
 10
10.241925
 20
11.105825
 10
10.248687
 20
11.119312
 10
10.255521
 20
11.132729
 10
10.262430
 20
11.146070
 10
10.269421
 20
11.159329
 10
10.276500
 20
11.172500
 10
10.283673
 20
11.185577
 10
10.290945
 20
11.198555
 10
10.298323
 20
11.211427
 10
10.305812
 20
11.224187
 10
10.313419
 20
11.236831
 10
10.321148
 20
11.249352
 10
10.329007
 20
11.261743
 10
10.337000
 20
11.274000
 10
10.345121
 20
11.286294
 10
10.353355
 20
11.298434
 10
10.361702
 20
11.310426
 10
10.370156
 20
11.322281
 10
10.378716
 20
11.334007
 10
10.387379
 20
11.345613
 10
10.396141
 20
11.357108
 10
10.405000
 20
11.368500
 10
10.413953
 20
11.379798
 10
10.422996
 20
11.391012
 10
10.432127
 20
11.402149
 10
10.441344
 20
11.413219
 10
10.450642
 20
11.424230
 10
10.460020
 20
11.435191
 10
10.469473
 20
11.446112
 10
10.479000
 20
11.457000
 10
10.488433
 20
11.467641
 10
10.497979
 20
11.478193
 10
10.507633
 20
11.488660
 10
10.517391
 20
11.499047
 10
10.527248
 20
11.509357
 10
10.537201
 20
11.519596
 10
10.547245
 20
11.529767
 10
10.557375
 20
11.539875
 10
10.567587
 20
11.549925
 10
10.577877
 20
11.559920
 10
10.588240
 20
11.569865
 10
10.598672
 20
11.579766
 10
10.609168
 20
11.589625
 10
10.619725
 20
11.599447
 10
10.630337
 20
11.609238
 10
10.641000
 20
11.619000
 10
10.651513
 20
11.628726
 10
10.662055
 20
11.638402
 10
10.672632
 20
11.648026
 10
10.683250
 20
11.657594
 10
10.693915
 20
11.667103
 10
10.704633
 20
11.676551
 10
10.715409
 20
11.685934
 10
10.726250
 20
11.695250
 10
10.737161
 20
11.704496
 10
10.748148
 20
11.713668
 10
10.759218
 20
11.722764
 10
10.770375
 20
11.731781
 10
10.781626
 20
11.740716
 10
10.792977
 20
11.749566
 10
10.804433
 20
11.758329
 10
10.816000
 20
11.767000
 10
10.827682
 20
11.775744
 10
10.839475
 20
11.784355
 10
10.851369
 20
11.792844
 10
10.863359
 20
11.801219
 10
10.875437
 20
11.809488
 10
10.887596
 20
11.817660
 10
10.899827
 20
11.825745
 10
10.912125
 20
11.833750
 10
10.924481
 20
11.841685
 10
10.936889
 20
11.849559
 10
10.949340
 20
11.857379
 10
10.961828
 20
11.865156
 10
10.974345
 20
11.872898
 10
10.986885
 20
11.880613
 10
10.999439
 20
11.888311
 10
11.012000
 20
11.896000
 10
11.024751
 20
11.903499
 10
11.037512
 20
11.910990
 10
11.050290
 20
11.918467
 10
11.063094
 20
11.925922
 10
11.075933
 20
11.933347
 10
11.088816
 20
11.940736
 10
11.101752
 20
11.948081
 10
11.114750
 20
11.955375
 10
11.127818
 20
11.962610
 10
11.140965
 20
11.969779
 10
11.154200
 20
11.976875
 10
11.167531
 20
11.983891
 10
11.180968
 20
11.990818
 10
11.194520
 20
11.997650
 10
11.208194
 20
12.004380
 10
11.222000
 20
12.011000
 10
11.235756
 20
12.017329
 10
11.249641
 20
12.023570
 10
11.263643
 20
12.029729
 10
11.277750
 20
12.035813
 10
11.291951
 20
12.041825
 10
11.306234
 20
12.047773
 10
11.320588
 20
12.053663
 10
11.335000
 20
12.059500
 10
11.349459
 20
12.065290
 10
11.363953
 20
12.071039
 10
11.378471
 20
12.076753
 10
11.393000
 20
12.082438
 10
11.407529
 20
12.088099
 10
11.422047
 20
12.093742
 10
11.436541
 20
12.099374
 10
11.451000
 20
12.105000
 10
11.465615
 20
12.110811
 10
11.480215
 20
12.116615
 10
11.494809
 20
12.122405
 10
11.509406
 20
12.128172
 10
11.524015
 20
12.133910
 10
11.538645
 20
12.139611
 10
11.553303
 20
12.145269
 10
11.568000
 20
12.150875
 10
11.582744
 20
12.156423
 10
11.597543
 20
12.161904
 10
11.612407
 20
12.167313
 10
11.627344
 20
12.172641
 10
11.642363
 20
12.177881
 10
11.657473
 20
12.183025
 10
11.672682
 20
12.188068
 10
11.688000
 20
12.193000
 10
11.703432
 20
12.197817
 10
11.718975
 20
12.202523
 10
11.734619
 20
12.207124
 10
11.750359
 20
12.211625
 10
11.766187
 20
12.216032
 10
11.782096
 20
12.220352
 10
11.798077
 20
12.224589
 10
11.814125
 20
12.228750
 10
11.830231
 20
12.232841
 10
11.846389
 20
12.236867
 10
11.862590
 20
12.240835
 10
11.878828
 20
12.244750
 10
11.895095
 20
12.248618
 10
11.911385
 20
12.252445
 10
11.927689
 20
12.256237
 10
11.944000
 20
12.260000
 10
11.960524
 20
12.263947
 10
11.977096
 20
12.267900
 10
11.993718
 20
12.271845
 10
12.010391
 20
12.275766
 10
12.027116
 20
12.279645
 10
12.043896
 20
12.283467
 10
12.060732
 20
12.287216
 10
12.077625
 20
12.290875
 10
12.094576
 20
12.294429
 10
12.111588
 20
12.297861
 10
12.128661
 20
12.301156
 10
12.145797
 20
12.304297
 10
12.162997
 20
12.307268
 10
12.180264
 20
12.310053
 10
12.197597
 20
12.312635
 10
12.215000
 20
12.315000
 10
12.232307
 20
12.316959
 10
12.249719
 20
12.318717
 10
12.267225
 20
12.320284
 10
12.284813
 20
12.321672
 10
12.302471
 20
12.322889
 10
12.320188
 20
12.323947
 10
12.337951
 20
12.324856
 10
12.355750
 20
12.325625
 10
12.373572
 20
12.326265
 10
12.391406
 20
12.326787
 10
12.409240
 20
12.327200
 10
12.427062
 20
12.327516
 10
12.444861
 20
12.327743
 10
12.462625
 20
12.327893
 10
12.480342
 20
12.327975
 10
12.498000
 20
12.328000
 10
12.515823
 20
12.327964
 10
12.533664
 20
12.327852
 10
12.551517
 20
12.327657
 10
12.569375
 20
12.327375
 10
12.587233
 20
12.326999
 10
12.605086
 20
12.326523
 10
12.622927
 20
12.325942
 10
12.640750
 20
12.325250
 10
12.658550
 20
12.324440
 10
12.676320
 20
12.323508
 10
12.694056
 20
12.322446
 10
12.711750
 20
12.321250
 10
12.729397
 20
12.319913
 10
12.746992
 20
12.318430
 10
12.764528
 20
12.316794
 10
12.782000
 20
12.315000
 10
12.799459
 20
12.312857
 10
12.816953
 20
12.310559
 10
12.834471
 20
12.308114
 10
12.852000
 20
12.305531
 10
12.869529
 20
12.302820
 10
12.887047
 20
12.299988
 10
12.904541
 20
12.297045
 10
12.922000
 20
12.294000
 10
12.939412
 20
12.290861
 10
12.956766
 20
12.287637
 10
12.974049
 20
12.284336
 10
12.991250
 20
12.280969
 10
13.008357
 20
12.277542
 10
13.025359
 20
12.274066
 10
13.042244
 20
12.270549
 10
13.059000
 20
12.267000
 10
13.075663
 20
12.263413
 10
13.092273
 20
12.259773
 10
13.108825
 20
12.256075
 10
13.125312
 20
12.252312
 10
13.141729
 20
12.248479
 10
13.158070
 20
12.244570
 10
13.174329
 20
12.240579
 10
13.190500
 20
12.236500
 10
13.206577
 20
12.232327
 10
13.222555
 20
12.228055
 10
13.238427
 20
12.223677
 10
13.254188
 20
12.219188
 10
13.269831
 20
12.214581
 10
13.285352
 20
12.209852
 10
13.300743
 20
12.204993
 10
13.316000
 20
12.200000
 10
13.331129
 20
12.194879
 10
13.346143
 20
12.189643
 10
13.361042
 20
12.184292
 10
13.375828
 20
12.178828
 10
13.390503
 20
12.173253
 10
13.405068
 20
12.167568
 10
13.419525
 20
12.161775
 10
13.433875
 20
12.155875
 10
13.448119
 20
12.149869
 10
13.462260
 20
12.143760
 10
13.476298
 20
12.137548
 10
13.490234
 20
12.131234
 10
13.504072
 20
12.124822
 10
13.517811
 20
12.118311
 10
13.531453
 20
12.111703
 10
13.545000
 20
12.105000
 10
13.558442
 20
12.098181
 10
13.571770
 20
12.091229
 10
13.584986
 20
12.084150
 10
13.598094
 20
12.076953
 10
13.611096
 20
12.069645
 10
13.623996
 20
12.062232
 10
13.636796
 20
12.054723
 10
13.649500
 20
12.047125
 10
13.662110
 20
12.039445
 10
13.674629
 20
12.031689
 10
13.687060
 20
12.023867
 10
13.699406
 20
12.015984
 10
13.711670
 20
12.008049
 10
13.723855
 20
12.000068
 10
13.735964
 20
11.992050
 10
13.748000
 20
11.984000
 10
13.759965
 20
11.975704
 10
13.771857
 20
11.967316
 10
13.783677
 20
11.958841
 10
13.795422
 20
11.950281
 10
13.807091
 20
11.941639
 10
13.818682
 20
11.932918
 10
13.830194
 20
11.924121
 10
13.841625
 20
11.915250
 10
13.852974
 20
11.906309
 10
13.864240
 20
11.897301
 10
13.875421
 20
11.888228
 10
13.886516
 20
11.879094
 10
13.897522
 20
11.869901
 10
13.908439
 20
11.860652
 10
13.919266
 20
11.851351
 10
13.930000
 20
11.842000
 10
13.940828
 20
11.832402
 10
13.951562
 20
11.822734
 10
13.962203
 20
11.812996
 10
13.972750
 20
11.803187
 10
13.983203
 20
11.793309
 10
13.993562
 20
11.783359
 10
14.003828
 20
11.773340
 10
14.014000
 20
11.763250
 10
14.024078
 20
11.753090
 10
14.034062
 20
11.742859
 10
14.043953
 20
11.732559
 10
14.053750
 20
11.722188
 10
14.063453
 20
11.711746
 10
14.073063
 20
11.701234
 10
14.082578
 20
11.690652
 10
14.092000
 20
11.680000
 10
14.101516
 20
11.669090
 10
14.110939
 20
11.658109
 10
14.120272
 20
11.647059
 10
14.129516
 20
11.635938
 10
14.138671
 20
11.624746
 10
14.147740
 20
11.613484
 10
14.156724
 20
11.602152
 10
14.165625
 20
11.590750
 10
14.174444
 20
11.579277
 10
14.183182
 20
11.567734
 10
14.191841
 20
11.556121
 10
14.200422
 20
11.544437
 10
14.208927
 20
11.532684
 10
14.217357
 20
11.520859
 10
14.225715
 20
11.508965
 10
14.234000
 20
11.497000
 10
14.242182
 20
11.484932
 10
14.250234
 20
11.472734
 10
14.258170
 20
11.460420
 10
14.266000
 20
11.448000
 10
14.273736
 20
11.435486
 10
14.281391
 20
11.422891
 10
14.288975
 20
11.410225
 10
14.296500
 20
11.397500
 10
14.303979
 20
11.384729
 10
14.311422
 20
11.371922
 10
14.318842
 20
11.359092
 10
14.326250
 20
11.346250
 10
14.333658
 20
11.333408
 10
14.341078
 20
11.320578
 10
14.348521
 20
11.307771
 10
14.356000
 20
11.295000
 10
14.363323
 20
11.282062
 10
14.370662
 20
11.269119
 10
14.378010
 20
11.256168
 10
14.385359
 20
11.243203
 10
14.392703
 20
11.230221
 10
14.400033
 20
11.217217
 10
14.407343
 20
11.204186
 10
14.414625
 20
11.191125
 10
14.421872
 20
11.178029
 10
14.429076
 20
11.164893
 10
14.436231
 20
11.151713
 10
14.443328
 20
11.138484
 10
14.450361
 20
11.125203
 10
14.457322
 20
11.111865
 10
14.464204
 20
11.098466
 10
14.471000
 20
11.085000
 10
14.477737
 20
11.071487
 10
14.484445
 20
11.057945
 10
14.491118
 20
11.044368
 10
14.497750
 20
11.030750
 10
14.504335
 20
11.017085
 10
14.510867
 20
11.003367
 10
14.517341
 20
10.989591
 10
14.523750
 20
10.975750
 10
14.530089
 20
10.961839
 10
14.536352
 20
10.947852
 10
14.542532
 20
10.933782
 10
14.548625
 20
10.919625
 10
14.554624
 20
10.905374
 10
14.560523
 20
10.891023
 10
14.566317
 20
10.876567
 10
14.572000
 20
10.862000
 10
14.577590
 20
10.847516
 10
14.583109
 20
10.832937
 10
14.588559
 20
10.818266
 10
14.593937
 20
10.803500
 10
14.599246
 20
10.788641
 10
14.604484
 20
10.773688
 10
14.609652
 20
10.758641
 10
14.614750
 20
10.743500
 10
14.619777
 20
10.728266
 10
14.624734
 20
10.712937
 10
14.629621
 20
10.697516
 10
14.634438
 20
10.682000
 10
14.639184
 20
10.666391
 10
14.643859
 20
10.650688
 10
14.648465
 20
10.634891
 10
14.653000
 20
10.619000
 10
14.657453
 20
10.603203
 10
14.661814
 20
10.587314
 10
14.666085
 20
10.571335
 10
14.670266
 20
10.555266
 10
14.674359
 20
10.539109
 10
14.678365
 20
10.522865
 10
14.682287
 20
10.506537
 10
14.686125
 20
10.490125
 10
14.689881
 20
10.473631
 10
14.693557
 20
10.457057
 10
14.697153
 20
10.440403
 10
14.700672
 20
10.423672
 10
14.704115
 20
10.406865
 10
14.707482
 20
10.389982
 10
14.710777
 20
10.373027
 10
14.714000
 20
10.356000
 10
14.717108
 20
10.338693
 10
14.720066
 20
10.321279
 10
14.722890
 20
10.303769
 10
14.725594
 20
10.286172
 10
14.728192
 20
10.268499
 10
14.730699
 20
10.250760
 10
14.733130
 20
10.232965
 10
14.735500
 20
10.215125
 10
14.737823
 20
10.197250
 10
14.740113
 20
10.179350
 10
14.742386
 20
10.161435
 10
14.744656
 20
10.143516
 10
14.746938
 20
10.125602
 10
14.749246
 20
10.107705
 10
14.751595
 20
10.089834
 10
14.754000
 20
10.072000
 10
14.756658
 20
10.054232
 10
14.759371
 20
10.036541
 10
14.762125
 20
10.018912
 10
14.764906
 20
10.001328
 10
14.767699
 20
9.983774
 10
14.770488
 20
9.966232
 10
14.773260
 20
9.948688
 10
14.776000
 20
9.931125
 10
14.778693
 20
9.913527
 10
14.781324
 20
9.895877
 10
14.783879
 20
9.878160
 10
14.786344
 20
9.860359
 10
14.788703
 20
9.842459
 10
14.790941
 20
9.824443
 10
14.793045
 20
9.806296
 10
14.795000
 20
9.788000
 10
14.796840
 20
9.769535
 10
14.798607
 20
9.750902
 10
14.800302
 20
9.732124
 10
14.801922
 20
9.713219
 10
14.803466
 20
9.694208
 10
14.804932
 20
9.675113
 10
14.806319
 20
9.655954
 10
14.807625
 20
9.636750
 10
14.808849
 20
9.617523
 10
14.809990
 20
9.598293
 10
14.811046
 20
9.579081
 10
14.812016
 20
9.559906
 10
14.812897
 20
9.540791
 10
14.813689
 20
9.521754
 10
14.814391
 20
9.502817
 10
14.815000
 20
9.484000
 10
14.815703
 20
9.465284
 10
14.816312
 20
9.446629
 10
14.816828
 20
9.428027
 10
14.817250
 20
9.409469
 10
14.817578
 20
9.390946
 10
14.817813
 20
9.372449
 10
14.817953
 20
9.353970
 10
14.818000
 20
9.335500
 10
14.817953
 20
9.317030
 10
14.817813
 20
9.298551
 10
14.817578
 20
9.280054
 10
14.817250
 20
9.261531
 10
14.816828
 20
9.242973
 10
14.816313
 20
9.224371
 10
14.815703
 20
9.205716
 10
14.815000
 20
9.187000
 10
14.814391
 20
9.168183
 10
14.813689
 20
9.149246
 10
14.812897
 20
9.130209
 10
14.812016
 20
9.111094
 10
14.811046
 20
9.091919
 10
14.809990
 20
9.072707
 10
14.808849
 20
9.053477
 10
14.807625
 20
9.034250
 10
14.806319
 20
9.015046
 10
14.804932
 20
8.995887
 10
14.803466
 20
8.976792
 10
14.801922
 20
8.957781
 10
14.800302
 20
8.938876
 10
14.798607
 20
8.920098
 10
14.796840
 20
8.901465
 10
14.795000
 20
8.883000
 10
14.793045
 20
8.864704
 10
14.790941
 20
8.846557
 10
14.788703
 20
8.828541
 10
14.786344
 20
8.810641
 10
14.783879
 20
8.792840
 10
14.781324
 20
8.775123
 10
14.778693
 20
8.757473
 10
14.776000
 20
8.739875
 10
14.773260
 20
8.722312
 10
14.770488
 20
8.704768
 10
14.767699
 20
8.687226
 10
14.764906
 20
8.669672
 10
14.762125
 20
8.652088
 10
14.759371
 20
8.634459
 10
14.756658
 20
8.616768
 10
14.754000
 20
8.599000
 10
14.751595
 20
8.581331
 10
14.749246
 20
8.563584
 10
14.746938
 20
8.545776
 10
14.744656
 20
8.527922
 10
14.742386
 20
8.510039
 10
14.740113
 20
8.492143
 10
14.737823
 20
8.474249
 10
14.735500
 20
8.456375
 10
14.733130
 20
8.438536
 10
14.730699
 20
8.420748
 10
14.728192
 20
8.403028
 10
14.725594
 20
8.385391
 10
14.722890
 20
8.367853
 10
14.720066
 20
8.350432
 10
14.717108
 20
8.333142
 10
14.714000
 20
8.316000
 10
14.710766
 20
8.298984
 10
14.707441
 20
8.282057
 10
14.704029
 20
8.265215
 10
14.700531
 20
8.248453
 10
14.696952
 20
8.231768
 10
14.693293
 20
8.215154
 10
14.689558
 20
8.198608
 10
14.685750
 20
8.182125
 10
14.681872
 20
8.165700
 10
14.677926
 20
8.149330
 10
14.673916
 20
8.133010
 10
14.669844
 20
8.116734
 10
14.665713
 20
8.100500
 10
14.661527
 20
8.084303
 10
14.657289
 20
8.068137
 10
14.653000
 20
8.052000
 10
14.648851
 20
8.036064
 10
14.644652
 20
8.020135
 10
14.640401
 20
8.004220
 10
14.636094
 20
7.988328
 10
14.631728
 20
7.972465
 10
14.627301
 20
7.956639
 10
14.622809
 20
7.940856
 10
14.618250
 20
7.925125
 10
14.613621
 20
7.909452
 10
14.608918
 20
7.893846
 10
14.604139
 20
7.878312
 10
14.599281
 20
7.862859
 10
14.594341
 20
7.847494
 10
14.589316
 20
7.832225
 10
14.584204
 20
7.817057
 10
14.579000
 20
7.802000
 10
14.573692
 20
7.787058
 10
14.568273
 20
7.772227
 10
14.562749
 20
7.757501
 10
14.557125
 20
7.742875
 10
14.551407
 20
7.728343
 10
14.545602
 20
7.713898
 10
14.539714
 20
7.699536
 10
14.533750
 20
7.685250
 10
14.527716
 20
7.671034
 10
14.521617
 20
7.656883
 10
14.515460
 20
7.642790
 10
14.509250
 20
7.628750
 10
14.502993
 20
7.614757
 10
14.496695
 20
7.600805
 10
14.490362
 20
7.586888
 10
14.484000
 20
7.573000
 10
14.477602
 20
7.558973
 10
14.471156
 20
7.545016
 10
14.464664
 20
7.531129
 10
14.458125
 20
7.517312
 10
14.451539
 20
7.503566
 10
14.444906
 20
7.489891
 10
14.438227
 20
7.476285
 10
14.431500
 20
7.462750
 10
14.424727
 20
7.449285
 10
14.417906
 20
7.435891
 10
14.411039
 20
7.422566
 10
14.404125
 20
7.409313
 10
14.397164
 20
7.396129
 10
14.390156
 20
7.383016
 10
14.383102
 20
7.369973
 10
14.376000
 20
7.357000
 10
14.368873
 20
7.343877
 10
14.361736
 20
7.330764
 10
14.354579
 20
7.317671
 10
14.347391
 20
7.304609
 10
14.340161
 20
7.291589
 10
14.332881
 20
7.278619
 10
14.325539
 20
7.265711
 10
14.318125
 20
7.252875
 10
14.310629
 20
7.240121
 10
14.303041
 20
7.227459
 10
14.295350
 20
7.214900
 10
14.287547
 20
7.202453
 10
14.279620
 20
7.190130
 10
14.271561
 20
7.177939
 10
14.263357
 20
7.165893
 10
14.255000
 20
7.154000
 10
14.246493
 20
7.142246
 10
14.237852
 20
7.130605
 10
14.229081
 20
7.119077
 10
14.220188
 20
7.107656
 10
14.211177
 20
7.096341
 10
14.202055
 20
7.085129
 10
14.192827
 20
7.074016
 10
14.183500
 20
7.063000
 10
14.174079
 20
7.052078
 10
14.164570
 20
7.041246
 10
14.154979
 20
7.030502
 10
14.145312
 20
7.019844
 10
14.135575
 20
7.009267
 10
14.125773
 20
6.998770
 10
14.115913
 20
6.988348
 10
14.106000
 20
6.978000
 10
14.096049
 20
6.967701
 10
14.086064
 20
6.957436
 10
14.076036
 20
6.947214
 10
14.065953
 20
6.937047
 10
14.055806
 20
6.926944
 10
14.045584
 20
6.916916
 10
14.035277
 20
6.906973
 10
14.024875
 20
6.897125
 10
14.014367
 20
6.887383
 10
14.003744
 20
6.877756
 10
13.992995
 20
6.868255
 10
13.982109
 20
6.858891
 10
13.971077
 20
6.849673
 10
13.959889
 20
6.840611
 10
13.948533
 20
6.831717
 10
13.937000
 20
6.823000
 10
13.925217
 20
6.814434
 10
13.913143
 20
6.805986
 10
13.900813
 20
6.797659
 10
13.888266
 20
6.789453
 10
13.875536
 20
6.781370
 10
13.862662
 20
6.773412
 10
13.849679
 20
6.765580
 10
13.836625
 20
6.757875
 10
13.823535
 20
6.750299
 10
13.810447
 20
6.742854
 10
13.797397
 20
6.735540
 10
13.784422
 20
6.728359
 10
13.771558
 20
6.721314
 10
13.758842
 20
6.714404
 10
13.746310
 20
6.707633
 10
13.734000
 20
6.701000
 10
13.722167
 20
6.694486
 10
13.710635
 20
6.688074
 10
13.699351
 20
6.681774
 10
13.688266
 20
6.675594
 10
13.677326
 20
6.669542
 10
13.666482
 20
6.663629
 10
13.655682
 20
6.657862
 10
13.644875
 20
6.652250
 10
13.634009
 20
6.646802
 10
13.623033
 20
6.641527
 10
13.611896
 20
6.636434
 10
13.600547
 20
6.631531
 10
13.588934
 20
6.626828
 10
13.577006
 20
6.622332
 10
13.564712
 20
6.618053
 10
13.552000
 20
6.614000
 10
13.538914
 20
6.609991
 10
13.525547
 20
6.606209
 10
13.511922
 20
6.602647
 10
13.498062
 20
6.599297
 10
13.483992
 20
6.596152
 10
13.469734
 20
6.593205
 10
13.455313
 20
6.590448
 10
13.440750
 20
6.587875
 10
13.426070
 20
6.585477
 10
13.411297
 20
6.583248
 10
13.396453
 20
6.581180
 10
13.381562
 20
6.579266
 10
13.366648
 20
6.577498
 10
13.351734
 20
6.575869
 10
13.336844
 20
6.574372
 10
13.322000
 20
6.573000
  0
ENDSEC
  0
EOF
