  0
SECTION
  2
HEADER
  9
$INSUNITS
 70
4
  0
ENDSEC
  0
SECTION
  2
TABLES
  0
TABLE
  2
LAYER
  0
LAYER
  2
CUT
 70
0
 62
7
  0
LAYER
  2
ENGRAVE
 70
0
 62
1
  0
ENDTAB
  0
ENDSEC
  0
SECTION
  2
ENTITIES
  0
CIRCLE
  8
CUT
 10
8.500000
 20
8.500000
 30
0.0
 40
8.000000
  0
LWPOLYLINE
  8
ENGRAVE
 90
1153
 70
1
 10
3.665000
 20
8.238000
 10
3.649038
 20
8.236372
 10
3.633025
 20
8.234869
 10
3.616957
 20
8.233498
 10
3.600828
 20
8.232266
 10
3.584635
 20
8.231180
 10
3.568373
 20
8.230248
 10
3.552038
 20
8.229477
 10
3.535625
 20
8.228875
 10
3.519130
 20
8.228448
 10
3.502549
 20
8.228205
 10
3.485877
 20
8.228152
 10
3.469109
 20
8.228297
 10
3.452242
 20
8.228647
 10
3.435271
 20
8.229209
 10
3.418192
 20
8.229991
 10
3.401000
 20
8.231000
 10
3.383781
 20
8.232219
 10
3.366281
 20
8.233623
 10
3.348547
 20
8.235212
 10
3.330625
 20
8.236984
 10
3.312563
 20
8.238938
 10
3.294406
 20
8.241072
 10
3.276203
 20
8.243385
 10
3.258000
 20
8.245875
 10
3.239844
 20
8.248541
 10
3.221781
 20
8.251381
 10
3.203859
 20
8.254394
 10
3.186125
 20
8.257578
 10
3.168625
 20
8.260932
 10
3.151406
 20
8.264455
 10
3.134516
 20
8.268145
 10
3.118000
 20
8.272000
 10
3.101571
 20
8.275832
 10
3.085285
 20
8.279828
 10
3.069146
 20
8.283988
 10
3.053156
 20
8.288312
 10
3.037319
 20
8.292801
 10
3.021637
 20
8.297453
 10
3.006113
 20
8.302270
 10
2.990750
 20
8.307250
 10
2.975551
 20
8.312395
 10
2.960520
 20
8.317703
 10
2.945658
 20
8.323176
 10
2.930969
 20
8.328813
 10
2.916456
 20
8.334613
 10
2.902121
 20
8.340578
 10
2.887968
 20
8.346707
 10
2.874000
 20
8.353000
 10
2.860218
 20
8.359468
 10
2.846615
 20
8.366117
 10
2.833186
 20
8.372942
 10
2.819922
 20
8.379938
 10
2.806816
 20
8.387097
 10
2.793861
 20
8.394414
 10
2.781050
 20
8.401884
 10
2.768375
 20
8.409500
 10
2.755829
 20
8.417257
 10
2.743404
 20
8.425148
 10
2.731094
 20
8.433169
 10
2.718891
 20
8.441312
 10
2.706787
 20
8.449573
 10
2.694775
 20
8.457945
 10
2.682849
 20
8.466423
 10
2.671000
 20
8.475000
 10
2.659257
 20
8.483496
 10
2.647646
 20
8.492105
 10
2.636162
 20
8.500827
 10
2.624797
 20
8.509656
 10
2.613543
 20
8.518591
 10
2.602393
 20
8.527629
 10
2.591339
 20
8.536766
 10
2.580375
 20
8.546000
 10
2.569493
 20
8.555328
 10
2.558686
 20
8.564746
 10
2.547946
 20
8.574252
 10
2.537266
 20
8.583844
 10
2.526638
 20
8.593517
 10
2.516057
 20
8.603270
 10
2.505513
 20
8.613098
 10
2.495000
 20
8.623000
 10
2.484723
 20
8.632984
 10
2.474518
 20
8.643059
 10
2.464385
 20
8.653221
 10
2.454328
 20
8.663469
 10
2.444347
 20
8.673798
 10
2.434443
 20
8.684207
 10
2.424619
 20
8.694692
 10
2.414875
 20
8.705250
 10
2.405213
 20
8.715878
 10
2.395635
 20
8.726574
 10
2.386141
 20
8.737334
 10
2.376734
 20
8.748156
 10
2.367415
 20
8.759037
 10
2.358186
 20
8.769973
 10
2.349047
 20
8.780961
 10
2.340000
 20
8.792000
 10
2.331002
 20
8.803263
 10
2.322018
 20
8.814561
 10
2.313059
 20
8.825902
 10
2.304141
 20
8.837297
 10
2.295275
 20
8.848757
 10
2.286475
 20
8.860291
 10
2.277754
 20
8.871910
 10
2.269125
 20
8.883625
 10
2.260602
 20
8.895445
 10
2.252197
 20
8.907381
 10
2.243925
 20
8.919443
 10
2.235797
 20
8.931641
 10
2.227827
 20
8.943985
 10
2.220029
 20
8.956486
 10
2.212416
 20
8.969155
 10
2.205000
 20
8.982000
 10
2.197581
 20
8.994832
 10
2.190322
 20
9.007824
 10
2.183219
 20
9.020975
 10
2.176266
 20
9.034281
 10
2.169459
 20
9.047740
 10
2.162795
 20
9.061348
 10
2.156268
 20
9.075102
 10
2.149875
 20
9.089000
 10
2.143611
 20
9.103039
 10
2.137471
 20
9.117215
 10
2.131451
 20
9.131526
 10
2.125547
 20
9.145969
 10
2.119754
 20
9.160541
 10
2.114068
 20
9.175238
 10
2.108485
 20
9.190059
 10
2.103000
 20
9.205000
 10
2.097820
 20
9.220059
 10
2.092779
 20
9.235238
 10
2.087876
 20
9.250541
 10
2.083109
 20
9.265969
 10
2.078477
 20
9.281526
 10
2.073979
 20
9.297215
 10
2.069612
 20
9.313039
 10
2.065375
 20
9.329000
 10
2.061267
 20
9.345102
 10
2.057287
 20
9.361348
 10
2.053433
 20
9.377740
 10
2.049703
 20
9.394281
 10
2.046096
 20
9.410975
 10
2.042611
 20
9.427824
 10
2.039246
 20
9.444832
 10
2.036000
 20
9.462000
 10
2.032883
 20
9.479177
 10
2.029904
 20
9.496568
 10
2.027064
 20
9.514156
 10
2.024359
 20
9.531922
 10
2.021790
 20
9.549845
 10
2.019354
 20
9.567908
 10
2.017049
 20
9.586091
 10
2.014875
 20
9.604375
 10
2.012830
 20
9.622741
 10
2.010912
 20
9.641170
 10
2.009120
 20
9.659643
 10
2.007453
 20
9.678141
 10
2.005909
 20
9.696644
 10
2.004486
 20
9.715135
 10
2.003184
 20
9.733593
 10
2.002000
 20
9.752000
 10
2.000934
 20
9.770431
 10
1.999990
 20
9.788963
 10
1.999172
 20
9.807580
 10
1.998484
 20
9.826266
 10
1.997931
 20
9.845004
 10
1.997518
 20
9.863779
 10
1.997247
 20
9.882575
 10
1.997125
 20
9.901375
 10
1.997155
 20
9.920163
 10
1.997342
 20
9.938924
 10
1.997690
 20
9.957640
 10
1.998203
 20
9.976297
 10
1.998886
 20
9.994877
 10
1.999744
 20
10.013365
 10
2.000781
 20
10.031745
 10
2.002000
 20
10.050000
 10
2.003405
 20
10.068186
 10
2.004992
 20
10.086361
 10
2.006755
 20
10.104516
 10
2.008688
 20
10.122641
 10
2.010784
 20
10.140724
 10
2.013039
 20
10.158756
 10
2.015446
 20
10.176726
 10
2.018000
 20
10.194625
 10
2.020694
 20
10.212442
 10
2.023523
 20
10.230166
 10
2.026481
 20
10.247788
 10
2.029562
 20
10.265297
 10
2.032761
 20
10.282683
 10
2.036070
 20
10.299936
 10
2.039485
 20
10.317045
 10
2.043000
 20
10.334000
 10
2.046433
 20
10.350806
 10
2.049980
 20
10.367479
 10
2.053639
 20
10.384025
 10
2.057406
 20
10.400453
 10
2.061279
 20
10.416770
 10
2.065254
 20
10.432982
 10
2.069329
 20
10.449098
 10
2.073500
 20
10.465125
 10
2.077765
 20
10.481070
 10
2.082121
 20
10.496939
 10
2.086565
 20
10.512742
 10
2.091094
 20
10.528484
 10
2.095705
 20
10.544174
 10
2.100395
 20
10.559818
 10
2.105161
 20
10.575425
 10
2.110000
 20
10.591000
 10
2.114921
 20
10.606329
 10
2.119934
 20
10.621566
 10
2.125034
 20
10.636716
 10
2.130219
 20
10.651781
 10
2.135486
 20
10.666764
 10
2.140832
 20
10.681668
 10
2.146254
 20
10.696496
 10
2.151750
 20
10.711250
 10
2.157316
 20
10.725934
 10
2.162949
 20
10.740551
 10
2.168647
 20
10.755103
 10
2.174406
 20
10.769594
 10
2.180224
 20
10.784026
 10
2.186098
 20
10.798402
 10
2.192024
 20
10.812726
 10
2.198000
 20
10.827000
 10
2.204001
 20
10.841414
 10
2.210010
 20
10.855777
 10
2.216033
 20
10.870088
 10
2.222078
 20
10.884344
 10
2.228153
 20
10.898541
 10
2.234264
 20
10.912676
 10
2.240419
 20
10.926747
 10
2.246625
 20
10.940750
 10
2.252890
 20
10.954683
 10
2.259221
 20
10.968543
 10
2.265625
 20
10.982327
 10
2.272109
 20
10.996031
 10
2.278682
 20
11.009654
 10
2.285350
 20
11.023191
 10
2.292120
 20
11.036641
 10
2.299000
 20
11.050000
 10
2.306171
 20
11.063255
 10
2.313430
 20
11.076400
 10
2.320771
 20
11.089443
 10
2.328187
 20
11.102391
 10
2.335675
 20
11.115250
 10
2.343227
 20
11.128029
 10
2.350837
 20
11.140735
 10
2.358500
 20
11.153375
 10
2.366210
 20
11.165956
 10
2.373961
 20
11.178486
 10
2.381747
 20
11.190972
 10
2.389562
 20
11.203422
 10
2.397401
 20
11.215842
 10
2.405258
 20
11.228240
 10
2.413126
 20
11.240624
 10
2.421000
 20
11.253000
 10
2.428898
 20
11.265528
 10
2.436838
 20
11.277992
 10
2.444816
 20
11.290397
 10
2.452828
 20
11.302750
 10
2.460869
 20
11.315056
 10
2.468936
 20
11.327320
 10
2.477022
 20
11.339550
 10
2.485125
 20
11.351750
 10
2.493240
 20
11.363927
 10
2.501361
 20
11.376086
 10
2.509486
 20
11.388233
 10
2.517609
 20
11.400375
 10
2.525727
 20
11.412517
 10
2.533834
 20
11.424664
 10
2.541927
 20
11.436823
 10
2.550000
 20
11.449000
 10
2.557897
 20
11.461353
 10
2.565836
 20
11.473664
 10
2.573810
 20
11.485940
 10
2.581812
 20
11.498188
 10
2.589839
 20
11.510411
 10
2.597883
 20
11.522617
 10
2.605938
 20
11.534812
 10
2.614000
 20
11.547000
 10
2.622062
 20
11.559188
 10
2.630117
 20
11.571383
 10
2.638161
 20
11.583589
 10
2.646187
 20
11.595812
 10
2.654190
 20
11.608060
 10
2.662164
 20
11.620336
 10
2.670103
 20
11.632647
 10
2.678000
 20
11.645000
 10
2.685863
 20
11.657552
 10
2.693701
 20
11.670088
 10
2.701513
 20
11.682615
 10
2.709297
 20
11.695141
 10
2.717052
 20
11.707672
 10
2.724775
 20
11.720217
 10
2.732467
 20
11.732782
 10
2.740125
 20
11.745375
 10
2.747748
 20
11.758003
 10
2.755334
 20
11.770674
 10
2.762882
 20
11.783394
 10
2.770391
 20
11.796172
 10
2.777858
 20
11.809014
 10
2.785283
 20
11.821928
 10
2.792664
 20
11.834921
 10
2.800000
 20
11.848000
 10
2.807080
 20
11.861171
 10
2.814074
 20
11.874428
 10
2.820993
 20
11.887764
 10
2.827844
 20
11.901172
 10
2.834636
 20
11.914644
 10
2.841379
 20
11.928174
 10
2.848081
 20
11.941753
 10
2.854750
 20
11.955375
 10
2.861396
 20
11.969032
 10
2.868027
 20
11.982717
 10
2.874653
 20
11.996422
 10
2.881281
 20
12.010141
 10
2.887921
 20
12.023865
 10
2.894582
 20
12.037588
 10
2.901272
 20
12.051302
 10
2.908000
 20
12.065000
 10
2.914761
 20
12.078489
 10
2.921541
 20
12.091959
 10
2.928336
 20
12.105414
 10
2.935141
 20
12.118859
 10
2.941951
 20
12.132299
 10
2.948764
 20
12.145736
 10
2.955573
 20
12.159177
 10
2.962375
 20
12.172625
 10
2.969165
 20
12.186085
 10
2.975939
 20
12.199561
 10
2.982693
 20
12.213057
 10
2.989422
 20
12.226578
 10
2.996121
 20
12.240129
 10
3.002787
 20
12.253713
 10
3.009415
 20
12.267335
 10
3.016000
 20
12.281000
 10
3.022507
 20
12.294743
 10
3.028914
 20
12.308588
 10
3.035239
 20
12.322517
 10
3.041500
 20
12.336516
 10
3.047714
 20
12.350567
 10
3.053898
 20
12.364654
 10
3.060071
 20
12.378762
 10
3.066250
 20
12.392875
 10
3.072452
 20
12.406976
 10
3.078695
 20
12.421049
 10
3.084997
 20
12.435078
 10
3.091375
 20
12.449047
 10
3.097847
 20
12.462940
 10
3.104430
 20
12.476740
 10
3.111142
 20
12.490432
 10
3.118000
 20
12.504000
 10
3.124784
 20
12.517466
 10
3.131635
 20
12.530865
 10
3.138547
 20
12.544203
 10
3.145516
 20
12.557484
 10
3.152537
 20
12.570713
 10
3.159607
 20
12.583893
 10
3.166721
 20
12.597029
 10
3.173875
 20
12.610125
 10
3.181064
 20
12.623186
 10
3.188283
 20
12.636217
 10
3.195529
 20
12.649221
 10
3.202797
 20
12.662203
 10
3.210082
 20
12.675168
 10
3.217381
 20
12.688119
 10
3.224688
 20
12.701062
 10
3.232000
 20
12.714000
 10
3.239490
 20
12.726760
 10
3.246963
 20
12.739537
 10
3.254427
 20
12.752323
 10
3.261891
 20
12.765109
 10
3.269360
 20
12.777890
 10
3.276842
 20
12.790658
 10
3.284344
 20
12.803406
 10
3.291875
 20
12.816125
 10
3.299441
 20
12.828809
 10
3.307049
 20
12.841451
 10
3.314707
 20
12.854043
 10
3.322422
 20
12.866578
 10
3.330201
 20
12.879049
 10
3.338053
 20
12.891447
 10
3.345983
 20
12.903767
 10
3.354000
 20
12.916000
 10
3.362097
 20
12.928329
 10
3.370260
 20
12.940570
 10
3.378484
 20
12.952729
 10
3.386766
 20
12.964813
 10
3.395100
 20
12.976825
 10
3.403482
 20
12.988773
 10
3.411909
 20
13.000663
 10
3.420375
 20
13.012500
 10
3.428876
 20
13.024290
 10
3.437408
 20
13.036039
 10
3.445967
 20
13.047753
 10
3.454547
 20
13.059437
 10
3.463145
 20
13.071099
 10
3.471756
 20
13.082742
 10
3.480376
 20
13.094374
 10
3.489000
 20
13.106000
 10
3.497802
 20
13.117624
 10
3.506586
 20
13.129242
 10
3.515358
 20
13.140849
 10
3.524125
 20
13.152437
 10
3.532892
 20
13.164003
 10
3.541664
 20
13.175539
 10
3.550448
 20
13.187040
 10
3.559250
 20
13.198500
 10
3.568075
 20
13.209913
 10
3.576930
 20
13.221273
 10
3.585819
 20
13.232575
 10
3.594750
 20
13.243813
 10
3.603728
 20
13.254979
 10
3.612758
 20
13.266070
 10
3.621847
 20
13.277079
 10
3.631000
 20
13.288000
 10
3.640398
 20
13.299028
 10
3.649844
 20
13.309986
 10
3.659336
 20
13.320878
 10
3.668875
 20
13.331703
 10
3.678461
 20
13.342464
 10
3.688094
 20
13.353162
 10
3.697773
 20
13.363799
 10
3.707500
 20
13.374375
 10
3.717273
 20
13.384893
 10
3.727094
 20
13.395354
 10
3.736961
 20
13.405759
 10
3.746875
 20
13.416109
 10
3.756836
 20
13.426407
 10
3.766844
 20
13.436654
 10
3.776898
 20
13.446851
 10
3.787000
 20
13.457000
 10
3.797149
 20
13.467102
 10
3.807346
 20
13.477156
 10
3.817593
 20
13.487164
 10
3.827891
 20
13.497125
 10
3.838241
 20
13.507039
 10
3.848646
 20
13.516906
 10
3.859107
 20
13.526727
 10
3.869625
 20
13.536500
 10
3.880201
 20
13.546227
 10
3.890838
 20
13.555906
 10
3.901536
 20
13.565539
 10
3.912297
 20
13.575125
 10
3.923122
 20
13.584664
 10
3.934014
 20
13.594156
 10
3.944972
 20
13.603602
 10
3.956000
 20
13.613000
 10
3.966910
 20
13.622175
 10
3.977889
 20
13.631324
 10
3.988935
 20
13.640444
 10
4.000047
 20
13.649531
 10
4.011223
 20
13.658583
 10
4.022463
 20
13.667598
 10
4.033764
 20
13.676571
 10
4.045125
 20
13.685500
 10
4.056545
 20
13.694382
 10
4.068021
 20
13.703215
 10
4.079554
 20
13.711995
 10
4.091141
 20
13.720719
 10
4.102780
 20
13.729384
 10
4.114471
 20
13.737988
 10
4.126211
 20
13.746528
 10
4.138000
 20
13.755000
 10
4.150012
 20
13.763414
 10
4.162049
 20
13.771779
 10
4.174112
 20
13.780095
 10
4.186203
 20
13.788359
 10
4.198323
 20
13.796571
 10
4.210475
 20
13.804729
 10
4.222658
 20
13.812830
 10
4.234875
 20
13.820875
 10
4.247127
 20
13.828861
 10
4.259416
 20
13.836787
 10
4.271743
 20
13.844652
 10
4.284109
 20
13.852453
 10
4.296517
 20
13.860190
 10
4.308967
 20
13.867861
 10
4.321461
 20
13.875465
 10
4.334000
 20
13.883000
 10
4.346751
 20
13.890675
 10
4.359512
 20
13.898318
 10
4.372290
 20
13.905924
 10
4.385094
 20
13.913484
 10
4.397933
 20
13.920992
 10
4.410816
 20
13.928439
 10
4.423752
 20
13.935820
 10
4.436750
 20
13.943125
 10
4.449818
 20
13.950348
 10
4.462965
 20
13.957482
 10
4.476200
 20
13.964520
 10
4.489531
 20
13.971453
 10
4.502968
 20
13.978275
 10
4.516520
 20
13.984979
 10
4.530194
 20
13.991556
 10
4.544000
 20
13.998000
 10
4.557934
 20
14.004317
 10
4.571984
 20
14.010518
 10
4.586152
 20
14.016604
 10
4.600437
 20
14.022578
 10
4.614840
 20
14.028441
 10
4.629359
 20
14.034193
 10
4.643996
 20
14.039838
 10
4.658750
 20
14.045375
 10
4.673621
 20
14.050807
 10
4.688609
 20
14.056135
 10
4.703715
 20
14.061360
 10
4.718938
 20
14.066484
 10
4.734277
 20
14.071509
 10
4.749734
 20
14.076436
 10
4.765309
 20
14.081265
 10
4.781000
 20
14.086000
 10
4.796610
 20
14.090640
 10
4.812316
 20
14.095184
 10
4.828123
 20
14.099627
 10
4.844031
 20
14.103969
 10
4.860045
 20
14.108205
 10
4.876168
 20
14.112332
 10
4.892402
 20
14.116348
 10
4.908750
 20
14.120250
 10
4.925215
 20
14.124035
 10
4.941801
 20
14.127699
 10
4.958509
 20
14.131241
 10
4.975344
 20
14.134656
 10
4.992307
 20
14.137943
 10
5.009402
 20
14.141098
 10
5.026632
 20
14.144118
 10
5.044000
 20
14.147000
 10
5.061761
 20
14.149764
 10
5.079773
 20
14.152426
 10
5.098009
 20
14.154976
 10
5.116437
 20
14.157406
 10
5.135030
 20
14.159708
 10
5.153758
 20
14.161871
 10
5.172591
 20
14.163888
 10
5.191500
 20
14.165750
 10
5.210456
 20
14.167448
 10
5.229430
 20
14.168973
 10
5.248392
 20
14.170316
 10
5.267312
 20
14.171469
 10
5.286163
 20
14.172422
 10
5.304914
 20
14.173168
 10
5.323536
 20
14.173697
 10
5.342000
 20
14.174000
 10
5.360396
 20
14.174083
 10
5.378826
 20
14.173961
 10
5.397277
 20
14.173640
 10
5.415734
 20
14.173125
 10
5.434186
 20
14.172423
 10
5.452619
 20
14.171539
 10
5.471020
 20
14.170479
 10
5.489375
 20
14.169250
 10
5.507672
 20
14.167856
 10
5.525896
 20
14.166305
 10
5.544036
 20
14.164601
 10
5.562078
 20
14.162750
 10
5.580009
 20
14.160759
 10
5.597814
 20
14.158633
 10
5.615483
 20
14.156378
 10
5.633000
 20
14.154000
 10
5.650225
 20
14.151304
 10
5.667393
 20
14.148467
 10
5.684493
 20
14.145486
 10
5.701516
 20
14.142359
 10
5.718450
 20
14.139087
 10
5.735287
 20
14.135666
 10
5.752015
 20
14.132096
 10
5.768625
 20
14.128375
 10
5.785106
 20
14.124502
 10
5.801447
 20
14.120475
 10
5.817639
 20
14.116292
 10
5.833672
 20
14.111953
 10
5.849534
 20
14.107456
 10
5.865217
 20
14.102799
 10
5.880709
 20
14.097981
 10
5.896000
 20
14.093000
 10
5.911095
 20
14.087833
 10
5.926008
 20
14.082465
 10
5.940745
 20
14.076903
 10
5.955312
 20
14.071156
 10
5.969716
 20
14.065234
 10
5.983961
 20
14.059145
 10
5.998054
 20
14.052897
 10
6.012000
 20
14.046500
 10
6.025806
 20
14.039962
 10
6.039477
 20
14.033293
 10
6.053019
 20
14.026500
 10
6.066437
 20
14.019594
 10
6.079739
 20
14.012582
 10
6.092930
 20
14.005473
 10
6.106015
 20
13.998276
 10
6.119000
 20
13.991000
 10
6.132056
 20
13.983806
 10
6.144977
 20
13.976477
 10
6.157769
 20
13.969019
 10
6.170438
 20
13.961437
 10
6.182989
 20
13.953739
 10
6.195430
 20
13.945930
 10
6.207765
 20
13.938015
 10
6.220000
 20
13.930000
 10
6.232142
 20
13.921892
 10
6.244195
 20
13.913695
 10
6.256167
 20
13.905417
 10
6.268063
 20
13.897063
 10
6.279888
 20
13.888638
 10
6.291648
 20
13.880148
 10
6.303351
 20
13.871601
 10
6.315000
 20
13.863000
 10
6.326590
 20
13.854328
 10
6.338107
 20
13.845564
 10
6.349552
 20
13.836710
 10
6.360922
 20
13.827766
 10
6.372216
 20
13.818734
 10
6.383432
 20
13.809615
 10
6.394569
 20
13.800412
 10
6.405625
 20
13.791125
 10
6.416599
 20
13.781756
 10
6.427490
 20
13.772307
 10
6.438296
 20
13.762778
 10
6.449016
 20
13.753172
 10
6.459647
 20
13.743490
 10
6.470189
 20
13.733732
 10
6.480641
 20
13.723902
 10
6.491000
 20
13.714000
 10
6.501266
 20
13.704016
 10
6.511443
 20
13.693941
 10
6.521535
 20
13.683779
 10
6.531547
 20
13.673531
 10
6.541482
 20
13.663202
 10
6.551346
 20
13.652793
 10
6.561142
 20
13.642308
 10
6.570875
 20
13.631750
 10
6.580550
 20
13.621122
 10
6.590170
 20
13.610426
 10
6.599740
 20
13.599666
 10
6.609266
 20
13.588844
 10
6.618750
 20
13.577963
 10
6.628197
 20
13.567027
 10
6.637613
 20
13.556039
 10
6.647000
 20
13.545000
 10
6.656186
 20
13.534101
 10
6.665365
 20
13.523152
 10
6.674530
 20
13.512151
 10
6.683672
 20
13.501094
 10
6.692785
 20
13.489978
 10
6.701861
 20
13.478801
 10
6.710894
 20
13.467559
 10
6.719875
 20
13.456250
 10
6.728798
 20
13.444871
 10
6.737654
 20
13.433418
 10
6.746438
 20
13.421889
 10
6.755141
 20
13.410281
 10
6.763756
 20
13.398591
 10
6.772275
 20
13.386816
 10
6.780693
 20
13.374954
 10
6.789000
 20
13.363000
 10
6.797203
 20
13.350789
 10
6.805314
 20
13.338527
 10
6.813335
 20
13.326213
 10
6.821266
 20
13.313844
 10
6.829109
 20
13.301416
 10
6.836865
 20
13.288926
 10
6.844537
 20
13.276372
 10
6.852125
 20
13.263750
 10
6.859631
 20
13.251058
 10
6.867057
 20
13.238293
 10
6.874403
 20
13.225452
 10
6.881672
 20
13.212531
 10
6.888865
 20
13.199529
 10
6.895982
 20
13.186441
 10
6.903027
 20
13.173266
 10
6.910000
 20
13.160000
 10
6.917045
 20
13.146619
 10
6.923939
 20
13.133109
 10
6.930696
 20
13.119482
 10
6.937328
 20
13.105750
 10
6.943849
 20
13.091924
 10
6.950271
 20
13.078016
 10
6.956609
 20
13.064037
 10
6.962875
 20
13.050000
 10
6.969082
 20
13.035916
 10
6.975244
 20
13.021797
 10
6.981374
 20
13.007654
 10
6.987484
 20
12.993500
 10
6.993589
 20
12.979346
 10
6.999701
 20
12.965203
 10
7.005834
 20
12.951084
 10
7.012000
 20
12.937000
 10
7.018154
 20
12.922739
 10
7.024244
 20
12.908455
 10
7.030279
 20
12.894151
 10
7.036266
 20
12.879828
 10
7.042211
 20
12.865488
 10
7.048123
 20
12.851131
 10
7.054009
 20
12.836760
 10
7.059875
 20
12.822375
 10
7.065730
 20
12.807979
 10
7.071580
 20
12.793572
 10
7.077433
 20
12.779157
 10
7.083297
 20
12.764734
 10
7.089178
 20
12.750306
 10
7.095084
 20
12.735873
 10
7.101022
 20
12.721437
 10
7.107000
 20
12.707000
 10
7.112791
 20
12.692541
 10
7.118545
 20
12.678045
 10
7.124273
 20
12.663523
 10
7.129984
 20
12.648984
 10
7.135690
 20
12.634440
 10
7.141400
 20
12.619900
 10
7.147125
 20
12.605375
 10
7.152875
 20
12.590875
 10
7.158660
 20
12.576410
 10
7.164490
 20
12.561990
 10
7.170376
 20
12.547626
 10
7.176328
 20
12.533328
 10
7.182356
 20
12.519106
 10
7.188471
 20
12.504971
 10
7.194682
 20
12.490932
 10
7.201000
 20
12.477000
 10
7.207420
 20
12.463170
 10
7.213926
 20
12.449426
 10
7.220507
 20
12.435757
 10
7.227156
 20
12.422156
 10
7.233864
 20
12.408614
 10
7.240621
 20
12.395121
 10
7.247419
 20
12.381669
 10
7.254250
 20
12.368250
 10
7.261104
 20
12.354854
 10
7.267973
 20
12.341473
 10
7.274847
 20
12.328097
 10
7.281719
 20
12.314719
 10
7.288579
 20
12.301329
 10
7.295418
 20
12.287918
 10
7.302228
 20
12.274478
 10
7.309000
 20
12.261000
 10
7.315783
 20
12.247522
 10
7.322625
 20
12.234080
 10
7.329514
 20
12.220665
 10
7.336438
 20
12.207266
 10
7.343385
 20
12.193872
 10
7.350344
 20
12.180475
 10
7.357303
 20
12.167062
 10
7.364250
 20
12.153625
 10
7.371174
 20
12.140153
 10
7.378063
 20
12.126635
 10
7.384904
 20
12.113061
 10
7.391687
 20
12.099422
 10
7.398400
 20
12.085706
 10
7.405031
 20
12.071904
 10
7.411568
 20
12.058006
 10
7.418000
 20
12.044000
 10
7.424175
 20
12.030090
 10
7.430324
 20
12.016111
 10
7.436444
 20
12.002065
 10
7.442531
 20
11.987953
 10
7.448583
 20
11.973777
 10
7.454598
 20
11.959537
 10
7.460571
 20
11.945236
 10
7.466500
 20
11.930875
 10
7.472382
 20
11.916455
 10
7.478215
 20
11.901979
 10
7.483995
 20
11.887446
 10
7.489719
 20
11.872859
 10
7.495384
 20
11.858220
 10
7.500988
 20
11.843529
 10
7.506528
 20
11.828789
 10
7.512000
 20
11.814000
 10
7.517458
 20
11.799373
 10
7.522945
 20
11.784732
 10
7.528444
 20
11.770066
 10
7.533937
 20
11.755359
 10
7.539407
 20
11.740600
 10
7.544836
 20
11.725775
 10
7.550206
 20
11.710871
 10
7.555500
 20
11.695875
 10
7.560700
 20
11.680773
 10
7.565789
 20
11.665553
 10
7.570749
 20
11.650200
 10
7.575563
 20
11.634703
 10
7.580212
 20
11.619048
 10
7.584680
 20
11.603221
 10
7.588948
 20
11.587209
 10
7.593000
 20
11.571000
 10
7.597044
 20
11.554574
 10
7.600928
 20
11.537934
 10
7.604656
 20
11.521100
 10
7.608234
 20
11.504094
 10
7.611666
 20
11.486935
 10
7.614955
 20
11.469645
 10
7.618107
 20
11.452243
 10
7.621125
 20
11.434750
 10
7.624014
 20
11.417187
 10
7.626779
 20
11.399574
 10
7.629424
 20
11.381932
 10
7.631953
 20
11.364281
 10
7.634371
 20
11.346642
 10
7.636682
 20
11.329035
 10
7.638890
 20
11.311481
 10
7.641000
 20
11.294000
 10
7.642849
 20
11.276364
 10
7.644635
 20
11.258705
 10
7.646342
 20
11.241026
 10
7.647953
 20
11.223328
 10
7.649453
 20
11.205613
 10
7.650826
 20
11.187881
 10
7.652055
 20
11.170135
 10
7.653125
 20
11.152375
 10
7.654019
 20
11.134604
 10
7.654721
 20
11.116822
 10
7.655215
 20
11.099032
 10
7.655484
 20
11.081234
 10
7.655514
 20
11.063431
 10
7.655287
 20
11.045623
 10
7.654788
 20
11.027812
 10
7.654000
 20
11.010000
 10
7.653089
 20
10.992144
 10
7.651871
 20
10.974213
 10
7.650366
 20
10.956226
 10
7.648594
 20
10.938203
 10
7.646576
 20
10.920162
 10
7.644332
 20
10.902123
 10
7.641883
 20
10.884104
 10
7.639250
 20
10.866125
 10
7.636453
 20
10.848204
 10
7.633512
 20
10.830361
 10
7.630448
 20
10.812615
 10
7.627281
 20
10.794984
 10
7.624033
 20
10.777489
 10
7.620723
 20
10.760146
 10
7.617372
 20
10.742977
 10
7.614000
 20
10.726000
 10
7.610578
 20
10.709161
 10
7.607059
 20
10.692398
 10
7.603440
 20
10.675718
 10
7.599719
 20
10.659125
 10
7.595892
 20
10.642626
 10
7.591957
 20
10.626227
 10
7.587911
 20
10.609933
 10
7.583750
 20
10.593750
 10
7.579472
 20
10.577685
 10
7.575074
 20
10.561742
 10
7.570553
 20
10.545929
 10
7.565906
 20
10.530250
 10
7.561130
 20
10.514712
 10
7.556223
 20
10.499320
 10
7.551180
 20
10.484081
 10
7.546000
 20
10.469000
 10
7.540658
 20
10.454092
 10
7.535139
 20
10.439361
 10
7.529452
 20
10.424798
 10
7.523609
 20
10.410391
 10
7.517620
 20
10.396130
 10
7.511494
 20
10.382006
 10
7.505242
 20
10.368008
 10
7.498875
 20
10.354125
 10
7.492402
 20
10.340348
 10
7.485834
 20
10.326666
 10
7.479181
 20
10.313069
 10
7.472453
 20
10.299547
 10
7.465661
 20
10.286089
 10
7.458814
 20
10.272686
 10
7.451924
 20
10.259326
 10
7.445000
 20
10.246000
 10
7.437873
 20
10.232701
 10
7.430734
 20
10.219436
 10
7.423572
 20
10.206214
 10
7.416375
 20
10.193047
 10
7.409131
 20
10.179944
 10
7.401828
 20
10.166916
 10
7.394455
 20
10.153973
 10
7.387000
 20
10.141125
 10
7.379451
 20
10.128383
 10
7.371797
 20
10.115756
 10
7.364025
 20
10.103255
 10
7.356125
 20
10.090891
 10
7.348084
 20
10.078673
 10
7.339891
 20
10.066611
 10
7.331533
 20
10.054717
 10
7.323000
 20
10.043000
 10
7.314261
 20
10.031478
 10
7.305305
 20
10.020152
 10
7.296149
 20
10.009008
 10
7.286813
 20
9.998031
 10
7.277312
 20
9.987207
 10
7.267664
 20
9.976520
 10
7.257888
 20
9.965956
 10
7.248000
 20
9.955500
 10
7.238019
 20
9.945138
 10
7.227961
 20
9.934855
 10
7.217845
 20
9.924637
 10
7.207688
 20
9.914469
 10
7.197507
 20
9.904335
 10
7.187320
 20
9.894223
 10
7.177146
 20
9.884116
 10
7.167000
 20
9.874000
 10
7.156873
 20
9.863877
 10
7.146736
 20
9.853764
 10
7.136579
 20
9.843671
 10
7.126391
 20
9.833609
 10
7.116161
 20
9.823589
 10
7.105881
 20
9.813619
 10
7.095539
 20
9.803711
 10
7.085125
 20
9.793875
 10
7.074629
 20
9.784121
 10
7.064041
 20
9.774459
 10
7.053350
 20
9.764900
 10
7.042547
 20
9.755453
 10
7.031620
 20
9.746130
 10
7.020561
 20
9.736939
 10
7.009357
 20
9.727893
 10
6.998000
 20
9.719000
 10
6.986493
 20
9.710092
 10
6.974854
 20
9.701357
 10
6.963088
 20
9.692784
 10
6.951203
 20
9.684359
 10
6.939207
 20
9.676069
 10
6.927107
 20
9.667900
 10
6.914911
 20
9.659840
 10
6.902625
 20
9.651875
 10
6.890257
 20
9.643992
 10
6.877814
 20
9.636178
 10
6.865304
 20
9.628419
 10
6.852734
 20
9.620703
 10
6.840112
 20
9.613016
 10
6.827443
 20
9.605346
 10
6.814737
 20
9.597678
 10
6.802000
 20
9.590000
 10
6.789425
 20
9.582490
 10
6.776818
 20
9.574969
 10
6.764174
 20
9.567447
 10
6.751484
 20
9.559938
 10
6.738742
 20
9.552451
 10
6.725939
 20
9.545000
 10
6.713070
 20
9.537596
 10
6.700125
 20
9.530250
 10
6.687098
 20
9.522975
 10
6.673982
 20
9.515781
 10
6.660770
 20
9.508682
 10
6.647453
 20
9.501687
 10
6.634025
 20
9.494811
 10
6.620479
 20
9.488062
 10
6.606806
 20
9.481455
 10
6.593000
 20
9.475000
 10
6.578869
 20
9.468705
 10
6.564605
 20
9.462564
 10
6.550219
 20
9.456567
 10
6.535719
 20
9.450703
 10
6.521113
 20
9.444962
 10
6.506410
 20
9.439334
 10
6.491620
 20
9.433808
 10
6.476750
 20
9.428375
 10
6.461810
 20
9.423024
 10
6.446809
 20
9.417744
 10
6.431754
 20
9.412526
 10
6.416656
 20
9.407359
 10
6.401523
 20
9.402234
 10
6.386363
 20
9.397139
 10
6.371186
 20
9.392064
 10
6.356000
 20
9.387000
 10
6.340789
 20
9.381961
 10
6.325529
 20
9.376971
 10
6.310220
 20
9.372030
 10
6.294859
 20
9.367141
 10
6.279446
 20
9.362304
 10
6.263979
 20
9.357521
 10
6.248455
 20
9.352795
 10
6.232875
 20
9.348125
 10
6.217236
 20
9.343514
 10
6.201537
 20
9.338963
 10
6.185777
 20
9.334473
 10
6.169953
 20
9.330047
 10
6.154065
 20
9.325685
 10
6.138111
 20
9.321389
 10
6.122090
 20
9.317160
 10
6.106000
 20
9.313000
 10
6.089819
 20
9.308755
 10
6.073533
 20
9.304637
 10
6.057157
 20
9.300629
 10
6.040703
 20
9.296719
 10
6.024185
 20
9.292890
 10
6.007615
 20
9.289129
 10
5.991008
 20
9.285420
 10
5.974375
 20
9.281750
 10
5.957731
 20
9.278103
 10
5.941088
 20
9.274465
 10
5.924460
 20
9.270821
 10
5.907859
 20
9.267156
 10
5.891300
 20
9.263457
 10
5.874795
 20
9.259707
 10
5.858357
 20
9.255893
 10
5.842000
 20
9.252000
 10
5.825688
 20
9.248061
 10
5.809383
 20
9.244115
 10
5.793089
 20
9.240155
 10
5.776812
 20
9.236172
 10
5.760560
 20
9.232160
 10
5.744336
 20
9.228111
 10
5.728147
 20
9.224019
 10
5.712000
 20
9.219875
 10
5.695899
 20
9.215673
 10
5.679852
 20
9.211404
 10
5.663862
 20
9.207063
 10
5.647937
 20
9.202641
 10
5.632083
 20
9.198131
 10
5.616305
 20
9.193525
 10
5.600608
 20
9.188818
 10
5.585000
 20
9.184000
 10
5.569660
 20
9.179090
 10
5.554393
 20
9.174109
 10
5.539198
 20
9.169059
 10
5.524078
 20
9.163937
 10
5.509034
 20
9.158746
 10
5.494068
 20
9.153484
 10
5.479181
 20
9.148152
 10
5.464375
 20
9.142750
 10
5.449651
 20
9.137277
 10
5.435010
 20
9.131734
 10
5.420454
 20
9.126121
 10
5.405984
 20
9.120437
 10
5.391603
 20
9.114684
 10
5.377311
 20
9.108859
 10
5.363109
 20
9.102965
 10
5.349000
 20
9.097000
 10
5.334808
 20
9.090766
 10
5.320727
 20
9.084441
 10
5.306751
 20
9.078029
 10
5.292875
 20
9.071531
 10
5.279093
 20
9.064952
 10
5.265398
 20
9.058293
 10
5.251786
 20
9.051558
 10
5.238250
 20
9.044750
 10
5.224784
 20
9.037872
 10
5.211383
 20
9.030926
 10
5.198040
 20
9.023916
 10
5.184750
 20
9.016844
 10
5.171507
 20
9.009713
 10
5.158305
 20
9.002527
 10
5.145138
 20
8.995289
 10
5.132000
 20
8.988000
 10
5.118921
 20
8.980829
 10
5.105928
 20
8.973572
 10
5.093014
 20
8.966236
 10
5.080172
 20
8.958828
 10
5.067394
 20
8.951356
 10
5.054674
 20
8.943826
 10
5.042003
 20
8.936247
 10
5.029375
 20
8.928625
 10
5.016782
 20
8.920968
 10
5.004217
 20
8.913283
 10
4.991672
 20
8.905578
 10
4.979141
 20
8.897859
 10
4.966615
 20
8.890135
 10
4.954088
 20
8.882412
 10
4.941552
 20
8.874698
 10
4.929000
 20
8.867000
 10
4.916647
 20
8.859102
 10
4.904336
 20
8.851162
 10
4.892060
 20
8.843184
 10
4.879813
 20
8.835172
 10
4.867589
 20
8.827131
 10
4.855383
 20
8.819064
 10
4.843188
 20
8.810978
 10
4.831000
 20
8.802875
 10
4.818812
 20
8.794760
 10
4.806617
 20
8.786639
 10
4.794411
 20
8.778514
 10
4.782188
 20
8.770391
 10
4.769940
 20
8.762273
 10
4.757664
 20
8.754166
 10
4.745353
 20
8.746073
 10
4.733000
 20
8.738000
 10
4.720812
 20
8.729949
 10
4.708623
 20
8.721918
 10
4.696431
 20
8.713905
 10
4.684234
 20
8.705906
 10
4.672032
 20
8.697919
 10
4.659822
 20
8.689941
 10
4.647604
 20
8.681969
 10
4.635375
 20
8.674000
 10
4.623135
 20
8.666031
 10
4.610881
 20
8.658059
 10
4.598613
 20
8.650081
 10
4.586328
 20
8.642094
 10
4.574026
 20
8.634095
 10
4.561705
 20
8.626082
 10
4.549364
 20
8.618051
 10
4.537000
 20
8.610000
 10
4.524845
 20
8.601905
 10
4.512746
 20
8.593752
 10
4.500688
 20
8.585555
 10
4.488656
 20
8.577328
 10
4.476636
 20
8.569083
 10
4.464613
 20
8.560834
 10
4.452573
 20
8.552594
 10
4.440500
 20
8.544375
 10
4.428380
 20
8.536192
 10
4.416199
 20
8.528057
 10
4.403942
 20
8.519983
 10
4.391594
 20
8.511984
 10
4.379140
 20
8.504073
 10
4.366566
 20
8.496264
 10
4.353858
 20
8.488568
 10
4.341000
 20
8.481000
 10
4.328148
 20
8.473723
 10
4.315107
 20
8.466516
 10
4.301900
 20
8.459379
 10
4.288547
 20
8.452313
 10
4.275071
 20
8.445316
 10
4.261494
 20
8.438391
 10
4.247838
 20
8.431535
 10
4.234125
 20
8.424750
 10
4.220377
 20
8.418035
 10
4.206615
 20
8.411391
 10
4.192863
 20
8.404816
 10
4.179141
 20
8.398312
 10
4.165471
 20
8.391879
 10
4.151877
 20
8.385516
 10
4.138379
 20
8.379223
 10
4.125000
 20
8.373000
 10
4.111787
 20
8.366826
 10
4.098750
 20
8.360687
 10
4.085854
 20
8.354596
 10
4.073063
 20
8.348562
 10
4.060342
 20
8.342600
 10
4.047656
 20
8.336719
 10
4.034971
 20
8.330932
 10
4.022250
 20
8.325250
 10
4.009459
 20
8.319686
 10
3.996563
 20
8.314250
 10
3.983525
 20
8.308955
 10
3.970313
 20
8.303812
 10
3.956889
 20
8.298834
 10
3.943219
 20
8.294031
 10
3.929268
 20
8.289416
 10
3.915000
 20
8.285000
 10
3.900613
 20
8.280946
 10
3.885965
 20
8.277033
 10
3.871077
 20
8.273264
 10
3.855969
 20
8.269641
 10
3.840662
 20
8.266163
 10
3.825176
 20
8.262834
 10
3.809532
 20
8.259654
 10
3.793750
 20
8.256625
 10
3.777851
 20
8.253748
 10
3.761855
 20
8.251025
 10
3.745784
 20
8.248458
 10
3.729656
 20
8.246047
 10
3.713494
 20
8.243794
 10
3.697316
 20
8.241701
 10
3.681145
 20
8.239769
 10
3.665000
 20
8.238000
  0
LWPOLYLINE
  8
ENGRAVE
 90
1041
 70
1
 10
10.514000
 20
1.903000
 10
10.502319
 20
1.903798
 10
10.490867
 20
1.904693
 10
10.479591
 20
1.905692
 10
10.468438
 20
1.906797
 10
10.457354
 20
1.908013
 10
10.446289
 20
1.909346
 10
10.435188
 20
1.910798
 10
10.424000
 20
1.912375
 10
10.412671
 20
1.914081
 10
10.401148
 20
1.915920
 10
10.389380
 20
1.917897
 10
10.377312
 20
1.920016
 10
10.364894
 20
1.922281
 10
10.352070
 20
1.924697
 10
10.338790
 20
1.927269
 10
10.325000
 20
1.930000
 10
10.310423
 20
1.932718
 10
10.295240
 20
1.935615
 10
10.279528
 20
1.938686
 10
10.263359
 20
1.941922
 10
10.246810
 20
1.945316
 10
10.229955
 20
1.948861
 10
10.212868
 20
1.952550
 10
10.195625
 20
1.956375
 10
10.178300
 20
1.960329
 10
10.160967
 20
1.964404
 10
10.143701
 20
1.968594
 10
10.126578
 20
1.972891
 10
10.109672
 20
1.977287
 10
10.093057
 20
1.981775
 10
10.076808
 20
1.986349
 10
10.061000
 20
1.991000
 10
10.045473
 20
1.995559
 10
10.030021
 20
2.000236
 10
10.014649
 20
2.005034
 10
9.999359
 20
2.009953
 10
9.984158
 20
2.014995
 10
9.969049
 20
2.020162
 10
9.954036
 20
2.025455
 10
9.939125
 20
2.030875
 10
9.924319
 20
2.036424
 10
9.909623
 20
2.042104
 10
9.895041
 20
2.047915
 10
9.880578
 20
2.053859
 10
9.866238
 20
2.059939
 10
9.852025
 20
2.066154
 10
9.837945
 20
2.072508
 10
9.824000
 20
2.079000
 10
9.810394
 20
2.085632
 10
9.796945
 20
2.092402
 10
9.783649
 20
2.099307
 10
9.770500
 20
2.106344
 10
9.757491
 20
2.113509
 10
9.744617
 20
2.120801
 10
9.731872
 20
2.128215
 10
9.719250
 20
2.135750
 10
9.706745
 20
2.143402
 10
9.694352
 20
2.151168
 10
9.682063
 20
2.159045
 10
9.669875
 20
2.167031
 10
9.657780
 20
2.175123
 10
9.645773
 20
2.183316
 10
9.633849
 20
2.191610
 10
9.622000
 20
2.200000
 10
9.610070
 20
2.208496
 10
9.598277
 20
2.217107
 10
9.586620
 20
2.225833
 10
9.575094
 20
2.234672
 10
9.563697
 20
2.243622
 10
9.552426
 20
2.252682
 10
9.541278
 20
2.261850
 10
9.530250
 20
2.271125
 10
9.519339
 20
2.280506
 10
9.508543
 20
2.289990
 10
9.497858
 20
2.299577
 10
9.487281
 20
2.309266
 10
9.476810
 20
2.319053
 10
9.466441
 20
2.328939
 10
9.456172
 20
2.338922
 10
9.446000
 20
2.349000
 10
9.435922
 20
2.359183
 10
9.425939
 20
2.369482
 10
9.416053
 20
2.379896
 10
9.406266
 20
2.390422
 10
9.396577
 20
2.401059
 10
9.386990
 20
2.411807
 10
9.377506
 20
2.422662
 10
9.368125
 20
2.433625
 10
9.358850
 20
2.444693
 10
9.349682
 20
2.455865
 10
9.340622
 20
2.467140
 10
9.331672
 20
2.478516
 10
9.322833
 20
2.489991
 10
9.314107
 20
2.501564
 10
9.305496
 20
2.513235
 10
9.297000
 20
2.525000
 10
9.288610
 20
2.536871
 10
9.280314
 20
2.548857
 10
9.272116
 20
2.560958
 10
9.264016
 20
2.573172
 10
9.256015
 20
2.585497
 10
9.248115
 20
2.597932
 10
9.240318
 20
2.610475
 10
9.232625
 20
2.623125
 10
9.225037
 20
2.635881
 10
9.217557
 20
2.648740
 10
9.210184
 20
2.661702
 10
9.202922
 20
2.674766
 10
9.195771
 20
2.687928
 10
9.188732
 20
2.701189
 10
9.181808
 20
2.714547
 10
9.175000
 20
2.728000
 10
9.168286
 20
2.741525
 10
9.161650
 20
2.755109
 10
9.155099
 20
2.768764
 10
9.148641
 20
2.782500
 10
9.142281
 20
2.796330
 10
9.136029
 20
2.810266
 10
9.129891
 20
2.824318
 10
9.123875
 20
2.838500
 10
9.117988
 20
2.852822
 10
9.112236
 20
2.867297
 10
9.106629
 20
2.881936
 10
9.101172
 20
2.896750
 10
9.095873
 20
2.911752
 10
9.090740
 20
2.926953
 10
9.085780
 20
2.942365
 10
9.081000
 20
2.958000
 10
9.076395
 20
2.973667
 10
9.071953
 20
2.989535
 10
9.067676
 20
3.005597
 10
9.063562
 20
3.021844
 10
9.059613
 20
3.038266
 10
9.055828
 20
3.054855
 10
9.052207
 20
3.071603
 10
9.048750
 20
3.088500
 10
9.045457
 20
3.105538
 10
9.042328
 20
3.122707
 10
9.039363
 20
3.140000
 10
9.036562
 20
3.157406
 10
9.033926
 20
3.174918
 10
9.031453
 20
3.192527
 10
9.029145
 20
3.210224
 10
9.027000
 20
3.228000
 10
9.024843
 20
3.245903
 10
9.022871
 20
3.263977
 10
9.021081
 20
3.282202
 10
9.019469
 20
3.300562
 10
9.018033
 20
3.319040
 10
9.016770
 20
3.337617
 10
9.015676
 20
3.356276
 10
9.014750
 20
3.375000
 10
9.013988
 20
3.393771
 10
9.013387
 20
3.412570
 10
9.012944
 20
3.431382
 10
9.012656
 20
3.450188
 10
9.012521
 20
3.468970
 10
9.012535
 20
3.487711
 10
9.012696
 20
3.506394
 10
9.013000
 20
3.525000
 10
9.013512
 20
3.543760
 10
9.014283
 20
3.562537
 10
9.015292
 20
3.581323
 10
9.016516
 20
3.600109
 10
9.017933
 20
3.618890
 10
9.019521
 20
3.637658
 10
9.021260
 20
3.656406
 10
9.023125
 20
3.675125
 10
9.025096
 20
3.693809
 10
9.027150
 20
3.712451
 10
9.029266
 20
3.731043
 10
9.031422
 20
3.749578
 10
9.033595
 20
3.768049
 10
9.035764
 20
3.786447
 10
9.037906
 20
3.804767
 10
9.040000
 20
3.823000
 10
9.042097
 20
3.841153
 10
9.044264
 20
3.859238
 10
9.046497
 20
3.877259
 10
9.048797
 20
3.895219
 10
9.051161
 20
3.913120
 10
9.053588
 20
3.930965
 10
9.056076
 20
3.948757
 10
9.058625
 20
3.966500
 10
9.061232
 20
3.984196
 10
9.063896
 20
4.001848
 10
9.066616
 20
4.019458
 10
9.069391
 20
4.037031
 10
9.072218
 20
4.054569
 10
9.075096
 20
4.072074
 10
9.078024
 20
4.089550
 10
9.081000
 20
4.107000
 10
9.083903
 20
4.124183
 10
9.086971
 20
4.141242
 10
9.090182
 20
4.158196
 10
9.093516
 20
4.175062
 10
9.096948
 20
4.191858
 10
9.100459
 20
4.208602
 10
9.104025
 20
4.225310
 10
9.107625
 20
4.242000
 10
9.111237
 20
4.258690
 10
9.114838
 20
4.275398
 10
9.118407
 20
4.292142
 10
9.121922
 20
4.308937
 10
9.125361
 20
4.325804
 10
9.128701
 20
4.342758
 10
9.131922
 20
4.359817
 10
9.135000
 20
4.377000
 10
9.137965
 20
4.394450
 10
9.140861
 20
4.411926
 10
9.143690
 20
4.429431
 10
9.146453
 20
4.446969
 10
9.149152
 20
4.464542
 10
9.151787
 20
4.482152
 10
9.154361
 20
4.499804
 10
9.156875
 20
4.517500
 10
9.159330
 20
4.535243
 10
9.161729
 20
4.553035
 10
9.164071
 20
4.570880
 10
9.166359
 20
4.588781
 10
9.168595
 20
4.606741
 10
9.170779
 20
4.624762
 10
9.172914
 20
4.642847
 10
9.175000
 20
4.661000
 10
9.177215
 20
4.679211
 10
9.179359
 20
4.697471
 10
9.181434
 20
4.715780
 10
9.183438
 20
4.734141
 10
9.185371
 20
4.752554
 10
9.187234
 20
4.771021
 10
9.189027
 20
4.789545
 10
9.190750
 20
4.808125
 10
9.192402
 20
4.826764
 10
9.193984
 20
4.845463
 10
9.195496
 20
4.864223
 10
9.196938
 20
4.883047
 10
9.198309
 20
4.901935
 10
9.199609
 20
4.920889
 10
9.200840
 20
4.939910
 10
9.202000
 20
4.959000
 10
9.203234
 20
4.978016
 10
9.204324
 20
4.997178
 10
9.205292
 20
5.016465
 10
9.206156
 20
5.035859
 10
9.206939
 20
5.055342
 10
9.207660
 20
5.074893
 10
9.208340
 20
5.094493
 10
9.209000
 20
5.114125
 10
9.209660
 20
5.133768
 10
9.210340
 20
5.153404
 10
9.211061
 20
5.173014
 10
9.211844
 20
5.192578
 10
9.212708
 20
5.212078
 10
9.213676
 20
5.231494
 10
9.214766
 20
5.250808
 10
9.216000
 20
5.270000
 10
9.217303
 20
5.288947
 10
9.218596
 20
5.307904
 10
9.219891
 20
5.326859
 10
9.221203
 20
5.345797
 10
9.222544
 20
5.364706
 10
9.223928
 20
5.383572
 10
9.225367
 20
5.402383
 10
9.226875
 20
5.421125
 10
9.228465
 20
5.439785
 10
9.230150
 20
5.458350
 10
9.231944
 20
5.476806
 10
9.233859
 20
5.495141
 10
9.235909
 20
5.513341
 10
9.238107
 20
5.531393
 10
9.240467
 20
5.549283
 10
9.243000
 20
5.567000
 10
9.245650
 20
5.584765
 10
9.248355
 20
5.602434
 10
9.251125
 20
5.620002
 10
9.253969
 20
5.637469
 10
9.256894
 20
5.654830
 10
9.259910
 20
5.672082
 10
9.263026
 20
5.689223
 10
9.266250
 20
5.706250
 10
9.269591
 20
5.723160
 10
9.273059
 20
5.739949
 10
9.276661
 20
5.756616
 10
9.280406
 20
5.773156
 10
9.284304
 20
5.789568
 10
9.288363
 20
5.805848
 10
9.292592
 20
5.821993
 10
9.297000
 20
5.838000
 10
9.301581
 20
5.853669
 10
9.306318
 20
5.869182
 10
9.311205
 20
5.884545
 10
9.316234
 20
5.899766
 10
9.321398
 20
5.914852
 10
9.326689
 20
5.929811
 10
9.332101
 20
5.944649
 10
9.337625
 20
5.959375
 10
9.343255
 20
5.973995
 10
9.348982
 20
5.988518
 10
9.354801
 20
6.002949
 10
9.360703
 20
6.017297
 10
9.366681
 20
6.031569
 10
9.372729
 20
6.045771
 10
9.378837
 20
6.059913
 10
9.385000
 20
6.074000
 10
9.391223
 20
6.088203
 10
9.397516
 20
6.102314
 10
9.403879
 20
6.116335
 10
9.410312
 20
6.130266
 10
9.416816
 20
6.144109
 10
9.423391
 20
6.157865
 10
9.430035
 20
6.171537
 10
9.436750
 20
6.185125
 10
9.443535
 20
6.198631
 10
9.450391
 20
6.212057
 10
9.457316
 20
6.225403
 10
9.464313
 20
6.238672
 10
9.471379
 20
6.251865
 10
9.478516
 20
6.264982
 10
9.485723
 20
6.278027
 10
9.493000
 20
6.291000
 10
9.500546
 20
6.303715
 10
9.508182
 20
6.316361
 10
9.515902
 20
6.328940
 10
9.523703
 20
6.341453
 10
9.531580
 20
6.353902
 10
9.539529
 20
6.366287
 10
9.547546
 20
6.378611
 10
9.555625
 20
6.390875
 10
9.563763
 20
6.403080
 10
9.571955
 20
6.415229
 10
9.580197
 20
6.427321
 10
9.588484
 20
6.439359
 10
9.596813
 20
6.451345
 10
9.605178
 20
6.463279
 10
9.613575
 20
6.475164
 10
9.622000
 20
6.487000
 10
9.630439
 20
6.498811
 10
9.638889
 20
6.510611
 10
9.647359
 20
6.522391
 10
9.655859
 20
6.534141
 10
9.664401
 20
6.545849
 10
9.672994
 20
6.557506
 10
9.681649
 20
6.569101
 10
9.690375
 20
6.580625
 10
9.699183
 20
6.592067
 10
9.708084
 20
6.603416
 10
9.717087
 20
6.614663
 10
9.726203
 20
6.625797
 10
9.735442
 20
6.636808
 10
9.744814
 20
6.647686
 10
9.754330
 20
6.658420
 10
9.764000
 20
6.669000
 10
9.773643
 20
6.679607
 10
9.783443
 20
6.690059
 10
9.793393
 20
6.700364
 10
9.803484
 20
6.710531
 10
9.813711
 20
6.720570
 10
9.824064
 20
6.730488
 10
9.834538
 20
6.740295
 10
9.845125
 20
6.750000
 10
9.855817
 20
6.759611
 10
9.866607
 20
6.769137
 10
9.877489
 20
6.778586
 10
9.888453
 20
6.787969
 10
9.899494
 20
6.797292
 10
9.910604
 20
6.806566
 10
9.921775
 20
6.815799
 10
9.933000
 20
6.825000
 10
9.944098
 20
6.833976
 10
9.955271
 20
6.842900
 10
9.966524
 20
6.851769
 10
9.977859
 20
6.860578
 10
9.989283
 20
6.869323
 10
10.000799
 20
6.877998
 10
10.012411
 20
6.886600
 10
10.024125
 20
6.895125
 10
10.035944
 20
6.903568
 10
10.047873
 20
6.911924
 10
10.059916
 20
6.920189
 10
10.072078
 20
6.928359
 10
10.084363
 20
6.936430
 10
10.096775
 20
6.944396
 10
10.109320
 20
6.952255
 10
10.122000
 20
6.960000
 10
10.134819
 20
6.967596
 10
10.147770
 20
6.975018
 10
10.160843
 20
6.982278
 10
10.174031
 20
6.989391
 10
10.187325
 20
6.996368
 10
10.200715
 20
7.003225
 10
10.214193
 20
7.009972
 10
10.227750
 20
7.016625
 10
10.241377
 20
7.023196
 10
10.255066
 20
7.029697
 10
10.268808
 20
7.036143
 10
10.282594
 20
7.042547
 10
10.296415
 20
7.048921
 10
10.310262
 20
7.055279
 10
10.324126
 20
7.061635
 10
10.338000
 20
7.068000
 10
10.352031
 20
7.074395
 10
10.366012
 20
7.080818
 10
10.379963
 20
7.087250
 10
10.393906
 20
7.093672
 10
10.407861
 20
7.100064
 10
10.421848
 20
7.106408
 10
10.435887
 20
7.112685
 10
10.450000
 20
7.118875
 10
10.464207
 20
7.124960
 10
10.478527
 20
7.130920
 10
10.492983
 20
7.136737
 10
10.507594
 20
7.142391
 10
10.522380
 20
7.147863
 10
10.537363
 20
7.153135
 10
10.552563
 20
7.158187
 10
10.568000
 20
7.163000
 10
10.583865
 20
7.167605
 10
10.599947
 20
7.172047
 10
10.616232
 20
7.176324
 10
10.632703
 20
7.180438
 10
10.649344
 20
7.184387
 10
10.666139
 20
7.188172
 10
10.683071
 20
7.191793
 10
10.700125
 20
7.195250
 10
10.717284
 20
7.198543
 10
10.734533
 20
7.201672
 10
10.751855
 20
7.204637
 10
10.769234
 20
7.207438
 10
10.786655
 20
7.210074
 10
10.804100
 20
7.212547
 10
10.821553
 20
7.214855
 10
10.839000
 20
7.217000
 10
10.856307
 20
7.219014
 10
10.873721
 20
7.220922
 10
10.891231
 20
7.222713
 10
10.908828
 20
7.224375
 10
10.926501
 20
7.225896
 10
10.944240
 20
7.227266
 10
10.962035
 20
7.228471
 10
10.979875
 20
7.229500
 10
10.997750
 20
7.230342
 10
11.015650
 20
7.230984
 10
11.033565
 20
7.231416
 10
11.051484
 20
7.231625
 10
11.069398
 20
7.231600
 10
11.087295
 20
7.231328
 10
11.105166
 20
7.230799
 10
11.123000
 20
7.230000
 10
11.140691
 20
7.229100
 10
11.158500
 20
7.227912
 10
11.176402
 20
7.226451
 10
11.194375
 20
7.224734
 10
11.212395
 20
7.222777
 10
11.230438
 20
7.220596
 10
11.248480
 20
7.218206
 10
11.266500
 20
7.215625
 10
11.284473
 20
7.212868
 10
11.302375
 20
7.209951
 10
11.320184
 20
7.206891
 10
11.337875
 20
7.203703
 10
11.355426
 20
7.200404
 10
11.372813
 20
7.197010
 10
11.390012
 20
7.193536
 10
11.407000
 20
7.190000
 10
11.423606
 20
7.186356
 10
11.440055
 20
7.182555
 10
11.456351
 20
7.178601
 10
11.472500
 20
7.174500
 10
11.488509
 20
7.170259
 10
11.504383
 20
7.165883
 10
11.520128
 20
7.161378
 10
11.535750
 20
7.156750
 10
11.551255
 20
7.152005
 10
11.566648
 20
7.147148
 10
11.581937
 20
7.142187
 10
11.597125
 20
7.137125
 10
11.612220
 20
7.131970
 10
11.627227
 20
7.126727
 10
11.642151
 20
7.121401
 10
11.657000
 20
7.116000
 10
11.671732
 20
7.110306
 10
11.686311
 20
7.104480
 10
11.700745
 20
7.098532
 10
11.715047
 20
7.092469
 10
11.729225
 20
7.086300
 10
11.743291
 20
7.080035
 10
11.757254
 20
7.073682
 10
11.771125
 20
7.067250
 10
11.784914
 20
7.060748
 10
11.798631
 20
7.054184
 10
11.812286
 20
7.047567
 10
11.825891
 20
7.040906
 10
11.839454
 20
7.034210
 10
11.852986
 20
7.027488
 10
11.866498
 20
7.020749
 10
11.880000
 20
7.014000
 10
11.893476
 20
7.007226
 10
11.906904
 20
7.000404
 10
11.920282
 20
6.993532
 10
11.933609
 20
6.986609
 10
11.946884
 20
6.979634
 10
11.960104
 20
6.972604
 10
11.973268
 20
6.965518
 10
11.986375
 20
6.958375
 10
11.999424
 20
6.951174
 10
12.012412
 20
6.943912
 10
12.025339
 20
6.936589
 10
12.038203
 20
6.929203
 10
12.051003
 20
6.921753
 10
12.063736
 20
6.914236
 10
12.076403
 20
6.906653
 10
12.089000
 20
6.899000
 10
12.101693
 20
6.891443
 10
12.114279
 20
6.883779
 10
12.126769
 20
6.876019
 10
12.139172
 20
6.868172
 10
12.151499
 20
6.860249
 10
12.163760
 20
6.852260
 10
12.175965
 20
6.844215
 10
12.188125
 20
6.836125
 10
12.200250
 20
6.828000
 10
12.212350
 20
6.819850
 10
12.224435
 20
6.811685
 10
12.236516
 20
6.803516
 10
12.248602
 20
6.795352
 10
12.260705
 20
6.787205
 10
12.272834
 20
6.779084
 10
12.285000
 20
6.771000
 10
12.297353
 20
6.762927
 10
12.309666
 20
6.754834
 10
12.321947
 20
6.746727
 10
12.334203
 20
6.738609
 10
12.346442
 20
6.730486
 10
12.358670
 20
6.722361
 10
12.370895
 20
6.714240
 10
12.383125
 20
6.706125
 10
12.395366
 20
6.698022
 10
12.407627
 20
6.689936
 10
12.419914
 20
6.681869
 10
12.432234
 20
6.673828
 10
12.444596
 20
6.665816
 10
12.457006
 20
6.657838
 10
12.469471
 20
6.649898
 10
12.482000
 20
6.642000
 10
12.494376
 20
6.634302
 10
12.506758
 20
6.626588
 10
12.519151
 20
6.618865
 10
12.531562
 20
6.611141
 10
12.543997
 20
6.603422
 10
12.556461
 20
6.595717
 10
12.568960
 20
6.588032
 10
12.581500
 20
6.580375
 10
12.594087
 20
6.572753
 10
12.606727
 20
6.565174
 10
12.619425
 20
6.557644
 10
12.632188
 20
6.550172
 10
12.645021
 20
6.542764
 10
12.657930
 20
6.535428
 10
12.670921
 20
6.528171
 10
12.684000
 20
6.521000
 10
12.697182
 20
6.513744
 10
12.710469
 20
6.506596
 10
12.723850
 20
6.499544
 10
12.737312
 20
6.492578
 10
12.750846
 20
6.485689
 10
12.764437
 20
6.478865
 10
12.778076
 20
6.472097
 10
12.791750
 20
6.465375
 10
12.805447
 20
6.458688
 10
12.819156
 20
6.452025
 10
12.832865
 20
6.445378
 10
12.846563
 20
6.438734
 10
12.860236
 20
6.432085
 10
12.873875
 20
6.425420
 10
12.887467
 20
6.418728
 10
12.901000
 20
6.412000
 10
12.914533
 20
6.405294
 10
12.928123
 20
6.398664
 10
12.941757
 20
6.392093
 10
12.955422
 20
6.385563
 10
12.969104
 20
6.379056
 10
12.982791
 20
6.372555
 10
12.996469
 20
6.366042
 10
13.010125
 20
6.359500
 10
13.023746
 20
6.352911
 10
13.037318
 20
6.346258
 10
13.050829
 20
6.339522
 10
13.064266
 20
6.332688
 10
13.077614
 20
6.325735
 10
13.090861
 20
6.318648
 10
13.103994
 20
6.311409
 10
13.117000
 20
6.304000
 10
13.129891
 20
6.296641
 10
13.142689
 20
6.289189
 10
13.155397
 20
6.281647
 10
13.168016
 20
6.274016
 10
13.180546
 20
6.266296
 10
13.192990
 20
6.258490
 10
13.205349
 20
6.250599
 10
13.217625
 20
6.242625
 10
13.229819
 20
6.234569
 10
13.241932
 20
6.226432
 10
13.253966
 20
6.218216
 10
13.265922
 20
6.209922
 10
13.277802
 20
6.201552
 10
13.289607
 20
6.193107
 10
13.301340
 20
6.184590
 10
13.313000
 20
6.176000
 10
13.324590
 20
6.167328
 10
13.336107
 20
6.158564
 10
13.347552
 20
6.149710
 10
13.358922
 20
6.140766
 10
13.370216
 20
6.131734
 10
13.381432
 20
6.122615
 10
13.392569
 20
6.113412
 10
13.403625
 20
6.104125
 10
13.414599
 20
6.094756
 10
13.425490
 20
6.085307
 10
13.436296
 20
6.075778
 10
13.447016
 20
6.066172
 10
13.457647
 20
6.056490
 10
13.468189
 20
6.046732
 10
13.478641
 20
6.036902
 10
13.489000
 20
6.027000
 10
13.499266
 20
6.017016
 10
13.509441
 20
6.006941
 10
13.519529
 20
5.996779
 10
13.529531
 20
5.986531
 10
13.539452
 20
5.976202
 10
13.549293
 20
5.965793
 10
13.559058
 20
5.955308
 10
13.568750
 20
5.944750
 10
13.578372
 20
5.934122
 10
13.587926
 20
5.923426
 10
13.597416
 20
5.912666
 10
13.606844
 20
5.901844
 10
13.616213
 20
5.890963
 10
13.625527
 20
5.880027
 10
13.634789
 20
5.869039
 10
13.644000
 20
5.858000
 10
13.653373
 20
5.846947
 10
13.662734
 20
5.835904
 10
13.672072
 20
5.824859
 10
13.681375
 20
5.813797
 10
13.690631
 20
5.802706
 10
13.699828
 20
5.791572
 10
13.708955
 20
5.780383
 10
13.718000
 20
5.769125
 10
13.726951
 20
5.757785
 10
13.735797
 20
5.746350
 10
13.744525
 20
5.734806
 10
13.753125
 20
5.723141
 10
13.761584
 20
5.711341
 10
13.769891
 20
5.699393
 10
13.778033
 20
5.687283
 10
13.786000
 20
5.675000
 10
13.794026
 20
5.662765
 10
13.801975
 20
5.650434
 10
13.809838
 20
5.638002
 10
13.817609
 20
5.625469
 10
13.825281
 20
5.612830
 10
13.832846
 20
5.600082
 10
13.840296
 20
5.587223
 10
13.847625
 20
5.574250
 10
13.854825
 20
5.561160
 10
13.861889
 20
5.547949
 10
13.868809
 20
5.534616
 10
13.875578
 20
5.521156
 10
13.882189
 20
5.507568
 10
13.888635
 20
5.493848
 10
13.894907
 20
5.479993
 10
13.901000
 20
5.466000
 10
13.907150
 20
5.451680
 10
13.913217
 20
5.437223
 10
13.919187
 20
5.422630
 10
13.925047
 20
5.407906
 10
13.930784
 20
5.393053
 10
13.936385
 20
5.378074
 10
13.941836
 20
5.362972
 10
13.947125
 20
5.347750
 10
13.952238
 20
5.332411
 10
13.957162
 20
5.316957
 10
13.961884
 20
5.301392
 10
13.966391
 20
5.285719
 10
13.970669
 20
5.269940
 10
13.974705
 20
5.254059
 10
13.978487
 20
5.238078
 10
13.982000
 20
5.222000
 10
13.985248
 20
5.205971
 10
13.988246
 20
5.189768
 10
13.991004
 20
5.173403
 10
13.993531
 20
5.156891
 10
13.995835
 20
5.140243
 10
13.997926
 20
5.123475
 10
13.999811
 20
5.106597
 10
14.001500
 20
5.089625
 10
14.003001
 20
5.072571
 10
14.004324
 20
5.055447
 10
14.005477
 20
5.038268
 10
14.006469
 20
5.021047
 10
14.007308
 20
5.003796
 10
14.008004
 20
4.986529
 10
14.008565
 20
4.969260
 10
14.009000
 20
4.952000
 10
14.009469
 20
4.934660
 10
14.009754
 20
4.917156
 10
14.009857
 20
4.899512
 10
14.009781
 20
4.881750
 10
14.009530
 20
4.863895
 10
14.009105
 20
4.845969
 10
14.008511
 20
4.827996
 10
14.007750
 20
4.810000
 10
14.006825
 20
4.792004
 10
14.005738
 20
4.774031
 10
14.004494
 20
4.756105
 10
14.003094
 20
4.738250
 10
14.001542
 20
4.720488
 10
13.999840
 20
4.702844
 10
13.997992
 20
4.685340
 10
13.996000
 20
4.668000
 10
13.993823
 20
4.650740
 10
13.991424
 20
4.633471
 10
13.988817
 20
4.616204
 10
13.986016
 20
4.598953
 10
13.983032
 20
4.581732
 10
13.979881
 20
4.564553
 10
13.976574
 20
4.547429
 10
13.973125
 20
4.530375
 10
13.969547
 20
4.513403
 10
13.965854
 20
4.496525
 10
13.962057
 20
4.479757
 10
13.958172
 20
4.463109
 10
13.954210
 20
4.446597
 10
13.950186
 20
4.430232
 10
13.946111
 20
4.414029
 10
13.942000
 20
4.398000
 10
13.937652
 20
4.381922
 10
13.933229
 20
4.365941
 10
13.928726
 20
4.350060
 10
13.924141
 20
4.334281
 10
13.919467
 20
4.318608
 10
13.914701
 20
4.303043
 10
13.909839
 20
4.287589
 10
13.904875
 20
4.272250
 10
13.899806
 20
4.257028
 10
13.894627
 20
4.241926
 10
13.889334
 20
4.226947
 10
13.883922
 20
4.212094
 10
13.878387
 20
4.197370
 10
13.872725
 20
4.182777
 10
13.866930
 20
4.168320
 10
13.861000
 20
4.154000
 10
13.854732
 20
4.140018
 10
13.848307
 20
4.126193
 10
13.841732
 20
4.112518
 10
13.835016
 20
4.098984
 10
13.828164
 20
4.085586
 10
13.821186
 20
4.072314
 10
13.814087
 20
4.059163
 10
13.806875
 20
4.046125
 10
13.799558
 20
4.033192
 10
13.792143
 20
4.020357
 10
13.784636
 20
4.007614
 10
13.777047
 20
3.994953
 10
13.769381
 20
3.982369
 10
13.761646
 20
3.969854
 10
13.753850
 20
3.957400
 10
13.746000
 20
3.945000
 10
13.738079
 20
3.932495
 10
13.730068
 20
3.920102
 10
13.721973
 20
3.907813
 10
13.713797
 20
3.895625
 10
13.705545
 20
3.883530
 10
13.697221
 20
3.871523
 10
13.688829
 20
3.859599
 10
13.680375
 20
3.847750
 10
13.671862
 20
3.835972
 10
13.663295
 20
3.824258
 10
13.654678
 20
3.812603
 10
13.646016
 20
3.801000
 10
13.637312
 20
3.789444
 10
13.628572
 20
3.777930
 10
13.619800
 20
3.766450
 10
13.611000
 20
3.755000
 10
13.601977
 20
3.743608
 10
13.592908
 20
3.732305
 10
13.583796
 20
3.721083
 10
13.574641
 20
3.709938
 10
13.565445
 20
3.698862
 10
13.556209
 20
3.687852
 10
13.546935
 20
3.676899
 10
13.537625
 20
3.666000
 10
13.528280
 20
3.655147
 10
13.518900
 20
3.644336
 10
13.509489
 20
3.633560
 10
13.500047
 20
3.622813
 10
13.490575
 20
3.612089
 10
13.481076
 20
3.601383
 10
13.471551
 20
3.590688
 10
13.462000
 20
3.580000
 10
13.452437
 20
3.569137
 10
13.442869
 20
3.558301
 10
13.433293
 20
3.547494
 10
13.423703
 20
3.536719
 10
13.414096
 20
3.525979
 10
13.404467
 20
3.515277
 10
13.394811
 20
3.504617
 10
13.385125
 20
3.494000
 10
13.375404
 20
3.483430
 10
13.365643
 20
3.472910
 10
13.355838
 20
3.462443
 10
13.345984
 20
3.452031
 10
13.336078
 20
3.441678
 10
13.326115
 20
3.431387
 10
13.316091
 20
3.421160
 10
13.306000
 20
3.411000
 10
13.295840
 20
3.400745
 10
13.285613
 20
3.390598
 10
13.275322
 20
3.380550
 10
13.264969
 20
3.370594
 10
13.254557
 20
3.360719
 10
13.244090
 20
3.350918
 10
13.233570
 20
3.341181
 10
13.223000
 20
3.331500
 10
13.212383
 20
3.321866
 10
13.201723
 20
3.312270
 10
13.191021
 20
3.302703
 10
13.180281
 20
3.293156
 10
13.169506
 20
3.283622
 10
13.158699
 20
3.274090
 10
13.147863
 20
3.264552
 10
13.137000
 20
3.255000
 10
13.126290
 20
3.245460
 10
13.115535
 20
3.235965
 10
13.104740
 20
3.226510
 10
13.093906
 20
3.217094
 10
13.083038
 20
3.207712
 10
13.072137
 20
3.198363
 10
13.061207
 20
3.189043
 10
13.050250
 20
3.179750
 10
13.039270
 20
3.170480
 10
13.028270
 20
3.161230
 10
13.017251
 20
3.151999
 10
13.006219
 20
3.142781
 10
12.995174
 20
3.133576
 10
12.984121
 20
3.124379
 10
12.973062
 20
3.115188
 10
12.962000
 20
3.106000
 10
12.950738
 20
3.097000
 10
12.939453
 20
3.088004
 10
12.928145
 20
3.079013
 10
12.916812
 20
3.070031
 10
12.905457
 20
3.061061
 10
12.894078
 20
3.052105
 10
12.882676
 20
3.043167
 10
12.871250
 20
3.034250
 10
12.859801
 20
3.025356
 10
12.848328
 20
3.016488
 10
12.836832
 20
3.007650
 10
12.825312
 20
2.998844
 10
12.813770
 20
2.990073
 10
12.802203
 20
2.981340
 10
12.790613
 20
2.972648
 10
12.779000
 20
2.964000
 10
12.767352
 20
2.955398
 10
12.755662
 20
2.946838
 10
12.743934
 20
2.938316
 10
12.732172
 20
2.929828
 10
12.720381
 20
2.921369
 10
12.708564
 20
2.912936
 10
12.696728
 20
2.904522
 10
12.684875
 20
2.896125
 10
12.673010
 20
2.887740
 10
12.661139
 20
2.879361
 10
12.649264
 20
2.870986
 10
12.637391
 20
2.862609
 10
12.625523
 20
2.854227
 10
12.613666
 20
2.845834
 10
12.601823
 20
2.837427
 10
12.590000
 20
2.829000
 10
12.578176
 20
2.820562
 10
12.566332
 20
2.812125
 10
12.554470
 20
2.803688
 10
12.542594
 20
2.795250
 10
12.530706
 20
2.786813
 10
12.518809
 20
2.778375
 10
12.506906
 20
2.769938
 10
12.495000
 20
2.761500
 10
12.483094
 20
2.753063
 10
12.471191
 20
2.744625
 10
12.459294
 20
2.736187
 10
12.447406
 20
2.727750
 10
12.435530
 20
2.719313
 10
12.423668
 20
2.710875
 10
12.411824
 20
2.702438
 10
12.400000
 20
2.694000
 10
12.388188
 20
2.685562
 10
12.376375
 20
2.677125
 10
12.364562
 20
2.668687
 10
12.352750
 20
2.660250
 10
12.340937
 20
2.651812
 10
12.329125
 20
2.643375
 10
12.317312
 20
2.634938
 10
12.305500
 20
2.626500
 10
12.293688
 20
2.618063
 10
12.281875
 20
2.609625
 10
12.270062
 20
2.601187
 10
12.258250
 20
2.592750
 10
12.246437
 20
2.584312
 10
12.234625
 20
2.575875
 10
12.222812
 20
2.567438
 10
12.211000
 20
2.559000
 10
12.199198
 20
2.550540
 10
12.187416
 20
2.542041
 10
12.175648
 20
2.533510
 10
12.163891
 20
2.524953
 10
12.152139
 20
2.516379
 10
12.140389
 20
2.507795
 10
12.128635
 20
2.499208
 10
12.116875
 20
2.490625
 10
12.105103
 20
2.482054
 10
12.093314
 20
2.473502
 10
12.081506
 20
2.464976
 10
12.069672
 20
2.456484
 10
12.057809
 20
2.448033
 10
12.045912
 20
2.439631
 10
12.033977
 20
2.431284
 10
12.022000
 20
2.423000
 10
12.009999
 20
2.414740
 10
11.997992
 20
2.406467
 10
11.985974
 20
2.398191
 10
11.973938
 20
2.389922
 10
11.961878
 20
2.381671
 10
11.949789
 20
2.373447
 10
11.937665
 20
2.365262
 10
11.925500
 20
2.357125
 10
11.913288
 20
2.349047
 10
11.901023
 20
2.341037
 10
11.888700
 20
2.333107
 10
11.876313
 20
2.325266
 10
11.863854
 20
2.317524
 10
11.851320
 20
2.309893
 10
11.838704
 20
2.302381
 10
11.826000
 20
2.295000
 10
11.813016
 20
2.287734
 10
11.799941
 20
2.280557
 10
11.786779
 20
2.273465
 10
11.773531
 20
2.266453
 10
11.760202
 20
2.259518
 10
11.746793
 20
2.252654
 10
11.733308
 20
2.245858
 10
11.719750
 20
2.239125
 10
11.706122
 20
2.232450
 10
11.692426
 20
2.225830
 10
11.678666
 20
2.219260
 10
11.664844
 20
2.212734
 10
11.650963
 20
2.206250
 10
11.637027
 20
2.199803
 10
11.623039
 20
2.193387
 10
11.609000
 20
2.187000
 10
11.595090
 20
2.180649
 10
11.581111
 20
2.174346
 10
11.567065
 20
2.168093
 10
11.552953
 20
2.161891
 10
11.538777
 20
2.155741
 10
11.524537
 20
2.149646
 10
11.510236
 20
2.143607
 10
11.495875
 20
2.137625
 10
11.481455
 20
2.131701
 10
11.466979
 20
2.125838
 10
11.452446
 20
2.120036
 10
11.437859
 20
2.114297
 10
11.423220
 20
2.108622
 10
11.408529
 20
2.103014
 10
11.393789
 20
2.097472
 10
11.379000
 20
2.092000
 10
11.364329
 20
2.086586
 10
11.349568
 20
2.081219
 10
11.334723
 20
2.075898
 10
11.319797
 20
2.070625
 10
11.304795
 20
2.065398
 10
11.289721
 20
2.060219
 10
11.274579
 20
2.055086
 10
11.259375
 20
2.050000
 10
11.244112
 20
2.044961
 10
11.228795
 20
2.039969
 10
11.213428
 20
2.035023
 10
11.198016
 20
2.030125
 10
11.182562
 20
2.025273
 10
11.167072
 20
2.020469
 10
11.151550
 20
2.015711
 10
11.136000
 20
2.011000
 10
11.120227
 20
2.006314
 10
11.104080
 20
2.001639
 10
11.087632
 20
1.996984
 10
11.070953
 20
1.992359
 10
11.054116
 20
1.987776
 10
11.037193
 20
1.983244
 10
11.020256
 20
1.978774
 10
11.003375
 20
1.974375
 10
10.986623
 20
1.970058
 10
10.970072
 20
1.965834
 10
10.953794
 20
1.961712
 10
10.937859
 20
1.957703
 10
10.922341
 20
1.953817
 10
10.907311
 20
1.950064
 10
10.892840
 20
1.946455
 10
10.879000
 20
1.943000
 10
10.865828
 20
1.939661
 10
10.853268
 20
1.936400
 10
10.841249
 20
1.933224
 10
10.829703
 20
1.930141
 10
10.818562
 20
1.927156
 10
10.807756
 20
1.924279
 10
10.797217
 20
1.921516
 10
10.786875
 20
1.918875
 10
10.776662
 20
1.916363
 10
10.766510
 20
1.913986
 10
10.756348
 20
1.911754
 10
10.746109
 20
1.909672
 10
10.735724
 20
1.907748
 10
10.725123
 20
1.905990
 10
10.714238
 20
1.904405
 10
10.703000
 20
1.903000
 10
10.691682
 20
1.901792
 10
10.680236
 20
1.900785
 10
10.668677
 20
1.899972
 10
10.657016
 20
1.899344
 10
10.645267
 20
1.898891
 10
10.633443
 20
1.898605
 10
10.621558
 20
1.898478
 10
10.609625
 20
1.898500
 10
10.597656
 20
1.898663
 10
10.585666
 20
1.898957
 10
10.573667
 20
1.899375
 10
10.561672
 20
1.899906
 10
10.549695
 20
1.900543
 10
10.537748
 20
1.901277
 10
10.525845
 20
1.902099
 10
10.514000
 20
1.903000
  0
LWPOLYLINE
  8
ENGRAVE
 90
1057
 70
1
 10
13.442000
 20
8.278000
 10
13.429217
 20
8.277872
 10
13.416707
 20
8.277863
 10
13.404414
 20
8.277978
 10
13.392281
 20
8.278219
 10
13.380254
 20
8.278588
 10
13.368277
 20
8.279090
 10
13.356294
 20
8.279726
 10
13.344250
 20
8.280500
 10
13.332088
 20
8.281415
 10
13.319754
 20
8.282473
 10
13.307191
 20
8.283677
 10
13.294344
 20
8.285031
 10
13.281157
 20
8.286538
 10
13.267574
 20
8.288199
 10
13.253541
 20
8.290019
 10
13.239000
 20
8.292000
 10
13.223894
 20
8.294188
 10
13.208242
 20
8.296617
 10
13.192110
 20
8.299269
 10
13.175562
 20
8.302125
 10
13.158663
 20
8.305169
 10
13.141477
 20
8.308383
 10
13.124067
 20
8.311749
 10
13.106500
 20
8.315250
 10
13.088839
 20
8.318868
 10
13.071148
 20
8.322586
 10
13.053493
 20
8.326386
 10
13.035937
 20
8.330250
 10
13.018546
 20
8.334161
 10
13.001383
 20
8.338102
 10
12.984513
 20
8.342054
 10
12.968000
 20
8.346000
 10
12.951899
 20
8.349984
 10
12.935848
 20
8.354061
 10
12.919849
 20
8.358228
 10
12.903906
 20
8.362484
 10
12.888022
 20
8.366829
 10
12.872199
 20
8.371260
 10
12.856441
 20
8.375776
 10
12.840750
 20
8.380375
 10
12.825129
 20
8.385056
 10
12.809582
 20
8.389818
 10
12.794111
 20
8.394659
 10
12.778719
 20
8.399578
 10
12.763409
 20
8.404573
 10
12.748184
 20
8.409643
 10
12.733046
 20
8.414785
 10
12.718000
 20
8.420000
 10
12.703057
 20
8.425472
 10
12.688225
 20
8.431014
 10
12.673494
 20
8.436622
 10
12.658859
 20
8.442297
 10
12.644312
 20
8.448036
 10
12.629846
 20
8.453838
 10
12.615452
 20
8.459701
 10
12.601125
 20
8.465625
 10
12.586856
 20
8.471607
 10
12.572639
 20
8.477646
 10
12.558465
 20
8.483741
 10
12.544328
 20
8.489891
 10
12.530220
 20
8.496093
 10
12.516135
 20
8.502346
 10
12.502064
 20
8.508649
 10
12.488000
 20
8.515000
 10
12.474148
 20
8.521398
 10
12.460344
 20
8.527844
 10
12.446586
 20
8.534336
 10
12.432875
 20
8.540875
 10
12.419211
 20
8.547461
 10
12.405594
 20
8.554094
 10
12.392023
 20
8.560773
 10
12.378500
 20
8.567500
 10
12.365023
 20
8.574273
 10
12.351594
 20
8.581094
 10
12.338211
 20
8.587961
 10
12.324875
 20
8.594875
 10
12.311586
 20
8.601836
 10
12.298344
 20
8.608844
 10
12.285148
 20
8.615898
 10
12.272000
 20
8.623000
 10
12.258932
 20
8.630347
 10
12.245969
 20
8.637758
 10
12.233100
 20
8.645228
 10
12.220312
 20
8.652750
 10
12.207596
 20
8.660319
 10
12.194937
 20
8.667930
 10
12.182326
 20
8.675575
 10
12.169750
 20
8.683250
 10
12.157197
 20
8.690948
 10
12.144656
 20
8.698664
 10
12.132115
 20
8.706392
 10
12.119563
 20
8.714125
 10
12.106986
 20
8.721858
 10
12.094375
 20
8.729586
 10
12.081717
 20
8.737302
 10
12.069000
 20
8.745000
 10
12.056283
 20
8.752698
 10
12.043625
 20
8.760414
 10
12.031014
 20
8.768142
 10
12.018437
 20
8.775875
 10
12.005885
 20
8.783608
 10
11.993344
 20
8.791336
 10
11.980803
 20
8.799052
 10
11.968250
 20
8.806750
 10
11.955674
 20
8.814425
 10
11.943062
 20
8.822070
 10
11.930404
 20
8.829681
 10
11.917687
 20
8.837250
 10
11.904900
 20
8.844772
 10
11.892031
 20
8.852242
 10
11.879068
 20
8.859653
 10
11.866000
 20
8.867000
 10
11.852852
 20
8.874102
 10
11.839656
 20
8.881156
 10
11.826414
 20
8.888164
 10
11.813125
 20
8.895125
 10
11.799789
 20
8.902039
 10
11.786406
 20
8.908906
 10
11.772977
 20
8.915727
 10
11.759500
 20
8.922500
 10
11.745977
 20
8.929227
 10
11.732406
 20
8.935906
 10
11.718789
 20
8.942539
 10
11.705125
 20
8.949125
 10
11.691414
 20
8.955664
 10
11.677656
 20
8.962156
 10
11.663852
 20
8.968602
 10
11.650000
 20
8.975000
 10
11.636090
 20
8.981340
 10
11.622111
 20
8.987611
 10
11.608065
 20
8.993815
 10
11.593953
 20
8.999953
 10
11.579777
 20
9.006027
 10
11.565537
 20
9.012037
 10
11.551236
 20
9.017986
 10
11.536875
 20
9.023875
 10
11.522455
 20
9.029705
 10
11.507979
 20
9.035479
 10
11.493446
 20
9.041196
 10
11.478859
 20
9.046859
 10
11.464220
 20
9.052470
 10
11.449529
 20
9.058029
 10
11.434789
 20
9.063539
 10
11.420000
 20
9.069000
 10
11.405131
 20
9.074546
 10
11.390158
 20
9.079947
 10
11.375094
 20
9.085222
 10
11.359953
 20
9.090391
 10
11.344747
 20
9.095471
 10
11.329490
 20
9.100482
 10
11.314195
 20
9.105444
 10
11.298875
 20
9.110375
 10
11.283543
 20
9.115294
 10
11.268213
 20
9.120221
 10
11.252897
 20
9.125174
 10
11.237609
 20
9.130172
 10
11.222363
 20
9.135235
 10
11.207170
 20
9.140381
 10
11.192045
 20
9.145630
 10
11.177000
 20
9.151000
 10
11.162001
 20
9.156251
 10
11.147006
 20
9.161508
 10
11.132020
 20
9.166776
 10
11.117047
 20
9.172062
 10
11.102092
 20
9.177372
 10
11.087158
 20
9.182711
 10
11.072251
 20
9.188085
 10
11.057375
 20
9.193500
 10
11.042534
 20
9.198962
 10
11.027732
 20
9.204477
 10
11.012975
 20
9.210050
 10
10.998266
 20
9.215687
 10
10.983609
 20
9.221396
 10
10.969010
 20
9.227180
 10
10.954472
 20
9.233046
 10
10.940000
 20
9.239000
 10
10.925586
 20
9.244836
 10
10.911223
 20
9.250723
 10
10.896912
 20
9.256662
 10
10.882656
 20
9.262656
 10
10.868459
 20
9.268709
 10
10.854324
 20
9.274824
 10
10.840253
 20
9.281003
 10
10.826250
 20
9.287250
 10
10.812317
 20
9.293567
 10
10.798457
 20
9.299957
 10
10.784673
 20
9.306423
 10
10.770969
 20
9.312969
 10
10.757346
 20
9.319596
 10
10.743809
 20
9.326309
 10
10.730359
 20
9.333109
 10
10.717000
 20
9.340000
 10
10.703723
 20
9.346984
 10
10.690518
 20
9.354061
 10
10.677385
 20
9.361228
 10
10.664328
 20
9.368484
 10
10.651347
 20
9.375829
 10
10.638443
 20
9.383260
 10
10.625619
 20
9.390776
 10
10.612875
 20
9.398375
 10
10.600213
 20
9.406056
 10
10.587635
 20
9.413818
 10
10.575141
 20
9.421659
 10
10.562734
 20
9.429578
 10
10.550415
 20
9.437573
 10
10.538186
 20
9.445643
 10
10.526047
 20
9.453785
 10
10.514000
 20
9.462000
 10
10.502035
 20
9.470285
 10
10.490143
 20
9.478643
 10
10.478323
 20
9.487073
 10
10.466578
 20
9.495578
 10
10.454909
 20
9.504159
 10
10.443318
 20
9.512818
 10
10.431806
 20
9.521556
 10
10.420375
 20
9.530375
 10
10.409026
 20
9.539276
 10
10.397760
 20
9.548260
 10
10.386579
 20
9.557329
 10
10.375484
 20
9.566484
 10
10.364478
 20
9.575728
 10
10.353561
 20
9.585061
 10
10.342734
 20
9.594484
 10
10.332000
 20
9.604000
 10
10.321172
 20
9.613422
 10
10.310436
 20
9.622937
 10
10.299790
 20
9.632547
 10
10.289234
 20
9.642250
 10
10.278766
 20
9.652047
 10
10.268385
 20
9.661938
 10
10.258088
 20
9.671922
 10
10.247875
 20
9.682000
 10
10.237744
 20
9.692172
 10
10.227693
 20
9.702438
 10
10.217722
 20
9.712797
 10
10.207828
 20
9.723250
 10
10.198010
 20
9.733797
 10
10.188268
 20
9.744438
 10
10.178598
 20
9.755172
 10
10.169000
 20
9.766000
 10
10.159638
 20
9.776723
 10
10.150307
 20
9.787520
 10
10.141013
 20
9.798392
 10
10.131766
 20
9.809344
 10
10.122571
 20
9.820377
 10
10.113436
 20
9.831496
 10
10.104368
 20
9.842703
 10
10.095375
 20
9.854000
 10
10.086464
 20
9.865391
 10
10.077643
 20
9.876879
 10
10.068918
 20
9.888466
 10
10.060297
 20
9.900156
 10
10.051787
 20
9.911952
 10
10.043396
 20
9.923855
 10
10.035132
 20
9.935871
 10
10.027000
 20
9.948000
 10
10.018985
 20
9.960411
 10
10.011066
 20
9.972896
 10
10.003248
 20
9.985461
 10
9.995531
 20
9.998109
 10
9.987920
 20
10.010845
 10
9.980418
 20
10.023674
 10
9.973027
 20
10.036599
 10
9.965750
 20
10.049625
 10
9.958590
 20
10.062757
 10
9.951551
 20
10.075998
 10
9.944634
 20
10.089354
 10
9.937844
 20
10.102828
 10
9.931182
 20
10.116426
 10
9.924652
 20
10.130150
 10
9.918257
 20
10.144007
 10
9.912000
 20
10.158000
 10
9.906037
 20
10.172133
 10
9.900152
 20
10.186406
 10
9.894356
 20
10.200820
 10
9.888656
 20
10.215375
 10
9.883062
 20
10.230070
 10
9.877582
 20
10.244906
 10
9.872225
 20
10.259883
 10
9.867000
 20
10.275000
 10
9.861916
 20
10.290258
 10
9.856980
 20
10.305656
 10
9.852204
 20
10.321195
 10
9.847594
 20
10.336875
 10
9.843160
 20
10.352695
 10
9.838910
 20
10.368656
 10
9.834854
 20
10.384758
 10
9.831000
 20
10.401000
 10
9.827299
 20
10.417659
 10
9.823703
 20
10.434613
 10
9.820225
 20
10.451832
 10
9.816875
 20
10.469281
 10
9.813666
 20
10.486930
 10
9.810609
 20
10.504746
 10
9.807717
 20
10.522697
 10
9.805000
 20
10.540750
 10
9.802471
 20
10.558874
 10
9.800141
 20
10.577035
 10
9.798021
 20
10.595203
 10
9.796125
 20
10.613344
 10
9.794463
 20
10.631426
 10
9.793047
 20
10.649418
 10
9.791889
 20
10.667287
 10
9.791000
 20
10.685000
 10
9.790201
 20
10.702834
 10
9.789672
 20
10.720705
 10
9.789400
 20
10.738602
 10
9.789375
 20
10.756516
 10
9.789584
 20
10.774435
 10
9.790016
 20
10.792350
 10
9.790658
 20
10.810250
 10
9.791500
 20
10.828125
 10
9.792529
 20
10.845965
 10
9.793734
 20
10.863760
 10
9.795104
 20
10.881499
 10
9.796625
 20
10.899172
 10
9.798287
 20
10.916769
 10
9.800078
 20
10.934279
 10
9.801986
 20
10.951693
 10
9.804000
 20
10.969000
 10
9.806145
 20
10.986447
 10
9.808453
 20
11.003900
 10
9.810926
 20
11.021345
 10
9.813562
 20
11.038766
 10
9.816363
 20
11.056145
 10
9.819328
 20
11.073467
 10
9.822457
 20
11.090716
 10
9.825750
 20
11.107875
 10
9.829207
 20
11.124929
 10
9.832828
 20
11.141861
 10
9.836613
 20
11.158656
 10
9.840563
 20
11.175297
 10
9.844676
 20
11.191768
 10
9.848953
 20
11.208053
 10
9.853395
 20
11.224135
 10
9.858000
 20
11.240000
 10
9.862802
 20
11.255448
 10
9.867824
 20
11.270678
 10
9.873051
 20
11.285705
 10
9.878469
 20
11.300547
 10
9.884062
 20
11.315219
 10
9.889816
 20
11.329736
 10
9.895717
 20
11.344116
 10
9.901750
 20
11.358375
 10
9.907900
 20
11.372528
 10
9.914152
 20
11.386592
 10
9.920493
 20
11.400582
 10
9.926906
 20
11.414516
 10
9.933378
 20
11.428408
 10
9.939895
 20
11.442275
 10
9.946440
 20
11.456134
 10
9.953000
 20
11.470000
 10
9.959598
 20
11.483652
 10
9.966268
 20
11.497232
 10
9.973010
 20
11.510740
 10
9.979828
 20
11.524172
 10
9.986722
 20
11.537528
 10
9.993693
 20
11.550807
 10
10.000744
 20
11.564006
 10
10.007875
 20
11.577125
 10
10.015088
 20
11.590162
 10
10.022385
 20
11.603115
 10
10.029766
 20
11.615984
 10
10.037234
 20
11.628766
 10
10.044790
 20
11.641460
 10
10.052436
 20
11.654064
 10
10.060172
 20
11.666578
 10
10.068000
 20
11.679000
 10
10.075932
 20
11.691494
 10
10.083973
 20
11.703857
 10
10.092113
 20
11.716101
 10
10.100344
 20
11.728234
 10
10.108657
 20
11.740268
 10
10.117043
 20
11.752213
 10
10.125494
 20
11.764078
 10
10.134000
 20
11.775875
 10
10.142553
 20
11.787613
 10
10.151145
 20
11.799303
 10
10.159765
 20
11.810954
 10
10.168406
 20
11.822578
 10
10.177059
 20
11.834184
 10
10.185715
 20
11.845783
 10
10.194365
 20
11.857385
 10
10.203000
 20
11.869000
 10
10.211681
 20
11.880569
 10
10.220463
 20
11.892037
 10
10.229330
 20
11.903420
 10
10.238266
 20
11.914734
 10
10.247254
 20
11.925996
 10
10.256279
 20
11.937221
 10
10.265325
 20
11.948425
 10
10.274375
 20
11.959625
 10
10.283413
 20
11.970837
 10
10.292424
 20
11.982076
 10
10.301390
 20
11.993360
 10
10.310297
 20
12.004703
 10
10.319127
 20
12.016123
 10
10.327865
 20
12.027635
 10
10.336495
 20
12.039255
 10
10.345000
 20
12.051000
 10
10.353414
 20
12.062847
 10
10.361779
 20
12.074762
 10
10.370095
 20
12.086741
 10
10.378359
 20
12.098781
 10
10.386571
 20
12.110880
 10
10.394729
 20
12.123035
 10
10.402830
 20
12.135243
 10
10.410875
 20
12.147500
 10
10.418861
 20
12.159804
 10
10.426787
 20
12.172152
 10
10.434652
 20
12.184542
 10
10.442453
 20
12.196969
 10
10.450190
 20
12.209431
 10
10.457861
 20
12.221926
 10
10.465465
 20
12.234450
 10
10.473000
 20
12.247000
 10
10.480653
 20
12.259773
 10
10.488236
 20
12.272594
 10
10.495753
 20
12.285461
 10
10.503203
 20
12.298375
 10
10.510589
 20
12.311336
 10
10.517912
 20
12.324344
 10
10.525174
 20
12.337398
 10
10.532375
 20
12.350500
 10
10.539518
 20
12.363648
 10
10.546604
 20
12.376844
 10
10.553634
 20
12.390086
 10
10.560609
 20
12.403375
 10
10.567532
 20
12.416711
 10
10.574404
 20
12.430094
 10
10.581226
 20
12.443523
 10
10.588000
 20
12.457000
 10
10.594683
 20
12.470579
 10
10.601242
 20
12.484301
 10
10.607696
 20
12.498146
 10
10.614062
 20
12.512094
 10
10.620358
 20
12.526124
 10
10.626602
 20
12.540215
 10
10.632810
 20
12.554347
 10
10.639000
 20
12.568500
 10
10.645190
 20
12.582653
 10
10.651398
 20
12.596785
 10
10.657642
 20
12.610876
 10
10.663937
 20
12.624906
 10
10.670304
 20
12.638854
 10
10.676758
 20
12.652699
 10
10.683317
 20
12.666421
 10
10.690000
 20
12.680000
 10
10.696774
 20
12.693476
 10
10.703596
 20
12.706904
 10
10.710468
 20
12.720282
 10
10.717391
 20
12.733609
 10
10.724366
 20
12.746884
 10
10.731396
 20
12.760104
 10
10.738482
 20
12.773268
 10
10.745625
 20
12.786375
 10
10.752826
 20
12.799424
 10
10.760088
 20
12.812412
 10
10.767411
 20
12.825339
 10
10.774797
 20
12.838203
 10
10.782247
 20
12.851003
 10
10.789764
 20
12.863736
 10
10.797347
 20
12.876403
 10
10.805000
 20
12.889000
 10
10.812513
 20
12.901748
 10
10.820057
 20
12.914486
 10
10.827638
 20
12.927204
 10
10.835266
 20
12.939891
 10
10.842946
 20
12.952536
 10
10.850686
 20
12.965131
 10
10.858493
 20
12.977664
 10
10.866375
 20
12.990125
 10
10.874339
 20
13.002504
 10
10.882393
 20
13.014791
 10
10.890543
 20
13.026975
 10
10.898797
 20
13.039047
 10
10.907162
 20
13.050995
 10
10.915646
 20
13.062811
 10
10.924257
 20
13.074482
 10
10.933000
 20
13.086000
 10
10.942058
 20
13.097203
 10
10.951229
 20
13.108314
 10
10.960508
 20
13.119335
 10
10.969891
 20
13.130266
 10
10.979373
 20
13.141109
 10
10.988951
 20
13.151865
 10
10.998620
 20
13.162537
 10
11.008375
 20
13.173125
 10
11.018212
 20
13.183631
 10
11.028127
 20
13.194057
 10
11.038115
 20
13.204403
 10
11.048172
 20
13.214672
 10
11.058293
 20
13.224865
 10
11.068475
 20
13.234982
 10
11.078712
 20
13.245027
 10
11.089000
 20
13.255000
 10
11.099326
 20
13.264913
 10
11.109687
 20
13.274771
 10
11.120096
 20
13.284569
 10
11.130562
 20
13.294297
 10
11.141100
 20
13.303949
 10
11.151719
 20
13.313518
 10
11.162432
 20
13.322995
 10
11.173250
 20
13.332375
 10
11.184186
 20
13.341649
 10
11.195250
 20
13.350811
 10
11.206455
 20
13.359852
 10
11.217813
 20
13.368766
 10
11.229334
 20
13.377545
 10
11.241031
 20
13.386182
 10
11.252916
 20
13.394669
 10
11.265000
 20
13.403000
 10
11.277070
 20
13.411191
 10
11.289279
 20
13.419262
 10
11.301626
 20
13.427209
 10
11.314109
 20
13.435031
 10
11.326727
 20
13.442724
 10
11.339479
 20
13.450285
 10
11.352362
 20
13.457711
 10
11.365375
 20
13.465000
 10
11.378517
 20
13.472148
 10
11.391787
 20
13.479152
 10
11.405183
 20
13.486010
 10
11.418703
 20
13.492719
 10
11.432346
 20
13.499275
 10
11.446111
 20
13.505676
 10
11.459996
 20
13.511918
 10
11.474000
 20
13.518000
 10
11.488320
 20
13.524150
 10
11.502777
 20
13.530217
 10
11.517370
 20
13.536187
 10
11.532094
 20
13.542047
 10
11.546947
 20
13.547784
 10
11.561926
 20
13.553385
 10
11.577028
 20
13.558836
 10
11.592250
 20
13.564125
 10
11.607589
 20
13.569238
 10
11.623043
 20
13.574162
 10
11.638608
 20
13.578884
 10
11.654281
 20
13.583391
 10
11.670060
 20
13.587669
 10
11.685941
 20
13.591705
 10
11.701922
 20
13.595487
 10
11.718000
 20
13.599000
 10
11.734040
 20
13.602259
 10
11.750273
 20
13.605287
 10
11.766683
 20
13.608090
 10
11.783250
 20
13.610672
 10
11.799958
 20
13.613037
 10
11.816789
 20
13.615189
 10
11.833726
 20
13.617134
 10
11.850750
 20
13.618875
 10
11.867845
 20
13.620417
 10
11.884992
 20
13.621764
 10
11.902175
 20
13.622920
 10
11.919375
 20
13.623891
 10
11.936575
 20
13.624679
 10
11.953758
 20
13.625291
 10
11.970905
 20
13.625730
 10
11.988000
 20
13.626000
 10
12.005129
 20
13.626270
 10
12.022379
 20
13.626330
 10
12.039728
 20
13.626182
 10
12.057156
 20
13.625828
 10
12.074643
 20
13.625269
 10
12.092168
 20
13.624506
 10
12.109710
 20
13.623541
 10
12.127250
 20
13.622375
 10
12.144766
 20
13.621010
 10
12.162238
 20
13.619447
 10
12.179646
 20
13.617688
 10
12.196969
 20
13.615734
 10
12.214186
 20
13.613587
 10
12.231277
 20
13.611248
 10
12.248222
 20
13.608719
 10
12.265000
 20
13.606000
 10
12.281652
 20
13.603050
 10
12.298232
 20
13.599840
 10
12.314740
 20
13.596389
 10
12.331172
 20
13.592719
 10
12.347528
 20
13.588849
 10
12.363807
 20
13.584801
 10
12.380006
 20
13.580594
 10
12.396125
 20
13.576250
 10
12.412162
 20
13.571789
 10
12.428115
 20
13.567230
 10
12.443984
 20
13.562596
 10
12.459766
 20
13.557906
 10
12.475460
 20
13.553181
 10
12.491064
 20
13.548441
 10
12.506578
 20
13.543708
 10
12.522000
 20
13.539000
 10
12.537351
 20
13.534090
 10
12.552650
 20
13.529107
 10
12.567894
 20
13.524052
 10
12.583078
 20
13.518922
 10
12.598198
 20
13.513716
 10
12.613248
 20
13.508432
 10
12.628225
 20
13.503069
 10
12.643125
 20
13.497625
 10
12.657943
 20
13.492099
 10
12.672674
 20
13.486490
 10
12.687314
 20
13.480796
 10
12.701859
 20
13.475016
 10
12.716305
 20
13.469147
 10
12.730646
 20
13.463189
 10
12.744880
 20
13.457141
 10
12.759000
 20
13.451000
 10
12.772806
 20
13.444545
 10
12.786479
 20
13.437938
 10
12.800025
 20
13.431189
 10
12.813453
 20
13.424312
 10
12.826770
 20
13.417318
 10
12.839982
 20
13.410219
 10
12.853098
 20
13.403025
 10
12.866125
 20
13.395750
 10
12.879070
 20
13.388404
 10
12.891939
 20
13.381000
 10
12.904742
 20
13.373549
 10
12.917484
 20
13.366062
 10
12.930174
 20
13.358553
 10
12.942818
 20
13.351031
 10
12.955425
 20
13.343510
 10
12.968000
 20
13.336000
 10
12.980715
 20
13.328289
 10
12.993361
 20
13.320531
 10
13.005940
 20
13.312727
 10
13.018453
 20
13.304875
 10
13.030902
 20
13.296977
 10
13.043287
 20
13.289031
 10
13.055611
 20
13.281039
 10
13.067875
 20
13.273000
 10
13.080080
 20
13.264914
 10
13.092229
 20
13.256781
 10
13.104321
 20
13.248602
 10
13.116359
 20
13.240375
 10
13.128345
 20
13.232102
 10
13.140279
 20
13.223781
 10
13.152164
 20
13.215414
 10
13.164000
 20
13.207000
 10
13.175778
 20
13.198528
 10
13.187490
 20
13.189988
 10
13.199141
 20
13.181384
 10
13.210734
 20
13.172719
 10
13.222275
 20
13.163995
 10
13.233768
 20
13.155215
 10
13.245216
 20
13.146382
 10
13.256625
 20
13.137500
 10
13.267999
 20
13.128571
 10
13.279342
 20
13.119598
 10
13.290658
 20
13.110583
 10
13.301953
 20
13.101531
 10
13.313230
 20
13.092444
 10
13.324494
 20
13.083324
 10
13.335749
 20
13.074175
 10
13.347000
 20
13.065000
 10
13.358238
 20
13.055988
 10
13.369451
 20
13.046949
 10
13.380638
 20
13.037881
 10
13.391797
 20
13.028781
 10
13.402927
 20
13.019646
 10
13.414025
 20
13.010473
 10
13.425092
 20
13.001258
 10
13.436125
 20
12.992000
 10
13.447123
 20
12.982695
 10
13.458084
 20
12.973340
 10
13.469007
 20
12.963932
 10
13.479891
 20
12.954469
 10
13.490733
 20
12.944947
 10
13.501533
 20
12.935363
 10
13.512289
 20
12.925715
 10
13.523000
 20
12.916000
 10
13.533477
 20
12.906402
 10
13.543906
 20
12.896734
 10
13.554289
 20
12.886996
 10
13.564625
 20
12.877188
 10
13.574914
 20
12.867309
 10
13.585156
 20
12.857359
 10
13.595352
 20
12.847340
 10
13.605500
 20
12.837250
 10
13.615602
 20
12.827090
 10
13.625656
 20
12.816859
 10
13.635664
 20
12.806559
 10
13.645625
 20
12.796188
 10
13.655539
 20
12.785746
 10
13.665406
 20
12.775234
 10
13.675227
 20
12.764652
 10
13.685000
 20
12.754000
 10
13.694704
 20
12.743454
 10
13.704322
 20
12.732820
 10
13.713861
 20
12.722104
 10
13.723328
 20
12.711313
 10
13.732731
 20
12.700450
 10
13.742076
 20
12.689523
 10
13.751372
 20
12.678538
 10
13.760625
 20
12.667500
 10
13.769843
 20
12.656415
 10
13.779033
 20
12.645289
 10
13.788203
 20
12.634128
 10
13.797359
 20
12.622937
 10
13.806510
 20
12.611724
 10
13.815662
 20
12.600492
 10
13.824823
 20
12.589249
 10
13.834000
 20
12.578000
 10
13.842989
 20
12.566914
 10
13.851955
 20
12.555783
 10
13.860901
 20
12.544608
 10
13.869828
 20
12.533391
 10
13.878738
 20
12.522132
 10
13.887631
 20
12.510834
 10
13.896510
 20
12.499498
 10
13.905375
 20
12.488125
 10
13.914229
 20
12.476717
 10
13.923072
 20
12.465275
 10
13.931907
 20
12.453802
 10
13.940734
 20
12.442297
 10
13.949556
 20
12.430763
 10
13.958373
 20
12.419201
 10
13.967187
 20
12.407613
 10
13.976000
 20
12.396000
 10
13.984613
 20
12.384363
 10
13.993203
 20
12.372703
 10
14.001770
 20
12.361020
 10
14.010312
 20
12.349312
 10
14.018832
 20
12.337582
 10
14.027328
 20
12.325828
 10
14.035801
 20
12.314051
 10
14.044250
 20
12.302250
 10
14.052676
 20
12.290426
 10
14.061078
 20
12.278578
 10
14.069457
 20
12.266707
 10
14.077813
 20
12.254812
 10
14.086145
 20
12.242895
 10
14.094453
 20
12.230953
 10
14.102738
 20
12.218988
 10
14.111000
 20
12.207000
 10
14.119238
 20
12.194812
 10
14.127451
 20
12.182623
 10
14.135638
 20
12.170431
 10
14.143797
 20
12.158234
 10
14.151927
 20
12.146032
 10
14.160025
 20
12.133822
 10
14.168092
 20
12.121604
 10
14.176125
 20
12.109375
 10
14.184123
 20
12.097135
 10
14.192084
 20
12.084881
 10
14.200007
 20
12.072613
 10
14.207891
 20
12.060328
 10
14.215733
 20
12.048026
 10
14.223533
 20
12.035705
 10
14.231289
 20
12.023364
 10
14.239000
 20
12.011000
 10
14.246863
 20
11.998426
 10
14.254701
 20
11.985830
 10
14.262513
 20
11.973214
 10
14.270297
 20
11.960578
 10
14.278052
 20
11.947925
 10
14.285775
 20
11.935256
 10
14.293467
 20
11.922572
 10
14.301125
 20
11.909875
 10
14.308748
 20
11.897166
 10
14.316334
 20
11.884447
 10
14.323882
 20
11.871719
 10
14.331391
 20
11.858984
 10
14.338858
 20
11.846243
 10
14.346283
 20
11.833498
 10
14.353664
 20
11.820750
 10
14.361000
 20
11.808000
 10
14.368477
 20
11.795051
 10
14.375908
 20
11.782078
 10
14.383296
 20
11.769082
 10
14.390641
 20
11.756063
 10
14.397945
 20
11.743020
 10
14.405209
 20
11.729953
 10
14.412435
 20
11.716863
 10
14.419625
 20
11.703750
 10
14.426780
 20
11.690613
 10
14.433900
 20
11.677453
 10
14.440989
 20
11.664270
 10
14.448047
 20
11.651063
 10
14.455075
 20
11.637832
 10
14.462076
 20
11.624578
 10
14.469051
 20
11.611301
 10
14.476000
 20
11.598000
 10
14.482937
 20
11.584687
 10
14.489869
 20
11.571369
 10
14.496793
 20
11.558043
 10
14.503703
 20
11.544703
 10
14.510596
 20
11.531346
 10
14.517467
 20
11.517967
 10
14.524311
 20
11.504561
 10
14.531125
 20
11.491125
 10
14.537904
 20
11.477654
 10
14.544643
 20
11.464143
 10
14.551338
 20
11.450588
 10
14.557984
 20
11.436984
 10
14.564578
 20
11.423328
 10
14.571115
 20
11.409615
 10
14.577591
 20
11.395841
 10
14.584000
 20
11.382000
 10
14.590329
 20
11.367914
 10
14.596572
 20
11.353783
 10
14.602736
 20
11.339608
 10
14.608828
 20
11.325391
 10
14.614856
 20
11.311132
 10
14.620826
 20
11.296834
 10
14.626747
 20
11.282498
 10
14.632625
 20
11.268125
 10
14.638468
 20
11.253717
 10
14.644283
 20
11.239275
 10
14.650078
 20
11.224802
 10
14.655859
 20
11.210297
 10
14.661635
 20
11.195763
 10
14.667412
 20
11.181201
 10
14.673198
 20
11.166613
 10
14.679000
 20
11.152000
 10
14.684635
 20
11.137374
 10
14.690287
 20
11.122744
 10
14.695948
 20
11.108105
 10
14.701609
 20
11.093453
 10
14.707265
 20
11.078783
 10
14.712908
 20
11.064092
 10
14.718531
 20
11.049374
 10
14.724125
 20
11.034625
 10
14.729684
 20
11.019841
 10
14.735201
 20
11.005018
 10
14.740668
 20
10.990150
 10
14.746078
 20
10.975234
 10
14.751424
 20
10.960266
 10
14.756697
 20
10.945240
 10
14.761892
 20
10.930153
 10
14.767000
 20
10.915000
 10
14.772050
 20
10.899800
 10
14.777070
 20
10.884570
 10
14.782056
 20
10.869306
 10
14.787000
 20
10.854000
 10
14.791897
 20
10.838647
 10
14.796742
 20
10.823242
 10
14.801528
 20
10.807778
 10
14.806250
 20
10.792250
 10
14.810901
 20
10.776651
 10
14.815477
 20
10.760977
 10
14.819970
 20
10.745220
 10
14.824375
 20
10.729375
 10
14.828687
 20
10.713437
 10
14.832898
 20
10.697398
 10
14.837005
 20
10.681255
 10
14.841000
 20
10.665000
 10
14.845056
 20
10.648641
 10
14.848980
 20
10.632193
 10
14.852782
 20
10.615660
 10
14.856469
 20
10.599047
 10
14.860050
 20
10.582357
 10
14.863535
 20
10.565596
 10
14.866932
 20
10.548767
 10
14.870250
 20
10.531875
 10
14.873498
 20
10.514925
 10
14.876684
 20
10.497920
 10
14.879817
 20
10.480865
 10
14.882906
 20
10.463766
 10
14.885960
 20
10.446625
 10
14.888988
 20
10.429447
 10
14.891999
 20
10.412238
 10
14.895000
 20
10.395000
 10
14.898009
 20
10.377528
 10
14.901027
 20
10.359992
 10
14.904040
 20
10.342397
 10
14.907031
 20
10.324750
 10
14.909988
 20
10.307056
 10
14.912895
 20
10.289320
 10
14.915737
 20
10.271550
 10
14.918500
 20
10.253750
 10
14.921169
 20
10.235927
 10
14.923730
 20
10.218086
 10
14.926168
 20
10.200233
 10
14.928469
 20
10.182375
 10
14.930617
 20
10.164517
 10
14.932598
 20
10.146664
 10
14.934397
 20
10.128823
 10
14.936000
 20
10.111000
 10
14.937430
 20
10.092933
 10
14.938721
 20
10.074748
 10
14.939874
 20
10.056466
 10
14.940891
 20
10.038109
 10
14.941773
 20
10.019700
 10
14.942521
 20
10.001260
 10
14.943138
 20
9.982811
 10
14.943625
 20
9.964375
 10
14.943983
 20
9.945974
 10
14.944213
 20
9.927631
 10
14.944317
 20
9.909366
 10
14.944297
 20
9.891203
 10
14.944154
 20
9.873163
 10
14.943889
 20
9.855268
 10
14.943504
 20
9.837539
 10
14.943000
 20
9.820000
 10
14.942202
 20
9.802433
 10
14.941305
 20
9.784979
 10
14.940302
 20
9.767633
 10
14.939188
 20
9.750391
 10
14.937956
 20
9.733248
 10
14.936602
 20
9.716201
 10
14.935118
 20
9.699245
 10
14.933500
 20
9.682375
 10
14.931741
 20
9.665587
 10
14.929836
 20
9.648877
 10
14.927778
 20
9.632240
 10
14.925562
 20
9.615672
 10
14.923183
 20
9.599168
 10
14.920633
 20
9.582725
 10
14.917907
 20
9.566337
 10
14.915000
 20
9.550000
 10
14.912083
 20
9.533491
 10
14.908963
 20
9.516973
 10
14.905646
 20
9.500460
 10
14.902141
 20
9.483969
 10
14.898453
 20
9.467512
 10
14.894592
 20
9.451105
 10
14.890563
 20
9.434763
 10
14.886375
 20
9.418500
 10
14.882034
 20
9.402331
 10
14.877549
 20
9.386270
 10
14.872926
 20
9.370332
 10
14.868172
 20
9.354531
 10
14.863295
 20
9.338883
 10
14.858303
 20
9.323402
 10
14.853202
 20
9.308103
 10
14.848000
 20
9.293000
 10
14.842658
 20
9.278081
 10
14.837137
 20
9.263318
 10
14.831446
 20
9.248705
 10
14.825594
 20
9.234234
 10
14.819589
 20
9.219898
 10
14.813441
 20
9.205689
 10
14.807159
 20
9.191601
 10
14.800750
 20
9.177625
 10
14.794224
 20
9.163755
 10
14.787590
 20
9.149982
 10
14.780856
 20
9.136301
 10
14.774031
 20
9.122703
 10
14.767125
 20
9.109181
 10
14.760145
 20
9.095729
 10
14.753100
 20
9.082337
 10
14.746000
 20
9.069000
 10
14.739049
 20
9.055712
 10
14.732064
 20
9.042479
 10
14.725036
 20
9.029306
 10
14.717953
 20
9.016203
 10
14.710806
 20
9.003176
 10
14.703584
 20
8.990232
 10
14.696277
 20
8.977380
 10
14.688875
 20
8.964625
 10
14.681367
 20
8.951976
 10
14.673744
 20
8.939439
 10
14.665995
 20
8.927023
 10
14.658109
 20
8.914734
 10
14.650077
 20
8.902580
 10
14.641889
 20
8.890568
 10
14.633533
 20
8.878706
 10
14.625000
 20
8.867000
 10
14.616272
 20
8.855467
 10
14.607346
 20
8.844111
 10
14.598235
 20
8.832923
 10
14.588953
 20
8.821891
 10
14.579513
 20
8.811005
 10
14.569928
 20
8.800256
 10
14.560211
 20
8.789633
 10
14.550375
 20
8.779125
 10
14.540434
 20
8.768723
 10
14.530400
 20
8.758416
 10
14.520288
 20
8.748194
 10
14.510109
 20
8.738047
 10
14.499878
 20
8.727964
 10
14.489607
 20
8.717936
 10
14.479310
 20
8.707951
 10
14.469000
 20
8.698000
 10
14.458674
 20
8.688076
 10
14.448313
 20
8.678186
 10
14.437904
 20
8.668339
 10
14.427437
 20
8.658547
 10
14.416900
 20
8.648819
 10
14.406281
 20
8.639166
 10
14.395568
 20
8.629598
 10
14.384750
 20
8.620125
 10
14.373814
 20
8.610758
 10
14.362750
 20
8.601506
 10
14.351545
 20
8.592380
 10
14.340187
 20
8.583391
 10
14.328666
 20
8.574548
 10
14.316969
 20
8.565861
 10
14.305084
 20
8.557342
 10
14.293000
 20
8.549000
 10
14.280930
 20
8.540820
 10
14.268721
 20
8.532779
 10
14.256374
 20
8.524876
 10
14.243891
 20
8.517109
 10
14.231273
 20
8.509477
 10
14.218521
 20
8.501979
 10
14.205638
 20
8.494612
 10
14.192625
 20
8.487375
 10
14.179483
 20
8.480267
 10
14.166213
 20
8.473287
 10
14.152817
 20
8.466433
 10
14.139297
 20
8.459703
 10
14.125654
 20
8.453096
 10
14.111889
 20
8.446611
 10
14.098004
 20
8.440246
 10
14.084000
 20
8.434000
 10
14.069537
 20
8.427894
 10
14.054689
 20
8.421947
 10
14.039516
 20
8.416156
 10
14.024078
 20
8.410516
 10
14.008435
 20
8.405022
 10
13.992646
 20
8.399670
 10
13.976773
 20
8.394456
 10
13.960875
 20
8.389375
 10
13.945012
 20
8.384423
 10
13.929244
 20
8.379596
 10
13.913632
 20
8.374888
 10
13.898234
 20
8.370297
 10
13.883113
 20
8.365817
 10
13.868326
 20
8.361443
 10
13.853935
 20
8.357173
 10
13.840000
 20
8.353000
 10
13.826748
 20
8.348735
 10
13.813955
 20
8.344568
 10
13.801563
 20
8.340504
 10
13.789516
 20
8.336547
 10
13.777755
 20
8.332701
 10
13.766225
 20
8.328971
 10
13.754867
 20
8.325361
 10
13.743625
 20
8.321875
 10
13.732442
 20
8.318518
 10
13.721260
 20
8.315295
 10
13.710022
 20
8.312209
 10
13.698672
 20
8.309266
 10
13.687152
 20
8.306469
 10
13.675404
 20
8.303822
 10
13.663373
 20
8.301331
 10
13.651000
 20
8.299000
 10
13.638523
 20
8.296644
 10
13.625859
 20
8.294447
 10
13.613031
 20
8.292406
 10
13.600063
 20
8.290516
 10
13.586977
 20
8.288772
 10
13.573797
 20
8.287170
 10
13.560547
 20
8.285706
 10
13.547250
 20
8.284375
 10
13.533930
 20
8.283173
 10
13.520609
 20
8.282096
 10
13.507312
 20
8.281138
 10
13.494063
 20
8.280297
 10
13.480883
 20
8.279567
 10
13.467797
 20
8.278943
 10
13.454828
 20
8.278423
 10
13.442000
 20
8.278000
  0
LWPOLYLINE
  8
ENGRAVE
 90
1185
 70
1
 10
6.268000
 20
2.065000
 10
6.255953
 20
2.063514
 10
6.243814
 20
2.062062
 10
6.231585
 20
2.060658
 10
6.219266
 20
2.059313
 10
6.206859
 20
2.058037
 10
6.194365
 20
2.056844
 10
6.181787
 20
2.055744
 10
6.169125
 20
2.054750
 10
6.156381
 20
2.053873
 10
6.143557
 20
2.053125
 10
6.130653
 20
2.052518
 10
6.117672
 20
2.052062
 10
6.104615
 20
2.051771
 10
6.091482
 20
2.051656
 10
6.078277
 20
2.051729
 10
6.065000
 20
2.052000
 10
6.051575
 20
2.052280
 10
6.037945
 20
2.052736
 10
6.024140
 20
2.053360
 10
6.010187
 20
2.054141
 10
5.996118
 20
2.055068
 10
5.981961
 20
2.056131
 10
5.967745
 20
2.057320
 10
5.953500
 20
2.058625
 10
5.939255
 20
2.060035
 10
5.925039
 20
2.061541
 10
5.910882
 20
2.063132
 10
5.896812
 20
2.064797
 10
5.882860
 20
2.066527
 10
5.869055
 20
2.068311
 10
5.855425
 20
2.070138
 10
5.842000
 20
2.072000
 10
5.828734
 20
2.073910
 10
5.815559
 20
2.075893
 10
5.802471
 20
2.077948
 10
5.789469
 20
2.080078
 10
5.776548
 20
2.082284
 10
5.763707
 20
2.084568
 10
5.750942
 20
2.086931
 10
5.738250
 20
2.089375
 10
5.725628
 20
2.091901
 10
5.713074
 20
2.094510
 10
5.700584
 20
2.097204
 10
5.688156
 20
2.099984
 10
5.675787
 20
2.102853
 10
5.663473
 20
2.105811
 10
5.651211
 20
2.108859
 10
5.639000
 20
2.112000
 10
5.627079
 20
2.115267
 10
5.615307
 20
2.118682
 10
5.603666
 20
2.122228
 10
5.592141
 20
2.125891
 10
5.580715
 20
2.129653
 10
5.569373
 20
2.133498
 10
5.558098
 20
2.137411
 10
5.546875
 20
2.141375
 10
5.535687
 20
2.145374
 10
5.524518
 20
2.149393
 10
5.513351
 20
2.153414
 10
5.502172
 20
2.157422
 10
5.490963
 20
2.161401
 10
5.479709
 20
2.165334
 10
5.468393
 20
2.169206
 10
5.457000
 20
2.173000
 10
5.445552
 20
2.176915
 10
5.434084
 20
2.180789
 10
5.422602
 20
2.184628
 10
5.411109
 20
2.188438
 10
5.399611
 20
2.192224
 10
5.388111
 20
2.195992
 10
5.376615
 20
2.199749
 10
5.365125
 20
2.203500
 10
5.353647
 20
2.207251
 10
5.342186
 20
2.211008
 10
5.330744
 20
2.214776
 10
5.319328
 20
2.218562
 10
5.307941
 20
2.222372
 10
5.296588
 20
2.226211
 10
5.285273
 20
2.230085
 10
5.274000
 20
2.234000
 10
5.262927
 20
2.238115
 10
5.251836
 20
2.242213
 10
5.240733
 20
2.246302
 10
5.229625
 20
2.250391
 10
5.218517
 20
2.254485
 10
5.207414
 20
2.258592
 10
5.196323
 20
2.262719
 10
5.185250
 20
2.266875
 10
5.174200
 20
2.271066
 10
5.163180
 20
2.275299
 10
5.152194
 20
2.279582
 10
5.141250
 20
2.283922
 10
5.130353
 20
2.288326
 10
5.119508
 20
2.292803
 10
5.108722
 20
2.297358
 10
5.098000
 20
2.302000
 10
5.087523
 20
2.306546
 10
5.077094
 20
2.311182
 10
5.066711
 20
2.315902
 10
5.056375
 20
2.320703
 10
5.046086
 20
2.325580
 10
5.035844
 20
2.330529
 10
5.025648
 20
2.335546
 10
5.015500
 20
2.340625
 10
5.005398
 20
2.345763
 10
4.995344
 20
2.350955
 10
4.985336
 20
2.356197
 10
4.975375
 20
2.361484
 10
4.965461
 20
2.366813
 10
4.955594
 20
2.372178
 10
4.945773
 20
2.377575
 10
4.936000
 20
2.383000
 10
4.926307
 20
2.388494
 10
4.916719
 20
2.394094
 10
4.907225
 20
2.399787
 10
4.897812
 20
2.405562
 10
4.888471
 20
2.411408
 10
4.879187
 20
2.417313
 10
4.869951
 20
2.423264
 10
4.860750
 20
2.429250
 10
4.851572
 20
2.435260
 10
4.842406
 20
2.441281
 10
4.833240
 20
2.447303
 10
4.824063
 20
2.453313
 10
4.814861
 20
2.459299
 10
4.805625
 20
2.465250
 10
4.796342
 20
2.471154
 10
4.787000
 20
2.477000
 10
4.777801
 20
2.483000
 10
4.768582
 20
2.488998
 10
4.759345
 20
2.494993
 10
4.750094
 20
2.500984
 10
4.740831
 20
2.506969
 10
4.731559
 20
2.512947
 10
4.722281
 20
2.518916
 10
4.713000
 20
2.524875
 10
4.703719
 20
2.530822
 10
4.694441
 20
2.536756
 10
4.685169
 20
2.542675
 10
4.675906
 20
2.548578
 10
4.666655
 20
2.554464
 10
4.657418
 20
2.560330
 10
4.648199
 20
2.566176
 10
4.639000
 20
2.572000
 10
4.629614
 20
2.577978
 10
4.620211
 20
2.583916
 10
4.610796
 20
2.589822
 10
4.601375
 20
2.595703
 10
4.591954
 20
2.601567
 10
4.582539
 20
2.607420
 10
4.573136
 20
2.613270
 10
4.563750
 20
2.619125
 10
4.554388
 20
2.624991
 10
4.545055
 20
2.630877
 10
4.535757
 20
2.636789
 10
4.526500
 20
2.642734
 10
4.517290
 20
2.648721
 10
4.508133
 20
2.654756
 10
4.499034
 20
2.660846
 10
4.490000
 20
2.667000
 10
4.481000
 20
2.673023
 10
4.472004
 20
2.679092
 10
4.463013
 20
2.685204
 10
4.454031
 20
2.691359
 10
4.445061
 20
2.697555
 10
4.436105
 20
2.703791
 10
4.427167
 20
2.710065
 10
4.418250
 20
2.716375
 10
4.409356
 20
2.722720
 10
4.400488
 20
2.729100
 10
4.391650
 20
2.735511
 10
4.382844
 20
2.741953
 10
4.374073
 20
2.748425
 10
4.365340
 20
2.754924
 10
4.356648
 20
2.761449
 10
4.348000
 20
2.768000
 10
4.339398
 20
2.774585
 10
4.330838
 20
2.781213
 10
4.322316
 20
2.787879
 10
4.313828
 20
2.794578
 10
4.305369
 20
2.801307
 10
4.296936
 20
2.808061
 10
4.288522
 20
2.814835
 10
4.280125
 20
2.821625
 10
4.271740
 20
2.828427
 10
4.263361
 20
2.835236
 10
4.254986
 20
2.842049
 10
4.246609
 20
2.848859
 10
4.238227
 20
2.855664
 10
4.229834
 20
2.862459
 10
4.221427
 20
2.869239
 10
4.213000
 20
2.876000
 10
4.204563
 20
2.882761
 10
4.196125
 20
2.889543
 10
4.187688
 20
2.896342
 10
4.179250
 20
2.903156
 10
4.170813
 20
2.909982
 10
4.162375
 20
2.916816
 10
4.153938
 20
2.923657
 10
4.145500
 20
2.930500
 10
4.137062
 20
2.937343
 10
4.128625
 20
2.944184
 10
4.120188
 20
2.951018
 10
4.111750
 20
2.957844
 10
4.103313
 20
2.964658
 10
4.094875
 20
2.971457
 10
4.086438
 20
2.978239
 10
4.078000
 20
2.985000
 10
4.069375
 20
2.991739
 10
4.060754
 20
2.998459
 10
4.052138
 20
3.005164
 10
4.043531
 20
3.011859
 10
4.034936
 20
3.018549
 10
4.026355
 20
3.025236
 10
4.017792
 20
3.031927
 10
4.009250
 20
3.038625
 10
4.000731
 20
3.045335
 10
3.992238
 20
3.052061
 10
3.983775
 20
3.058807
 10
3.975344
 20
3.065578
 10
3.966948
 20
3.072379
 10
3.958590
 20
3.079213
 10
3.950273
 20
3.086085
 10
3.942000
 20
3.093000
 10
3.933773
 20
3.099949
 10
3.925590
 20
3.106924
 10
3.917448
 20
3.113925
 10
3.909344
 20
3.120953
 10
3.901275
 20
3.128011
 10
3.893238
 20
3.135100
 10
3.885231
 20
3.142220
 10
3.877250
 20
3.149375
 10
3.869292
 20
3.156565
 10
3.861355
 20
3.163791
 10
3.853436
 20
3.171055
 10
3.845531
 20
3.178359
 10
3.837638
 20
3.185704
 10
3.829754
 20
3.193092
 10
3.821875
 20
3.200523
 10
3.814000
 20
3.208000
 10
3.806159
 20
3.215346
 10
3.798381
 20
3.222756
 10
3.790658
 20
3.230221
 10
3.782984
 20
3.237734
 10
3.775351
 20
3.245289
 10
3.767752
 20
3.252877
 10
3.760179
 20
3.260491
 10
3.752625
 20
3.268125
 10
3.745083
 20
3.275770
 10
3.737545
 20
3.283420
 10
3.730004
 20
3.291067
 10
3.722453
 20
3.298703
 10
3.714885
 20
3.306322
 10
3.707291
 20
3.313916
 10
3.699665
 20
3.321478
 10
3.692000
 20
3.329000
 10
3.684489
 20
3.336687
 10
3.676955
 20
3.344373
 10
3.669401
 20
3.352056
 10
3.661828
 20
3.359734
 10
3.654238
 20
3.367407
 10
3.646631
 20
3.375072
 10
3.639010
 20
3.382729
 10
3.631375
 20
3.390375
 10
3.623729
 20
3.398010
 10
3.616072
 20
3.405631
 10
3.608407
 20
3.413238
 10
3.600734
 20
3.420828
 10
3.593056
 20
3.428401
 10
3.585373
 20
3.435955
 10
3.577687
 20
3.443489
 10
3.570000
 20
3.451000
 10
3.562478
 20
3.458665
 10
3.554916
 20
3.466291
 10
3.547322
 20
3.473885
 10
3.539703
 20
3.481453
 10
3.532067
 20
3.489004
 10
3.524420
 20
3.496545
 10
3.516770
 20
3.504083
 10
3.509125
 20
3.511625
 10
3.501491
 20
3.519179
 10
3.493877
 20
3.526752
 10
3.486289
 20
3.534351
 10
3.478734
 20
3.541984
 10
3.471221
 20
3.549658
 10
3.463756
 20
3.557381
 10
3.456346
 20
3.565159
 10
3.449000
 20
3.573000
 10
3.441523
 20
3.580711
 10
3.434092
 20
3.588467
 10
3.426704
 20
3.596267
 10
3.419359
 20
3.604109
 10
3.412055
 20
3.611993
 10
3.404791
 20
3.619916
 10
3.397565
 20
3.627877
 10
3.390375
 20
3.635875
 10
3.383220
 20
3.643908
 10
3.376100
 20
3.651975
 10
3.369011
 20
3.660073
 10
3.361953
 20
3.668203
 10
3.354925
 20
3.676362
 10
3.347924
 20
3.684549
 10
3.340949
 20
3.692762
 10
3.334000
 20
3.701000
 10
3.327052
 20
3.709251
 10
3.320090
 20
3.717506
 10
3.313122
 20
3.725770
 10
3.306156
 20
3.734047
 10
3.299203
 20
3.742342
 10
3.292270
 20
3.750658
 10
3.285366
 20
3.759001
 10
3.278500
 20
3.767375
 10
3.271681
 20
3.775784
 10
3.264918
 20
3.784232
 10
3.258219
 20
3.792725
 10
3.251594
 20
3.801266
 10
3.245050
 20
3.809859
 10
3.238598
 20
3.818510
 10
3.232245
 20
3.827222
 10
3.226000
 20
3.836000
 10
3.219682
 20
3.845045
 10
3.213469
 20
3.854174
 10
3.207350
 20
3.863376
 10
3.201312
 20
3.872641
 10
3.195346
 20
3.881958
 10
3.189437
 20
3.891318
 10
3.183576
 20
3.900711
 10
3.177750
 20
3.910125
 10
3.171947
 20
3.919551
 10
3.166156
 20
3.928979
 10
3.160365
 20
3.938397
 10
3.154562
 20
3.947797
 10
3.148736
 20
3.957167
 10
3.142875
 20
3.966498
 10
3.136967
 20
3.975779
 10
3.131000
 20
3.985000
 10
3.124989
 20
3.994342
 10
3.118961
 20
4.003625
 10
3.112921
 20
4.012861
 10
3.106875
 20
4.022063
 10
3.100829
 20
4.031240
 10
3.094789
 20
4.040406
 10
3.088761
 20
4.049572
 10
3.082750
 20
4.058750
 10
3.076763
 20
4.067951
 10
3.070805
 20
4.077188
 10
3.064882
 20
4.086471
 10
3.059000
 20
4.095813
 10
3.053165
 20
4.105225
 10
3.047383
 20
4.114719
 10
3.041659
 20
4.124307
 10
3.036000
 20
4.134000
 10
3.030608
 20
4.143795
 10
3.025301
 20
4.153676
 10
3.020070
 20
4.163632
 10
3.014906
 20
4.173656
 10
3.009801
 20
4.183739
 10
3.004746
 20
4.193871
 10
2.999732
 20
4.204044
 10
2.994750
 20
4.214250
 10
2.989792
 20
4.224479
 10
2.984848
 20
4.234723
 10
2.979910
 20
4.244972
 10
2.974969
 20
4.255219
 10
2.970016
 20
4.265454
 10
2.965043
 20
4.275668
 10
2.960041
 20
4.285853
 10
2.955000
 20
4.296000
 10
2.949905
 20
4.306092
 10
2.944752
 20
4.316127
 10
2.939555
 20
4.326118
 10
2.934328
 20
4.336078
 10
2.929083
 20
4.346021
 10
2.923834
 20
4.355959
 10
2.918594
 20
4.365906
 10
2.913375
 20
4.375875
 10
2.908192
 20
4.385879
 10
2.903057
 20
4.395932
 10
2.897983
 20
4.406046
 10
2.892984
 20
4.416234
 10
2.888073
 20
4.426511
 10
2.883264
 20
4.436889
 10
2.878568
 20
4.447381
 10
2.874000
 20
4.458000
 10
2.869569
 20
4.468932
 10
2.865268
 20
4.479973
 10
2.861087
 20
4.491113
 10
2.857016
 20
4.502344
 10
2.853044
 20
4.513657
 10
2.849162
 20
4.525043
 10
2.845359
 20
4.536494
 10
2.841625
 20
4.548000
 10
2.837949
 20
4.559553
 10
2.834322
 20
4.571145
 10
2.830733
 20
4.582765
 10
2.827172
 20
4.594406
 10
2.823628
 20
4.606059
 10
2.820092
 20
4.617715
 10
2.816552
 20
4.629365
 10
2.813000
 20
4.641000
 10
2.809416
 20
4.652604
 10
2.805799
 20
4.664174
 10
2.802161
 20
4.675723
 10
2.798516
 20
4.687266
 10
2.794876
 20
4.698814
 10
2.791256
 20
4.710381
 10
2.787668
 20
4.721980
 10
2.784125
 20
4.733625
 10
2.780641
 20
4.745328
 10
2.777229
 20
4.757104
 10
2.773901
 20
4.768964
 10
2.770672
 20
4.780922
 10
2.767554
 20
4.792991
 10
2.764561
 20
4.805186
 10
2.761705
 20
4.817517
 10
2.759000
 20
4.830000
 10
2.756598
 20
4.842863
 10
2.754271
 20
4.855936
 10
2.752024
 20
4.869193
 10
2.749859
 20
4.882609
 10
2.747783
 20
4.896161
 10
2.745799
 20
4.909822
 10
2.743911
 20
4.923569
 10
2.742125
 20
4.937375
 10
2.740444
 20
4.951217
 10
2.738873
 20
4.965068
 10
2.737416
 20
4.978906
 10
2.736078
 20
4.992703
 10
2.734863
 20
5.006436
 10
2.733775
 20
5.020080
 10
2.732820
 20
5.033610
 10
2.732000
 20
5.047000
 10
2.731496
 20
5.060301
 10
2.731111
 20
5.073576
 10
2.730846
 20
5.086825
 10
2.730703
 20
5.100047
 10
2.730683
 20
5.113239
 10
2.730787
 20
5.126400
 10
2.731017
 20
5.139530
 10
2.731375
 20
5.152625
 10
2.731862
 20
5.165685
 10
2.732479
 20
5.178709
 10
2.733227
 20
5.191695
 10
2.734109
 20
5.204641
 10
2.735126
 20
5.217546
 10
2.736279
 20
5.230408
 10
2.737570
 20
5.243227
 10
2.739000
 20
5.256000
 10
2.740559
 20
5.268969
 10
2.742236
 20
5.281990
 10
2.744034
 20
5.295043
 10
2.745953
 20
5.308109
 10
2.747995
 20
5.321170
 10
2.750162
 20
5.334205
 10
2.752455
 20
5.347197
 10
2.754875
 20
5.360125
 10
2.757424
 20
5.372971
 10
2.760104
 20
5.385717
 10
2.762915
 20
5.398342
 10
2.765859
 20
5.410828
 10
2.768939
 20
5.423156
 10
2.772154
 20
5.435307
 10
2.775508
 20
5.447261
 10
2.779000
 20
5.459000
 10
2.782842
 20
5.470522
 10
2.786857
 20
5.481848
 10
2.791034
 20
5.492992
 10
2.795359
 20
5.503969
 10
2.799819
 20
5.514793
 10
2.804400
 20
5.525480
 10
2.809090
 20
5.536044
 10
2.813875
 20
5.546500
 10
2.818742
 20
5.556862
 10
2.823678
 20
5.567145
 10
2.828669
 20
5.577363
 10
2.833703
 20
5.587531
 10
2.838766
 20
5.597665
 10
2.843846
 20
5.607777
 10
2.848928
 20
5.617884
 10
2.854000
 20
5.628000
 10
2.859064
 20
5.638124
 10
2.864139
 20
5.648238
 10
2.869234
 20
5.658335
 10
2.874359
 20
5.668406
 10
2.879526
 20
5.678442
 10
2.884744
 20
5.688434
 10
2.890024
 20
5.698373
 10
2.895375
 20
5.708250
 10
2.900808
 20
5.718057
 10
2.906334
 20
5.727785
 10
2.911962
 20
5.737425
 10
2.917703
 20
5.746969
 10
2.923567
 20
5.756407
 10
2.929564
 20
5.765730
 10
2.935705
 20
5.774931
 10
2.942000
 20
5.784000
 10
2.948444
 20
5.792743
 10
2.955021
 20
5.801354
 10
2.961725
 20
5.809838
 10
2.968547
 20
5.818203
 10
2.975480
 20
5.826457
 10
2.982518
 20
5.834607
 10
2.989652
 20
5.842661
 10
2.996875
 20
5.850625
 10
3.004180
 20
5.858507
 10
3.011561
 20
5.866314
 10
3.019008
 20
5.874054
 10
3.026516
 20
5.881734
 10
3.034076
 20
5.889362
 10
3.041682
 20
5.896943
 10
3.049325
 20
5.904487
 10
3.057000
 20
5.912000
 10
3.064524
 20
5.919664
 10
3.072098
 20
5.927277
 10
3.079724
 20
5.934838
 10
3.087406
 20
5.942344
 10
3.095147
 20
5.949791
 10
3.102949
 20
5.957176
 10
3.110816
 20
5.964497
 10
3.118750
 20
5.971750
 10
3.126754
 20
5.978933
 10
3.134832
 20
5.986043
 10
3.142986
 20
5.993077
 10
3.151219
 20
6.000031
 10
3.159534
 20
6.006904
 10
3.167934
 20
6.013691
 10
3.176421
 20
6.020391
 10
3.185000
 20
6.027000
 10
3.193683
 20
6.033505
 10
3.202477
 20
6.039900
 10
3.211376
 20
6.046193
 10
3.220375
 20
6.052391
 10
3.229468
 20
6.058500
 10
3.238648
 20
6.064529
 10
3.247911
 20
6.070485
 10
3.257250
 20
6.076375
 10
3.266659
 20
6.082206
 10
3.276133
 20
6.087986
 10
3.285665
 20
6.093722
 10
3.295250
 20
6.099422
 10
3.304882
 20
6.105092
 10
3.314555
 20
6.110740
 10
3.324263
 20
6.116374
 10
3.334000
 20
6.122000
 10
3.343762
 20
6.127425
 10
3.353553
 20
6.132822
 10
3.363375
 20
6.138187
 10
3.373234
 20
6.143516
 10
3.383135
 20
6.148803
 10
3.393080
 20
6.154045
 10
3.403075
 20
6.159237
 10
3.413125
 20
6.164375
 10
3.423233
 20
6.169454
 10
3.433404
 20
6.174471
 10
3.443643
 20
6.179420
 10
3.453953
 20
6.184297
 10
3.464340
 20
6.189098
 10
3.474807
 20
6.193818
 10
3.485359
 20
6.198454
 10
3.496000
 20
6.203000
 10
3.506921
 20
6.207278
 10
3.517932
 20
6.211486
 10
3.529027
 20
6.215628
 10
3.540203
 20
6.219703
 10
3.551455
 20
6.223714
 10
3.562779
 20
6.227662
 10
3.574171
 20
6.231549
 10
3.585625
 20
6.235375
 10
3.597138
 20
6.239143
 10
3.608705
 20
6.242854
 10
3.620322
 20
6.246509
 10
3.631984
 20
6.250109
 10
3.643688
 20
6.253657
 10
3.655428
 20
6.257154
 10
3.667200
 20
6.260601
 10
3.679000
 20
6.264000
 10
3.690825
 20
6.267362
 10
3.702680
 20
6.270695
 10
3.714569
 20
6.273993
 10
3.726500
 20
6.277250
 10
3.738478
 20
6.280460
 10
3.750508
 20
6.283617
 10
3.762597
 20
6.286716
 10
3.774750
 20
6.289750
 10
3.786974
 20
6.292714
 10
3.799273
 20
6.295602
 10
3.811655
 20
6.298407
 10
3.824125
 20
6.301125
 10
3.836688
 20
6.303749
 10
3.849352
 20
6.306273
 10
3.862120
 20
6.308692
 10
3.875000
 20
6.311000
 10
3.887819
 20
6.313204
 10
3.900770
 20
6.315318
 10
3.913843
 20
6.317348
 10
3.927031
 20
6.319297
 10
3.940325
 20
6.321170
 10
3.953715
 20
6.322971
 10
3.967193
 20
6.324704
 10
3.980750
 20
6.326375
 10
3.994377
 20
6.327987
 10
4.008066
 20
6.329545
 10
4.021808
 20
6.331053
 10
4.035594
 20
6.332516
 10
4.049415
 20
6.333937
 10
4.063262
 20
6.335322
 10
4.077126
 20
6.336675
 10
4.091000
 20
6.338000
 10
4.104932
 20
6.339256
 10
4.118971
 20
6.340406
 10
4.133106
 20
6.341463
 10
4.147328
 20
6.342438
 10
4.161626
 20
6.343342
 10
4.175990
 20
6.344188
 10
4.190410
 20
6.344986
 10
4.204875
 20
6.345750
 10
4.219375
 20
6.346490
 10
4.233900
 20
6.347219
 10
4.248440
 20
6.347947
 10
4.262984
 20
6.348688
 10
4.277523
 20
6.349451
 10
4.292045
 20
6.350250
 10
4.306541
 20
6.351096
 10
4.321000
 20
6.352000
 10
4.335426
 20
6.352761
 10
4.349832
 20
6.353543
 10
4.364220
 20
6.354342
 10
4.378594
 20
6.355156
 10
4.392956
 20
6.355982
 10
4.407309
 20
6.356816
 10
4.421656
 20
6.357657
 10
4.436000
 20
6.358500
 10
4.450344
 20
6.359343
 10
4.464691
 20
6.360184
 10
4.479044
 20
6.361018
 10
4.493406
 20
6.361844
 10
4.507780
 20
6.362658
 10
4.522168
 20
6.363457
 10
4.536574
 20
6.364239
 10
4.551000
 20
6.365000
 10
4.565261
 20
6.365926
 10
4.579545
 20
6.366832
 10
4.593849
 20
6.367720
 10
4.608172
 20
6.368594
 10
4.622512
 20
6.369456
 10
4.636869
 20
6.370309
 10
4.651240
 20
6.371156
 10
4.665625
 20
6.372000
 10
4.680021
 20
6.372844
 10
4.694428
 20
6.373691
 10
4.708843
 20
6.374544
 10
4.723266
 20
6.375406
 10
4.737694
 20
6.376280
 10
4.752127
 20
6.377168
 10
4.766563
 20
6.378074
 10
4.781000
 20
6.379000
 10
4.795250
 20
6.379794
 10
4.809504
 20
6.380666
 10
4.823763
 20
6.381599
 10
4.838031
 20
6.382578
 10
4.852311
 20
6.383586
 10
4.866605
 20
6.384607
 10
4.880917
 20
6.385626
 10
4.895250
 20
6.386625
 10
4.909606
 20
6.387589
 10
4.923988
 20
6.388502
 10
4.938400
 20
6.389347
 10
4.952844
 20
6.390109
 10
4.967323
 20
6.390772
 10
4.981840
 20
6.391318
 10
4.996398
 20
6.391733
 10
5.011000
 20
6.392000
 10
5.025516
 20
6.392152
 10
5.040172
 20
6.392232
 10
5.054945
 20
6.392240
 10
5.069813
 20
6.392172
 10
5.084750
 20
6.392028
 10
5.099734
 20
6.391807
 10
5.114742
 20
6.391506
 10
5.129750
 20
6.391125
 10
5.144734
 20
6.390662
 10
5.159672
 20
6.390115
 10
5.174539
 20
6.389484
 10
5.189312
 20
6.388766
 10
5.203969
 20
6.387960
 10
5.218484
 20
6.387064
 10
5.232836
 20
6.386078
 10
5.247000
 20
6.385000
 10
5.261192
 20
6.384005
 10
5.275273
 20
6.382896
 10
5.289249
 20
6.381680
 10
5.303125
 20
6.380359
 10
5.316907
 20
6.378939
 10
5.330602
 20
6.377424
 10
5.344214
 20
6.375818
 10
5.357750
 20
6.374125
 10
5.371216
 20
6.372350
 10
5.384617
 20
6.370498
 10
5.397960
 20
6.368573
 10
5.411250
 20
6.366578
 10
5.424493
 20
6.364519
 10
5.437695
 20
6.362400
 10
5.450862
 20
6.360226
 10
5.464000
 20
6.358000
 10
5.476936
 20
6.355925
 10
5.489865
 20
6.353820
 10
5.502780
 20
6.351681
 10
5.515672
 20
6.349500
 10
5.528535
 20
6.347272
 10
5.541361
 20
6.344992
 10
5.554144
 20
6.342653
 10
5.566875
 20
6.340250
 10
5.579548
 20
6.337776
 10
5.592154
 20
6.335227
 10
5.604688
 20
6.332595
 10
5.617141
 20
6.329875
 10
5.629506
 20
6.327062
 10
5.641775
 20
6.324148
 10
5.653943
 20
6.321130
 10
5.666000
 20
6.318000
 10
5.678108
 20
6.314744
 10
5.690064
 20
6.311359
 10
5.701884
 20
6.307857
 10
5.713578
 20
6.304250
 10
5.725161
 20
6.300549
 10
5.736646
 20
6.296766
 10
5.748047
 20
6.292912
 10
5.759375
 20
6.289000
 10
5.770645
 20
6.285041
 10
5.781869
 20
6.281047
 10
5.793061
 20
6.277029
 10
5.804234
 20
6.273000
 10
5.815402
 20
6.268971
 10
5.826576
 20
6.264953
 10
5.837771
 20
6.260959
 10
5.849000
 20
6.257000
 10
5.860271
 20
6.252907
 10
5.871574
 20
6.248869
 10
5.882895
 20
6.244869
 10
5.894219
 20
6.240891
 10
5.905531
 20
6.236918
 10
5.916816
 20
6.232936
 10
5.928061
 20
6.228927
 10
5.939250
 20
6.224875
 10
5.950369
 20
6.220765
 10
5.961402
 20
6.216580
 10
5.972336
 20
6.212304
 10
5.983156
 20
6.207922
 10
5.993847
 20
6.203416
 10
6.004395
 20
6.198771
 10
6.014784
 20
6.193971
 10
6.025000
 20
6.189000
 10
6.035034
 20
6.183846
 10
6.044895
 20
6.178521
 10
6.054597
 20
6.173041
 10
6.064156
 20
6.167422
 10
6.073586
 20
6.161679
 10
6.082902
 20
6.155830
 10
6.092119
 20
6.149890
 10
6.101250
 20
6.143875
 10
6.110311
 20
6.137802
 10
6.119316
 20
6.131686
 10
6.128281
 20
6.125543
 10
6.137219
 20
6.119391
 10
6.146145
 20
6.113244
 10
6.155074
 20
6.107119
 10
6.164021
 20
6.101032
 10
6.173000
 20
6.095000
 10
6.182175
 20
6.088812
 10
6.191324
 20
6.082619
 10
6.200444
 20
6.076418
 10
6.209531
 20
6.070203
 10
6.218583
 20
6.063971
 10
6.227598
 20
6.057717
 10
6.236571
 20
6.051436
 10
6.245500
 20
6.045125
 10
6.254382
 20
6.038779
 10
6.263215
 20
6.032393
 10
6.271995
 20
6.025963
 10
6.280719
 20
6.019484
 10
6.289384
 20
6.012953
 10
6.297988
 20
6.006365
 10
6.306528
 20
5.999716
 10
6.315000
 20
5.993000
 10
6.323579
 20
5.986226
 10
6.332068
 20
5.979404
 10
6.340473
 20
5.972532
 10
6.348797
 20
5.965609
 10
6.357045
 20
5.958634
 10
6.365221
 20
5.951604
 10
6.373329
 20
5.944518
 10
6.381375
 20
5.937375
 10
6.389362
 20
5.930174
 10
6.397295
 20
5.922912
 10
6.405178
 20
5.915589
 10
6.413016
 20
5.908203
 10
6.420812
 20
5.900753
 10
6.428572
 20
5.893236
 10
6.436300
 20
5.885653
 10
6.444000
 20
5.878000
 10
6.451499
 20
5.870476
 10
6.458990
 20
5.862902
 10
6.466467
 20
5.855276
 10
6.473922
 20
5.847594
 10
6.481347
 20
5.839853
 10
6.488736
 20
5.832051
 10
6.496081
 20
5.824184
 10
6.503375
 20
5.816250
 10
6.510610
 20
5.808246
 10
6.517779
 20
5.800168
 10
6.524875
 20
5.792014
 10
6.531891
 20
5.783781
 10
6.538818
 20
5.775466
 10
6.545650
 20
5.767066
 10
6.552380
 20
5.758579
 10
6.559000
 20
5.750000
 10
6.565505
 20
5.741317
 10
6.571900
 20
5.732523
 10
6.578193
 20
5.723624
 10
6.584391
 20
5.714625
 10
6.590500
 20
5.705532
 10
6.596529
 20
5.696352
 10
6.602485
 20
5.687089
 10
6.608375
 20
5.677750
 10
6.614206
 20
5.668341
 10
6.619986
 20
5.658867
 10
6.625722
 20
5.649335
 10
6.631422
 20
5.639750
 10
6.637092
 20
5.630118
 10
6.642740
 20
5.620445
 10
6.648374
 20
5.610737
 10
6.654000
 20
5.601000
 10
6.659414
 20
5.591227
 10
6.664781
 20
5.581406
 10
6.670102
 20
5.571539
 10
6.675375
 20
5.561625
 10
6.680602
 20
5.551664
 10
6.685781
 20
5.541656
 10
6.690914
 20
5.531602
 10
6.696000
 20
5.521500
 10
6.701039
 20
5.511352
 10
6.706031
 20
5.501156
 10
6.710977
 20
5.490914
 10
6.715875
 20
5.480625
 10
6.720727
 20
5.470289
 10
6.725531
 20
5.459906
 10
6.730289
 20
5.449477
 10
6.735000
 20
5.439000
 10
6.739488
 20
5.428300
 10
6.743949
 20
5.417574
 10
6.748381
 20
5.406819
 10
6.752781
 20
5.396031
 10
6.757146
 20
5.385208
 10
6.761473
 20
5.374348
 10
6.765758
 20
5.363446
 10
6.770000
 20
5.352500
 10
6.774195
 20
5.341507
 10
6.778340
 20
5.330465
 10
6.782432
 20
5.319370
 10
6.786469
 20
5.308219
 10
6.790447
 20
5.297009
 10
6.794363
 20
5.285738
 10
6.798215
 20
5.274403
 10
6.802000
 20
5.263000
 10
6.805880
 20
5.251528
 10
6.809652
 20
5.239990
 10
6.813325
 20
5.228391
 10
6.816906
 20
5.216734
 10
6.820406
 20
5.205025
 10
6.823832
 20
5.193268
 10
6.827194
 20
5.181466
 10
6.830500
 20
5.169625
 10
6.833759
 20
5.157749
 10
6.836980
 20
5.145842
 10
6.840172
 20
5.133908
 10
6.843344
 20
5.121953
 10
6.846503
 20
5.109980
 10
6.849660
 20
5.097994
 10
6.852823
 20
5.085999
 10
6.856000
 20
5.074000
 10
6.859154
 20
5.061790
 10
6.862246
 20
5.049541
 10
6.865286
 20
5.037260
 10
6.868281
 20
5.024953
 10
6.871242
 20
5.012629
 10
6.874176
 20
5.000295
 10
6.877092
 20
4.987958
 10
6.880000
 20
4.975625
 10
6.882908
 20
4.963304
 10
6.885824
 20
4.951002
 10
6.888758
 20
4.938726
 10
6.891719
 20
4.926484
 10
6.894714
 20
4.914283
 10
6.897754
 20
4.902131
 10
6.900846
 20
4.890034
 10
6.904000
 20
4.878000
 10
6.907177
 20
4.865825
 10
6.910340
 20
4.853676
 10
6.913497
 20
4.841556
 10
6.916656
 20
4.829469
 10
6.919828
 20
4.817417
 10
6.923020
 20
4.805402
 10
6.926241
 20
4.793429
 10
6.929500
 20
4.781500
 10
6.932806
 20
4.769618
 10
6.936168
 20
4.757785
 10
6.939594
 20
4.746005
 10
6.943094
 20
4.734281
 10
6.946675
 20
4.722616
 10
6.950348
 20
4.711012
 10
6.954120
 20
4.699472
 10
6.958000
 20
4.688000
 10
6.961796
 20
4.676608
 10
6.965678
 20
4.665305
 10
6.969639
 20
4.654083
 10
6.973672
 20
4.642938
 10
6.977769
 20
4.631862
 10
6.981924
 20
4.620852
 10
6.986128
 20
4.609899
 10
6.990375
 20
4.599000
 10
6.994657
 20
4.588147
 10
6.998967
 20
4.577336
 10
7.003297
 20
4.566560
 10
7.007641
 20
4.555813
 10
7.011990
 20
4.545089
 10
7.016338
 20
4.534383
 10
7.020677
 20
4.523688
 10
7.025000
 20
4.513000
 10
7.029523
 20
4.502159
 10
7.034088
 20
4.491383
 10
7.038691
 20
4.480665
 10
7.043328
 20
4.470000
 10
7.047994
 20
4.459382
 10
7.052686
 20
4.448805
 10
7.057397
 20
4.438263
 10
7.062125
 20
4.427750
 10
7.066865
 20
4.417261
 10
7.071611
 20
4.406789
 10
7.076361
 20
4.396329
 10
7.081109
 20
4.385875
 10
7.085852
 20
4.375421
 10
7.090584
 20
4.364961
 10
7.095302
 20
4.354489
 10
7.100000
 20
4.344000
 10
7.104687
 20
4.333335
 10
7.109373
 20
4.322711
 10
7.114056
 20
4.312122
 10
7.118734
 20
4.301562
 10
7.123407
 20
4.291026
 10
7.128072
 20
4.280508
 10
7.132729
 20
4.270001
 10
7.137375
 20
4.259500
 10
7.142010
 20
4.248999
 10
7.146631
 20
4.238492
 10
7.151238
 20
4.227974
 10
7.155828
 20
4.217438
 10
7.160401
 20
4.206878
 10
7.164955
 20
4.196289
 10
7.169489
 20
4.185665
 10
7.174000
 20
4.175000
 10
7.178488
 20
4.164135
 10
7.182951
 20
4.153287
 10
7.187388
 20
4.142448
 10
7.191797
 20
4.131609
 10
7.196177
 20
4.120765
 10
7.200525
 20
4.109908
 10
7.204842
 20
4.099031
 10
7.209125
 20
4.088125
 10
7.213373
 20
4.077184
 10
7.217584
 20
4.066201
 10
7.221757
 20
4.055168
 10
7.225891
 20
4.044078
 10
7.229983
 20
4.032924
 10
7.234033
 20
4.021697
 10
7.238039
 20
4.010392
 10
7.242000
 20
3.999000
 10
7.245738
 20
3.987550
 10
7.249447
 20
3.976070
 10
7.253125
 20
3.964556
 10
7.256766
 20
3.953000
 10
7.260365
 20
3.941397
 10
7.263920
 20
3.929742
 10
7.267425
 20
3.918028
 10
7.270875
 20
3.906250
 10
7.274267
 20
3.894401
 10
7.277596
 20
3.882477
 10
7.280857
 20
3.870470
 10
7.284047
 20
3.858375
 10
7.287160
 20
3.846187
 10
7.290193
 20
3.833898
 10
7.293141
 20
3.821505
 10
7.296000
 20
3.809000
 10
7.298601
 20
3.796578
 10
7.301152
 20
3.784064
 10
7.303651
 20
3.771460
 10
7.306094
 20
3.758766
 10
7.308478
 20
3.745984
 10
7.310801
 20
3.733115
 10
7.313059
 20
3.720162
 10
7.315250
 20
3.707125
 10
7.317371
 20
3.694006
 10
7.319418
 20
3.680807
 10
7.321389
 20
3.667528
 10
7.323281
 20
3.654172
 10
7.325091
 20
3.640740
 10
7.326816
 20
3.627232
 10
7.328454
 20
3.613652
 10
7.330000
 20
3.600000
 10
7.331475
 20
3.586211
 10
7.332896
 20
3.572234
 10
7.334256
 20
3.558094
 10
7.335547
 20
3.543812
 10
7.336761
 20
3.529414
 10
7.337893
 20
3.514922
 10
7.338933
 20
3.500359
 10
7.339875
 20
3.485750
 10
7.340712
 20
3.471117
 10
7.341436
 20
3.456484
 10
7.342039
 20
3.441875
 10
7.342516
 20
3.427312
 10
7.342857
 20
3.412820
 10
7.343057
 20
3.398422
 10
7.343107
 20
3.384141
 10
7.343000
 20
3.370000
 10
7.342720
 20
3.355751
 10
7.342264
 20
3.341510
 10
7.341640
 20
3.327283
 10
7.340859
 20
3.313078
 10
7.339932
 20
3.298903
 10
7.338869
 20
3.284764
 10
7.337680
 20
3.270669
 10
7.336375
 20
3.256625
 10
7.334965
 20
3.242640
 10
7.333459
 20
3.228721
 10
7.331868
 20
3.214875
 10
7.330203
 20
3.201109
 10
7.328473
 20
3.187432
 10
7.326689
 20
3.173850
 10
7.324862
 20
3.160370
 10
7.323000
 20
3.147000
 10
7.321089
 20
3.133712
 10
7.319105
 20
3.120477
 10
7.317045
 20
3.107300
 10
7.314906
 20
3.094187
 10
7.312685
 20
3.081146
 10
7.310379
 20
3.068180
 10
7.307985
 20
3.055296
 10
7.305500
 20
3.042500
 10
7.302921
 20
3.029798
 10
7.300246
 20
3.017195
 10
7.297471
 20
3.004698
 10
7.294594
 20
2.992313
 10
7.291611
 20
2.980044
 10
7.288520
 20
2.967898
 10
7.285317
 20
2.955882
 10
7.282000
 20
2.944000
 10
7.278545
 20
2.932268
 10
7.274938
 20
2.920688
 10
7.271189
 20
2.909248
 10
7.267313
 20
2.897938
 10
7.263318
 20
2.886744
 10
7.259219
 20
2.875656
 10
7.255025
 20
2.864662
 10
7.250750
 20
2.853750
 10
7.246404
 20
2.842908
 10
7.242000
 20
2.832125
 10
7.237549
 20
2.821389
 10
7.233062
 20
2.810687
 10
7.228553
 20
2.800010
 10
7.224031
 20
2.789344
 10
7.219510
 20
2.778678
 10
7.215000
 20
2.768000
 10
7.210300
 20
2.757512
 10
7.205572
 20
2.747053
 10
7.200812
 20
2.736625
 10
7.196016
 20
2.726234
 10
7.191178
 20
2.715885
 10
7.186295
 20
2.705580
 10
7.181362
 20
2.695325
 10
7.176375
 20
2.685125
 10
7.171329
 20
2.674983
 10
7.166221
 20
2.664904
 10
7.161045
 20
2.654893
 10
7.155797
 20
2.644953
 10
7.150473
 20
2.635090
 10
7.145068
 20
2.625307
 10
7.139579
 20
2.615609
 10
7.134000
 20
2.606000
 10
7.128163
 20
2.596473
 10
7.122275
 20
2.587020
 10
7.116332
 20
2.577642
 10
7.110328
 20
2.568344
 10
7.104260
 20
2.559127
 10
7.098123
 20
2.549996
 10
7.091913
 20
2.540953
 10
7.085625
 20
2.532000
 10
7.079255
 20
2.523141
 10
7.072799
 20
2.514379
 10
7.066252
 20
2.505716
 10
7.059609
 20
2.497156
 10
7.052867
 20
2.488702
 10
7.046021
 20
2.480355
 10
7.039067
 20
2.472121
 10
7.032000
 20
2.464000
 10
7.024795
 20
2.456018
 10
7.017436
 20
2.448189
 10
7.009933
 20
2.440505
 10
7.002297
 20
2.432953
 10
6.994538
 20
2.425525
 10
6.986666
 20
2.418209
 10
6.978692
 20
2.410996
 10
6.970625
 20
2.403875
 10
6.962476
 20
2.396836
 10
6.954256
 20
2.389869
 10
6.945974
 20
2.382964
 10
6.937641
 20
2.376109
 10
6.929266
 20
2.369296
 10
6.920861
 20
2.362514
 10
6.912436
 20
2.355752
 10
6.904000
 20
2.349000
 10
6.895539
 20
2.342263
 10
6.887029
 20
2.335555
 10
6.878470
 20
2.328882
 10
6.869859
 20
2.322250
 10
6.861196
 20
2.315665
 10
6.852479
 20
2.309133
 10
6.843705
 20
2.302659
 10
6.834875
 20
2.296250
 10
6.825986
 20
2.289911
 10
6.817037
 20
2.283648
 10
6.808027
 20
2.277468
 10
6.798953
 20
2.271375
 10
6.789815
 20
2.265376
 10
6.780611
 20
2.259477
 10
6.771340
 20
2.253683
 10
6.762000
 20
2.248000
 10
6.752336
 20
2.242245
 10
6.742486
 20
2.236602
 10
6.732475
 20
2.231063
 10
6.722328
 20
2.225625
 10
6.712070
 20
2.220280
 10
6.701725
 20
2.215023
 10
6.691318
 20
2.209849
 10
6.680875
 20
2.204750
 10
6.670420
 20
2.199722
 10
6.659979
 20
2.194758
 10
6.649575
 20
2.189853
 10
6.639234
 20
2.185000
 10
6.628982
 20
2.180194
 10
6.618842
 20
2.175430
 10
6.608840
 20
2.170700
 10
6.599000
 20
2.166000
 10
6.589538
 20
2.161479
 10
6.580254
 20
2.156928
 10
6.571117
 20
2.152362
 10
6.562094
 20
2.147797
 10
6.553153
 20
2.143250
 10
6.544262
 20
2.138736
 10
6.535388
 20
2.134273
 10
6.526500
 20
2.129875
 10
6.517565
 20
2.125559
 10
6.508551
 20
2.121342
 10
6.499425
 20
2.117239
 10
6.490156
 20
2.113266
 10
6.480711
 20
2.109439
 10
6.471059
 20
2.105775
 10
6.461166
 20
2.102290
 10
6.451000
 20
2.099000
 10
6.440419
 20
2.095905
 10
6.429684
 20
2.092986
 10
6.418801
 20
2.090235
 10
6.407781
 20
2.087641
 10
6.396632
 20
2.085193
 10
6.385363
 20
2.082881
 10
6.373983
 20
2.080695
 10
6.362500
 20
2.078625
 10
6.350923
 20
2.076660
 10
6.339262
 20
2.074791
 10
6.327524
 20
2.073007
 10
6.315719
 20
2.071297
 10
6.303855
 20
2.069652
 10
6.291941
 20
2.068061
 10
6.279987
 20
2.066513
 10
6.268000
 20
2.065000
  0
ENDSEC
  0
EOF
