  0
SECTION
  2
HEADER
  9
$INSUNITS
 70
4
  0
ENDSEC
  0
SECTION
  2
TABLES
  0
TABLE
  2
LAYER
  0
LAYER
  2
CUT
 70
0
 62
7
  0
LAYER
  2
ENGRAVE
 70
0
 62
1
  0
ENDTAB
  0
ENDSEC
  0
SECTION
  2
ENTITIES
  0
CIRCLE
  8
CUT
 10
8.500000
 20
8.500000
 30
0.0
 40
8.000000
  0
LWPOLYLINE
  8
ENGRAVE
 90
1105
 70
1
 10
10.158000
 20
2.085000
 10
10.136647
 20
2.084201
 10
10.115332
 20
2.083674
 10
10.094046
 20
2.083407
 10
10.072781
 20
2.083391
 10
10.051528
 20
2.083615
 10
10.030277
 20
2.084068
 10
10.009021
 20
2.084742
 10
9.987750
 20
2.085625
 10
9.966456
 20
2.086707
 10
9.945129
 20
2.087979
 10
9.923761
 20
2.089428
 10
9.902344
 20
2.091047
 10
9.880868
 20
2.092823
 10
9.859324
 20
2.094748
 10
9.837705
 20
2.096810
 10
9.816000
 20
2.099000
 10
9.794116
 20
2.101145
 10
9.771992
 20
2.103453
 10
9.749669
 20
2.105926
 10
9.727188
 20
2.108563
 10
9.704589
 20
2.111363
 10
9.681914
 20
2.114328
 10
9.659204
 20
2.117457
 10
9.636500
 20
2.120750
 10
9.613843
 20
2.124207
 10
9.591273
 20
2.127828
 10
9.568833
 20
2.131613
 10
9.546563
 20
2.135563
 10
9.524503
 20
2.139676
 10
9.502695
 20
2.143953
 10
9.481181
 20
2.148395
 10
9.460000
 20
2.153000
 10
9.439280
 20
2.157802
 10
9.418740
 20
2.162826
 10
9.398373
 20
2.168058
 10
9.378172
 20
2.173484
 10
9.358129
 20
2.179093
 10
9.338236
 20
2.184869
 10
9.318488
 20
2.190801
 10
9.298875
 20
2.196875
 10
9.279391
 20
2.203078
 10
9.260029
 20
2.209396
 10
9.240781
 20
2.215818
 10
9.221641
 20
2.222328
 10
9.202599
 20
2.228915
 10
9.183650
 20
2.235564
 10
9.164786
 20
2.242264
 10
9.146000
 20
2.249000
 10
9.127099
 20
2.255951
 10
9.108277
 20
2.262939
 10
9.089543
 20
2.269977
 10
9.070906
 20
2.277078
 10
9.052375
 20
2.284255
 10
9.033957
 20
2.291521
 10
9.015663
 20
2.298890
 10
8.997500
 20
2.306375
 10
8.979478
 20
2.313989
 10
8.961605
 20
2.321744
 10
8.943891
 20
2.329655
 10
8.926344
 20
2.337734
 10
8.908972
 20
2.345995
 10
8.891785
 20
2.354451
 10
8.874792
 20
2.363115
 10
8.858000
 20
2.372000
 10
8.841581
 20
2.381093
 10
8.825322
 20
2.390367
 10
8.809219
 20
2.399817
 10
8.793266
 20
2.409437
 10
8.777459
 20
2.419222
 10
8.761795
 20
2.429164
 10
8.746268
 20
2.439259
 10
8.730875
 20
2.449500
 10
8.715611
 20
2.459882
 10
8.700471
 20
2.470398
 10
8.685451
 20
2.481044
 10
8.670547
 20
2.491812
 10
8.655754
 20
2.502698
 10
8.641068
 20
2.513695
 10
8.626485
 20
2.524798
 10
8.612000
 20
2.536000
 10
8.597820
 20
2.547507
 10
8.583777
 20
2.559152
 10
8.569870
 20
2.570932
 10
8.556094
 20
2.582844
 10
8.542447
 20
2.594884
 10
8.528926
 20
2.607051
 10
8.515528
 20
2.619340
 10
8.502250
 20
2.631750
 10
8.489089
 20
2.644277
 10
8.476043
 20
2.656918
 10
8.463108
 20
2.669670
 10
8.450281
 20
2.682531
 10
8.437560
 20
2.695498
 10
8.424941
 20
2.708566
 10
8.412422
 20
2.721735
 10
8.400000
 20
2.735000
 10
8.387694
 20
2.748206
 10
8.375523
 20
2.761566
 10
8.363481
 20
2.775074
 10
8.351562
 20
2.788719
 10
8.339761
 20
2.802493
 10
8.328070
 20
2.816387
 10
8.316485
 20
2.830392
 10
8.305000
 20
2.844500
 10
8.293608
 20
2.858702
 10
8.282305
 20
2.872988
 10
8.271083
 20
2.887351
 10
8.259937
 20
2.901781
 10
8.248862
 20
2.916270
 10
8.237852
 20
2.930809
 10
8.226899
 20
2.945388
 10
8.216000
 20
2.960000
 10
8.205006
 20
2.974859
 10
8.194145
 20
2.989809
 10
8.183406
 20
3.004846
 10
8.172781
 20
3.019969
 10
8.162262
 20
3.035173
 10
8.151840
 20
3.050457
 10
8.141505
 20
3.065817
 10
8.131250
 20
3.081250
 10
8.121065
 20
3.096753
 10
8.110941
 20
3.112324
 10
8.100871
 20
3.127959
 10
8.090844
 20
3.143656
 10
8.080852
 20
3.159412
 10
8.070887
 20
3.175223
 10
8.060939
 20
3.191086
 10
8.051000
 20
3.207000
 10
8.041273
 20
3.222785
 10
8.031594
 20
3.238637
 10
8.021961
 20
3.254553
 10
8.012375
 20
3.270531
 10
8.002836
 20
3.286568
 10
7.993344
 20
3.302660
 10
7.983898
 20
3.318805
 10
7.974500
 20
3.335000
 10
7.965148
 20
3.351242
 10
7.955844
 20
3.367527
 10
7.946586
 20
3.383854
 10
7.937375
 20
3.400219
 10
7.928211
 20
3.416619
 10
7.919094
 20
3.433051
 10
7.910023
 20
3.449512
 10
7.901000
 20
3.466000
 10
7.892013
 20
3.482700
 10
7.883055
 20
3.499430
 10
7.874132
 20
3.516194
 10
7.865250
 20
3.533000
 10
7.856415
 20
3.549853
 10
7.847633
 20
3.566758
 10
7.838909
 20
3.583722
 10
7.830250
 20
3.600750
 10
7.821661
 20
3.617849
 10
7.813148
 20
3.635023
 10
7.804718
 20
3.652280
 10
7.796375
 20
3.669625
 10
7.788126
 20
3.687063
 10
7.779977
 20
3.704602
 10
7.771933
 20
3.722245
 10
7.764000
 20
3.740000
 10
7.756138
 20
3.757815
 10
7.748311
 20
3.775643
 10
7.740527
 20
3.793497
 10
7.732797
 20
3.811391
 10
7.725132
 20
3.829337
 10
7.717541
 20
3.847350
 10
7.710035
 20
3.865441
 10
7.702625
 20
3.883625
 10
7.695320
 20
3.901914
 10
7.688131
 20
3.920322
 10
7.681068
 20
3.938862
 10
7.674141
 20
3.957547
 10
7.667360
 20
3.976390
 10
7.660736
 20
3.995404
 10
7.654280
 20
4.014603
 10
7.648000
 20
4.034000
 10
7.641850
 20
4.053559
 10
7.635781
 20
4.073236
 10
7.629807
 20
4.093034
 10
7.623937
 20
4.112953
 10
7.618186
 20
4.132995
 10
7.612563
 20
4.153162
 10
7.607080
 20
4.173455
 10
7.601750
 20
4.193875
 10
7.596584
 20
4.214424
 10
7.591594
 20
4.235104
 10
7.586791
 20
4.255915
 10
7.582187
 20
4.276859
 10
7.577795
 20
4.297939
 10
7.573625
 20
4.319154
 10
7.569689
 20
4.340508
 10
7.566000
 20
4.362000
 10
7.562355
 20
4.383853
 10
7.558920
 20
4.405898
 10
7.555693
 20
4.428120
 10
7.552672
 20
4.450500
 10
7.549856
 20
4.473021
 10
7.547244
 20
4.495664
 10
7.544834
 20
4.518413
 10
7.542625
 20
4.541250
 10
7.540615
 20
4.564157
 10
7.538803
 20
4.587117
 10
7.537187
 20
4.610112
 10
7.535766
 20
4.633125
 10
7.534538
 20
4.656138
 10
7.533502
 20
4.679133
 10
7.532656
 20
4.702093
 10
7.532000
 20
4.725000
 10
7.531344
 20
4.747953
 10
7.530877
 20
4.771043
 10
7.530600
 20
4.794245
 10
7.530516
 20
4.817531
 10
7.530624
 20
4.840876
 10
7.530928
 20
4.864254
 10
7.531427
 20
4.887637
 10
7.532125
 20
4.911000
 10
7.533022
 20
4.934316
 10
7.534119
 20
4.957559
 10
7.535419
 20
4.980702
 10
7.536922
 20
5.003719
 10
7.538630
 20
5.026583
 10
7.540545
 20
5.049270
 10
7.542668
 20
5.071750
 10
7.545000
 20
5.094000
 10
7.547763
 20
5.116265
 10
7.550795
 20
5.138432
 10
7.554081
 20
5.160496
 10
7.557609
 20
5.182453
 10
7.561366
 20
5.204299
 10
7.565338
 20
5.226029
 10
7.569512
 20
5.247639
 10
7.573875
 20
5.269125
 10
7.578414
 20
5.290482
 10
7.583115
 20
5.311705
 10
7.587966
 20
5.332791
 10
7.592953
 20
5.353734
 10
7.598063
 20
5.374531
 10
7.603283
 20
5.395178
 10
7.608600
 20
5.415669
 10
7.614000
 20
5.436000
 10
7.619320
 20
5.456191
 10
7.624781
 20
5.476264
 10
7.630383
 20
5.496216
 10
7.636125
 20
5.516047
 10
7.642008
 20
5.535755
 10
7.648031
 20
5.555338
 10
7.654195
 20
5.574795
 10
7.660500
 20
5.594125
 10
7.666945
 20
5.613326
 10
7.673531
 20
5.632396
 10
7.680258
 20
5.651335
 10
7.687125
 20
5.670141
 10
7.694133
 20
5.688811
 10
7.701281
 20
5.707346
 10
7.708570
 20
5.725742
 10
7.716000
 20
5.744000
 10
7.723581
 20
5.762106
 10
7.731320
 20
5.780055
 10
7.739212
 20
5.797851
 10
7.747250
 20
5.815500
 10
7.755429
 20
5.833009
 10
7.763742
 20
5.850383
 10
7.772185
 20
5.867628
 10
7.780750
 20
5.884750
 10
7.789433
 20
5.901755
 10
7.798227
 20
5.918648
 10
7.807126
 20
5.935437
 10
7.816125
 20
5.952125
 10
7.825218
 20
5.968720
 10
7.834398
 20
5.985227
 10
7.843661
 20
6.001651
 10
7.853000
 20
6.018000
 10
7.862422
 20
6.034089
 10
7.871941
 20
6.050104
 10
7.881560
 20
6.066039
 10
7.891281
 20
6.081891
 10
7.901108
 20
6.097655
 10
7.911043
 20
6.113326
 10
7.921089
 20
6.128901
 10
7.931250
 20
6.144375
 10
7.941528
 20
6.159743
 10
7.951926
 20
6.175002
 10
7.962447
 20
6.190146
 10
7.973094
 20
6.205172
 10
7.983870
 20
6.220074
 10
7.994777
 20
6.234850
 10
8.005820
 20
6.249493
 10
8.017000
 20
6.264000
 10
8.028518
 20
6.278158
 10
8.040193
 20
6.292141
 10
8.052018
 20
6.305959
 10
8.063984
 20
6.319625
 10
8.076086
 20
6.333150
 10
8.088314
 20
6.346547
 10
8.100663
 20
6.359826
 10
8.113125
 20
6.373000
 10
8.125692
 20
6.386080
 10
8.138357
 20
6.399078
 10
8.151114
 20
6.412006
 10
8.163953
 20
6.424875
 10
8.176869
 20
6.437697
 10
8.189854
 20
6.450484
 10
8.202900
 20
6.463248
 10
8.216000
 20
6.476000
 10
8.228984
 20
6.488527
 10
8.242061
 20
6.500982
 10
8.255228
 20
6.513365
 10
8.268484
 20
6.525672
 10
8.281829
 20
6.537903
 10
8.295260
 20
6.550057
 10
8.308776
 20
6.562131
 10
8.322375
 20
6.574125
 10
8.336056
 20
6.586037
 10
8.349818
 20
6.597865
 10
8.363659
 20
6.609609
 10
8.377578
 20
6.621266
 10
8.391573
 20
6.632835
 10
8.405643
 20
6.644314
 10
8.419785
 20
6.655703
 10
8.434000
 20
6.667000
 10
8.448495
 20
6.678358
 10
8.463098
 20
6.689564
 10
8.477800
 20
6.700634
 10
8.492594
 20
6.711578
 10
8.507469
 20
6.722411
 10
8.522418
 20
6.733146
 10
8.537431
 20
6.743797
 10
8.552500
 20
6.754375
 10
8.567616
 20
6.764895
 10
8.582770
 20
6.775369
 10
8.597953
 20
6.785811
 10
8.613156
 20
6.796234
 10
8.628372
 20
6.806652
 10
8.643590
 20
6.817076
 10
8.658802
 20
6.827521
 10
8.674000
 20
6.838000
 10
8.689199
 20
6.848488
 10
8.704422
 20
6.858951
 10
8.719668
 20
6.869388
 10
8.734937
 20
6.879797
 10
8.750230
 20
6.890177
 10
8.765547
 20
6.900525
 10
8.780887
 20
6.910842
 10
8.796250
 20
6.921125
 10
8.811637
 20
6.931373
 10
8.827047
 20
6.941584
 10
8.842480
 20
6.951757
 10
8.857938
 20
6.961891
 10
8.873418
 20
6.971983
 10
8.888922
 20
6.982033
 10
8.904449
 20
6.992039
 10
8.920000
 20
7.002000
 10
8.935607
 20
7.012080
 10
8.951297
 20
7.022078
 10
8.967057
 20
7.032006
 10
8.982875
 20
7.041875
 10
8.998740
 20
7.051697
 10
9.014641
 20
7.061484
 10
9.030564
 20
7.071248
 10
9.046500
 20
7.081000
 10
9.062436
 20
7.090752
 10
9.078359
 20
7.100516
 10
9.094260
 20
7.110303
 10
9.110125
 20
7.120125
 10
9.125943
 20
7.129994
 10
9.141703
 20
7.139922
 10
9.157393
 20
7.149920
 10
9.173000
 20
7.160000
 10
9.188562
 20
7.169950
 10
9.204119
 20
7.179926
 10
9.219668
 20
7.189931
 10
9.235203
 20
7.199969
 10
9.250721
 20
7.210042
 10
9.266217
 20
7.220152
 10
9.281686
 20
7.230304
 10
9.297125
 20
7.240500
 10
9.312529
 20
7.250743
 10
9.327893
 20
7.261035
 10
9.343213
 20
7.271380
 10
9.358484
 20
7.281781
 10
9.373703
 20
7.292241
 10
9.388865
 20
7.302762
 10
9.403966
 20
7.313347
 10
9.419000
 20
7.324000
 10
9.433987
 20
7.334700
 10
9.448945
 20
7.345430
 10
9.463868
 20
7.356194
 10
9.478750
 20
7.367000
 10
9.493585
 20
7.377853
 10
9.508367
 20
7.388758
 10
9.523091
 20
7.399722
 10
9.537750
 20
7.410750
 10
9.552339
 20
7.421849
 10
9.566852
 20
7.433023
 10
9.581282
 20
7.444280
 10
9.595625
 20
7.455625
 10
9.609874
 20
7.467063
 10
9.624023
 20
7.478602
 10
9.638067
 20
7.490245
 10
9.652000
 20
7.502000
 10
9.665818
 20
7.513694
 10
9.679525
 20
7.525520
 10
9.693131
 20
7.537468
 10
9.706641
 20
7.549531
 10
9.720063
 20
7.561700
 10
9.733404
 20
7.573965
 10
9.746673
 20
7.586318
 10
9.759875
 20
7.598750
 10
9.773019
 20
7.611252
 10
9.786111
 20
7.623816
 10
9.799160
 20
7.636433
 10
9.812172
 20
7.649094
 10
9.825155
 20
7.661790
 10
9.838115
 20
7.674512
 10
9.851061
 20
7.687251
 10
9.864000
 20
7.700000
 10
9.876716
 20
7.712796
 10
9.889365
 20
7.725680
 10
9.901953
 20
7.738646
 10
9.914484
 20
7.751687
 10
9.926963
 20
7.764800
 10
9.939393
 20
7.777977
 10
9.951779
 20
7.791212
 10
9.964125
 20
7.804500
 10
9.976436
 20
7.817835
 10
9.988717
 20
7.831211
 10
10.000971
 20
7.844622
 10
10.013203
 20
7.858063
 10
10.025418
 20
7.871526
 10
10.037619
 20
7.885008
 10
10.049812
 20
7.898501
 10
10.062000
 20
7.912000
 10
10.074154
 20
7.925534
 10
10.086246
 20
7.939129
 10
10.098286
 20
7.952777
 10
10.110281
 20
7.966469
 10
10.122242
 20
7.980196
 10
10.134176
 20
7.993949
 10
10.146092
 20
8.007720
 10
10.158000
 20
8.021500
 10
10.169908
 20
8.035280
 10
10.181824
 20
8.049051
 10
10.193758
 20
8.062804
 10
10.205719
 20
8.076531
 10
10.217714
 20
8.090223
 10
10.229754
 20
8.103871
 10
10.241846
 20
8.117466
 10
10.254000
 20
8.131000
 10
10.266210
 20
8.144466
 10
10.278463
 20
8.157869
 10
10.290754
 20
8.171217
 10
10.303078
 20
8.184516
 10
10.315432
 20
8.197774
 10
10.327811
 20
8.210998
 10
10.340210
 20
8.224196
 10
10.352625
 20
8.237375
 10
10.365052
 20
8.250542
 10
10.377486
 20
8.263705
 10
10.389924
 20
8.276871
 10
10.402359
 20
8.290047
 10
10.414789
 20
8.303240
 10
10.427209
 20
8.316459
 10
10.439614
 20
8.329710
 10
10.452000
 20
8.343000
 10
10.464342
 20
8.356345
 10
10.476627
 20
8.369746
 10
10.488868
 20
8.383188
 10
10.501078
 20
8.396656
 10
10.513271
 20
8.410136
 10
10.525459
 20
8.423613
 10
10.537656
 20
8.437073
 10
10.549875
 20
8.450500
 10
10.562129
 20
8.463880
 10
10.574432
 20
8.477199
 10
10.586796
 20
8.490442
 10
10.599234
 20
8.503594
 10
10.611761
 20
8.516640
 10
10.624389
 20
8.529566
 10
10.637131
 20
8.542358
 10
10.650000
 20
8.555000
 10
10.663171
 20
8.567516
 10
10.676432
 20
8.579941
 10
10.689777
 20
8.592279
 10
10.703203
 20
8.604531
 10
10.716705
 20
8.616702
 10
10.730279
 20
8.628793
 10
10.743921
 20
8.640808
 10
10.757625
 20
8.652750
 10
10.771388
 20
8.664622
 10
10.785205
 20
8.676426
 10
10.799072
 20
8.688166
 10
10.812984
 20
8.699844
 10
10.826938
 20
8.711463
 10
10.840928
 20
8.723027
 10
10.854950
 20
8.734539
 10
10.869000
 20
8.746000
 10
10.883075
 20
8.757623
 10
10.897182
 20
8.769234
 10
10.911326
 20
8.780822
 10
10.925516
 20
8.792375
 10
10.939758
 20
8.803881
 10
10.954061
 20
8.815328
 10
10.968430
 20
8.826705
 10
10.982875
 20
8.838000
 10
10.997402
 20
8.849201
 10
11.012018
 20
8.860297
 10
11.026730
 20
8.871275
 10
11.041547
 20
8.882125
 10
11.056475
 20
8.892834
 10
11.071521
 20
8.903391
 10
11.086694
 20
8.913783
 10
11.102000
 20
8.924000
 10
11.117422
 20
8.934254
 10
11.132941
 20
8.944393
 10
11.148560
 20
8.954417
 10
11.164281
 20
8.964328
 10
11.180108
 20
8.974128
 10
11.196043
 20
8.983818
 10
11.212089
 20
8.993400
 10
11.228250
 20
9.002875
 10
11.244528
 20
9.012244
 10
11.260926
 20
9.021510
 10
11.277447
 20
9.030673
 10
11.294094
 20
9.039734
 10
11.310870
 20
9.048697
 10
11.327777
 20
9.057561
 10
11.344820
 20
9.066328
 10
11.362000
 20
9.075000
 10
11.379088
 20
9.083424
 10
11.396234
 20
9.091811
 10
11.413451
 20
9.100148
 10
11.430750
 20
9.108422
 10
11.448143
 20
9.116620
 10
11.465641
 20
9.124729
 10
11.483256
 20
9.132735
 10
11.501000
 20
9.140625
 10
11.518885
 20
9.148386
 10
11.536922
 20
9.156006
 10
11.555123
 20
9.163470
 10
11.573500
 20
9.170766
 10
11.592064
 20
9.177880
 10
11.610828
 20
9.184799
 10
11.629803
 20
9.191510
 10
11.649000
 20
9.198000
 10
11.668240
 20
9.204326
 10
11.687703
 20
9.210547
 10
11.707377
 20
9.216650
 10
11.727250
 20
9.222625
 10
11.747311
 20
9.228459
 10
11.767547
 20
9.234141
 10
11.787947
 20
9.239658
 10
11.808500
 20
9.245000
 10
11.829193
 20
9.250154
 10
11.850016
 20
9.255109
 10
11.870955
 20
9.259854
 10
11.892000
 20
9.264375
 10
11.913139
 20
9.268662
 10
11.934359
 20
9.272703
 10
11.955650
 20
9.276486
 10
11.977000
 20
9.280000
 10
11.998510
 20
9.283292
 10
12.020270
 20
9.286410
 10
12.042246
 20
9.289347
 10
12.064406
 20
9.292094
 10
12.086719
 20
9.294641
 10
12.109152
 20
9.296980
 10
12.131673
 20
9.299103
 10
12.154250
 20
9.301000
 10
12.176850
 20
9.302663
 10
12.199441
 20
9.304082
 10
12.221992
 20
9.305250
 10
12.244469
 20
9.306156
 10
12.266840
 20
9.306793
 10
12.289074
 20
9.307152
 10
12.311138
 20
9.307224
 10
12.333000
 20
9.307000
 10
12.354781
 20
9.306485
 10
12.376611
 20
9.305689
 10
12.398468
 20
9.304616
 10
12.420328
 20
9.303266
 10
12.442171
 20
9.301640
 10
12.463975
 20
9.299740
 10
12.485717
 20
9.297568
 10
12.507375
 20
9.295125
 10
12.528928
 20
9.292412
 10
12.550354
 20
9.289432
 10
12.571630
 20
9.286184
 10
12.592734
 20
9.282672
 10
12.613646
 20
9.278896
 10
12.634342
 20
9.274857
 10
12.654801
 20
9.270558
 10
12.675000
 20
9.266000
 10
12.694992
 20
9.261139
 10
12.714840
 20
9.255943
 10
12.734542
 20
9.250428
 10
12.754094
 20
9.244609
 10
12.773494
 20
9.238504
 10
12.792738
 20
9.232127
 10
12.811825
 20
9.225495
 10
12.830750
 20
9.218625
 10
12.849511
 20
9.211532
 10
12.868105
 20
9.204232
 10
12.886530
 20
9.196742
 10
12.904781
 20
9.189078
 10
12.922857
 20
9.181256
 10
12.940754
 20
9.173291
 10
12.958469
 20
9.165200
 10
12.976000
 20
9.157000
 10
12.993135
 20
9.148458
 10
13.010045
 20
9.139711
 10
13.026741
 20
9.130765
 10
13.043234
 20
9.121625
 10
13.059534
 20
9.112298
 10
13.075650
 20
9.102789
 10
13.091594
 20
9.093104
 10
13.107375
 20
9.083250
 10
13.123004
 20
9.073231
 10
13.138490
 20
9.063055
 10
13.153845
 20
9.052726
 10
13.169078
 20
9.042250
 10
13.184200
 20
9.031634
 10
13.199221
 20
9.020883
 10
13.214151
 20
9.010003
 10
13.229000
 20
8.999000
 10
13.243566
 20
8.988055
 10
13.258016
 20
8.976971
 10
13.272348
 20
8.965749
 10
13.286562
 20
8.954391
 10
13.300660
 20
8.942898
 10
13.314641
 20
8.931271
 10
13.328504
 20
8.919513
 10
13.342250
 20
8.907625
 10
13.355879
 20
8.895608
 10
13.369391
 20
8.883463
 10
13.382785
 20
8.871192
 10
13.396063
 20
8.858797
 10
13.409223
 20
8.846279
 10
13.422266
 20
8.833639
 10
13.435191
 20
8.820879
 10
13.448000
 20
8.808000
 10
13.460481
 20
8.794805
 10
13.472805
 20
8.781473
 10
13.484976
 20
8.768005
 10
13.497000
 20
8.754406
 10
13.508884
 20
8.740678
 10
13.520633
 20
8.726824
 10
13.532253
 20
8.712847
 10
13.543750
 20
8.698750
 10
13.555130
 20
8.684536
 10
13.566398
 20
8.670207
 10
13.577562
 20
8.655767
 10
13.588625
 20
8.641219
 10
13.599595
 20
8.626565
 10
13.610477
 20
8.611809
 10
13.621276
 20
8.596953
 10
13.632000
 20
8.582000
 10
13.642640
 20
8.566953
 10
13.653186
 20
8.551811
 10
13.663634
 20
8.536572
 10
13.673984
 20
8.521234
 10
13.684235
 20
8.505798
 10
13.694385
 20
8.490260
 10
13.704432
 20
8.474619
 10
13.714375
 20
8.458875
 10
13.724213
 20
8.443025
 10
13.733943
 20
8.427068
 10
13.743566
 20
8.411003
 10
13.753078
 20
8.394828
 10
13.762479
 20
8.378542
 10
13.771768
 20
8.362143
 10
13.780942
 20
8.345629
 10
13.790000
 20
8.329000
 10
13.798744
 20
8.312243
 10
13.807357
 20
8.295354
 10
13.815851
 20
8.278338
 10
13.824234
 20
8.261203
 10
13.832518
 20
8.243957
 10
13.840713
 20
8.226607
 10
13.848828
 20
8.209161
 10
13.856875
 20
8.191625
 10
13.864863
 20
8.174007
 10
13.872803
 20
8.156314
 10
13.880704
 20
8.138554
 10
13.888578
 20
8.120734
 10
13.896434
 20
8.102862
 10
13.904283
 20
8.084943
 10
13.912135
 20
8.066987
 10
13.920000
 20
8.049000
 10
13.927653
 20
8.030977
 10
13.935238
 20
8.012906
 10
13.942759
 20
7.994789
 10
13.950219
 20
7.976625
 10
13.957620
 20
7.958414
 10
13.964965
 20
7.940156
 10
13.972257
 20
7.921852
 10
13.979500
 20
7.903500
 10
13.986696
 20
7.885102
 10
13.993848
 20
7.866656
 10
14.000958
 20
7.848164
 10
14.008031
 20
7.829625
 10
14.015069
 20
7.811039
 10
14.022074
 20
7.792406
 10
14.029050
 20
7.773727
 10
14.036000
 20
7.755000
 10
14.042727
 20
7.736050
 10
14.049406
 20
7.717074
 10
14.056039
 20
7.698069
 10
14.062625
 20
7.679031
 10
14.069164
 20
7.659958
 10
14.075656
 20
7.640848
 10
14.082102
 20
7.621696
 10
14.088500
 20
7.602500
 10
14.094852
 20
7.583257
 10
14.101156
 20
7.563965
 10
14.107414
 20
7.544620
 10
14.113625
 20
7.525219
 10
14.119789
 20
7.505759
 10
14.125906
 20
7.486238
 10
14.131977
 20
7.466653
 10
14.138000
 20
7.447000
 10
14.143976
 20
7.427289
 10
14.149904
 20
7.407529
 10
14.155782
 20
7.387720
 10
14.161609
 20
7.367859
 10
14.167384
 20
7.347946
 10
14.173104
 20
7.327979
 10
14.178768
 20
7.307955
 10
14.184375
 20
7.287875
 10
14.189924
 20
7.267736
 10
14.195412
 20
7.247537
 10
14.200839
 20
7.227277
 10
14.206203
 20
7.206953
 10
14.211503
 20
7.186565
 10
14.216736
 20
7.166111
 10
14.221903
 20
7.145590
 10
14.227000
 20
7.125000
 10
14.232248
 20
7.104572
 10
14.237484
 20
7.084150
 10
14.242697
 20
7.063720
 10
14.247875
 20
7.043266
 10
14.253006
 20
7.022770
 10
14.258078
 20
7.002217
 10
14.263080
 20
6.981591
 10
14.268000
 20
6.960875
 10
14.272826
 20
6.940054
 10
14.277547
 20
6.919111
 10
14.282150
 20
6.898031
 10
14.286625
 20
6.876797
 10
14.290959
 20
6.855393
 10
14.295141
 20
6.833803
 10
14.299158
 20
6.812010
 10
14.303000
 20
6.790000
 10
14.306471
 20
6.767970
 10
14.309766
 20
6.745762
 10
14.312896
 20
6.723383
 10
14.315875
 20
6.700844
 10
14.318713
 20
6.678152
 10
14.321422
 20
6.655316
 10
14.324014
 20
6.632346
 10
14.326500
 20
6.609250
 10
14.328893
 20
6.586037
 10
14.331203
 20
6.562715
 10
14.333443
 20
6.539293
 10
14.335625
 20
6.515781
 10
14.337760
 20
6.492187
 10
14.339859
 20
6.468520
 10
14.341936
 20
6.444788
 10
14.344000
 20
6.421000
 10
14.345884
 20
6.397108
 10
14.347771
 20
6.373070
 10
14.349645
 20
6.348903
 10
14.351484
 20
6.324625
 10
14.353271
 20
6.300253
 10
14.354986
 20
6.275805
 10
14.356611
 20
6.251298
 10
14.358125
 20
6.226750
 10
14.359510
 20
6.202179
 10
14.360748
 20
6.177602
 10
14.361819
 20
6.153036
 10
14.362703
 20
6.128500
 10
14.363383
 20
6.104011
 10
14.363838
 20
6.079586
 10
14.364050
 20
6.055243
 10
14.364000
 20
6.031000
 10
14.363697
 20
6.006781
 10
14.363168
 20
5.982510
 10
14.362422
 20
5.958207
 10
14.361469
 20
5.933891
 10
14.360316
 20
5.909580
 10
14.358973
 20
5.885295
 10
14.357448
 20
5.861053
 10
14.355750
 20
5.836875
 10
14.353888
 20
5.812779
 10
14.351871
 20
5.788783
 10
14.349708
 20
5.764908
 10
14.347406
 20
5.741172
 10
14.344976
 20
5.717594
 10
14.342426
 20
5.694193
 10
14.339764
 20
5.670989
 10
14.337000
 20
5.648000
 10
14.334150
 20
5.625173
 10
14.331219
 20
5.602447
 10
14.328193
 20
5.579830
 10
14.325062
 20
5.557328
 10
14.321814
 20
5.534949
 10
14.318437
 20
5.512701
 10
14.314920
 20
5.490591
 10
14.311250
 20
5.468625
 10
14.307416
 20
5.446812
 10
14.303406
 20
5.425158
 10
14.299209
 20
5.403672
 10
14.294812
 20
5.382359
 10
14.290205
 20
5.361229
 10
14.285375
 20
5.340287
 10
14.280311
 20
5.319542
 10
14.275000
 20
5.299000
 10
14.269612
 20
5.278876
 10
14.263959
 20
5.258996
 10
14.258057
 20
5.239344
 10
14.251922
 20
5.219906
 10
14.245570
 20
5.200667
 10
14.239018
 20
5.181613
 10
14.232281
 20
5.162729
 10
14.225375
 20
5.144000
 10
14.218317
 20
5.125412
 10
14.211123
 20
5.106949
 10
14.203809
 20
5.088598
 10
14.196391
 20
5.070344
 10
14.188885
 20
5.052171
 10
14.181307
 20
5.034066
 10
14.173673
 20
5.016014
 10
14.166000
 20
4.998000
 10
14.158243
 20
4.980245
 10
14.150352
 20
4.962604
 10
14.142331
 20
4.945070
 10
14.134187
 20
4.927641
 10
14.125927
 20
4.910311
 10
14.117555
 20
4.893076
 10
14.109077
 20
4.875932
 10
14.100500
 20
4.858875
 10
14.091829
 20
4.841900
 10
14.083070
 20
4.825002
 10
14.074229
 20
4.808177
 10
14.065312
 20
4.791422
 10
14.056325
 20
4.774731
 10
14.047273
 20
4.758100
 10
14.038163
 20
4.741524
 10
14.029000
 20
4.725000
 10
14.019755
 20
4.708558
 10
14.010400
 20
4.692227
 10
14.000943
 20
4.676001
 10
13.991391
 20
4.659875
 10
13.981750
 20
4.643843
 10
13.972029
 20
4.627898
 10
13.962235
 20
4.612036
 10
13.952375
 20
4.596250
 10
13.942456
 20
4.580534
 10
13.932486
 20
4.564883
 10
13.922472
 20
4.549290
 10
13.912422
 20
4.533750
 10
13.902342
 20
4.518257
 10
13.892240
 20
4.502805
 10
13.882124
 20
4.487388
 10
13.872000
 20
4.472000
 10
13.861664
 20
4.456648
 10
13.851281
 20
4.441344
 10
13.840852
 20
4.426086
 10
13.830375
 20
4.410875
 10
13.819852
 20
4.395711
 10
13.809281
 20
4.380594
 10
13.798664
 20
4.365523
 10
13.788000
 20
4.350500
 10
13.777289
 20
4.335523
 10
13.766531
 20
4.320594
 10
13.755727
 20
4.305711
 10
13.744875
 20
4.290875
 10
13.733977
 20
4.276086
 10
13.723031
 20
4.261344
 10
13.712039
 20
4.246648
 10
13.701000
 20
4.232000
 10
13.689749
 20
4.217575
 10
13.678490
 20
4.203178
 10
13.667217
 20
4.188813
 10
13.655922
 20
4.174484
 10
13.644597
 20
4.160197
 10
13.633236
 20
4.145955
 10
13.621831
 20
4.131763
 10
13.610375
 20
4.117625
 10
13.598860
 20
4.103546
 10
13.587279
 20
4.089529
 10
13.575625
 20
4.075580
 10
13.563891
 20
4.061703
 10
13.552068
 20
4.047902
 10
13.540150
 20
4.034182
 10
13.528130
 20
4.020546
 10
13.516000
 20
4.007000
 10
13.503755
 20
3.993558
 10
13.491400
 20
3.980227
 10
13.478943
 20
3.967001
 10
13.466391
 20
3.953875
 10
13.453750
 20
3.940843
 10
13.441029
 20
3.927898
 10
13.428235
 20
3.915036
 10
13.415375
 20
3.902250
 10
13.402456
 20
3.889534
 10
13.389486
 20
3.876883
 10
13.376472
 20
3.864290
 10
13.363422
 20
3.851750
 10
13.350342
 20
3.839257
 10
13.337240
 20
3.826805
 10
13.324124
 20
3.814388
 10
13.311000
 20
3.802000
 10
13.297653
 20
3.789495
 10
13.284240
 20
3.777098
 10
13.270766
 20
3.764800
 10
13.257234
 20
3.752594
 10
13.243650
 20
3.740469
 10
13.230018
 20
3.728418
 10
13.216341
 20
3.716431
 10
13.202625
 20
3.704500
 10
13.188874
 20
3.692616
 10
13.175092
 20
3.680770
 10
13.161283
 20
3.668953
 10
13.147453
 20
3.657156
 10
13.133605
 20
3.645372
 10
13.119744
 20
3.633590
 10
13.105874
 20
3.621802
 10
13.092000
 20
3.610000
 10
13.078091
 20
3.598221
 10
13.064119
 20
3.586506
 10
13.050092
 20
3.574846
 10
13.036016
 20
3.563234
 10
13.021899
 20
3.551664
 10
13.007748
 20
3.540127
 10
12.993571
 20
3.528616
 10
12.979375
 20
3.517125
 10
12.965167
 20
3.505645
 10
12.950955
 20
3.494170
 10
12.936746
 20
3.482692
 10
12.922547
 20
3.471203
 10
12.908365
 20
3.459697
 10
12.894209
 20
3.448166
 10
12.880085
 20
3.436603
 10
12.866000
 20
3.425000
 10
12.851938
 20
3.413551
 10
12.837875
 20
3.402082
 10
12.823813
 20
3.390595
 10
12.809750
 20
3.379094
 10
12.795687
 20
3.367581
 10
12.781625
 20
3.356059
 10
12.767563
 20
3.344531
 10
12.753500
 20
3.333000
 10
12.739438
 20
3.321469
 10
12.725375
 20
3.309941
 10
12.711312
 20
3.298419
 10
12.697250
 20
3.286906
 10
12.683187
 20
3.275405
 10
12.669125
 20
3.263918
 10
12.655062
 20
3.252449
 10
12.641000
 20
3.241000
 10
12.626783
 20
3.229353
 10
12.612627
 20
3.217670
 10
12.598520
 20
3.205960
 10
12.584453
 20
3.194234
 10
12.570415
 20
3.182503
 10
12.556396
 20
3.170775
 10
12.542386
 20
3.159063
 10
12.528375
 20
3.147375
 10
12.514352
 20
3.135722
 10
12.500307
 20
3.124115
 10
12.486229
 20
3.112564
 10
12.472109
 20
3.101078
 10
12.457937
 20
3.089669
 10
12.443701
 20
3.078346
 10
12.429392
 20
3.067119
 10
12.415000
 20
3.056000
 10
12.400341
 20
3.044972
 10
12.385615
 20
3.034010
 10
12.370828
 20
3.023109
 10
12.355984
 20
3.012266
 10
12.341088
 20
3.001475
 10
12.326143
 20
2.990732
 10
12.311154
 20
2.980034
 10
12.296125
 20
2.969375
 10
12.281061
 20
2.958751
 10
12.265967
 20
2.948158
 10
12.250846
 20
2.937592
 10
12.235703
 20
2.927047
 10
12.220543
 20
2.916520
 10
12.205369
 20
2.906006
 10
12.190187
 20
2.895501
 10
12.175000
 20
2.885000
 10
12.159988
 20
2.874501
 10
12.144947
 20
2.864008
 10
12.129875
 20
2.853526
 10
12.114766
 20
2.843063
 10
12.099615
 20
2.832622
 10
12.084420
 20
2.822211
 10
12.069175
 20
2.811835
 10
12.053875
 20
2.801500
 10
12.038517
 20
2.791212
 10
12.023096
 20
2.780977
 10
12.007607
 20
2.770800
 10
11.992047
 20
2.760687
 10
11.976410
 20
2.750646
 10
11.960693
 20
2.740680
 10
11.944891
 20
2.730796
 10
11.929000
 20
2.721000
 10
11.913215
 20
2.711262
 10
11.897361
 20
2.701551
 10
11.881440
 20
2.691869
 10
11.865453
 20
2.682219
 10
11.849402
 20
2.672604
 10
11.833287
 20
2.663027
 10
11.817111
 20
2.653492
 10
11.800875
 20
2.644000
 10
11.784580
 20
2.634555
 10
11.768229
 20
2.625160
 10
11.751821
 20
2.615818
 10
11.735359
 20
2.606531
 10
11.718845
 20
2.597303
 10
11.702279
 20
2.588137
 10
11.685664
 20
2.579035
 10
11.669000
 20
2.570000
 10
11.652289
 20
2.561200
 10
11.635531
 20
2.552426
 10
11.618727
 20
2.543681
 10
11.601875
 20
2.534969
 10
11.584977
 20
2.526292
 10
11.568031
 20
2.517652
 10
11.551039
 20
2.509054
 10
11.534000
 20
2.500500
 10
11.516914
 20
2.491993
 10
11.499781
 20
2.483535
 10
11.482602
 20
2.475130
 10
11.465375
 20
2.466781
 10
11.448102
 20
2.458491
 10
11.430781
 20
2.450262
 10
11.413414
 20
2.442097
 10
11.396000
 20
2.434000
 10
11.378374
 20
2.425774
 10
11.360740
 20
2.417600
 10
11.343092
 20
2.409481
 10
11.325422
 20
2.401422
 10
11.307722
 20
2.393427
 10
11.289986
 20
2.385502
 10
11.272206
 20
2.377650
 10
11.254375
 20
2.369875
 10
11.236485
 20
2.362182
 10
11.218529
 20
2.354576
 10
11.200500
 20
2.347061
 10
11.182391
 20
2.339641
 10
11.164193
 20
2.332320
 10
11.145900
 20
2.325104
 10
11.127505
 20
2.317995
 10
11.109000
 20
2.311000
 10
11.090171
 20
2.303922
 10
11.071197
 20
2.296936
 10
11.052097
 20
2.290040
 10
11.032891
 20
2.283234
 10
11.013596
 20
2.276516
 10
10.994232
 20
2.269885
 10
10.974819
 20
2.263338
 10
10.955375
 20
2.256875
 10
10.935919
 20
2.250494
 10
10.916471
 20
2.244193
 10
10.897049
 20
2.237972
 10
10.877672
 20
2.231828
 10
10.858360
 20
2.225760
 10
10.839131
 20
2.219768
 10
10.820005
 20
2.213848
 10
10.801000
 20
2.208000
 10
10.781986
 20
2.202190
 10
10.763170
 20
2.196396
 10
10.744515
 20
2.190635
 10
10.725984
 20
2.184922
 10
10.707542
 20
2.179273
 10
10.689150
 20
2.173705
 10
10.670774
 20
2.168234
 10
10.652375
 20
2.162875
 10
10.633918
 20
2.157645
 10
10.615365
 20
2.152561
 10
10.596681
 20
2.147637
 10
10.577828
 20
2.142891
 10
10.558770
 20
2.138338
 10
10.539471
 20
2.133994
 10
10.519893
 20
2.129876
 10
10.500000
 20
2.126000
 10
10.479779
 20
2.122123
 10
10.459260
 20
2.118373
 10
10.438474
 20
2.114761
 10
10.417453
 20
2.111297
 10
10.396227
 20
2.107991
 10
10.374826
 20
2.104854
 10
10.353282
 20
2.101895
 10
10.331625
 20
2.099125
 10
10.309886
 20
2.096554
 10
10.288096
 20
2.094193
 10
10.266285
 20
2.092052
 10
10.244484
 20
2.090141
 10
10.222725
 20
2.088469
 10
10.201037
 20
2.087049
 10
10.179452
 20
2.085889
 10
10.158000
 20
2.085000
  0
LWPOLYLINE
  8
ENGRAVE
 90
1137
 70
1
 10
4.208000
 20
6.216000
 10
4.194488
 20
6.216160
 10
4.181281
 20
6.216627
 10
4.168309
 20
6.217378
 10
4.155500
 20
6.218391
 10
4.142785
 20
6.219644
 10
4.130094
 20
6.221115
 10
4.117355
 20
6.222783
 10
4.104500
 20
6.224625
 10
4.091457
 20
6.226619
 10
4.078156
 20
6.228744
 10
4.064527
 20
6.230977
 10
4.050500
 20
6.233297
 10
4.036004
 20
6.235681
 10
4.020969
 20
6.238107
 10
4.005324
 20
6.240554
 10
3.989000
 20
6.243000
 10
3.971883
 20
6.245661
 10
3.953973
 20
6.248398
 10
3.935365
 20
6.251218
 10
3.916156
 20
6.254125
 10
3.896444
 20
6.257126
 10
3.876324
 20
6.260227
 10
3.855894
 20
6.263433
 10
3.835250
 20
6.266750
 10
3.814489
 20
6.270185
 10
3.793707
 20
6.273742
 10
3.773001
 20
6.277429
 10
3.752469
 20
6.281250
 10
3.732206
 20
6.285212
 10
3.712309
 20
6.289320
 10
3.692875
 20
6.293581
 10
3.674000
 20
6.298000
 10
3.655530
 20
6.302592
 10
3.637236
 20
6.307361
 10
3.619110
 20
6.312298
 10
3.601141
 20
6.317391
 10
3.583318
 20
6.322630
 10
3.565631
 20
6.328006
 10
3.548070
 20
6.333508
 10
3.530625
 20
6.339125
 10
3.513285
 20
6.344848
 10
3.496041
 20
6.350666
 10
3.478882
 20
6.356569
 10
3.461797
 20
6.362547
 10
3.444777
 20
6.368589
 10
3.427811
 20
6.374686
 10
3.410888
 20
6.380826
 10
3.394000
 20
6.387000
 10
3.377138
 20
6.393201
 10
3.360311
 20
6.399436
 10
3.343527
 20
6.405714
 10
3.326797
 20
6.412047
 10
3.310132
 20
6.418444
 10
3.293541
 20
6.424916
 10
3.277035
 20
6.431473
 10
3.260625
 20
6.438125
 10
3.244320
 20
6.444883
 10
3.228131
 20
6.451756
 10
3.212068
 20
6.458755
 10
3.196141
 20
6.465891
 10
3.180360
 20
6.473173
 10
3.164736
 20
6.480611
 10
3.149280
 20
6.488217
 10
3.134000
 20
6.496000
 10
3.118883
 20
6.503945
 10
3.103904
 20
6.512031
 10
3.089064
 20
6.520258
 10
3.074359
 20
6.528625
 10
3.059790
 20
6.537133
 10
3.045354
 20
6.545781
 10
3.031049
 20
6.554570
 10
3.016875
 20
6.563500
 10
3.002830
 20
6.572570
 10
2.988912
 20
6.581781
 10
2.975120
 20
6.591133
 10
2.961453
 20
6.600625
 10
2.947909
 20
6.610258
 10
2.934486
 20
6.620031
 10
2.921184
 20
6.629945
 10
2.908000
 20
6.640000
 10
2.895121
 20
6.650019
 10
2.882361
 20
6.660199
 10
2.869721
 20
6.670538
 10
2.857203
 20
6.681031
 10
2.844808
 20
6.691677
 10
2.832537
 20
6.702473
 10
2.820392
 20
6.713415
 10
2.808375
 20
6.724500
 10
2.796487
 20
6.735726
 10
2.784729
 20
6.747090
 10
2.773102
 20
6.758588
 10
2.761609
 20
6.770219
 10
2.750251
 20
6.781978
 10
2.739029
 20
6.793863
 10
2.727945
 20
6.805872
 10
2.717000
 20
6.818000
 10
2.706206
 20
6.830280
 10
2.695568
 20
6.842736
 10
2.685080
 20
6.855360
 10
2.674734
 20
6.868141
 10
2.664523
 20
6.881068
 10
2.654439
 20
6.894131
 10
2.644476
 20
6.907320
 10
2.634625
 20
6.920625
 10
2.624880
 20
6.934035
 10
2.615232
 20
6.947541
 10
2.605676
 20
6.961132
 10
2.596203
 20
6.974797
 10
2.586806
 20
6.988527
 10
2.577479
 20
7.002311
 10
2.568212
 20
7.016138
 10
2.559000
 20
7.030000
 10
2.549815
 20
7.043877
 10
2.540646
 20
7.057770
 10
2.531510
 20
7.071691
 10
2.522422
 20
7.085656
 10
2.513398
 20
7.099680
 10
2.504455
 20
7.113777
 10
2.495609
 20
7.127962
 10
2.486875
 20
7.142250
 10
2.478270
 20
7.156655
 10
2.469811
 20
7.171191
 10
2.461512
 20
7.185875
 10
2.453391
 20
7.200719
 10
2.445463
 20
7.215739
 10
2.437744
 20
7.230949
 10
2.430251
 20
7.246365
 10
2.423000
 20
7.262000
 10
2.415770
 20
7.278008
 10
2.408703
 20
7.294158
 10
2.401801
 20
7.310452
 10
2.395062
 20
7.326891
 10
2.388488
 20
7.343476
 10
2.382078
 20
7.360209
 10
2.375832
 20
7.377092
 10
2.369750
 20
7.394125
 10
2.363832
 20
7.411311
 10
2.358078
 20
7.428650
 10
2.352488
 20
7.446145
 10
2.347062
 20
7.463797
 10
2.341801
 20
7.481607
 10
2.336703
 20
7.499576
 10
2.331770
 20
7.517707
 10
2.327000
 20
7.536000
 10
2.322339
 20
7.554501
 10
2.317746
 20
7.573240
 10
2.313241
 20
7.592199
 10
2.308844
 20
7.611359
 10
2.304576
 20
7.630701
 10
2.300457
 20
7.650205
 10
2.296508
 20
7.669853
 10
2.292750
 20
7.689625
 10
2.289203
 20
7.709503
 10
2.285887
 20
7.729467
 10
2.282823
 20
7.749498
 10
2.280031
 20
7.769578
 10
2.277533
 20
7.789687
 10
2.275348
 20
7.809807
 10
2.273497
 20
7.829917
 10
2.272000
 20
7.850000
 10
2.270861
 20
7.870328
 10
2.270059
 20
7.890797
 10
2.269579
 20
7.911383
 10
2.269406
 20
7.932063
 10
2.269527
 20
7.952813
 10
2.269926
 20
7.973609
 10
2.270588
 20
7.994430
 10
2.271500
 20
8.015250
 10
2.272646
 20
8.036047
 10
2.274012
 20
8.056797
 10
2.275583
 20
8.077477
 10
2.277344
 20
8.098062
 10
2.279281
 20
8.118531
 10
2.281379
 20
8.138859
 10
2.283624
 20
8.159023
 10
2.286000
 20
8.179000
 10
2.288366
 20
8.198872
 10
2.290959
 20
8.218729
 10
2.293772
 20
8.238552
 10
2.296797
 20
8.258328
 10
2.300027
 20
8.278039
 10
2.303455
 20
8.297670
 10
2.307073
 20
8.317204
 10
2.310875
 20
8.336625
 10
2.314852
 20
8.355917
 10
2.318998
 20
8.375064
 10
2.323305
 20
8.394051
 10
2.327766
 20
8.412859
 10
2.332373
 20
8.431475
 10
2.337119
 20
8.449881
 10
2.341997
 20
8.468061
 10
2.347000
 20
8.486000
 10
2.352365
 20
8.503874
 10
2.357947
 20
8.521508
 10
2.363732
 20
8.538919
 10
2.369703
 20
8.556125
 10
2.375844
 20
8.573144
 10
2.382139
 20
8.589992
 10
2.388571
 20
8.606688
 10
2.395125
 20
8.623250
 10
2.401784
 20
8.639694
 10
2.408533
 20
8.656039
 10
2.415355
 20
8.672302
 10
2.422234
 20
8.688500
 10
2.429155
 20
8.704651
 10
2.436100
 20
8.720773
 10
2.443053
 20
8.736884
 10
2.450000
 20
8.753000
 10
2.456785
 20
8.769278
 10
2.463639
 20
8.785486
 10
2.470560
 20
8.801628
 10
2.477547
 20
8.817703
 10
2.484598
 20
8.833714
 10
2.491713
 20
8.849662
 10
2.498889
 20
8.865549
 10
2.506125
 20
8.881375
 10
2.513420
 20
8.897143
 10
2.520771
 20
8.912854
 10
2.528179
 20
8.928509
 10
2.535641
 20
8.944109
 10
2.543155
 20
8.959657
 10
2.550721
 20
8.975154
 10
2.558336
 20
8.990601
 10
2.566000
 20
9.006000
 10
2.573755
 20
9.021319
 10
2.581635
 20
9.036533
 10
2.589623
 20
9.051657
 10
2.597703
 20
9.066703
 10
2.605860
 20
9.081685
 10
2.614076
 20
9.096615
 10
2.622337
 20
9.111508
 10
2.630625
 20
9.126375
 10
2.638925
 20
9.141231
 10
2.647221
 20
9.156088
 10
2.655496
 20
9.170960
 10
2.663734
 20
9.185859
 10
2.671920
 20
9.200800
 10
2.680037
 20
9.215795
 10
2.688069
 20
9.230857
 10
2.696000
 20
9.246000
 10
2.703863
 20
9.261199
 10
2.711703
 20
9.276422
 10
2.719520
 20
9.291668
 10
2.727313
 20
9.306938
 10
2.735082
 20
9.322230
 10
2.742828
 20
9.337547
 10
2.750551
 20
9.352887
 10
2.758250
 20
9.368250
 10
2.765926
 20
9.383637
 10
2.773578
 20
9.399047
 10
2.781207
 20
9.414480
 10
2.788813
 20
9.429937
 10
2.796395
 20
9.445418
 10
2.803953
 20
9.460922
 10
2.811488
 20
9.476449
 10
2.819000
 20
9.492000
 10
2.826543
 20
9.507531
 10
2.834158
 20
9.523010
 10
2.841823
 20
9.538457
 10
2.849516
 20
9.553891
 10
2.857214
 20
9.569330
 10
2.864896
 20
9.584795
 10
2.872541
 20
9.600303
 10
2.880125
 20
9.615875
 10
2.887627
 20
9.631529
 10
2.895025
 20
9.647283
 10
2.902298
 20
9.663158
 10
2.909422
 20
9.679172
 10
2.916376
 20
9.695344
 10
2.923139
 20
9.711693
 10
2.929687
 20
9.728239
 10
2.936000
 20
9.745000
 10
2.942095
 20
9.761967
 10
2.948014
 20
9.779111
 10
2.953765
 20
9.796423
 10
2.959359
 20
9.813891
 10
2.964807
 20
9.831505
 10
2.970119
 20
9.849256
 10
2.975305
 20
9.867133
 10
2.980375
 20
9.885125
 10
2.985340
 20
9.903223
 10
2.990209
 20
9.921416
 10
2.994993
 20
9.939694
 10
2.999703
 20
9.958047
 10
3.004348
 20
9.976464
 10
3.008939
 20
9.994936
 10
3.013487
 20
10.013451
 10
3.018000
 20
10.032000
 10
3.022453
 20
10.050609
 10
3.026814
 20
10.069311
 10
3.031085
 20
10.088103
 10
3.035266
 20
10.106984
 10
3.039359
 20
10.125954
 10
3.043365
 20
10.145010
 10
3.047287
 20
10.164151
 10
3.051125
 20
10.183375
 10
3.054881
 20
10.202681
 10
3.058557
 20
10.222068
 10
3.062153
 20
10.241534
 10
3.065672
 20
10.261078
 10
3.069115
 20
10.280698
 10
3.072482
 20
10.300393
 10
3.075777
 20
10.320160
 10
3.079000
 20
10.340000
 10
3.082086
 20
10.359976
 10
3.084986
 20
10.380139
 10
3.087725
 20
10.400462
 10
3.090328
 20
10.420922
 10
3.092820
 20
10.441493
 10
3.095225
 20
10.462150
 10
3.097568
 20
10.482869
 10
3.099875
 20
10.503625
 10
3.102170
 20
10.524392
 10
3.104479
 20
10.545146
 10
3.106825
 20
10.565863
 10
3.109234
 20
10.586516
 10
3.111732
 20
10.607081
 10
3.114342
 20
10.627533
 10
3.117090
 20
10.647848
 10
3.120000
 20
10.668000
 10
3.123013
 20
10.688050
 10
3.126055
 20
10.708072
 10
3.129132
 20
10.728062
 10
3.132250
 20
10.748016
 10
3.135415
 20
10.767928
 10
3.138633
 20
10.787795
 10
3.141909
 20
10.807612
 10
3.145250
 20
10.827375
 10
3.148661
 20
10.847079
 10
3.152148
 20
10.866721
 10
3.155718
 20
10.886295
 10
3.159375
 20
10.905797
 10
3.163126
 20
10.925223
 10
3.166977
 20
10.944568
 10
3.170933
 20
10.963829
 10
3.175000
 20
10.983000
 10
3.179127
 20
11.001935
 10
3.183268
 20
11.020857
 10
3.187434
 20
11.039753
 10
3.191641
 20
11.058609
 10
3.195900
 20
11.077413
 10
3.200225
 20
11.096150
 10
3.204629
 20
11.114809
 10
3.209125
 20
11.133375
 10
3.213727
 20
11.151836
 10
3.218447
 20
11.170178
 10
3.223300
 20
11.188388
 10
3.228297
 20
11.206453
 10
3.233452
 20
11.224360
 10
3.238779
 20
11.242096
 10
3.244291
 20
11.259647
 10
3.250000
 20
11.277000
 10
3.255905
 20
11.294169
 10
3.261986
 20
11.311182
 10
3.268235
 20
11.328045
 10
3.274641
 20
11.344766
 10
3.281193
 20
11.361352
 10
3.287881
 20
11.377811
 10
3.294695
 20
11.394149
 10
3.301625
 20
11.410375
 10
3.308660
 20
11.426495
 10
3.315791
 20
11.442518
 10
3.323007
 20
11.458449
 10
3.330297
 20
11.474297
 10
3.337652
 20
11.490069
 10
3.345061
 20
11.505771
 10
3.352513
 20
11.521413
 10
3.360000
 20
11.537000
 10
3.367524
 20
11.552538
 10
3.375102
 20
11.568023
 10
3.382737
 20
11.583450
 10
3.390437
 20
11.598813
 10
3.398208
 20
11.614104
 10
3.406055
 20
11.629320
 10
3.413983
 20
11.644454
 10
3.422000
 20
11.659500
 10
3.430110
 20
11.674452
 10
3.438320
 20
11.689305
 10
3.446636
 20
11.704052
 10
3.455063
 20
11.718687
 10
3.463606
 20
11.733206
 10
3.472273
 20
11.747602
 10
3.481069
 20
11.761868
 10
3.490000
 20
11.776000
 10
3.498904
 20
11.789993
 10
3.507984
 20
11.803854
 10
3.517229
 20
11.817588
 10
3.526625
 20
11.831203
 10
3.536162
 20
11.844707
 10
3.545828
 20
11.858107
 10
3.555611
 20
11.871411
 10
3.565500
 20
11.884625
 10
3.575482
 20
11.897757
 10
3.585547
 20
11.910814
 10
3.595682
 20
11.923804
 10
3.605875
 20
11.936734
 10
3.616115
 20
11.949612
 10
3.626391
 20
11.962443
 10
3.636689
 20
11.975237
 10
3.647000
 20
11.988000
 10
3.657303
 20
12.000925
 10
3.667596
 20
12.013818
 10
3.677891
 20
12.026674
 10
3.688203
 20
12.039484
 10
3.698544
 20
12.052242
 10
3.708928
 20
12.064939
 10
3.719367
 20
12.077570
 10
3.729875
 20
12.090125
 10
3.740465
 20
12.102598
 10
3.751150
 20
12.114982
 10
3.761944
 20
12.127270
 10
3.772859
 20
12.139453
 10
3.783909
 20
12.151525
 10
3.795107
 20
12.163479
 10
3.806467
 20
12.175306
 10
3.818000
 20
12.187000
 10
3.829529
 20
12.198369
 10
3.841232
 20
12.209605
 10
3.853097
 20
12.220719
 10
3.865109
 20
12.231719
 10
3.877257
 20
12.242613
 10
3.889525
 20
12.253410
 10
3.901903
 20
12.264120
 10
3.914375
 20
12.274750
 10
3.926929
 20
12.285310
 10
3.939553
 20
12.295809
 10
3.952232
 20
12.306254
 10
3.964953
 20
12.316656
 10
3.977704
 20
12.327023
 10
3.990471
 20
12.337363
 10
4.003240
 20
12.347686
 10
4.016000
 20
12.358000
 10
4.028928
 20
12.368135
 10
4.041844
 20
12.378281
 10
4.054760
 20
12.388428
 10
4.067687
 20
12.398563
 10
4.080639
 20
12.408674
 10
4.093625
 20
12.418750
 10
4.106658
 20
12.428779
 10
4.119750
 20
12.438750
 10
4.132912
 20
12.448650
 10
4.146156
 20
12.458469
 10
4.159494
 20
12.468193
 10
4.172937
 20
12.477812
 10
4.186498
 20
12.487314
 10
4.200188
 20
12.496688
 10
4.214018
 20
12.505920
 10
4.228000
 20
12.515000
 10
4.242132
 20
12.523931
 10
4.256400
 20
12.532727
 10
4.270801
 20
12.541394
 10
4.285328
 20
12.549937
 10
4.299979
 20
12.558364
 10
4.314748
 20
12.566680
 10
4.329632
 20
12.574890
 10
4.344625
 20
12.583000
 10
4.359724
 20
12.591017
 10
4.374924
 20
12.598945
 10
4.390220
 20
12.606792
 10
4.405609
 20
12.614562
 10
4.421086
 20
12.622263
 10
4.436646
 20
12.629898
 10
4.452286
 20
12.637476
 10
4.468000
 20
12.645000
 10
4.483587
 20
12.652464
 10
4.499227
 20
12.659855
 10
4.514925
 20
12.667170
 10
4.530687
 20
12.674406
 10
4.546521
 20
12.681560
 10
4.562430
 20
12.688629
 10
4.578421
 20
12.695610
 10
4.594500
 20
12.702500
 10
4.610673
 20
12.709296
 10
4.626945
 20
12.715996
 10
4.643323
 20
12.722596
 10
4.659813
 20
12.729094
 10
4.676419
 20
12.735486
 10
4.693148
 20
12.741770
 10
4.710007
 20
12.747942
 10
4.727000
 20
12.754000
 10
4.744275
 20
12.759964
 10
4.761605
 20
12.765850
 10
4.779000
 20
12.771651
 10
4.796469
 20
12.777359
 10
4.814019
 20
12.782969
 10
4.831660
 20
12.788471
 10
4.849401
 20
12.793859
 10
4.867250
 20
12.799125
 10
4.885216
 20
12.804262
 10
4.903309
 20
12.809264
 10
4.921536
 20
12.814121
 10
4.939906
 20
12.818828
 10
4.958429
 20
12.823377
 10
4.977113
 20
12.827760
 10
4.995967
 20
12.831970
 10
5.015000
 20
12.836000
 10
5.034019
 20
12.840044
 10
5.053197
 20
12.843928
 10
5.072531
 20
12.847656
 10
5.092016
 20
12.851234
 10
5.111647
 20
12.854666
 10
5.131420
 20
12.857955
 10
5.151331
 20
12.861107
 10
5.171375
 20
12.864125
 10
5.191548
 20
12.867014
 10
5.211846
 20
12.869779
 10
5.232263
 20
12.872424
 10
5.252797
 20
12.874953
 10
5.273442
 20
12.877371
 10
5.294193
 20
12.879682
 10
5.315048
 20
12.881890
 10
5.336000
 20
12.884000
 10
5.357091
 20
12.886202
 10
5.378354
 20
12.888307
 10
5.399771
 20
12.890308
 10
5.421328
 20
12.892203
 10
5.443008
 20
12.893987
 10
5.464795
 20
12.895654
 10
5.486673
 20
12.897202
 10
5.508625
 20
12.898625
 10
5.530636
 20
12.899919
 10
5.552689
 20
12.901080
 10
5.574769
 20
12.902103
 10
5.596859
 20
12.902984
 10
5.618944
 20
12.903719
 10
5.641006
 20
12.904303
 10
5.663030
 20
12.904731
 10
5.685000
 20
12.905000
 10
5.707027
 20
12.905106
 10
5.729213
 20
12.905055
 10
5.751531
 20
12.904851
 10
5.773953
 20
12.904500
 10
5.796451
 20
12.904009
 10
5.818998
 20
12.903383
 10
5.841565
 20
12.902628
 10
5.864125
 20
12.901750
 10
5.886650
 20
12.900755
 10
5.909111
 20
12.899648
 10
5.931482
 20
12.898437
 10
5.953734
 20
12.897125
 10
5.975840
 20
12.895720
 10
5.997771
 20
12.894227
 10
6.019501
 20
12.892651
 10
6.041000
 20
12.891000
 10
6.062306
 20
12.889243
 10
6.083477
 20
12.887352
 10
6.104519
 20
12.885331
 10
6.125438
 20
12.883188
 10
6.146239
 20
12.880927
 10
6.166930
 20
12.878555
 10
6.187515
 20
12.876077
 10
6.208000
 20
12.873500
 10
6.228392
 20
12.870829
 10
6.248695
 20
12.868070
 10
6.268917
 20
12.865229
 10
6.289062
 20
12.862312
 10
6.309138
 20
12.859325
 10
6.329148
 20
12.856273
 10
6.349101
 20
12.853163
 10
6.369000
 20
12.850000
 10
6.388840
 20
12.846766
 10
6.408607
 20
12.843439
 10
6.428302
 20
12.840022
 10
6.447922
 20
12.836516
 10
6.467466
 20
12.832921
 10
6.486932
 20
12.829240
 10
6.506319
 20
12.825474
 10
6.525625
 20
12.821625
 10
6.544849
 20
12.817694
 10
6.563990
 20
12.813682
 10
6.583046
 20
12.809591
 10
6.602016
 20
12.805422
 10
6.620897
 20
12.801177
 10
6.639689
 20
12.796857
 10
6.658391
 20
12.792465
 10
6.677000
 20
12.788000
 10
6.695505
 20
12.783454
 10
6.713900
 20
12.778816
 10
6.732193
 20
12.774091
 10
6.750391
 20
12.769281
 10
6.768500
 20
12.764389
 10
6.786529
 20
12.759418
 10
6.804485
 20
12.754371
 10
6.822375
 20
12.749250
 10
6.840206
 20
12.744059
 10
6.857986
 20
12.738801
 10
6.875722
 20
12.733478
 10
6.893422
 20
12.728094
 10
6.911092
 20
12.722651
 10
6.928740
 20
12.717152
 10
6.946374
 20
12.711601
 10
6.964000
 20
12.706000
 10
6.981436
 20
12.700539
 10
6.998865
 20
12.695027
 10
7.016280
 20
12.689463
 10
7.033672
 20
12.683844
 10
7.051035
 20
12.678166
 10
7.068361
 20
12.672426
 10
7.085644
 20
12.666622
 10
7.102875
 20
12.660750
 10
7.120048
 20
12.654808
 10
7.137154
 20
12.648793
 10
7.154188
 20
12.642702
 10
7.171141
 20
12.636531
 10
7.188006
 20
12.630279
 10
7.204775
 20
12.623941
 10
7.221443
 20
12.617516
 10
7.238000
 20
12.611000
 10
7.254289
 20
12.604226
 10
7.270527
 20
12.597400
 10
7.286713
 20
12.590519
 10
7.302844
 20
12.583578
 10
7.318916
 20
12.576573
 10
7.334926
 20
12.569498
 10
7.350872
 20
12.562350
 10
7.366750
 20
12.555125
 10
7.382558
 20
12.547818
 10
7.398293
 20
12.540424
 10
7.413952
 20
12.532939
 10
7.429531
 20
12.525359
 10
7.445029
 20
12.517680
 10
7.460441
 20
12.509896
 10
7.475766
 20
12.502005
 10
7.491000
 20
12.494000
 10
7.505976
 20
12.486090
 10
7.520902
 20
12.478107
 10
7.535776
 20
12.470052
 10
7.550594
 20
12.461922
 10
7.565353
 20
12.453716
 10
7.580051
 20
12.445432
 10
7.594684
 20
12.437069
 10
7.609250
 20
12.428625
 10
7.623746
 20
12.420099
 10
7.638168
 20
12.411490
 10
7.652514
 20
12.402796
 10
7.666781
 20
12.394016
 10
7.680966
 20
12.385147
 10
7.695066
 20
12.376189
 10
7.709079
 20
12.367141
 10
7.723000
 20
12.358000
 10
7.736862
 20
12.348788
 10
7.750689
 20
12.339521
 10
7.764473
 20
12.330194
 10
7.778203
 20
12.320797
 10
7.791868
 20
12.311324
 10
7.805459
 20
12.301768
 10
7.818965
 20
12.292120
 10
7.832375
 20
12.282375
 10
7.845680
 20
12.272524
 10
7.858869
 20
12.262561
 10
7.871932
 20
12.252477
 10
7.884859
 20
12.242266
 10
7.897640
 20
12.231920
 10
7.910264
 20
12.221432
 10
7.922720
 20
12.210794
 10
7.935000
 20
12.200000
 10
7.947095
 20
12.189033
 10
7.959014
 20
12.177889
 10
7.970765
 20
12.166577
 10
7.982359
 20
12.155109
 10
7.993807
 20
12.143495
 10
8.005119
 20
12.131744
 10
8.016305
 20
12.119867
 10
8.027375
 20
12.107875
 10
8.038340
 20
12.095777
 10
8.049209
 20
12.083584
 10
8.059993
 20
12.071306
 10
8.070703
 20
12.058953
 10
8.081348
 20
12.046536
 10
8.091939
 20
12.034064
 10
8.102487
 20
12.021549
 10
8.113000
 20
12.009000
 10
8.123497
 20
11.996259
 10
8.133979
 20
11.983525
 10
8.144427
 20
11.970783
 10
8.154828
 20
11.958016
 10
8.165164
 20
11.945207
 10
8.175420
 20
11.932342
 10
8.185579
 20
11.919403
 10
8.195625
 20
11.906375
 10
8.205542
 20
11.893241
 10
8.215314
 20
11.879986
 10
8.224926
 20
11.866594
 10
8.234359
 20
11.853047
 10
8.243600
 20
11.839330
 10
8.252631
 20
11.825428
 10
8.261436
 20
11.811323
 10
8.270000
 20
11.797000
 10
8.278543
 20
11.782304
 10
8.286922
 20
11.767467
 10
8.295137
 20
11.752486
 10
8.303187
 20
11.737359
 10
8.311074
 20
11.722087
 10
8.318797
 20
11.706666
 10
8.326355
 20
11.691096
 10
8.333750
 20
11.675375
 10
8.340980
 20
11.659502
 10
8.348047
 20
11.643475
 10
8.354949
 20
11.627292
 10
8.361688
 20
11.610953
 10
8.368262
 20
11.594456
 10
8.374672
 20
11.577799
 10
8.380918
 20
11.560981
 10
8.387000
 20
11.544000
 10
8.392786
 20
11.526669
 10
8.398508
 20
11.509178
 10
8.404147
 20
11.491531
 10
8.409688
 20
11.473734
 10
8.415110
 20
11.455791
 10
8.420398
 20
11.437705
 10
8.425534
 20
11.419482
 10
8.430500
 20
11.401125
 10
8.435278
 20
11.382639
 10
8.439852
 20
11.364029
 10
8.444202
 20
11.345299
 10
8.448313
 20
11.326453
 10
8.452165
 20
11.307496
 10
8.455742
 20
11.288432
 10
8.459026
 20
11.269265
 10
8.462000
 20
11.250000
 10
8.464662
 20
11.230364
 10
8.467029
 20
11.210475
 10
8.469113
 20
11.190360
 10
8.470922
 20
11.170047
 10
8.472468
 20
11.149564
 10
8.473760
 20
11.128939
 10
8.474809
 20
11.108200
 10
8.475625
 20
11.087375
 10
8.476219
 20
11.066491
 10
8.476600
 20
11.045576
 10
8.476779
 20
11.024658
 10
8.476766
 20
11.003766
 10
8.476571
 20
10.982926
 10
8.476205
 20
10.962166
 10
8.475678
 20
10.941515
 10
8.475000
 20
10.921000
 10
8.474354
 20
10.900696
 10
8.473539
 20
10.880301
 10
8.472548
 20
10.859841
 10
8.471375
 20
10.839344
 10
8.470015
 20
10.818834
 10
8.468461
 20
10.798340
 10
8.466708
 20
10.777886
 10
8.464750
 20
10.757500
 10
8.462581
 20
10.737208
 10
8.460195
 20
10.717035
 10
8.457587
 20
10.697009
 10
8.454750
 20
10.677156
 10
8.451679
 20
10.657502
 10
8.448367
 20
10.638074
 10
8.444810
 20
10.618898
 10
8.441000
 20
10.600000
 10
8.437100
 20
10.581332
 10
8.432910
 20
10.562824
 10
8.428445
 20
10.544475
 10
8.423719
 20
10.526281
 10
8.418747
 20
10.508240
 10
8.413543
 20
10.490348
 10
8.408123
 20
10.472602
 10
8.402500
 20
10.455000
 10
8.396690
 20
10.437539
 10
8.390707
 20
10.420215
 10
8.384566
 20
10.403026
 10
8.378281
 20
10.385969
 10
8.371868
 20
10.369041
 10
8.365340
 20
10.352238
 10
8.358712
 20
10.335559
 10
8.352000
 20
10.319000
 10
8.345367
 20
10.302746
 10
8.338594
 20
10.286609
 10
8.331680
 20
10.270590
 10
8.324625
 20
10.254687
 10
8.317430
 20
10.238902
 10
8.310094
 20
10.223234
 10
8.302617
 20
10.207684
 10
8.295000
 20
10.192250
 10
8.287242
 20
10.176934
 10
8.279344
 20
10.161734
 10
8.271305
 20
10.146652
 10
8.263125
 20
10.131687
 10
8.254805
 20
10.116840
 10
8.246344
 20
10.102109
 10
8.237742
 20
10.087496
 10
8.229000
 20
10.073000
 10
8.220096
 20
10.058853
 10
8.211016
 20
10.044900
 10
8.201771
 20
10.031127
 10
8.192375
 20
10.017516
 10
8.182838
 20
10.004051
 10
8.173172
 20
9.990717
 10
8.163389
 20
9.977497
 10
8.153500
 20
9.964375
 10
8.143518
 20
9.951335
 10
8.133453
 20
9.938361
 10
8.123318
 20
9.925437
 10
8.113125
 20
9.912547
 10
8.102885
 20
9.899674
 10
8.092609
 20
9.886803
 10
8.082311
 20
9.873917
 10
8.072000
 20
9.861000
 10
8.061664
 20
9.848273
 10
8.051281
 20
9.835594
 10
8.040852
 20
9.822961
 10
8.030375
 20
9.810375
 10
8.019852
 20
9.797836
 10
8.009281
 20
9.785344
 10
7.998664
 20
9.772898
 10
7.988000
 20
9.760500
 10
7.977289
 20
9.748148
 10
7.966531
 20
9.735844
 10
7.955727
 20
9.723586
 10
7.944875
 20
9.711375
 10
7.933977
 20
9.699211
 10
7.923031
 20
9.687094
 10
7.912039
 20
9.675023
 10
7.901000
 20
9.663000
 10
7.889892
 20
9.651046
 10
7.878695
 20
9.639178
 10
7.867417
 20
9.627389
 10
7.856063
 20
9.615672
 10
7.844638
 20
9.604019
 10
7.833148
 20
9.592424
 10
7.821601
 20
9.580878
 10
7.810000
 20
9.569375
 10
7.798353
 20
9.557907
 10
7.786664
 20
9.546467
 10
7.774940
 20
9.535047
 10
7.763187
 20
9.523641
 10
7.751411
 20
9.512240
 10
7.739617
 20
9.500838
 10
7.727812
 20
9.489427
 10
7.716000
 20
9.478000
 10
7.704352
 20
9.466761
 10
7.692658
 20
9.455545
 10
7.680921
 20
9.444349
 10
7.669141
 20
9.433172
 10
7.657320
 20
9.422012
 10
7.645459
 20
9.410869
 10
7.633560
 20
9.399740
 10
7.621625
 20
9.388625
 10
7.609655
 20
9.377521
 10
7.597650
 20
9.366428
 10
7.585614
 20
9.355343
 10
7.573547
 20
9.344266
 10
7.561450
 20
9.333194
 10
7.549326
 20
9.322127
 10
7.537176
 20
9.311063
 10
7.525000
 20
9.300000
 10
7.512790
 20
9.289148
 10
7.500535
 20
9.278338
 10
7.488240
 20
9.267566
 10
7.475906
 20
9.256828
 10
7.463538
 20
9.246119
 10
7.451137
 20
9.235436
 10
7.438707
 20
9.224772
 10
7.426250
 20
9.214125
 10
7.413770
 20
9.203490
 10
7.401270
 20
9.192861
 10
7.388751
 20
9.182236
 10
7.376219
 20
9.171609
 10
7.363674
 20
9.160977
 10
7.351121
 20
9.150334
 10
7.338562
 20
9.139677
 10
7.326000
 20
9.129000
 10
7.313614
 20
9.118334
 10
7.301209
 20
9.107707
 10
7.288789
 20
9.097109
 10
7.276359
 20
9.086531
 10
7.263924
 20
9.075965
 10
7.251486
 20
9.065402
 10
7.239052
 20
9.054833
 10
7.226625
 20
9.044250
 10
7.214210
 20
9.033643
 10
7.201811
 20
9.023004
 10
7.189432
 20
9.012324
 10
7.177078
 20
9.001594
 10
7.164754
 20
8.990805
 10
7.152463
 20
8.979949
 10
7.140210
 20
8.969017
 10
7.128000
 20
8.958000
 10
7.115813
 20
8.947124
 10
7.103633
 20
8.936244
 10
7.091464
 20
8.925355
 10
7.079313
 20
8.914453
 10
7.067185
 20
8.903533
 10
7.055086
 20
8.892592
 10
7.043022
 20
8.881624
 10
7.031000
 20
8.870625
 10
7.019024
 20
8.859591
 10
7.007102
 20
8.848518
 10
6.995237
 20
8.837400
 10
6.983437
 20
8.826234
 10
6.971708
 20
8.815016
 10
6.960055
 20
8.803740
 10
6.948483
 20
8.792403
 10
6.937000
 20
8.781000
 10
6.925410
 20
8.769352
 10
6.913889
 20
8.757656
 10
6.902435
 20
8.745914
 10
6.891047
 20
8.734125
 10
6.879723
 20
8.722289
 10
6.868463
 20
8.710406
 10
6.857264
 20
8.698477
 10
6.846125
 20
8.686500
 10
6.835045
 20
8.674477
 10
6.824021
 20
8.662406
 10
6.813054
 20
8.650289
 10
6.802141
 20
8.638125
 10
6.791280
 20
8.625914
 10
6.780471
 20
8.613656
 10
6.769711
 20
8.601352
 10
6.759000
 20
8.589000
 10
6.748325
 20
8.576612
 10
6.737680
 20
8.564195
 10
6.727069
 20
8.551743
 10
6.716500
 20
8.539250
 10
6.705978
 20
8.526710
 10
6.695508
 20
8.514117
 10
6.685097
 20
8.501466
 10
6.674750
 20
8.488750
 10
6.664474
 20
8.475964
 10
6.654273
 20
8.463102
 10
6.644155
 20
8.450157
 10
6.634125
 20
8.437125
 10
6.624188
 20
8.423999
 10
6.614352
 20
8.410773
 10
6.604620
 20
8.397442
 10
6.595000
 20
8.384000
 10
6.585319
 20
8.370454
 10
6.575770
 20
8.356816
 10
6.566343
 20
8.343091
 10
6.557031
 20
8.329281
 10
6.547825
 20
8.315389
 10
6.538715
 20
8.301418
 10
6.529693
 20
8.287371
 10
6.520750
 20
8.273250
 10
6.511877
 20
8.259059
 10
6.503066
 20
8.244801
 10
6.494308
 20
8.230478
 10
6.485594
 20
8.216094
 10
6.476915
 20
8.201651
 10
6.468262
 20
8.187152
 10
6.459626
 20
8.172601
 10
6.451000
 20
8.158000
 10
6.442421
 20
8.143517
 10
6.433930
 20
8.128945
 10
6.425521
 20
8.114292
 10
6.417187
 20
8.099562
 10
6.408925
 20
8.084763
 10
6.400727
 20
8.069898
 10
6.392587
 20
8.054976
 10
6.384500
 20
8.040000
 10
6.376460
 20
8.024978
 10
6.368461
 20
8.009914
 10
6.360497
 20
7.994815
 10
6.352563
 20
7.979688
 10
6.344651
 20
7.964536
 10
6.336758
 20
7.949367
 10
6.328876
 20
7.934187
 10
6.321000
 20
7.919000
 10
6.313170
 20
7.903757
 10
6.305420
 20
7.888414
 10
6.297738
 20
7.872989
 10
6.290109
 20
7.857500
 10
6.282522
 20
7.841964
 10
6.274963
 20
7.826398
 10
6.267418
 20
7.810821
 10
6.259875
 20
7.795250
 10
6.252320
 20
7.779702
 10
6.244740
 20
7.764195
 10
6.237122
 20
7.748747
 10
6.229453
 20
7.733375
 10
6.221719
 20
7.718097
 10
6.213908
 20
7.702930
 10
6.206006
 20
7.687892
 10
6.198000
 20
7.673000
 10
6.189892
 20
7.658035
 10
6.181695
 20
7.643137
 10
6.173417
 20
7.628303
 10
6.165062
 20
7.613531
 10
6.156638
 20
7.598818
 10
6.148148
 20
7.584160
 10
6.139601
 20
7.569555
 10
6.131000
 20
7.555000
 10
6.122353
 20
7.540492
 10
6.113664
 20
7.526027
 10
6.104940
 20
7.511604
 10
6.096188
 20
7.497219
 10
6.087411
 20
7.482869
 10
6.078617
 20
7.468551
 10
6.069812
 20
7.454262
 10
6.061000
 20
7.440000
 10
6.052209
 20
7.425729
 10
6.043453
 20
7.411422
 10
6.034721
 20
7.397092
 10
6.026000
 20
7.382750
 10
6.017279
 20
7.368408
 10
6.008547
 20
7.354078
 10
5.999791
 20
7.339771
 10
5.991000
 20
7.325500
 10
5.982162
 20
7.311275
 10
5.973266
 20
7.297109
 10
5.964299
 20
7.283014
 10
5.955250
 20
7.269000
 10
5.946107
 20
7.255080
 10
5.936859
 20
7.241266
 10
5.927494
 20
7.227568
 10
5.918000
 20
7.214000
 10
5.908204
 20
7.200722
 10
5.898318
 20
7.187514
 10
5.888348
 20
7.174372
 10
5.878297
 20
7.161297
 10
5.868170
 20
7.148286
 10
5.857971
 20
7.135338
 10
5.847704
 20
7.122451
 10
5.837375
 20
7.109625
 10
5.826987
 20
7.096857
 10
5.816545
 20
7.084146
 10
5.806053
 20
7.071491
 10
5.795516
 20
7.058891
 10
5.784937
 20
7.046343
 10
5.774322
 20
7.033846
 10
5.763675
 20
7.021399
 10
5.753000
 20
7.009000
 10
5.742311
 20
6.996627
 10
5.731613
 20
6.984264
 10
5.720898
 20
6.971921
 10
5.710156
 20
6.959609
 10
5.699379
 20
6.947339
 10
5.688559
 20
6.935119
 10
5.677685
 20
6.922961
 10
5.666750
 20
6.910875
 10
5.655745
 20
6.898871
 10
5.644660
 20
6.886959
 10
5.633488
 20
6.875150
 10
5.622219
 20
6.863453
 10
5.610844
 20
6.851880
 10
5.599355
 20
6.840439
 10
5.587744
 20
6.829143
 10
5.576000
 20
6.818000
 10
5.563931
 20
6.806831
 10
5.551727
 20
6.795818
 10
5.539394
 20
6.784955
 10
5.526937
 20
6.774234
 10
5.514364
 20
6.763648
 10
5.501680
 20
6.753189
 10
5.488890
 20
6.742851
 10
5.476000
 20
6.732625
 10
5.463017
 20
6.722505
 10
5.449945
 20
6.712482
 10
5.436792
 20
6.702551
 10
5.423563
 20
6.692703
 10
5.410263
 20
6.682931
 10
5.396898
 20
6.673229
 10
5.383476
 20
6.663587
 10
5.370000
 20
6.654000
 10
5.356641
 20
6.644286
 10
5.343188
 20
6.634646
 10
5.329641
 20
6.625086
 10
5.316000
 20
6.615609
 10
5.302266
 20
6.606220
 10
5.288438
 20
6.596924
 10
5.274516
 20
6.587724
 10
5.260500
 20
6.578625
 10
5.246391
 20
6.569632
 10
5.232188
 20
6.560748
 10
5.217891
 20
6.551979
 10
5.203500
 20
6.543328
 10
5.189016
 20
6.534801
 10
5.174437
 20
6.526400
 10
5.159766
 20
6.518132
 10
5.145000
 20
6.510000
 10
5.129931
 20
6.501996
 10
5.114729
 20
6.494105
 10
5.099400
 20
6.486327
 10
5.083953
 20
6.478656
 10
5.068395
 20
6.471091
 10
5.052732
 20
6.463629
 10
5.036973
 20
6.456266
 10
5.021125
 20
6.449000
 10
5.005195
 20
6.441828
 10
4.989189
 20
6.434746
 10
4.973117
 20
6.427752
 10
4.956984
 20
6.420844
 10
4.940799
 20
6.414017
 10
4.924568
 20
6.407270
 10
4.908300
 20
6.400598
 10
4.892000
 20
6.394000
 10
4.875278
 20
6.387264
 10
4.858160
 20
6.380564
 10
4.840720
 20
6.373915
 10
4.823031
 20
6.367328
 10
4.805167
 20
6.360818
 10
4.787199
 20
6.354396
 10
4.769203
 20
6.348078
 10
4.751250
 20
6.341875
 10
4.733415
 20
6.335801
 10
4.715770
 20
6.329869
 10
4.698388
 20
6.324093
 10
4.681344
 20
6.318484
 10
4.664709
 20
6.313058
 10
4.648559
 20
6.307826
 10
4.632964
 20
6.302802
 10
4.618000
 20
6.298000
 10
4.603913
 20
6.293416
 10
4.590475
 20
6.289033
 10
4.577608
 20
6.284841
 10
4.565234
 20
6.280828
 10
4.553277
 20
6.276986
 10
4.541658
 20
6.273303
 10
4.530300
 20
6.269769
 10
4.519125
 20
6.266375
 10
4.508055
 20
6.263110
 10
4.497014
 20
6.259963
 10
4.485922
 20
6.256925
 10
4.474703
 20
6.253984
 10
4.463279
 20
6.251132
 10
4.451572
 20
6.248357
 10
4.439505
 20
6.245650
 10
4.427000
 20
6.243000
 10
4.413972
 20
6.240554
 10
4.400773
 20
6.238107
 10
4.387423
 20
6.235681
 10
4.373938
 20
6.233297
 10
4.360335
 20
6.230977
 10
4.346633
 20
6.228744
 10
4.332849
 20
6.226619
 10
4.319000
 20
6.224625
 10
4.305104
 20
6.222783
 10
4.291180
 20
6.221115
 10
4.277243
 20
6.219644
 10
4.263312
 20
6.218391
 10
4.249405
 20
6.217378
 10
4.235539
 20
6.216627
 10
4.221731
 20
6.216160
 10
4.208000
 20
6.216000
  0
ENDSEC
  0
EOF
